<svg width="195" height="275" viewBox="0 0 195 275" fill="none" xmlns="http://www.w3.org/2000/svg">
<path d="M133.024 255.187C132.525 255.202 132.729 255.218 132.264 255.154C123.901 254.003 115.105 254.151 106.667 253.9C99.3852 253.685 92.1177 253.655 84.8329 253.554C78.2709 253.463 71.7548 253.274 65.1985 253.631C65.5426 254.62 65.8983 255.19 66.5981 255.97C66.6698 258.352 66.6497 260.675 66.4719 263.052C65.2014 264.22 63.9997 265.037 62.4882 265.891C67.7768 266.888 73.3465 266.176 78.6896 266.147C100.902 266.18 123.108 265.41 145.265 263.838C151.29 263.398 157.89 263.542 163.672 261.586C164.561 261.285 165.126 261.035 165.521 260.173C163.895 257.367 155.134 258.053 152.813 256.016C152.742 255.952 152.687 255.87 152.624 255.797C149.38 257.754 143.627 261.535 139.701 260.827C136.578 260.264 134.696 257.611 133.024 255.187Z" fill="#C9D6E0"/>
<path d="M66.7672 16.1449C67.1716 12.76 67.642 9.59955 68.7347 6.34902C69.2968 4.67653 71.0119 1.95106 70.9688 0.333272C70.3149 -0.0263129 69.9392 -0.0235406 69.2022 0.151335C65.4508 1.04489 61.622 5.30214 59.8467 8.56644C58.6163 10.8305 57.9883 13.1796 57.3774 15.6688C56.7292 13.2848 55.3726 5.26978 53.7809 4.02173C53.0725 4.06186 52.7914 4.1952 52.3125 4.73973C49.3613 8.08998 47.6749 16.2078 48.2341 20.5539C48.4521 22.2538 48.9253 23.8365 49.4789 25.4537C39.8481 34.002 32.8186 45.7268 32.1102 58.7913C31.4706 70.5942 34.4505 79.8202 41.6607 89.1457C35.764 88.5394 27.378 88.2533 22.4823 92.2659C20.9364 93.5318 19.9986 95.1868 19.8896 97.1957C19.7433 99.9435 20.9077 102.905 22.792 104.894C23.5148 105.656 24.3809 106.293 25.2098 106.935C23.3742 109.05 22.0205 110.567 21.5588 113.431C21.4613 114.042 21.4268 115.071 21.1228 115.584C20.2624 117.032 17.6181 117.543 16.5369 119.298C13.3878 124.398 14.3285 139.815 14.7903 146.129C15.0799 150.092 15.8744 154.113 15.9289 158.07L15.5589 157.918C10.9271 155.973 8.27701 152.12 6.12601 147.78C5.46637 146.444 4.87842 144.854 3.97501 143.67C3.26086 143.966 2.99699 144.1 2.70732 144.846C1.25899 148.579 3.18056 157.607 5.01321 161.144C5.19574 161.494 5.38699 161.839 5.58682 162.18C3.00562 159.545 1.259 156.053 0.00280762 152.617C-0.0545502 159.254 0.742767 163.865 4.53429 169.393C5.35741 170.593 6.54762 171.579 7.25316 172.825C5.38895 171.482 2.44635 169.923 1.57448 167.799C1.51138 167.647 1.30487 167.343 1.20161 167.185L0.70546 167.204C0.215027 168.066 0.309677 168.985 0.593613 169.91C2.23123 175.267 7.08392 178.561 11.8334 180.867L12.8429 181.352C11.4318 181.605 9.407 180.918 8.08484 180.437C7.66899 180.286 7.33058 180.27 6.89178 180.299L6.73402 180.696C8.3143 183.665 11.9739 185.483 15.0771 186.427C15.7461 186.631 16.4173 186.827 17.0904 187.016C15.4614 187.02 11.2942 186.458 10.1756 187.554C10.5169 188.721 12.1747 189.761 13.1928 190.331C15.5962 191.673 18.3093 192.119 20.9938 192.513C19.0693 192.981 17.2396 193.261 15.252 193.331C19.2959 195.853 22.8092 196.78 27.5816 195.688L28.4191 195.492L24.0912 198.201C28.0978 199.816 31.6714 199.62 35.8128 198.758C36.9629 202.772 37.2238 207.699 40.9781 210.161C39.8882 212.954 39.3634 216.086 38.6664 219.003C36.1139 219.445 32.8845 219.714 31.2211 221.996C28.8378 225.265 32.5461 229.286 30.6532 232.297C29.0902 232.237 28.442 232.976 27.3206 234.006L27.1113 234.202C26.9506 235.899 27.0252 237.347 27.2891 239.03C26.2681 241.311 23.922 240.199 22.9612 243.685C21.8943 244.73 20.4919 245.001 19.3647 245.894C18.4728 246.602 18.1889 247.804 17.2051 248.53C14.2253 250.733 10.3592 251.899 7.78372 254.657C6.82867 255.68 6.93478 257.134 6.12601 258.089C3.78284 260.861 1.90431 259.75 1.84122 264.428C1.82114 266.07 1.67487 267.923 2.94252 269.148C7.39941 273.46 24.1973 274.335 30.2202 273.957C41.2649 273.262 52.2006 269.803 62.4881 265.891C63.9996 265.037 65.2013 264.22 66.4718 263.052C66.6496 260.675 66.6697 258.352 66.598 255.97C65.8982 255.191 65.5426 254.621 65.1984 253.631C71.7547 253.274 78.2708 253.463 84.8328 253.554C92.1176 253.655 99.3851 253.685 106.667 253.901C115.105 254.151 123.901 254.003 132.264 255.154C132.729 255.218 132.525 255.202 133.024 255.187C134.696 257.611 136.577 260.264 139.701 260.828C143.627 261.536 149.38 257.754 152.624 255.797C163.703 248.622 175.904 238.358 182.824 227.127C185.302 223.105 190.602 212.509 189.332 207.881C188.916 206.379 187.694 205.324 186.372 204.591C180.553 201.362 173.004 201.883 167.297 205.068C164.064 206.873 161.119 209.255 157.617 210.545C156.473 210.967 155.079 211.543 153.854 211.612C152.179 211.708 150.152 211.085 148.557 211.562C148.285 212.106 148.098 212.506 147.616 212.889C146.254 212.201 145.695 210.687 144.542 209.799C143.486 208.986 142.764 210.126 141.771 209.853C140.096 209.39 137.277 204.303 134.415 203.512C131.974 202.838 129.62 204.493 127.606 205.626C125.9 203.416 123.821 202.055 121.526 200.525L122.931 198.705C123.582 197.826 124.612 196.673 124.506 195.506C124.46 194.978 122.702 193.969 122.212 193.647C118.5 191.218 117.078 190.093 114.695 186.284C117.112 184.505 119.716 182.445 120.132 179.267C120.54 176.149 118.942 172.435 118.004 169.472C121.718 171.608 124.363 173.65 128.822 172.435C133.19 171.245 146.463 165.782 148.54 162.343C149.082 161.448 149.013 160.344 149.432 159.456C150.766 156.644 159.295 157.9 157.33 149.864C157.299 149.732 157.273 149.598 157.241 149.466C160.327 148.396 162.791 146.78 165.476 144.952C169.115 145.219 175.284 147.889 177.943 145.509C178.643 144.881 178.978 143.921 179.337 143.075C181.132 141.984 182.77 140.939 183.226 138.721C183.544 137.171 183.206 135.59 182.689 134.126C184.625 132.769 186.352 131.433 186.791 128.942C187.08 127.295 186.782 125.395 185.988 123.927C187.932 122.216 189.659 120.348 189.808 117.607C189.914 115.631 188.982 113.778 187.596 112.402C186.696 111.509 185.437 110.956 184.361 110.289C186.541 103.097 188.953 95.9478 191.331 88.8167C192.458 85.4335 193.935 81.9222 194.755 78.4613C194.947 77.6507 195.188 76.702 194.767 75.9376C193.952 74.4587 191.982 73.0375 190.665 71.9936C185.813 71.3265 165.169 69.492 161.779 72.3624C160.783 73.2036 160.061 74.874 159.57 76.0491C158.01 79.7707 156.966 83.8351 155.693 87.6704C153.585 94.0192 151.273 100.408 149.495 106.857C147.427 106.609 145.471 106.337 143.702 107.706C142.488 108.646 141.961 110.069 141.846 111.559C141.588 114.873 142.867 117.666 144.8 120.249C144.353 121.856 143.369 126.925 142.124 127.816C140.986 128.631 139.79 128.721 138.78 129.837C137.085 131.708 136.48 132.922 133.793 132.976C133.423 132.984 133.056 132.959 132.688 132.95C130.58 132.898 128.906 134.318 127.268 135.531C124.449 134.534 121.583 133.576 118.976 132.087C113.84 129.154 109.807 124.495 104.923 121.105L105.19 121.229C104.912 119.645 104.642 118.071 104.235 116.514C106.592 113.847 107.76 111.853 107.542 108.136C107.407 105.855 106.942 103.314 106.392 101.093C109.108 100.778 111.781 100.165 114.416 99.4501C120.746 102.66 128.401 106.078 135.568 103.725C138.597 102.73 141.611 100.801 142.993 97.8337C143.917 95.8463 143.908 93.7159 143.053 91.7008C142.153 89.5804 140.28 88.3001 138.175 87.5224C130.319 84.6237 123.78 88.4656 116.542 81.8156C119.392 75.4914 120.74 69.2264 121.093 62.3206C121.185 60.5421 122.249 59.0103 122.579 57.2833C123.459 52.6764 122.111 46.8999 120.132 42.7061C123.419 43.2806 126.864 44.0458 130.145 43.0437L130.494 42.6398C129.617 41.1445 125.607 40.3856 123.978 39.5413C128.556 38.2985 133.919 35.6207 136.434 31.418C136.879 30.6749 137.033 30.0886 136.999 29.2159C136.649 28.7 136.566 28.4047 135.872 28.3633C133.775 28.2384 131.145 29.0219 129.037 29.2651C126.72 29.5324 124.386 29.5206 122.057 29.4995C127.406 26.7686 133.646 20.4942 135.737 14.7596C136.058 13.8727 136.044 13.36 135.671 12.5057C134.65 11.8413 133.735 11.9493 132.585 12.1924C127.701 13.2246 122.909 14.6666 117.981 15.62C114.37 16.3186 110.628 16.5347 107.051 17.3383C108.749 14.5868 111.11 10.4618 110.398 7.0806C110.226 6.25818 109.902 5.96732 109.234 5.56771C107.22 5.68719 104.195 8.39708 102.319 9.33786C100.379 10.2985 98.3506 11.0706 96.2618 11.6432C86.1492 14.3457 76.963 12.0074 66.7672 16.1449Z" fill="#010108"/>
<path d="M114.024 189.709L112.515 190.319C112.418 191.078 112.303 191.744 112.076 192.48C112.759 192.057 113.797 191.552 114.193 190.857C114.425 190.451 114.161 190.115 114.024 189.709Z" fill="#EFEFF2"/>
<path d="M112.506 65.3584C112.114 65.4882 111.718 65.6968 111.339 65.8663C110.768 66.6904 110.777 66.9925 110.677 67.9627C111.359 68.1093 111.463 68.1213 112.119 67.8941C112.653 67.1452 112.512 66.2376 112.506 65.3584Z" fill="#DFE0E8"/>
<path d="M122.932 198.705C122.324 197.95 122.109 197.435 121.162 197.162C120.703 197.533 120.692 197.395 120.623 198.046C120.511 199.076 120.944 199.736 121.526 200.525L122.932 198.705Z" fill="#020210"/>
<path d="M148.655 111.34L148.801 110.617C148.497 109.838 148.345 109.75 147.674 109.23C147.117 109.118 146.779 109.053 146.211 109.184C145.617 109.323 145.468 109.84 145.153 110.328C145.847 111.065 147.659 111.24 148.655 111.34Z" fill="#4D6EB5"/>
<path d="M102.42 212.427C100.713 212.892 99.0699 212.499 97.3463 212.267L97.722 212.422C99.1961 213.042 101.126 214.938 102.612 214.46L103.32 213.375L102.42 212.427Z" fill="#A3A7C2"/>
<path d="M114.023 189.71C113.444 189.362 113.616 189.523 113.197 189.08C112.618 188.465 112.194 187.906 111.416 187.52L110.894 187.804C110.877 188.6 111.069 189.613 110.545 190.219L110.094 190.157L110.524 190.663L110.969 190.571C111.482 190.467 111.993 190.39 112.515 190.319L114.023 189.71Z" fill="#C9D6E0"/>
<path d="M54.8021 226.952C54.3662 227.2 53.9159 227.428 53.4829 227.678C52.4647 228.265 52.1779 229.37 51.8051 230.406C52.713 230.191 53.6157 229.955 54.5125 229.698C55.0115 228.882 54.8165 227.898 54.8021 226.952Z" fill="#DFE0E8"/>
<path d="M90.0296 62.4771C89.2323 62.5585 88.7189 62.5837 88.0708 63.1179C87.7123 63.9646 88.0794 64.8501 88.2887 65.7036C89.1807 65.6796 89.37 65.7616 90.0956 65.2017C90.4512 64.2873 90.1902 63.4106 90.0296 62.4771Z" fill="#DFE0E8"/>
<path d="M110.893 187.804C110.733 187.912 110.572 188.023 110.406 188.129C109.035 189.015 107.191 188.859 106.738 190.647L107.171 192.171C107.63 191.562 108.114 190.788 108.745 190.353C109.316 189.96 109.465 190.028 110.093 190.156L110.544 190.219C111.068 189.613 110.876 188.6 110.893 187.804Z" fill="#AAABAF"/>
<path d="M145.055 214.465C144.928 213.728 144.9 212.961 144.363 212.395C143.646 212.278 142.973 212.293 142.247 212.315L140.73 213.806L141.977 214.792C143.073 214.486 143.922 214.38 145.055 214.465Z" fill="#040303"/>
<path d="M148.398 214.922C146.996 215.155 145.456 215.982 144.443 216.968C143.385 217.999 143.075 218.855 143.081 220.307C143.692 220.435 143.827 220.473 144.415 220.286C145.37 216.143 146.465 217.81 148.398 214.922Z" fill="#EFEFF2"/>
<path d="M77.986 128.393C78.3646 129.715 78.8091 131.052 79.0672 132.402C79.3282 131.85 79.5548 131.38 79.9535 130.913C81.1322 130.479 82.5174 131.131 83.8052 131.062C83.8883 131.057 83.9715 131.051 84.0547 131.045C82.0901 129.836 80.2317 128.983 77.986 128.393Z" fill="#AAABAF"/>
<path d="M52.3027 16.6439C52.4576 17.0402 52.6755 17.5215 52.9681 17.8329C53.447 18.3442 53.8199 18.4247 54.4623 18.4833L54.8065 17.9809C54.9671 16.1069 54.3333 14.0411 53.9432 12.2026C53.665 13.6785 53.5015 15.6029 52.3027 16.6439Z" fill="#293A71"/>
<path d="M43.9238 212.468C43.5309 212.554 43.3273 212.65 42.9831 212.842C42.0682 214.903 41.1935 217.277 41.3455 219.562C41.704 219.475 41.8732 219.333 42.1715 219.122C42.9889 217.063 43.855 214.694 43.9238 212.468Z" fill="#DFE0E8"/>
<path d="M103.32 213.375C105.055 210.665 106.833 207.988 108.514 205.242C106.81 207.195 103.064 209.96 102.419 212.427L103.32 213.375Z" fill="#A2AAD9"/>
<path d="M142.275 147.601C141.426 148.076 140.508 148.732 139.556 148.941L138.664 148.732C139.135 149.853 139.553 151.084 140.21 152.109L140.861 152.163L141.122 150.876C141.478 149.989 142.261 149.462 142.585 148.587C142.748 148.144 142.493 147.978 142.275 147.601Z" fill="#C9D6E0"/>
<path d="M66.3516 210.835C63.8277 211.383 63.5295 214.083 57.6558 214.46C59.4827 214.853 61.5333 215.177 63.3201 214.451C65.0208 213.76 65.7149 212.46 66.3516 210.835Z" fill="#A3A7C2"/>
<path d="M151.533 213.88C150.314 214.339 149.21 215.068 148.264 215.959C147.056 217.096 146.551 218.269 146.557 219.904L147.231 219.765C148.688 217.924 150.418 215.932 151.533 213.88Z" fill="#F4F4F3"/>
<path d="M53.9434 12.2028C53.691 10.6892 53.4214 9.21742 53.0141 7.73535C52.5581 10.66 51.9673 13.679 52.3029 16.6441C53.5017 15.6031 53.6652 13.6787 53.9434 12.2028Z" fill="#314B8F"/>
<path d="M48.6422 183.438L46.7407 182.555C46.0668 182.245 45.6566 182.272 44.9425 182.338L44.5639 182.693C45.2781 184.269 46.6002 184.77 48.0715 185.471C48.691 185.225 49.0782 184.923 49.5801 184.49L49.5399 183.965L48.6422 183.438Z" fill="#B6C2D4"/>
<path d="M146.773 147.727L144.806 146.002L142.276 147.601C142.494 147.979 142.75 148.144 142.586 148.587C142.262 149.462 141.479 149.989 141.123 150.876C142.973 149.716 144.792 148.646 146.773 147.727Z" fill="#B6C2D4"/>
<path d="M55.0632 244.967L54.7822 244.848C53.8329 244.436 53.0556 243.965 52.2239 243.352L51.6044 243.401C51.2001 244.213 51.0825 245.051 50.9219 245.934C52.3759 246.47 53.5317 246.965 55.0977 246.61C54.8481 245.935 54.874 245.657 55.0632 244.967Z" fill="#C9D6E0"/>
<path d="M141.348 94.3935C140.436 92.258 139.638 91.361 137.479 90.4443L136.813 91.2687C137.327 92.2911 137.074 92.5109 137.137 93.5631C138.546 94.0085 139.848 94.4912 141.348 94.3935Z" fill="#F5C47C"/>
<path d="M62.279 231.23C62.3479 230.544 62.5027 229.683 62.3278 229.01C62.127 228.233 61.2953 227.429 60.6242 227.008C59.8441 226.52 58.7973 226.136 57.8795 226.333L57.977 226.945C58.1061 227.009 58.2351 227.077 58.3671 227.138C59.0267 227.442 58.7457 227.328 59.4483 227.483C60.0818 227.629 60.6338 228.014 60.9884 228.557C61.2007 228.885 61.1978 228.942 61.3039 229.271C60.9139 230.293 59.8671 230.989 58.8374 231.4C58.7371 231.44 58.6309 231.465 58.5277 231.498L58.2151 231.672C58.7944 232.192 58.9034 232.225 59.6749 232.369C60.498 231.895 61.3957 231.578 62.279 231.23Z" fill="#929ACA"/>
<path d="M129.407 98.8767C130.362 98.4997 131.535 98.2164 132.141 97.3446C130.724 96.2467 124.618 97.3821 122.731 97.6039C124.452 98.5066 127.466 98.5937 129.407 98.8767Z" fill="#370E12"/>
<path d="M58.5265 231.498C58.6297 231.465 58.7359 231.44 58.8363 231.4C59.8659 230.989 60.9127 230.294 61.3027 229.271C61.1966 228.942 61.1995 228.885 60.9873 228.557C60.6326 228.014 60.0806 227.629 59.4471 227.483C58.7445 227.328 59.0255 227.442 58.3659 227.138C58.234 227.078 58.1049 227.01 57.9758 226.945C57.8267 228.13 57.3879 229.756 57.8611 230.873L58.5265 231.498Z" fill="#161A3A"/>
<path d="M108.795 63.4185C107.685 65.9676 105.698 70.262 106.131 73.0361L106.518 73.161C107.396 72.3237 109.24 66.3857 109.314 65.1795C109.059 65.2664 109.208 65.2007 108.867 65.4556L108.574 65.6803C108.755 64.9751 108.807 64.3892 108.798 63.6694L108.795 63.4185Z" fill="#EFEFF2"/>
<path d="M84.5312 196.909C84.3678 195.932 84.4424 195.548 83.7167 194.843C82.4061 194.44 81.0925 194.728 79.7446 194.686C79.7646 195.856 79.8277 197.037 79.7446 198.204C79.865 198.082 79.9711 197.947 80.1031 197.839C81.0839 197.035 83.3123 196.817 84.5312 196.909Z" fill="#C9D6E0"/>
<path d="M179.996 135.749C179.13 134.928 178.333 134.399 177.197 133.981C174.685 133.053 171.013 132.395 168.536 133.562C170.056 134.335 172.161 134.161 173.847 134.455C175.789 134.793 177.624 135.257 179.486 135.897L179.996 135.749Z" fill="#929ACA"/>
<path d="M95.0059 112.159C91.9371 111.647 89.4419 110.971 86.6456 109.606C86.3473 110.214 86.2584 110.118 86.4534 110.818C87.592 111.716 88.6274 112.364 89.9782 112.893C91.3922 112.922 93.5088 113.326 94.7965 112.774L95.0059 112.159Z" fill="#F7B45E"/>
<path d="M54.5903 234.076C53.9937 234.663 53.5262 235.168 52.7203 235.466C52.5999 236.479 52.4909 237.322 52.7146 238.325C52.815 239.121 52.8121 239.227 53.3255 239.833C53.9966 239.919 54.335 239.947 54.8656 239.406C55.5052 238.758 55.356 237.913 55.3732 237.088C54.9918 236.523 54.8972 235.794 54.7337 235.137L54.5903 234.076Z" fill="#5063A3"/>
<path d="M54.589 234.076C53.9925 234.663 53.525 235.168 52.7191 235.466C52.5986 236.479 52.4897 237.322 52.7134 238.325L53.525 237.694C53.8319 236.707 54.0785 235.949 54.7324 235.137L54.589 234.076Z" fill="#798AC0"/>
<path d="M62.051 192.548L61.4487 192.372C60.7948 193.118 59.8254 198.519 59.8971 199.583C60.5194 199.918 61.0013 199.956 61.6925 200.031C62.4496 197.711 62.6246 194.907 62.051 192.548Z" fill="#C9D6E0"/>
<path d="M60.1623 245.631C60.2913 245.527 60.4261 245.431 60.5437 245.317C60.9768 244.903 61.3984 244.419 61.3697 243.829C60.8047 243.754 60.6068 243.794 60.0734 243.955C58.4615 244.442 57.1365 245.037 55.4071 244.982C55.2924 244.978 55.1777 244.971 55.063 244.966C54.8737 245.656 54.8479 245.935 55.0974 246.61C56.1213 246.981 56.17 247.095 56.7838 247.929C57.8564 247.066 58.9979 246.359 60.1623 245.631Z" fill="#C9D6E0"/>
<path d="M82.0299 106.527L80.9372 105.691L79.2823 106.12C79.8904 106.771 80.5615 107.419 81.1093 108.119C82.1131 109.071 82.8186 109.429 84.1379 109.812C85.0184 110.068 85.6751 110.328 86.4524 110.818C86.2573 110.119 86.3463 110.214 86.6445 109.606C85.4715 108.399 83.4754 107.43 82.0299 106.527Z" fill="#F7B45E"/>
<path d="M110.346 140.015C109.276 140.238 108.187 140.338 107.103 140.463C107.398 141.93 107.702 143.396 108.015 144.86C108.674 145.007 109.084 144.971 109.744 144.842C110.88 143.556 110.444 141.623 110.346 140.015Z" fill="#293A71"/>
<path d="M145.152 110.328C144.217 112.515 145.15 114.659 145.981 116.724L146.171 117.191C146.902 115.303 147.539 113.016 148.654 111.34C147.659 111.239 145.847 111.065 145.152 110.328Z" fill="#303F70"/>
<path d="M145.055 214.465C143.922 214.38 143.073 214.486 141.977 214.792C141.077 215.688 140.165 216.702 139.485 217.777C138.954 218.611 138.802 219.186 138.995 220.148C139.442 220.427 139.683 220.489 140.213 220.507C142 219.622 141.369 217.715 142.221 216.185C142.709 216.253 143.142 216.248 143.632 216.221C144.389 215.675 144.63 215.266 145.055 214.465Z" fill="#EFEFF2"/>
<path d="M119.585 201.458C118.822 201.511 118.687 201.366 118.117 201.921C118.753 203.767 122.958 206.078 124.604 207.225C125.069 207.602 125.049 207.482 125.611 207.425L125.9 206.976C125.135 205.023 121.271 202.809 119.585 201.458Z" fill="#7B99D4"/>
<path d="M25.1367 121.743C23.6683 120.448 22.501 119.77 20.6196 119.219C21.3137 120.802 19.6645 124.651 19.7104 126.606C19.7133 126.798 19.7133 126.991 19.719 127.183C19.7219 127.307 19.7277 127.431 19.7334 127.555C19.9171 126.966 20.1132 126.381 20.3213 125.801C21.1903 123.412 22.98 122.759 25.1367 121.743Z" fill="#303F70"/>
<path d="M115.742 192.619C115.131 192.69 114.893 192.752 114.431 193.166C114.486 194.397 117.993 197.145 118.991 198.32L120.996 196.114C119.387 194.764 117.532 193.716 115.742 192.619Z" fill="#A2AAD9"/>
<path d="M79.1934 194.722L73.9764 194.443C73.9879 195.588 73.9219 196.672 73.7728 197.807C74.9258 197.199 77.4783 197.361 78.7374 197.723L79.0815 199.711L79.1934 194.722Z" fill="#B6C2D4"/>
<path d="M84.5303 196.909C83.3114 196.817 81.083 197.035 80.1021 197.839C79.9702 197.948 79.8641 198.082 79.7436 198.204C79.7293 198.489 79.6977 198.97 79.7035 199.241C79.7178 200.064 79.7579 200.101 80.3287 200.643C81.7455 201.105 83.5265 200.63 84.9863 200.436C84.6766 199.302 84.6364 198.077 84.5303 196.909Z" fill="#F4F4F3"/>
<path d="M173.209 114.401C173.186 115.628 173.192 116.577 174.135 117.499C176.28 119.594 181.552 120.688 184.523 120.48C185.254 120.429 185.69 120.055 186.184 119.565C185.687 119.543 185.194 119.508 184.698 119.484C181.747 119.339 177.818 118.082 175.173 116.753C174.009 116.167 173.616 115.627 173.209 114.401Z" fill="#212A54"/>
<path d="M66.8203 4.31104C66.3634 4.72282 65.9102 5.13875 65.4609 5.55875C62.3032 8.5198 61.3195 10.803 61.1847 15.134C63.2668 14.0012 65.9398 6.68981 66.8203 4.31104Z" fill="#293A71"/>
<path d="M79.0831 199.711L78.739 197.722C77.4799 197.361 74.9274 197.199 73.7745 197.806C73.6569 198.768 73.4963 199.743 73.4705 200.711C75.197 200.933 77.4283 201.343 79.0545 200.618C79.1434 200.23 79.1893 200.106 79.0831 199.711Z" fill="#F4F4F3"/>
<path d="M184.361 127.239C184.189 126.718 184.014 126.175 183.693 125.72C182.468 123.974 179.428 123.197 177.418 122.883C174.619 122.446 172.109 122.626 169.766 124.301C170.908 124.666 171.771 124.195 172.927 124.075C177.386 123.614 180.521 124.628 183.865 127.624C184.034 127.502 184.232 127.404 184.361 127.239Z" fill="#929ACA"/>
<path d="M71.6348 168.907C71.3422 168.015 71.0096 167.338 70.1405 166.876C69.4149 166.492 68.6205 166.501 67.8662 166.782C66.9456 167.124 66.6502 167.807 66.2142 168.615L65.8758 168.683C64.981 168.324 64.8003 168.008 64.2009 167.278L63.263 168.257L64.241 168.26C64.2927 168.813 64.3328 168.6 64.2439 168.911C65.3911 169.289 65.5517 169.657 66.3003 170.57L67.4675 170.968L67.7744 171.067L68.7438 170.049L68.9704 168.983L69.3633 168.73L70.2925 169.169L70.3413 168.945L70.5162 168.914C70.6826 169.944 70.7887 170.927 71.2505 171.873C71.3714 170.883 71.4995 169.894 71.6348 168.907Z" fill="#040303"/>
<path d="M118.853 51.702C117.012 50.9557 115.764 50.9677 113.825 51.2407C112.087 52.4198 109.383 54.5361 109.168 56.7734C109.099 57.4691 109.156 57.7289 109.466 58.3461C110.458 56.5407 111.528 54.7348 113.243 53.5071C114.184 52.8334 115.288 52.4464 116.45 52.6779C118.073 53.0017 118.764 54.2151 119.645 55.4628L118.853 51.702Z" fill="#798AC0"/>
<path d="M85.7422 102.358C85.8483 101.81 86.0721 101.26 85.8742 100.726C85.183 98.8465 82.0712 96.2934 80.3217 95.4253C80.2644 95.5048 80.2184 95.5917 80.1525 95.6643C79.7251 96.135 79.1143 96.3425 78.5435 96.5921L78.3141 97.1761C78.4776 97.5348 78.6238 97.8749 78.8476 98.2022L80.0951 98.5667C82.2519 99.4399 83.7174 101.292 85.7422 102.358Z" fill="#852029"/>
<path d="M141.348 95.563C139.372 96.347 137.831 95.9089 135.824 96.1344C135.85 96.9393 135.987 97.3023 135.379 97.9166C135.07 98.2307 134.542 98.4897 134.16 98.7209C134.444 99.0937 134.745 99.4507 135.032 99.8197C135.365 100.25 135.402 100.59 135.485 101.111C138.571 99.6625 140.117 98.9156 141.348 95.563Z" fill="#D26441"/>
<path d="M151.953 151.951C151.732 152.134 151.449 152.328 151.262 152.544C149.57 154.283 146.848 155.321 145.652 157.528C146.223 157.802 146.475 157.627 147.078 157.453C149.708 156.688 153.668 155.07 155.002 152.589C154.534 151.939 153.115 152.205 152.292 152.037C152.177 152.014 152.068 151.98 151.953 151.951Z" fill="#A4B6C7"/>
<path d="M55.0968 246.61C53.5309 246.965 52.3751 246.47 50.921 245.934C50.574 247.565 50.2785 248.834 51.0386 250.376C51.6667 250.869 51.8101 251.035 52.6561 250.969C54.2221 250.847 55.7507 248.996 56.7832 247.929C56.1694 247.096 56.1207 246.981 55.0968 246.61Z" fill="#F4F4F3"/>
<path d="M80.3203 95.4254C78.5106 94.493 75.7401 92.6256 73.7411 92.6016L73.4399 92.9854C73.9963 94.9231 75.1407 97.0609 76.3711 98.651L76.5574 98.5962C77.2831 98.0842 77.9743 98.23 78.8462 98.2023C78.6224 97.875 78.4762 97.5348 78.3127 97.1761L78.5421 96.5922C79.1129 96.3426 79.7237 96.1351 80.1511 95.6643C80.217 95.5917 80.263 95.5048 80.3203 95.4254Z" fill="#9E3935"/>
<path d="M61.4655 183.811L59.7504 185.642L59.2543 185.8C58.6377 186.204 58.0153 186.607 57.4245 187.048C56.7505 187.552 56.1826 188.169 56.0708 189.026L56.4207 189.457C56.8365 189.52 56.914 189.552 57.3872 189.514C59.8738 189.314 62.0965 187.126 63.5821 185.331L64.4941 184.038C63.4961 184.111 62.3518 184.344 61.4655 183.811Z" fill="#852029"/>
<path d="M61.4655 183.811L59.7504 185.642C60.9263 185.881 62.3861 185.466 63.5821 185.331L64.4941 184.038C63.4961 184.111 62.3518 184.344 61.4655 183.811Z" fill="#7C1728"/>
<path d="M143.956 153.494C143.595 153.61 143.787 153.609 143.383 153.431C144.653 152.223 146.371 151.19 147.923 150.371L148.425 150.112L148.459 149.613C147.762 148.89 147.63 148.521 146.609 148.397C144.817 149.017 142.918 150.553 141.576 151.883C141.51 151.948 141.447 152.015 141.381 152.081L140.862 152.163L140.211 152.109C140.85 153.212 141.401 154.179 142.347 155.062C143.251 154.797 144.014 154.577 144.791 154.039L144.722 153.738L143.956 153.494Z" fill="#AEC0CF"/>
<path d="M87.4493 98.3994C87.5645 98.7472 87.6764 99.096 87.7849 99.4459C88.2065 100.806 88.3843 101.462 87.6845 102.787C89.7495 104.045 92.4397 103.804 94.7656 104.261L93.8278 101.51C91.7255 100.408 89.6348 99.3335 87.4493 98.3994Z" fill="#852029"/>
<path d="M151.953 151.951C150.938 151.313 149.943 150.806 148.836 150.342C147.189 151.36 145.562 152.411 143.957 153.494L144.723 153.738L144.792 154.039C144.014 154.577 143.252 154.797 142.348 155.062C143.114 155.77 143.957 156.409 144.766 157.068C146.837 155.152 148.534 153.529 151.262 152.544C151.448 152.328 151.732 152.134 151.953 151.951Z" fill="#B6C2D4"/>
<path d="M70.2919 169.169L69.3626 168.729L68.9697 168.983L68.7431 170.049C68.0749 172.734 67.0396 175.175 66.1161 177.769C65.7203 179.033 64.4153 181.984 64.9086 183.148C68.1638 178.873 70.3492 174.609 70.2919 169.169Z" fill="#D14A4E"/>
<path d="M112.016 163.931C111.451 165.098 111.136 165.796 111.305 167.107C114.351 171.076 112.977 176.78 116.573 180.221C117.411 175.289 113.797 168.539 112.016 163.931Z" fill="#C9D6E0"/>
<path d="M29.3965 245.645C27.6183 245.557 25.3296 245.343 23.6461 245.994C23.0582 246.221 23.2647 246.067 22.9893 246.671C24.2627 247.282 26.8382 246.772 28.3841 247.02C30.5437 247.365 32.4652 248.113 34.447 249.004C35.643 249.586 37.1257 251.487 38.3848 251.441L38.5684 250.947C38.445 250.217 38.2959 249.714 37.8256 249.125C36.0761 246.937 32.0695 246.017 29.3965 245.645Z" fill="#EFEFF2"/>
<path d="M86.4535 110.818C85.6762 110.328 85.0195 110.067 84.139 109.812C82.8197 109.429 82.1142 109.071 81.1104 108.119L81.8589 110.692C86.4621 113.552 91.4868 115.968 97.0508 115.471C96.9992 115.452 96.9475 115.429 96.8902 115.415C96.2018 115.242 95.677 115.138 95.0317 114.812L95.0948 114.686C93.4313 113.995 91.6733 113.521 89.9783 112.893C88.6274 112.364 87.5921 111.716 86.4535 110.818Z" fill="#E58C41"/>
<path d="M166.197 208.407C166.019 208.454 165.738 208.522 165.555 208.594C163.131 209.543 158.305 212.748 156.518 214.658C155.872 215.348 155.48 216.325 155.098 217.178C155.824 218.327 156.675 219.409 157.479 220.505L159.148 222.269C158.692 220.014 158.583 217.974 158.654 215.688C160.564 212.656 163.407 210.576 166.197 208.407Z" fill="#F4F4F3"/>
<path d="M44.4981 84.5044C43.3967 84.583 43.348 84.6693 42.5392 85.3342C46.8928 91.0892 52.4883 96.156 58.9844 99.4472C53.6183 94.736 48.4903 90.5322 44.4981 84.5044Z" fill="#A3A7C2"/>
<path d="M44.5887 201.314C43.344 201.58 42.237 201.989 41.4941 203.099C41.0582 203.754 40.9435 204.547 41.1242 205.307C41.7436 207.935 44.1069 209.382 46.2378 210.697C47.319 211.214 48.4634 211.627 49.5762 212.074C48.5838 211.168 47.5571 210.27 46.6278 209.302C44.3535 206.93 44.5285 204.362 44.5887 201.314Z" fill="#A2AAD9"/>
<path d="M37.8615 239.599C35.6216 239.348 31.787 239.181 29.8053 240.346C30.9783 241.068 36.2038 241.608 37.9848 242.015C39.8834 242.553 41.9685 243.7 43.8642 243.964C44.4866 244.05 44.2313 244.105 44.7246 243.742C44.6328 242.763 43.8843 242.107 43.2705 241.389C41.478 240.703 39.7142 240.102 37.8615 239.599Z" fill="#F4F4F3"/>
<path d="M165.669 133.274C164.456 134.707 165.818 136.639 163.229 137.04C162.056 137.744 161.215 137.325 159.996 137.717C160.128 137.744 160.257 137.772 160.386 137.796C161.921 138.087 163.923 137.431 165.056 138.737L164.935 139.255C165.064 139.239 165.196 139.224 165.325 139.206C166.131 139.09 166.883 138.776 167.703 138.84C171.299 139.121 174.979 143.741 179.129 139.882C175.871 139.648 169.877 138.759 167.528 136.356C167.327 135.35 167.683 134.743 168.007 133.782C167.694 134.033 167.442 134.28 167.215 134.619C166.398 135.841 167.258 137.453 167.588 138.753C166.837 138.865 166.547 138.645 165.939 138.251C165.334 137.857 165.093 137.69 164.941 136.979C165.529 135.811 165.678 134.986 165.675 133.676C165.675 133.542 165.669 133.408 165.669 133.274Z" fill="#0B1130"/>
<path d="M51.8126 230.692C50.6396 231.572 50.5335 231.964 50.3442 233.392C50.1435 234.914 50.0029 236.594 50.3098 238.103C51.11 238.154 51.9274 238.163 52.7132 238.325C52.4895 237.322 52.5984 236.478 52.7189 235.465C53.5248 235.168 53.9923 234.662 54.5889 234.076C55.7074 232.999 58.171 232.88 59.6738 232.369C58.9023 232.224 58.7934 232.192 58.214 231.672L58.0276 231.591C56.3383 231.372 54.6147 231.74 52.9512 231.516C52.2371 231.42 52.2256 231.244 51.8126 230.692Z" fill="#070D24"/>
<path d="M58.0276 231.591C57.8555 231.624 57.6835 231.659 57.5114 231.688C56.1634 231.917 54.2476 231.402 53.1004 232.115C52.4465 233.139 52.6701 234.302 52.7189 235.465C53.5248 235.168 53.9923 234.662 54.5889 234.076C55.7074 232.998 58.171 232.88 59.6738 232.369C58.9023 232.224 58.7934 232.192 58.214 231.672L58.0276 231.591Z" fill="#7B99D4"/>
<path d="M137.137 93.5632C134.034 92.1998 131.054 92.0503 127.71 92.0303C127.079 92.4253 126.159 92.7849 125.858 93.4652L126.098 93.6327C128.645 93.474 133.091 93.7753 135.144 95.4403C135.454 95.6916 135.577 95.8514 135.824 96.1343C137.831 95.9088 139.372 96.347 141.348 95.563V94.3936C139.848 94.4913 138.546 94.0086 137.137 93.5632Z" fill="#D36234"/>
<path d="M48.5651 154.185C50.8108 148.999 51.5163 144.734 50.4609 139.135L50.372 139.405C49.4513 142.221 49.2879 146.254 46.3539 147.848C46.2851 147.885 46.2105 147.911 46.1388 147.942C47.0652 150 47.8682 152.039 48.5651 154.185Z" fill="#B6C2D4"/>
<path d="M131.084 217.853C129.906 217.606 129.005 217.423 127.947 218.158C127.37 218.56 126.886 219.092 126.409 219.607C124.327 222.846 122.566 225.789 119.69 228.411L119.888 228.84L120.263 228.971C123.874 226.781 125.116 221.502 128.509 219.137L129.082 219.384C130.64 220.318 131.859 221.759 133.382 222.725C133.992 223.113 134.337 223.222 135.031 223.052C135.208 222.628 135.329 222.313 135.251 221.839C134.942 219.912 132.613 218.753 131.084 217.853Z" fill="#7B99D4"/>
<path d="M30.1604 234.869L29.6872 235.377C29.6269 235.959 29.5839 236.344 29.7732 236.914C29.8879 237.262 29.8392 237.283 30.126 237.395C31.8669 238.067 36.665 237.544 38.8705 237.791C40.5455 237.978 42.2835 238.674 43.858 239.252C45.1572 239.73 47.248 240.901 48.6074 240.44C48.4067 240.037 48.2059 239.675 47.8875 239.35C45.1285 236.535 39.3208 235.786 35.5064 236.02C33.7511 236.128 32.0074 236.52 30.2464 236.464L30.1604 234.869Z" fill="#EFEFF2"/>
<path d="M141.631 131.319C139.552 133.146 137.98 134.5 136.844 137.094C137.031 138.557 136.357 140.886 136.853 142.095C138.373 141.35 139.833 140.4 141.318 139.58C141.576 139.272 141.737 138.994 141.926 138.644C141.961 137.394 141.37 136.257 140.917 135.113L141.631 131.319Z" fill="#F4F4F3"/>
<path d="M4.82219 147.648L4.34896 148.136C4.01914 150.638 4.57553 153.058 5.55925 155.356C6.81257 158.281 8.40145 160.104 11.3612 161.274L11.562 160.994C11.8546 159.081 5.79731 151.17 4.82219 147.648Z" fill="#293A71"/>
<path d="M32.8677 242.503C29.8162 242.229 27.1977 242.62 24.2637 243.404C28.6145 244.361 32.3458 244.41 36.774 245.839C38.2739 246.36 38.8504 246.662 40.3963 246.143C41.0358 246.285 40.8121 246.174 41.3399 246.527C41.4632 246.608 41.5779 246.696 41.6984 246.78C42.3695 246.712 42.401 246.778 42.9746 246.35C42.9431 246.278 42.9201 246.2 42.88 246.133C41.5377 243.972 35.2052 242.867 32.8677 242.503Z" fill="#EFEFF2"/>
<path d="M45.0645 268.694C41.9125 266.736 37.8055 267.551 34.3955 268.238C33.3716 268.402 32.362 268.564 31.3267 268.65C30.6125 268.709 30.2282 268.879 29.6174 269.238C29.1785 269.896 29.0868 270.363 28.9463 271.121C34.5303 270.89 39.6783 270.123 45.0645 268.694Z" fill="#F4F4F3"/>
<path d="M72.9874 200.728C72.9759 199.359 73.7532 195.866 72.9157 194.863C71.975 193.737 69.434 193.756 68.0544 193.578C68.172 195.215 68.0487 196.865 67.9799 198.504L67.6357 199.952L67.9282 200.654C69.2446 200.748 71.7914 201.205 72.9874 200.728Z" fill="#AEC0CF"/>
<path d="M72.9883 200.728C72.7043 199.716 72.7588 198.515 72.7044 197.466C71.1097 197.539 69.2169 197.416 67.9807 198.504L67.6366 199.952L67.9291 200.654C69.2455 200.748 71.7923 201.205 72.9883 200.728Z" fill="#F4F4F3"/>
<path d="M122.73 97.604C121.755 97.6949 121.19 98.1708 120.313 98.4535L119.217 98.4495L119.197 98.7173C122.902 100.975 129.436 102.771 133.764 101.671C134.349 101.523 134.919 101.318 135.484 101.111C135.401 100.59 135.364 100.25 135.031 99.8198C134.744 99.4508 134.443 99.0938 134.159 98.7211C131.696 99.6443 129.774 99.8693 127.15 99.6915L127.339 99.1324C128.036 98.9898 128.699 98.9286 129.407 98.8768C127.465 98.5939 124.451 98.5067 122.73 97.604Z" fill="#9E3935"/>
<path d="M122.732 97.604C121.756 97.6949 121.191 98.1708 120.314 98.4535C122.594 98.9763 124.825 99.4291 127.151 99.6915L127.34 99.1324C128.037 98.9898 128.7 98.9286 129.408 98.8768C127.467 98.5939 124.452 98.5067 122.732 97.604Z" fill="#040303"/>
<path d="M177.236 74.0447C174.468 73.9012 164.978 72.879 162.979 74.7804C161.666 76.0312 161.528 78.5823 160.768 80.1876C162.248 80.1845 163.55 80.4749 164.973 80.8122C165.54 79.9486 165.56 79.7334 166.567 79.375C166.171 79.1615 165.962 79.1809 165.824 78.7204C165.52 77.6971 165.503 76.7558 165.979 75.7891C166.53 75.2532 166.943 74.9533 167.706 74.7773C169.857 74.2805 176.935 74.9845 179.814 75.0014C178.92 74.3139 178.349 74.1787 177.236 74.0447Z" fill="#7D8AA1"/>
<path d="M67.4937 193.257C65.7242 193.029 63.6822 193.316 62.0531 192.548C62.6267 194.907 62.4518 197.711 61.6946 200.031L67.9297 200.654L67.6371 199.952C67.2127 197.817 67.4479 195.434 67.4937 193.257Z" fill="#AEC0CF"/>
<path d="M69.6094 90.6164C67.3867 86.7167 64.6219 78.981 62.4078 75.9731C61.9661 75.3746 61.8027 75.3817 61.1229 75.3154C60.4748 75.7613 60.3228 76.311 60.0532 77.011C62.557 80.9033 63.3256 85.8451 66.8504 89.2137C67.487 89.72 68.6457 91.0011 69.4029 90.9794L69.6094 90.6164Z" fill="#ED9C49"/>
<path d="M88.3547 130.123C90.2333 127.09 96.6347 121.629 96.4655 118.005C95.6051 117.296 92.0602 117.423 90.7581 117.31C91.9283 124.813 88.739 123.786 87.8987 129.473L88.3547 130.123Z" fill="#A4B6C7"/>
<path d="M143.053 142.06C142.602 140.965 142.39 140.191 141.317 139.581C140.021 140.822 138.478 141.691 137.058 142.773C137.253 144.937 137.755 146.744 138.665 148.732L139.556 148.941C140.035 147.872 141.011 147.442 141.986 146.887C142.806 146.514 143.486 146.167 144.188 145.601C144.51 144.621 143.489 143.387 143.15 142.398C143.113 142.287 143.084 142.173 143.053 142.06Z" fill="#F4F4F3"/>
<path d="M143.053 142.061C141.108 143.179 139.43 143.681 138.137 145.64L138.484 145.927L138.857 145.699C139.766 145.152 141.355 144.125 142.384 144.327C142.542 145.213 142.218 146.039 141.986 146.888C142.806 146.515 143.486 146.168 144.188 145.602C144.51 144.621 143.489 143.388 143.15 142.398C143.113 142.287 143.084 142.173 143.053 142.061Z" fill="#AEC0CF"/>
<path d="M105.96 12.0834C106.31 11.571 106.806 11.0684 106.863 10.4482C104.107 11.7118 101.767 13.5447 98.8501 14.6376C90.6963 17.6909 79.5025 17.2205 70.5686 18.3022L69.6164 19.2665C69.8946 19.763 70.0208 19.8639 70.4654 20.188C76.7119 18.6238 81.6564 18.8801 87.6964 18.1739C89.8044 17.9272 91.9496 17.3646 94.0203 16.8908C95.9276 16.4544 97.9954 16.016 99.7764 15.1932C101.953 14.1881 103.513 12.5357 105.96 12.0834Z" fill="#B2BCEA"/>
<path d="M97.0502 115.471C97.5636 115.519 98.0225 115.497 98.5301 115.422C100.627 115.108 102.588 114.762 103.876 112.896C106.059 109.731 104.673 104.833 103.911 101.373L103.675 101.256C103.793 101.952 103.885 102.645 103.919 103.352C104.025 105.588 104.126 108.785 102.468 110.486C100.658 112.343 97.3772 112.121 95.0053 112.159L94.796 112.774C93.5082 113.327 91.3916 112.922 89.9777 112.893C91.6727 113.521 93.4308 113.995 95.0942 114.686L95.0311 114.812C95.6764 115.138 96.2013 115.242 96.8896 115.415C96.947 115.429 96.9986 115.452 97.0502 115.471Z" fill="#ED9C49"/>
<path d="M20.6203 119.219C18.3287 121.029 17.844 123.519 17.5085 126.287C16.5592 134.137 16.5333 143.147 17.9559 150.906C18.2169 143.459 17.5028 134.701 19.7341 127.555C19.7283 127.431 19.7226 127.307 19.7197 127.183C19.714 126.991 19.714 126.798 19.7111 126.606C19.6652 124.651 21.3143 120.802 20.6203 119.219Z" fill="#798AC0"/>
<path d="M63.0418 142.866C60.2197 143.29 57.3058 143.508 54.4521 143.416C55.0343 145.167 55.4817 146.829 56.606 148.33C57.5151 149.076 58.5992 149.956 59.8181 150.087C60.5667 150.167 61.0973 149.907 61.6193 149.392C63.0819 147.941 63.0476 144.803 63.0418 142.866Z" fill="#212A54"/>
<path d="M188.426 74.3691C184.704 74.0875 180.97 73.9793 177.238 74.045C178.35 74.179 178.921 74.3143 179.816 75.0017C180.851 75.2521 181.107 75.2044 181.815 76.0379C182.099 77.0857 181.611 78.3474 181.227 79.3293C181.792 80.1985 182.022 80.5129 183.063 80.7525C184.264 81.0283 185.79 80.9408 187.038 80.9951C187.864 78.7399 188.383 76.7805 188.426 74.3691Z" fill="#66728D"/>
<path d="M137.323 228.05C135.909 228.809 128.478 237.575 127.451 239.19C127.07 239.79 127.064 240.162 127.193 240.832C127.649 241.168 127.752 241.11 128.294 241.157L129.14 240.152C132.935 234.664 136.193 234.686 141.083 231.239C141.189 231.166 141.289 231.09 141.393 231.016C140.079 229.97 138.697 229.017 137.323 228.05Z" fill="url(#paint0_linear_551_68139)"/>
<path d="M102.229 117.387C100.648 117.364 98.46 117.145 96.9916 117.694C96.6503 123.581 91.1838 125.604 89.3397 130.466C92.7211 128.2 96.2631 125.891 99.2114 123.075C101.033 121.336 102.191 119.947 102.229 117.387Z" fill="#F4F4F3"/>
<path d="M74.2579 127.075C69.5199 124.937 64.151 123.685 59.1549 122.311C60.3194 123.904 61.1195 125.762 62.0029 127.522C65.2667 125.968 71.8287 129.719 75.3965 130.283C75.1756 129.128 74.7311 128.143 74.2579 127.075Z" fill="url(#paint1_linear_551_68139)"/>
<path d="M50.0792 175.49C49.1816 176.577 48.3871 177.651 47.6156 178.831C48.5965 179.136 49.9789 179.37 50.7676 180.009L50.28 179.948C49.8068 179.885 49.3737 179.778 48.912 179.66C48.0917 179.451 47.217 179.357 46.4455 179.775C46.1472 179.936 45.8805 180.342 45.8289 180.68C45.7973 180.869 45.8403 181.064 45.8461 181.256C46.7437 181.803 48.2638 182.465 48.6424 183.438L49.5401 183.965L49.5802 184.49C49.0783 184.923 48.6911 185.225 48.0716 185.471C48.6338 185.768 48.7456 185.822 49.3766 185.803C51.3068 184.64 52.8526 183.208 54.3669 181.557C54.8 180.565 55.5256 179.635 56.125 178.733C55.17 178.63 54.2924 178.466 53.3631 178.227C52.2303 177.351 51.1519 176.436 50.0792 175.49Z" fill="#A4B6C7"/>
<path d="M50.0774 175.49C49.1797 176.577 48.3853 177.651 47.6138 178.831C48.5947 179.136 49.9771 179.37 50.7658 180.009C51.4283 179.99 52.7017 180.096 53.2724 179.845C52.5267 179.567 51.8212 179.26 51.1013 178.92C51.4656 178.415 52.3948 179.065 53.1462 178.814L53.3613 178.227C52.2285 177.351 51.1501 176.436 50.0774 175.49Z" fill="#AEC0CF"/>
<path d="M65.3172 148.761C65.2856 148.872 65.2512 148.983 65.2197 149.095C63.7713 154.373 62.4377 159.56 59.1481 164.055C61.1585 164.889 62.6987 165.636 64.2015 167.278C64.8009 168.008 64.9816 168.324 65.8764 168.683L66.2148 168.615C64.8067 166.652 65.3745 152.374 65.3172 148.761Z" fill="#AEC0CF"/>
<path d="M168.536 133.562L168.008 133.782C167.684 134.743 167.329 135.35 167.529 136.356C169.878 138.759 175.872 139.648 179.13 139.882C179.865 139.185 180.441 138.45 180.513 137.4C180.562 136.685 180.453 136.284 179.996 135.749L179.486 135.897C177.625 135.257 175.789 134.793 173.847 134.455C172.161 134.161 170.056 134.335 168.536 133.562Z" fill="#294986"/>
<path d="M72.059 61.2466C71.4653 62.9993 71.1011 64.7535 70.7483 66.5666C73.5074 70.0464 77.2272 76.4429 81.5234 77.8852C81.2452 77.4199 81.4001 77.6114 81.0101 77.2241C80.7003 76.9142 80.4135 76.605 80.1238 76.274C79.4527 71.6914 76.3008 65.0005 72.7359 61.9263C72.3515 61.5939 72.6527 61.912 72.254 61.4693C72.1852 61.3961 72.1221 61.3209 72.059 61.2466Z" fill="#DFE0E8"/>
<path d="M60.2086 175.588C60.1111 175.021 60.0078 174.692 59.6837 174.213L58.7229 174.065C58.3845 175.121 58.0748 175.747 57.3406 176.584C56.9591 177.276 56.592 178.105 56.1245 178.733C55.5251 179.636 54.7995 180.565 54.3664 181.557L54.874 181.674C55.2153 182.544 55.4649 183.448 56.1761 184.091L56.6866 184.496C56.787 184.547 56.8845 184.609 56.9935 184.649C57.6904 184.904 58.4333 184.798 59.1589 184.755L59.4399 185.099L59.2535 185.8L59.7497 185.642L61.4648 183.811L62.2104 182.641L62.589 182.188L62.1588 181.134L62.916 179.13L63.1253 178.457C63.3662 178.045 63.4207 177.876 63.5039 177.425C62.9074 176.608 62.3022 176.5 61.3787 176.11L60.2086 175.588Z" fill="#070D24"/>
<path d="M60.2086 175.587C59.959 176.331 59.9304 176.37 60.1713 177.111C61.0116 177.922 62.0068 178.191 63.1253 178.457C63.3662 178.045 63.4207 177.876 63.5039 177.425C62.9074 176.608 62.3022 176.5 61.3787 176.11L60.2086 175.587Z" fill="#2D3757"/>
<path d="M62.916 179.13C61.6225 178.485 60.4409 178.38 59.0127 178.346L57.9285 178.543L57.8568 178.873C58.3215 179.132 58.7717 179.377 59.2593 179.595C59.8415 179.769 60.3434 179.928 60.8711 180.237C61.2985 180.575 61.6799 180.866 62.1589 181.134L62.916 179.13Z" fill="#212A54"/>
<path d="M59.0125 178.346L57.9284 178.543L57.8567 178.873C58.3213 179.132 58.7716 179.377 59.2592 179.595C59.8414 179.769 60.3433 179.928 60.871 180.237C61.0201 179.895 61.0173 179.6 61.0488 179.231C60.4982 178.608 59.8013 178.571 59.0125 178.346Z" fill="#2E3A5E"/>
<path d="M60.87 180.237C60.3422 179.928 59.8403 179.768 59.2581 179.594L58.2486 180.726C58.3318 181.467 58.4952 181.503 59.0344 182.04C60.2533 182.72 60.8069 183.031 62.2093 182.641L62.5879 182.188L62.1577 181.134C61.6787 180.866 61.2973 180.575 60.87 180.237Z" fill="#161A3A"/>
<path d="M59.036 182.04L58.5657 182.532C57.7311 182.387 57.5877 182.291 56.8392 182.652C56.6097 183.128 56.3659 183.597 56.1766 184.091L56.6871 184.496C56.7875 184.547 56.885 184.609 56.994 184.649C57.6909 184.904 58.4338 184.798 59.1594 184.755L59.4404 185.099L59.254 185.8L59.7502 185.642L61.4653 183.811L62.2109 182.641C60.8085 183.032 60.2549 182.72 59.036 182.04Z" fill="#020210"/>
<path d="M58.5655 182.532C57.7309 182.387 57.5876 182.291 56.839 182.652C56.6096 183.128 56.3658 183.597 56.1765 184.091L56.687 184.496C57.4528 184.384 58.2157 184.31 58.99 184.246L59.1621 183.78L58.5655 182.532Z" fill="#161A3A"/>
<path d="M123.852 212.563C122.917 213.788 122.125 214.984 121.374 216.33C120.668 217.369 120.181 218.448 120.387 219.736C120.608 221.11 121.546 221.949 122.573 222.774L124.988 218.988C125.461 219.182 125.968 219.351 126.41 219.607C126.886 219.092 127.371 218.56 127.947 218.158C129.006 217.423 129.906 217.606 131.085 217.854L131.59 216.734C132.238 217.06 133.394 217.86 134.125 217.583C134.283 217.525 134.426 217.442 134.578 217.372C132.662 215.636 130.153 213.94 127.663 213.191C126.465 212.816 125.105 212.874 123.852 212.563Z" fill="#A4B6C7"/>
<path d="M123.852 212.563C122.917 213.788 122.126 214.984 121.375 216.33C121.535 216.391 122.023 216.51 122.178 216.456C123.121 216.127 125.545 214.004 127.664 213.191C126.465 212.816 125.106 212.874 123.852 212.563Z" fill="#DFE0E8"/>
<path d="M131.59 216.734C130.179 216.232 128.96 215.821 127.52 216.472C126.427 216.966 125.65 218.032 124.988 218.988C125.461 219.182 125.969 219.351 126.41 219.607C126.886 219.092 127.371 218.56 127.947 218.158C129.006 217.423 129.906 217.606 131.085 217.854L131.59 216.734Z" fill="#020210"/>
<path d="M62.2793 231.229C61.3959 231.578 60.4982 231.895 59.6751 232.369C58.1723 232.88 55.7087 232.999 54.5901 234.076L54.7335 235.137C54.897 235.794 54.9917 236.523 55.3731 237.088C55.6341 237.123 55.462 237.077 55.809 237.398C55.8377 237.918 55.8808 238.455 55.8521 238.976C55.8119 239.681 55.7259 240.001 55.2096 240.477C54.3636 240.513 53.5778 240.585 52.7432 240.724L52.8923 240.738L52.9583 241.019C54.441 241.636 55.9209 242.239 57.4381 242.774C58.5394 242.347 59.9705 241.924 60.9084 241.209C62.9676 239.64 62.0039 236.705 62.0068 234.565C62.0097 233.458 62.1531 232.329 62.2793 231.229Z" fill="#2B519B"/>
<path d="M184.362 127.239C184.233 127.404 184.035 127.502 183.866 127.624C180.522 124.628 177.387 123.614 172.927 124.075C171.771 124.195 170.908 124.665 169.767 124.301C169.176 124.852 169.101 124.939 168.889 125.714C169.115 126.639 169.325 127.126 170.185 127.611C172.571 128.957 179.965 130.84 182.621 130.059C183.352 129.844 183.757 129.49 184.081 128.797C184.293 128.339 184.385 127.732 184.362 127.239Z" fill="#294986"/>
<path d="M158.392 88.79C156.169 94.4322 154.463 100.34 152.561 106.102C151.156 110.368 149.467 114.564 148.368 118.921C149.949 119.312 150.023 116.999 151.388 116.476C152.817 114.212 153.471 110.366 154.385 107.767C156.109 102.853 158.045 98.0072 159.863 93.1262C159.456 92.2118 159.774 91.6044 160.09 90.7235C159.496 90.8244 158.908 90.9044 158.309 90.9653C158.36 90.237 158.383 89.5195 158.392 88.79Z" fill="url(#paint2_linear_551_68139)"/>
<path d="M186.436 114.847C186.135 114.503 185.834 114.238 185.461 113.97C183.003 112.214 178.956 112.034 176.043 112.449C174.786 112.76 174.032 113.421 173.209 114.401C173.616 115.627 174.009 116.167 175.174 116.753C177.818 118.082 181.747 119.339 184.698 119.484C185.194 119.508 185.688 119.543 186.184 119.565C186.562 118.892 186.932 118.232 187.099 117.47C187.334 116.374 187.024 115.73 186.436 114.847Z" fill="#303F70"/>
<path d="M186.436 114.847C186.134 114.503 185.833 114.238 185.46 113.97C183.003 112.214 178.956 112.034 176.042 112.449L175.944 112.884C177.077 113.433 178.669 113.157 179.925 113.39C181.881 113.753 184.528 115.061 186.436 114.847Z" fill="#929ACA"/>
<path d="M179.815 75.0014C176.935 74.9845 169.857 74.2805 167.706 74.7772C166.943 74.9533 166.53 75.2532 165.979 75.7891C165.503 76.7558 165.52 77.6971 165.824 78.7204C165.962 79.1809 166.171 79.1614 166.567 79.375C169.742 79.6245 178.653 80.3905 181.226 79.3289C181.61 78.3471 182.097 77.0854 181.814 76.0375C181.105 75.204 180.85 75.2517 179.815 75.0014Z" fill="#040303"/>
<path d="M64.2442 168.912L64.0062 169.547C63.5789 169.567 63.1429 169.6 62.7156 169.59C60.622 169.542 61.947 168.349 60.8887 167.357C60.0398 166.559 59.0159 166.515 57.9088 166.528C58.6516 166.937 59.3744 167.306 60.1602 167.625C60.7424 167.861 61.0149 168.006 61.359 168.562C61.3131 169.284 61.2787 169.418 60.7453 169.969C60.4556 170.269 60.0627 170.527 59.7271 170.779L59.7501 170.824C59.6698 172.117 59.3801 172.781 58.5111 173.743L58.7233 174.066L59.6841 174.213C60.0082 174.692 60.1115 175.021 60.209 175.588L61.3791 176.11C62.3026 176.5 62.9078 176.608 63.5043 177.425C63.4211 177.876 63.3666 178.046 63.1257 178.457L62.9164 179.13L62.1592 181.134L62.5894 182.189L62.2108 182.641L61.4652 183.811C62.3514 184.344 63.4957 184.111 64.4938 184.038L64.9096 183.148C64.4163 181.984 65.7213 179.033 66.1171 177.769C67.0406 175.175 68.0759 172.734 68.7441 170.05L67.7748 171.068L67.4679 170.968L66.3006 170.57C65.5521 169.657 65.3915 169.289 64.2442 168.912Z" fill="#020210"/>
<path d="M66.1172 177.769C63.9834 178.892 63.5618 180.08 62.5895 182.188L62.211 182.641L61.4653 183.811C62.3515 184.344 63.4958 184.111 64.4939 184.038L64.9097 183.148C64.4164 181.984 65.7214 179.033 66.1172 177.769Z" fill="#852029"/>
<path d="M63.9224 172.467C63.1222 171.999 62.9444 171.794 61.9951 171.855C61.3612 172.201 60.8421 172.484 60.6356 173.229C60.4406 173.941 60.6356 174.422 60.9798 175.03C61.496 175.342 61.952 175.631 62.5285 175.821C63.2054 176.128 63.7445 176.36 64.4873 176.477C65.0208 176.27 65.3908 176.11 65.7866 175.673C66.3114 175.091 66.5208 174.522 66.4146 173.747C66.3401 173.214 66.1766 173.218 65.7923 172.898C65.2502 172.819 64.7512 172.756 64.2292 172.581C64.126 172.547 64.0256 172.505 63.9224 172.467Z" fill="#27283B"/>
<path d="M64.2432 168.912L64.0051 169.547C63.5778 169.567 63.1419 169.6 62.7145 169.59C60.6209 169.542 61.9459 168.349 60.8876 167.357C60.0387 166.559 59.0148 166.515 57.9077 166.528C58.6505 166.937 59.3733 167.306 60.1591 167.625C60.7413 167.861 61.0138 168.006 61.3579 168.562C61.312 169.284 61.2776 169.418 60.7442 169.969C60.4545 170.269 60.0616 170.527 59.726 170.779L59.749 170.824C59.6687 172.117 59.379 172.781 58.51 173.743L58.7222 174.066L59.683 174.213C60.0071 174.692 60.1104 175.021 60.2079 175.588L61.378 176.11L62.5281 175.821C61.9516 175.631 61.4956 175.342 60.9794 175.031C60.6352 174.423 60.4402 173.941 60.6352 173.229C60.8417 172.484 61.3608 172.202 61.9946 171.855C62.944 171.794 63.1218 171.999 63.9219 172.467L64.7594 171.996C65.4219 172.031 66.2049 172.156 66.8358 171.931C67.2259 171.793 67.3033 171.319 67.4668 170.968L66.2995 170.57C65.551 169.657 65.3904 169.289 64.2432 168.912Z" fill="#040303"/>
<path d="M66.2995 170.57C64.2575 170.658 62.465 170.078 60.4746 169.803C61.8943 170.554 63.3082 171.31 64.7594 171.996C65.4219 172.031 66.2049 172.155 66.8358 171.931C67.2259 171.793 67.3033 171.319 67.4668 170.968L66.2995 170.57Z" fill="#474C6B"/>
<path d="M181.227 79.3291C178.654 80.3907 169.743 79.6247 166.568 79.3751C165.561 79.7336 165.541 79.9488 164.973 80.8123C163.551 80.475 162.249 80.1846 160.769 80.1878L160.439 81.5746L160.172 82.5934L177.682 83.0576C180.398 83.1222 183.3 82.8372 185.973 83.3128C186.177 82.5631 186.699 81.7078 187.037 80.995C185.79 80.9407 184.264 81.0281 183.062 80.7523C182.021 80.5128 181.792 80.1983 181.227 79.3291Z" fill="url(#paint3_linear_551_68139)"/>
<path d="M164.973 80.8126C163.55 80.4753 162.248 80.1849 160.768 80.188L160.438 81.5749C160.576 81.6589 160.702 81.7661 160.851 81.8267C161.603 82.1294 163.777 81.9628 164.514 81.6252C164.895 81.4503 164.858 81.1799 164.973 80.8126Z" fill="#C9D6E0"/>
<path d="M70.6713 95.5816C70.9753 97.7377 72.6445 99.6051 73.3959 101.621C72.2659 99.7763 70.089 99.1632 69.5413 97.0279C69.7191 96.8253 69.8825 96.6095 70.0432 96.3925C69.4093 96.1753 68.6665 95.9783 68.1531 95.5404C67.4132 94.9119 66.6016 93.4238 65.9706 92.6178C63.9372 90.0129 55.5511 78.4542 53.7787 77.4043C55.9297 81.4801 59.3512 85.2365 62.1877 88.8684C66.0222 93.7788 69.8051 98.9405 74.0268 103.523C76.3872 106.085 79.0487 108.624 81.8594 110.692L81.1108 108.119C80.563 107.419 79.8919 106.771 79.2839 106.12L80.9387 105.691C80.3164 105.063 79.7016 104.428 79.0946 103.785L77.2046 102.144L76.1721 100.314C73.6741 97.2332 71.9561 93.766 69.6101 90.6166L69.4036 90.9796C68.6464 91.0013 67.4878 89.7202 66.8511 89.214C67.8055 91.5111 69.0926 93.6565 70.6713 95.5816Z" fill="#C36F2B"/>
<path d="M69.6089 90.6165L69.4024 90.9795C68.6452 91.0012 67.4865 89.7201 66.8498 89.2139C67.8043 91.511 69.0914 93.6564 70.67 95.5815C72.4769 98.8938 73.9883 102.639 77.3152 104.687C78.0293 105.127 78.6574 105.558 79.2827 106.119L80.9375 105.691C80.3151 105.063 79.7004 104.428 79.0934 103.785L77.2033 102.144L76.1709 100.314C73.6728 97.2331 71.9549 93.7658 69.6089 90.6165Z" fill="#E58C41"/>
<path d="M77.2033 102.144L76.7215 102.655C76.799 103.433 77.0169 103.974 77.3152 104.686C78.0293 105.127 78.6574 105.557 79.2827 106.119L80.9375 105.691C80.3151 105.063 79.7004 104.428 79.0934 103.785L77.2033 102.144Z" fill="#F5C47C"/>
<path d="M55.1903 165.467C54.4389 167.071 53.7104 168.65 52.7496 170.144C55.1014 171.308 57.2925 172.464 59.4292 173.991C57.0057 173.15 54.9723 171.783 52.6607 170.759C51.8835 171.571 51.3615 172.281 51.0202 173.358L50.0795 175.491C51.1521 176.436 52.2305 177.351 53.3634 178.227C54.2926 178.467 55.1702 178.63 56.1253 178.733C56.5927 178.105 56.9599 177.276 57.3413 176.584C58.0755 175.747 58.3853 175.121 58.7237 174.066L58.5115 173.743C59.3805 172.781 59.6701 172.117 59.7504 170.824L59.7275 170.779C60.0631 170.527 60.456 170.269 60.7457 169.969C61.2791 169.418 61.3135 169.284 61.3594 168.562C61.0152 168.006 60.7428 167.861 60.1606 167.625C59.3747 167.306 58.652 166.937 57.9092 166.528L55.1903 165.467Z" fill="#F4F4F3"/>
<path d="M57.3398 176.584C55.3925 175.005 52.8227 174.954 51.0187 173.358L50.078 175.49C51.1507 176.436 52.2291 177.351 53.3619 178.227C54.2912 178.466 55.1687 178.629 56.1238 178.733C56.5913 178.104 56.9584 177.275 57.3398 176.584Z" fill="#C9D6E0"/>
<path d="M105.008 135.042C105.186 135.711 105.435 136.37 105.71 137.006C106.132 137.981 106.536 138.557 107.549 138.96C108.295 138.908 108.725 138.942 109.267 138.335C109.981 137.536 109.958 135.964 109.843 134.968C109.447 131.506 107.589 126.293 104.764 124.146C103.884 123.479 103.304 123.407 102.234 123.571C101.322 124.803 101.515 127.382 100.755 128.987C101.35 130.68 101.93 132.379 102.493 134.083C103.442 133.926 104.179 134.578 105.008 135.042Z" fill="#2E3A5E"/>
<path d="M102.236 123.571C101.324 124.803 101.517 127.382 100.757 128.987C101.352 130.68 101.932 132.379 102.495 134.083C103.444 133.926 104.181 134.578 105.01 135.042C104.063 131.51 102.248 127.186 102.236 123.571Z" fill="#020210"/>
<path d="M57.2597 257.294C57.3973 254.428 57.5034 251.971 58.599 249.257C59.0952 248.027 59.9814 246.961 60.1621 245.632C57.9939 248.252 55.5532 252.072 52.6623 253.844C51.9453 254.285 50.9845 254.633 50.147 254.311C49.5304 254.073 48.9969 253.434 48.6815 252.872C47.4081 250.591 48.5839 247.548 49.2493 245.253C47.6002 247.511 46.301 250.044 44.7093 252.361V252.701C46.4014 255.141 47.4884 257.725 48.4319 260.527C51.7646 259.982 54.2454 258.811 57.2597 257.294Z" fill="url(#paint4_linear_551_68139)"/>
<path d="M124.504 138.099C116.631 134.824 116.37 133.688 109.966 128.76C111.902 134.292 112.673 139.006 112.992 144.842C113.927 144.272 114.781 143.562 115.647 142.895C116.382 143.221 116.852 143.228 117.635 143.231L118.14 143.571C119.459 142.671 120.85 140.553 121.931 139.306C122.806 138.927 123.658 138.532 124.504 138.099Z" fill="#F4F4F3"/>
<path d="M121.932 139.306C119.528 139.834 117.4 141.197 115.648 142.895C116.382 143.221 116.852 143.228 117.635 143.231L118.14 143.571C119.459 142.67 120.85 140.553 121.932 139.306Z" fill="#AAABAF"/>
<path d="M4.69734 262.199C4.60556 263.946 4.574 265.654 4.64857 267.402C11.767 270.198 21.3117 271.948 28.9464 271.121C29.0869 270.362 29.1787 269.895 29.6175 269.238C30.2284 268.878 30.6127 268.709 31.3268 268.65C32.3622 268.564 33.3717 268.402 34.3956 268.238L34.9434 267.41C32.8067 267.713 30.7159 267.857 28.5535 267.834C23.4513 267.78 11.5892 266.771 7.0577 264.298C6.18009 263.82 5.39426 262.907 4.69734 262.199Z" fill="#AEC0CF"/>
<path d="M109.314 65.1795C110.479 63.955 111.431 63.1558 113.183 63.0492C117.425 65.327 112.294 76.152 112.839 77.9219L113.433 78.0442C114.807 77.5609 115.483 76.2946 116.137 75.0687C118.283 71.04 119.886 64.2848 118.386 59.8566C117.976 58.6444 117.224 57.4387 116.014 56.8953C115.165 56.5155 114.216 56.5423 113.376 56.9268C111.285 57.8823 109.469 61.3356 108.795 63.4185L108.798 63.6694C108.807 64.3892 108.755 64.9751 108.574 65.6803L108.867 65.4556C109.208 65.2007 109.059 65.2664 109.314 65.1795Z" fill="#F4F4F3"/>
<path d="M78.8477 98.2021C77.9758 98.2299 77.2846 98.0841 76.559 98.596L76.3726 98.6509C76.4959 99.4807 76.5418 99.5722 76.1718 100.314L77.2043 102.144L79.0943 103.785C79.7013 104.428 80.316 105.063 80.9384 105.691L82.0311 106.526L83.7749 105.569C86.3159 107.175 91.1801 110.6 94.3005 109.935C94.9573 109.795 95.4506 109.587 95.7718 108.959C96.5146 107.496 95.3961 105.565 94.7651 104.261C92.4392 103.804 89.7489 104.045 87.684 102.787L85.7423 102.358C83.7175 101.292 82.252 99.4398 80.0952 98.5666L78.8477 98.2021Z" fill="#DB4042"/>
<path d="M79.8749 102.217C79.7889 103.124 79.7344 103.122 79.0948 103.785C79.7018 104.428 80.3166 105.063 80.9389 105.691L82.0317 106.526L83.7754 105.569C82.393 104.658 81.0938 103.776 80.1646 102.382L79.8749 102.217Z" fill="#370E12"/>
<path d="M78.8474 98.2021C77.9756 98.2299 77.2843 98.0841 76.5587 98.596L76.3723 98.6509C76.4957 99.4807 76.5415 99.5722 76.1716 100.314L77.204 102.144L79.0941 103.785C79.7336 103.122 79.7881 103.124 79.8742 102.217L80.1638 102.383C80.4306 102.146 80.5568 101.926 80.7403 101.625C80.835 100.481 80.4822 99.6311 80.095 98.5666L78.8474 98.2021Z" fill="#D14A4E"/>
<path d="M76.5596 98.5962L76.3732 98.6511C76.4965 99.4809 76.5424 99.5723 76.1724 100.314L77.2049 102.144L79.0949 103.785C79.7345 103.122 79.789 103.124 79.875 102.217C78.7602 101.019 77.655 99.812 76.5596 98.5962Z" fill="#210203"/>
<path d="M63.8241 255.315C62.2151 256.701 60.6176 257.704 58.7305 258.658L59.6368 259.2C59.3041 260.06 58.8882 260.223 58.0651 260.613C54.4285 262.335 43.943 265.658 39.8963 266.651C38.273 267.05 36.5378 267.014 34.9432 267.41L34.3954 268.238C37.8055 267.551 41.9125 266.736 45.0644 268.694C45.1591 268.685 45.2594 268.684 45.3541 268.665C49.246 267.921 62.0861 264.869 64.0334 261.684C65.0917 259.956 64.2141 257.139 63.8241 255.315Z" fill="url(#paint5_linear_551_68139)"/>
<path d="M58.7324 258.658C44.3121 263.627 35.3896 266.441 19.7389 265.255C16.3518 264.998 12.893 264.187 9.68656 263.073C9.10435 262.87 5.63979 261.27 5.34152 261.366C4.98589 261.48 4.83675 261.918 4.69909 262.199C5.39602 262.907 6.18184 263.82 7.05946 264.298C11.5909 266.771 23.453 267.78 28.5552 267.834C30.7177 267.857 32.8084 267.713 34.9451 267.41C36.5397 267.014 38.2749 267.05 39.8982 266.651C43.9449 265.658 54.4304 262.335 58.067 260.613C58.8901 260.223 59.306 260.06 59.6387 259.2L58.7324 258.658Z" fill="#EFEFF2"/>
<path d="M133.291 205.591C129.302 207.105 126.405 209.108 123.853 212.563C125.106 212.874 126.465 212.816 127.664 213.191C130.154 213.94 132.663 215.636 134.579 217.372C134.846 217.541 135.193 217.639 135.488 217.753C137.289 216.563 138.993 215.097 140.731 213.805L142.248 212.315C138.623 211.832 136.429 207.41 133.291 205.591Z" fill="#F4F4F3"/>
<path d="M148.469 224.909C145.423 225.398 142.621 225.498 139.581 225.706C138.918 225.752 138.646 225.93 138.259 226.461L138.436 227.086C139.346 227.807 140.24 227.858 141.347 228.044C142.985 228.319 144.634 228.596 145.483 230.237C145.655 230.566 145.71 230.971 145.598 231.323C144.697 234.148 139.457 234.397 137.06 235.211C136.165 235.516 135.313 235.996 134.481 236.442C134.094 236.692 133.727 237.004 133.357 237.281C133.572 237.545 133.432 237.483 133.779 237.454C137.691 237.12 139.294 237.628 142.641 239.647C146.002 237.72 149.246 234.874 151.512 231.737C150.823 229.246 149.802 227.117 148.469 224.909Z" fill="#F4F4F3"/>
<path d="M123.953 88.9319C122.364 88.3736 120.795 87.5833 119.255 86.897C118.535 87.8408 117.784 88.4699 116.84 89.1854L116.728 89.5844C111.761 91.864 105.549 90.9333 100.484 93.0682L99.2967 94.0318C99.7757 94.2859 99.8875 94.2973 100.398 94.3654C101.132 94.4634 101.62 94.6792 102.277 95.0091L109.934 94.2367C113.852 93.2843 117.732 92.6315 121.719 92.0486C123.716 92.0616 125.713 92.0555 127.71 92.0303C131.054 92.0503 134.034 92.1998 137.137 93.5633C137.074 92.5111 137.327 92.2913 136.813 91.2689L137.479 90.4445C133.202 88.5145 128.536 88.9113 123.953 88.9319Z" fill="#F9DB93"/>
<path d="M123.953 88.9319C122.364 88.3736 120.795 87.5833 119.255 86.897C118.535 87.8408 117.784 88.4699 116.84 89.1854L116.729 89.5844C116.826 89.5616 116.921 89.5398 117.015 89.5158C119.333 88.9281 121.581 89.0396 123.953 88.9319Z" fill="#C36F2B"/>
<path d="M136.812 91.2688C131.834 89.9468 126.594 90.7405 121.718 92.0485C123.715 92.0615 125.712 92.0554 127.709 92.0302C131.054 92.0502 134.033 92.1997 137.137 93.5632C137.073 92.511 137.326 92.2912 136.812 91.2688Z" fill="#F7C555"/>
<path d="M56.4902 101.384C51.5286 97.6065 46.7046 92.1745 39.9877 92.125L39.9246 92.6484C36.721 92.9977 33.7727 92.9805 30.6839 94.0433C31.3235 95.0466 32.1208 95.8529 32.941 96.7093C40.6846 98.6047 48.9244 100.37 55.6069 104.935C55.8277 103.731 56.1661 102.563 56.4902 101.384Z" fill="#66728D"/>
<path d="M110.093 190.157C109.465 190.028 109.316 189.96 108.745 190.353C108.114 190.788 107.629 191.562 107.171 192.171L107.69 193.889L107.52 194.173C107.148 193.536 106.858 192.968 106.588 192.282C106.333 191.633 106.052 191.164 105.415 190.817C105.111 190.653 104.842 190.603 104.518 190.523L103.935 190.797C103.758 191.979 104.03 193.263 103.646 194.363C103.264 193.986 103.445 194.275 103.382 193.687C103.313 193.043 103.101 192.756 102.742 192.24C101.638 191.695 100.775 191.91 99.6162 192.178C99.8657 194.136 100.15 196.099 100.299 198.068C99.7711 196.515 99.0025 194.823 98.8648 193.188C99.0225 192.45 98.3399 191.341 98.0474 190.611C94.0695 191.494 90.0715 192.128 86.062 192.834L86.3689 194.37C85.5486 194.739 85.52 194.685 85.1586 195.493C85.2131 195.999 85.1959 196.691 85.3622 197.16L85.5314 200.144C91.1097 200.954 107.377 195.665 112.075 192.481C112.301 191.744 112.416 191.078 112.514 190.319C111.992 190.39 111.481 190.467 110.968 190.571L110.523 190.663L110.093 190.157Z" fill="#F4F4F3"/>
<path d="M98.0479 190.611C94.07 191.495 90.072 192.128 86.0625 192.834L86.3694 194.37C85.5492 194.739 85.5205 194.685 85.1591 195.493C85.2136 195.999 85.1964 196.691 85.3627 197.16C85.4918 196.89 85.4631 196.852 85.704 196.687C86.7107 196.003 92.2173 195.219 93.505 195.335C94.0241 195.381 93.9524 195.467 94.2564 195.846C94.3253 196.68 94.3454 197.194 94.9419 197.798C95.1427 196.369 94.9907 194.843 94.9448 193.401C95.6446 193.22 96.3644 193.014 97.0786 192.891C97.8501 192.758 98.243 192.71 98.8653 193.188C99.0231 192.45 98.3405 191.341 98.0479 190.611Z" fill="#070D24"/>
<path d="M94.2575 195.846C94.3321 195.209 94.4095 194.783 94.1571 194.18C92.3302 193.107 88.8283 194.431 86.6773 194.382C86.5741 194.379 86.4709 194.374 86.3705 194.37C85.5502 194.739 85.5216 194.685 85.1602 195.493C85.2147 195.999 85.1975 196.691 85.3638 197.16C85.4929 196.89 85.4642 196.852 85.7051 196.687C86.7118 196.003 92.2184 195.219 93.5061 195.334C94.0252 195.381 93.9535 195.467 94.2575 195.846Z" fill="#AEC0CF"/>
<path d="M93.9496 94.8574C88.4746 95.5379 77.3152 87.8243 72.93 84.4877L72.5629 84.207L71.3899 84.8236C78.9528 92.5526 87.4708 98.2623 98.5872 98.3606C100.434 98.3769 102.376 98.3952 104.206 98.0971C108.456 98.1133 122.317 95.4142 126.097 93.6325L125.856 93.465C126.157 92.7848 127.078 92.4252 127.709 92.0301C125.712 92.0553 123.715 92.0614 121.718 92.0484C117.731 92.6313 113.851 93.2841 109.933 94.2365L102.275 95.0089C100.806 95.155 99.3333 95.2689 97.8587 95.3504L93.9496 94.8574Z" fill="#D36234"/>
<path d="M109.934 94.2368L102.276 95.0092C100.806 95.1553 99.3338 95.2692 97.8592 95.3507C100.934 96.2505 104.117 95.5663 107.183 95.8787C108.296 95.4802 109.036 94.9974 109.934 94.2368Z" fill="#DE782F"/>
<path d="M127.709 92.0303C125.712 92.0555 123.715 92.0616 121.718 92.0486C117.731 92.6314 113.851 93.2842 109.933 94.2367C109.035 94.9973 108.295 95.4801 107.183 95.8785C107.022 95.9631 106.87 96.0635 106.701 96.1321C103.655 97.3755 100.05 95.657 96.9152 95.9151C95.4553 96.0352 94.2078 96.7586 92.7852 96.9653C93.4678 97.5109 94.6552 97.5724 95.5328 97.701C97.0098 97.9168 98.0796 97.4598 99.6398 97.8625C101.065 98.2295 102.731 97.8537 104.206 98.0972C108.456 98.1135 122.317 95.4143 126.097 93.6327L125.856 93.4652C126.157 92.7849 127.078 92.4253 127.709 92.0303Z" fill="#D46E36"/>
<path d="M26.746 249.096C21.119 248.603 15.7931 251.463 11.6517 255.1C10.5245 256.088 8.86109 258.54 8.82668 260.022C10.0743 258.815 10.7913 257.114 11.6287 255.604C14.8323 256.067 17.9068 256.9 21.1534 257.234C26.1036 257.696 30.3998 257.41 35.264 256.476C37.4064 258.521 38.7314 260.637 40.1367 263.204C39.4341 259.635 37.9685 256.14 35.6799 253.272C33.3166 250.309 30.3482 249.492 26.746 249.096Z" fill="#F4F4F3"/>
<path d="M161.621 129.818C158.045 129.682 148.557 128.62 145.256 127.517C144.528 129.931 143.707 132.353 143.151 134.813C144.654 135.356 164.208 139.324 164.936 139.255L165.057 138.737C163.924 137.431 161.922 138.087 160.388 137.796C160.259 137.772 160.13 137.744 159.998 137.717C161.217 137.325 162.057 137.744 163.23 137.04C165.82 136.639 164.457 134.707 165.671 133.274C166.522 132.42 167.497 131.668 168.424 130.894C166.17 130.489 163.904 130.052 161.621 129.818Z" fill="#66728D"/>
<path d="M152.791 131.25C151.862 131.672 151.013 132.67 150.703 133.642C150.537 134.156 150.603 134.616 150.772 135.113C151.202 135.378 151.63 135.665 152.074 135.901C152.84 135.853 153.586 135.692 154.34 135.55C153.683 135.508 153.359 135.489 152.828 135.084C152.278 133.924 152.648 132.49 152.791 131.25Z" fill="#A7292D"/>
<path d="M154.533 135.579C154.716 134.45 155.052 133.238 154.739 132.116C154.031 131.406 153.747 131.442 152.789 131.25C152.646 132.49 152.276 133.924 152.826 135.084C153.357 135.489 153.681 135.508 154.338 135.55L154.533 135.579Z" fill="#D14A4E"/>
<path d="M154.535 135.579L154.34 135.55C153.585 135.693 152.84 135.853 152.074 135.901C154.726 136.458 157.368 137.064 159.998 137.717C161.217 137.326 162.057 137.745 163.23 137.041C160.199 135.733 157.744 135.803 154.535 135.579Z" fill="#010108"/>
<path d="M129.083 219.384L128.51 219.137C125.117 221.502 123.875 226.781 120.264 228.971L119.888 228.84L119.69 228.411C118.879 228.829 117.405 230.262 117.026 231.061C116.725 231.698 116.696 232.243 116.914 232.918C117.554 234.899 120.063 236.402 121.842 237.316C122.928 237.876 124.698 238.766 125.931 238.243C129.141 236.883 133.162 228.829 134.271 225.458C132.886 223.851 130.322 222.776 129.261 221.053C128.908 220.481 128.923 220.003 129.083 219.384Z" fill="#294986"/>
<path d="M30.6327 107.247C29.563 107.57 28.9406 108.013 28.0802 108.718C26.0238 110.253 25.0745 111.612 24.392 114.081C24.564 116.255 24.934 118.608 26.7552 120.072C27.5697 120.726 28.6825 121.151 29.7264 120.982C32.6604 120.506 35.4424 119.092 38.405 118.542C47.2098 116.907 55.223 119.388 63.7324 121.077C63.2764 120.37 62.4992 119.722 61.7392 119.363C58.4582 117.814 48.8102 116.069 44.8781 115.495C42.1076 115.091 38.0494 115.112 35.6173 113.759L35.4711 113.192C35.8755 112.504 36.1508 112.235 36.8391 111.831C36.5007 111.679 36.2081 111.414 35.9099 111.193C35.8267 110.678 35.7837 109.95 35.5686 109.482C35.2015 108.684 34.5676 108.556 33.8334 108.232C32.7809 107.868 31.6882 107.609 30.6327 107.247Z" fill="#A4B6C7"/>
<path d="M30.6333 107.247C29.5635 107.57 28.9412 108.013 28.0808 108.718C28.4794 108.958 28.8924 109.159 29.2222 109.488C30.7308 109.034 32.6179 109.209 33.834 108.232C32.7814 107.868 31.6887 107.609 30.6333 107.247Z" fill="#AEC0CF"/>
<path d="M29.2227 109.489C28.8928 109.159 28.4798 108.958 28.0812 108.718C26.0248 110.253 25.0755 111.612 24.3929 114.082C24.6568 114.553 24.4818 114.314 24.9665 114.763C26.8193 114.114 28.2131 111.104 29.2227 109.489Z" fill="#C9D6E0"/>
<path d="M64.0508 20.439C51.4831 25.8407 42.9766 35.6962 37.9605 48.2322C34.2149 57.5871 35.256 70.3532 39.2712 79.4843C40.1751 81.5312 41.2687 83.4896 42.5378 85.334C43.3466 84.6691 43.3954 84.5828 44.4967 84.5042C41.3764 79.2297 39.4145 73.3554 38.7406 67.2693C37.6487 57.1509 40.2857 46.982 46.1601 38.658C47.6228 36.6123 49.5042 34.8289 51.1046 32.8764C52.7651 28.3558 59.3128 24.6145 63.4686 22.5645C64.0709 21.6212 64.1999 21.6003 64.0508 20.439Z" fill="#A2AAD9"/>
<path d="M50.3163 120.996C47.6834 120.832 44.9101 120.726 42.3318 121.354C40.327 121.843 37.9494 122.831 36.808 124.643C38.1502 124.384 39.6272 123.154 40.8547 122.491C41.4886 122.688 42.1224 122.885 42.739 123.131C47.7839 125.148 50.9645 131.321 52.9291 136.011C53.5744 137.797 54.0935 139.579 54.5724 141.416C57.5093 142.01 60.4232 141.679 63.2539 140.787C62.2472 135.754 61.3725 129.589 58.3639 125.308C56.2961 122.363 53.6575 121.635 50.3163 120.996Z" fill="#2E3A5E"/>
<path d="M151.388 116.476C150.023 116.999 149.948 119.312 148.368 118.921C147.295 121.774 146.257 124.639 145.256 127.517C148.557 128.62 158.044 129.682 161.621 129.819C163.904 130.052 166.169 130.489 168.424 130.894C168.384 130.775 168.369 130.644 168.3 130.537C167.423 129.13 166.144 127.759 166.25 125.879C166.362 123.877 168.188 122.207 169.643 121.02C169.433 121.035 169.095 121.044 168.885 121.111C167.899 121.428 167.147 122.582 166.608 123.403L166.631 123.676C166.433 122.119 167.796 120.638 167.773 118.872C167.77 118.768 167.767 118.664 167.764 118.56L167.486 118.207C160.766 119.844 157.649 119.193 151.388 116.476Z" fill="#93B9E7"/>
<path d="M167.764 118.56C166.508 122.147 165.031 125.659 163.74 129.236C162.92 129.185 160.442 128.77 159.877 129.196C160.453 129.455 161.016 129.643 161.621 129.818C163.904 130.052 166.169 130.489 168.424 130.894C168.384 130.775 168.369 130.644 168.3 130.537C167.423 129.13 166.144 127.759 166.25 125.879C166.362 123.877 168.188 122.207 169.643 121.02C169.433 121.035 169.095 121.044 168.885 121.111C167.899 121.428 167.147 122.582 166.608 123.403L166.631 123.676C166.433 122.119 167.796 120.638 167.773 118.872C167.77 118.768 167.767 118.664 167.764 118.56Z" fill="#EFEFF2"/>
<path d="M54.8008 226.952C53.5044 224.626 51.0724 223.909 48.6346 223.199C45.5256 222.294 37.4981 220.873 34.6731 222.386C33.9475 222.775 33.6406 223.303 33.4312 224.075C32.5938 227.159 33.0039 231.139 32.9925 234.35C40.0363 234.194 43.8938 235.331 50.3095 238.103C50.0026 236.594 50.1432 234.914 50.3439 233.392C50.5332 231.964 50.6393 231.572 51.8123 230.692L51.8037 230.406C52.1766 229.37 52.4634 228.265 53.4815 227.678C53.9146 227.428 54.3648 227.2 54.8008 226.952Z" fill="#F4F4F3"/>
<path d="M49.3983 172.142C50.9585 169.658 53.2042 166.678 54.2051 163.936C54.4173 163.356 54.446 162.893 54.1736 162.343C53.2214 160.407 49.8113 159.269 47.8324 158.688C41.5142 156.836 35.4827 158.747 29.8901 161.765C28.8777 162.482 28.3471 162.942 28.1177 164.238C27.894 165.518 28.479 166.616 29.285 167.559C32.5344 171.363 37.7743 172.999 42.6499 173.286C45.0447 173.427 47.2473 173.268 49.3983 172.142Z" fill="#F4F4F3"/>
<path d="M135.109 135.608C133.059 135.54 132.021 135.637 130.48 137.055C127.429 139.865 126.46 144.738 124.902 148.437C125.086 144.557 126.092 141.782 127.707 138.296C125.298 139.849 123.614 141.433 122.043 143.832L121.131 142.785L120.921 142.58C119.45 143.851 117.99 145.382 117.319 147.23C117.058 147.951 116.826 148.717 116.502 149.411C117.136 150.339 117.66 151.104 118.633 151.709C118.908 152.925 119.361 154.517 120.385 155.29L120.511 155.16C121.283 155.862 121.805 156.788 122.539 157.533C123.548 158.56 124.696 159.167 126.164 159.143C130.291 159.077 134.762 153.704 137.473 150.96C136.093 147.756 135.276 144.782 135.023 141.3C135.574 141.859 135.735 142.24 136.578 142.174C136.675 142.167 136.761 142.122 136.853 142.096C136.357 140.886 137.031 138.557 136.845 137.095C136.44 137.121 136.248 137.12 135.867 136.952C135.393 136.745 135.293 136.075 135.109 135.608Z" fill="#F4F4F3"/>
<path d="M121.131 142.785C120.684 143.576 120.176 144.363 119.866 145.22C120.245 145.711 120.511 146.073 120.993 146.465C121.277 145.575 121.687 144.698 122.043 143.832L121.131 142.785Z" fill="#040303"/>
<path d="M136.845 137.094C136.441 137.121 136.249 137.12 135.867 136.952C135.394 136.745 135.294 136.075 135.11 135.608L135.024 141.299C135.575 141.859 135.735 142.24 136.579 142.174C136.676 142.167 136.762 142.122 136.854 142.095C136.358 140.886 137.032 138.557 136.845 137.094Z" fill="#040303"/>
<path d="M119.865 145.22C119.452 147.395 118.899 149.505 118.632 151.709C118.907 152.925 119.36 154.517 120.384 155.29L120.51 155.16C119.765 152.235 120.31 149.336 120.992 146.465C120.51 146.073 120.244 145.711 119.865 145.22Z" fill="#010108"/>
<path d="M121.131 142.785L120.922 142.58C119.45 143.851 117.99 145.381 117.319 147.23C117.058 147.951 116.826 148.717 116.502 149.41C117.136 150.339 117.661 151.103 118.633 151.709C118.9 149.505 119.453 147.395 119.866 145.22C120.176 144.362 120.683 143.576 121.131 142.785Z" fill="#B6C2D4"/>
<path d="M185.973 83.3127C183.3 82.8371 180.397 83.1221 177.681 83.0575L160.172 82.5933C159.641 84.6259 158.698 86.7433 158.391 88.7897C158.382 89.5191 158.359 90.2366 158.308 90.9649C158.907 90.904 159.495 90.824 160.089 90.7231C159.773 91.604 159.455 92.2114 159.862 93.1258C160.958 91.1407 162.481 90.3603 164.638 89.7149C167.073 88.9857 169.487 88.5681 171.799 89.8547C173.451 90.774 175.066 92.0185 175.573 93.9245C176.769 98.425 172.396 105.269 172.576 109.29C171.968 110.32 171.684 111.217 171.604 112.414C173.305 110.994 174.911 110.535 177.01 110.007C179.316 100.972 183.285 92.2434 185.973 83.3127Z" fill="#EFEFF2"/>
<path d="M180.963 85.5189C175.184 85.0186 168.811 84.4144 163.029 84.814C161.366 85.8093 160.709 88.9403 160.09 90.7231C159.774 91.6041 159.456 92.2115 159.863 93.1259C160.959 91.1407 162.481 90.3604 164.638 89.715C167.073 88.9858 169.488 88.5682 171.8 89.8547C173.452 90.774 175.066 92.0185 175.574 93.9245C176.77 98.425 172.396 105.269 172.577 109.29C173.572 108.147 180.134 88.3267 180.963 85.5189Z" fill="#93B9E7"/>
<path d="M116.574 180.221C112.978 176.78 114.352 171.076 111.306 167.107C111.326 172.242 109.932 178.227 106.249 182.033C101.425 187.02 92.6579 187.964 86.093 187.952C80.704 187.942 74.2768 187.364 70.2702 183.317C69.6794 182.719 69.1373 181.981 68.8591 181.183C66.7741 185.014 65.0046 187.562 61.5658 190.276C69.8544 191.445 77.5549 193.473 86.0643 192.834C90.0738 192.128 94.0718 191.495 98.0498 190.611C104.632 189.032 112.809 186.293 116.574 180.221Z" fill="#A4B6C7"/>
<path d="M95.4395 66.9843C95.3333 63.345 95.1756 59.8981 93.7875 56.4841C92.5514 53.4407 90.3373 50.3534 87.1853 49.1174C85.063 48.2862 82.7858 48.4311 80.7438 49.4173C76.2209 51.602 73.7143 56.7965 72.0594 61.2467C72.1225 61.321 72.1856 61.3962 72.2545 61.4694C72.6531 61.9121 72.352 61.594 72.7363 61.9264C76.3012 65.0006 79.4532 71.6915 80.1243 76.2741C80.4139 76.6051 80.7007 76.9144 81.0105 77.2242C81.4005 77.6115 81.2457 77.42 81.5239 77.8854C82.0803 78.0454 82.1749 78.1472 82.7542 77.9948C82.043 73.9974 81.9254 70.9089 83.4368 67.0507C84.3546 64.7139 86.1414 60.3658 88.6939 59.5228C89.4109 59.2859 90.0419 59.2819 90.7101 59.6714C91.6508 60.2203 92.2875 61.1835 92.5915 62.2065C93.8247 66.3538 92.4194 72.7448 90.2311 76.4044C90.1365 76.5631 90.0361 76.7188 89.9415 76.8758L90.4061 77.089C90.8936 76.9515 91.4845 76.5008 91.9348 76.2444C93.0418 75.5403 94.0485 74.7366 95.0752 73.9268C95.3104 71.6195 95.1383 69.2945 95.4395 66.9843Z" fill="#F4F4F3"/>
<path d="M22.8407 163.214C22.7087 162.599 22.5883 161.981 22.4506 161.369C21.9688 159.236 22.2068 157.052 22.0577 154.876C21.5902 155.155 21.4669 155.898 21.2747 156.405C21.0683 155.669 21.1199 155.55 21.3407 154.808L21.7451 154.789L21.5099 154.87L21.2145 154.583C20.4315 154.982 20.4487 154.982 20.1046 155.792L19.8723 155.282C18.0396 158.65 16.9182 162.51 16.2729 166.272C17.9536 172.031 22.8321 176.206 27.9314 179.019C32.7755 181.693 36.7591 183.272 42.3403 183.224C44.7924 179.49 47.3765 176.16 49.3984 172.142C47.2474 173.268 45.0448 173.427 42.65 173.286C37.7744 172.999 32.5345 171.363 29.2851 167.559C28.4792 166.616 27.8941 165.518 28.1178 164.238C28.3473 162.942 28.8778 162.482 29.8902 161.764L28.5824 160.994C26.8674 160.825 24.4095 162.445 22.8407 163.214Z" fill="#AEC0CF"/>
<path d="M115.647 142.895C114.781 143.561 113.926 144.271 112.991 144.842C112.544 152.568 112.469 158.681 117.93 164.78C120.127 167.235 122.708 169.089 125.828 170.181C133.199 168.095 140.274 165.077 146.449 160.505C142.032 157.86 139.993 155.33 137.472 150.96C134.762 153.704 130.291 159.076 126.164 159.143C124.695 159.166 123.548 158.559 122.539 157.533C121.804 156.788 121.282 155.862 120.511 155.16L120.385 155.29C119.361 154.516 118.908 152.925 118.632 151.709C117.66 151.104 117.135 150.339 116.501 149.411C116.387 149.159 116.344 149.101 116.304 148.788C116.063 146.816 117.046 145.103 118.139 143.57L117.634 143.231C116.851 143.228 116.381 143.22 115.647 142.895Z" fill="#A4B6C7"/>
<path d="M183.094 205.226C181.964 205.423 180.765 205.588 179.676 205.949C176.131 207.12 172.973 209.508 170.303 212.05C163.962 218.08 160.087 226.208 154.354 231.875C149.146 237.023 137.427 244.75 134.593 251.095C134.14 252.11 134.393 252.596 134.78 253.555L135.084 253.898C136.495 255.502 137.367 257.062 139.153 258.366C139.604 256.954 140.02 255.536 140.628 254.182C140.946 253.599 141.287 253.041 141.66 252.49C145.807 246.357 152.252 242.2 157.311 236.888C161.111 232.896 163.939 228.132 167.214 223.727C169.841 220.197 172.853 217.065 176.168 214.179C177.86 212.705 179.982 210.925 182.013 209.963C183.057 209.468 184.439 209.826 185.457 209.412C186.08 209.159 186.172 209.026 186.387 208.427C185.911 207.178 184.127 206.073 183.094 205.226Z" fill="#F4F4F3"/>
<path d="M164.73 222.622C161.484 224.981 160.024 229.046 157.512 232.013C155.042 234.928 151.489 236.902 148.784 239.636L148.449 239.98C148.604 239.946 148.882 239.896 149.048 239.829C150.21 239.354 151.475 238.056 152.467 237.272C157.996 232.902 161.65 228.972 164.73 222.622Z" fill="#AEC0CF"/>
<path d="M140.627 254.182C140.421 254.047 140.139 253.874 139.962 253.708C139.377 253.161 139.184 252.674 139.213 251.883C139.291 249.704 140.842 247.385 142.316 245.889C142.85 245.351 143.289 244.869 143.719 244.248L143.604 243.995C141.668 244.558 136.405 251.663 134.779 253.555L135.083 253.898C136.494 255.502 137.366 257.062 139.153 258.366C139.603 256.954 140.019 255.536 140.627 254.182Z" fill="#AEC0CF"/>
<path d="M172.577 109.29C172.396 105.269 176.77 98.425 175.574 93.9245C175.066 92.0185 173.451 90.774 171.8 89.8547C169.488 88.5682 167.073 88.9858 164.638 89.7149C162.481 90.3604 160.958 91.1407 159.863 93.1258C158.045 98.0068 156.109 102.853 154.385 107.766C153.47 110.366 152.816 114.212 151.388 116.475C157.649 119.193 160.766 119.843 167.486 118.207L167.764 118.559C167.767 118.663 167.77 118.768 167.773 118.872C167.796 120.638 166.433 122.119 166.631 123.676L166.608 123.402C167.148 122.582 167.899 121.428 168.886 121.111C169.095 121.044 169.433 121.035 169.643 121.02L172.207 120.492C171.404 119.015 170.75 117.664 170.262 116.046L171.604 112.414C171.685 111.217 171.969 110.32 172.577 109.29Z" fill="#F4F4F3"/>
<path d="M168.146 107.444C167.745 108.878 167.349 110.216 166.684 111.557L165.924 111.876L166.265 112.502C165.995 113.182 165.769 113.485 165.06 113.775C163.968 114.225 162.568 114.123 161.409 114.095C162.757 114.429 164.92 114.613 166.273 114.319C167.163 114.126 167.808 113.711 168.298 112.926C169.331 111.264 168.565 109.177 168.146 107.444Z" fill="#4D6EB5"/>
<path d="M161.971 98.103C161.607 99.6171 161.286 99.8984 159.949 100.712C159.055 101.256 157.721 101.814 157.471 102.933C157.248 103.947 157.836 105.025 158.306 105.881C159.838 104.467 162.427 102.674 162.863 100.542C163.055 99.59 162.462 98.8668 161.971 98.103Z" fill="#4C88DB"/>
<path d="M169.966 98.8495L170.152 98.3213C170.517 97.3037 170.778 96.5354 170.568 95.4446C170.405 94.5977 170.098 93.7199 169.275 93.3003C168.529 92.9221 167.677 93.0402 166.92 93.2969C164.735 94.0369 162.974 96.1092 161.97 98.1029C162.46 98.8667 163.054 99.5899 162.862 100.542C162.426 102.673 159.836 104.467 158.305 105.881C157.143 107.453 154.972 109.701 155.029 111.697C155.204 111.908 155.356 112.155 155.6 112.287C157.444 113.399 159.234 114.062 161.408 114.095C162.566 114.123 163.966 114.225 165.059 113.775C165.767 113.484 165.994 113.182 166.263 112.502L165.922 111.876L166.682 111.557C167.347 110.215 167.743 108.877 168.145 107.444L169.828 107.627C170.396 107.195 170.812 106.692 171.282 106.16C171.328 104.904 171.621 103.628 171.83 102.389L169.966 98.8495Z" fill="#3873D0"/>
<path d="M168.148 103.56L167.799 103.765C167.655 104.987 168.306 106.17 168.94 107.172L169.829 107.627C170.397 107.195 170.813 106.691 171.283 106.16C170.621 105.063 169.026 104.752 168.148 103.56Z" fill="#305CA5"/>
<path d="M169.966 98.8496C169.134 99.2475 168.652 99.5356 168.079 100.263C167.755 101.475 168.053 102.348 168.148 103.56C169.025 104.752 170.62 105.063 171.282 106.16C171.328 104.905 171.621 103.629 171.83 102.389L169.966 98.8496Z" fill="#4C88DB"/>
<path d="M165.922 111.876C164.876 110.659 163.946 109.182 162.57 108.346C161.041 108.288 157.878 111.297 155.844 112.154C155.758 112.189 155.681 112.243 155.6 112.287C157.445 113.399 159.234 114.062 161.408 114.095C162.567 114.123 163.966 114.225 165.059 113.775C165.768 113.485 165.994 113.182 166.264 112.502L165.922 111.876Z" fill="#2B519B"/>
<path d="M50.4609 139.135C49.0585 135.125 46.8128 129.442 42.6858 127.473C41.2718 126.797 39.7002 126.725 38.2346 127.295C33.0321 129.318 22.4089 148.847 20.1461 154.506C19.9396 155.019 20.0084 154.82 19.8736 155.282L20.1059 155.792C20.4501 154.982 20.4329 154.982 21.2158 154.583L21.5113 154.87L21.7464 154.789L21.3421 154.808C21.1212 155.55 21.0696 155.669 21.2761 156.405C21.4683 155.898 21.5916 155.156 22.0591 154.876C22.2082 157.052 21.9701 159.236 22.452 161.369C22.5896 161.982 22.7101 162.6 22.842 163.214C24.4108 162.445 26.8687 160.825 28.5838 160.994C30.273 160.443 31.8849 159.404 33.4967 158.647C35.6247 157.65 37.8044 157.093 40.0845 156.556C33.6229 156.221 28.2339 156.88 22.7445 160.475C23.5476 159.586 24.3506 158.7 25.3314 158.001C31.4317 153.654 40.8187 155.236 47.6933 156.297C42.3875 152.406 38.1744 151.66 31.7242 151.409C32.3638 151.238 33.0034 151.081 33.6573 150.951C38.9516 149.902 42.4707 151.19 46.81 154.123C45.6513 150.063 43.7957 146.304 42.9066 142.146C44.0768 144.016 45.0863 146.003 46.1389 147.942C46.2106 147.911 46.2851 147.885 46.354 147.848C49.2879 146.254 49.4514 142.221 50.372 139.406L50.4609 139.135Z" fill="#F4F4F3"/>
<path d="M68.0972 67.2168C64.994 66.1326 61.5151 65.4123 58.4005 66.8847C57.041 67.5269 56.0401 68.5394 55.085 69.6733C53.8288 71.5201 52.8279 74.2393 53.3671 76.5026C53.4503 76.8493 53.565 77.1254 53.7772 77.4041C55.5497 78.454 63.9357 90.0127 65.9691 92.6175C66.6001 93.4236 67.4117 94.9117 68.1517 95.5402C68.6651 95.9781 69.4079 96.1751 70.0417 96.3923C69.8811 96.6093 69.7176 96.8251 69.5398 97.0277C70.0876 99.163 72.2644 99.7761 73.3944 101.621C72.643 99.6049 70.9738 97.7375 70.6698 95.5814C69.0911 93.6563 67.804 91.5109 66.8496 89.2138C63.3248 85.8452 62.5562 80.9033 60.0524 77.0111C59.2322 77.1706 58.9024 77.3366 58.1137 77.0173C57.9731 76.3128 58.0047 75.9383 58.3976 75.308C59.2522 73.9417 61.2283 73.2394 62.734 73.0076C64.6584 72.7118 66.8611 73.2071 68.7482 73.6144C67.0934 74.2293 65.4615 74.7484 63.7522 75.1886C65.82 78.7149 68.3381 82.0847 71.3897 84.8239L72.5627 84.2073L72.9298 84.488C77.315 87.8246 88.4744 95.5382 93.9494 94.8577L97.8585 95.3507C99.3331 95.2692 100.806 95.1553 102.275 95.0091C101.618 94.6793 101.131 94.4635 100.397 94.3654C99.8862 94.2974 99.7744 94.286 99.2954 94.0319L100.483 93.0683C105.548 90.9334 111.76 91.8641 116.727 89.5845L116.839 89.1855C117.783 88.47 118.534 87.8409 119.254 86.8971L116.406 85.407C115.253 84.4929 114.269 83.6702 113.429 82.4417C112.219 80.1447 110.862 78.5426 108.932 76.8267C107.208 75.1105 105.513 74.5065 103.207 73.984C101.945 74.0186 100.511 73.9177 99.2782 74.1418C96.6511 74.6992 94.7181 75.9543 92.2745 76.8776L91.8587 77.2457L89.5298 78.2748L86.3521 79.1943C85.6093 79.2543 84.8665 79.3075 84.1208 79.2949C79.8933 79.2237 77.3953 76.2827 74.6535 73.5141C72.9614 71.1328 70.6669 68.6597 68.0972 67.2168Z" fill="#FBA52C"/>
<path d="M91.8601 77.2456L89.5313 78.2746C89.712 78.8557 89.8841 79.0584 90.3487 79.4508C91.2206 79.0824 92.3161 78.7505 92.9844 78.0794L91.8601 77.2456Z" fill="#F1B44D"/>
<path d="M108.781 79.2065C108.497 80.2661 108.357 81.4015 108.953 82.3908C109.163 82.7364 109.386 83.0165 109.799 83.1368C109.963 83.1848 110.138 83.1817 110.307 83.2043L110.508 82.9056C110.155 81.5724 109.504 80.3705 108.781 79.2065Z" fill="#682800"/>
<path d="M89.5303 78.2749L86.3525 79.1944L86.4816 80.1691C87.9299 80.254 89.0915 80.2432 90.3477 79.4511C89.883 79.0587 89.711 78.856 89.5303 78.2749Z" fill="#F7B45E"/>
<path d="M100.483 93.0684C98.7133 93.4125 95.2258 93.6366 93.9495 94.8577L97.8586 95.3508C99.3332 95.2692 100.806 95.1553 102.275 95.0092C101.619 94.6793 101.131 94.4635 100.397 94.3655C99.8864 94.2975 99.7745 94.286 99.2955 94.0319L100.483 93.0684Z" fill="#F9D289"/>
<path d="M102.864 77.9351L101.708 78.1969C101.349 78.539 101.051 78.7002 100.925 79.2007C100.621 80.3938 101.22 81.402 101.8 82.4024C102.726 82.3776 102.978 82.4879 103.713 81.8905C104.177 80.4327 103.457 79.2468 102.864 77.9351Z" fill="#370E12"/>
<path d="M113.429 82.4416C112.164 82.3147 111.64 82.3298 110.507 82.9055L110.306 83.2042C111.284 84.2506 114.037 86.0071 115.463 86.0934C115.655 86.1052 115.847 86.0751 116.042 86.0657L116.406 85.4068C115.253 84.4927 114.27 83.6701 113.429 82.4416Z" fill="#F5C47C"/>
<path d="M99.2787 74.1416C96.6516 74.699 94.7186 75.9541 92.275 76.8774L91.8592 77.2455L92.9834 78.0793C95.0971 76.9617 97.4977 76.2351 99.752 75.4399C99.729 74.6976 99.7749 74.6844 99.2787 74.1416Z" fill="#F9DB93"/>
<path d="M108.933 76.8267C108.508 77.1991 108.167 77.4981 107.668 77.7702C107.96 78.2041 108.322 78.9827 108.781 79.2066C109.503 80.3705 110.154 81.5724 110.507 82.9056C111.64 82.3299 112.165 82.3148 113.43 82.4417C112.219 80.1447 110.863 78.5425 108.933 76.8267Z" fill="#F1B44D"/>
<path d="M103.209 73.9839C101.947 74.0185 100.513 73.9176 99.2799 74.1417C99.7761 74.6845 99.7302 74.6976 99.7531 75.44C102.486 76.0245 105.466 75.8678 107.669 77.7701C108.168 77.498 108.509 77.199 108.934 76.8266C107.21 75.1104 105.515 74.5064 103.209 73.9839Z" fill="#F7C555"/>
<path d="M74.6543 73.5141C72.9622 71.1328 70.6677 68.6597 68.098 67.2168C67.4957 67.9934 66.7845 68.7463 66.5665 69.7242C68.2844 69.6659 69.0531 69.8248 70.3006 71.0253C71.6457 72.3207 72.704 73.8542 74.0807 75.1379C74.095 74.239 74.0979 74.219 74.6543 73.5141Z" fill="#F7B45E"/>
<path d="M74.6548 73.5142C74.0984 74.219 74.0955 74.239 74.0811 75.138C76.4817 77.5451 79.1174 80.9582 82.8315 80.954C84.0991 80.9522 85.2922 80.5738 86.4824 80.169L86.3533 79.1943C85.6105 79.2544 84.8677 79.3075 84.1221 79.295C79.8946 79.2238 77.3966 76.2828 74.6548 73.5142Z" fill="#F9DB93"/>
<path d="M68.0977 67.2168C64.9945 66.1326 61.5156 65.4123 58.4009 66.8847C57.0415 67.5269 56.0405 68.5394 55.0855 69.6733C57.0357 70.5411 64.1886 69.7662 66.5661 69.7242C66.7841 68.7463 67.4954 67.9934 68.0977 67.2168Z" fill="#F9DB93"/>
<path d="M105.959 12.0835C103.512 12.5358 101.952 14.1883 99.7753 15.1934C97.9942 16.0162 95.9264 16.4545 94.0192 16.891C91.9485 17.3647 89.8032 17.9274 87.6952 18.1741C81.6552 18.8802 76.7107 18.6239 70.4642 20.1882C70.0196 19.864 69.8935 19.7631 69.6153 19.2666L70.5675 18.3023C68.3534 18.8979 66.2081 19.6771 64.0513 20.4391C64.2005 21.6005 64.0714 21.6214 63.4691 22.5646C59.3134 24.6147 52.7657 28.356 51.1051 32.8765C54.9396 31.8338 58.3526 29.393 62.2015 28.1988L63.8506 27.6757C59.5772 33.7443 57.7188 40.561 58.7312 47.9925C61.2063 46.2138 65.2588 42.2175 68.0522 41.5706C68.0895 42.6834 67.2492 43.5729 66.9193 44.6231C65.9987 47.5572 66.535 51.7239 67.1373 54.7092C70.665 50.5894 76.1486 44.6619 81.899 44.14C84.9936 43.859 87.8759 45.2733 90.1617 47.2531C94.2888 50.826 96.3566 56.4188 96.6262 61.7665C96.6836 62.9001 96.6663 64.0429 96.6491 65.1777C96.4541 65.9346 96.4656 66.7052 95.8031 67.1517L95.4388 66.9845C95.1377 69.2946 95.3098 71.6196 95.0746 73.9269C94.0479 74.7367 93.0412 75.5405 91.9341 76.2445L92.2754 76.8776C94.719 75.9544 96.652 74.6992 99.2791 74.1419C100.512 73.9178 101.946 74.0187 103.208 73.9841C103.604 73.3907 104.112 73.1414 104.714 72.795L104.986 72.6409L105.084 72.0384C105.514 70.2582 105.901 68.4282 106.515 66.7009C107.479 63.9855 108.976 61.1677 109.466 58.3462C109.157 57.729 109.099 57.4692 109.168 56.7735C109.383 54.5362 112.088 52.4199 113.826 51.2408C115.764 50.9678 117.012 50.9558 118.853 51.7021C118.489 48.8386 117.973 45.9931 117.026 43.2599C107.619 41.9107 102.101 37.7126 95.0201 31.7175C98.4589 32.8271 101.714 34.2983 105.253 35.135C114.316 37.2785 123.032 36.6871 131.025 31.7595C122.149 33.3836 113.218 32.5721 104.568 30.1948C105.973 30.0499 107.373 29.9021 108.766 29.674C118.532 28.0779 126.706 22.7865 132.465 14.7802C130.81 15.3545 128.886 15.8509 127.386 16.748C118.698 19.8283 109.739 21.1254 100.538 21.1963C99.4627 21.2126 98.4417 21.3018 97.4206 20.9151C97.5009 20.3371 99.2447 19.4516 99.8384 19.0285C102.606 17.0593 104.398 15.1201 105.959 12.0835Z" fill="#303F70"/>
<path d="M70.5684 18.3022C68.3543 18.8978 66.209 19.677 64.0522 20.4391C64.2014 21.6004 64.0723 21.6213 63.47 22.5646C65.9308 22.0781 68.1592 21.1471 70.4651 20.1881C70.0205 19.864 69.8944 19.7631 69.6162 19.2666L70.5684 18.3022Z" fill="#A2AAD9"/>
<path d="M86.8516 38.6854C83.6997 38.6365 81.7523 39.9308 79.2973 41.701C82.4464 40.6286 85.3861 40.2398 88.7015 40.3744C91.1881 41.1645 93.2645 42.4385 95.4844 43.7762C92.9892 40.8546 90.7005 39.3003 86.8516 38.6854Z" fill="#020210"/>
<path d="M96.6492 65.1777C96.4541 65.9346 96.4656 66.7053 95.8031 67.1517L95.4389 66.9845C95.1377 69.2947 95.3098 71.6197 95.0746 73.927C94.0479 74.7367 93.0412 75.5405 91.9342 76.2445L92.2754 76.8777C94.719 75.9544 96.652 74.6993 99.2791 74.1419C100.512 73.9178 101.946 74.0187 103.208 73.9841C103.604 73.3907 104.112 73.1415 104.714 72.795L104.986 72.641L105.084 72.0384C103.65 73.2312 98.2667 72.6293 96.2993 72.6441C96.4455 70.1562 96.6033 67.67 96.6492 65.1777Z" fill="#27283B"/>
<path d="M127.384 16.748C118.697 19.8283 109.738 21.1255 100.537 21.1963L100.204 21.2778C99.2234 21.5062 98.7444 21.6537 97.9987 22.3486L98.0188 22.8596C98.8677 23.3859 99.8429 23.3982 100.815 23.3681C108.891 23.1189 114.395 21.4962 121.998 19.2884C123.601 18.8233 126.578 18.2597 127.729 17.0351L127.384 16.748Z" fill="#A2AAD9"/>
<path d="M89.5473 209.77C83.2061 211.312 76.9051 211.991 70.3833 211.791C69.6146 213.071 68.7542 214.317 67.6558 215.343C65.1864 217.65 62.4475 217.933 59.2238 217.858C58.5498 219.796 58.0508 221.707 57.6837 223.724C59.7773 224.322 62.5134 224.842 63.9474 226.615C65.5076 228.542 64.8078 231.745 64.4866 233.986C64.1883 236.055 64.9197 237.711 64.8251 239.666C64.7849 240.531 64.1855 240.846 63.5975 241.414C63.3079 244.557 64.8193 250.189 65.1979 253.631C71.7541 253.274 78.2703 253.463 84.8323 253.554C92.117 253.655 99.3846 253.685 106.666 253.901C115.104 254.151 123.9 254.003 132.263 255.154C132.728 255.218 132.524 255.202 133.023 255.187C131.736 252.938 132.235 251.301 131.38 249.896C130.391 248.274 125.461 242.314 124.009 241.285C121.153 239.255 117.083 237.717 115.007 234.796C114.249 233.728 113.874 232.453 114.195 231.158C114.849 228.525 117.837 225.924 120.126 224.654C120.06 224.611 119.997 224.567 119.931 224.524C119.332 224.132 118.483 223.7 118.087 223.09C117.43 222.074 117.975 220.541 118.227 219.458C114.926 217.291 111.284 215.73 107.868 213.755C106.185 215.343 104.384 216.705 102.465 217.995C98.094 216.395 92.834 213.083 89.5473 209.77Z" fill="#F4F4F3"/>
<path d="M39.9884 92.1247C35.5086 91.8331 28.1464 91.533 24.5786 94.8827C23.7211 95.6857 23.1561 96.7984 23.1905 97.9858C23.222 99.1303 23.6809 100.268 24.1513 101.295C25.4677 103.182 27.3376 105.597 29.4915 106.548C29.8672 106.774 30.2802 106.985 30.633 107.247C31.6884 107.609 32.7811 107.868 33.8337 108.233C34.5679 108.556 35.2017 108.684 35.5688 109.482C35.7839 109.95 35.8269 110.678 35.9101 111.193C36.2084 111.414 36.5009 111.679 36.8393 111.831C36.151 112.235 35.8757 112.504 35.4713 113.192L35.6176 113.759C38.0496 115.112 42.1079 115.091 44.8784 115.495C48.8104 116.069 58.4584 117.814 61.7394 119.363C62.4995 119.722 63.2767 120.37 63.7327 121.077C67.4767 122.061 71.1786 123.198 74.829 124.484C80.5048 126.661 84.2906 127.64 87.7896 132.956C86.5764 132.332 85.3116 131.57 84.0554 131.045C83.9722 131.05 83.8891 131.057 83.8059 131.062C82.5181 131.131 81.1329 130.479 79.9542 130.913C79.5555 131.38 79.3289 131.85 79.0679 132.402C79.3232 133.176 79.458 133.985 79.61 134.784C80.4274 139.078 80.3241 143.335 80.9522 147.599C81.1931 149.215 82.2973 150.571 82.4264 152.222C81.1243 153.612 81.7639 156.07 80.7802 157.79C80.3385 158.559 79.8738 158.812 79.0392 159.021C78.5287 158.905 78.1416 158.802 77.6999 158.512C76.6101 157.8 76.2831 157.279 76.134 155.995C75.7812 152.946 76.6846 149.802 76.8711 146.753C77.1951 141.409 76.4007 135.547 75.3969 130.283C71.8291 129.719 65.2671 125.968 62.0033 127.522C65.1409 135.134 65.703 140.639 65.3158 148.761C65.3732 152.374 64.8053 166.652 66.2135 168.615C66.6495 167.807 66.9449 167.124 67.8655 166.782C68.6198 166.501 69.4142 166.492 70.1398 166.876C71.0089 167.338 71.3415 168.015 71.6341 168.907C72.4572 173.08 70.4754 177.434 68.8578 181.183C69.136 181.981 69.6781 182.719 70.2689 183.317C74.2755 187.364 80.7027 187.941 86.0917 187.952C92.6566 187.964 101.424 187.02 106.248 182.033C109.931 178.227 111.324 172.241 111.304 167.107C111.135 165.796 111.451 165.097 112.016 163.931C108.178 154.951 104.608 143.661 102.494 134.083C101.931 132.379 101.351 130.68 100.756 128.987C100.429 128.175 100.202 127.111 99.471 126.636C98.7396 126.947 96.2187 128.546 96.0208 129.327C95.8315 130.068 98.9031 142.994 99.1641 144.953C99.5255 147.683 98.883 150.687 99.5799 153.31C99.7864 154.082 98.8113 159.592 98.3467 160.276C98.0398 160.727 97.8047 160.931 97.3487 161.204C96.6001 161.177 96.3133 161.046 95.7942 160.486C95.0514 159.683 94.9567 158.806 95.0628 157.766C95.1489 156.923 95.3783 156.091 95.1517 155.257L94.1824 154.438C94.3745 153.517 94.7646 153.863 95.1833 153.23C95.8917 152.157 93.1613 133.168 92.7655 130.529C91.5897 130.888 90.4281 131.265 89.2149 131.487L88.3545 130.123L87.8985 129.473C86.4158 127.294 83.8288 125.623 81.7696 123.997C71.3702 115.791 60.2079 108.775 47.8841 103.782C44.3335 102.343 31.1206 98.885 29.5833 97.2552C29.0298 96.6675 29.0212 96.4434 28.9753 95.6888C29.4686 94.7201 29.784 94.6086 30.6846 94.0429C33.7735 92.9802 36.7218 92.9974 39.9253 92.6481L39.9884 92.1247Z" fill="#F4F4F3"/>
<path d="M34.8455 106.766C34.9688 107.033 35.2613 107.361 35.4392 107.602C34.943 107.772 33.7413 107.137 33.1935 106.923C31.9144 106.424 30.836 106.496 29.4909 106.548C29.8666 106.774 30.2796 106.985 30.6324 107.247C31.6878 107.609 32.7805 107.868 33.8331 108.233C34.5673 108.557 35.2011 108.684 35.5682 109.482C35.7833 109.95 35.8263 110.679 35.9095 111.193C35.9898 111.155 36.0673 111.108 36.1533 111.078C37.0711 110.754 37.7709 110.458 38.6198 109.963C39.6236 109.375 40.4553 109.614 41.5566 109.772C39.4601 108.501 37.137 107.615 34.8455 106.766Z" fill="#A3A7C2"/>
<path d="M34.8458 106.766C33.2426 105.488 27.6586 101.941 25.8546 101.358C25.2896 101.175 24.7303 101.241 24.151 101.295C25.4674 103.182 27.3373 105.597 29.4912 106.548C30.8363 106.496 31.9147 106.424 33.1938 106.923C33.7416 107.137 34.9433 107.772 35.4395 107.602C35.2616 107.361 34.9691 107.033 34.8458 106.766Z" fill="#AEC0CF"/>
<path d="M41.5585 109.772C40.4571 109.614 39.6254 109.375 38.6216 109.962C37.7727 110.458 37.0729 110.754 36.1551 111.078C36.0691 111.108 35.9916 111.155 35.9113 111.193C36.2096 111.414 36.5021 111.679 36.8406 111.831C39.829 111.87 42.6856 112.009 45.6081 112.685C48.7457 113.412 65.4404 119.146 66.3008 119.061C64.9672 117.272 45.2324 110.755 41.5585 109.772Z" fill="#7D8AA1"/>
<path d="M66.3001 119.061C65.4397 119.146 48.745 113.412 45.6074 112.685C42.6849 112.008 39.8283 111.87 36.8398 111.831C36.1515 112.235 35.8762 112.504 35.4718 113.192L35.6181 113.759C38.0501 115.112 42.1084 115.091 44.8789 115.495C48.8109 116.069 58.4589 117.814 61.7399 119.363C62.4999 119.722 63.2772 120.37 63.7332 121.077C67.4772 122.061 71.1791 123.198 74.8295 124.484C75.4978 124.399 76.1316 124.369 76.8056 124.361L76.8457 124.112C75.7587 123.687 74.7979 122.962 73.7626 122.425C71.3965 121.199 68.8325 119.901 66.3001 119.061Z" fill="url(#paint6_linear_551_68139)"/>
<defs>
<linearGradient id="paint0_linear_551_68139" x1="130.13" y1="241.612" x2="137.996" y2="228.903" gradientUnits="userSpaceOnUse">
<stop stop-color="#C2C5C8"/>
<stop offset="1" stop-color="white"/>
</linearGradient>
<linearGradient id="paint1_linear_551_68139" x1="65.2581" y1="121.075" x2="70.3696" y2="131.675" gradientUnits="userSpaceOnUse">
<stop stop-color="#91A9BC"/>
<stop offset="1" stop-color="#A8C5CF"/>
</linearGradient>
<linearGradient id="paint2_linear_551_68139" x1="157.993" y1="107.47" x2="150.188" y2="101.099" gradientUnits="userSpaceOnUse">
<stop stop-color="#BDC2DC"/>
<stop offset="1" stop-color="#D8DDE1"/>
</linearGradient>
<linearGradient id="paint3_linear_551_68139" x1="176.342" y1="78.6308" x2="174.504" y2="84.9414" gradientUnits="userSpaceOnUse">
<stop stop-color="#7F8EA8"/>
<stop offset="1" stop-color="#ABB4D2"/>
</linearGradient>
<linearGradient id="paint4_linear_551_68139" x1="57.0417" y1="256.099" x2="45.8905" y2="251.445" gradientUnits="userSpaceOnUse">
<stop stop-color="#C3CBD7"/>
<stop offset="1" stop-color="white"/>
</linearGradient>
<linearGradient id="paint5_linear_551_68139" x1="54.1847" y1="265.941" x2="52.5746" y2="258.89" gradientUnits="userSpaceOnUse">
<stop stop-color="#AAB8C5"/>
<stop offset="1" stop-color="#C8D7DD"/>
</linearGradient>
<linearGradient id="paint6_linear_551_68139" x1="54.4867" y1="123.54" x2="53.8885" y2="111.519" gradientUnits="userSpaceOnUse">
<stop stop-color="#D7DBD5"/>
<stop offset="1" stop-color="#F7F8FF"/>
</linearGradient>
</defs>
</svg>
