<svg width="264" height="176" viewBox="0 0 264 176" fill="none" xmlns="http://www.w3.org/2000/svg">
<path d="M29.6352 148.496H31.8694C41.2769 148.496 49.3515 147.355 56.0935 145.073C62.9139 142.712 68.5191 139.328 72.9093 134.922C77.2994 130.515 80.5528 125.124 82.6694 118.75C84.7861 112.297 85.8444 104.978 85.8444 96.7941V64.2146C85.8444 57.9978 85.2173 52.5285 83.963 47.8068C82.787 43.0852 81.0623 39.1898 78.7889 36.1207C76.5938 32.9729 74.0068 30.6121 71.0278 29.0382C68.1272 27.4643 64.913 26.6774 61.3852 26.6774C57.6222 26.6774 54.2904 27.6217 51.3898 29.5104C48.4892 31.3204 46.0198 33.7992 43.9815 36.947C42.0216 40.0948 40.4929 43.7147 39.3954 47.8068C38.3762 51.8203 37.8667 56.0304 37.8667 60.4373C37.8667 64.8442 38.3762 69.0543 39.3954 73.0677C40.4145 77.0025 41.9432 80.5044 43.9815 83.5734C46.0198 86.5638 48.5676 88.964 51.625 90.774C54.6824 92.5052 58.2886 93.3709 62.4435 93.3709C66.4417 93.3709 70.0086 92.6233 73.1444 91.1281C76.3586 89.5542 79.0633 87.5082 81.2583 84.9899C83.5318 82.4717 85.2565 79.6781 86.4324 76.609C87.6867 73.5399 88.3139 70.4315 88.3139 67.2837L99.4852 73.4219C99.4852 78.9305 98.3093 84.3604 95.9574 89.7116C93.6056 95.0628 90.313 99.9419 86.0796 104.349C81.9247 108.677 77.1034 112.14 71.6157 114.736C66.1281 117.333 60.2485 118.632 53.9768 118.632C45.9806 118.632 38.8858 117.176 32.6926 114.264C26.4994 111.274 21.2469 107.182 16.9352 101.988C12.7019 96.7154 9.48765 90.5772 7.29259 83.5734C5.09753 76.5696 4 68.9756 4 60.7914C4 52.4498 5.33272 44.6197 7.99815 37.3011C10.742 29.9826 14.6225 23.5296 19.6398 17.9423C24.7355 12.355 30.8111 7.98748 37.8667 4.8397C45.0006 1.61323 52.9185 0 61.6204 0C70.3222 0 78.2401 1.69193 85.3741 5.07579C92.508 8.45965 98.6228 13.26 103.719 19.4769C108.814 25.615 112.734 32.9729 115.478 41.5506C118.3 50.1283 119.711 59.6503 119.711 70.1167V81.9209C119.711 93.0955 118.496 103.483 116.066 113.084C113.714 122.685 110.147 131.38 105.365 139.171C100.661 146.883 94.7815 153.493 87.7259 159.002C80.7488 164.511 72.6349 168.721 63.3843 171.632C54.1336 174.544 43.7855 176 32.3398 176H29.6352V148.496Z" fill="#FF7901"/>
<path d="M167.924 148.496H170.158C179.566 148.496 187.64 147.355 194.382 145.073C201.203 142.712 206.808 139.328 211.198 134.922C215.588 130.515 218.842 125.124 220.958 118.75C223.075 112.297 224.133 104.978 224.133 96.7941V64.2146C224.133 57.9978 223.506 52.5285 222.252 47.8068C221.076 43.0852 219.351 39.1898 217.078 36.1207C214.883 32.9729 212.296 30.6121 209.317 29.0382C206.416 27.4643 203.202 26.6774 199.674 26.6774C195.911 26.6774 192.579 27.6217 189.679 29.5104C186.778 31.3204 184.309 33.7992 182.27 36.947C180.31 40.0948 178.782 43.7147 177.684 47.8068C176.665 51.8203 176.156 56.0304 176.156 60.4373C176.156 64.8442 176.665 69.0543 177.684 73.0677C178.703 77.0025 180.232 80.5044 182.27 83.5734C184.309 86.5638 186.856 88.964 189.914 90.774C192.971 92.5052 196.577 93.3709 200.732 93.3709C204.731 93.3709 208.298 92.6233 211.433 91.1281C214.648 89.5542 217.352 87.5082 219.547 84.9899C221.821 82.4717 223.545 79.6781 224.721 76.609C225.976 73.5399 226.603 70.4315 226.603 67.2837L237.774 73.4219C237.774 78.9305 236.598 84.3604 234.246 89.7116C231.894 95.0628 228.602 99.9419 224.369 104.349C220.214 108.677 215.392 112.14 209.905 114.736C204.417 117.333 198.537 118.632 192.266 118.632C184.269 118.632 177.175 117.176 170.981 114.264C164.788 111.274 159.536 107.182 155.224 101.988C150.991 96.7154 147.777 90.5772 145.581 83.5734C143.386 76.5696 142.289 68.9756 142.289 60.7914C142.289 52.4498 143.622 44.6197 146.287 37.3011C149.031 29.9826 152.911 23.5296 157.929 17.9423C163.024 12.355 169.1 7.98748 176.156 4.8397C183.29 1.61323 191.207 0 199.909 0C208.611 0 216.529 1.69193 223.663 5.07579C230.797 8.45965 236.912 13.26 242.007 19.4769C247.103 25.615 251.023 32.9729 253.767 41.5506C256.589 50.1283 258 59.6503 258 70.1167V81.9209C258 93.0955 256.785 103.483 254.355 113.084C252.003 122.685 248.436 131.38 243.654 139.171C238.95 146.883 233.07 153.493 226.015 159.002C219.038 164.511 210.924 168.721 201.673 171.632C192.423 174.544 182.074 176 170.629 176H167.924V148.496Z" fill="#FF7901"/>
<rect width="264" height="34" transform="translate(0 71)" fill="white"/>
<path d="M30.7402 91.2793C30.7402 91.0254 30.7012 90.7975 30.623 90.5957C30.5514 90.3874 30.4147 90.1986 30.2129 90.0293C30.0111 89.8535 29.7279 89.681 29.3633 89.5117C28.9987 89.3424 28.5267 89.1667 27.9473 88.9844C27.3027 88.776 26.6908 88.5417 26.1113 88.2812C25.5384 88.0208 25.0306 87.7181 24.5879 87.373C24.1517 87.0215 23.8066 86.6146 23.5527 86.1523C23.3053 85.6901 23.1816 85.153 23.1816 84.541C23.1816 83.9486 23.3118 83.4115 23.5723 82.9297C23.8327 82.4414 24.1973 82.0247 24.666 81.6797C25.1348 81.3281 25.6882 81.0579 26.3262 80.8691C26.9707 80.6803 27.6771 80.5859 28.4453 80.5859C29.4935 80.5859 30.4082 80.7747 31.1895 81.1523C31.9707 81.5299 32.5762 82.0475 33.0059 82.7051C33.4421 83.3626 33.6602 84.1146 33.6602 84.9609H30.75C30.75 84.5443 30.6621 84.1797 30.4863 83.8672C30.3171 83.5482 30.0566 83.2975 29.7051 83.1152C29.36 82.9329 28.9238 82.8418 28.3965 82.8418C27.8887 82.8418 27.4655 82.9199 27.127 83.0762C26.7884 83.2259 26.5345 83.431 26.3652 83.6914C26.196 83.9453 26.1113 84.2318 26.1113 84.5508C26.1113 84.7917 26.1699 85.0098 26.2871 85.2051C26.4108 85.4004 26.5931 85.5827 26.834 85.752C27.0749 85.9212 27.3711 86.0807 27.7227 86.2305C28.0742 86.3802 28.4811 86.5267 28.9434 86.6699C29.7181 86.9043 30.3984 87.168 30.9844 87.4609C31.5768 87.7539 32.0716 88.0827 32.4688 88.4473C32.8659 88.8118 33.1654 89.2253 33.3672 89.6875C33.569 90.1497 33.6699 90.6738 33.6699 91.2598C33.6699 91.8783 33.5495 92.4316 33.3086 92.9199C33.0677 93.4082 32.7194 93.8216 32.2637 94.1602C31.8079 94.4987 31.2643 94.7559 30.6328 94.9316C30.0013 95.1074 29.2949 95.1953 28.5137 95.1953C27.8105 95.1953 27.1172 95.1042 26.4336 94.9219C25.75 94.7331 25.1283 94.4499 24.5684 94.0723C24.015 93.6947 23.5723 93.2129 23.2402 92.627C22.9082 92.041 22.7422 91.3477 22.7422 90.5469H25.6816C25.6816 90.9896 25.75 91.3639 25.8867 91.6699C26.0234 91.9759 26.2155 92.2233 26.4629 92.4121C26.7168 92.6009 27.0163 92.7376 27.3613 92.8223C27.7129 92.9069 28.097 92.9492 28.5137 92.9492C29.0215 92.9492 29.4382 92.8776 29.7637 92.7344C30.0957 92.5911 30.3398 92.3926 30.4961 92.1387C30.6589 91.8848 30.7402 91.5983 30.7402 91.2793ZM43.5137 80.7812H46.4336V90.1758C46.4336 91.2695 46.1992 92.1908 45.7305 92.9395C45.2682 93.6882 44.627 94.2513 43.8066 94.6289C42.9928 95.0065 42.0553 95.1953 40.9941 95.1953C39.9329 95.1953 38.9889 95.0065 38.1621 94.6289C37.3418 94.2513 36.6973 93.6882 36.2285 92.9395C35.7663 92.1908 35.5352 91.2695 35.5352 90.1758V80.7812H38.4648V90.1758C38.4648 90.8138 38.5658 91.3346 38.7676 91.7383C38.9694 92.1419 39.2591 92.4382 39.6367 92.627C40.0208 92.8158 40.4733 92.9102 40.9941 92.9102C41.528 92.9102 41.9805 92.8158 42.3516 92.627C42.7292 92.4382 43.0156 92.1419 43.2109 91.7383C43.4128 91.3346 43.5137 90.8138 43.5137 90.1758V80.7812ZM56.248 91.2793C56.248 91.0254 56.209 90.7975 56.1309 90.5957C56.0592 90.3874 55.9225 90.1986 55.7207 90.0293C55.5189 89.8535 55.2357 89.681 54.8711 89.5117C54.5065 89.3424 54.0345 89.1667 53.4551 88.9844C52.8105 88.776 52.1986 88.5417 51.6191 88.2812C51.0462 88.0208 50.5384 87.7181 50.0957 87.373C49.6595 87.0215 49.3145 86.6146 49.0605 86.1523C48.8132 85.6901 48.6895 85.153 48.6895 84.541C48.6895 83.9486 48.8197 83.4115 49.0801 82.9297C49.3405 82.4414 49.7051 82.0247 50.1738 81.6797C50.6426 81.3281 51.196 81.0579 51.834 80.8691C52.4785 80.6803 53.1849 80.5859 53.9531 80.5859C55.0013 80.5859 55.916 80.7747 56.6973 81.1523C57.4785 81.5299 58.084 82.0475 58.5137 82.7051C58.9499 83.3626 59.168 84.1146 59.168 84.9609H56.2578C56.2578 84.5443 56.1699 84.1797 55.9941 83.8672C55.8249 83.5482 55.5645 83.2975 55.2129 83.1152C54.8678 82.9329 54.4316 82.8418 53.9043 82.8418C53.3965 82.8418 52.9733 82.9199 52.6348 83.0762C52.2962 83.2259 52.0423 83.431 51.873 83.6914C51.7038 83.9453 51.6191 84.2318 51.6191 84.5508C51.6191 84.7917 51.6777 85.0098 51.7949 85.2051C51.9186 85.4004 52.1009 85.5827 52.3418 85.752C52.5827 85.9212 52.8789 86.0807 53.2305 86.2305C53.582 86.3802 53.9889 86.5267 54.4512 86.6699C55.2259 86.9043 55.9062 87.168 56.4922 87.4609C57.0846 87.7539 57.5794 88.0827 57.9766 88.4473C58.3737 88.8118 58.6732 89.2253 58.875 89.6875C59.0768 90.1497 59.1777 90.6738 59.1777 91.2598C59.1777 91.8783 59.0573 92.4316 58.8164 92.9199C58.5755 93.4082 58.2272 93.8216 57.7715 94.1602C57.3158 94.4987 56.7721 94.7559 56.1406 94.9316C55.5091 95.1074 54.8027 95.1953 54.0215 95.1953C53.3184 95.1953 52.625 95.1042 51.9414 94.9219C51.2578 94.7331 50.6361 94.4499 50.0762 94.0723C49.5228 93.6947 49.0801 93.2129 48.748 92.627C48.416 92.041 48.25 91.3477 48.25 90.5469H51.1895C51.1895 90.9896 51.2578 91.3639 51.3945 91.6699C51.5312 91.9759 51.7233 92.2233 51.9707 92.4121C52.2246 92.6009 52.5241 92.7376 52.8691 92.8223C53.2207 92.9069 53.6048 92.9492 54.0215 92.9492C54.5293 92.9492 54.946 92.8776 55.2715 92.7344C55.6035 92.5911 55.8477 92.3926 56.0039 92.1387C56.1667 91.8848 56.248 91.5983 56.248 91.2793ZM71.6875 89.9316H68.0645V87.6465H71.6875C72.2474 87.6465 72.7031 87.5553 73.0547 87.373C73.4062 87.1842 73.6634 86.9238 73.8262 86.5918C73.9889 86.2598 74.0703 85.8854 74.0703 85.4688C74.0703 85.0456 73.9889 84.6517 73.8262 84.2871C73.6634 83.9225 73.4062 83.6296 73.0547 83.4082C72.7031 83.1868 72.2474 83.0762 71.6875 83.0762H69.0801V95H66.1504V80.7812H71.6875C72.8008 80.7812 73.7546 80.9831 74.5488 81.3867C75.3496 81.7839 75.9616 82.334 76.3848 83.0371C76.8079 83.7402 77.0195 84.5443 77.0195 85.4492C77.0195 86.3672 76.8079 87.1615 76.3848 87.832C75.9616 88.5026 75.3496 89.0202 74.5488 89.3848C73.7546 89.7493 72.8008 89.9316 71.6875 89.9316ZM86.8926 80.7812H89.8125V90.1758C89.8125 91.2695 89.5781 92.1908 89.1094 92.9395C88.6471 93.6882 88.0059 94.2513 87.1855 94.6289C86.3717 95.0065 85.4342 95.1953 84.373 95.1953C83.3118 95.1953 82.3678 95.0065 81.541 94.6289C80.7207 94.2513 80.0762 93.6882 79.6074 92.9395C79.1452 92.1908 78.9141 91.2695 78.9141 90.1758V80.7812H81.8438V90.1758C81.8438 90.8138 81.9447 91.3346 82.1465 91.7383C82.3483 92.1419 82.638 92.4382 83.0156 92.627C83.3997 92.8158 83.8522 92.9102 84.373 92.9102C84.9069 92.9102 85.3594 92.8158 85.7305 92.627C86.1081 92.4382 86.3945 92.1419 86.5898 91.7383C86.7917 91.3346 86.8926 90.8138 86.8926 90.1758V80.7812ZM103.797 80.7812V95H100.867L95.1543 85.4688V95H92.2246V80.7812H95.1543L100.877 90.3223V80.7812H103.797ZM112.41 80.7812V95H109.49V80.7812H112.41ZM116.785 80.7812V83.0762H105.184V80.7812H116.785ZM129.861 87.5586V88.2324C129.861 89.3132 129.715 90.2832 129.422 91.1426C129.129 92.002 128.715 92.7344 128.182 93.3398C127.648 93.9388 127.01 94.3978 126.268 94.7168C125.532 95.0358 124.715 95.1953 123.816 95.1953C122.924 95.1953 122.107 95.0358 121.365 94.7168C120.63 94.3978 119.992 93.9388 119.451 93.3398C118.911 92.7344 118.491 92.002 118.191 91.1426C117.898 90.2832 117.752 89.3132 117.752 88.2324V87.5586C117.752 86.4714 117.898 85.5013 118.191 84.6484C118.484 83.7891 118.898 83.0566 119.432 82.4512C119.972 81.8457 120.61 81.3835 121.346 81.0645C122.088 80.7454 122.905 80.5859 123.797 80.5859C124.695 80.5859 125.512 80.7454 126.248 81.0645C126.99 81.3835 127.628 81.8457 128.162 82.4512C128.702 83.0566 129.119 83.7891 129.412 84.6484C129.712 85.5013 129.861 86.4714 129.861 87.5586ZM126.902 88.2324V87.5391C126.902 86.7839 126.834 86.1198 126.697 85.5469C126.561 84.974 126.359 84.4922 126.092 84.1016C125.825 83.7109 125.499 83.418 125.115 83.2227C124.731 83.0208 124.292 82.9199 123.797 82.9199C123.302 82.9199 122.863 83.0208 122.479 83.2227C122.101 83.418 121.779 83.7109 121.512 84.1016C121.251 84.4922 121.053 84.974 120.916 85.5469C120.779 86.1198 120.711 86.7839 120.711 87.5391V88.2324C120.711 88.9811 120.779 89.6452 120.916 90.2246C121.053 90.7975 121.255 91.2826 121.521 91.6797C121.788 92.0703 122.114 92.3665 122.498 92.5684C122.882 92.7702 123.322 92.8711 123.816 92.8711C124.311 92.8711 124.751 92.7702 125.135 92.5684C125.519 92.3665 125.841 92.0703 126.102 91.6797C126.362 91.2826 126.561 90.7975 126.697 90.2246C126.834 89.6452 126.902 88.9811 126.902 88.2324ZM139.373 91.2793C139.373 91.0254 139.334 90.7975 139.256 90.5957C139.184 90.3874 139.048 90.1986 138.846 90.0293C138.644 89.8535 138.361 89.681 137.996 89.5117C137.632 89.3424 137.16 89.1667 136.58 88.9844C135.936 88.776 135.324 88.5417 134.744 88.2812C134.171 88.0208 133.663 87.7181 133.221 87.373C132.785 87.0215 132.439 86.6146 132.186 86.1523C131.938 85.6901 131.814 85.153 131.814 84.541C131.814 83.9486 131.945 83.4115 132.205 82.9297C132.465 82.4414 132.83 82.0247 133.299 81.6797C133.768 81.3281 134.321 81.0579 134.959 80.8691C135.604 80.6803 136.31 80.5859 137.078 80.5859C138.126 80.5859 139.041 80.7747 139.822 81.1523C140.604 81.5299 141.209 82.0475 141.639 82.7051C142.075 83.3626 142.293 84.1146 142.293 84.9609H139.383C139.383 84.5443 139.295 84.1797 139.119 83.8672C138.95 83.5482 138.689 83.2975 138.338 83.1152C137.993 82.9329 137.557 82.8418 137.029 82.8418C136.521 82.8418 136.098 82.9199 135.76 83.0762C135.421 83.2259 135.167 83.431 134.998 83.6914C134.829 83.9453 134.744 84.2318 134.744 84.5508C134.744 84.7917 134.803 85.0098 134.92 85.2051C135.044 85.4004 135.226 85.5827 135.467 85.752C135.708 85.9212 136.004 86.0807 136.355 86.2305C136.707 86.3802 137.114 86.5267 137.576 86.6699C138.351 86.9043 139.031 87.168 139.617 87.4609C140.21 87.7539 140.704 88.0827 141.102 88.4473C141.499 88.8118 141.798 89.2253 142 89.6875C142.202 90.1497 142.303 90.6738 142.303 91.2598C142.303 91.8783 142.182 92.4316 141.941 92.9199C141.701 93.4082 141.352 93.8216 140.896 94.1602C140.441 94.4987 139.897 94.7559 139.266 94.9316C138.634 95.1074 137.928 95.1953 137.146 95.1953C136.443 95.1953 135.75 95.1042 135.066 94.9219C134.383 94.7331 133.761 94.4499 133.201 94.0723C132.648 93.6947 132.205 93.2129 131.873 92.627C131.541 92.041 131.375 91.3477 131.375 90.5469H134.314C134.314 90.9896 134.383 91.3639 134.52 91.6699C134.656 91.9759 134.848 92.2233 135.096 92.4121C135.35 92.6009 135.649 92.7376 135.994 92.8223C136.346 92.9069 136.73 92.9492 137.146 92.9492C137.654 92.9492 138.071 92.8776 138.396 92.7344C138.729 92.5911 138.973 92.3926 139.129 92.1387C139.292 91.8848 139.373 91.5983 139.373 91.2793ZM160.545 87.5684V93.2031C160.324 93.4701 159.982 93.7598 159.52 94.0723C159.057 94.3783 158.462 94.6419 157.732 94.8633C157.003 95.0846 156.121 95.1953 155.086 95.1953C154.168 95.1953 153.331 95.0456 152.576 94.7461C151.821 94.4401 151.17 93.9941 150.623 93.4082C150.083 92.8223 149.666 92.1061 149.373 91.2598C149.08 90.4069 148.934 89.4336 148.934 88.3398V87.4512C148.934 86.3574 149.074 85.3841 149.354 84.5312C149.64 83.6784 150.047 82.959 150.574 82.373C151.102 81.7871 151.73 81.3411 152.459 81.0352C153.188 80.7292 153.999 80.5762 154.891 80.5762C156.128 80.5762 157.143 80.778 157.938 81.1816C158.732 81.5788 159.337 82.1322 159.754 82.8418C160.177 83.5449 160.438 84.3522 160.535 85.2637H157.693C157.622 84.7819 157.485 84.362 157.283 84.0039C157.081 83.6458 156.792 83.3659 156.414 83.1641C156.043 82.9622 155.561 82.8613 154.969 82.8613C154.48 82.8613 154.044 82.9622 153.66 83.1641C153.283 83.3594 152.964 83.6491 152.703 84.0332C152.443 84.4173 152.244 84.8926 152.107 85.459C151.971 86.0254 151.902 86.6829 151.902 87.4316V88.3398C151.902 89.082 151.974 89.7396 152.117 90.3125C152.26 90.8789 152.472 91.3574 152.752 91.748C153.038 92.1322 153.39 92.4219 153.807 92.6172C154.223 92.8125 154.708 92.9102 155.262 92.9102C155.724 92.9102 156.108 92.8711 156.414 92.793C156.727 92.7148 156.977 92.6204 157.166 92.5098C157.361 92.3926 157.511 92.2819 157.615 92.1777V89.6582H154.939V87.5684H160.545ZM168.689 83.2129L164.822 95H161.707L166.99 80.7812H168.973L168.689 83.2129ZM171.902 95L168.025 83.2129L167.713 80.7812H169.715L175.027 95H171.902ZM171.727 89.707V92.002H164.217V89.707H171.727ZM187.918 80.7812V95H184.988L179.275 85.4688V95H176.346V80.7812H179.275L184.998 90.3223V80.7812H187.918ZM196.424 83.2129L192.557 95H189.441L194.725 80.7812H196.707L196.424 83.2129ZM199.637 95L195.76 83.2129L195.447 80.7812H197.449L202.762 95H199.637ZM199.461 89.707V92.002H191.951V89.707H199.461ZM208.445 95H205.35L205.369 92.7148H208.445C209.214 92.7148 209.861 92.5423 210.389 92.1973C210.916 91.8457 211.313 91.3346 211.58 90.6641C211.854 89.9935 211.99 89.1829 211.99 88.2324V87.5391C211.99 86.8099 211.912 86.1686 211.756 85.6152C211.606 85.0618 211.382 84.5964 211.082 84.2188C210.783 83.8411 210.415 83.5579 209.979 83.3691C209.542 83.1738 209.041 83.0762 208.475 83.0762H205.291V80.7812H208.475C209.425 80.7812 210.294 80.944 211.082 81.2695C211.876 81.5885 212.563 82.0475 213.143 82.6465C213.722 83.2454 214.168 83.9616 214.48 84.7949C214.799 85.6217 214.959 86.543 214.959 87.5586V88.2324C214.959 89.2415 214.799 90.1628 214.48 90.9961C214.168 91.8294 213.722 92.5456 213.143 93.1445C212.57 93.737 211.883 94.196 211.082 94.5215C210.288 94.8405 209.409 95 208.445 95ZM207.01 80.7812V95H204.08V80.7812H207.01ZM228.768 87.5586V88.2324C228.768 89.3132 228.621 90.2832 228.328 91.1426C228.035 92.002 227.622 92.7344 227.088 93.3398C226.554 93.9388 225.916 94.3978 225.174 94.7168C224.438 95.0358 223.621 95.1953 222.723 95.1953C221.831 95.1953 221.014 95.0358 220.271 94.7168C219.536 94.3978 218.898 93.9388 218.357 93.3398C217.817 92.7344 217.397 92.002 217.098 91.1426C216.805 90.2832 216.658 89.3132 216.658 88.2324V87.5586C216.658 86.4714 216.805 85.5013 217.098 84.6484C217.391 83.7891 217.804 83.0566 218.338 82.4512C218.878 81.8457 219.516 81.3835 220.252 81.0645C220.994 80.7454 221.811 80.5859 222.703 80.5859C223.602 80.5859 224.419 80.7454 225.154 81.0645C225.896 81.3835 226.535 81.8457 227.068 82.4512C227.609 83.0566 228.025 83.7891 228.318 84.6484C228.618 85.5013 228.768 86.4714 228.768 87.5586ZM225.809 88.2324V87.5391C225.809 86.7839 225.74 86.1198 225.604 85.5469C225.467 84.974 225.265 84.4922 224.998 84.1016C224.731 83.7109 224.406 83.418 224.021 83.2227C223.637 83.0208 223.198 82.9199 222.703 82.9199C222.208 82.9199 221.769 83.0208 221.385 83.2227C221.007 83.418 220.685 83.7109 220.418 84.1016C220.158 84.4922 219.959 84.974 219.822 85.5469C219.686 86.1198 219.617 86.7839 219.617 87.5391V88.2324C219.617 88.9811 219.686 89.6452 219.822 90.2246C219.959 90.7975 220.161 91.2826 220.428 91.6797C220.695 92.0703 221.02 92.3665 221.404 92.5684C221.788 92.7702 222.228 92.8711 222.723 92.8711C223.217 92.8711 223.657 92.7702 224.041 92.5684C224.425 92.3665 224.747 92.0703 225.008 91.6797C225.268 91.2826 225.467 90.7975 225.604 90.2246C225.74 89.6452 225.809 88.9811 225.809 88.2324ZM238.279 91.2793C238.279 91.0254 238.24 90.7975 238.162 90.5957C238.09 90.3874 237.954 90.1986 237.752 90.0293C237.55 89.8535 237.267 89.681 236.902 89.5117C236.538 89.3424 236.066 89.1667 235.486 88.9844C234.842 88.776 234.23 88.5417 233.65 88.2812C233.077 88.0208 232.57 87.7181 232.127 87.373C231.691 87.0215 231.346 86.6146 231.092 86.1523C230.844 85.6901 230.721 85.153 230.721 84.541C230.721 83.9486 230.851 83.4115 231.111 82.9297C231.372 82.4414 231.736 82.0247 232.205 81.6797C232.674 81.3281 233.227 81.0579 233.865 80.8691C234.51 80.6803 235.216 80.5859 235.984 80.5859C237.033 80.5859 237.947 80.7747 238.729 81.1523C239.51 81.5299 240.115 82.0475 240.545 82.7051C240.981 83.3626 241.199 84.1146 241.199 84.9609H238.289C238.289 84.5443 238.201 84.1797 238.025 83.8672C237.856 83.5482 237.596 83.2975 237.244 83.1152C236.899 82.9329 236.463 82.8418 235.936 82.8418C235.428 82.8418 235.005 82.9199 234.666 83.0762C234.327 83.2259 234.074 83.431 233.904 83.6914C233.735 83.9453 233.65 84.2318 233.65 84.5508C233.65 84.7917 233.709 85.0098 233.826 85.2051C233.95 85.4004 234.132 85.5827 234.373 85.752C234.614 85.9212 234.91 86.0807 235.262 86.2305C235.613 86.3802 236.02 86.5267 236.482 86.6699C237.257 86.9043 237.938 87.168 238.523 87.4609C239.116 87.7539 239.611 88.0827 240.008 88.4473C240.405 88.8118 240.704 89.2253 240.906 89.6875C241.108 90.1497 241.209 90.6738 241.209 91.2598C241.209 91.8783 241.089 92.4316 240.848 92.9199C240.607 93.4082 240.258 93.8216 239.803 94.1602C239.347 94.4987 238.803 94.7559 238.172 94.9316C237.54 95.1074 236.834 95.1953 236.053 95.1953C235.35 95.1953 234.656 95.1042 233.973 94.9219C233.289 94.7331 232.667 94.4499 232.107 94.0723C231.554 93.6947 231.111 93.2129 230.779 92.627C230.447 92.041 230.281 91.3477 230.281 90.5469H233.221C233.221 90.9896 233.289 91.3639 233.426 91.6699C233.562 91.9759 233.755 92.2233 234.002 92.4121C234.256 92.6009 234.555 92.7376 234.9 92.8223C235.252 92.9069 235.636 92.9492 236.053 92.9492C236.561 92.9492 236.977 92.8776 237.303 92.7344C237.635 92.5911 237.879 92.3926 238.035 92.1387C238.198 91.8848 238.279 91.5983 238.279 91.2793Z" fill="#FF7901"/>
</svg>
