<svg width="93" height="97" viewBox="0 0 93 97" fill="none" xmlns="http://www.w3.org/2000/svg">
<path d="M64.6731 34.2294L59.176 35.6162C54.1534 36.8844 50.2277 41.6696 49.1862 47.7968L48.0499 54.4988L46.9136 47.7968C45.8722 41.6696 41.9464 36.8844 36.9212 35.6162L31.4268 34.2294L36.9212 32.8426C41.9464 31.5744 45.8722 26.7865 46.9136 20.662L48.0499 13.96L49.1862 20.662C50.2277 26.7865 54.1534 31.5744 59.176 32.8426L64.6731 34.2294Z" fill="#F4C193"/>
<path d="M91.5026 62.4224L87.3159 63.2845C83.4903 64.0755 80.5005 67.0547 79.7069 70.8698L78.8421 75.0433L77.9747 70.8698C77.1838 67.0547 74.194 64.0755 70.3658 63.2845L66.1816 62.4224L70.3658 61.5576C74.194 60.7693 77.1838 57.7874 77.9747 53.9724L78.8421 49.7988L79.7069 53.9724C80.5005 57.7874 83.4903 60.7693 87.3159 61.5576L91.5026 62.4224Z" fill="#F4C193"/>
<path d="M41.0235 79.5063L34.2951 80.2287C31.0944 80.8878 28.595 83.382 27.9332 86.5695L27.2082 96.1637L26.4832 86.5695C25.8214 83.382 23.322 80.8878 20.1213 80.2287L13.9229 79.5063L20.1213 78.7839C23.322 78.1248 25.8214 75.6306 26.4832 72.4405L27.2082 59.8828L27.9332 72.4405C28.595 75.6306 31.0944 78.1248 34.2951 78.7839L41.0235 79.5063Z" fill="#F4C193"/>
<path d="M92.9997 28.4668L91.5839 28.8623C90.2867 29.2235 89.2743 30.5839 89.0054 32.324L88.7127 34.2302L88.4201 32.324C88.1512 30.5839 87.1387 29.2235 85.8442 28.8623L84.4258 28.4668L85.8442 28.074C87.1387 27.7128 88.1512 26.3523 88.4201 24.6096L88.7127 22.7061L89.0054 24.6096C89.2743 26.3523 90.2867 27.7128 91.5839 28.074L92.9997 28.4668Z" fill="#F4C193"/>
<path d="M7.01837 43.1676L5.85831 43.4892C4.79844 43.7845 3.96794 44.8998 3.74911 46.3261L3.50919 47.8843L3.26926 46.3261C3.05043 44.8998 2.21994 43.7845 1.16006 43.4892L0 43.1676L1.16006 42.8433C2.21994 42.5506 3.05043 41.4354 3.26926 40.0091L3.50919 38.4482L3.74911 40.0091C3.96794 41.4354 4.79844 42.5506 5.85831 42.8433L7.01837 43.1676Z" fill="#F4C193"/>
<path d="M32.3077 6.49634L30.71 6.94191C29.2494 7.34794 28.1051 8.88238 27.8046 10.8466L27.4724 12.9953L27.1428 10.8466C26.8396 8.88238 25.698 7.34794 24.2374 6.94191L22.6396 6.49634L24.2374 6.05341C25.698 5.64475 26.8396 4.11031 27.1428 2.14611L27.4724 0L27.8046 2.14611C28.1051 4.11031 29.2494 5.64475 30.71 6.05341L32.3077 6.49634Z" fill="#F4C193"/>
<path d="M76.0365 9.6599L75.2588 9.87609C74.5495 10.0738 73.9932 10.82 73.8456 11.777L73.6848 12.8211L73.5239 11.777C73.3763 10.82 72.82 10.0738 72.1108 9.87609L71.333 9.6599L72.1108 9.4437C72.82 9.24597 73.3763 8.4972 73.5239 7.54279L73.6848 6.49609L73.8456 7.54279C73.9932 8.4972 74.5495 9.24597 75.2588 9.4437L76.0365 9.6599Z" fill="#F4C193"/>
</svg>
