<svg width="133" height="36" viewBox="0 0 133 36" fill="none" xmlns="http://www.w3.org/2000/svg">
<path d="M15.291 15.2807V23.9869C15.291 24.5832 15.1064 25.0703 14.7429 25.4312C14.3805 25.7917 13.9009 25.9774 13.3141 25.9774H11.0352V30.0566H13.3141C13.7836 30.0566 14.3153 29.9791 14.9064 29.8223C16.1018 29.5273 17.0887 29.0007 17.8384 28.2545C18.4751 27.6218 18.9118 26.8661 19.1638 25.9774C19.3331 25.3748 19.4217 24.7162 19.4217 23.9869L19.4222 15.2807H15.291Z" fill="white"/>
<path d="M15.4336 15.2806V23.9868C15.4336 24.6227 15.2341 25.143 14.8441 25.5293C14.4536 25.9203 13.9373 26.1166 13.3133 26.1166H11.175V29.9141H13.3133C13.7723 29.9141 14.2949 29.8397 14.8701 29.6819C16.0411 29.3974 17.0057 28.8845 17.7379 28.1536C18.3561 27.5394 18.7779 26.8148 19.0273 25.9378C19.1934 25.3462 19.2777 24.6871 19.2777 23.9868L19.2788 15.2806H15.4336Z" fill="white"/>
<path d="M0 0.499516L0.0010606 23.9869C0.0010606 24.7162 0.0891393 25.3748 0.258398 25.9774C0.509899 26.8661 0.947635 27.6218 1.58275 28.2545C2.33354 29.0007 3.31938 29.5273 4.51587 29.8223C5.10695 29.9791 5.63755 30.0566 6.10818 30.0566H10.1322V25.9774H6.10818C5.52241 25.9774 5.04116 25.7917 4.67983 25.4312C4.3169 25.0703 4.13385 24.5832 4.13385 23.9869V10.9081H9.21639V6.79986H4.13385V0.499516H0Z" fill="white"/>
<path d="M0.143066 0.654568V23.9868C0.143066 24.6871 0.227963 25.3462 0.397222 25.9378C0.643948 26.8148 1.06577 27.5394 1.68391 28.1536C2.41559 28.8845 3.38074 29.3974 4.55335 29.684C5.12799 29.8397 5.65115 29.9141 6.10852 29.9141H9.98927V26.1167H6.10852C5.48348 26.1167 4.96934 25.9203 4.58041 25.5293C4.18777 25.143 3.99145 24.6227 3.99145 23.9868V10.7655H9.074V6.94225H3.99145L3.9697 0.654568H0.143066Z" fill="white"/>
<path d="M10.1165 15.2803H19.422L10.1165 6.87805V15.2803Z" fill="white"/>
<path d="M10.2583 15.1406H19.0523L10.2583 7.19751V15.1406Z" fill="white"/>
<path d="M10.2583 15.1406H19.0523L10.2583 7.19751V15.1406Z" fill="white"/>
<path d="M15.4338 15.2804V23.2842H19.278L19.279 15.2804H15.4338Z" fill="white"/>
<path d="M0.143066 0.65432V23.2842H3.99145V10.7653H9.074V6.94201H3.99145L3.9697 0.65432H0.143066Z" fill="white"/>
<path d="M67.025 33.8694H68.5298L68.2353 35.139C67.9986 35.271 67.4712 35.5 66.8202 35.5C66.2742 35.5 65.985 35.3475 65.8094 35.1939C65.4337 34.8673 65.4104 34.3702 65.4104 34.2166C65.4104 33.3717 66.0365 32.3564 67.3051 32.3564C67.5895 32.3564 68.0979 32.4203 68.3966 32.7728C68.5818 32.9944 68.6343 33.215 68.6534 33.3047L68.1116 33.3591C68.0172 33.0066 67.7418 32.777 67.2951 32.777C66.4599 32.777 65.9808 33.4572 65.9808 34.2002C65.9808 34.5528 66.0705 35.0794 66.8356 35.0794C67.2478 35.0794 67.6421 34.9053 67.7556 34.8504L67.8846 34.29H66.9295L67.025 33.8694Z" fill="white"/>
<path d="M71.8305 32.4072L71.4172 34.1739C71.3456 34.48 71.3509 34.5059 71.3509 34.5982C71.3509 34.9249 71.6835 35.0784 72.0061 35.0784C72.7469 35.0784 72.8747 34.5518 72.984 34.0758L73.3735 32.4072H73.9428L73.5401 34.1354C73.4255 34.6325 73.1979 35.499 72.0014 35.499C71.0421 35.499 70.781 34.9645 70.781 34.6283C70.781 34.4552 70.7953 34.3655 70.8712 34.0378L71.2601 32.4072H71.8305Z" fill="white"/>
<path d="M76.3958 32.4075H76.9651L76.2583 35.4492H75.6885L76.3958 32.4075Z" fill="white"/>
<path d="M79.7469 34.264H80.7911L80.6728 33.5716C80.625 33.2703 80.5964 33.083 80.5826 32.883H80.5725C80.4775 33.0735 80.3682 33.2613 80.2552 33.4444L79.7469 34.264ZM80.3401 32.4075H80.9858L81.5461 35.4492H81.0002L80.8574 34.6719H79.4906L79.011 35.4492H78.4172L80.3401 32.4075Z" fill="white"/>
<path d="M87.4072 35.4492L88.0195 32.8281H86.9604L87.0554 32.4075H89.7328L89.6336 32.8281H88.5894L87.9765 35.4492H87.4072Z" fill="white"/>
<path d="M91.8846 32.4075H94.3678L94.2686 32.8281H92.3547L92.16 33.6555H94.0208L93.921 34.0761H92.065L91.8416 35.0276H93.8934L93.7979 35.4492H91.1731L91.8846 32.4075Z" fill="white"/>
<path d="M96.7309 32.4075H97.3007L96.6879 35.0276H98.4351L98.3354 35.4492H96.0188L96.7309 32.4075Z" fill="white"/>
<path d="M101.184 32.4075H103.667L103.568 32.8281H101.654L101.46 33.6555H103.321L103.221 34.0761H101.365L101.141 35.0276H103.193L103.098 35.4492H100.472L101.184 32.4075Z" fill="white"/>
<path d="M106.026 32.4075H108.314L108.215 32.8281H106.495L106.296 33.6867H108.02L107.92 34.1072H106.197L105.888 35.4492H105.319L106.026 32.4075Z" fill="white"/>
<path d="M112.097 31.605H112.715L112.03 32.1997H111.642L112.097 31.605ZM111.58 35.0794C112.383 35.0794 112.819 34.2557 112.819 33.6393C112.819 33.2541 112.558 32.777 111.922 32.777C111.257 32.777 110.682 33.4023 110.682 34.196C110.682 34.8288 111.176 35.0794 111.58 35.0794ZM111.978 32.3564C112.89 32.3564 113.389 32.9564 113.389 33.6789C113.389 34.6208 112.643 35.5 111.527 35.5C110.677 35.5 110.113 34.9649 110.113 34.1839C110.113 33.3549 110.716 32.3564 111.978 32.3564Z" fill="white"/>
<path d="M116.022 32.4075H116.563L117.304 33.9584C117.423 34.2038 117.527 34.4555 117.627 34.7099H117.636C117.641 34.6492 117.669 34.4761 117.708 34.3099L118.154 32.4075H118.695L117.983 35.4492H117.442L116.558 33.559C116.507 33.4444 116.426 33.2703 116.378 33.1257H116.369C116.359 33.2608 116.326 33.4228 116.303 33.5072L115.851 35.4492H115.31L116.022 32.4075Z" fill="white"/>
<path d="M121.176 32.4075H121.745L121.038 35.4492H120.468L121.176 32.4075Z" fill="white"/>
<path d="M126.223 33.3708C126.194 33.2357 126.1 32.776 125.501 32.776C124.779 32.776 124.266 33.4225 124.266 34.2199C124.266 34.7439 124.57 35.0784 125.078 35.0784C125.553 35.0784 125.895 34.7439 126.028 34.3655L126.598 34.4415C126.313 35.1507 125.704 35.499 125.05 35.499C124.161 35.499 123.696 35.0024 123.696 34.1914C123.696 33.184 124.433 32.3554 125.496 32.3554C126.185 32.3554 126.688 32.7254 126.764 33.3243L126.223 33.3708Z" fill="white"/>
<path d="M129.57 34.264H130.615L130.496 33.5716C130.449 33.2703 130.42 33.083 130.406 32.883H130.397C130.301 33.0735 130.192 33.2613 130.078 33.4444L129.57 34.264ZM130.163 32.4075H130.809L131.369 35.4492H130.823L130.681 34.6719H129.313L128.834 35.4492H128.24L130.163 32.4075Z" fill="white"/>
<path d="M105.684 28.836C105.684 29.6851 106.111 30.083 107.18 30.083C108.462 30.083 109.077 29.4988 109.29 28.2519C109.317 28.0387 109.344 27.8529 109.344 27.6661C109.344 26.8159 108.889 26.445 107.821 26.445C106.431 26.445 105.684 27.188 105.684 28.836Z" fill="white"/>
<path d="M111.248 23.2845C111.087 24.2133 111.008 25.0639 111.008 25.78C111.008 28.7558 112.424 30.083 115.816 30.083C117.98 30.083 120.384 29.6851 121.373 29.3933L121.079 27.0819C119.903 27.5072 117.847 27.8793 116.538 27.8793C114.722 27.8793 113.786 27.5611 113.786 25.569C113.786 25.2492 113.813 24.8782 113.867 24.4792C114.855 24.5858 116.244 24.665 117.045 24.665C120.198 24.665 122.816 23.2576 122.816 19.9641C122.816 17.9989 121.506 16.4849 118.247 16.4849C113.893 16.4849 111.97 19.1414 111.248 23.2845ZM114.24 22.3024C114.988 19.3008 116.297 18.7953 117.953 18.7953C119.129 18.7953 120.224 19.3272 120.224 20.3367C120.224 21.5314 119.503 22.4877 117.393 22.4877C116.297 22.4877 115.068 22.3811 114.24 22.3024Z" fill="white"/>
<path d="M123.517 21.5584C123.517 22.9394 124.346 23.6027 127.684 24.4792C129.26 24.8782 129.634 25.0903 129.634 25.6212C129.634 27.7463 128.111 27.7991 126.989 27.7991C125.52 27.7991 123.811 27.5072 122.769 27.2149L122.287 29.6851C123.276 29.8973 124.799 30.083 126.294 30.083C130.008 30.083 132.466 28.7811 132.466 24.5056C132.466 23.0982 131.583 22.4349 127.818 21.4518C126.67 21.1605 126.375 20.8945 126.375 20.3884C126.375 19.2206 126.829 18.7435 128.512 18.7435C129.661 18.7435 130.836 18.8755 132.546 19.1942L133 16.7778C132.118 16.6179 130.088 16.4849 129.287 16.4849C125.52 16.4849 123.517 18.0264 123.517 21.5584Z" fill="white"/>
<path d="M105.823 28.8367C105.823 29.623 106.217 29.9443 107.179 29.9443C108.372 29.9443 108.943 29.4478 109.151 28.2346L109.161 28.1491C109.183 27.9781 109.203 27.8224 109.203 27.6667C109.203 26.8989 108.803 26.5844 107.82 26.5844C106.476 26.5844 105.823 27.3216 105.823 28.8367Z" fill="white"/>
<path d="M111.385 23.3089C111.23 24.2086 111.148 25.0646 111.148 25.7807C111.148 28.6995 112.544 29.9443 115.815 29.9443C117.913 29.9443 120.213 29.5675 121.218 29.2921L120.962 27.272C119.72 27.6894 117.783 28.0192 116.537 28.0192C114.619 28.0192 113.645 27.6403 113.645 25.5696C113.645 25.2435 113.673 24.8614 113.726 24.4625L113.744 24.3274L113.881 24.3406C114.847 24.4445 116.237 24.5263 117.045 24.5263C120.569 24.5263 122.675 22.8202 122.675 19.9648C122.675 17.8112 121.103 16.6249 118.246 16.6249C114.36 16.6249 112.179 18.7495 111.385 23.3089ZM114.226 22.4413L114.064 22.4266L114.103 22.2693C114.85 19.2719 116.183 18.6566 117.953 18.6566C119.113 18.6566 120.363 19.1822 120.363 20.3373C120.363 21.1917 119.978 22.6276 117.392 22.6276C116.301 22.6276 115.062 22.5215 114.226 22.4413Z" fill="white"/>
<path d="M123.657 21.559C123.657 22.7722 124.223 23.4276 127.719 24.3448C129.287 24.7406 129.774 24.9696 129.774 25.6219C129.774 27.939 128.032 27.939 126.99 27.939C125.569 27.939 123.934 27.6699 122.878 27.3907L122.453 29.5781C123.356 29.7602 124.797 29.9443 126.295 29.9443C130.466 29.9443 132.325 28.2673 132.325 24.5063C132.325 23.2846 131.696 22.6081 127.783 21.588C126.611 21.2899 126.235 20.9996 126.235 20.3891C126.235 19.0719 126.831 18.6038 128.512 18.6038C129.636 18.6038 130.781 18.7289 132.435 19.0328L132.836 16.8924C131.908 16.7452 130.052 16.6249 129.287 16.6249C125.447 16.6249 123.657 18.1927 123.657 21.559Z" fill="white"/>
<path d="M105.684 28.836C105.684 29.6851 106.111 30.083 107.18 30.083C108.462 30.083 109.077 29.4988 109.29 28.2519C109.317 28.0387 109.344 27.8529 109.344 27.6661C109.344 26.8159 108.889 26.445 107.821 26.445C106.431 26.445 105.684 27.188 105.684 28.836Z" fill="white"/>
<path d="M111.248 23.2845C111.087 24.2133 111.008 25.0639 111.008 25.78C111.008 28.7558 112.424 30.083 115.816 30.083C117.98 30.083 120.384 29.6851 121.373 29.3933L121.079 27.0819C119.903 27.5072 117.847 27.8793 116.538 27.8793C114.722 27.8793 113.786 27.5611 113.786 25.569C113.786 25.2492 113.813 24.8782 113.867 24.4792C114.855 24.5858 116.244 24.665 117.045 24.665C120.198 24.665 122.816 23.2576 122.816 19.9641C122.816 17.9989 121.506 16.4849 118.247 16.4849C113.893 16.4849 111.97 19.1414 111.248 23.2845ZM114.24 22.3024C114.988 19.3008 116.297 18.7953 117.953 18.7953C119.129 18.7953 120.224 19.3272 120.224 20.3367C120.224 21.5314 119.503 22.4877 117.393 22.4877C116.297 22.4877 115.068 22.3811 114.24 22.3024Z" fill="white"/>
<path d="M123.517 21.5584C123.517 22.9394 124.346 23.6027 127.684 24.4792C129.26 24.8782 129.634 25.0903 129.634 25.6212C129.634 27.7463 128.111 27.7991 126.989 27.7991C125.52 27.7991 123.811 27.5072 122.769 27.2149L122.287 29.6851C123.276 29.8973 124.799 30.083 126.294 30.083C130.008 30.083 132.466 28.7811 132.466 24.5056C132.466 23.0982 131.583 22.4349 127.818 21.4518C126.67 21.1605 126.375 20.8945 126.375 20.3884C126.375 19.2206 126.829 18.7435 128.512 18.7435C129.661 18.7435 130.836 18.8755 132.546 19.1942L133 16.7778C132.118 16.6179 130.088 16.4849 129.287 16.4849C125.52 16.4849 123.517 18.0264 123.517 21.5584Z" fill="white"/>
<path d="M105.823 28.8367C105.823 29.623 106.217 29.9443 107.179 29.9443C108.372 29.9443 108.943 29.4478 109.151 28.2346L109.161 28.1491C109.183 27.9781 109.203 27.8224 109.203 27.6667C109.203 26.8989 108.803 26.5844 107.82 26.5844C106.476 26.5844 105.823 27.3216 105.823 28.8367Z" fill="white"/>
<path d="M111.385 23.3089C111.23 24.2086 111.148 25.0646 111.148 25.7807C111.148 28.6995 112.544 29.9443 115.815 29.9443C117.913 29.9443 120.213 29.5675 121.218 29.2921L120.962 27.272C119.72 27.6894 117.783 28.0192 116.537 28.0192C114.619 28.0192 113.645 27.6403 113.645 25.5696C113.645 25.2435 113.673 24.8614 113.726 24.4625L113.744 24.3274L113.881 24.3406C114.847 24.4445 116.237 24.5263 117.045 24.5263C120.569 24.5263 122.675 22.8202 122.675 19.9648C122.675 17.8112 121.103 16.6249 118.246 16.6249C114.36 16.6249 112.179 18.7495 111.385 23.3089ZM114.226 22.4413L114.064 22.4266L114.103 22.2693C114.85 19.2719 116.183 18.6566 117.953 18.6566C119.113 18.6566 120.363 19.1822 120.363 20.3373C120.363 21.1917 119.978 22.6276 117.392 22.6276C116.301 22.6276 115.062 22.5215 114.226 22.4413Z" fill="white"/>
<path d="M123.657 21.559C123.657 22.7722 124.223 23.4276 127.719 24.3448C129.287 24.7406 129.774 24.9696 129.774 25.6219C129.774 27.939 128.032 27.939 126.99 27.939C125.569 27.939 123.934 27.6699 122.878 27.3907L122.453 29.5781C123.356 29.7602 124.797 29.9443 126.295 29.9443C130.466 29.9443 132.325 28.2673 132.325 24.5063C132.325 23.2846 131.696 22.6081 127.783 21.588C126.611 21.2899 126.235 20.9996 126.235 20.3891C126.235 19.0719 126.831 18.6038 128.512 18.6038C129.636 18.6038 130.781 18.7289 132.435 19.0328L132.836 16.8924C131.908 16.7452 130.052 16.6249 129.287 16.6249C125.447 16.6249 123.657 18.1927 123.657 21.559Z" fill="white"/>
<path d="M123.517 21.559C123.517 22.2899 123.754 22.8176 124.467 23.2852H132.074C131.524 22.6102 130.3 22.0989 127.818 21.4524C126.669 21.1611 126.375 20.8952 126.375 20.3891C126.375 19.2212 126.829 18.7442 128.512 18.7442C129.661 18.7442 130.836 18.8761 132.546 19.1949L133 16.7785C132.118 16.6186 130.088 16.4856 129.287 16.4856C125.52 16.4856 123.517 18.027 123.517 21.559Z" fill="white"/>
<path d="M111.248 23.2852H121.438C122.293 22.5237 122.815 21.4334 122.815 19.9648C122.815 17.9996 121.505 16.4856 118.246 16.4856C113.893 16.4856 111.969 19.1421 111.248 23.2852ZM114.24 22.3031C114.987 19.3015 116.297 18.7959 117.953 18.7959C119.129 18.7959 120.224 19.3278 120.224 20.3374C120.224 21.5321 119.502 22.4883 117.393 22.4883C116.297 22.4883 115.068 22.3817 114.24 22.3031Z" fill="white"/>
<path d="M21.8619 11.1216L21.4077 13.644H26.4558L23.5975 29.7656H26.4828L29.3401 13.644H34.4168L34.8704 11.1216H21.8619Z" fill="white"/>
<path d="M31.1675 23.2845C31.0073 24.2133 30.9282 25.0639 30.9282 25.78C30.9282 28.7558 32.3433 30.083 35.7354 30.083C37.8997 30.083 40.3038 29.6851 41.2923 29.3933L40.9978 27.0819C39.8225 27.5072 37.7665 27.8793 36.457 27.8793C34.6413 27.8793 33.7059 27.5611 33.7059 25.569C33.7059 25.2492 33.7329 24.8782 33.786 24.4792C34.7745 24.5858 36.1641 24.665 36.9648 24.665C40.117 24.665 42.735 23.2576 42.735 19.9641C42.735 17.9989 41.4255 16.4849 38.1666 16.4849C33.8125 16.4849 31.8897 19.1414 31.1675 23.2845ZM34.1601 22.3024C34.9082 19.3008 36.2166 18.7953 37.8726 18.7953C39.0484 18.7953 40.1436 19.3272 40.1436 20.3367C40.1436 21.5314 39.4225 22.4877 37.3123 22.4877C36.2166 22.4877 34.9878 22.3811 34.1601 22.3024Z" fill="white"/>
<path d="M45.9798 11.1216L42.6667 29.7656H45.4715L48.7845 11.1216H45.9798Z" fill="white"/>
<path d="M48.1164 23.2845C47.9561 24.2133 47.8755 25.0639 47.8755 25.78C47.8755 28.7558 49.2911 30.083 52.6842 30.083C54.848 30.083 57.2521 29.6851 58.2406 29.3933L57.9461 27.0819C56.7709 27.5072 54.7138 27.8793 53.4053 27.8793C51.5886 27.8793 50.6531 27.5611 50.6531 25.569C50.6531 25.2492 50.6802 24.8782 50.7338 24.4792C51.7223 24.5858 53.1114 24.665 53.9131 24.665C57.0654 24.665 59.6833 23.2576 59.6833 19.9641C59.6833 17.9989 58.3743 16.4849 55.1154 16.4849C50.7608 16.4849 48.8374 19.1414 48.1164 23.2845ZM51.1073 22.3024C51.8565 19.3008 53.1644 18.7953 54.8215 18.7953C55.9967 18.7953 57.0924 19.3272 57.0924 20.3367C57.0924 21.5314 56.3708 22.4877 54.2606 22.4877C53.1644 22.4877 51.9372 22.3811 51.1073 22.3024Z" fill="white"/>
<path d="M62.7705 15.0252L62.4495 16.8041H60.82L60.4199 19.115H62.0494L59.1216 35.4492H61.9263L64.8281 19.115H68.1671L68.5672 16.8041H65.2547L65.5757 14.945C65.8166 13.5914 66.4034 13.1122 67.5782 13.1122C68.3258 13.1122 69.101 13.2732 69.9027 13.5381L70.3303 11.1745C69.7695 11.0674 68.9948 10.9613 68.1926 10.9613C64.4264 10.9613 63.2512 12.3956 62.7705 15.0252Z" fill="white"/>
<path d="M68.0253 23.2845C67.8645 24.1605 67.7849 24.9573 67.7849 25.6481C67.7849 28.703 69.3072 30.083 72.7534 30.083C77.0008 30.083 79.0579 28.0112 79.8856 23.2845C80.0464 22.4085 80.126 21.6111 80.126 20.8945C80.126 17.8406 78.6037 16.4849 75.1575 16.4849C70.9096 16.4849 68.853 18.5583 68.0253 23.2845ZM70.6968 25.5151C70.6968 24.931 70.7769 24.1874 70.9377 23.2845C71.6577 19.2744 72.6733 18.9019 74.7298 18.9019C76.3062 18.9019 77.2141 19.1145 77.2141 21.0533C77.2141 21.6375 77.1345 22.3547 76.9737 23.2845C76.2526 27.2951 75.2371 27.6661 73.1805 27.6661C71.6047 27.6661 70.6968 27.4539 70.6968 25.5151Z" fill="white"/>
<path d="M85.2939 18.3454L85.0536 16.8045H82.2489C82.3285 17.2573 82.3555 17.7876 82.3555 18.2383C82.3555 18.6642 82.3285 19.062 82.2754 19.3544L80.4321 29.7656H83.2368L84.8398 20.6294C85.9885 19.8594 87.4582 18.8763 88.7932 18.8763C89.4082 18.8763 89.9154 19.1423 89.9154 19.9386C89.9154 20.0716 89.9154 20.2035 89.8889 20.3375L88.2058 29.7656H91.0106L92.7997 19.7264C92.8544 19.4605 92.8804 19.1686 92.8804 18.8763C92.8804 17.6546 92.293 16.4858 89.9154 16.4858C88.2589 16.4858 86.4427 17.6024 85.2939 18.3454Z" fill="white"/>
<path d="M93.6046 23.2845C93.4443 24.1605 93.3647 24.9573 93.3647 25.6481C93.3647 28.703 94.8865 30.083 98.3327 30.083C102.58 30.083 104.637 28.0112 105.465 23.2845C105.626 22.4085 105.706 21.6111 105.706 20.8945C105.706 17.8406 104.183 16.4849 100.737 16.4849C96.4894 16.4849 94.4328 18.5583 93.6046 23.2845ZM96.2761 25.5151C96.2761 24.931 96.3562 24.1874 96.5165 23.2845C97.2386 19.2744 98.2531 18.9019 100.31 18.9019C101.886 18.9019 102.794 19.1145 102.794 21.0533C102.794 21.6375 102.713 22.3547 102.554 23.2845C101.832 27.2951 100.817 27.6661 98.7609 27.6661C97.184 27.6661 96.2761 27.4539 96.2761 25.5151Z" fill="white"/>
<path d="M21.9787 11.26L21.575 13.5049H26.623L23.7647 29.626H26.3646L29.2229 13.5049H34.2996L34.7029 11.26H21.9787Z" fill="white"/>
<path d="M31.3053 23.3089C31.1498 24.2086 31.0681 25.0646 31.0681 25.7807C31.0681 28.6995 32.4641 29.9443 35.7352 29.9443C37.8332 29.9443 40.1328 29.5675 41.1382 29.2921L40.8804 27.272C39.6398 27.6894 37.7021 28.0192 36.4568 28.0192C34.5393 28.0192 33.5656 27.6403 33.5656 25.5696C33.5656 25.2435 33.5932 24.8614 33.6468 24.4625L33.6648 24.3274L33.8007 24.3406C34.7669 24.4445 36.157 24.5263 36.9646 24.5263C40.4893 24.5263 42.5942 22.8202 42.5942 19.9648C42.5942 17.8112 41.022 16.6249 38.1664 16.6249C34.2798 16.6249 32.1001 18.7495 31.3053 23.3089ZM34.1466 22.4413L33.9837 22.4266L34.0235 22.2693C34.7701 19.2719 36.1024 18.6566 37.8724 18.6566C39.0339 18.6566 40.2835 19.1822 40.2835 20.3373C40.2835 21.1917 39.8972 22.6276 37.3121 22.6276C36.2207 22.6276 34.9828 22.5215 34.1466 22.4413Z" fill="white"/>
<path d="M46.0966 11.26L42.834 29.626H45.3543L48.6169 11.26H46.0966Z" fill="white"/>
<path d="M48.2547 23.3089C48.0982 24.2129 48.0154 25.0672 48.0154 25.7807C48.0154 28.6995 49.4114 29.9443 52.6841 29.9443C54.782 29.9443 57.0811 29.5675 58.086 29.2921L57.8287 27.272C56.5887 27.6894 54.651 28.0192 53.4051 28.0192C51.4871 28.0192 50.5134 27.6403 50.5134 25.5696C50.5134 25.2435 50.5415 24.8614 50.5941 24.4625L50.6126 24.3274L50.7485 24.3406C51.7152 24.4445 53.1048 24.5263 53.9129 24.5263C57.4382 24.5263 59.5436 22.8202 59.5436 19.9648C59.5436 17.8112 57.9704 16.6249 55.1152 16.6249C51.2276 16.6249 49.0474 18.7495 48.2547 23.3089ZM51.0939 22.4413L50.9321 22.4266L50.9713 22.2693C51.7184 19.2719 53.0512 18.6566 54.8213 18.6566C55.9817 18.6566 57.2323 19.1822 57.2323 20.3373C57.2323 21.1917 56.846 22.6276 54.2605 22.6276C53.1834 22.6276 52.0017 22.5279 51.0939 22.4413Z" fill="white"/>
<path d="M62.909 15.0496L62.5673 16.9435H60.9384L60.5861 18.9747H62.2166L59.2888 35.3105H61.8091L64.7099 18.9747H68.0484L68.4007 16.9435H65.0887L65.4373 14.9214C65.6835 13.5372 66.3038 12.9736 67.5783 12.9736C68.2526 12.9736 68.9785 13.0981 69.7935 13.3556L70.1676 11.2859C69.6645 11.1962 68.9514 11.1002 68.1927 11.1002C64.3936 11.1002 63.3542 12.6126 62.909 15.0496Z" fill="white"/>
<path d="M68.163 23.3099C68.0044 24.1738 67.9248 24.9601 67.9248 25.6488C67.9248 28.6203 69.4142 29.9443 72.7532 29.9443C76.8892 29.9443 78.9166 28.0092 79.748 23.2609C79.9061 22.3959 79.9862 21.6002 79.9862 20.8951C79.9862 17.903 78.5414 16.6249 75.1573 16.6249C71.0208 16.6249 68.9945 18.5627 68.163 23.3099ZM70.556 25.5158C70.556 24.9263 70.6377 24.168 70.7985 23.2614C71.527 19.207 72.6078 18.7637 74.7297 18.7637C76.2164 18.7637 77.354 18.9315 77.354 21.054C77.354 21.6329 77.2776 22.3495 77.1115 23.3099C76.383 27.3628 75.3027 27.8061 73.1803 27.8061C71.6931 27.8061 70.556 27.6377 70.556 25.5158Z" fill="white"/>
<path d="M85.3702 18.4617L85.1892 18.5789L84.934 16.9435H82.4132C82.4816 17.4084 82.4965 17.8955 82.4965 18.238C82.4965 18.6812 82.4673 19.0865 82.4137 19.3778L80.5996 29.626H83.1194L84.7122 20.5456L84.7621 20.5124C85.9421 19.7224 87.4119 18.7366 88.7936 18.7366C89.608 18.7366 90.0548 19.163 90.0548 19.9382C90.0548 20.0755 90.0548 20.2169 90.0277 20.3609L88.3733 29.626H90.8942L92.6632 19.6987C92.7141 19.4501 92.7401 19.1657 92.7401 18.876C92.7401 17.362 91.8163 16.6247 89.9158 16.6247C88.4105 16.6247 86.7736 17.5546 85.3702 18.4617Z" fill="white"/>
<path d="M93.7418 23.3099C93.5848 24.1706 93.5046 24.9569 93.5046 25.6488C93.5046 28.6203 94.9935 29.9443 98.3325 29.9443C102.469 29.9443 104.495 28.0092 105.327 23.2609C105.485 22.3959 105.565 21.6002 105.565 20.8951C105.565 17.903 104.122 16.6249 100.737 16.6249C96.6001 16.6249 94.5738 18.5627 93.7418 23.3099ZM96.1358 25.5158C96.1358 24.9263 96.2176 24.168 96.3783 23.2614C97.1074 19.207 98.1871 18.7637 100.309 18.7637C101.797 18.7637 102.933 18.9315 102.933 21.054C102.933 21.6313 102.857 22.3474 102.692 23.3099C101.963 27.3628 100.884 27.8061 98.7607 27.8061C97.274 27.8061 96.1358 27.6377 96.1358 25.5158Z" fill="white"/>
<path d="M21.8619 11.1216L21.4077 13.644H26.4558L23.5975 29.7656H26.4828L29.3401 13.644H34.4168L34.8704 11.1216H21.8619Z" fill="white"/>
<path d="M31.1675 23.2845C31.0073 24.2133 30.9282 25.0639 30.9282 25.78C30.9282 28.7558 32.3433 30.083 35.7354 30.083C37.8997 30.083 40.3038 29.6851 41.2923 29.3933L40.9978 27.0819C39.8225 27.5072 37.7665 27.8793 36.457 27.8793C34.6413 27.8793 33.7059 27.5611 33.7059 25.569C33.7059 25.2492 33.7329 24.8782 33.786 24.4792C34.7745 24.5858 36.1641 24.665 36.9648 24.665C40.117 24.665 42.735 23.2576 42.735 19.9641C42.735 17.9989 41.4255 16.4849 38.1666 16.4849C33.8125 16.4849 31.8897 19.1414 31.1675 23.2845ZM34.1601 22.3024C34.9082 19.3008 36.2166 18.7953 37.8726 18.7953C39.0484 18.7953 40.1436 19.3272 40.1436 20.3367C40.1436 21.5314 39.4225 22.4877 37.3123 22.4877C36.2166 22.4877 34.9878 22.3811 34.1601 22.3024Z" fill="white"/>
<path d="M45.9798 11.1216L42.6667 29.7656H45.4715L48.7845 11.1216H45.9798Z" fill="white"/>
<path d="M48.1164 23.2845C47.9561 24.2133 47.8755 25.0639 47.8755 25.78C47.8755 28.7558 49.2911 30.083 52.6842 30.083C54.848 30.083 57.2521 29.6851 58.2406 29.3933L57.9461 27.0819C56.7709 27.5072 54.7138 27.8793 53.4053 27.8793C51.5886 27.8793 50.6531 27.5611 50.6531 25.569C50.6531 25.2492 50.6802 24.8782 50.7338 24.4792C51.7223 24.5858 53.1114 24.665 53.9131 24.665C57.0654 24.665 59.6833 23.2576 59.6833 19.9641C59.6833 17.9989 58.3743 16.4849 55.1154 16.4849C50.7608 16.4849 48.8374 19.1414 48.1164 23.2845ZM51.1073 22.3024C51.8565 19.3008 53.1644 18.7953 54.8215 18.7953C55.9967 18.7953 57.0924 19.3272 57.0924 20.3367C57.0924 21.5314 56.3708 22.4877 54.2606 22.4877C53.1644 22.4877 51.9372 22.3811 51.1073 22.3024Z" fill="white"/>
<path d="M62.7705 15.0252L62.4495 16.8041H60.82L60.4199 19.115H62.0494L59.1216 35.4492H61.9263L64.8281 19.115H68.1671L68.5672 16.8041H65.2547L65.5757 14.945C65.8166 13.5914 66.4034 13.1122 67.5782 13.1122C68.3258 13.1122 69.101 13.2732 69.9027 13.5381L70.3303 11.1745C69.7695 11.0674 68.9948 10.9613 68.1926 10.9613C64.4264 10.9613 63.2512 12.3956 62.7705 15.0252Z" fill="white"/>
<path d="M68.0253 23.2845C67.8645 24.1605 67.7849 24.9573 67.7849 25.6481C67.7849 28.703 69.3072 30.083 72.7534 30.083C77.0008 30.083 79.0579 28.0112 79.8856 23.2845C80.0464 22.4085 80.126 21.6111 80.126 20.8945C80.126 17.8406 78.6037 16.4849 75.1575 16.4849C70.9096 16.4849 68.853 18.5583 68.0253 23.2845ZM70.6968 25.5151C70.6968 24.931 70.7769 24.1874 70.9377 23.2845C71.6577 19.2744 72.6733 18.9019 74.7298 18.9019C76.3062 18.9019 77.2141 19.1145 77.2141 21.0533C77.2141 21.6375 77.1345 22.3547 76.9737 23.2845C76.2526 27.2951 75.2371 27.6661 73.1805 27.6661C71.6047 27.6661 70.6968 27.4539 70.6968 25.5151Z" fill="white"/>
<path d="M85.2939 18.3454L85.0536 16.8045H82.2489C82.3285 17.2573 82.3555 17.7876 82.3555 18.2383C82.3555 18.6642 82.3285 19.062 82.2754 19.3544L80.4321 29.7656H83.2368L84.8398 20.6294C85.9885 19.8594 87.4582 18.8763 88.7932 18.8763C89.4082 18.8763 89.9154 19.1423 89.9154 19.9386C89.9154 20.0716 89.9154 20.2035 89.8889 20.3375L88.2058 29.7656H91.0106L92.7997 19.7264C92.8544 19.4605 92.8804 19.1686 92.8804 18.8763C92.8804 17.6546 92.293 16.4858 89.9154 16.4858C88.2589 16.4858 86.4427 17.6024 85.2939 18.3454Z" fill="white"/>
<path d="M93.6046 23.2845C93.4443 24.1605 93.3647 24.9573 93.3647 25.6481C93.3647 28.703 94.8865 30.083 98.3327 30.083C102.58 30.083 104.637 28.0112 105.465 23.2845C105.626 22.4085 105.706 21.6111 105.706 20.8945C105.706 17.8406 104.183 16.4849 100.737 16.4849C96.4894 16.4849 94.4328 18.5583 93.6046 23.2845ZM96.2761 25.5151C96.2761 24.931 96.3562 24.1874 96.5165 23.2845C97.2386 19.2744 98.2531 18.9019 100.31 18.9019C101.886 18.9019 102.794 19.1145 102.794 21.0533C102.794 21.6375 102.713 22.3547 102.554 23.2845C101.832 27.2951 100.817 27.6661 98.7609 27.6661C97.184 27.6661 96.2761 27.4539 96.2761 25.5151Z" fill="white"/>
<path d="M21.9787 11.26L21.575 13.5049H26.623L23.7647 29.626H26.3646L29.2229 13.5049H34.2996L34.7029 11.26H21.9787Z" fill="white"/>
<path d="M31.3053 23.3089C31.1498 24.2086 31.0681 25.0646 31.0681 25.7807C31.0681 28.6995 32.4641 29.9443 35.7352 29.9443C37.8332 29.9443 40.1328 29.5675 41.1382 29.2921L40.8804 27.272C39.6398 27.6894 37.7021 28.0192 36.4568 28.0192C34.5393 28.0192 33.5656 27.6403 33.5656 25.5696C33.5656 25.2435 33.5932 24.8614 33.6468 24.4625L33.6648 24.3274L33.8007 24.3406C34.7669 24.4445 36.157 24.5263 36.9646 24.5263C40.4893 24.5263 42.5942 22.8202 42.5942 19.9648C42.5942 17.8112 41.022 16.6249 38.1664 16.6249C34.2798 16.6249 32.1001 18.7495 31.3053 23.3089ZM34.1466 22.4413L33.9837 22.4266L34.0235 22.2693C34.7701 19.2719 36.1024 18.6566 37.8724 18.6566C39.0339 18.6566 40.2835 19.1822 40.2835 20.3373C40.2835 21.1917 39.8972 22.6276 37.3121 22.6276C36.2207 22.6276 34.9828 22.5215 34.1466 22.4413Z" fill="white"/>
<path d="M46.0966 11.26L42.834 29.626H45.3543L48.6169 11.26H46.0966Z" fill="white"/>
<path d="M48.2547 23.3089C48.0982 24.2129 48.0154 25.0672 48.0154 25.7807C48.0154 28.6995 49.4114 29.9443 52.6841 29.9443C54.782 29.9443 57.0811 29.5675 58.086 29.2921L57.8287 27.272C56.5887 27.6894 54.651 28.0192 53.4051 28.0192C51.4871 28.0192 50.5134 27.6403 50.5134 25.5696C50.5134 25.2435 50.5415 24.8614 50.5941 24.4625L50.6126 24.3274L50.7485 24.3406C51.7152 24.4445 53.1048 24.5263 53.9129 24.5263C57.4382 24.5263 59.5436 22.8202 59.5436 19.9648C59.5436 17.8112 57.9704 16.6249 55.1152 16.6249C51.2276 16.6249 49.0474 18.7495 48.2547 23.3089ZM51.0939 22.4413L50.9321 22.4266L50.9713 22.2693C51.7184 19.2719 53.0512 18.6566 54.8213 18.6566C55.9817 18.6566 57.2323 19.1822 57.2323 20.3373C57.2323 21.1917 56.846 22.6276 54.2605 22.6276C53.1834 22.6276 52.0017 22.5279 51.0939 22.4413Z" fill="white"/>
<path d="M62.909 15.0496L62.5673 16.9435H60.9384L60.5861 18.9747H62.2166L59.2888 35.3105H61.8091L64.7099 18.9747H68.0484L68.4007 16.9435H65.0887L65.4373 14.9214C65.6835 13.5372 66.3038 12.9736 67.5783 12.9736C68.2526 12.9736 68.9785 13.0981 69.7935 13.3556L70.1676 11.2859C69.6645 11.1962 68.9514 11.1002 68.1927 11.1002C64.3936 11.1002 63.3542 12.6126 62.909 15.0496Z" fill="white"/>
<path d="M68.163 23.3099C68.0044 24.1738 67.9248 24.9601 67.9248 25.6488C67.9248 28.6203 69.4142 29.9443 72.7532 29.9443C76.8892 29.9443 78.9166 28.0092 79.748 23.2609C79.9061 22.3959 79.9862 21.6002 79.9862 20.8951C79.9862 17.903 78.5414 16.6249 75.1573 16.6249C71.0208 16.6249 68.9945 18.5627 68.163 23.3099ZM70.556 25.5158C70.556 24.9263 70.6377 24.168 70.7985 23.2614C71.527 19.207 72.6078 18.7637 74.7297 18.7637C76.2164 18.7637 77.354 18.9315 77.354 21.054C77.354 21.6329 77.2776 22.3495 77.1115 23.3099C76.383 27.3628 75.3027 27.8061 73.1803 27.8061C71.6931 27.8061 70.556 27.6377 70.556 25.5158Z" fill="white"/>
<path d="M85.3702 18.4617L85.1892 18.5789L84.934 16.9435H82.4132C82.4816 17.4084 82.4965 17.8955 82.4965 18.238C82.4965 18.6812 82.4673 19.0865 82.4137 19.3778L80.5996 29.626H83.1194L84.7122 20.5456L84.7621 20.5124C85.9421 19.7224 87.4119 18.7366 88.7936 18.7366C89.608 18.7366 90.0548 19.163 90.0548 19.9382C90.0548 20.0755 90.0548 20.2169 90.0277 20.3609L88.3733 29.626H90.8942L92.6632 19.6987C92.7141 19.4501 92.7401 19.1657 92.7401 18.876C92.7401 17.362 91.8163 16.6247 89.9158 16.6247C88.4105 16.6247 86.7736 17.5546 85.3702 18.4617Z" fill="white"/>
<path d="M93.7418 23.3099C93.5848 24.1706 93.5046 24.9569 93.5046 25.6488C93.5046 28.6203 94.9935 29.9443 98.3325 29.9443C102.469 29.9443 104.495 28.0092 105.327 23.2609C105.485 22.3959 105.565 21.6002 105.565 20.8951C105.565 17.903 104.122 16.6249 100.737 16.6249C96.6001 16.6249 94.5738 18.5627 93.7418 23.3099ZM96.1358 25.5158C96.1358 24.9263 96.2176 24.168 96.3783 23.2614C97.1074 19.207 98.1871 18.7637 100.309 18.7637C101.797 18.7637 102.933 18.9315 102.933 21.054C102.933 21.6313 102.857 22.3474 102.692 23.3099C101.963 27.3628 100.884 27.8061 98.7607 27.8061C97.274 27.8061 96.1358 27.6377 96.1358 25.5158Z" fill="white"/>
<path d="M68.0251 23.2852H70.9376C71.6576 19.2751 72.6731 18.9025 74.7297 18.9025C76.3061 18.9025 77.2139 19.1152 77.2139 21.054C77.2139 21.6382 77.1344 22.3553 76.9736 23.2852H79.8855C80.0462 22.4092 80.1258 21.6118 80.1258 20.8952C80.1258 17.8413 78.6036 16.4856 75.1574 16.4856C70.9094 16.4856 68.8529 18.559 68.0251 23.2852Z" fill="white"/>
<path d="M21.8619 11.1214L21.4077 13.6439H26.4558L24.7467 23.2852H27.631L29.3401 13.6439H34.4168L34.8704 11.1214H21.8619Z" fill="white"/>
<path d="M45.98 11.1214L43.8184 23.2852H46.6236L48.7847 11.1214H45.98Z" fill="white"/>
<path d="M93.6047 23.2852H96.5166C97.2388 19.2751 98.2533 18.9025 100.31 18.9025C101.886 18.9025 102.794 19.1152 102.794 21.054C102.794 21.6382 102.713 22.3553 102.554 23.2852H105.465C105.626 22.4092 105.706 21.6118 105.706 20.8952C105.706 17.8413 104.183 16.4856 100.737 16.4856C96.4896 16.4856 94.433 18.559 93.6047 23.2852Z" fill="white"/>
<path d="M62.7705 15.0254L62.4494 16.8043H60.82L60.4199 19.1152H62.0494L61.3012 23.2852H64.0874L64.8281 19.1152H68.1671L68.5672 16.8043H65.2547L65.5757 14.9452C65.8166 13.5916 66.4034 13.1125 67.5781 13.1125C68.3257 13.1125 69.101 13.2734 69.9027 13.5383L70.3303 11.1747C69.7695 11.0676 68.9948 10.9615 68.1926 10.9615C64.4264 10.9615 63.2512 12.3958 62.7705 15.0254Z" fill="white"/>
<path d="M31.1675 23.2852H41.3564C42.2123 22.5237 42.7349 21.4334 42.7349 19.9648C42.7349 17.9996 41.4254 16.4856 38.1665 16.4856C33.8125 16.4856 31.8896 19.1421 31.1675 23.2852ZM34.16 22.3031C34.9082 19.3015 36.2166 18.7959 37.8726 18.7959C39.0484 18.7959 40.1435 19.3278 40.1435 20.3374C40.1435 21.5321 39.4224 22.4883 37.3123 22.4883C36.2166 22.4883 34.9877 22.3817 34.16 22.3031Z" fill="white"/>
<path d="M85.2945 18.3452L85.0542 16.8043H82.2494C82.329 17.2571 82.3561 17.7875 82.3561 18.2381C82.3561 18.664 82.329 19.0619 82.276 19.3542L81.5798 23.2852H84.3739L84.8403 20.6292C85.9891 19.8592 87.4588 18.8761 88.7938 18.8761C89.4087 18.8761 89.916 19.1421 89.916 19.9384C89.916 20.0714 89.916 20.2033 89.8895 20.3374L89.3636 23.2852H92.1657L92.8003 19.7263C92.8549 19.4603 92.8809 19.1685 92.8809 18.8761C92.8809 17.6545 92.2936 16.4856 89.916 16.4856C88.2595 16.4856 86.4432 17.6022 85.2945 18.3452Z" fill="white"/>
<path d="M48.1165 23.2852H58.3049C59.1602 22.5237 59.6834 21.4334 59.6834 19.9648C59.6834 17.9996 58.3744 16.4856 55.1155 16.4856C50.7609 16.4856 48.8375 19.1421 48.1165 23.2852ZM51.1074 22.3031C51.8566 19.3015 53.1645 18.7959 54.8215 18.7959C55.9968 18.7959 57.0925 19.3278 57.0925 20.3374C57.0925 21.5321 56.3709 22.4883 54.2607 22.4883C53.1645 22.4883 51.9372 22.3817 51.1074 22.3031Z" fill="white"/>
</svg>
