<svg width="932" height="464" viewBox="0 0 932 464" fill="none" xmlns="http://www.w3.org/2000/svg">
<g clip-path="url(#clip0_254_1415)">
<path d="M1356.3 26.4076C1359.06 42.6592 1351.69 59.9254 1335.81 77.2654C1319.93 94.5994 1295.61 111.936 1264.64 128.296C1202.72 161.013 1114.34 189.771 1014.2 206.796C914.05 223.821 821.137 225.884 751.88 215.468C717.248 210.259 688.56 201.935 667.846 190.822C647.124 179.705 634.461 165.845 631.698 149.593C628.935 133.342 636.306 116.076 652.191 98.7356C668.069 81.4016 692.394 64.0649 723.359 47.7049C785.284 14.9875 873.659 -13.7699 973.804 -30.7951C1073.95 -47.8202 1166.86 -49.8826 1236.12 -39.4668C1270.75 -34.2584 1299.44 -25.9342 1320.15 -14.8212C1340.88 -3.70439 1353.54 10.156 1356.3 26.4076Z" stroke="#2C6588"/>
<path d="M1501.59 1.70793C1505.47 24.5554 1495.11 48.7964 1472.84 73.1016C1450.58 97.4008 1416.49 121.693 1373.12 144.61C1286.37 190.442 1162.58 230.722 1022.32 254.568C882.051 278.413 751.907 281.304 654.888 266.713C606.375 259.417 566.174 247.754 537.136 232.176C508.09 216.593 490.294 197.141 486.409 174.293C482.525 151.446 492.894 127.205 515.158 102.899C537.417 78.6003 571.506 54.308 614.882 31.3907C701.629 -14.4414 825.417 -54.7208 965.683 -78.5666C1105.95 -102.412 1236.09 -105.303 1333.11 -90.7116C1381.62 -83.4157 1421.83 -71.7531 1450.86 -56.1747C1479.91 -40.5924 1497.71 -21.1395 1501.59 1.70793Z" stroke="#2C6588"/>
<path d="M1636.34 -22.9343C1641.31 6.27635 1628.05 37.2461 1599.63 68.2707C1571.21 99.2893 1527.7 130.292 1472.36 159.535C1361.66 218.019 1203.71 269.414 1024.74 299.84C845.769 330.266 679.707 333.955 555.905 315.336C494.001 306.026 442.693 291.143 405.625 271.256C368.549 251.366 345.8 226.518 340.834 197.307C335.868 168.097 349.128 137.127 377.548 106.102C405.962 75.0838 449.47 44.0814 504.819 14.8381C615.513 -43.646 773.465 -95.0408 952.435 -125.467C1131.41 -155.892 1297.47 -159.581 1421.27 -140.963C1483.17 -131.653 1534.48 -116.769 1571.55 -96.8831C1608.63 -76.993 1631.37 -52.1449 1636.34 -22.9343Z" stroke="#2C6588"/>
<path d="M1765.22 -47.5445C1771.24 -12.1004 1755.15 25.4609 1720.7 63.068C1686.26 100.669 1633.52 138.245 1566.44 173.685C1432.29 244.563 1240.87 306.847 1023.98 343.719C807.099 380.59 605.851 385.062 455.813 362.497C380.791 351.214 318.602 333.176 273.667 309.07C228.725 284.96 201.125 254.826 195.099 219.382C189.073 183.938 205.166 146.377 239.615 108.77C274.059 71.1688 326.794 33.593 393.873 -1.84743C528.025 -72.7256 719.444 -135.009 936.331 -171.881C1153.22 -208.753 1354.46 -213.224 1504.5 -190.659C1579.52 -179.377 1641.71 -161.338 1686.65 -137.232C1731.59 -113.122 1759.19 -82.9886 1765.22 -47.5445Z" stroke="#2C6588"/>
<path d="M1938.61 -72.3973C1945.86 -29.7368 1926.49 15.4555 1885.06 60.683C1843.63 105.905 1780.22 151.09 1699.56 193.705C1538.25 278.932 1308.08 353.821 1047.3 398.155C786.522 442.489 544.54 447.866 364.129 420.734C273.92 407.167 199.134 385.476 145.093 356.485C91.0442 327.489 57.8269 291.237 50.5744 248.576C43.3219 205.916 62.6934 160.724 104.124 115.496C145.548 70.2745 208.965 25.0888 289.623 -17.5259C450.932 -102.753 681.097 -177.642 941.878 -221.976C1202.66 -266.31 1444.64 -271.687 1625.05 -244.555C1715.26 -230.988 1790.05 -209.297 1844.09 -180.305C1898.14 -151.31 1931.35 -115.058 1938.61 -72.3973Z" stroke="#2C6588"/>
<path d="M2107.56 -97.2259C2116.02 -47.4469 2093.42 5.27273 2045.1 58.0173C1996.79 110.756 1922.84 163.448 1828.78 213.14C1640.69 312.52 1372.3 399.845 1068.22 451.54C764.142 503.235 481.979 509.505 271.607 477.867C166.417 462.047 79.2056 436.754 16.1811 402.942C-46.8505 369.127 -85.6083 326.84 -94.0709 277.061C-102.534 227.282 -79.9274 174.562 -31.6113 121.818C16.6993 69.0792 90.6533 16.3869 184.705 -33.3047C372.804 -132.685 641.187 -220.01 945.267 -271.705C1249.35 -323.399 1531.51 -329.67 1741.88 -298.032C1847.07 -282.212 1934.28 -256.918 1997.31 -223.107C2060.34 -189.292 2099.1 -147.005 2107.56 -97.2259Z" stroke="#2C6588"/>
</g>
<defs>
<clipPath id="clip0_254_1415">
<rect width="1032" height="566" fill="white" transform="translate(-78 -66)"/>
</clipPath>
</defs>
</svg>
