<svg width="1440" height="706" viewBox="0 0 1440 706" fill="none" xmlns="http://www.w3.org/2000/svg">
<path d="M1129.49 15.5233C1111.23 30.8948 1110.86 30.9002 1097.55 16.002C1110.34 31.3542 1110.28 31.7135 1092.39 47.5274C1110.66 32.1558 1111.02 32.1505 1124.33 47.0486C1111.55 31.6964 1111.61 31.3372 1129.49 15.5233Z" fill="#F4C193"/>
<path opacity="0.2" fill-rule="evenodd" clip-rule="evenodd" d="M1568.39 65.1185C1536.26 47.5808 1478.53 25.2628 1409.66 15.2622C1340.8 5.26126 1260.77 7.57411 1184.1 39.3366C1160.11 49.2728 1143.48 61.4701 1132.23 75.245C1120.98 89.0223 1115.14 104.351 1112.69 120.512C1108.48 148.31 1114.3 178.622 1119.91 207.779L1119.91 207.794C1120.81 212.491 1121.71 217.157 1122.56 221.779C1125.62 238.459 1128.05 254.553 1127.87 269.389C1127.68 284.222 1124.89 297.764 1117.53 309.359C1102.82 332.535 1069.72 348.153 1001.94 350.425C899.941 353.844 830.038 323.961 770.815 298.643C751.368 290.329 733.073 282.508 715.171 276.52C678.965 264.409 644.386 259.821 605.249 273.959C566.138 288.089 522.539 320.898 468.222 383.427C413.976 445.872 368.705 464.416 328.321 458.744C287.878 453.064 252.155 423.087 217.047 388.01C208.566 379.536 200.121 370.766 191.657 361.975C165.13 334.424 138.409 306.672 109.772 287.242C90.8704 274.419 71.1022 265.195 49.9622 262.037C28.815 258.878 6.32678 261.792 -18 273.195L-17.5756 274.101C6.58482 262.776 28.8747 259.898 49.8144 263.026C70.7613 266.156 90.3889 275.3 109.21 288.07C137.753 307.435 164.368 335.077 190.879 362.61C199.357 371.415 207.824 380.209 216.34 388.717C251.436 423.782 287.371 454.003 328.182 459.735C369.051 465.474 414.631 446.643 468.977 384.082C523.25 321.605 566.713 288.944 605.589 274.9C644.439 260.865 678.772 265.399 714.854 277.468C732.656 283.423 750.888 291.218 770.293 299.514L770.294 299.515C829.545 324.846 899.729 354.852 1001.97 351.424C1069.81 349.15 1103.38 333.517 1118.37 309.895C1125.87 298.091 1128.68 284.347 1128.87 269.402C1129.05 254.461 1126.6 238.285 1123.54 221.598C1122.69 216.967 1121.79 212.296 1120.89 207.601L1120.88 207.564C1115.28 178.393 1109.49 148.274 1113.68 120.662C1116.11 104.648 1121.89 89.4945 1133.01 75.8775C1144.13 62.2579 1160.61 50.1485 1184.48 40.2605C1260.94 8.58566 1340.78 6.26866 1409.52 16.2518C1478.26 26.2354 1535.89 48.5155 1567.91 65.9962L1568.39 65.1185ZM1429.87 55.6685C1498.73 65.6691 1556.46 87.987 1588.59 105.525L1588.11 106.403C1556.09 88.9218 1498.47 66.6416 1429.72 56.6581C1360.98 46.6749 1281.15 48.9919 1204.68 80.6668C1180.81 90.5548 1164.33 102.664 1153.21 116.284C1142.09 129.901 1136.31 145.054 1133.88 161.068C1129.7 188.681 1135.48 218.799 1141.09 247.97C1141.99 252.678 1142.89 257.361 1143.74 262.005C1146.81 278.691 1149.25 294.867 1149.07 309.808C1148.89 324.753 1146.07 338.497 1138.58 350.301C1123.58 373.924 1090.02 389.557 1022.18 391.831C919.932 395.258 849.748 365.252 790.497 339.921L790.496 339.921C771.091 331.624 752.859 323.829 735.057 317.875C698.975 305.805 664.642 301.271 625.792 315.306C586.916 329.35 543.453 362.011 489.18 424.489C434.834 487.049 389.254 505.881 348.385 500.141C307.574 494.409 271.639 464.188 236.543 429.123C228.027 420.615 219.56 411.821 211.082 403.016C184.571 375.483 157.956 347.841 129.413 328.476C110.592 315.707 90.9643 306.562 70.0174 303.432C49.0777 300.304 26.7878 303.182 2.62744 314.507L2.203 313.602C26.5298 302.199 49.018 299.284 70.1652 302.443C91.3052 305.602 111.073 314.825 129.975 327.649C158.612 347.078 185.333 374.83 211.86 402.381C220.324 411.172 228.769 419.943 237.25 428.416C272.358 463.493 308.081 493.471 348.524 499.151C388.908 504.822 434.179 486.278 488.425 423.833C542.742 361.304 586.341 328.495 625.452 314.366C664.589 300.227 699.168 304.815 735.374 316.926C753.276 322.915 771.571 330.736 791.018 339.049C850.241 364.367 920.144 394.25 1022.14 390.831C1089.92 388.559 1123.02 372.941 1137.73 349.765C1145.09 338.17 1147.89 324.628 1148.07 309.796C1148.25 294.959 1145.82 278.865 1142.76 262.185C1141.91 257.559 1141.01 252.887 1140.11 248.185C1134.51 219.029 1128.68 188.716 1132.89 160.918C1135.34 144.757 1141.19 129.429 1152.44 115.651C1163.68 101.876 1180.32 89.6791 1204.3 79.7429C1280.98 47.9804 1361 45.6675 1429.87 55.6685ZM1608.79 145.93C1576.67 128.392 1518.93 106.074 1450.07 96.0738C1381.2 86.0728 1301.18 88.3857 1224.5 120.148C1200.52 130.084 1183.89 142.282 1172.64 156.057C1161.39 169.834 1155.55 185.162 1153.1 201.323C1148.88 229.121 1154.71 259.434 1160.31 288.59L1160.32 288.647L1160.35 288.775C1161.24 293.415 1162.13 298.025 1162.96 302.59C1166.03 319.27 1168.46 335.364 1168.27 350.201C1168.09 365.033 1165.3 378.575 1157.94 390.17C1143.22 413.346 1110.12 428.965 1042.35 431.236C940.347 434.655 870.444 404.772 811.221 379.454C791.774 371.141 773.479 363.32 755.577 357.332C719.371 345.221 684.792 340.632 645.655 354.771C606.544 368.9 562.945 401.709 508.628 464.238C454.382 526.683 409.111 545.228 368.727 539.556C328.284 533.876 292.561 503.898 257.453 468.821C248.972 460.348 240.527 451.578 232.063 442.787C205.536 415.235 178.815 387.483 150.178 368.054C131.276 355.23 111.508 346.007 90.3682 342.849C69.221 339.689 46.7328 342.604 22.406 354.007L22.8304 354.912C46.9908 343.587 69.2807 340.709 90.2204 343.838C111.167 346.967 130.795 356.112 149.616 368.881C178.159 388.246 204.774 415.889 231.285 443.421C239.763 452.226 248.23 461.02 256.746 469.529C291.842 504.594 327.777 534.815 368.588 540.546C409.457 546.286 455.037 527.455 509.383 464.894C563.656 402.417 607.119 369.756 645.995 355.711C684.845 341.676 719.178 346.211 755.26 358.28C773.062 364.235 791.294 372.03 810.699 380.326L810.7 380.326C869.951 405.657 940.135 435.663 1042.38 432.236C1110.22 429.962 1143.79 414.329 1158.78 390.706C1166.27 378.903 1169.09 365.159 1169.27 350.213C1169.46 335.272 1167.01 319.097 1163.95 302.41C1163.11 297.839 1162.22 293.231 1161.33 288.599L1161.31 288.497L1161.29 288.375C1155.69 259.205 1149.9 229.086 1154.09 201.473C1156.51 185.46 1162.29 170.306 1173.41 156.689C1184.53 143.069 1201.02 130.96 1224.89 121.072C1301.35 89.3972 1381.18 87.0802 1449.93 97.0634C1518.67 107.047 1576.29 129.327 1608.31 146.808L1608.79 145.93ZM1629 186.336C1596.87 168.799 1539.13 146.481 1470.27 136.48C1401.41 126.479 1321.38 128.792 1244.71 160.555C1220.72 170.491 1204.09 182.688 1192.84 196.463C1181.59 210.24 1175.75 225.569 1173.3 241.73C1169.09 269.528 1174.91 299.84 1180.52 328.997L1180.52 329.011L1180.52 329.023L1180.52 329.039C1181.43 333.727 1182.32 338.384 1183.17 342.997C1186.23 359.677 1188.66 375.771 1188.48 390.607C1188.29 405.44 1185.5 418.981 1178.14 430.577C1163.43 453.753 1130.32 469.371 1062.55 471.643C960.55 475.062 890.647 445.179 831.424 419.861C811.977 411.547 793.682 403.726 775.78 397.738C739.573 385.627 704.995 381.039 665.858 395.177C626.747 409.306 583.148 442.116 528.831 504.645C474.585 567.09 429.314 585.634 388.93 579.962C348.487 574.282 312.764 544.305 277.655 509.228C269.175 500.754 260.73 491.984 252.266 483.193C225.739 455.642 199.018 427.89 170.381 408.46C151.479 395.637 131.711 386.413 110.571 383.255C89.4239 380.096 66.9357 383.01 42.609 394.413L43.0334 395.319C67.1938 383.994 89.4836 381.116 110.423 384.244C131.37 387.374 150.998 396.518 169.819 409.288C198.362 428.653 224.977 456.295 251.488 483.828C259.966 492.633 268.433 501.427 276.949 509.935C312.045 545 347.98 575.221 388.791 580.953C429.66 586.692 475.24 567.861 529.586 505.3C583.859 442.823 627.322 410.162 666.198 396.118C705.048 382.082 739.38 386.617 775.463 398.686C793.265 404.641 811.497 412.436 830.902 420.732L830.903 420.732C890.154 446.064 960.338 476.069 1062.58 472.642C1130.42 470.368 1163.99 454.735 1178.98 431.113C1186.47 419.309 1189.29 405.565 1189.48 390.62C1189.66 375.679 1187.21 359.503 1184.15 342.816C1183.3 338.185 1182.4 333.514 1181.5 328.819L1181.49 328.782C1175.89 299.611 1170.1 269.492 1174.29 241.88C1176.72 225.866 1182.5 210.712 1193.62 197.095C1204.74 183.476 1221.22 171.366 1245.09 161.478C1321.55 129.804 1401.39 127.487 1470.13 137.47C1538.87 147.453 1596.5 169.733 1628.52 187.214L1629 186.336Z" fill="url(#paint0_linear_417_1071)"/>
<path d="M260.674 34.2299L255.176 35.6167C250.154 36.8848 246.228 41.6701 245.187 47.7973L244.05 54.4993L242.914 47.7973C241.873 41.6701 237.947 36.8848 232.922 35.6167L227.427 34.2299L232.922 32.8431C237.947 31.5749 241.873 26.787 242.914 20.6624L244.05 13.9604L245.187 20.6624C246.228 26.787 250.154 31.5749 255.176 32.8431L260.674 34.2299Z" fill="#F4C193"/>
<path d="M287.503 62.4219L283.316 63.2841C279.49 64.075 276.5 67.0543 275.707 70.8693L274.842 75.0429L273.975 70.8693C273.184 67.0543 270.194 64.075 266.366 63.2841L262.182 62.4219L266.366 61.5571C270.194 60.7688 273.184 57.7869 273.975 53.9719L274.842 49.7983L275.707 53.9719C276.5 57.7869 279.49 60.7688 283.316 61.5571L287.503 62.4219Z" fill="#F4C193"/>
<path d="M237.024 79.5063L230.296 80.2287C227.095 80.8878 224.595 83.382 223.934 86.5695L223.209 96.1637L222.484 86.5695C221.822 83.382 219.322 80.8878 216.122 80.2287L209.923 79.5063L216.122 78.7839C219.322 78.1248 221.822 75.6306 222.484 72.4405L223.209 59.8828L223.934 72.4405C224.595 75.6306 227.095 78.1248 230.296 78.7839L237.024 79.5063Z" fill="#F4C193"/>
<path d="M289 28.4668L287.584 28.8623C286.287 29.2235 285.275 30.5839 285.006 32.324L284.713 34.2302L284.421 32.324C284.152 30.5839 283.139 29.2235 281.845 28.8623L280.426 28.4668L281.845 28.074C283.139 27.7128 284.152 26.3523 284.421 24.6096L284.713 22.7061L285.006 24.6096C285.275 26.3523 286.287 27.7128 287.584 28.074L289 28.4668Z" fill="#F4C193"/>
<path d="M203.018 43.1676L201.858 43.4892C200.798 43.7845 199.968 44.8998 199.749 46.3261L199.509 47.8843L199.269 46.3261C199.05 44.8998 198.22 43.7845 197.16 43.4892L196 43.1676L197.16 42.8433C198.22 42.5506 199.05 41.4354 199.269 40.0091L199.509 38.4482L199.749 40.0091C199.968 41.4354 200.798 42.5506 201.858 42.8433L203.018 43.1676Z" fill="#F4C193"/>
<path d="M228.308 6.49634L226.71 6.94191C225.249 7.34794 224.105 8.88238 223.805 10.8466L223.472 12.9953L223.143 10.8466C222.84 8.88238 221.698 7.34794 220.237 6.94191L218.64 6.49634L220.237 6.05341C221.698 5.64475 222.84 4.11031 223.143 2.14611L223.472 0L223.805 2.14611C224.105 4.11031 225.249 5.64475 226.71 6.05341L228.308 6.49634Z" fill="#F4C193"/>
<path d="M272.037 9.6599L271.259 9.87609C270.55 10.0738 269.994 10.82 269.846 11.777L269.685 12.8211L269.524 11.777C269.377 10.82 268.82 10.0738 268.111 9.87609L267.333 9.6599L268.111 9.4437C268.82 9.24597 269.377 8.4972 269.524 7.54279L269.685 6.49609L269.846 7.54279C269.994 8.4972 270.55 9.24597 271.259 9.4437L272.037 9.6599Z" fill="#F4C193"/>
<path opacity="0.4" d="M1069 692.098C1083.34 670.938 1113.18 619.294 1117.88 582M1084.64 704C1094.42 698.049 1122.37 687.337 1156 692.098" stroke="#FF7901" stroke-width="4"/>
<defs>
<linearGradient id="paint0_linear_417_1071" x1="171.402" y1="436.781" x2="1614.9" y2="436.781" gradientUnits="userSpaceOnUse">
<stop offset="0.310417" stop-color="#4535AF" stop-opacity="0.7"/>
<stop offset="0.461458" stop-color="#F8EFF4" stop-opacity="0.1"/>
<stop offset="0.851637" stop-color="#4535AF" stop-opacity="0.8"/>
</linearGradient>
</defs>
</svg>
