<svg width="49" height="49" viewBox="0 0 49 49" fill="none" xmlns="http://www.w3.org/2000/svg">
<rect x="0.75" y="0.70752" width="48" height="48" rx="24" fill="#FF7901"/>
<path d="M13.6665 24.7074C13.6665 19.483 13.6665 16.8697 15.2893 15.2469C16.9122 13.624 19.5243 13.624 24.7498 13.624C29.9742 13.624 32.5875 13.624 34.2103 15.2469C35.8332 16.8697 35.8332 19.4819 35.8332 24.7074C35.8332 29.9317 35.8332 32.545 34.2103 34.1679C32.5875 35.7907 29.9753 35.7907 24.7498 35.7907C19.5255 35.7907 16.9122 35.7907 15.2893 34.1679C13.6665 32.545 13.6665 29.9329 13.6665 24.7074Z" stroke="white" stroke-width="1.8" stroke-linecap="round" stroke-linejoin="round"/>
<path d="M31.176 18.2905H31.1643M30 24.7072C30 26.0996 29.4469 27.4349 28.4623 28.4195C27.4777 29.4041 26.1424 29.9572 24.75 29.9572C23.3576 29.9572 22.0223 29.4041 21.0377 28.4195C20.0531 27.4349 19.5 26.0996 19.5 24.7072C19.5 23.3148 20.0531 21.9794 21.0377 20.9949C22.0223 20.0103 23.3576 19.4572 24.75 19.4572C26.1424 19.4572 27.4777 20.0103 28.4623 20.9949C29.4469 21.9794 30 23.3148 30 24.7072Z" stroke="white" stroke-width="1.8" stroke-linecap="round" stroke-linejoin="round"/>
</svg>
