<svg width="48" height="49" viewBox="0 0 48 49" fill="none" xmlns="http://www.w3.org/2000/svg">
<rect y="0.70752" width="48" height="48" rx="24" fill="#FF7901"/>
<path d="M24.3805 21.791H23.4168C22.3167 21.791 21.7672 21.791 21.4253 22.1328C21.0835 22.4747 21.0835 23.0242 21.0835 24.1243V34.041C21.0835 35.1412 21.0835 35.6907 21.4253 36.0325C21.7672 36.3743 22.3167 36.3743 23.4168 36.3743H24.0002C25.1003 36.3743 25.6498 36.3743 25.9917 36.0325C26.3335 35.6907 26.3335 35.1412 26.3335 34.041V29.9577C26.3335 28.0245 26.9495 26.4577 28.7695 26.4577C29.6795 26.4577 30.4168 27.2417 30.4168 28.2077V33.4577C30.4168 34.5578 30.4168 35.1073 30.7587 35.4492C31.1005 35.791 31.65 35.791 32.7502 35.791H33.3323C34.4313 35.791 34.982 35.791 35.3238 35.4492C35.6645 35.1073 35.6657 34.5578 35.6657 33.4588L35.6668 27.041C35.6668 24.1407 32.9088 21.791 30.18 21.791C28.626 21.791 27.24 22.5517 26.3335 23.7428C26.3335 23.0078 26.3335 22.6403 26.1737 22.3673C26.0726 22.1946 25.9287 22.0508 25.756 21.9497C25.483 21.7898 25.1155 21.7898 24.3805 21.7898M15.2502 21.791H14.6668C13.5667 21.791 13.0172 21.791 12.6753 22.1328C12.3335 22.4747 12.3335 23.0242 12.3335 24.1243V34.041C12.3335 35.1412 12.3335 35.6907 12.6753 36.0325C13.0172 36.3743 13.5667 36.3743 14.6668 36.3743H15.2502C16.3503 36.3743 16.8998 36.3743 17.2417 36.0325C17.5835 35.6907 17.5835 35.1412 17.5835 34.041V24.1243C17.5835 23.0242 17.5835 22.4747 17.2417 22.1328C16.8998 21.791 16.3503 21.791 15.2502 21.791ZM17.5835 15.666C17.5835 16.3622 17.3069 17.0299 16.8147 17.5222C16.3224 18.0145 15.6547 18.291 14.9585 18.291C14.2623 18.291 13.5946 18.0145 13.1023 17.5222C12.6101 17.0299 12.3335 16.3622 12.3335 15.666C12.3335 14.9698 12.6101 14.3021 13.1023 13.8099C13.5946 13.3176 14.2623 13.041 14.9585 13.041C15.6547 13.041 16.3224 13.3176 16.8147 13.8099C17.3069 14.3021 17.5835 14.9698 17.5835 15.666Z" stroke="white" stroke-width="1.8" stroke-linecap="round" stroke-linejoin="round"/>
</svg>
