<svg width="1440" height="613" viewBox="0 0 1440 613" fill="none" xmlns="http://www.w3.org/2000/svg">
<path opacity="0.2" fill-rule="evenodd" clip-rule="evenodd" d="M1570.46 96.0814C1538.34 78.5437 1480.6 56.2257 1411.74 46.2251C1342.87 36.2242 1262.85 38.537 1186.18 70.2996C1162.19 80.2358 1145.56 92.433 1134.31 106.208C1123.06 119.985 1117.22 135.314 1114.77 151.475C1110.55 179.273 1116.38 209.585 1121.98 238.742L1121.99 238.757C1122.89 243.454 1123.79 248.12 1124.63 252.742C1127.7 269.422 1130.13 285.515 1129.94 300.352C1129.76 315.185 1126.97 328.726 1119.61 340.322C1104.9 363.498 1071.79 379.116 1004.02 381.388C902.018 384.807 832.115 354.924 772.892 329.606C753.445 321.292 735.15 313.471 717.248 307.483C681.041 295.372 646.462 290.784 607.326 304.922C568.215 319.051 524.616 351.861 470.299 414.389C416.053 476.835 370.782 495.379 330.398 489.707C289.955 484.027 254.232 454.05 219.123 418.973C210.643 410.499 202.198 401.729 193.734 392.938C167.207 365.387 140.486 337.635 111.849 318.205C92.9472 305.382 73.1791 296.158 52.039 293C30.8918 289.841 8.40363 292.755 -15.9232 304.158L-15.4987 305.064C8.66167 293.739 30.9515 290.861 51.8912 293.989C72.8381 297.119 92.4658 306.263 111.287 319.033C139.83 338.398 166.445 366.04 192.955 393.573C201.433 402.378 209.901 411.172 218.417 419.68C253.513 454.745 289.448 484.966 330.259 490.698C371.128 496.437 416.708 477.606 471.053 415.045C525.327 352.568 568.79 319.907 607.666 305.863C646.516 291.827 680.848 296.362 716.931 308.431C734.732 314.386 752.965 322.181 772.37 330.477L772.371 330.477C831.622 355.809 901.806 385.814 1004.05 382.387C1071.89 380.113 1105.46 364.48 1120.45 340.858C1127.94 329.054 1130.76 315.31 1130.94 300.365C1131.13 285.424 1128.68 269.248 1125.62 252.561C1124.77 247.93 1123.87 243.259 1122.97 238.564L1122.96 238.527C1117.36 209.356 1111.57 179.237 1115.76 151.625C1118.18 135.611 1123.97 120.457 1135.08 106.84C1146.21 93.2208 1162.69 81.1114 1186.56 71.2234C1263.02 39.5486 1342.85 37.2316 1411.6 47.2147C1480.34 57.1983 1537.96 79.4784 1569.98 96.9592L1570.46 96.0814ZM1431.94 86.6314C1500.81 96.632 1558.54 118.95 1590.67 136.488L1590.19 137.365C1558.17 119.885 1500.54 97.6045 1431.8 87.621C1363.06 77.6378 1283.22 79.9548 1206.76 111.63C1182.89 121.518 1166.41 133.627 1155.29 147.247C1144.17 160.864 1138.39 176.017 1135.96 192.031C1131.77 219.644 1137.56 249.762 1143.16 278.933L1143.17 278.97C1144.07 283.665 1144.97 288.336 1145.82 292.968C1148.88 309.654 1151.33 325.83 1151.15 340.771C1150.96 355.716 1148.15 369.46 1140.65 381.264C1125.66 404.887 1092.09 420.52 1024.25 422.794C922.009 426.221 851.825 396.215 792.574 370.884L792.573 370.883C773.168 362.587 754.936 354.792 737.134 348.838C701.052 336.768 666.719 332.234 627.869 346.269C588.993 360.313 545.53 392.974 491.257 455.452C436.911 518.012 391.331 536.844 350.462 531.104C309.651 525.372 273.716 495.151 238.62 460.086C230.104 451.578 221.637 442.784 213.159 433.979C186.648 406.446 160.033 378.804 131.49 359.439C112.669 346.67 93.0412 337.525 72.0944 334.395C51.1546 331.267 28.8648 334.145 4.7044 345.47L4.27997 344.565C28.6068 333.161 51.0949 330.247 72.2421 333.406C93.3822 336.565 113.15 345.788 132.052 358.612C160.689 378.041 187.41 405.793 213.937 433.344C222.401 442.135 230.846 450.906 239.327 459.379C274.435 494.456 310.158 524.434 350.601 530.113C390.985 535.785 436.256 517.241 490.502 454.796C544.819 392.267 588.418 359.458 627.529 345.328C666.666 331.19 701.245 335.778 737.451 347.889C755.353 353.878 773.648 361.699 793.095 370.012C852.318 395.33 922.221 425.213 1024.22 421.794C1092 419.522 1125.1 403.904 1139.81 380.728C1147.17 369.133 1149.96 355.591 1150.15 340.758C1150.33 325.922 1147.9 309.828 1144.84 293.148C1143.99 288.527 1143.09 283.86 1142.19 279.163L1142.19 279.148C1136.58 249.992 1130.76 219.679 1134.97 191.881C1137.42 175.72 1143.26 160.391 1154.51 146.614C1165.76 132.839 1182.39 120.642 1206.38 110.706C1283.05 78.9433 1363.08 76.6304 1431.94 86.6314ZM1610.87 176.893C1578.74 159.355 1521.01 137.037 1452.15 127.037C1383.28 117.036 1303.26 119.349 1226.58 151.111C1202.6 161.047 1185.96 173.245 1174.72 187.019C1163.47 200.797 1157.62 216.125 1155.17 232.286C1150.96 260.084 1156.79 290.397 1162.39 319.553L1162.39 319.567L1162.4 319.579L1162.4 319.596C1163.3 324.283 1164.19 328.941 1165.04 333.553C1168.1 350.233 1170.53 366.327 1170.35 381.164C1170.17 395.996 1167.37 409.538 1160.01 421.133C1145.3 444.309 1112.2 459.928 1044.42 462.199C942.424 465.618 872.521 435.735 813.298 410.417C793.851 402.104 775.556 394.283 757.654 388.295C721.448 376.184 686.869 371.595 647.732 385.734C608.621 399.863 565.023 432.672 510.705 495.201C456.459 557.646 411.189 576.19 370.804 570.519C330.361 564.839 294.638 534.861 259.53 499.784C251.049 491.311 242.604 482.54 234.14 473.75C207.613 446.198 180.892 418.446 152.255 399.017C133.353 386.193 113.585 376.97 92.4453 373.812C71.2981 370.652 48.8099 373.567 24.4831 384.97L24.9075 385.875C49.0679 374.55 71.3578 371.672 92.2975 374.801C113.244 377.93 132.872 387.075 151.693 399.844C180.236 419.209 206.852 446.851 233.362 474.384C241.84 483.189 250.307 491.983 258.823 500.491C293.919 535.556 329.855 565.777 370.665 571.509C411.535 577.249 457.114 558.418 511.46 495.857C565.733 433.38 609.196 400.719 648.072 386.674C686.922 372.639 721.255 377.173 757.337 389.243C775.139 395.198 793.371 402.992 812.776 411.289L812.777 411.289C872.028 436.62 942.213 466.626 1044.46 463.199C1112.3 460.925 1145.86 445.292 1160.86 421.669C1168.35 409.865 1171.17 396.121 1171.35 381.176C1171.53 366.235 1169.09 350.059 1166.02 333.373C1165.17 328.741 1164.28 324.07 1163.38 319.375L1163.37 319.338C1157.76 290.167 1151.98 260.049 1156.16 232.436C1158.59 216.423 1164.37 201.269 1175.49 187.652C1186.61 174.032 1203.09 161.923 1226.96 152.035C1303.43 120.36 1383.26 118.043 1452 128.026C1520.75 138.01 1578.37 160.29 1610.39 177.771L1610.87 176.893ZM1631.07 217.299C1598.95 199.761 1541.21 177.443 1472.35 167.443C1403.48 157.442 1323.46 159.755 1246.78 191.517C1222.8 201.454 1206.17 213.651 1194.92 227.426C1183.67 241.203 1177.83 256.531 1175.38 272.693C1171.16 300.49 1176.99 330.803 1182.59 359.959L1182.6 359.973L1182.6 359.986C1183.5 364.679 1184.4 369.342 1185.24 373.96C1188.31 390.639 1190.74 406.733 1190.55 421.57C1190.37 436.402 1187.58 449.944 1180.22 461.54C1165.51 484.715 1132.4 500.334 1064.63 502.606C962.628 506.025 892.725 476.141 833.501 450.824C814.055 442.51 795.759 434.689 777.857 428.701C741.651 416.59 707.072 412.001 667.935 426.14C628.825 440.269 585.226 473.079 530.908 535.607C476.663 598.052 431.392 616.597 391.007 610.925C350.564 605.245 314.842 575.267 279.733 540.19C271.252 531.717 262.808 522.947 254.344 514.156C227.816 486.604 201.096 458.852 172.458 439.423C153.557 426.599 133.788 417.376 112.648 414.218C91.5012 411.058 69.013 413.973 44.6862 425.376L45.1107 426.282C69.271 414.956 91.5609 412.078 112.501 415.207C133.447 418.336 153.075 427.481 171.897 440.251C200.439 459.615 227.055 487.258 253.565 514.791C262.043 523.596 270.51 532.389 279.026 540.898C314.123 575.963 350.058 606.184 390.868 611.915C431.738 617.655 477.317 598.824 531.663 536.263C585.936 473.786 629.399 441.125 668.275 427.08C707.126 413.045 741.458 417.58 777.54 429.649C795.342 435.604 813.574 443.399 832.979 451.695L832.98 451.695C892.231 477.026 962.416 507.032 1064.66 503.605C1132.5 501.331 1166.07 485.698 1181.06 462.076C1188.55 450.272 1191.37 436.528 1191.55 421.582C1191.74 406.641 1189.29 390.466 1186.23 373.779C1185.38 369.147 1184.48 364.477 1183.58 359.781L1183.57 359.745C1177.97 330.574 1172.18 300.455 1176.37 272.842C1178.79 256.829 1184.57 241.675 1195.69 228.058C1206.82 214.439 1223.3 202.329 1247.17 192.441C1323.63 160.766 1403.46 158.449 1472.21 168.433C1540.95 178.416 1598.57 200.696 1630.59 218.177L1631.07 217.299Z" fill="url(#paint0_linear_1336_6892)"/>
<path d="M1311.15 167.35C1150.57 102.947 1430.39 6.64801 1550.53 15.9013C1541.79 245.981 1640.8 477.805 1500.74 486.216C1279.92 499.477 1513.32 248.43 1311.15 167.35Z" fill="#21A736" fill-opacity="0.06"/>
<path d="M106.015 29.3953L101.345 30.5779C97.0789 31.6592 93.7441 35.7397 92.8595 40.9644L91.8942 46.6793L90.9289 40.9644C90.0443 35.7397 86.7095 31.6592 82.4408 30.5779L77.7734 29.3953L82.4408 28.2128C86.7095 27.1314 90.0443 23.0487 90.9289 17.8262L91.8942 12.1113L92.8595 17.8262C93.7441 23.0487 97.0789 27.1314 101.345 28.2128L106.015 29.3953Z" fill="#A6DCAF"/>
<path d="M128.806 53.4352L125.25 54.1703C122 54.8448 119.46 57.3852 118.786 60.6383L118.051 64.1972L117.315 60.6383C116.643 57.3852 114.103 54.8448 110.851 54.1703L107.297 53.4352L110.851 52.6978C114.103 52.0256 116.643 49.4829 117.315 46.2298L118.051 42.6709L118.786 46.2298C119.46 49.4829 122 52.0256 125.25 52.6978L128.806 53.4352Z" fill="#A6DCAF"/>
<path d="M85.9272 68.0027L80.2117 68.6187C77.4928 69.1808 75.3697 71.3075 74.8075 74.0256L74.1916 82.2067L73.5758 74.0256C73.0136 71.3075 70.8905 69.1808 68.1716 68.6187L62.9062 68.0027L68.1716 67.3867C70.8905 66.8247 73.0136 64.6979 73.5758 61.9776L74.1916 51.2695L74.8075 61.9776C75.3697 64.6979 77.4928 66.8247 80.2117 67.3867L85.9272 68.0027Z" fill="#A6DCAF"/>
<path d="M130.08 24.4806L128.877 24.8179C127.776 25.1259 126.916 26.2859 126.687 27.7697L126.438 29.3951L126.19 27.7697C125.961 26.2859 125.101 25.1259 124.002 24.8179L122.797 24.4806L124.002 24.1456C125.101 23.8376 125.961 22.6776 126.19 21.1915L126.438 19.5684L126.687 21.1915C126.916 22.6776 127.776 23.8376 128.877 24.1456L130.08 24.4806Z" fill="#A6DCAF"/>
<path d="M57.04 37.0164L56.0545 37.2907C55.1542 37.5425 54.4487 38.4935 54.2629 39.7097L54.059 41.0384L53.8552 39.7097C53.6694 38.4935 52.9639 37.5425 52.0636 37.2907L51.0781 37.0164L52.0636 36.7399C52.9639 36.4904 53.6694 35.5394 53.8552 34.3231L54.059 32.9922L54.2629 34.3231C54.4487 35.5394 55.1542 36.4904 56.0545 36.7399L57.04 37.0164Z" fill="#A6DCAF"/>
<path d="M78.5252 5.74654L77.1679 6.12648C75.9272 6.4727 74.9552 7.78114 74.6999 9.45603L74.4177 11.2883L74.1378 9.45603C73.8802 7.78114 72.9104 6.4727 71.6697 6.12648L70.3125 5.74654L71.6697 5.36885C72.9104 5.02038 73.8802 3.71194 74.1378 2.03705L74.4177 0.207031L74.6999 2.03705C74.9552 3.71194 75.9272 5.02038 77.1679 5.36885L78.5252 5.74654Z" fill="#A6DCAF"/>
<path d="M115.667 8.44391L115.007 8.62826C114.404 8.79687 113.932 9.4331 113.806 10.2492L113.67 11.1395L113.533 10.2492C113.408 9.4331 112.935 8.79687 112.333 8.62826L111.672 8.44391L112.333 8.25956C112.935 8.09094 113.408 7.45246 113.533 6.63862L113.67 5.74609L113.806 6.63862C113.932 7.45246 114.404 8.09094 115.007 8.25956L115.667 8.44391Z" fill="#A6DCAF"/>
<defs>
<linearGradient id="paint0_linear_1336_6892" x1="173.481" y1="467.743" x2="1616.98" y2="467.743" gradientUnits="userSpaceOnUse">
<stop offset="0.310417" stop-color="#4535AF" stop-opacity="0.7"/>
<stop offset="0.461458" stop-color="#F8EFF4" stop-opacity="0.1"/>
<stop offset="0.851637" stop-color="#4535AF" stop-opacity="0.8"/>
</linearGradient>
</defs>
</svg>
