<svg width="290" height="118" viewBox="0 0 290 118" fill="none" xmlns="http://www.w3.org/2000/svg">
<path opacity="0.06" d="M309 67.1326C309 71.1971 307.81 75.2033 305.282 78.3859C291.053 96.2995 270.065 109.535 246.844 115.039C221.507 121.053 193.766 117.814 170.813 106.164C158.312 99.8183 147.096 91.0573 133.597 86.8425C107.302 78.6404 78.002 89.2198 50.933 83.5844C32.2079 79.6822 15.6324 67.6915 6.95236 51.7797C0.325897 39.618 -1.58698 25.3483 1.31378 11.9985C2.95886 4.42748 10.3185 0 18.0662 0H289C300.046 0 309 8.9543 309 20V67.1326Z" fill="url(#paint0_linear_193_2389)"/>
<defs>
<linearGradient id="paint0_linear_193_2389" x1="154.505" y1="118.005" x2="154.505" y2="0.00984629" gradientUnits="userSpaceOnUse">
<stop stop-color="white"/>
<stop offset="1" stop-color="white"/>
</linearGradient>
</defs>
</svg>
