<svg width="159" height="58" viewBox="0 0 159 58" fill="none" xmlns="http://www.w3.org/2000/svg">
<rect x="0.5" width="58" height="58" rx="29" fill="white" fill-opacity="0.24"/>
<path d="M29.4998 37.567H29.5156M24.5566 33.6125C27.193 30.9761 31.8066 30.9761 34.443 33.6125M38.068 29.6579C33.1011 25.2644 26.2044 25.2644 20.9316 29.6579" stroke="white" stroke-width="2" stroke-linecap="round" stroke-linejoin="round"/>
<path d="M16.3179 25.7031C24.6435 18.6732 34.3559 18.6732 42.6815 25.7031" stroke="white" stroke-width="2" stroke-linecap="round" stroke-linejoin="round"/>
<path d="M80.25 24.5005C80.25 24.3016 80.171 24.1108 80.0303 23.9702C79.8897 23.8295 79.6989 23.7505 79.5 23.7505C79.3011 23.7505 79.1103 23.8295 78.9697 23.9702C78.829 24.1108 78.75 24.3016 78.75 24.5005V28.2505H75C74.8011 28.2505 74.6103 28.3295 74.4697 28.4702C74.329 28.6108 74.25 28.8016 74.25 29.0005C74.25 29.1994 74.329 29.3902 74.4697 29.5308C74.6103 29.6715 74.8011 29.7505 75 29.7505H78.75V33.5005C78.75 33.6994 78.829 33.8902 78.9697 34.0308C79.1103 34.1715 79.3011 34.2505 79.5 34.2505C79.6989 34.2505 79.8897 34.1715 80.0303 34.0308C80.171 33.8902 80.25 33.6994 80.25 33.5005V29.7505H84C84.1989 29.7505 84.3897 29.6715 84.5303 29.5308C84.671 29.3902 84.75 29.1994 84.75 29.0005C84.75 28.8016 84.671 28.6108 84.5303 28.4702C84.3897 28.3295 84.1989 28.2505 84 28.2505H80.25V24.5005Z" fill="white"/>
<rect x="100.5" width="58" height="58" rx="29" fill="white" fill-opacity="0.24"/>
<path d="M129.5 38.1432C130.228 38.1432 130.818 37.553 130.818 36.825C130.818 36.097 130.228 35.5068 129.5 35.5068C128.772 35.5068 128.182 36.097 128.182 36.825C128.182 37.553 128.772 38.1432 129.5 38.1432Z" fill="white"/>
<path d="M135.731 42.0999H123.269C122.442 42.0506 121.668 41.6766 121.115 41.0595C120.562 40.4423 120.276 39.6319 120.317 38.8044V19.1978C120.276 18.3704 120.562 17.5599 121.115 16.9428C121.668 16.3256 122.442 15.9517 123.269 15.9023H135.731C136.558 15.9517 137.332 16.3256 137.885 16.9428C138.438 17.5599 138.724 18.3704 138.682 19.1978V38.8044C138.724 39.6319 138.438 40.4423 137.885 41.0595C137.332 41.6766 136.558 42.0506 135.731 42.0999ZM123.269 17.2205C122.792 17.2709 122.354 17.5061 122.049 17.8758C121.743 18.2455 121.595 18.7201 121.636 19.1978V38.8044C121.595 39.2822 121.743 39.7568 122.049 40.1264C122.354 40.4961 122.792 40.7313 123.269 40.7817H135.731C136.208 40.7313 136.646 40.4961 136.951 40.1264C137.257 39.7568 137.405 39.2822 137.364 38.8044V19.1978C137.405 18.7201 137.257 18.2455 136.951 17.8758C136.646 17.5061 136.208 17.2709 135.731 17.2205H123.269Z" fill="white"/>
</svg>
