<svg width="77" height="23" viewBox="0 0 77 23" fill="none" xmlns="http://www.w3.org/2000/svg">
<path d="M7.03125 0.671875V19.8594H15.7969V22H0.84375V0.671875H7.03125ZM25.8438 0.296875C32.0521 0.296875 35.1562 3.97396 35.1562 11.3281C35.1562 18.6823 31.9948 22.3594 25.6719 22.3594C19.349 22.3594 16.1875 18.599 16.1875 11.0781C16.1875 3.89062 19.4062 0.296875 25.8438 0.296875ZM25.6719 2C24.5052 2 23.7135 2.64583 23.2969 3.9375C22.8906 5.21875 22.6875 7.68229 22.6875 11.3281C22.6875 14.974 22.8906 17.4427 23.2969 18.7344C23.7135 20.0156 24.5052 20.6562 25.6719 20.6562C26.8385 20.6562 27.625 20.0156 28.0312 18.7344C28.4479 17.4427 28.6562 14.974 28.6562 11.3281C28.6562 7.69271 28.4479 5.22917 28.0312 3.9375C27.625 2.64583 26.8385 2 25.6719 2ZM46.25 10.4844H55.0312V22H53.0625L52.3906 20.5312C50.6719 21.75 48.8542 22.3594 46.9375 22.3594C43.7812 22.3594 41.3281 21.4167 39.5781 19.5312C37.8385 17.6354 36.9688 14.9688 36.9688 11.5312C36.9688 8.1875 37.8906 5.48438 39.7344 3.42188C41.5885 1.34896 44.0104 0.3125 47 0.3125C50.9375 0.3125 53.3333 2.32292 54.1875 6.34375L51.2812 7.67188V7.15625L51.2344 6C51.0365 3.48958 49.875 2.23438 47.75 2.23438C46.1875 2.23438 45.1198 2.90104 44.5469 4.23438C43.974 5.56771 43.6875 8.05208 43.6875 11.6875C43.6875 15.0833 43.9167 17.3906 44.375 18.6094C44.8438 19.8281 45.7292 20.4375 47.0312 20.4375C48.5625 20.4375 49.3281 19.5833 49.3281 17.875V12.625H46.25V10.4844ZM66.8125 0.296875C73.0208 0.296875 76.125 3.97396 76.125 11.3281C76.125 18.6823 72.9635 22.3594 66.6406 22.3594C60.3177 22.3594 57.1562 18.599 57.1562 11.0781C57.1562 3.89062 60.375 0.296875 66.8125 0.296875ZM66.6406 2C65.474 2 64.6823 2.64583 64.2656 3.9375C63.8594 5.21875 63.6562 7.68229 63.6562 11.3281C63.6562 14.974 63.8594 17.4427 64.2656 18.7344C64.6823 20.0156 65.474 20.6562 66.6406 20.6562C67.8073 20.6562 68.5938 20.0156 69 18.7344C69.4167 17.4427 69.625 14.974 69.625 11.3281C69.625 7.69271 69.4167 5.22917 69 3.9375C68.5938 2.64583 67.8073 2 66.6406 2Z" fill="#413E3E"/>
</svg>
