<svg width="190" height="79" viewBox="0 0 190 79" fill="none" xmlns="http://www.w3.org/2000/svg">
<path d="M155.463 32.5376C159.975 32.5376 162.257 33.3149 164.042 34.9136C165.774 36.4668 166.535 38.2216 166.771 41.4497H161.84C161.699 39.9976 161.268 39.1659 160.404 38.3638C159.512 37.536 158.45 37.1138 155.463 37.1138C152.47 37.1138 151.083 37.7364 150.108 38.8608C149.135 39.9825 148.843 41.6248 148.843 43.814C148.843 46.003 149.134 47.6711 150.108 48.7983C151.083 49.9242 152.47 50.5298 155.463 50.5298C158.133 50.5298 159.434 50.0776 160.404 49.2456C161.346 48.4392 161.699 47.5275 161.84 46.0356H166.771C166.606 49.3036 165.737 51.1678 163.987 52.7183C162.184 54.3155 159.902 55.0893 155.463 55.0894C151.024 55.0894 148.521 54.1727 146.562 52.2944C144.611 50.4203 143.78 47.5948 143.78 43.814C143.78 40.0331 144.575 37.2076 146.509 35.3335C148.449 33.4538 150.952 32.5376 155.463 32.5376ZM17.6982 37.6167H11.4658V54.5688H6.17676L6.23145 37.6167H0V32.9644H17.6982V37.6167ZM32.5137 32.9634C35.5613 32.9634 37.7252 33.6879 38.917 35.0151C40.1092 36.3426 40.6689 37.6918 40.6689 40.0327C40.6688 43.8312 38.6272 45.9364 35.8428 46.8774L40.3174 54.561H34.7002L30.7109 47.4888H24.9873V54.5688H19.9102V32.9634H32.5137ZM61.0547 37.6167H47.6387V41.5825H58.626L56.9053 45.8149H47.6387V49.895H55.5371L53.5645 54.5688H42.8066V32.9644H62.7939L61.0547 37.6167ZM82.126 46.2798L90.207 32.9644H95.0127V54.5688H90.082V41.687L82.126 54.2847L74.042 41.6987V54.5688H69.1113V45.7036H60.7256L62.3447 41.5825H69.1113V32.9644H74.209L82.126 46.2798ZM120.101 54.5688H114.768L113.274 50.5737H103.604L102.11 54.5688H96.707L105.172 32.9644H111.635L120.101 54.5688ZM134.056 32.9634C137.103 32.9634 139.267 33.6879 140.459 35.0151C141.651 36.3425 142.211 37.8334 142.211 40.1743C142.211 44.0731 140.06 46.1164 137.163 46.978L141.718 54.561H136.1L131.981 47.4888H126.671V54.5688H121.594V32.9634H134.056ZM189.929 54.5688H184.596L183.103 50.5737H173.432L171.938 54.5688H166.534L175 32.9644H181.463L189.929 54.5688ZM105.072 46.4722H111.781L108.439 37.2271L105.072 46.4722ZM174.9 46.4722H181.609L178.268 37.2271L174.9 46.4722ZM24.9873 42.8433H32.5137C34.3825 42.8433 35.4032 41.8624 35.4033 40.0327C35.4031 38.228 34.3606 37.6167 32.5137 37.6167H24.9873V42.8433ZM126.671 42.8433H134.056C135.925 42.8433 136.945 42.0042 136.945 40.1743C136.945 38.3696 135.903 37.6167 134.056 37.6167H126.671V42.8433Z" fill="#042F4B"/>
<path fill-rule="evenodd" clip-rule="evenodd" d="M62.5542 17.0985H73.643V21.8813H57.3498V8.49744H70.4626V12.9433H62.5542V17.0985ZM73.458 4.79532H57.3498V0.0117797H73.458V4.79532ZM118.565 4.79532V0.0117797H126.19L133.274 12.8828V21.8813H128.096V13.6171L123.137 4.79532H118.565ZM49.9129 0.0117797H55.174L49.1657 18.849L46.7077 10.7554L49.9129 0.0117797ZM17.4177 0.0117797V4.79532H11.2846V21.8813H6.07892L6.13314 4.79532H0V0.0117797H17.4177ZM116.592 0.0117797V4.79532H110.459V21.8813H105.253L105.308 4.79532H99.1745V0.0117797H116.592ZM19.4003 4.79532V0.0117797H27.5395L34.0707 21.8813H28.7413L23.6057 4.79532H19.4003ZM41.4611 1.78038L48.0286 21.8813H42.8516L38.6691 8.23592H38.6404L35.3283 18.9998L32.9229 10.6565L35.9352 1.78038H41.4611ZM91.9857 0.0117797H97.1913V18.2846L92.0023 10.6455L91.9857 0.0117797ZM82.489 0.0117797L97.2028 21.8813H91.3548L76.641 0.0117797H82.489ZM141.836 4.96181H138.163L140.002 2.81311L141.836 4.96181ZM142.216 4.73799L140.289 2.47855L142.216 0.223823V4.73799ZM138.163 0H141.835L140.002 2.14399L138.163 0ZM137.651 0.0698963L139.717 2.47855L137.651 4.89192L135.585 2.47855L137.651 0.0698963ZM137.137 4.96181H133.464L135.298 2.81311L137.137 4.96181ZM133.075 4.73878V0.223038L135.011 2.47855L133.075 4.73878ZM133.457 0H137.13L135.298 2.14399L133.457 0ZM76.6072 3.75607L81.8071 11.4116V21.8813H76.6072V3.75607Z" fill="#042F4B"/>
<path d="M6.61597 74.3286H6.68921L10.7419 68.4858H11.8542V76.4429H10.6521V70.6069H10.5789L6.53394 76.4429H5.42554V68.4858H6.61597V74.3286ZM14.699 71.9438H18.6697V68.4858H19.8748V76.4429H18.6697V72.9731H14.699V76.4429H13.4968V68.4858H14.699V71.9438ZM27.2859 69.519H24.8015V76.4429H23.6033V69.519H21.1228V68.4858H27.2859V69.519ZM33.532 69.519H29.74V71.9438H33.2712V72.9731H29.74V75.4087H33.5779V76.4429H28.5388V68.4858H33.532V69.519ZM37.866 68.4858C38.4855 68.4859 38.999 68.5984 39.406 68.8237C39.8129 69.0491 40.1179 69.3575 40.3201 69.7485C40.5221 70.1368 40.6227 70.5744 40.6228 71.061C40.6228 71.5505 40.5209 71.9913 40.3162 72.3823C40.114 72.7708 39.8077 73.0792 39.3982 73.3071C38.9912 73.5325 38.479 73.645 37.8621 73.645H36.2283V76.4429H35.0271V68.4858H37.866ZM43.1355 71.6948H44.9128C45.5038 71.6949 46.0069 71.7903 46.4216 71.9819C46.8364 72.1736 47.1521 72.4448 47.3699 72.7944C47.5902 73.1441 47.6996 73.5558 47.697 74.0298C47.6996 74.5038 47.5902 74.9221 47.3699 75.2847C47.1522 75.6471 46.8362 75.9307 46.4216 76.1353C46.0069 76.3398 45.5038 76.4428 44.9128 76.4429H41.9294V68.4858H43.1355V71.6948ZM54.0457 69.519H50.2537V71.9438H53.7849V72.9731H50.2537V75.4087H54.0925V76.4429H49.0525V68.4858H54.0457V69.519ZM58.3796 68.4858C58.9992 68.4858 59.5127 68.5984 59.9197 68.8237C60.3267 69.0491 60.6315 69.3574 60.8337 69.7485C61.0358 70.1369 61.1364 70.5744 61.1365 71.061C61.1365 71.5505 61.0346 71.9912 60.8298 72.3823C60.6276 72.7708 60.3215 73.0792 59.9119 73.3071C59.5049 73.5324 58.9927 73.645 58.3757 73.645H56.7429V76.4429H55.5408V68.4858H58.3796ZM63.6375 71.9438H67.6082V68.4858H68.8132V76.4429H67.6082V72.9731H63.6375V76.4429H62.4363V68.4858H63.6375V71.9438ZM71.6677 71.6948H73.4441C74.035 71.6948 74.5382 71.7904 74.9529 71.9819C75.3677 72.1736 75.6843 72.4448 75.9021 72.7944C76.1224 73.1441 76.2309 73.5559 76.2283 74.0298C76.2309 74.5038 76.1225 74.9221 75.9021 75.2847C75.6843 75.6473 75.3677 75.9306 74.9529 76.1353C74.5381 76.3398 74.0351 76.4429 73.4441 76.4429H70.4617V68.4858H71.6677V71.6948ZM78.1687 76.4429H76.9636V68.4858H78.1687V76.4429ZM84.8015 69.519H81.0105V71.9438H84.5408V72.9731H81.0105V75.4087H84.8484V76.4429H79.8083V68.4858H84.8015V69.519ZM92.8005 68.4858C93.4201 68.4858 93.9336 68.5984 94.3406 68.8237C94.7476 69.0491 95.0524 69.3574 95.2546 69.7485C95.4567 70.1369 95.5573 70.5744 95.5574 71.061C95.5574 71.5505 95.4555 71.9913 95.2507 72.3823C95.0485 72.7708 94.7424 73.0792 94.3328 73.3071C93.9258 73.5325 93.4136 73.645 92.7966 73.645H91.1638V76.4429H89.9617V68.4858H92.8005ZM101.85 69.519H98.0583V71.9438H101.59V72.9731H98.0583V75.4087H101.896V76.4429H96.8572V68.4858H101.85V69.519ZM104.64 75.4009H107.269V68.4858H108.46V75.4009H111.08V68.4858H112.266V76.4429H103.451V68.4858H104.64V75.4009ZM119.009 69.519H115.218V71.9438H118.748V72.9731H115.218V75.4087H119.055V76.4429H114.015V68.4858H119.009V69.519ZM121.706 71.9438H125.677V68.4858H126.882V76.4429H125.677V72.9731H121.706V76.4429H120.505V68.4858H121.706V71.9438ZM129.712 74.3286H129.786L133.838 68.4858H134.95V76.4429H133.749V70.6069H133.675L129.631 76.4429H128.522V68.4858H129.712V74.3286ZM142.24 76.4429H141.034V73.4312H139.401C139.376 73.4312 139.351 73.4295 139.327 73.4292L137.706 76.4429H136.341L138.103 73.2261C138.021 73.1952 137.941 73.1623 137.865 73.1245C137.458 72.9199 137.152 72.6339 136.947 72.2661C136.745 71.8958 136.644 71.4669 136.644 70.98C136.644 70.4905 136.745 70.059 136.947 69.686C137.149 69.3105 137.454 69.0166 137.861 68.8042C138.271 68.5918 138.783 68.4858 139.397 68.4858H142.24V76.4429ZM43.1355 75.4321H44.9128C45.2575 75.4321 45.5481 75.3646 45.7839 75.23C46.0223 75.0953 46.2022 74.9204 46.324 74.7056C46.4484 74.4906 46.5105 74.2602 46.5105 74.0142C46.5105 73.6567 46.3732 73.3497 46.0984 73.0933C45.8236 72.8344 45.4285 72.7046 44.9128 72.7046H43.1355V75.4321ZM71.6677 75.4321H73.4441C73.7888 75.4321 74.0793 75.3646 74.3152 75.23C74.5537 75.0953 74.7344 74.9205 74.8562 74.7056C74.9806 74.4907 75.0427 74.2601 75.0427 74.0142C75.0427 73.6567 74.9054 73.3497 74.6306 73.0933C74.3558 72.8342 73.96 72.7046 73.4441 72.7046H71.6677V75.4321ZM36.2283 72.6274H37.7527C38.1441 72.6274 38.4621 72.56 38.7058 72.4253C38.9495 72.288 39.1289 72.1014 39.2429 71.8657C39.3569 71.6301 39.4138 71.3614 39.4138 71.061C39.4138 70.7609 39.3568 70.4942 39.2429 70.2612C39.1289 70.0281 38.9482 69.8455 38.7019 69.7134C38.4582 69.5813 38.1363 69.5151 37.7371 69.5151H36.2283V72.6274ZM56.7429 72.6274H58.2673C58.6585 72.6274 58.9759 72.5598 59.2195 72.4253C59.4632 72.288 59.6425 72.1014 59.7566 71.8657C59.8706 71.63 59.9275 71.3615 59.9275 71.061C59.9274 70.7608 59.8706 70.4942 59.7566 70.2612C59.6425 70.0281 59.4619 69.8455 59.2156 69.7134C58.972 69.5814 58.6507 69.5152 58.2517 69.5151H56.7429V72.6274ZM91.1638 72.6274H92.6882C93.0794 72.6274 93.3968 72.5599 93.6404 72.4253C93.8841 72.288 94.0634 72.1014 94.1775 71.8657C94.2915 71.63 94.3484 71.3615 94.3484 71.061C94.3483 70.7608 94.2914 70.4942 94.1775 70.2612C94.0634 70.0281 93.8828 69.8455 93.6365 69.7134C93.3929 69.5814 93.0716 69.5152 92.6726 69.5151H91.1638V72.6274ZM139.525 69.5151C139.131 69.5152 138.811 69.5748 138.565 69.6938C138.319 69.8104 138.138 69.9786 138.024 70.1987C137.91 70.4189 137.853 70.6795 137.853 70.98C137.853 71.2778 137.91 71.5332 138.024 71.7456C138.138 71.9579 138.318 72.1196 138.561 72.231C138.805 72.3423 139.122 72.3979 139.513 72.3979H141.034V69.5151H139.525Z" fill="#042F4B"/>
</svg>
