<svg width="284" height="110" viewBox="0 0 284 110" fill="none" xmlns="http://www.w3.org/2000/svg">
<path d="M280.958 0.711594C280.798 0.182777 280.24 -0.11679 279.712 0.0424918L271.094 2.63815C270.565 2.79743 270.266 3.35524 270.425 3.88406C270.584 4.41288 271.142 4.71245 271.671 4.55316L279.331 2.24591L281.638 9.90598C281.797 10.4348 282.355 10.7344 282.884 10.5751C283.413 10.4158 283.712 9.85798 283.553 9.32917L280.958 0.711594ZM0.146718 1.52145C0.488461 2.08066 0.833785 2.6414 1.18266 3.20356L2.882 2.14894C2.53554 1.59067 2.19263 1.03384 1.85328 0.47855L0.146718 1.52145ZM3.31827 6.59256C4.03819 7.71795 4.77184 8.84803 5.51897 9.98195L7.18904 8.88156C6.44685 7.75513 5.7181 6.63259 5.00303 5.5148L3.31827 6.59256ZM7.73556 13.2985C8.48701 14.4071 9.25099 15.5186 10.0273 16.6321L11.6679 15.4883C10.8967 14.382 10.1376 13.2777 9.39108 12.1763L7.73556 13.2985ZM12.3308 19.8915C13.1072 20.9752 13.8949 22.0602 14.6938 23.1456L16.3046 21.96C15.5107 20.8815 14.728 19.8035 13.9566 18.7268L12.3308 19.8915ZM17.0979 26.3682C17.8993 27.4282 18.7112 28.4879 19.5333 29.5467L21.113 28.3202C20.2962 27.2681 19.4895 26.2152 18.6933 25.1621L17.0979 26.3682ZM22.0303 32.7199C22.858 33.7577 23.6954 34.794 24.5423 35.8281L26.0896 34.5609C25.2482 33.5335 24.4162 32.504 23.5939 31.4729L22.0303 32.7199ZM27.1096 38.9211C27.9699 39.9436 28.8394 40.9634 29.7181 41.9798L31.2311 40.6719C30.3584 39.6623 29.4947 38.6493 28.6401 37.6335L27.1096 38.9211ZM32.36 44.9948C33.2495 45.9961 34.1478 46.9934 35.0547 47.9862L36.5314 46.6373C35.6308 45.6514 34.7387 44.661 33.8552 43.6665L32.36 44.9948ZM37.7798 50.9278C38.6954 51.9022 39.6192 52.8715 40.5512 53.8352L41.9888 52.4449C41.0636 51.4882 40.1464 50.5258 39.2373 49.5583L37.7798 50.9278ZM43.3677 56.7051C44.3112 57.6524 45.2626 58.5934 46.2217 59.5277L47.6173 58.0951C46.6654 57.1679 45.7212 56.2339 44.7847 55.2937L43.3677 56.7051ZM49.1221 62.3097C50.0959 63.2292 51.0772 64.1414 52.0659 65.0457L53.4157 63.5699C52.4349 62.6729 51.4614 61.7679 50.4952 60.8556L49.1221 62.3097ZM55.0531 67.7332C56.0562 68.6208 57.0666 69.4999 58.0841 70.3699L59.3838 68.8498C58.3751 67.9873 57.3732 67.1156 56.3784 66.2353L55.0531 67.7332ZM61.1645 72.9577C62.1983 73.8107 63.239 74.654 64.2866 75.487L65.5313 73.9216C64.4934 73.0962 63.462 72.2605 62.4374 71.415L61.1645 72.9577ZM67.4571 77.9602C68.5237 78.7762 69.597 79.5812 70.6769 80.3744L71.861 78.7626C70.7917 77.9771 69.7288 77.18 68.6723 76.3717L67.4571 77.9602ZM73.9359 82.7187C75.036 83.4933 76.1426 84.2554 77.2555 85.0045L78.3723 83.3454C77.2712 82.6043 76.1762 81.85 75.0873 81.0834L73.9359 82.7187ZM80.6162 87.2143C81.7459 87.9395 82.8817 88.6509 84.0236 89.348L85.0656 87.6409C83.9369 86.9519 82.8138 86.2484 81.6966 85.5312L80.6162 87.2143ZM87.4898 91.4085C88.6512 92.0804 89.8185 92.737 90.9915 93.3778L91.9503 91.6225C90.7919 90.9898 89.6388 90.3411 88.4913 89.6773L87.4898 91.4085ZM94.556 95.2664C95.7528 95.8808 96.9553 96.4785 98.1633 97.0586L99.0291 95.2557C97.8374 94.6834 96.6508 94.0937 95.4695 93.4872L94.556 95.2664ZM101.813 98.7499C103.045 99.2999 104.281 99.8313 105.524 100.343L106.286 98.4945C105.062 97.9898 103.843 97.466 102.629 96.9238L101.813 98.7499ZM109.266 101.822C110.527 102.298 111.793 102.754 113.065 103.189L113.712 101.297C112.461 100.868 111.214 100.419 109.972 99.9505L109.266 101.822ZM116.901 104.433C118.187 104.827 119.478 105.2 120.774 105.549L121.295 103.618C120.022 103.275 118.752 102.909 117.487 102.521L116.901 104.433ZM124.691 106.534C126.002 106.839 127.317 107.121 128.636 107.379L129.019 105.416C127.724 105.163 126.432 104.886 125.145 104.586L124.691 106.534ZM132.612 108.079C133.942 108.288 135.276 108.472 136.614 108.63L136.849 106.644C135.536 106.489 134.227 106.308 132.922 106.103L132.612 108.079ZM140.632 109.026C141.972 109.131 143.316 109.21 144.662 109.263L144.74 107.264C143.42 107.213 142.103 107.135 140.789 107.032L140.632 109.026ZM148.712 109.338C150.051 109.336 151.393 109.306 152.738 109.249L152.653 107.251C151.336 107.307 150.021 107.336 148.709 107.338L148.712 109.338ZM156.777 108.994C158.114 108.882 159.453 108.741 160.795 108.573L160.546 106.588C159.231 106.754 157.919 106.891 156.61 107.001L156.777 108.994ZM164.782 107.987C166.114 107.764 167.447 107.512 168.782 107.231L168.37 105.274C167.062 105.549 165.755 105.796 164.451 106.015L164.782 107.987ZM172.685 106.326C173.984 105.997 175.285 105.64 176.587 105.254L176.02 103.337C174.743 103.715 173.468 104.065 172.194 104.387L172.685 106.326ZM180.452 104.027C181.706 103.601 182.962 103.148 184.218 102.668L183.504 100.8C182.271 101.271 181.039 101.715 179.809 102.133L180.452 104.027ZM187.989 101.144C189.212 100.623 190.436 100.075 191.66 99.5005L190.811 97.6899C189.608 98.2543 188.406 98.792 187.206 99.3036L187.989 101.144ZM195.261 97.7335C196.462 97.1184 197.663 96.4769 198.864 95.8087L197.892 94.0609C196.71 94.7182 195.529 95.3489 194.349 95.9536L195.261 97.7335ZM202.323 93.8106C203.458 93.1301 204.594 92.4254 205.73 91.696L204.649 90.0131C203.531 90.7314 202.413 91.4252 201.295 92.095L202.323 93.8106ZM209.137 89.4337C210.223 88.6889 211.309 87.9212 212.394 87.1304L211.217 85.5139C210.146 86.2937 209.076 87.0504 208.006 87.7844L209.137 89.4337ZM215.592 84.7333C216.658 83.9117 217.723 83.0674 218.788 82.2003L217.525 80.6494C216.474 81.5055 215.422 82.3388 214.371 83.1494L215.592 84.7333ZM221.875 79.6206C222.87 78.7688 223.863 77.8966 224.857 77.004L223.52 75.5164C222.538 76.3987 221.556 77.2604 220.574 78.1019L221.875 79.6206ZM227.835 74.2642C228.823 73.3344 229.81 72.3841 230.797 71.413L229.394 69.9876C228.418 70.9484 227.441 71.8884 226.464 72.8078L227.835 74.2642ZM233.563 68.6336C234.485 67.6888 235.406 66.7256 236.326 65.7437L234.867 64.3759C233.956 65.3482 233.044 66.3019 232.132 67.2371L233.563 68.6336ZM239.086 62.7421C239.98 61.7497 240.875 60.7395 241.768 59.7113L240.258 58.3995C239.373 59.4186 238.487 60.4196 237.6 61.4028L239.086 62.7421ZM244.323 56.719C245.174 55.705 246.025 54.6745 246.874 53.6272L245.321 52.3671C244.478 53.4059 243.635 54.4278 242.791 55.4332L244.323 56.719ZM249.421 50.4351C250.245 49.3849 251.068 48.3187 251.891 47.2365L250.299 46.0263C249.482 47.1004 248.665 48.1584 247.848 49.2004L249.421 50.4351ZM254.245 44.0921C255.029 43.0292 255.812 41.9515 256.595 40.8588L254.969 39.6943C254.192 40.7795 253.414 41.8496 252.636 42.9049L254.245 44.0921ZM258.94 37.5358C259.715 36.4217 260.489 35.2928 261.263 34.1489L259.606 33.0288C258.837 34.1654 258.068 35.287 257.298 36.3938L258.94 37.5358ZM263.429 30.9022C264.15 29.8067 264.871 28.6982 265.591 27.5763L263.907 26.4962C263.192 27.6115 262.475 28.7135 261.759 29.8022L263.429 30.9022ZM267.748 24.1707C268.466 23.0221 269.183 21.8602 269.9 20.6847L268.192 19.6436C267.48 20.8127 266.766 21.9682 266.052 23.1103L267.748 24.1707ZM271.973 17.2433C272.636 16.1284 273.299 15.0018 273.96 13.8633L272.231 12.8581C271.573 13.9907 270.914 15.1116 270.254 16.2206L271.973 17.2433ZM275.944 10.4126C276.604 9.25056 277.264 8.07659 277.922 6.89067L276.174 5.91952C275.518 7.09984 274.862 8.26816 274.205 9.42457L275.944 10.4126ZM279.896 3.29694C280.225 2.69202 280.553 2.08408 280.881 1.47313L279.119 0.526873C278.792 1.13509 278.466 1.74028 278.139 2.34245L279.896 3.29694Z" fill="#FF2D59"/>
</svg>
