<svg width="503" height="312" viewBox="0 0 503 312" fill="none" xmlns="http://www.w3.org/2000/svg">
<path d="M151.653 52.1606C169.683 21.6489 194.348 -4.82898 223.945 -25.4467C253.543 -46.0644 287.369 -60.3313 323.09 -67.2634C358.811 -74.1954 395.578 -73.6277 430.855 -65.5993C466.131 -57.5708 499.077 -42.2728 527.421 -20.7604L456.154 65.2025C440.639 53.4266 422.604 45.0525 403.294 40.6577C383.984 36.263 363.858 35.9522 344.304 39.7468C324.75 43.5414 306.234 51.3511 290.032 62.6372C273.83 73.9233 260.329 88.4173 250.459 105.119L151.653 52.1606Z" fill="white" fill-opacity="0.09"/>
<path d="M570.341 266.721C551.163 296.59 525.512 322.192 495.159 341.762C464.806 361.331 430.472 374.402 394.525 380.073C358.579 385.744 321.875 383.88 286.947 374.61C252.018 365.339 219.695 348.883 192.207 326.375L266.684 242.944C281.731 255.265 299.425 264.273 318.545 269.348C337.665 274.422 357.756 275.443 377.433 272.339C397.11 269.234 415.905 262.079 432.52 251.367C449.135 240.654 463.176 226.64 473.675 210.289L570.341 266.721Z" fill="white" fill-opacity="0.09"/>
<path d="M246.156 167.242L135.643 284.14L106.537 87.336L246.156 167.242Z" fill="white" fill-opacity="0.09"/>
<path d="M183.619 176.491L73.1057 293.389L44.0001 96.5851L183.619 176.491Z" fill="white" fill-opacity="0.09"/>
</svg>
