<svg width="1440" height="272" viewBox="0 0 1440 272" fill="none" xmlns="http://www.w3.org/2000/svg">
<path d="M575.666 146.063C575.666 146.063 542.089 143.724 521.074 145.095C499.411 146.508 487.007 148.499 466.481 155.565C446.289 162.515 437.292 167.069 417.871 172.017C394.095 178.076 380.332 181.295 355.8 181.739C311.392 182.543 283.874 177.263 245.119 155.565C210.331 136.087 201.304 109.127 172.578 83.9919C154.63 68.2872 136.125 61.8808 111.255 60.0608C80.5937 57.8171 59.654 62.8321 24.5054 71.0583C-10.6433 79.2845 -31.1639 87.7182 -66.7315 98.7285C-66.7315 98.7285 -117.325 114.681 -149.742 124.903" stroke="#FF2D59" stroke-width="8.97412"/>
<path d="M1589.74 127.971C1589.74 127.971 1556.17 130.31 1535.15 128.939C1513.49 127.527 1501.08 125.536 1480.56 118.47C1460.37 111.519 1451.37 106.966 1431.95 102.017C1408.17 95.9586 1394.41 92.739 1369.88 92.295C1325.47 91.4913 1297.95 96.7707 1259.2 118.47C1224.41 137.948 1215.38 164.908 1186.65 190.042C1168.71 205.747 1150.2 212.153 1125.33 213.973C1094.67 216.217 1073.73 211.202 1038.58 202.976C1003.43 194.75 982.912 186.316 947.345 175.306C947.345 175.306 896.752 159.353 864.334 149.131" stroke="#FF2D59" stroke-width="8.97412"/>
<path d="M710.359 64.6645C710.19 64.7976 705.143 58.6757 699.087 50.9924C693.03 43.3075 688.259 36.9703 688.428 36.8372C688.597 36.7041 693.643 42.8244 699.699 50.5108C705.755 58.1941 710.528 64.5314 710.359 64.6645Z" fill="#263238"/>
<path d="M730.935 69.1755C730.721 69.1935 729.285 53.7206 727.728 34.6207C726.171 15.5148 725.082 0.0164682 725.296 1.56019e-05C725.51 -0.0179326 726.946 15.452 728.504 34.5579C730.06 53.6578 731.149 69.1576 730.935 69.1755Z" fill="#263238"/>
<path d="M746.909 65.3855C746.714 65.2943 750.89 56.0525 756.235 44.748C761.582 33.4392 766.072 24.3499 766.266 24.4426C766.461 24.5353 762.286 33.7727 756.939 45.0816C751.595 56.3845 747.103 65.4768 746.909 65.3855Z" fill="#263238"/>
<path d="M740.304 200.929C740.475 200.799 745.437 206.988 751.389 214.752C757.341 222.519 762.026 228.919 761.855 229.051C761.685 229.181 756.722 222.994 750.771 215.226C744.82 207.462 740.134 201.061 740.304 200.929Z" fill="#263238"/>
<path d="M726.571 202.32C726.785 202.305 728.011 217.796 729.308 236.915C730.606 256.041 731.482 271.551 731.269 271.566C731.055 271.581 729.828 256.093 728.53 236.968C727.235 217.848 726.357 202.334 726.571 202.32Z" fill="#263238"/>
<path d="M714.286 199.161C714.479 199.255 710.179 208.439 704.681 219.67C699.182 230.904 694.569 239.932 694.374 239.838C694.181 239.744 698.482 230.562 703.981 219.328C709.479 208.096 714.094 199.067 714.286 199.161Z" fill="#263238"/>
<path d="M785.721 89.8549L814.725 93.2307C838.476 95.9947 855.49 117.489 852.724 141.241L852.033 147.174C849.269 170.926 827.775 187.939 804.023 185.175L775.019 181.799C764.009 180.518 756.122 170.555 757.404 159.543L763.465 107.47C764.747 96.4599 774.711 88.5731 785.721 89.8549Z" fill="#FF2D59"/>
<g opacity="0.3">
<path d="M779.388 182.308C779.388 182.308 791.86 169.038 795.658 132.711C798.444 106.061 789.713 90.3201 789.713 90.3201L786.199 89.9117C786.199 89.9117 792.058 128.565 788.31 137.551C784.561 146.537 777.844 182.128 777.844 182.128L779.388 182.308Z" fill="black"/>
</g>
<path d="M755.125 133.688C758.979 100.572 762.376 71.3878 780.176 75.8299C789.926 78.2634 795.125 104.779 791.271 137.893C787.417 171.009 776.208 194.646 766.22 195.751C749.199 197.634 751.27 166.804 755.125 133.688Z" fill="#FF2D59"/>
<path d="M783.104 136.941C786.958 103.825 783.255 76.1852 774.833 75.2051C766.411 74.2249 756.46 100.276 752.606 133.392C748.752 166.508 752.455 194.148 760.876 195.128C769.298 196.108 779.249 170.057 783.104 136.941Z" fill="#FF2D59"/>
<g opacity="0.3">
<path d="M783.104 136.941C786.958 103.825 783.255 76.1852 774.833 75.2051C766.411 74.2249 756.46 100.276 752.606 133.392C748.752 166.508 752.455 194.148 760.876 195.128C769.298 196.108 779.249 170.057 783.104 136.941Z" fill="black"/>
</g>
<path d="M766.22 195.753C766.164 195.631 768.181 195.646 770.8 193.561C773.421 191.542 776.372 187.648 779.05 182.366C784.428 171.775 788.826 155.737 790.897 137.733C792.985 119.725 792.457 103.11 789.736 91.5481C788.387 85.7837 786.419 81.3011 784.285 78.7734C782.146 76.1829 780.091 75.9481 780.176 75.8314C780.176 75.8314 780.647 75.8733 781.458 76.2323C782.273 76.5718 783.401 77.3062 784.515 78.576C786.77 81.1022 788.844 85.6222 790.272 91.4195C793.153 103.048 793.766 119.746 791.67 137.823C789.59 155.899 785.088 172.001 779.539 182.618C776.776 187.912 773.718 191.816 770.982 193.802C769.63 194.807 768.405 195.335 767.545 195.543C766.691 195.771 766.22 195.753 766.22 195.753Z" fill="#263238"/>
<path d="M760.874 195.131C760.87 195.071 761.338 195.119 762.156 194.881C762.974 194.664 764.13 194.103 765.33 193.011C767.762 190.85 770.306 186.767 772.56 181.393C777.123 170.63 780.827 154.757 782.906 137.04C784.97 119.313 784.825 103.008 782.803 91.4974C781.814 85.7525 780.318 81.1921 778.535 78.47C777.663 77.1014 776.72 76.2369 775.997 75.7942C775.281 75.3305 774.811 75.2692 774.832 75.2079C774.835 75.1944 774.946 75.2198 775.16 75.2811C775.378 75.335 775.695 75.4352 776.075 75.6581C776.845 76.0679 777.856 76.9279 778.787 78.301C780.689 81.0336 782.279 85.6253 783.344 91.3987C785.519 102.969 785.751 119.343 783.679 137.131C781.593 154.903 777.794 170.821 773.066 181.611C770.731 186.997 768.084 191.095 765.529 193.24C764.27 194.324 763.048 194.86 762.195 195.033C761.77 195.149 761.435 195.144 761.212 195.146C760.988 195.149 760.874 195.144 760.874 195.131Z" fill="#263238"/>
<path d="M771.39 117.528C770.758 122.961 768.848 127.202 767.123 127.002C765.399 126.802 764.513 122.234 765.146 116.801C765.779 111.369 767.689 107.127 769.413 107.328C771.138 107.528 772.022 112.094 771.39 117.528Z" fill="#263238"/>
<path d="M767.874 153.959C767.241 159.391 765.331 163.633 763.607 163.432C761.882 163.232 760.997 158.664 761.63 153.232C762.262 147.799 764.172 143.558 765.897 143.758C767.621 143.958 768.507 148.525 767.874 153.959Z" fill="#263238"/>
<path d="M848 154.741L868.326 157.127L871.076 144.241L852.509 138.481L848 154.741Z" fill="#FF2D59"/>
<path d="M868.217 157.508C867.995 157.472 868.39 154.433 869.268 150.786C870.145 147.143 870.875 144.208 871.078 144.241C871.299 144.277 870.903 147.316 870.027 150.963C869.15 154.605 868.42 157.539 868.217 157.508Z" fill="#263238"/>
<path d="M853.089 129.992C853.143 129.986 853.242 130.469 853.373 131.351C853.514 132.232 853.641 133.519 853.734 135.111C853.916 138.294 853.849 142.733 853.061 147.554C852.279 152.378 850.907 156.612 849.615 159.535C848.979 161 848.396 162.156 847.94 162.924C847.491 163.696 847.22 164.108 847.174 164.083C847.057 164.02 847.971 162.278 849.106 159.327C850.255 156.383 851.52 152.189 852.294 147.428C853.071 142.671 853.225 138.291 853.185 135.129C853.14 131.966 852.964 130.007 853.089 129.992Z" fill="#263238"/>
<path d="M667.798 174.029L639.078 179.297C615.558 183.61 592.995 168.042 588.682 144.524L587.603 138.647C583.29 115.127 598.858 92.565 622.377 88.2514L651.097 82.9836C661.999 80.9839 672.458 88.2006 674.458 99.1026L683.917 150.668C685.916 161.57 678.7 172.029 667.798 174.029Z" fill="#FF2D59"/>
<g opacity="0.3">
<path d="M646.771 83.7764C646.771 83.7764 638.734 100.118 645.742 135.964C650.885 162.261 663.845 174.753 663.845 174.753L667.324 174.114C667.324 174.114 650.401 138.873 651.351 129.183C652.302 119.492 648.3 83.4952 648.3 83.4952L646.771 83.7764Z" fill="black"/>
</g>
<path d="M684.211 123.156C690.227 155.948 695.528 184.847 677.206 185.814C667.169 186.343 654.432 162.514 648.418 129.721C642.404 96.9294 646.197 71.045 655.424 67.0635C671.147 60.2791 678.197 90.3648 684.211 123.156Z" fill="#FF2D59"/>
<path d="M686.706 122.699C692.722 155.49 690.837 183.313 682.497 184.843C674.159 186.373 662.522 161.03 656.507 128.237C650.493 95.4456 652.376 67.6229 660.716 66.0928C669.056 64.5642 680.692 89.9071 686.706 122.699Z" fill="#FF2D59"/>
<g opacity="0.3">
<path d="M686.706 122.699C692.722 155.49 690.837 183.313 682.497 184.843C674.159 186.373 662.522 161.03 656.507 128.237C650.493 95.4456 652.376 67.6229 660.716 66.0928C669.056 64.5642 680.692 89.9071 686.706 122.699Z" fill="black"/>
</g>
<path d="M714.364 104.634L668.257 113.092C668.163 113.108 668.064 113.069 668.007 112.993C664.548 108.331 663.698 103.711 665.46 99.1309C665.491 99.0487 665.566 98.9874 665.653 98.9709L711.774 90.5098C715.675 89.7949 719.415 92.3764 720.13 96.2757C720.847 100.176 718.264 103.917 714.364 104.634Z" fill="#E0E0E0"/>
<path d="M714.364 104.634C714.352 104.584 714.818 104.527 715.621 104.194C716.414 103.868 717.574 103.222 718.578 101.925C719.574 100.658 720.338 98.6313 719.921 96.3489C719.534 94.1099 717.755 91.6914 714.939 90.9331C713.537 90.4903 712.057 90.7132 710.45 91.0587C708.851 91.3593 707.19 91.6719 705.471 91.995C702.025 92.6381 698.349 93.3247 694.482 94.0471C686.733 95.4785 678.226 97.0489 669.293 98.6987C668.176 98.9036 667.065 99.107 665.961 99.3089L665.755 99.3463C665.693 99.3598 665.801 99.3299 665.799 99.3074C665.837 99.2401 665.805 99.3119 665.782 99.3837L665.714 99.5766C665.627 99.8339 665.526 100.087 665.461 100.35C665.306 100.869 665.192 101.395 665.105 101.925C664.755 104.046 665.035 106.206 665.764 108.159C666.126 109.139 666.577 110.076 667.105 110.963C667.379 111.4 667.642 111.843 667.946 112.256L668.167 112.57C668.236 112.676 668.356 112.815 668.257 112.73C668.119 112.722 668.311 112.707 668.433 112.68L668.815 112.612C670.843 112.244 672.828 111.885 674.765 111.533C682.5 110.147 689.473 108.896 695.356 107.84C701.17 106.826 705.897 106.002 709.251 105.417C710.842 105.157 712.103 104.951 713.035 104.798C713.902 104.663 714.36 104.607 714.364 104.634C714.369 104.66 713.922 104.768 713.063 104.952C712.137 105.141 710.885 105.395 709.305 105.716C705.963 106.36 701.25 107.267 695.454 108.383C689.579 109.486 682.617 110.791 674.893 112.239C672.958 112.598 670.973 112.968 668.948 113.343L668.568 113.413L668.377 113.449C668.363 113.46 668.101 113.494 667.982 113.425C667.849 113.394 667.68 113.193 667.677 113.172L667.561 113.011L667.333 112.688C667.018 112.262 666.743 111.804 666.458 111.352C665.906 110.434 665.43 109.453 665.047 108.424C664.275 106.372 663.969 104.064 664.34 101.807C664.432 101.244 664.552 100.685 664.717 100.135C664.785 99.8563 664.892 99.5886 664.983 99.3164L665.053 99.113C665.082 99.0576 665.073 98.9829 665.204 98.8079C665.292 98.6762 665.536 98.5835 665.614 98.582L665.82 98.5446C666.924 98.3427 668.034 98.1378 669.153 97.9329C678.088 96.3056 686.598 94.7545 694.352 93.3411C698.223 92.6441 701.904 91.98 705.354 91.3593C707.076 91.0512 708.741 90.7536 710.341 90.4679C711.891 90.1448 713.609 89.901 715.088 90.4036C718.119 91.2591 719.982 93.89 720.349 96.2727C720.75 98.7061 719.89 100.824 718.814 102.113C717.73 103.437 716.503 104.055 715.676 104.342C714.837 104.634 714.364 104.634 714.364 104.634Z" fill="#263238"/>
<path d="M721.351 142.718L675.089 151.203C671.853 146.855 670.478 142.226 672.499 137.08L718.76 128.595C722.661 127.88 726.402 130.461 727.117 134.36C727.832 138.263 725.25 142.003 721.351 142.718Z" fill="#E0E0E0"/>
<path d="M721.351 142.718C721.339 142.669 721.804 142.614 722.607 142.279C723.4 141.953 724.561 141.306 725.564 140.007C726.56 138.74 727.323 136.712 726.906 134.428C726.517 132.189 724.734 129.77 721.916 129.015C720.513 128.574 719.032 128.799 717.425 129.145C715.826 129.446 714.162 129.758 712.442 130.081C708.995 130.724 705.317 131.412 701.449 132.135C693.695 133.566 685.185 135.138 676.25 136.788C675.013 137.015 673.783 137.24 672.567 137.462L672.859 137.222C671.903 139.6 671.679 142.19 672.247 144.571C672.795 146.962 674.002 149.102 675.387 150.98L675.02 150.837C688.395 148.441 699.946 146.371 708.232 144.886C712.293 144.187 715.551 143.628 717.869 143.228C718.944 143.056 719.8 142.92 720.449 142.817C721.038 142.732 721.346 142.697 721.351 142.718C721.355 142.739 721.055 142.817 720.474 142.944C719.831 143.077 718.983 143.254 717.915 143.475C715.607 143.925 712.362 144.558 708.317 145.346C700.043 146.899 688.51 149.063 675.155 151.57L674.928 151.613L674.789 151.426C673.359 149.5 672.089 147.277 671.501 144.743C670.889 142.22 671.13 139.437 672.135 136.939L672.216 136.737L672.427 136.698C673.643 136.475 674.872 136.249 676.109 136.022C685.049 134.393 693.564 132.842 701.321 131.429C705.193 130.732 708.877 130.068 712.327 129.447C714.05 129.139 715.715 128.841 717.317 128.554C718.868 128.231 720.585 127.986 722.066 128.485C725.099 129.339 726.964 131.969 727.335 134.353C727.737 136.786 726.877 138.906 725.802 140.197C724.718 141.52 723.491 142.139 722.662 142.427C721.823 142.72 721.351 142.718 721.351 142.718Z" fill="#263238"/>
<path d="M655.424 67.0635C655.512 67.1622 653.58 67.738 651.686 70.5005C649.77 73.1988 648.091 77.7876 647.078 83.6222C645.038 95.323 645.53 111.946 648.824 129.767C652.102 147.597 657.475 163.329 663.462 173.586C666.44 178.703 669.636 182.412 672.417 184.204C675.219 186.056 677.254 185.677 677.207 185.814C677.207 185.814 676.744 185.912 675.864 185.806C674.985 185.721 673.691 185.348 672.255 184.461C669.358 182.706 666.052 178.992 662.988 173.868C656.827 163.592 651.35 147.808 648.058 129.908C644.752 112.016 644.341 95.3005 646.537 83.5235C647.627 77.6514 649.408 73.0238 651.441 70.3226C652.439 68.966 653.457 68.1015 654.217 67.6513C654.968 67.1831 655.424 67.0635 655.424 67.0635Z" fill="#263238"/>
<path d="M660.717 66.0927C660.739 66.1496 660.277 66.2393 659.565 66.7075C658.847 67.1547 657.905 68.0282 657.078 69.4236C655.385 72.2026 654.149 76.8512 653.568 82.65C652.356 94.2775 653.466 110.539 656.667 128.087C659.885 145.641 664.8 161.187 670.105 171.603C672.733 176.807 675.499 180.728 678.001 182.809C679.237 183.862 680.391 184.412 681.212 184.623C682.033 184.856 682.5 184.777 682.497 184.843C682.497 184.856 682.385 184.865 682.162 184.868C681.938 184.882 681.604 184.877 681.176 184.776C680.319 184.61 679.102 184.083 677.81 183.044C675.191 180.987 672.325 177.064 669.616 171.856C664.148 161.431 659.13 145.843 655.901 128.228C652.691 110.624 651.661 94.2909 653.02 82.5902C653.675 76.757 655.006 72.062 656.821 69.2636C657.708 67.8591 658.719 66.9872 659.485 66.5729C659.857 66.3395 660.179 66.2453 660.391 66.178C660.603 66.1092 660.713 66.0808 660.717 66.0927Z" fill="#263238"/>
<path d="M568.979 139.257L572.355 152.418L590.749 149.733L590.813 133.972L568.979 139.257Z" fill="#FF2D59"/>
<path d="M594.268 159.048C594.223 159.077 593.924 158.677 593.42 157.925C592.91 157.179 592.25 156.042 591.534 154.591C590.077 151.7 588.513 147.464 587.581 142.602C586.663 137.735 586.561 133.221 586.854 129.996C586.987 128.382 587.183 127.084 587.383 126.203C587.576 125.319 587.706 124.837 587.759 124.848C587.893 124.872 587.536 126.834 587.403 130.032C587.253 133.225 587.44 137.662 588.345 142.458C589.265 147.25 590.72 151.444 592.032 154.359C593.332 157.282 594.383 158.977 594.268 159.048Z" fill="#263238"/>
<path d="M572.66 152.612C572.454 152.671 571.461 149.78 570.445 146.157C569.428 142.533 568.773 139.549 568.979 139.491C569.186 139.432 570.177 142.322 571.194 145.946C572.211 149.57 572.868 152.556 572.66 152.612Z" fill="#263238"/>
</svg>
