<svg width="43" height="188" viewBox="0 0 43 188" fill="none" xmlns="http://www.w3.org/2000/svg">
<path opacity="0.3" fill-rule="evenodd" clip-rule="evenodd" d="M39.7639 144.814C38.3832 144.814 37.2639 143.695 37.2639 142.314V141.839C37.2639 140.458 38.3832 139.339 39.7639 139.339C41.1446 139.339 42.2639 140.458 42.2639 141.839V142.314C42.2639 143.695 41.1446 144.814 39.7639 144.814ZM39.7639 125.316C38.3832 125.316 37.2639 124.197 37.2639 122.816V121.865C37.2639 120.485 38.3832 119.365 39.7639 119.365C41.1446 119.365 42.2639 120.485 42.2639 121.865V122.816C42.2639 124.197 41.1446 125.316 39.7639 125.316ZM39.7639 105.343C38.3832 105.343 37.2639 104.224 37.2639 102.843V101.892C37.2639 100.511 38.3832 99.3918 39.7639 99.3918C41.1446 99.3918 42.2639 100.511 42.2639 101.892V102.843C42.2639 104.224 41.1446 105.343 39.7639 105.343ZM39.7639 85.3694C38.3832 85.3694 37.2639 84.2501 37.2639 82.8694V81.9183C37.2639 80.5376 38.3832 79.4183 39.7639 79.4183C41.1446 79.4183 42.2639 80.5376 42.2639 81.9183V82.8694C42.2639 84.2501 41.1446 85.3694 39.7639 85.3694ZM39.7639 65.3958C38.3832 65.3958 37.2639 64.2766 37.2639 62.8958V61.9447C37.2639 60.564 38.3832 59.4447 39.7639 59.4447C41.1446 59.4447 42.2639 60.564 42.2639 61.9447V62.8958C42.2639 64.2766 41.1446 65.3958 39.7639 65.3958ZM39.7639 45.4223C38.3832 45.4223 37.2639 44.303 37.2639 42.9223V41.9712C37.2639 40.5905 38.3832 39.4712 39.7639 39.4712C41.1446 39.4712 42.2639 40.5905 42.2639 41.9712V42.9223C42.2639 44.303 41.1446 45.4223 39.7639 45.4223ZM39.7639 25.4488C38.3832 25.4488 37.2639 24.3295 37.2639 22.9488V21.9976C37.2639 20.6169 38.3832 19.4976 39.7639 19.4976C41.1446 19.4976 42.2639 20.6169 42.2639 21.9976V22.9488C42.2639 24.3295 41.1446 25.4488 39.7639 25.4488ZM39.7639 5.47522C38.3832 5.47522 37.2639 4.35593 37.2639 2.97522V2.49966C37.2639 1.11896 38.3832 -0.000335693 39.7639 -0.000335693C41.1446 -0.000335693 42.2639 1.11896 42.2639 2.49966V2.97522C42.2639 4.35593 41.1446 5.47522 39.7639 5.47522ZM20.9553 163.569C19.5746 163.569 18.4553 162.45 18.4553 161.069V160.594C18.4553 159.213 19.5746 158.094 20.9553 158.094C22.336 158.094 23.4553 159.213 23.4553 160.594V161.069C23.4553 162.45 22.336 163.569 20.9553 163.569ZM20.9553 144.071C19.5746 144.071 18.4553 142.952 18.4553 141.571V140.62C18.4553 139.24 19.5746 138.12 20.9553 138.12C22.336 138.12 23.4553 139.24 23.4553 140.62V141.571C23.4553 142.952 22.336 144.071 20.9553 144.071ZM20.9553 124.098C19.5746 124.098 18.4553 122.979 18.4553 121.598V120.647C18.4553 119.266 19.5746 118.147 20.9553 118.147C22.336 118.147 23.4553 119.266 23.4553 120.647V121.598C23.4553 122.979 22.336 124.098 20.9553 124.098ZM20.9553 104.124C19.5746 104.124 18.4553 103.005 18.4553 101.624V100.673C18.4553 99.2924 19.5746 98.1731 20.9553 98.1731C22.336 98.1731 23.4553 99.2924 23.4553 100.673V101.624C23.4553 103.005 22.336 104.124 20.9553 104.124ZM20.9553 84.1507C19.5746 84.1507 18.4553 83.0314 18.4553 81.6507V80.6996C18.4553 79.3189 19.5746 78.1996 20.9553 78.1996C22.336 78.1996 23.4553 79.3189 23.4553 80.6996V81.6507C23.4553 83.0314 22.336 84.1507 20.9553 84.1507ZM20.9553 64.1772C19.5746 64.1772 18.4553 63.0579 18.4553 61.6772V60.7261C18.4553 59.3454 19.5746 58.2261 20.9553 58.2261C22.336 58.2261 23.4553 59.3454 23.4553 60.7261V61.6772C23.4553 63.0579 22.336 64.1772 20.9553 64.1772ZM20.9553 44.2036C19.5746 44.2036 18.4553 43.0844 18.4553 41.7036V40.7525C18.4553 39.3718 19.5746 38.2525 20.9553 38.2525C22.336 38.2525 23.4553 39.3718 23.4553 40.7525V41.7036C23.4553 43.0844 22.336 44.2036 20.9553 44.2036ZM20.9553 24.2301C19.5746 24.2301 18.4553 23.1108 18.4553 21.7301V21.2545C18.4553 19.8738 19.5746 18.7545 20.9553 18.7545C22.336 18.7545 23.4553 19.8738 23.4553 21.2545V21.7301C23.4553 23.1108 22.336 24.2301 20.9553 24.2301ZM-0.000237226 184.926C-0.000237226 186.306 1.11905 187.426 2.49976 187.426C3.88047 187.426 4.99976 186.306 4.99976 184.926V184.45C4.99976 183.07 3.88047 181.95 2.49976 181.95C1.11905 181.95 -0.000237226 183.07 -0.000237226 184.45V184.926ZM-0.000237226 165.428C-0.000237226 166.809 1.11905 167.928 2.49976 167.928C3.88047 167.928 4.99976 166.809 4.99976 165.428V164.477C4.99976 163.096 3.88047 161.977 2.49976 161.977C1.11905 161.977 -0.000237226 163.096 -0.000237226 164.477V165.428ZM-0.000237226 145.454C-0.000237226 146.835 1.11905 147.954 2.49976 147.954C3.88047 147.954 4.99976 146.835 4.99976 145.454V144.503C4.99976 143.122 3.88047 142.003 2.49976 142.003C1.11905 142.003 -0.000237226 143.122 -0.000237226 144.503V145.454ZM-0.000237226 125.481C-0.000237226 126.861 1.11905 127.981 2.49976 127.981C3.88047 127.981 4.99976 126.861 4.99976 125.481V124.53C4.99976 123.149 3.88047 122.03 2.49976 122.03C1.11905 122.03 -0.000237226 123.149 -0.000237226 124.53V125.481ZM-0.000237226 105.507C-0.000237226 106.888 1.11905 108.007 2.49976 108.007C3.88047 108.007 4.99976 106.888 4.99976 105.507V104.556C4.99976 103.175 3.88047 102.056 2.49976 102.056C1.11905 102.056 -0.000237226 103.175 -0.000237226 104.556V105.507ZM-0.000237226 85.5336C-0.000237226 86.9143 1.11905 88.0336 2.49976 88.0336C3.88047 88.0336 4.99976 86.9143 4.99976 85.5336V84.5825C4.99976 83.2018 3.88047 82.0825 2.49976 82.0825C1.11905 82.0825 -0.000237226 83.2018 -0.000237226 84.5825V85.5336ZM-0.000237226 65.5601C-0.000237226 66.9408 1.11905 68.0601 2.49976 68.0601C3.88047 68.0601 4.99976 66.9408 4.99976 65.5601V64.609C4.99976 63.2283 3.88047 62.109 2.49976 62.109C1.11905 62.109 -0.000237226 63.2283 -0.000237226 64.609V65.5601ZM-0.000237226 45.5865C-0.000237226 46.9673 1.11905 48.0865 2.49976 48.0865C3.88047 48.0865 4.99976 46.9673 4.99976 45.5865V45.111C4.99976 43.7303 3.88047 42.611 2.49976 42.611C1.11905 42.611 -0.000237226 43.7303 -0.000237226 45.111V45.5865Z" fill="white"/>
</svg>
