<?xml version="1.0" encoding="UTF-8" standalone="no"?>
<svg
   xml:space="preserve"
   width="2300.91"
   height="650"
   version="1.1"
   id="svg1"
   sodipodi:docname="logo_mpiis_neg.svg"
   inkscape:version="1.4.1 (1:1.4.1+202503302257+93de688d07)"
   xmlns:inkscape="http://www.inkscape.org/namespaces/inkscape"
   xmlns:sodipodi="http://sodipodi.sourceforge.net/DTD/sodipodi-0.dtd"
   xmlns="http://www.w3.org/2000/svg"
   xmlns:svg="http://www.w3.org/2000/svg"><sodipodi:namedview
     id="namedview1"
     pagecolor="#ffffff"
     bordercolor="#666666"
     borderopacity="1.0"
     inkscape:showpageshadow="2"
     inkscape:pageopacity="0.0"
     inkscape:pagecheckerboard="0"
     inkscape:deskcolor="#d1d1d1"
     inkscape:zoom="0.35464231"
     inkscape:cx="1151.8648"
     inkscape:cy="325.68026"
     inkscape:window-width="2494"
     inkscape:window-height="1371"
     inkscape:window-x="66"
     inkscape:window-y="32"
     inkscape:window-maximized="1"
     inkscape:current-layer="svg1" /><defs
     id="defs1" /><path
     style="fill:#ffffff;stroke-width:.62717646"
     d="M220.016 538.401c-56.78-6.807-106.523-35.462-140.613-81.001-45.665-61.001-53.247-142.52-19.644-211.205 27.77-56.76 80.012-97.41 141.755-110.301 12.202-2.548 21.747-3.607 35.857-3.98 40.41-1.07 77.036 8.567 111.141 29.243 42.099 25.522 73.712 65.5 88.745 112.227 11.657 36.234 12.866 75.07 3.498 112.417-6.87 27.389-20.482 54.661-38.632 77.397-6.875 8.613-22.357 24.193-30.644 30.84-31.482 25.25-66.863 39.962-106.933 44.468-9.95 1.119-34.81 1.06-44.53-.105zm51.115-6.425c18.213-2.824 37.584-8.467 52.882-15.406 55.36-25.113 96.336-73.823 111.113-132.082 2.05-8.078 3.962-18.522 5.113-27.91 1.01-8.244 1.032-32.67.036-41.393-5.302-46.456-24.81-87.24-57.154-119.495-31.708-31.62-70.02-50.49-115.44-56.859-10.885-1.526-38.475-1.53-49.364-.007-45.422 6.353-84.042 25.367-115.577 56.902-28.987 28.987-48.393 66.483-55.172 106.602-2.056 12.169-2.672 19.85-2.667 33.24.014 32.476 6.968 61.626 21.469 90 30.553 59.783 88.068 99.458 155.528 107.289 10.85 1.26 38.635.762 49.233-.88zm30.935-22.372c-.416-.416-10.886-1.409-23.095-2.189-15.571-.995-56.766-.85-60.293.212-2.762.831-8.968.468-10.744-.629-.327-.202-3.947-.327-8.044-.277-8.019.098-10.258-.445-14.183-3.438-1.142-.872-3.631-1.99-5.532-2.485-7.467-1.945-13.432-5.914-15.744-10.476-1.316-2.596-2.096-3.315-4.98-4.59-4.096-1.812-5.91-4.36-5.913-8.307-.003-3.704.612-4.687 6.6-10.545 5.871-5.742 6.56-7.252 6.565-14.4.007-8.26-2.796-11.994-18.892-25.166l-3.997-3.27-1.1 1.389c-2.104 2.652-5.397 9.86-6.139 13.432-1.201 5.79-.47 17.112 1.462 22.645 2.384 6.825 6.478 13.533 11.579 18.968 4.816 5.134 5.537 7.03 3.406 8.959-1.073.97-1.51.781-7.37-3.196-3.427-2.325-8.77-6.19-11.874-8.59-7.492-5.793-23.971-22.264-30.324-30.31-36.85-46.673-48.784-105.956-32.6-161.945 8.365-28.941 25.629-57.54 47.342-78.43 28.416-27.34 62.587-43.781 102.447-49.294 12.18-1.685 34.428-1.515 47.039.36 11.979 1.78 25.922 5.244 36.69 9.116 7.9 2.841 28.55 12.542 28.522 13.398-.008.232-5.899 7.122-13.091 15.31-7.192 8.187-13.368 15.666-13.724 16.62-.357.953-1.128 3.826-1.715 6.384l-1.067 4.65 1.478 1.14c.813.627 1.879.994 2.368.816 2.833-1.03 10.36-1.549 13.645-.941 1.964.363 3.652.66 3.753.66.425 0-1.176 3.445-2.4 5.164-1.095 1.538-1.174 1.961-.454 2.417 1.534.971 3.085.62 5.94-1.344 6.45-4.437 10.599-4.915 13.742-1.583 3.64 3.86 3.969 8.663.89 12.987-.927 1.3-1.207 2.234-.829 2.757 4.433 6.132 7.358 9.87 9.788 12.511 3.845 4.18 4.536 6.002 3.353 8.833-.791 1.895-.79 2.5.004 4.753 1.368 3.876 1.2 9.035-.343 10.578-1.772 1.772-1.612 2.795 1.558 9.945 4.458 10.054 5.34 13.202 5.34 19.045 0 4.918.198 5.668 3.669 13.974 2.017 4.828 5.934 13.582 8.704 19.455 2.77 5.872 5.6 12.67 6.29 15.107 1.107 3.914 1.156 4.716.416 6.884-1.253 3.673-3.77 5.508-10.692 7.794-11.615 3.838-12.768 4.965-11.471 11.212.399 1.92 1.413 4.996 2.254 6.836 1.315 2.874 1.432 3.64.835 5.45-.383 1.159-1.094 2.437-1.58 2.841-.752.624-.688 1.003.426 2.509 1.918 2.595.835 5.457-3.122 8.25-3.08 2.174-3.896 7.024-2.622 15.576 1.065 7.143-1.247 14.248-6.185 19.011-2.951 2.847-10.881 6.803-17.999 8.98-5.148 1.574-6.52 1.722-16.588 1.783l-10.975.067-1.147 4.365c-.63 2.4-1.302 7.636-1.493 11.633-.52 10.924 1.092 18.362 6.138 28.314 1.353 2.668 2.46 5.702 2.46 6.743 0 1.842-.078 1.89-3.031 1.89-1.668 0-3.175-.143-3.35-.318zm-82.36-5.326c3.933 0 10.345-6.268 10.345-10.115 0-1.462-.471-2.012-2.665-3.11-5.696-2.852-8.684-7.02-9.997-13.947-.755-3.977-.82-4.073-2.992-4.433-1.221-.202-3.984-.37-6.14-.374-3.03-.006-4.193.266-5.118 1.191-1.675 1.675-2.729 7.447-2.458 13.464.187 4.165.612 5.916 2.33 9.602 2.856 6.123 4.247 7.318 9.058 7.78 2.129.204 4.246.275 4.706.157.46-.118 1.778-.215 2.93-.215zm80.589-.06c0-.377-1.045-3.693-2.323-7.368-2.047-5.891-2.352-7.552-2.573-14.017-.233-6.79-.084-8.006 2.008-16.366 1.244-4.968 2.26-9.321 2.26-9.675 0-.354-2.187-1.415-4.86-2.358-15.63-5.513-29.844-15.376-48.724-33.807-4.108-4.009-7.741-7.29-8.075-7.29-1.043 0-.008 6.213 2.353 14.112 5.595 18.725 6.939 30.523 4.23 37.148-1.334 3.264-1.335 3.291-.126 5.341.67 1.134 1.676 3.854 2.237 6.046 1.21 4.723.566 8.473-2.043 11.9-1.686 2.211-5.776 4.44-8.193 4.464-1.66.016-2.228 1.176-3.322 6.789-.453 2.325-.538 4.168-.207 4.475.31.288 3.81.285 7.776-.007 29.789-2.187 41.836-2.11 52.996.344 4.806 1.057 6.586 1.13 6.586.27zm-102.438-1.558c.21-.544-.214-2.18-.94-3.635-2.158-4.32-2.982-10.749-2.116-16.497.73-4.85.96-7.302.825-8.825-.1-1.13-7.625-1.046-9.194.102-1.053.77-1.243 1.86-1.447 8.309-.403 12.698 1.396 18.447 6.464 20.655 2.685 1.17 5.939 1.114 6.408-.109zm-18.31-17.668c-.018-12.163.192-11.844-6.335-9.644l-3.684 1.242-.184 4.819c-.33 8.6 2.755 14.089 7.916 14.089h2.303l-.015-10.506zm58.521 2c3.016-2.111 4.174-7.536 2.584-12.097-.792-2.27-.896-2.298-3.919-1.035-1.404.587-4.265.94-7.603.94h-5.35l.013 2.04c.016 2.417 1.837 6.628 3.505 8.11 3.365 2.985 8.133 3.89 10.77 2.043zm-74.498-5.213c0-.647.381-2.27.847-3.607.466-1.336.725-2.783.575-3.214-.616-1.775-6.464-.121-7.303 2.065-.644 1.677.2 3.704 1.994 4.791 2.338 1.417 3.887 1.403 3.887-.035zm-29.257-14.462c-3.267-7.556-4.16-12.75-3.78-21.993.221-5.405.719-9.09 1.602-11.866 1.213-3.814 1.224-4.098.208-5.386-9.407-11.921-14.266-19.503-19.493-30.414-6.136-12.811-10.128-25.74-12.393-40.139-1.6-10.177-1.61-33.276-.017-42.962 2.64-16.059 6.697-28.822 13.557-42.648 16.507-33.27 45.194-58.974 79.991-71.673 33.674-12.288 72.307-11.279 105.186 2.748l4.837 2.064 10.045-11.413 10.044-11.412-5.16-2.587c-25.263-12.666-58.422-19.27-86.486-17.222-25.08 1.83-46.265 7.56-67.316 18.21-51.284 25.947-85.59 73.82-94.18 131.425-1.57 10.52-1.576 36.56-.013 46.41 6.05 38.121 22.196 70.966 48.064 97.777 4.716 4.887 16.78 16.056 17.343 16.056.061 0-.856-2.239-2.04-4.975zm-18.15-20.422c-.974-1.487-.876-2.164 2.008-13.797 1.668-6.729 3.207-12.234 3.42-12.234.214 0 .877.917 1.474 2.038 1.069 2.006 1.04 2.224-1.783 13.562-1.577 6.338-2.868 11.63-2.868 11.76 0 .808-1.387-.01-2.25-1.329zm-18.59-25.782c-.677-1.487-.276-2.536 4.495-11.76 2.88-5.57 5.455-10.37 5.721-10.67.266-.298.938.339 1.495 1.414.976 1.888.948 2.072-.789 5.247-.99 1.81-3.456 6.465-5.479 10.346-2.023 3.88-3.908 7.055-4.189 7.055-.28 0-.845-.734-1.254-1.632zm-14.282-30.67c-.345-.906-.626-1.77-.626-1.919 0-.225 11.153-12.665 15.089-16.83 1.096-1.16 1.136-1.132 1.553 1.09.418 2.225.244 2.487-6.918 10.446-4.041 4.49-7.6 8.32-7.91 8.511-.31.192-.844-.393-1.188-1.298zm-7.881-31.927c-.217-.864-.296-1.835-.176-2.159.208-.562 19.048-13.263 19.673-13.263.166 0 .301.952.301 2.115 0 2.019-.364 2.352-7.996 7.327-4.398 2.867-8.764 5.738-9.702 6.381l-1.706 1.169zm-1.526-33.61c0-1.035.079-1.882.174-1.882.096 0 5.053-1.694 11.016-3.764l10.84-3.765-.196 2.04c-.196 2.036-.214 2.046-10.231 5.61-5.52 1.962-10.388 3.585-10.819 3.605-.461.022-.784-.737-.784-1.844zm5.386-32.372c.24-.995.478-1.868.53-1.94.223-.308 21.807-2.146 22.074-1.88.162.162.117 1-.099 1.86-.419 1.67-1.47 1.863-18.36 3.362l-4.58.407zm21.896-27.75c-5.864-.826-10.743-1.57-10.842-1.654-.421-.356 1.383-3.45 2.006-3.439 1.445.026 21.17 3.019 21.398 3.247.133.133-.24.94-.829 1.794l-1.07 1.552zm16.464-25.942c-5.433-2.094-9.878-4.096-9.878-4.45 0-.353.434-1.121.964-1.707.9-.995 1.631-.81 10.963 2.773 5.5 2.11 10.004 4.019 10.011 4.24.007.22-.481.974-1.085 1.676-1.094 1.271-1.129 1.263-10.975-2.532zm20.853-22.199c-4.657-3.244-8.467-6.214-8.467-6.599 0-.384.565-1.064 1.255-1.509 1.128-.728 2.106-.211 9.721 5.139 4.657 3.272 8.467 6.248 8.467 6.615 0 .366-.565 1.023-1.255 1.46-1.121.709-2.15.169-9.72-5.106zm24.029-17.697c-6.962-7.929-6.972-7.944-5.623-9.025.742-.596 1.507-1.019 1.698-.94.19.077 2.708 2.822 5.594 6.1 2.886 3.276 6.078 6.85 7.094 7.943l1.846 1.985-1.818.94-1.817.94zm129.436-3.147c-.967-.381-.136-1.71 5.645-9.03 3.728-4.72 7.077-8.59 7.443-8.602.365-.011 1.177.355 1.804.813 1.056.773.66 1.445-5.368 9.092-6.32 8.018-7.126 8.673-9.524 7.727zm-98.689-.85c-1.724-2.68-8.765-17.812-8.442-18.143.215-.22.963-.572 1.663-.782 1.117-.336 1.84.76 5.93 9 2.561 5.16 4.529 9.498 4.372 9.641-.906.824-3.063.998-3.523.284zm77.76-4.795c-1.337-.396-1.283-.614 2.425-9.812 2.085-5.175 4.016-9.651 4.29-9.949.28-.303 1.188-.303 2.066 0l1.566.541-3.878 9.674c-2.133 5.32-4.153 9.736-4.49 9.812-.337.076-1.228-.044-1.98-.266zm-54.432-10.283c-.972-5.26-1.885-9.882-2.029-10.27-.329-.89 3.008-1.783 3.526-.944.21.34 1.186 4.907 2.169 10.148 1.48 7.894 1.64 9.621.931 10.07-2.417 1.532-2.782.818-4.597-9.004zm27.262 6.538c0-1.436 1.152-13.94 1.614-17.513.32-2.479.479-2.666 2.259-2.666 1.89 0 1.91.035 1.56 2.666-.196 1.466-.689 6.264-1.097 10.662l-.741 7.996h-1.798c-1.322 0-1.797-.303-1.797-1.145zm-59.506 281.433c7.334-.676 11.083-.631 26.511.32 19.262 1.188 23.05 1.026 26.246-1.125 3.03-2.04 3.84-4.277 4.123-11.389.298-7.527-1.206-15.899-5.011-27.885-1.369-4.312-2.829-9.507-3.244-11.545-.416-2.043-1.17-3.895-1.68-4.128a131.81 131.81 0 0 1-3.013-1.469c-1.149-.575-2.389-1.046-2.755-1.046-.978 0-.12 8.838 1.766 18.188 3.728 18.476 3.833 25.444.438 28.987-2.54 2.651-5.541 3.184-15.221 2.704-9.786-.486-20.522.387-26.04 2.117-2.556.802-4.116.993-4.861.598-2.283-1.212-.901-2.875 3.348-4.032 8.513-2.318 12.802-2.89 24.885-3.318l12.711-.451 1.714-1.72c1.591-1.595 1.708-2.065 1.626-6.56-.05-2.768-1.076-9.675-2.395-16.13-2.025-9.914-2.286-12.206-2.139-18.815.158-7.127.077-7.701-1.536-10.82-.936-1.81-1.862-3.292-2.058-3.292-.196 0-2.378 1.65-4.85 3.668-7.784 6.353-17.37 11.994-22.638 13.32-5.131 1.292-4.671-.151 1.19-3.733 10.035-6.132 22.284-16.223 22.284-18.357 0-2.548-1.922-2.042-4.818 1.269-1.559 1.781-3.638 3.655-4.621 4.163-1.788.925-4.358 1.252-4.358.554 0-.204 1.986-2.526 4.414-5.161s4.561-5.376 4.74-6.09c.18-.715-.254-3.397-.964-5.96-2.916-10.52-.696-21.851 5.43-27.718 2.482-2.377 7.138-4.27 11.24-4.568 1.937-.142 3.583-.339 3.657-.439.074-.1 4.2-6.247 9.17-13.662 14.11-21.046 23.03-32.565 42.019-54.254 10.287-11.75 24.998-26.6 36.014-36.35 3.101-2.745 5.756-5.073 5.9-5.174.427-.3-.2-.718-2.548-1.699-2.123-.887-2.331-.854-4.672.745-1.347.92-4.805 2.563-7.684 3.65-4.754 1.795-5.378 2.23-6.786 4.723-3.278 5.806-9.801 10.817-17.176 13.192-3.898 1.256-4.29 1.54-4.634 3.375-.566 3.018-4.969 8.716-8.92 11.546-3.579 2.562-12.277 6.305-14.653 6.305-.721 0-1.137.282-.924.627.213.345.936.628 1.605.628 3.947 0-3.123 10.593-10.027 15.023-3.312 2.125-8.495 4.087-14.156 5.357-3.644.817-3.682.845-1.176.894 1.423.027 3.446.221 4.495.431l1.908.382-.863 2.447c-2.895 8.204-11.106 14.72-22.092 17.53-4.6 1.175-12.746 1.599-15.674.814-1.412-.378-1.413-.386-.253-2.343 1.125-1.898 1.127-2.08.044-5.414-.983-3.024-1.126-3.202-1.16-1.442-.055 2.926-1.28 8.21-2.636 11.372-1.106 2.581-1.11 2.725-.075 2.292 5.834-2.438 8.958-3.043 15.948-3.084 4.024-.024 7.518.158 7.765.404.958.957-2.528 7.65-5.859 11.246-6.643 7.176-16.7 10.99-27.489 10.426l-5.769-.301-1.194 3.242-1.195 3.243 4.118-2.094c6.407-3.258 15.28-4.678 22.142-3.543 2.15.355 2.31.522 1.948 2.03-2.114 8.8-11.618 17.13-22.567 19.78l-3.676.89 5.75.052c7.936.072 7.955.083 6.517 3.87-3.677 9.677-10.567 15.69-21.13 18.442-3.746.975-11.099 1.25-14.624.544-1.68-.336-1.95-.624-1.66-1.778.219-.872-.168-2.074-1.052-3.272l-1.397-1.895v15.408l1.882-1.432c5.494-4.18 12.062-5.98 21.876-5.993l6.824-.01-.373 2.299c-.59 3.636-3.595 8.964-7.003 12.42-5.395 5.468-14.17 9.083-22.108 9.105-1.811.005-3.293.234-3.293.509 0 .274 4.512 4.959 10.027 10.41 8.861 8.759 10.326 10.504 12.606 15.023 2.49 4.935 2.568 5.276 2.267 9.817-.172 2.587-.905 6.256-1.63 8.153-2.11 5.521-1.734 6.44 2.444 5.985 1.207-.132 6.04-.594 10.738-1.027zm142.513-15.62c9.642-2.131 19.365-7.815 21.992-12.857 1.134-2.176 1.323-3.747 1.427-11.859.11-8.683.234-9.57 1.724-12.444.883-1.702 1.606-3.32 1.606-3.594 0-.275-1.049-.696-2.33-.937-2.797-.524-5.824-2.008-5.824-2.854 0-.947 1.386-.729 4.077.643 1.353.69 3.389 1.255 4.523 1.255 1.912 0 4.571-1.753 4.571-3.013 0-.278-.953-1.428-2.118-2.558l-2.119-2.053 2.565-2.393c2.22-2.071 2.453-2.527 1.728-3.4-1.816-2.189-5.756-.714-11.293 4.227-3.876 3.458-6.365 4.526-9.485 4.07-.794-.116-1.556-.55-1.692-.963-.174-.53.4-.646 1.95-.395 3.007.489 7.023-1.547 9.942-5.04 1.545-1.847 3.465-3.242 5.79-4.205 1.913-.793 3.478-1.779 3.478-2.19 0-.413-.424-1.763-.94-3.001-.518-1.238-.942-3.633-.942-5.322 0-4.301 1.594-5.675 10.278-8.86 8.076-2.963 11.486-5.02 12.05-7.27.6-2.39-.751-6.75-4.554-14.692-5.697-11.896-13.14-29.591-13.856-32.942-.368-1.725-.674-4.83-.68-6.9-.01-3.222-.71-5.505-4.89-15.905-2.684-6.678-5.207-12.268-5.607-12.422-.4-.153-1.964.542-3.476 1.546-3.77 2.502-6.33 3.263-10.98 3.263-3.692 0-4.029.119-4.861 1.724-2.65 5.112-8.597 8.859-16.76 10.56-2.503.522-4.787 1.095-5.076 1.274-.289.179-1.105 1.461-1.814 2.85-2.62 5.136-8.776 9.938-14.176 11.06-2.109.438-2.47.826-3.762 4.04l-1.43 3.557 1.55 3.083c2.626 5.229 3.653 10.35 2.916 14.538-.815 4.625-3.72 10.378-7.241 14.344-2.435 2.74-2.849 3.65-3.505 7.708-1.12 6.921-1.687 8.728-3.774 12.019-4.517 7.123-13.624 7.036-20.304-.196-1.95-2.11-2.69-2.533-3.763-2.15-.735.261-3.421.497-5.97.523-5.23.054-5.14.128-6.36-5.283-1.9-8.443-6.121-15.482-10.117-16.874-2.75-.96-7.793-.856-9.81.2-2.612 1.37-5.558 4.75-7.149 8.207-1.24 2.696-1.443 4.148-1.443 10.349 0 6.99.07 7.358 2.264 11.953 1.245 2.607 3.578 6.22 5.183 8.027 1.605 1.807 4.031 5.5 5.392 8.206 2.478 4.928 4.633 7.28 7.28 7.945 2.17.544 5.879-1.531 7.023-3.93.55-1.153 1.21-2.097 1.469-2.097.95 0 1.225 2.52.548 5.034-.673 2.5-.617 2.684 1.693 5.512 7.333 8.981 25.83 24.153 38.83 31.851 15.212 9.009 31.749 12.238 46.252 9.032zm-96.915-57.724c-.578-.337-1.39-1.669-1.804-2.96-.842-2.622-2.287-4.542-3.42-4.542-1.95 0-5.907-3.862-7.763-7.577-1.682-3.365-1.955-4.589-1.955-8.75 0-10.447 5.186-17.15 11.625-15.024 4.114 1.358 4.87 4.148 3.799 14.04-.513 4.734-.474 5 .898 6.034.874.659 1.289 1.462 1.061 2.054-.523 1.363-2.795.647-4.056-1.277-.932-1.422-.936-2.032-.044-7.251 1.12-6.556.708-9.108-1.787-11.07-2.299-1.809-3.835-1.602-6.122.823-2.488 2.639-3.506 5.973-3.607 11.823-.094 5.446 1.353 8.874 4.9 11.6 4.935 3.795 6.598 5.469 7.442 7.488.942 2.255 3.018 2.886 3.694 1.124.53-1.382 1.64-.497 1.64 1.31 0 .85-.53 1.792-1.214 2.157-1.473.789-1.933.789-3.287-.002zm116.8-19.383c-1.704-1.704-2.237-5.344-1.386-9.465.398-1.926.724-4.086.724-4.8 0-.712.42-1.645.933-2.07 1.55-1.287 1.798.713.691 5.577-1.38 6.066-1.292 7.365.58 8.592 1.534 1.005 1.773.935 8.522-2.494 6.957-3.535 9.343-4.23 9.343-2.72 0 .786-15.837 8.616-17.404 8.605-.431-.003-1.333-.554-2.003-1.225zm-29.512-38.178c-5.347-.58-9.672-1.328-9.61-1.66.06-.333 1.505-1.08 3.21-1.66 4.184-1.421 5.263-2.028 11.207-6.296 6.022-4.326 11.028-6.79 13.806-6.8 2.25-.006 3.965-1.384 3.965-3.186 0-1.738 1.179-1.49 1.897.4 1.034 2.72.748 3.977-1.004 4.417-1.524.382-1.593.57-1.217 3.306.22 1.595.096 4.252-.274 5.903-.484 2.159-.48 3.364.013 4.286.378.705.56 1.409.406 1.564-.812.81-13.878.651-22.4-.274zm19.442-7.014c0-4.872-.75-5.427-5.103-3.781-4.247 1.605-12.772 6.444-12.772 7.25 0 .778 16.037 1.424 17.091.688.473-.33.784-1.98.784-4.157zm-25.356-8.08c-.188-.305.526-.914 1.587-1.354 1.06-.44 4.797-2.9 8.302-5.467 9.495-6.955 14.587-9.133 18.845-8.065 1.892.475 4.408 3.823 3.89 5.175-.31.805-.773.633-2.59-.963-1.332-1.17-2.89-1.937-3.916-1.928-2.927.026-8.314 2.668-16.327 8.008-7.514 5.008-9.08 5.743-9.79 4.594zm-172.693 93.14c-1.352-1.466-3.242-4.059-4.2-5.762a372.698 372.698 0 0 0-3.863-6.646c-22.272-37.327-24.164-84.634-4.954-123.9 18.867-38.565 53.902-64.546 97.233-72.107 4.795-.836 9.67-1.086 20.697-1.06 13.013.03 15.28.198 23.159 1.725 4.803.931 12.835 3.062 17.849 4.736l9.116 3.043 3.318-1.872c1.825-1.03 3.458-2.1 3.63-2.378.435-.704-9.294-4.69-17.611-7.214-23.534-7.144-49.663-7.806-73.255-1.856-18.385 4.637-36.279 13.29-50.969 24.646-28.94 22.374-48.053 55.657-52.61 91.619-1.337 10.549-1.008 32.343.621 41.13 4.261 22.988 12.146 41.343 25.208 58.684l4.755 6.311 2.166-3.216 2.167-3.217zm19.159.545c7.963-1.877 14.22-6.408 17.595-12.739 1.096-2.056 1.992-4.052 1.992-4.435 0-1.025-8.943-.86-13.66.252-7.783 1.834-12.845 5.847-16.432 13.022l-1.951 3.905 1.44.408c2.51.71 6.955.544 11.016-.413zM145 408.007c2.143-4.486 3.074-9.414 2.8-14.828-.195-3.875-.647-5.536-2.557-9.402-1.276-2.582-2.88-5.2-3.562-5.817-1.216-1.101-1.292-1.021-3.798 3.964-5.786 11.507-5.483 20.348 1 29.162l2.265 3.079 1.176-1.511c.647-.831 1.85-2.923 2.675-4.647zm-10.613-25.087c1.266-2.97 5.483-9.708 6.08-9.716.23-.003 1.519 1.246 2.865 2.775l2.448 2.78-.622-3.427c-.972-5.365.23-11.371 3.626-18.114 1.567-3.111 3.671-6.634 4.675-7.827 1.65-1.962 1.932-2.082 2.94-1.254.612.503 1.863 2.094 2.78 3.536l1.669 2.62-.285-4.918c-.46-7.963 2.931-16.661 9.324-23.908l2.431-2.756 1.29 1.568c.71.862 1.834 2.555 2.497 3.763l1.207 2.195.027-4.168c.053-7.841 3.745-15.993 10.364-22.88l2.938-3.057 1.513 1.882c.832 1.035 1.916 3.01 2.408 4.39l.894 2.509.05-2.237c.096-4.328 1.425-9.722 3.382-13.722 1.97-4.027 7.12-10.196 10.554-12.641l1.806-1.286 1.555 3.34c.856 1.837 1.558 4.022 1.561 4.856.01 2.547.53 1.176 1.241-3.274.972-6.08 2.709-10.195 6.342-15.021 2.77-3.678 9.207-9.249 10.69-9.249.916 0 2.43 6.447 2.43 10.349 0 4.124-1.253 9.157-3.263 13.103-1.179 2.315-1.184 2.416-.088 1.95.636-.27 2.815-1.113 4.842-1.873 2.694-1.01 3.392-1.495 2.595-1.8-.937-.36-.97-.567-.236-1.47.757-.931.712-.997-.4-.573-.69.262-1.537.527-1.882.587-1.049.185-1.068-9.704-.028-14.71.528-2.542 1.818-6.368 2.866-8.503 2.319-4.72 8.484-11.174 12.936-13.54l3.23-1.717.69 1.98c.379 1.089.71 3.984.735 6.433l.045 4.453 1.19-4.841c1.753-7.129 4.497-12.068 9.364-16.857 4.694-4.62 10.874-8.149 12.108-6.915.443.444.709 2.645.673 5.579l-.059 4.846 1.085-3.143c1.382-4.004 3.5-8.22 5.411-10.77.823-1.098 1.496-2.245 1.496-2.55 0-.793-13.198-4.902-20.474-6.373-59.336-11.998-118.632 20.233-141.012 76.649-5.812 14.65-8.478 29.086-8.478 45.898 0 19.465 3.384 35.707 10.838 52.006l1.98 4.33 1.043-3.39c.574-1.864 1.525-4.518 2.113-5.897zm33.765 8.158c7.642-1.99 14.01-6.57 17.432-12.536 2.602-4.537 2.508-4.716-2.487-4.716-9.294 0-16.402 2.603-21.328 7.812-2.546 2.692-6.353 8.71-6.353 10.041 0 .723 9.346.282 12.736-.6zm-10.983-9.605c5.073-9.584 5.233-19.285.45-27.445-1.596-2.725-1.745-2.822-2.834-1.837-1.833 1.659-5.535 9.204-6.648 13.55-1.643 6.413-.682 11.857 3.29 18.638 1.495 2.552 1.656 2.652 2.72 1.69.623-.564 1.982-2.631 3.022-4.596zm7.69-5.791c2.085-1.484 8.2-3.698 10.568-3.825.895-.049-.868-.31-3.918-.58-3.049-.27-5.717-.665-5.93-.877-.212-.212-.054-1.263.351-2.335.643-1.704.55-2.263-.74-4.424l-1.474-2.474-.32 6.486c-.176 3.567-.524 7.121-.773 7.897-.562 1.745-.07 1.774 2.236.132zm106.233-.56c1.853-2.048 2.804-5.766 2.833-11.08l.027-5.079 4.8-5.896c6.104-7.5 7.33-10.167 7.007-15.246-.294-4.62-2.703-10.002-4.599-10.273-2.565-.368-3.376 1.09-2.812 5.05.825 5.782.078 7.331-5.97 12.383-2.906 2.427-6.15 5.673-7.21 7.212-1.688 2.455-3.539 4.072-4.659 4.072-.195 0-.348-.635-.34-1.412.028-2.905 2.574-6.896 7.427-11.639 5.331-5.21 6.848-8.277 6.09-12.315-.452-2.416-2.017-4.739-3.19-4.739-2.247 0-14.288 14.013-16.13 18.771-.885 2.288-1.012 3.964-.695 9.148.414 6.773-.711 12.345-2.643 13.087-1.689.648-.923 1.642 1.265 1.642 3.125 0 6.446 1.77 7.159 3.817 1.055 3.026 9.519 4.841 11.64 2.496zm-91.216-7.202c8.394-1.783 15.502-6.464 19.075-12.56 2.39-4.08 2.2-4.74-1.357-4.735-8.454.013-16.203 2.52-20.937 6.77-3.33 2.992-8.254 9.981-7.682 10.906.485.785 6.383.58 10.9-.38zm66.536-1.053c2.809-3.007 4.951-12.269 3.102-13.412-.663-.409-3.826 3.643-5.723 7.332-.659 1.28-1.197 3.42-1.197 4.756 0 3.893 1.071 4.264 3.818 1.324zm-73.402-13.405c2.764-5.627 3.937-12.038 3.075-16.796-.662-3.65-2.724-8.94-3.727-9.56-.26-.16-1.65 1.386-3.088 3.436-6.945 9.902-8.024 18.317-3.652 28.48l1.328 3.088 2.103-2.433c1.157-1.338 2.939-4.135 3.96-6.215zm68.512.764c1.182-1.466 4.344-6.193 7.028-10.505 4.567-7.337 6.43-10.066 15.628-22.892 4.372-6.096 13.778-17.084 18.163-21.218 10.11-9.53 24.638-17.721 42.391-23.901 6.76-2.353 16.53-4.942 21.255-5.632 1.502-.22 3.54-.818 4.528-1.329 3.18-1.644 3.825-4.79 1.156-5.636-.654-.208-2.195-1.841-3.425-3.63-1.23-1.79-4.458-5.782-7.174-8.872l-4.937-5.62 2.183-2.416c1.86-2.06 2.155-2.796 1.992-4.98-.142-1.907-.613-2.878-1.84-3.79l-1.648-1.226-7.17 5.306c-16.055 11.88-32.514 27.62-51.321 49.082-19.52 22.275-33.21 40.445-43.912 58.28l-3.36 5.602 1.827 1.296c1.005.714 2.535 2.073 3.399 3.022.864.949 1.912 1.725 2.33 1.725.417 0 1.725-1.2 2.907-2.666zm-47.904-9.59c8.201-1.933 14.829-6.297 18.575-12.232 2.409-3.816 2.15-4.364-2.056-4.351-4.645.014-11.455 1.464-15.136 3.223-3.4 1.625-9.803 7.93-11.873 11.69l-1.45 2.637 3.96-.01c2.177-.004 5.769-.435 7.98-.957zm-13.586-6.165-1.132-2.882v9.34l1.132-1.788c1.092-1.724 1.092-1.892 0-4.67zm10.148-10.66c3.791-7.974 4.287-14.717 1.545-21.029-1.185-2.728-1.212-2.745-2.488-1.59-2.44 2.208-7.017 9.784-8.245 13.649-1.441 4.532-1.223 11.28.529 16.38l1.065 3.101 2.734-3.019c1.503-1.66 3.69-5.032 4.86-7.492zm22.462-6.627c5.812-1.487 10.352-3.73 13.773-6.805 2.42-2.176 6.144-7.274 6.144-8.411 0-.84-8.207-.548-12.407.443-5.326 1.255-8.496 2.974-12.552 6.804-3.048 2.88-7.027 7.876-7.027 8.825 0 .814 7.661.271 12.07-.856zm70.206-2.34c.7-.633 1.813-2.21 2.473-3.503.906-1.775 1.587-2.352 2.776-2.352 4.276 0 9.87-4.278 12.619-9.65 1.614-3.156 2.67-9.358 1.695-9.96-.743-.458-11.089 5.548-15.8 9.174-3.446 2.65-10.76 10.225-13.096 13.559-.765 1.092-.784 1.493-.11 2.306 1.944 2.341 7.07 2.573 9.443.426zm-79.223-6.824c1.749-1.913 4.178-5.511 5.398-7.996 3.482-7.089 4.099-12.726 2.098-19.167l-.654-2.104-3.414 3.359c-6.519 6.412-9.618 15.31-8.394 24.105.362 2.61.66 4.865.66 5.013 0 .96 1.555-.2 4.306-3.21zm-7.654-2.323c-.174-.431-.317-.079-.317.784 0 .862.143 1.215.317.784.174-.431.174-1.137 0-1.568zm23.267-5.733 3.6-.84-2.98-.47c-3.269-.515-3.262-.508-2.33-2.25.5-.932.445-1.212-.235-1.212-.948 0-1.64-2.506-1.712-6.194-.031-1.59-.384-.661-1.175 3.083-.621 2.946-1.73 6.533-2.464 7.971-.734 1.439-1.334 2.774-1.334 2.967 0 .193 1.131-.226 2.515-.932 1.383-.705 4.135-1.661 6.115-2.123zm12.694-4.865c7.784-1.504 16.726-7.238 20.036-12.85 1.632-2.765 1.017-3.049-5.51-2.538-5.355.419-10.582 2.015-14.312 4.37-3.008 1.899-10.876 10.271-10.876 11.573 0 1.014 3.47.834 10.662-.555zm86.44-4.88c3.01-1.553 6.074-4.791 7.29-7.708 1.06-2.54 1.275-5.247.457-5.753-.512-.316-4 .773-12.184 3.805-3.77 1.397-4.234 1.752-4.239 3.238-.003.918-.189 3.195-.413 5.06l-.407 3.39 3.595-.422c1.977-.232 4.632-.957 5.9-1.61zm-94.09-4.568c6.696-7.96 9.449-16.427 7.885-24.249-.216-1.078-.64-1.96-.941-1.96-1.007 0-7.764 7.2-9.438 10.056-2.919 4.98-3.954 10.154-3.739 18.683l.085 3.339 1.724-1.33c.949-.731 2.94-2.774 4.425-4.539zm115.685-5.175c4.176-1.745 8.387-6.216 6.787-7.206-.91-.561-12.053 1.76-12.983 2.704-.841.855-1.593 4.482-1.043 5.032.713.713 5.019.398 7.24-.53zm13.327-4.733c.685-1.108-.357-3.13-1.614-3.13-.852 0-1.212.435-1.212 1.464 0 .804.188 1.651.418 1.881.624.624 1.963.505 2.408-.215zm-100.866-1.605c9.21-1.903 15.643-5.32 19.718-10.475 3.375-4.27 3.234-4.85-1.173-4.838-4.665.012-10.622 1.434-14.732 3.516-3.234 1.639-10.132 7.74-12.5 11.056l-1.233 1.725h2.578c1.418 0 4.722-.443 7.342-.984zm-10.851-4.467c4.073-3.649 8.574-9.554 10.644-13.963 1.5-3.196 1.958-5.144 2.173-9.251.176-3.345.041-5.203-.376-5.203-1.365 0-7.21 5.254-9.879 8.878-1.636 2.222-3.32 5.51-4.077 7.96-1.34 4.329-2.411 13.894-1.557 13.894.268 0 1.65-1.042 3.072-2.315zm14.962-11.155c.253-.353.446-2.335.428-4.405l-.032-3.763-.796 2.51c-.437 1.379-1.406 3.696-2.153 5.148-.747 1.453-1.358 2.8-1.358 2.994 0 .457 3.307-1.644 3.91-2.484zm17.515-3.72c5.878-1.129 12.324-3.561 15.83-5.973 2.776-1.91 7.901-7.286 7.901-8.288 0-.493-4.72-.326-11.751.414-4.247.446-9.82 3.692-15.252 8.882-2.74 2.618-4.983 5.005-4.983 5.304 0 .792 3.008.668 8.255-.34zm-6.625-6.92c6.38-6.433 9.785-12.764 10.178-18.925.297-4.667-.018-4.84-3.93-2.148-4.032 2.774-8.487 8.02-10.409 12.256-1.668 3.677-3.74 11.49-3.74 14.1 0 1.159.162 1.225 1.41.573.777-.405 3.697-3.041 6.49-5.857zm10.435-7.092c.533-.604 1.14-2.368 1.349-3.92l.38-2.822-.886 2.292c-.486 1.261-1.365 3.025-1.951 3.92-1.199 1.83-.385 2.22 1.108.53zm8.406-5.374c8.354-6.155 14.894-15.503 15.719-22.464.436-3.684-.165-3.865-4.238-1.282-7.998 5.074-13.248 13.374-15.842 25.043-.438 1.973.168 1.793 4.361-1.297zm15.29.785c7.281-2.012 12.018-4.637 16.112-8.93l3.63-3.806-2.11-.547c-3.212-.832-10.432.523-15.484 2.906-4.166 1.966-14.076 9.773-14.076 11.09 0 1.042 7.116.617 11.929-.713zm.902-13.085a.681.681 0 0 0-.21-.938c-.315-.194-.734.069-.932.584-.39 1.016.552 1.308 1.142.354zm538.771 214.997c-5.827-.728-12.424-2.742-16.42-5.013-6.383-3.63-11.563-11.052-12.21-17.499l-.22-2.18 11.917-.166 11.916-.166 1.254 2.341c2.437 4.549 7.869 6.465 15.935 5.621 10.174-1.063 13.813-6.287 14.272-20.488.247-7.656.226-7.803-.866-6.277-4.575 6.393-9.164 9.077-17.404 10.18-4.438.594-6.103.536-10.729-.373-7.058-1.387-11.515-3.594-16.332-8.09-4.771-4.452-8.427-11.147-10.4-19.045-1.924-7.7-1.9-21.977.05-29.391 3.85-14.634 12.179-24.206 23.933-27.505 12.818-3.598 24.65.09 30.787 9.596l1.8 2.789v-11.535h21.951v42.566c0 35.455-.161 43.496-.964 48.135-1.816 10.493-6.588 17.6-14.585 21.722-5.486 2.828-10.18 4.046-18.632 4.838-7.718.724-8.823.72-15.053-.06zm17.682-54.379c4.801-2.46 7.908-8.074 9.088-16.424.875-6.186.033-13.946-2.034-18.752-2.498-5.806-9.008-10.085-15.342-10.085-2.981 0-7.619 1.574-10.011 3.4-6.78 5.17-9.24 22.942-4.653 33.604 1.545 3.593 6.226 8.184 9.455 9.276 3.25 1.098 10.424.557 13.497-1.019zm366.464 45.455V424l3.92-.004c7.841-.007 11.209-2.08 13.126-8.076l1.04-3.25-14.663-42.471c-8.064-23.36-14.674-42.119-14.687-41.687-.02.597-2.757.784-11.528.784h-11.503l-.775-3.464c-2.005-8.96-11.337-14.284-23.278-13.282-6.464.542-9.336 1.638-12.617 4.817-4.342 4.207-5.286 9.21-2.608 13.82 2.187 3.763 6.69 5.476 27.12 10.315 7.877 1.866 16.453 4.22 19.059 5.232 12.934 5.022 19.471 14.588 19.42 28.42-.063 17.029-10.492 29.5-28.902 34.56-4.088 1.124-6.519 1.325-15.807 1.305-9.697-.02-11.675-.208-16.977-1.61-8.616-2.278-14.463-5.419-19.397-10.422-6.121-6.205-8.608-11.72-9.72-21.556l-.407-3.606h23.09l1.068 3.843c2.145 7.714 6.557 11.55 15.13 13.158 7.449 1.396 18.915-.238 23.541-3.356 3.834-2.584 6.031-8.114 5.015-12.62-1.181-5.238-6.248-8.063-20.613-11.493-19.297-4.608-23.776-5.91-28.758-8.357-10.034-4.927-15.176-11.816-16.38-21.941-2.456-20.636 8.576-35.49 29.65-39.922 5.04-1.06 18.567-1.24 23.225-.309 12.978 2.593 23.36 9.978 28.525 20.29 1.33 2.658 2.744 6.392 3.139 8.297l.72 3.464 12.268.17 12.268.17 8.514 29.612c4.682 16.286 8.668 29.457 8.857 29.269.189-.189 3.895-13.514 8.237-29.612l7.893-29.27 11.706-.17c6.814-.1 11.706.07 11.706.405 0 .98-31.11 91.732-33.81 98.627-2.817 7.195-5.935 12.277-8.774 14.298-3.655 2.603-6.874 3.286-17.155 3.644l-9.878.343v-9.183zM664.37 410.69c-15.132-1.842-26.436-11.353-31.515-26.516-1.577-4.708-1.682-5.734-1.703-16.62-.02-10.45.124-12.07 1.448-16.307 3.614-11.568 10.662-20.543 19.54-24.885 10.902-5.33 26.465-5.07 37.318.624 11.438 6.002 18.017 19.23 18.928 38.06l.38 7.839-26.998-.16c-14.849-.089-27.4-.006-27.89.182-2.128.816.97 11.305 4.411 14.93 3.262 3.438 6.134 4.48 12.353 4.486 6.87.006 10.73-1.548 12.958-5.214.77-1.27 1.698-2.515 2.062-2.769.765-.534 21.914-.654 22.44-.127.195.194.01 1.825-.407 3.624-2.202 9.47-10.072 17.222-21.464 21.142-5.456 1.877-14.612 2.593-21.86 1.711zm21.011-53.998c0-3.282-2.022-8.134-4.52-10.843-5.832-6.328-17.708-5.988-22.772.652-1.923 2.52-4.067 7.837-4.067 10.084v1.561h31.36zm241.564 54.126c-13.05-1.813-23.553-9.14-28.871-20.139-3.863-7.99-4.723-12.35-4.686-23.752.026-7.836.286-10.658 1.344-14.548 3.998-14.71 12.961-24.468 26.18-28.503 2.834-.865 5.707-1.13 11.89-1.1 6.995.034 8.843.267 13.01 1.644 9.344 3.087 15.84 8.832 19.886 17.587 3.544 7.669 4.683 13.136 4.711 22.604l.024 8.034-27.282.12-27.283.12.143 3.363c.178 4.184 2.394 9.166 5.425 12.197 6.138 6.138 20.162 5.316 24.71-1.449.812-1.207 2.13-2.373 2.93-2.592.801-.218 6.04-.425 11.642-.46l10.185-.063-.416 2.655c-1.67 10.652-12.02 20.357-24.845 23.295-5.366 1.229-13.764 1.672-18.697.987zm20.568-55.024c-.035-3.07-1.297-6.521-3.384-9.258-4.888-6.408-16.703-6.996-22.431-1.117-2.494 2.56-4.528 6.6-5.223 10.375l-.433 2.352H947.541l-.028-2.352zm374.766 54.952c-5.8-.722-12.417-2.736-16.372-4.984-3.8-2.16-8.38-6.882-10.272-10.59-1.342-2.63-3.115-9.655-3.136-12.423l-.011-1.426 11.418.171 11.419.171.512 2.469c.712 3.43 3.274 6.534 6.687 8.102 4.104 1.884 14.897 1.937 18.53.091 3.707-1.884 5.03-4.018 4.33-6.983-.787-3.325-3.106-4.7-11.95-7.084-24.237-6.532-27.566-7.767-32.381-12.005-9.145-8.05-7.626-26.387 2.935-35.426 3.694-3.162 10.285-6.288 15.883-7.534 5.802-1.29 18.397-.952 24.359.655 8.346 2.25 14.318 6.34 17.711 12.132 1.772 3.023 3.926 10.034 3.926 12.777v1.715l-10.191-.013c-5.606-.007-10.686-.157-11.29-.333-.603-.176-1.097-.876-1.097-1.557 0-2.707-2.407-6.043-5.408-7.496-5.72-2.77-17.629-1.285-19.625 2.446-.859 1.604-.875 4.211-.035 5.78 1.069 1.997 3.903 3.05 17.768 6.597 19.383 4.96 25.915 8.632 29.816 16.763 2.415 5.036 2.947 10.02 1.703 15.976-2.286 10.95-9.34 17.593-22.164 20.873-5.448 1.394-16.587 1.942-23.065 1.136zm119.67-.035c-15.677-2.12-27.541-12.71-31.835-28.419-1.417-5.183-1.951-17.702-1.026-24.03 3.365-23.015 19.294-36.921 40.821-35.636 11.156.665 18.081 3.432 24.52 9.795 7.492 7.402 11.32 18.253 11.464 32.497l.078 7.712-27.525-.026-27.526-.026.332 3.659c.416 4.594 3.136 10.279 6.09 12.726 4.657 3.86 13.348 4.706 19.664 1.912 2.15-.951 3.407-2.066 4.665-4.139l1.722-2.836 11.095-.02c7.038-.012 11.243.22 11.5.634.222.359-.184 2.588-.903 4.953-1.989 6.549-6.567 12.126-13.332 16.24-2.658 1.616-9.85 4.163-13.43 4.756-4.103.68-12.264.803-16.374.248zm20.932-55.723c-.488-4.114-3.288-9.192-6.064-10.996-7.037-4.572-17.296-2.994-21.434 3.299-1.673 2.543-3.662 7.82-3.662 9.713 0 1.075.932 1.142 15.767 1.142h15.767zm179.885 55.875c-19.262-1.87-29.896-11.08-31.182-27.003l-.177-2.195 11.389-.17 11.388-.171.424 2.508c.62 3.667 2.725 6.407 6.275 8.166 2.693 1.334 4.013 1.554 9.407 1.568 6.944.017 11.5-1.237 13.174-3.626 1.064-1.518 1.239-4.976.337-6.66-.934-1.746-5.89-3.575-19.002-7.014-12.744-3.343-19.12-5.68-23.187-8.498-10.44-7.235-10.34-25.297.199-35.78 6.557-6.523 16.047-9.741 28.106-9.532 16.178.28 26.803 5.405 31.625 15.252 1.77 3.614 3.772 11.431 3.176 12.396-.175.284-5.228.516-11.229.516h-10.91l-.398-2.121c-1.105-5.893-5.397-8.667-13.443-8.69-5.906-.017-8.886.9-10.969 3.375-1.748 2.078-1.953 3.44-.873 5.81 1.028 2.257 4.554 3.68 16.242 6.559 16.483 4.059 21.382 6.058 26.655 10.877 1.992 1.82 4.087 4.54 5.123 6.65 1.592 3.24 1.749 4.171 1.714 10.153-.03 5.368-.31 7.282-1.513 10.349-1.868 4.765-7.832 10.943-12.73 13.185-7.77 3.557-19.072 5.12-29.621 4.096zm-1029.51-2.012c-4.913-.685-9.935-2.996-11.677-5.373-2.713-3.7-2.806-4.845-2.762-33.87l.041-27.738-1.48-.371c-.815-.205-3.432-.282-5.816-.173l-4.334.2-.204-6.513c-.304-9.755-.529-9.396 6.011-9.612l5.482-.182.096-10.662c.053-5.864.123-11.014.157-11.446.046-.595 2.706-.784 11.036-.784h10.976v23.206h13.171v16.1l-6.586-.292-6.585-.293v47.76l1.417 1.647c1.298 1.51 1.853 1.658 6.58 1.76l5.163.112.005 8.624.005 8.624-8.31-.078c-4.57-.042-10.144-.333-12.387-.646zm113.54-.28c-4.475-1.203-8.854-4.057-11.02-7.184-3.426-4.943-3.426-4.95-3.426-57.489v-48.47h22.592l-.022 46.425c-.014 28.817.209 46.855.586 47.56 1.3 2.43 2.357 2.807 8.986 3.2.26.015.47 3.838.47 8.495v8.467l-7.368-.042c-4.376-.024-8.763-.415-10.799-.962zm35.139.004c-6.95-1.869-11.5-6.185-13.454-12.762-.89-2.998-1.01-9.143-1.01-51.893v-48.492h22.6l-.033 45.998c-.022 30.106.19 46.584.612 47.695.69 1.813 4.166 3.671 6.522 3.486 2.961-.232 2.912-.375 2.912 8.5v8.467l-7.369-.041c-4.36-.024-8.763-.416-10.78-.958zm314.037.32c-4.325-.634-9.299-2.682-11.058-4.554-.707-.753-1.793-2.494-2.413-3.87-1.015-2.25-1.159-5.32-1.441-30.722l-.314-28.223-5.33-.05-5.332-.05-.175-7.947-.176-7.947h11.327v-23.205h10.908c8.87 0 10.973.168 11.252.895.189.493.29 5.714.224 11.603l-.12 10.708h13.485v15.993l-6.295-.059c-3.463-.032-6.417.137-6.565.377-.655 1.06-.386 46.975.283 48.226.871 1.627 2.944 2.18 8.343 2.223l4.233.034v17.248l-8.623-.077c-4.743-.042-10.239-.313-12.213-.602zm315.61-.005c-2.242-.288-5.258-.975-6.703-1.525-3.234-1.232-6.789-5.053-7.677-8.252-.422-1.52-.667-12.406-.669-29.768 0-22.719-.15-27.429-.87-27.705-.478-.183-3.018-.28-5.645-.218l-4.778.116v-16.006h11.29v-23.205h21.951v23.205h13.17v16.101l-6.585-.293-6.585-.293v23.247c0 13.201.258 23.926.597 24.818.87 2.29 2.81 3.053 7.975 3.139l4.59.076.01 8.623.01 8.624-7.997-.08c-4.398-.043-9.831-.315-12.073-.604zM479.04 351.874v-56.446h23.833V408.32H479.04zm32.613 14.739v-41.707h21.93l-.164 5.33c-.09 2.933-.075 5.332.032 5.332.108 0 1.866-1.786 3.908-3.968 7.598-8.122 17.07-10.612 29.8-7.834 6.75 1.473 13.41 6.213 16.14 11.488 3.15 6.086 3.203 6.725 3.453 40.923l.235 32.143h-23.279l-.003-27.752c-.003-18.11-.242-28.624-.689-30.262-1.63-5.967-5.635-8.639-12.927-8.623-8.125.017-12.857 3.744-14.902 11.734-.78 3.05-.956 8.448-.956 29.32v25.583h-22.578Zm270.94 0v-41.707h22.579v83.414h-22.579zm191.916 0v-41.707h21.324v11.312l4.15-4.398c6.675-7.076 14.346-10.016 23.715-9.089 15.109 1.496 24.065 9.49 25.226 22.517.187 2.092.383 17.14.436 33.438l.097 29.634h-22.844l-.18-28.693-.181-28.693-1.568-3.136c-2.21-4.418-5.424-6.112-11.546-6.084-8.713.04-13.108 3.446-15.393 11.93-.5 1.86-.712 10.794-.678 28.69l.05 25.986H974.51v-41.707zm514.912 0v-41.707H1511.06l-.076 5.801-.076 5.802 1.33-1.849c3.22-4.475 6.439-7.366 10.334-9.284 4.01-1.974 4.389-2.038 11.994-2.025 6.705.011 8.28.21 10.781 1.367 3.873 1.79 7.761 5.377 9.91 9.14l1.744 3.052 1.36-2.202c2.213-3.58 7.895-8.335 11.812-9.886 3.052-1.207 4.807-1.43 11.455-1.455 7.635-.028 7.966.028 12.04 2.032 6.567 3.232 10.552 8.521 12.736 16.909.758 2.908.927 9.26.927 34.785v31.227h-22.579l-.01-27.752c-.01-28.671-.186-31.072-2.625-34.504-1.866-2.626-4.37-3.624-9.209-3.67-6.037-.056-8.93 1.659-11.764 6.972-1.085 2.034-1.185 4.28-1.358 30.575l-.186 28.38h-22.52v-27.483c0-30.102-.207-32.15-3.59-35.378-2.238-2.137-4.565-2.993-8.134-2.993-6.811 0-11.38 3.379-12.665 9.365-.446 2.082-.694 12.755-.694 29.864v26.624h-22.579zm-706.828-61.777v-10.035h22.579v20.07h-22.579zm-244.586-23.362c-3.701-1.892-5.175-4.076-5.515-8.175-.216-2.6.028-3.967 1.07-6.009 2.122-4.16 5.35-5.714 14.467-6.962 2.588-.355 6.078-.964 7.756-1.354l3.052-.709-.325-2.878c-.404-3.586-2.414-5.49-6.429-6.092-5.74-.861-9.599.665-11.438 4.522-1.035 2.17-1.138 2.22-3.846 1.848-3.342-.458-3.446-.543-2.974-2.422.67-2.67 3.23-5.767 6.075-7.352 2.413-1.343 3.75-1.586 9.697-1.764 6.221-.187 7.173-.064 9.685 1.244 5.196 2.707 5.316 3.102 5.749 18.9.226 8.273.679 14.645 1.116 15.724l.735 1.815 3.92-5.578c2.156-3.067 5.14-7.323 6.63-9.456 1.67-2.393 2.522-4.18 2.221-4.666-.267-.434-3.11-4.544-6.318-9.135l-5.83-8.348h7.988l3.986 6.238c2.192 3.43 4.148 6.252 4.346 6.271.198.02 2.294-2.788 4.657-6.237l4.297-6.272h8.02l-3.61 5.174c-1.985 2.846-4.853 6.94-6.373 9.099l-2.763 3.923 6.206 8.934c3.414 4.913 6.42 9.286 6.68 9.717.36.595-.48.782-3.482.775l-3.957-.009-4.387-6.89c-2.412-3.79-4.529-6.888-4.703-6.886-.175.003-2.435 3.107-5.022 6.898l-4.704 6.894-7.212-.156-7.213-.156-.655-2.027-.655-2.027-2.34 1.59c-5.475 3.72-13.532 4.584-18.602 1.994zm14.685-4.851c3.578-1.748 5.406-4.718 5.839-9.486.331-3.654.277-3.872-.84-3.426-.657.262-4.106 1.01-7.664 1.66-6.955 1.273-7.233 1.37-9.367 3.292-2.523 2.271-1.397 7.233 1.949 8.583 2.442.985 7.418.678 10.083-.624zm127.816 5.513c-2.937-.994-6.191-4.845-6.715-7.946-.804-4.757 1.773-9.519 6.319-11.675 2.021-.96 3.378-1.246 13.632-2.877 2.703-.43 5.278-1.146 5.723-1.591 1.23-1.23.188-5.84-1.634-7.23-2.649-2.02-9.81-2.295-13.156-.504-.645.345-1.762 1.782-2.482 3.194-1.305 2.557-1.319 2.564-4.186 2.171-1.583-.217-3.015-.533-3.185-.702-.169-.169.515-1.915 1.52-3.88 1.493-2.92 2.398-3.868 4.941-5.178 2.681-1.382 4.073-1.632 10.033-1.803 6.306-.18 7.17-.065 9.734 1.3 4.99 2.659 5.292 3.724 5.66 19.909.22 9.752.566 14.547 1.12 15.523.787 1.39.746 1.41-2.66 1.41-3.257 0-3.485-.1-3.873-1.724-.617-2.583-.892-2.833-2.025-1.839-.57.5-2.306 1.555-3.858 2.345-3.258 1.657-11.467 2.261-14.908 1.097zm13.64-5.68c3.908-1.996 5.255-4.129 5.66-8.964.288-3.423.193-4.001-.615-3.77-2.796.8-6.456 1.578-10.503 2.232-5.108.826-7.408 2.263-8.01 5.005-.474 2.156 1.042 5.2 3.083 6.19 2.38 1.156 7.428.819 10.386-.693zM758 281.998c-3.495-1.247-6.498-4.046-8.434-7.858-1.424-2.805-1.778-4.441-1.985-9.16-.594-13.594 5.337-21 16.79-20.966 5.63.016 8.86 1.266 11.733 4.538 1.744 1.987 3.844 6.503 3.26 7.012-.121.106-1.49.375-3.042.598l-2.823.407-1.477-2.795c-3.609-6.829-12.72-6.161-16.395 1.202-2.122 4.251-2.208 12.294-.18 16.76 3.777 8.31 15.262 7.747 17.845-.876l.733-2.445 2.873.416c1.58.23 2.962.493 3.071.587.573.492-1.36 5.367-3.026 7.633-2.762 3.755-7.255 5.842-12.504 5.806-2.26-.015-5.158-.401-6.44-.859zm126.196.15c-4.272-1.214-7.425-4.571-8.802-9.373-.565-1.97.105-2.434 3.514-2.434 1.814 0 2.265.307 2.998 2.039 2.086 4.928 8.331 6.846 13.964 4.288 3.765-1.71 4.784-5.74 2.029-8.027-.474-.393-3.91-1.564-7.635-2.602-8.64-2.407-11.058-3.677-12.8-6.729-3.065-5.367-.884-11.333 5.164-14.125 2.853-1.316 10.406-1.598 14.25-.53 3.134.87 6.466 4.137 7.3 7.157.374 1.356.618 2.515.541 2.575-.077.06-1.49.253-3.142.43-2.934.316-3.021.275-3.897-1.82-2.402-5.75-15.365-5.121-15.365.745 0 2.484 2.165 3.758 10.146 5.968 8.534 2.364 10.994 3.709 12.588 6.88 3.087 6.145-.836 13.602-8.236 15.658-2.824.784-9.696.73-12.617-.1zm30.969-.164c-3.869-1.684-4-2.279-4-18.054v-14.285h-2.51c-2.501 0-2.508-.006-2.508-2.471 0-2.403.065-2.476 2.352-2.666l2.352-.194.18-4.723.181-4.723 2.824-1.706c1.554-.938 2.954-1.706 3.112-1.706.159 0 .288 2.964.288 6.586v6.585h6.272v5.018h-6.272v12.498c0 13.905.159 14.47 4.049 14.47 1.624 0 2.16.308 2.455 1.411.824 3.075.48 4.06-1.565 4.469-2.933.587-5.033.438-7.21-.51zm28.81.21c-1.1-.319-2.582-1.319-3.294-2.224-1.22-1.552-1.293-2.448-1.293-15.985v-14.34h-2.51c-2.501 0-2.508-.006-2.508-2.471 0-2.403.065-2.476 2.352-2.666l2.352-.194.18-4.723.181-4.723 2.824-1.706c1.553-.938 2.954-1.706 3.112-1.706.159 0 .288 2.964.288 6.586v6.585h6.272v5.018h-6.272v12.498c0 13.905.158 14.47 4.049 14.47 2.153 0 2.821.977 2.842 4.155.012 1.985-4.214 2.688-8.576 1.426zm16.122-.72c-3.253-1.662-4.899-3.72-5.684-7.104-.314-1.354-.577-8.6-.585-16.102l-.015-13.64h6.165l.21 13.64c.22 14.315.452 15.585 3.262 17.86 2.016 1.634 7.2 1.475 9.835-.3 4.238-2.857 4.625-4.318 4.892-18.495l.24-12.706H984.544v37.631H978.9v-5.148l-2.307 2.025c-3.158 2.773-5.784 3.75-10.084 3.75-2.549 0-4.483-.426-6.412-1.411zm36.56.72c-1.1-.319-2.581-1.319-3.293-2.224-1.221-1.552-1.294-2.448-1.294-15.985v-14.34H987.053v-5.018H992.07v-9.73l2.848-1.72c1.567-.946 2.978-1.72 3.136-1.72.159 0 .288 2.963.288 6.585v6.585h6.272v5.018h-6.272v12.498c0 13.905.158 14.47 4.049 14.47 2.154 0 2.821.977 2.842 4.16.013 2.044-4.078 2.722-8.576 1.42zm19.87.14c-3.072-1.003-5.481-2.55-7.431-4.771-3.393-3.865-4.08-6.161-4.126-13.807-.036-5.932.16-7.338 1.402-10.035 3.06-6.64 8.055-9.705 15.837-9.715 10.18-.013 15.938 5.702 17.213 17.085l.404 3.606h-14.12c-7.765 0-14.272.247-14.459.55-.722 1.168 1.696 7.277 3.657 9.239 2.29 2.29 6.5 3.666 9.496 3.104 2.838-.533 5.96-2.808 7.131-5.196.87-1.776 1.3-2.025 3.501-2.029 3.75-.007 4.363.588 3.277 3.178-1.305 3.115-4.017 6.075-6.962 7.6-2.806 1.453-11.808 2.177-14.82 1.192zm16.31-23.776c0-.617-.635-2.38-1.411-3.92-1.626-3.224-5.57-5.62-9.251-5.62-4.975 0-10.62 4.902-10.652 9.25-.01 1.409.01 1.411 10.652 1.411 9.823 0 10.662-.088 10.662-1.121zm52.051 23.777c-7.54-2.467-11.28-7.983-11.772-17.362-.526-10.021 2.508-16.197 9.581-19.497 3.564-1.663 10.028-1.998 14.233-.738 3.139.94 7.695 4.937 9.432 8.276 1.865 3.582 2.307 13.162.84 18.208-1.202 4.132-4.354 7.973-8.155 9.935-2.772 1.431-11.234 2.135-14.159 1.178zm10.379-5.809c4.877-2.39 7.58-10.076 6.073-17.266-.951-4.534-2.927-7.429-6.14-8.998-9.467-4.622-17.91 4.808-15.348 17.144.95 4.576 2.845 7.311 6.3 9.09 3.045 1.567 5.96 1.577 9.115.03zm-616.854-20.321V230.15l5.113.183 5.112.182 7.371 21.95c6.254 18.625 7.46 21.714 7.958 20.384.322-.862 3.807-10.806 7.743-22.097l7.156-20.53 4.547-.01 4.547-.01v52.055h-6.272v-21.45c0-11.797-.234-21.181-.52-20.853-.286.327-2.593 6.522-5.127 13.766s-5.795 16.558-7.246 20.697l-2.638 7.526-3.126.187-3.126.186-6.391-18.688c-3.516-10.278-6.87-20.1-7.454-21.824-1.043-3.08-1.065-2.742-1.227 18.658l-.165 21.795h-6.255zm141.742-.026v-26.08l14.268.21c12.958.192 14.533.333 17.15 1.542 1.585.731 3.524 2 4.309 2.82 5.5 5.74 4.887 17.567-1.173 22.667-3.328 2.8-7.321 3.596-18.048 3.596h-9.607v21.324h-6.9zm27.466-2.475c4.7-1.888 6.496-7.736 3.924-12.779-1.965-3.852-3.988-4.451-15.022-4.451h-9.47v8.99c0 4.944.212 9.211.471 9.482.887.93 17.198-.078 20.097-1.242zm15.809 2.526v-26.028h6.272v52.056h-6.272zm48.92 7.212v-18.815h6.271V249.254l1.279-1.372c2.404-2.58 5.896-3.882 10.415-3.882 6.002 0 9.06 1.591 11.161 5.806 1.584 3.178 1.605 3.413 1.605 17.836v14.616h-6.133l-.28-13.641c-.163-7.977-.57-14.344-.981-15.333-1.612-3.881-6.896-5.22-11.42-2.895-4.684 2.407-5.016 3.657-5.017 18.855v13.014h-6.9v-18.816zm68.99-7.212v-26.028h6.271v14.425c0 7.934.216 14.425.48 14.425.265 0 3.718-3.245 7.673-7.212l7.192-7.213h8.154l-7.043 7.063-7.043 7.062 7.842 11.753 7.842 11.753-3.925-.01-3.925-.008-6.222-9.735-6.222-9.735-2.401 2.345-2.402 2.346v14.798h-6.272zm45.156 0v-26.028h6.899v52.056h-6.9zm14.425 7.212v-18.815h5.644v4.625l1.725-1.652c2.608-2.498 5.88-3.601 10.642-3.59 3.24.008 4.838.345 6.703 1.411 5.235 2.994 5.985 6.09 6.005 24.764l.012 12.073h-6.814l-.199-14.385-.2-14.386-1.785-1.863c-4.575-4.771-12.931-2.166-14.772 4.606-.378 1.387-.684 7.765-.686 14.268l-.003 11.76h-6.272zm85.296 0v-18.815h6.272v37.631h-6.272zm134.843 2.51v-16.307h-5.645v-5.018h5.645v-4.547c0-5.413 1.372-8.214 4.695-9.602 2.237-.935 10.707-1.263 11.171-.433.145.259.13 1.53-.031 2.823-.287 2.29-.363 2.352-2.892 2.36-5.328.018-6.673 1.349-6.673 6.606v2.793h6.899v5.018h-6.9v32.613h-6.271V265.95zm50.801-2.51v-18.815h5.645l.033 2.666.033 2.665 1.064-1.567c2.297-3.38 3.929-4.391 7.085-4.391 3.32 0 6.21 1.033 6.21 2.22 0 .42-.412 1.749-.916 2.954-.906 2.17-.94 2.185-3.37 1.536-3.67-.98-6.2.28-7.85 3.906-1.147 2.521-1.334 4.368-1.549 15.255l-.244 12.387h-6.14zm-185.644-29.79v-3.45h6.272v6.9h-6.272z"
     transform="matrix(1.33333 0 0 1.33333 0 -122.62)"
     id="path1" /></svg>
