<svg width="179" height="42" viewBox="0 0 179 42" fill="none" xmlns="http://www.w3.org/2000/svg">
<g clip-path="url(#clip0_6_2275)">
<path d="M30.1849 1.96297C27.611 0.748038 24.55 0.00439453 21.6433 0.00439453C12.8699 0.00439453 7.62182 7.26589 8.18642 14.3641C8.4423 17.5747 10.0188 20.681 12.6256 23.1102C13.5594 23.9849 14.6028 24.7346 15.7299 25.3404C14.8772 24.3245 14.3139 23.0977 14.0992 21.7889C13.5161 18.2216 15.8719 12.9742 21.8882 12.9742C28.3588 12.9742 35.4824 19.1258 36.0847 26.6898C36.4531 31.317 34.6989 35.4825 31.7333 38.3926C37.867 34.8301 41.9913 28.1894 41.9913 20.5849C41.9913 12.3568 37.1631 5.25655 30.1849 1.96297Z" fill="#494949"/>
<path d="M34.635 26.8057C34.3791 23.5952 32.8026 20.4889 30.1957 18.0597C29.262 17.1849 28.2185 16.4352 27.0915 15.8295C27.9442 16.8453 28.5075 18.0722 28.7222 19.381C29.3053 22.9483 26.9495 28.1956 20.9331 28.1956C14.4626 28.1956 7.33901 22.0441 6.73669 14.4794C6.3683 9.8522 8.12244 5.6867 11.0881 2.77661C4.95442 6.33979 0.830078 12.9804 0.830078 20.5849C0.830078 28.813 5.65827 35.9133 12.6364 39.2069C15.2104 40.4218 18.2714 41.1655 21.178 41.1655C29.9515 41.1655 35.1996 33.904 34.635 26.8057Z" fill="#494949"/>
<path d="M58.8536 10.2947H52.2974V30.8752H58.8536C66.0856 30.8752 69.408 26.9361 69.408 20.6151C69.408 14.2633 66.0856 10.2947 58.8536 10.2947ZM58.7651 28.4055H55.2081V12.7348H58.7651C64.4687 12.7348 66.4389 15.7334 66.4389 20.6138C66.4389 25.4646 64.4687 28.4055 58.7651 28.4055Z" fill="#494949"/>
<path d="M78.0946 15.9392C73.7425 15.9392 70.7734 19.0263 70.7734 23.6418C70.7734 28.1983 73.7727 31.2271 78.0644 31.2271C81.5048 31.2271 83.886 29.1691 84.6797 26.4346H81.7689C81.181 27.8752 79.8879 28.8158 78.0644 28.8158C75.8006 28.8158 73.8022 27.229 73.6252 24.2592H85.0618C85.0913 23.7303 85.0913 23.2892 85.0913 22.8769C85.0913 19.1141 82.3863 15.9392 78.0946 15.9392ZM73.6849 22.2012C74.008 19.6732 75.8898 18.3499 78.0651 18.3499C80.3585 18.3499 82.0934 19.82 82.2107 22.2012H73.6849Z" fill="#494949"/>
<path d="M93.9406 15.9392C89.5892 15.9392 86.6201 19.0263 86.6201 23.6418C86.6201 28.1983 89.6187 31.2271 93.9111 31.2271C97.3508 31.2271 99.732 29.1691 100.526 26.4346H97.6156C97.027 27.8752 95.7339 28.8158 93.9111 28.8158C91.6473 28.8158 89.6482 27.229 89.4719 24.2592H100.908C100.937 23.7303 100.937 23.2892 100.937 22.8769C100.937 19.1141 98.2323 15.9392 93.9406 15.9392ZM89.5323 22.2012C89.8561 19.6732 91.7371 18.3499 93.9132 18.3499C96.2065 18.3499 97.9408 19.82 98.0581 22.2012H89.5323Z" fill="#494949"/>
<path d="M110.756 15.9392C108.14 15.9392 106.493 17.2035 105.582 18.6147L105.288 16.2925H102.671V37.3416H105.585V28.5811C106.584 30.2564 108.407 31.2271 110.73 31.2271C115.022 31.2271 117.963 28.022 117.963 23.6123C117.963 19.2026 115.019 15.9392 110.756 15.9392ZM110.286 28.6991C107.552 28.6991 105.582 26.6411 105.582 23.5835C105.582 20.5554 107.552 18.4679 110.286 18.4679C113.049 18.4679 114.99 20.5554 114.99 23.5835C114.99 26.6404 113.049 28.6984 110.286 28.6984V28.6991Z" fill="#494949"/>
<path d="M130.153 24.2003L123.037 10.2947H119.627V30.8752H122.538V15.3808L129.035 27.9349H131.269L137.737 15.3808V30.8752H140.648V10.2947H137.237L130.153 24.2003Z" fill="#494949"/>
<path d="M145.822 16.2925H142.911V30.8752H145.822V16.2925Z" fill="#494949"/>
<path d="M144.352 9.70605C143.264 9.70605 142.441 10.471 142.441 11.5295C142.441 12.588 143.265 13.3817 144.352 13.3817C145.469 13.3817 146.293 12.588 146.293 11.5295C146.293 10.471 145.469 9.70605 144.352 9.70605Z" fill="#494949"/>
<path d="M155.905 15.9392C153.641 15.9392 151.819 17.0567 150.878 18.85L150.672 16.2925H148.085V30.8752H150.999V23.3475C150.999 20.1726 152.733 18.4377 155.115 18.4377C157.468 18.4377 158.673 19.8783 158.673 22.7596V30.8752H161.554V22.466C161.55 18.0858 159.404 15.9392 155.905 15.9392Z" fill="#494949"/>
<path d="M175.529 9.64221V18.5213C174.53 16.8454 172.707 15.8754 170.356 15.8754C166.063 15.8754 163.152 19.0798 163.152 23.4902C163.152 27.9006 166.063 31.1633 170.326 31.1633C172.943 31.1633 174.589 29.8996 175.529 28.4878L175.824 30.8107H178.44V9.64221H175.529ZM170.796 28.6346C168.062 28.6346 166.092 26.5471 166.092 23.519C166.092 20.4614 168.062 18.4033 170.796 18.4033C173.559 18.4033 175.5 20.4614 175.5 23.519C175.5 26.5471 173.56 28.6346 170.797 28.6346H170.796Z" fill="#494949"/>
</g>
<defs>
<clipPath id="clip0_6_2275">
<rect width="177.61" height="41.1611" fill="white" transform="translate(0.830078 0.00439453)"/>
</clipPath>
</defs>
</svg>
