<svg width="178" height="58" viewBox="0 0 178 58" fill="none" xmlns="http://www.w3.org/2000/svg">
<g clip-path="url(#clip0_6_2192)">
<mask id="mask0_6_2192" style="mask-type:luminance" maskUnits="userSpaceOnUse" x="-18" y="-21" width="222" height="96">
<path d="M-17.4331 74.0919H203.692V-20.9854H-17.4331V74.0919Z" fill="white"/>
</mask>
<g mask="url(#mask0_6_2192)">
<mask id="mask1_6_2192" style="mask-type:luminance" maskUnits="userSpaceOnUse" x="0" y="-1" width="178" height="59">
<path d="M0.160645 57.1774H177.83V-0.0797806H0.160645V57.1774Z" fill="white"/>
</mask>
<g mask="url(#mask1_6_2192)">
<path d="M66.4097 21.8994C68.4212 22.5955 69.582 22.6729 71.9037 22.6729C78.4806 22.6729 82.6588 19.1137 82.6588 13.0784C82.6588 8.3583 80.0281 2.01368 71.9037 2.01368H66.4097V21.8994ZM66.4097 36.2914C66.4097 41.785 67.7247 43.3323 71.4393 43.3323V44.6482H55.4995V43.3323C58.5946 43.3323 60.5289 42.3261 60.5289 36.4456V8.66803C60.5289 3.25151 59.2137 1.6269 55.4995 1.6269V0.311279H71.6708C83.8966 0.311279 88.849 6.8108 88.849 12.9236C88.849 20.2745 83.2777 24.3754 73.2183 24.3754C71.2841 24.3754 69.6596 24.2978 66.4097 23.9111" fill="#313131"/>
<path d="M104.787 26.6192C105.02 20.5839 100.92 18.1078 97.437 18.1078C92.8727 18.1078 90.1637 21.5127 89.8538 26.6192H104.787ZM89.8538 27.9347C89.7 40.238 97.0503 43.3323 100.764 43.3323C104.557 43.3323 106.49 42.0177 110.437 37.6061V39.6185C107.11 43.8746 103.937 45.4989 99.1398 45.4989C90.5504 45.4989 84.3608 39.5414 84.3608 31.2618C84.3608 22.9827 90.3965 16.4829 98.1335 16.4829C104.479 16.4829 110.36 21.5897 109.973 27.9347" fill="#313131"/>
<path d="M139.683 38.6893C139.683 42.2489 140.458 43.3323 144.326 43.3323V44.6482H129.702V43.3323C133.416 43.3323 134.422 42.4816 134.422 39.9281V25.6132C134.422 21.2029 131.249 19.346 128.309 19.346C125.602 19.346 123.202 21.0479 120.495 24.6848V38.0712C120.495 42.2489 121.036 43.3323 125.137 43.3323V44.6482H110.667V43.3323C114.305 43.3323 115.234 43.0225 115.234 38.0712V22.6729C115.234 19.346 114.381 18.6495 110.667 18.6495V17.3342L119.179 16.4828H120.495V21.9767C123.744 18.2626 126.918 16.4828 130.399 16.4828C134.964 16.4828 139.683 19.7328 139.683 26.3097" fill="#313131"/>
<path d="M173.187 38.6893C173.187 42.2489 173.961 43.3323 177.83 43.3323V44.6482H163.206V43.3323C166.92 43.3323 167.925 42.4816 167.925 39.9281V25.6132C167.925 21.2029 164.753 19.346 161.813 19.346C159.104 19.346 156.706 21.0479 153.997 24.6848V38.0712C153.997 42.2489 154.54 43.3323 158.641 43.3323V44.6482H144.171V43.3323C147.807 43.3323 148.737 43.0225 148.737 38.0712V22.6729C148.737 19.346 147.886 18.6495 144.171 18.6495V17.3342L152.683 16.4828H153.997V21.9767C157.248 18.2626 160.42 16.4828 163.902 16.4828C168.467 16.4828 173.187 19.7328 173.187 26.3097" fill="#313131"/>
<path d="M57.0716 52.5161C57.0716 53.7445 57.4052 54.6841 58.7132 54.6841C59.9158 54.6841 60.548 53.8765 60.548 52.4717V50.032C60.548 49.8477 60.5127 49.6988 60.495 49.5577C60.4513 49.2414 60.1526 49.1186 59.7404 49.0755V48.8468H61.8119V49.0755C61.3905 49.1186 61.1007 49.2414 61.057 49.5577C61.0393 49.6988 61.0044 49.8477 61.0044 50.032V52.5071C61.0044 54.394 59.8018 55.097 58.6695 55.097C56.7995 55.097 56.2203 54.1483 56.2203 52.5605V49.9445C56.2203 49.1277 56.2555 49.1722 55.4653 49.0755V48.8468H57.8266V49.0755C57.0367 49.1722 57.0716 49.1277 57.0716 49.9445" fill="#313131"/>
<path d="M66.7816 54.9912C65.7049 53.7184 64.5872 52.3842 63.4833 51.084V54.0778C63.4833 54.219 63.5105 54.3339 63.5239 54.4423C63.5579 54.6868 63.7881 54.7821 64.2351 54.8148V54.9912H62.5755V54.8148C62.9008 54.7821 63.1243 54.6868 63.1579 54.4423C63.1717 54.3339 63.1988 54.219 63.1988 54.0778V50.8867C63.009 50.6436 62.7992 50.4267 62.4131 50.4267V50.2503H63.6457C64.6549 51.476 65.7049 52.7226 66.714 53.9485H66.7274V51.165C66.7274 51.0226 66.7002 50.9076 66.6868 50.7991C66.6528 50.5548 66.4226 50.4607 65.9757 50.4267V50.2503H67.6355V50.4267C67.317 50.4607 67.0862 50.5548 67.0528 50.7991C67.0391 50.9076 67.0119 51.0226 67.0119 51.165V54.9912" fill="#313131"/>
<path d="M70.2562 54.1445C70.2562 54.7743 70.2294 54.7403 70.8389 54.8148V54.9912H69.0171V54.8148C69.6266 54.7403 69.5992 54.7743 69.5992 54.1445V51.097C69.5992 50.4672 69.6266 50.5012 69.0171 50.4267V50.2503H70.8389V50.4267C70.2294 50.5012 70.2562 50.4672 70.2562 51.097" fill="#313131"/>
<path d="M73.7237 50.4267C73.3517 50.4267 73.0801 50.5352 73.3036 51.1847C73.5679 51.9844 73.9613 53.1487 74.3132 54.1785C74.7467 53.1422 75.1595 52.0994 75.5797 51.0632C75.749 50.6371 75.5727 50.4267 75.1121 50.4267V50.2503H76.5753V50.4267C76.3786 50.4267 76.1551 50.4946 76.0132 50.8331C75.4439 52.2209 74.8685 53.6034 74.2998 54.9912H73.9539C73.5411 53.8204 73.0801 52.5124 72.6673 51.3611C72.4171 50.6371 72.207 50.4267 71.8818 50.4267V50.2503H73.7237" fill="#313131"/>
<path d="M77.6187 54.8148C78.2281 54.7403 78.2014 54.7743 78.2014 54.1445V51.097C78.2014 50.4672 78.2281 50.5012 77.6187 50.4267V50.2503H80.6461V51.3415H80.4702C80.4026 50.8397 80.2668 50.4672 79.779 50.4672H78.8584V52.4039H79.4271C79.854 52.4039 80.0366 52.2353 80.05 51.8145H80.2259V53.2572H80.05C80.0366 52.8586 79.8807 52.6208 79.4271 52.6208H78.8584V54.1523C78.8584 54.7272 79.1227 54.7743 79.7322 54.7743C80.7137 54.7743 80.6669 54.4973 80.978 53.772H81.154L80.9506 54.9912H77.6187" fill="#313131"/>
<path d="M83.4302 52.6756H83.9923C84.5817 52.6756 84.8527 52.2288 84.8527 51.463C84.8527 50.7246 84.4459 50.4672 83.9514 50.4672H83.4302V52.6756ZM82.1904 50.2503H84.1615C84.8453 50.2503 85.5297 50.6097 85.5297 51.4016C85.5297 52.0994 85.1028 52.5802 84.5817 52.7841L85.2454 53.7929C85.5839 54.2869 85.9633 54.7612 86.2002 54.9036V54.9912H85.503C85.1028 54.9912 84.8861 54.2529 84.0665 52.8913H83.4302V54.1445C83.4302 54.7743 83.4028 54.7403 84.0123 54.8148V54.9912H82.1904V54.8148C82.8 54.7403 82.7732 54.7743 82.7732 54.1445V51.097C82.7732 50.4672 82.8 50.5012 82.1904 50.4267" fill="#313131"/>
<path d="M89.5534 51.2591C89.4986 50.7861 89.241 50.4058 88.6997 50.4058C88.3063 50.4058 87.9544 50.6097 87.9544 51.1102C87.9544 51.5845 88.4287 51.8694 89.1065 52.3777C89.8238 52.9122 90.0539 53.2572 90.0539 53.8204C90.0539 54.6253 89.2283 55.0723 88.4147 55.0723C87.9818 55.0723 87.6092 54.9912 87.2572 54.8567C87.2298 54.8423 87.209 54.8149 87.209 54.7613V53.7865H87.3857C87.4599 54.5378 87.9544 54.8357 88.4763 54.8357C88.9573 54.8357 89.3494 54.4699 89.3494 53.9759C89.3494 53.5355 89.1132 53.1761 88.0969 52.5058C87.7309 52.2614 87.2773 51.9974 87.2773 51.2591C87.2773 50.6502 87.9544 50.1693 88.7332 50.1693C89.0242 50.1693 89.4109 50.2032 89.6812 50.2973C89.7221 50.3117 89.7288 50.3378 89.7288 50.3719V51.2591" fill="#313131"/>
<path d="M92.5134 54.1445C92.5134 54.7743 92.4859 54.7403 93.0948 54.8148V54.9912H91.2729V54.8148C91.8831 54.7403 91.8557 54.7743 91.8557 54.1445V51.097C91.8557 50.4672 91.8831 50.5012 91.2729 50.4267V50.2503H93.0948V50.4267C92.4859 50.5012 92.5134 50.4672 92.5134 51.097" fill="#313131"/>
<path d="M96.4413 54.1445C96.4413 54.7743 96.4139 54.7403 97.0241 54.8148V54.9912H95.2009V54.8148C95.8111 54.7403 95.7837 54.7743 95.7837 54.1445V50.4672H95.1748C94.5854 50.4672 94.4496 50.8397 94.2261 51.2866H94.0562L94.2395 50.2503H97.9855L98.1688 51.2866H97.9989C97.7754 50.8397 97.6396 50.4672 97.0502 50.4672H96.4413" fill="#313131"/>
<path d="M100.139 54.8148C100.748 54.7403 100.722 54.7743 100.722 54.1445V53.1016L99.678 51.0356C99.4546 50.5952 99.2653 50.4267 98.9541 50.4267V50.2503H100.68V50.4267C100.166 50.4267 100.213 50.6841 100.382 51.0356L101.203 52.7358L102.137 51.0356C102.367 50.6228 102.15 50.4267 101.75 50.4267V50.2503H103.146V50.4267C102.956 50.4267 102.774 50.5143 102.59 50.8397L101.46 52.8913C101.392 53.0272 101.378 53.2166 101.378 53.3865V54.1445C101.378 54.7743 101.352 54.7403 101.961 54.8148V54.9912H100.139" fill="#313131"/>
<path d="M109.302 51.6563C109.302 50.7429 108.749 50.7076 108.61 50.7076C107.661 50.7076 107.038 52.4103 107.038 53.5524C107.038 54.0085 107.118 54.833 107.767 54.833C108.768 54.833 109.302 53.1826 109.302 51.6563ZM106.23 53.3682C106.23 52.2182 107.222 50.4973 108.688 50.4973C109.857 50.4973 110.11 51.2878 110.11 52.0771C110.11 53.0427 109.338 55.097 107.661 55.097C106.538 55.097 106.23 54.1928 106.23 53.3682Z" fill="#313131"/>
<path d="M114.525 50.7873L114.315 50.9716H113.165C112.735 53.0597 112.032 55.8432 111.533 57.1774H111.137L112.393 50.9716H111.559L111.638 50.6031H112.463C112.928 48.7331 114.473 48.5397 114.842 48.5397C115.043 48.5397 115.465 48.575 115.597 48.6978L115.491 49.2767L115.271 49.3826C115.149 49.146 114.868 48.8729 114.499 48.8729C113.973 48.8729 113.578 49.2336 113.367 50.181L113.271 50.6031H114.561" fill="#313131"/>
<path d="M119.881 53.8949C119.881 54.7103 119.845 54.6672 120.635 54.7639V54.9912H118.273V54.7639C119.064 54.6672 119.029 54.7103 119.029 53.8949V49.9446C119.029 49.1278 119.064 49.1722 118.273 49.0755V48.8469H120.573C122.03 48.8469 122.75 49.4257 122.75 50.4803C122.75 51.7439 121.609 52.4287 120.266 52.349V52.1738C121.364 52.1908 121.872 51.5336 121.872 50.5679C121.872 49.5838 121.399 49.1278 120.415 49.1278H119.881" fill="#313131"/>
<path d="M123.96 54.8148C124.571 54.7403 124.543 54.7743 124.543 54.1445V51.097C124.543 50.4672 124.571 50.5012 123.96 50.4267V50.2503H126.988V51.3415H126.811C126.744 50.8397 126.609 50.4672 126.122 50.4672H125.2V52.4039H125.769C126.196 52.4039 126.379 52.2353 126.392 51.8145H126.568V53.2572H126.392C126.379 52.8586 126.223 52.6208 125.769 52.6208H125.2V54.1523C125.2 54.7272 125.465 54.7743 126.073 54.7743C127.056 54.7743 127.009 54.4973 127.32 53.772H127.496L127.292 54.9912H123.96" fill="#313131"/>
<path d="M132.874 54.9912C131.797 53.7184 130.68 52.3842 129.575 51.084V54.0778C129.575 54.219 129.603 54.3339 129.616 54.4423C129.65 54.6868 129.88 54.7821 130.327 54.8148V54.9912H128.669V54.8148C128.992 54.7821 129.216 54.6868 129.25 54.4423C129.264 54.3339 129.29 54.219 129.29 54.0778V50.8867C129.101 50.6436 128.892 50.4267 128.505 50.4267V50.2503H129.737C130.747 51.476 131.797 52.7226 132.805 53.9485H132.82V51.165C132.82 51.0226 132.793 50.9076 132.779 50.7991C132.746 50.5548 132.516 50.4607 132.067 50.4267V50.2503H133.727V50.4267C133.41 50.4607 133.178 50.5548 133.145 50.7991C133.131 50.9076 133.104 51.0226 133.104 51.165V54.9912" fill="#313131"/>
<path d="M138.942 54.9912C137.866 53.7184 136.748 52.3842 135.644 51.084V54.0778C135.644 54.219 135.672 54.3339 135.684 54.4423C135.719 54.6868 135.949 54.7821 136.396 54.8148V54.9912H134.737V54.8148C135.061 54.7821 135.284 54.6868 135.318 54.4423C135.333 54.3339 135.359 54.219 135.359 54.0778V50.8867C135.17 50.6436 134.96 50.4267 134.574 50.4267V50.2503H135.806C136.816 51.476 137.866 52.7226 138.874 53.9485H138.889V51.165C138.889 51.0226 138.861 50.9076 138.848 50.7991C138.814 50.5548 138.584 50.4607 138.136 50.4267V50.2503H139.796V50.4267C139.478 50.4607 139.246 50.5548 139.214 50.7991C139.2 50.9076 139.172 51.0226 139.172 51.165V54.9912" fill="#313131"/>
<path d="M143.351 51.2591C143.298 50.7861 143.04 50.4058 142.498 50.4058C142.106 50.4058 141.753 50.6097 141.753 51.1102C141.753 51.5845 142.227 51.8694 142.904 52.3777C143.623 52.9122 143.853 53.2572 143.853 53.8204C143.853 54.6253 143.028 55.0723 142.215 55.0723C141.78 55.0723 141.408 54.9912 141.055 54.8567C141.029 54.8423 141.008 54.8149 141.008 54.7613V53.7865H141.185C141.259 54.5378 141.753 54.8357 142.275 54.8357C142.755 54.8357 143.149 54.4699 143.149 53.9759C143.149 53.5355 142.912 53.1761 141.895 52.5058C141.529 52.2614 141.077 51.9974 141.077 51.2591C141.077 50.6502 141.753 50.1693 142.532 50.1693C142.823 50.1693 143.21 50.2032 143.48 50.2973C143.521 50.3117 143.528 50.3378 143.528 50.3719V51.2591" fill="#313131"/>
<path d="M146.081 54.8148C146.691 54.7403 146.664 54.7743 146.664 54.1445V53.1016L145.621 51.0356C145.398 50.5952 145.208 50.4267 144.896 50.4267V50.2503H146.624V50.4267C146.108 50.4267 146.155 50.6841 146.325 51.0356L147.145 52.7358L148.079 51.0356C148.309 50.6228 148.093 50.4267 147.693 50.4267V50.2503H149.089V50.4267C148.898 50.4267 148.716 50.5143 148.534 50.8397L147.402 52.8913C147.334 53.0272 147.321 53.2166 147.321 53.3865V54.1445C147.321 54.7743 147.294 54.7403 147.903 54.8148V54.9912H146.081" fill="#313131"/>
<path d="M150.199 54.8148C150.81 54.7403 150.782 54.7743 150.782 54.1445V51.097C150.782 50.4672 150.81 50.5012 150.199 50.4267V50.2503H152.022V50.4267C151.412 50.5012 151.439 50.4672 151.439 51.097V54.2529C151.439 54.7272 151.703 54.7743 152.306 54.7743C153.288 54.7743 153.248 54.4973 153.559 53.772H153.729L153.525 54.9912H150.199" fill="#313131"/>
<path d="M156.092 50.4267C155.719 50.4267 155.448 50.5352 155.671 51.1847C155.937 51.9844 156.329 53.1487 156.682 54.1785C157.114 53.1422 157.529 52.0994 157.947 51.0632C158.117 50.6371 157.942 50.4267 157.48 50.4267V50.2503H158.944V50.4267C158.748 50.4267 158.523 50.4946 158.382 50.8331C157.812 52.2209 157.237 53.6034 156.667 54.9912H156.322C155.91 53.8204 155.448 52.5124 155.035 51.3611C154.784 50.6371 154.575 50.4267 154.25 50.4267V50.2503H156.092" fill="#313131"/>
<path d="M161.708 53.163L160.988 50.9612H160.976L160.169 53.163H161.708ZM160.067 53.4205L159.757 54.3274C159.668 54.5914 159.797 54.8148 160.095 54.8148V54.9912H158.863V54.8148C159.045 54.8148 159.241 54.6998 159.35 54.4764C159.642 53.8805 160.433 51.6655 160.995 50.1693H161.376C161.835 51.5309 162.527 53.6165 162.757 54.219C162.906 54.5992 163.014 54.8148 163.305 54.8148V54.9912H161.727V54.8148C162.155 54.8148 162.195 54.5914 162.086 54.2935L161.795 53.4205" fill="#313131"/>
<path d="M168.521 54.9912C167.444 53.7184 166.326 52.3842 165.223 51.084V54.0778C165.223 54.219 165.249 54.3339 165.263 54.4423C165.297 54.6868 165.527 54.7821 165.974 54.8148V54.9912H164.314V54.8148C164.639 54.7821 164.863 54.6868 164.897 54.4423C164.91 54.3339 164.938 54.219 164.938 54.0778V50.8867C164.749 50.6436 164.538 50.4267 164.152 50.4267V50.2503H165.385C166.394 51.476 167.444 52.7226 168.453 53.9485H168.466V51.165C168.466 51.0226 168.44 50.9076 168.426 50.7991C168.392 50.5548 168.161 50.4607 167.714 50.4267V50.2503H169.374V50.4267C169.055 50.4607 168.825 50.5548 168.792 50.7991C168.778 50.9076 168.751 51.0226 168.751 51.165V54.9912" fill="#313131"/>
<path d="M171.724 54.1445C171.724 54.7743 171.698 54.7403 172.307 54.8148V54.9912H170.485V54.8148C171.094 54.7403 171.068 54.7743 171.068 54.1445V51.097C171.068 50.4672 171.094 50.5012 170.485 50.4267V50.2503H172.307V50.4267C171.698 50.5012 171.724 50.4672 171.724 51.097" fill="#313131"/>
<path d="M176.194 53.163L175.477 50.9612H175.462L174.658 53.163H176.194ZM174.556 53.4205L174.243 54.3274C174.156 54.5914 174.284 54.8148 174.583 54.8148V54.9912H173.35V54.8148C173.532 54.8148 173.728 54.6998 173.837 54.4764C174.128 53.8805 174.922 51.6655 175.483 50.1693H175.863C176.324 51.5309 177.014 53.6165 177.245 54.219C177.394 54.5992 177.501 54.8148 177.793 54.8148V54.9912H176.215V54.8148C176.641 54.8148 176.682 54.5914 176.573 54.2935L176.283 53.4205" fill="#313131"/>
<path d="M0.575305 0.323372H49.1653C49.1653 0.323372 49.1653 24.1934 49.1653 24.6141C48.8361 44.4143 26.6476 54.8213 23.8563 54.7259C20.9533 54.6265 0.509669 44.443 0.570448 24.5109C0.571152 24.1529 0.575305 0.323372 0.575305 0.323372Z" fill="white"/>
<path d="M0.570801 15.0856C0.641369 15.1555 0.573616 0.327291 0.573616 0.327291H49.1281C49.1281 0.327291 49.1281 8.27995 49.1281 15.0859" fill="#454545"/>
<path d="M0.57094 15.0856C0.641509 15.1555 0.573756 0.327292 0.573756 0.327292H49.1282C49.1282 0.327292 49.1282 8.27995 49.1282 15.0859L0.57094 15.0856Z" stroke="#454545" stroke-width="0.33756" stroke-miterlimit="3.8636"/>
<path d="M3.29102 36.6913C5.15897 40.6168 7.46773 43.7779 10.7092 46.4672L24.8473 32.1725L38.4567 46.1314C41.2619 43.5662 43.9947 40.46 45.9526 36.7802L24.831 16.4606L3.38799 36.7332" fill="#313131"/>
<path d="M3.29102 36.6913C5.15897 40.6168 7.46773 43.7779 10.7092 46.4672L24.8473 32.1725L38.4567 46.1314C41.2619 43.5662 43.9947 40.46 45.9526 36.7802L24.831 16.4606L3.38799 36.7332L3.29102 36.6913Z" stroke="#313131" stroke-width="0.337349" stroke-miterlimit="3.8636"/>
<path d="M0.570801 15.1858L49.1253 15.1795" stroke="#313131" stroke-width="0.33756" stroke-miterlimit="3.8636"/>
<path d="M36.9622 3.99478H38.2836C39.2522 3.77364 39.6054 3.21206 40.5985 3.21206C41.3133 3.21206 41.6498 3.68666 42.1748 3.68666C42.6182 3.68666 43.2997 3.18064 44.0464 3.18064C44.8103 3.18064 45.1878 3.63935 45.6887 3.85267C46.132 4.04248 46.7146 4.03235 47.3303 4.03235C47.3137 4.47541 47.3303 4.7384 47.3303 5.10983C47.3303 5.48944 47.8393 5.3391 47.8393 5.95626C47.8393 6.60469 47.182 6.47803 47.182 6.73903L47.1579 9.15061C47.1909 9.4512 47.7982 9.49068 47.7982 9.94903C47.7982 10.6293 47.1219 10.3937 47.166 10.9298C47.1987 11.3251 47.166 12.1633 47.166 12.1633C45.8609 12.1633 37.4662 12.2402 37.0552 12.2244C37.0801 11.331 37.219 11.3842 37.2497 10.9536C37.2745 10.6057 36.4947 10.3921 36.4947 9.807C36.4947 9.40345 36.9622 9.42739 37.003 9.04779V6.64395C36.9788 6.32773 36.2728 6.16952 36.297 5.71907C36.3264 5.17966 36.954 5.24864 36.954 4.88833C36.954 4.7305 36.9704 4.14508 36.9622 3.99478Z" fill="white"/>
<path d="M36.9622 3.99478H38.2836C39.2522 3.77364 39.6054 3.21206 40.5985 3.21206C41.3133 3.21206 41.6498 3.68666 42.1748 3.68666C42.6182 3.68666 43.2997 3.18064 44.0464 3.18064C44.8103 3.18064 45.1878 3.63935 45.6887 3.85267C46.132 4.04248 46.7146 4.03235 47.3303 4.03235C47.3137 4.47541 47.3303 4.7384 47.3303 5.10983C47.3303 5.48944 47.8393 5.3391 47.8393 5.95626C47.8393 6.60469 47.182 6.47803 47.182 6.73903L47.1579 9.15061C47.1909 9.4512 47.7982 9.49068 47.7982 9.94903C47.7982 10.6293 47.1219 10.3937 47.166 10.9298C47.1987 11.3251 47.166 12.1633 47.166 12.1633C45.8609 12.1633 37.4662 12.2402 37.0552 12.2244C37.0801 11.331 37.219 11.3842 37.2497 10.9536C37.2745 10.6057 36.4947 10.3921 36.4947 9.807C36.4947 9.40345 36.9622 9.42739 37.003 9.04779V6.64395C36.9788 6.32773 36.2728 6.16952 36.297 5.71907C36.3264 5.17966 36.954 5.24864 36.954 4.88833C36.954 4.7305 36.9704 4.14508 36.9622 3.99478Z" stroke="#313131" stroke-width="0.33756" stroke-miterlimit="3.8636"/>
<path d="M38.0376 4.03467C38.0376 4.03467 38.0543 9.41159 38.0376 10.6769C38.0376 10.6769 45.869 10.6926 46.2137 10.6609C46.2137 9.22967 46.2059 3.99478 46.2059 3.99478" stroke="#313131" stroke-width="0.33756" stroke-miterlimit="3.8636"/>
<path d="M42.1343 3.70231V10.6925" stroke="#313131" stroke-width="0.33756" stroke-miterlimit="3.8636"/>
<path d="M42.2578 9.83071C42.6025 9.84641 43.2353 10.0791 43.8504 10.2655C44.6463 10.5067 45.4907 10.3377 46.1156 10.4632C46.3127 10.5027 42.2578 10.5344 42.2578 10.5344C42.2739 9.75127 42.2578 9.83071 42.2578 9.83071Z" fill="#313131"/>
<path d="M42.2578 9.83071C42.6025 9.84641 43.2353 10.0791 43.8504 10.2655C44.6463 10.5067 45.4907 10.3377 46.1156 10.4632C46.3127 10.5027 42.2578 10.5344 42.2578 10.5344C42.2739 9.75127 42.2578 9.83071 42.2578 9.83071Z" stroke="#313131" stroke-width="0.33756" stroke-miterlimit="3.8636"/>
<path d="M41.6743 10.8667C41.6743 10.692 41.8784 10.5502 42.13 10.5502C42.3822 10.5502 42.5857 10.692 42.5857 10.8667C42.5857 11.0412 42.3822 11.1826 42.13 11.1826C41.8784 11.1826 41.6743 11.0412 41.6743 10.8667Z" fill="#313131"/>
<path d="M41.6743 10.8667C41.6743 10.692 41.8784 10.5502 42.13 10.5502C42.3822 10.5502 42.5857 10.692 42.5857 10.8667C42.5857 11.0412 42.3822 11.1826 42.13 11.1826C41.8784 11.1826 41.6743 11.0412 41.6743 10.8667Z" stroke="#313131" stroke-width="0.33756" stroke-miterlimit="3.8636"/>
<path d="M41.9063 9.83071C41.5617 9.84641 40.9289 10.0791 40.3138 10.2655C39.5176 10.5067 38.6731 10.3377 38.0485 10.4632C37.8515 10.5027 41.9063 10.5344 41.9063 10.5344C41.89 9.75127 41.9063 9.83071 41.9063 9.83071Z" fill="#313131"/>
<path d="M41.9063 9.83071C41.5617 9.84641 40.9289 10.0791 40.3138 10.2655C39.5176 10.5067 38.6731 10.3377 38.0485 10.4632C37.8515 10.5027 41.9063 10.5344 41.9063 10.5344C41.89 9.75127 41.9063 9.83071 41.9063 9.83071Z" stroke="#313131" stroke-width="0.33756" stroke-miterlimit="3.8636"/>
<path d="M14.9999 12.8667C15.1312 13.3806 15.517 13.7207 16.1492 13.7207C17.3231 13.7207 18.456 12.8507 19.1371 12.3608C19.6709 11.9811 20.2207 11.5779 20.2207 10.7475L20.1223 11.0637C20.1223 11.0637 21.0421 10.1467 23.3073 10.8739C23.9368 11.0761 26.6323 12.5896 27.2152 12.835C27.7161 13.0487 29.4713 14.3077 32.2146 13.8223C32.2146 13.8223 36.4028 13.246 35.4671 8.93304C34.7983 5.85035 35.0058 5.63154 35.2603 4.64294C35.162 4.59562 32.699 4.04212 32.7647 7.45807C31.6971 7.56878 30.3344 8.37503 31.221 10.4946C31.5824 9.95655 32.0665 9.38744 32.7316 9.38744C33.1502 9.38744 33.5912 9.98886 33.6183 10.4312C33.684 11.5067 32.6004 11.9811 31.2544 11.7596C30.5716 11.6475 29.9431 10.8913 29.0021 10.2104C29.1665 10.1313 29.3165 9.57728 29.3165 9.35572C29.3165 8.81018 28.8486 8.55738 28.5288 8.37504C28.5944 8.18559 28.7252 7.93238 28.7252 7.74251C28.7252 7.30776 28.1096 7.33946 27.8722 7.17346C27.9702 7.03881 27.9702 7.11825 27.9702 6.92028C27.9702 6.28749 28.0688 5.93958 26.7882 5.97163C26.895 5.34665 26.7634 4.94349 26.3285 4.76932L25.3763 4.64294C24.7853 4.53251 25.3748 4.33553 24.829 3.80992C24.3426 3.34038 23.5415 3.80992 23.5415 3.80992C23.5415 3.37503 23.2417 3.02969 22.7163 3.02969C22.4373 3.02969 22.0927 3.05356 21.8956 3.15646L21.5017 3.4727C21.009 3.4727 20.8859 3.02969 20.3194 3.02969C19.7532 3.02969 19.5232 3.47271 19.3014 3.75731C18.9156 3.57532 18.8663 3.25128 18.3492 3.25128C18.0456 3.25128 17.9555 3.57529 17.8238 3.72559C17.4874 4.09737 17.5112 4.48247 16.9858 4.67234L16.7905 4.32859C16.7842 4.30711 16.7784 4.28524 16.7732 4.26334C16.0012 4.63512 14.2602 8.60433 14.2602 9.41847C14.2602 10.1937 14.9343 9.85399 14.9343 10.6844C14.9343 11.1744 14.2119 11.5306 14.2119 11.9494C14.2119 12.4793 14.8275 12.7399 15.3609 12.7399" fill="white"/>
<path d="M14.9999 12.8667C15.1312 13.3806 15.517 13.7207 16.1492 13.7207C17.3231 13.7207 18.456 12.8507 19.1371 12.3608C19.6709 11.9811 20.2207 11.5779 20.2207 10.7475L20.1223 11.0637C20.1223 11.0637 21.0421 10.1467 23.3073 10.8739C23.9368 11.0761 26.6323 12.5896 27.2152 12.835C27.7161 13.0487 29.4713 14.3077 32.2146 13.8223C32.2146 13.8223 36.4028 13.246 35.4671 8.93304C34.7983 5.85035 35.0058 5.63154 35.2603 4.64294C35.162 4.59562 32.699 4.04212 32.7647 7.45807C31.6971 7.56878 30.3344 8.37503 31.221 10.4946C31.5824 9.95655 32.0665 9.38744 32.7316 9.38744C33.1502 9.38744 33.5912 9.98886 33.6183 10.4312C33.684 11.5067 32.6004 11.9811 31.2544 11.7596C30.5716 11.6475 29.9431 10.8913 29.0021 10.2104C29.1665 10.1313 29.3165 9.57728 29.3165 9.35572C29.3165 8.81018 28.8486 8.55738 28.5288 8.37504C28.5944 8.18559 28.7252 7.93238 28.7252 7.74251C28.7252 7.30776 28.1096 7.33946 27.8722 7.17346C27.9702 7.03881 27.9702 7.11825 27.9702 6.92028C27.9702 6.28749 28.0688 5.93958 26.7882 5.97163C26.895 5.34665 26.7634 4.94349 26.3285 4.76932L25.3763 4.64294C24.7853 4.53251 25.3748 4.33553 24.829 3.80992C24.3426 3.34038 23.5415 3.80992 23.5415 3.80992C23.5415 3.37503 23.2417 3.02969 22.7163 3.02969C22.4373 3.02969 22.0927 3.05356 21.8956 3.15646L21.5017 3.4727C21.009 3.4727 20.8859 3.02969 20.3194 3.02969C19.7532 3.02969 19.5232 3.47271 19.3014 3.75731C18.9156 3.57532 18.8663 3.25128 18.3492 3.25128C18.0456 3.25128 17.9555 3.57529 17.8238 3.72559C17.4874 4.09737 17.5112 4.48247 16.9858 4.67234L16.7905 4.32859C16.7842 4.30711 16.7784 4.28524 16.7732 4.26334C16.0012 4.63512 14.2602 8.60433 14.2602 9.41847C14.2602 10.1937 14.9343 9.85399 14.9343 10.6844C14.9343 11.1744 14.2119 11.5306 14.2119 11.9494C14.2119 12.4793 14.8275 12.7399 15.3609 12.7399L14.9999 12.8667Z" stroke="#313131" stroke-width="0.337349" stroke-miterlimit="3.8636"/>
<path d="M16.8139 9.5318C16.8139 9.5318 17.6679 9.86051 17.6679 10.0379C17.6679 10.2784 17.1161 10.5436 16.7483 10.8602H16.2886C16.453 10.3225 16.2886 10.5184 16.2886 10.0379C16.2886 9.67725 16.6695 9.5318 16.8139 9.5318Z" fill="#313131"/>
<path d="M16.8139 9.5318C16.8139 9.5318 17.6679 9.86051 17.6679 10.0379C17.6679 10.2784 17.1161 10.5436 16.7483 10.8602H16.2886C16.453 10.3225 16.2886 10.5184 16.2886 10.0379C16.2886 9.67725 16.6695 9.5318 16.8139 9.5318Z" stroke="#313131" stroke-width="0.33756" stroke-miterlimit="3.8636"/>
<path d="M19.9336 8.07605C20.3769 7.8628 20.1715 7.31727 20.8856 7.31727C21.5178 7.31727 21.756 7.75981 22.3305 7.75981C22.7164 7.75981 22.9873 7.3802 23.5125 7.3802C23.9804 7.3802 24.5962 8.01302 24.4979 8.77195C24.4979 8.77195 26.1395 8.23421 26.0738 10.0055C27.3871 9.56283 27.2561 10.6462 27.3871 11.1758C27.5187 11.6822 28.3727 11.2708 28.241 12.3459" stroke="#313131" stroke-width="0.33756" stroke-miterlimit="3.8636"/>
<path d="M2.40842 4.03759H3.72985C4.69851 3.81609 5.05164 3.25447 6.04516 3.25447C6.7593 3.25447 7.09573 3.72908 7.62112 3.72908C8.06411 3.72908 8.74585 3.22305 9.49266 3.22305C10.2562 3.22305 10.6338 3.68176 11.1346 3.89509C11.578 4.08489 12.1608 4.07511 12.7766 4.07511C12.7599 4.51782 12.7766 4.7808 12.7766 5.15259C12.7766 5.5322 13.2853 5.38188 13.2853 5.99833C13.2853 6.64683 12.6287 6.52041 12.6287 6.78106L12.6041 9.19345C12.6368 9.49362 13.2444 9.53309 13.2444 9.99178C13.2444 10.6719 12.5678 10.4364 12.6123 10.9722C12.6449 11.3678 12.6123 12.2058 12.6123 12.2058C11.3068 12.2058 3.08953 12.2139 2.67921 12.1979C2.70408 11.3044 2.6652 11.4266 2.69555 10.996C2.72006 10.6481 1.94028 10.4348 1.94028 9.84933C1.94028 9.4462 2.40842 9.46973 2.44926 9.09055V6.68636C2.42475 6.37042 1.71879 6.21195 1.7433 5.76114C1.77267 5.22244 2.40025 5.29138 2.40025 4.931C2.40025 4.77289 2.41659 4.18781 2.40842 4.03759Z" fill="white"/>
<path d="M2.40842 4.03759H3.72985C4.69851 3.81609 5.05164 3.25447 6.04516 3.25447C6.7593 3.25447 7.09573 3.72908 7.62112 3.72908C8.06411 3.72908 8.74585 3.22305 9.49266 3.22305C10.2562 3.22305 10.6338 3.68176 11.1346 3.89509C11.578 4.08489 12.1608 4.07511 12.7766 4.07511C12.7599 4.51782 12.7766 4.7808 12.7766 5.15259C12.7766 5.5322 13.2853 5.38188 13.2853 5.99833C13.2853 6.64683 12.6287 6.52041 12.6287 6.78106L12.6041 9.19345C12.6368 9.49362 13.2444 9.53309 13.2444 9.99178C13.2444 10.6719 12.5678 10.4364 12.6123 10.9722C12.6449 11.3678 12.6123 12.2058 12.6123 12.2058C11.3068 12.2058 3.08953 12.2139 2.67921 12.1979C2.70408 11.3044 2.6652 11.4266 2.69555 10.996C2.72006 10.6481 1.94028 10.4348 1.94028 9.84933C1.94028 9.4462 2.40842 9.46973 2.44926 9.09055V6.68636C2.42475 6.37042 1.71879 6.21195 1.7433 5.76114C1.77267 5.22244 2.40025 5.29138 2.40025 4.931C2.40025 4.77289 2.41659 4.18781 2.40842 4.03759Z" stroke="#313131" stroke-width="0.33756" stroke-miterlimit="3.8636"/>
<path d="M3.4834 4.07715C3.4834 4.07715 3.49974 9.45414 3.4834 10.7194C3.4834 10.7194 11.3152 10.7351 11.6598 10.7034C11.6598 9.27216 11.6513 4.03765 11.6513 4.03765" stroke="#313131" stroke-width="0.33756" stroke-miterlimit="3.8636"/>
<path d="M7.58008 3.74479V10.735" stroke="#313131" stroke-width="0.33756" stroke-miterlimit="3.8636"/>
<path d="M7.70312 9.87323C8.04815 9.88922 8.6813 10.1219 9.29607 10.3081C10.0919 10.5495 10.9364 10.3803 11.5613 10.5058C11.7587 10.5453 7.70312 10.5769 7.70312 10.5769C7.71946 9.79417 7.70312 9.87323 7.70312 9.87323Z" fill="#313131"/>
<path d="M7.70312 9.87323C8.04815 9.88922 8.6813 10.1219 9.29607 10.3081C10.0919 10.5495 10.9364 10.3803 11.5613 10.5058C11.7587 10.5453 7.70312 10.5769 7.70312 10.5769C7.71946 9.79417 7.70312 9.87323 7.70312 9.87323Z" stroke="#313131" stroke-width="0.33756" stroke-miterlimit="3.8636"/>
<path d="M7.12012 10.9092C7.12012 10.7344 7.324 10.5927 7.57585 10.5927C7.82777 10.5927 8.03131 10.7344 8.03131 10.9092C8.03131 11.0837 7.82777 11.2255 7.57585 11.2255C7.324 11.2255 7.12012 11.0837 7.12012 10.9092Z" fill="#313131"/>
<path d="M7.12012 10.9092C7.12012 10.7344 7.324 10.5927 7.57585 10.5927C7.82777 10.5927 8.03131 10.7344 8.03131 10.9092C8.03131 11.0837 7.82777 11.2255 7.57585 11.2255C7.324 11.2255 7.12012 11.0837 7.12012 10.9092Z" stroke="#313131" stroke-width="0.33756" stroke-miterlimit="3.8636"/>
<path d="M7.35242 9.87323C7.00782 9.88922 6.37468 10.1219 5.7602 10.3081C4.96373 10.5495 4.11951 10.3803 3.49426 10.5058C3.29727 10.5453 7.35242 10.5769 7.35242 10.5769C7.33615 9.79417 7.35242 9.87323 7.35242 9.87323Z" fill="#313131"/>
<path d="M7.35242 9.87323C7.00782 9.88922 6.37468 10.1219 5.7602 10.3081C4.96373 10.5495 4.11951 10.3803 3.49426 10.5058C3.29727 10.5453 7.35242 10.5769 7.35242 10.5769C7.33615 9.79417 7.35242 9.87323 7.35242 9.87323Z" stroke="#313131" stroke-width="0.33756" stroke-miterlimit="3.8636"/>
<path d="M8.91895 35.0736C8.91895 32.818 10.8168 30.9885 13.1581 30.9885C15.4995 30.9885 17.3976 32.818 17.3976 35.0736C17.3976 37.329 15.4995 39.1559 13.1581 39.1559C10.8168 39.1559 8.91895 37.329 8.91895 35.0736Z" fill="white"/>
<path d="M8.91895 35.0736C8.91895 32.818 10.8168 30.9885 13.1581 30.9885C15.4995 30.9885 17.3976 32.818 17.3976 35.0736C17.3976 37.329 15.4995 39.1559 13.1581 39.1559C10.8168 39.1559 8.91895 37.329 8.91895 35.0736Z" stroke="#313131" stroke-width="0.33756" stroke-miterlimit="3.8636"/>
<path d="M20.5737 25.2647C20.5737 23.0092 22.4718 21.181 24.8128 21.181C27.1542 21.181 29.0519 23.0092 29.0519 25.2647C29.0519 27.5205 27.1542 29.3473 24.8128 29.3473C22.4718 29.3473 20.5737 27.5205 20.5737 25.2647Z" fill="white"/>
<path d="M20.5737 25.2647C20.5737 23.0092 22.4718 21.181 24.8128 21.181C27.1542 21.181 29.0519 23.0092 29.0519 25.2647C29.0519 27.5205 27.1542 29.3473 24.8128 29.3473C22.4718 29.3473 20.5737 27.5205 20.5737 25.2647Z" stroke="#313131" stroke-width="0.337349" stroke-miterlimit="3.8636"/>
<path d="M31.5698 35.0736C31.5698 32.818 33.4679 30.9885 35.8096 30.9885C38.1507 30.9885 40.0488 32.818 40.0488 35.0736C40.0488 37.329 38.1507 39.1559 35.8096 39.1559C33.4679 39.1559 31.5698 37.329 31.5698 35.0736Z" fill="white"/>
<path d="M31.5698 35.0736C31.5698 32.818 33.4679 30.9885 35.8096 30.9885C38.1507 30.9885 40.0488 32.818 40.0488 35.0736C40.0488 37.329 38.1507 39.1559 35.8096 39.1559C33.4679 39.1559 31.5698 37.329 31.5698 35.0736Z" stroke="#313131" stroke-width="0.33756" stroke-miterlimit="3.8636"/>
<path d="M29.0654 10.0425C27.9821 8.85007 27.0265 7.45019 26.8618 7.38025C26.3283 7.15876 25.0562 4.62859 21.641 4.43879C20.774 4.3904 17.508 4.70761 17.396 5.5433" stroke="#313131" stroke-width="0.33756" stroke-miterlimit="3.8636"/>
<path d="M20.2422 10.9622C20.255 10.8805 20.2618 10.7932 20.2618 10.7014C20.2618 10.5658 19.4615 10.6426 19.2713 10.5861C19.14 10.5465 19.6233 10.3535 19.5392 10.3535C20.0319 10.1638 21.2939 9.60831 20.8528 9.18328C20.4259 8.77199 20.1714 8.33718 19.9335 8.0761C19.6134 7.72826 19.2354 7.53835 18.6526 7.53835C18.1517 7.53835 17.3403 8.40708 17.0038 8.64463C17.2501 8.40708 17.9629 7.79126 17.9629 7.28517C17.9629 6.1467 17.0522 5.15812 16.814 4.21728" stroke="#313131" stroke-width="0.33756" stroke-miterlimit="3.8636"/>
<path d="M15.333 12.6938C16.2357 12.6938 16.7447 12.6309 17.1719 12.4093C17.6394 12.1643 18.4853 11.6344 18.6823 11.1758" stroke="#313131" stroke-width="0.33756" stroke-miterlimit="3.8636"/>
<path d="M0.559755 0.327234H49.1491C49.1491 0.327234 49.1491 24.1973 49.1491 24.6184C48.8205 44.4181 26.6319 54.8252 23.8408 54.7298C20.9381 54.6305 0.494044 44.4469 0.554823 24.5154C0.555527 24.1567 0.559755 0.327234 0.559755 0.327234Z" stroke="#313131" stroke-width="0.669063" stroke-miterlimit="3.8636"/>
</g>
</g>
</g>
<defs>
<clipPath id="clip0_6_2192">
<rect width="177.61" height="57.1846" fill="white" transform="translate(0.220215 -0.00732422)"/>
</clipPath>
</defs>
</svg>
