<svg width="179" height="51" viewBox="0 0 179 51" fill="none" xmlns="http://www.w3.org/2000/svg">
<path d="M23.254 46.4455C17.4101 45.7449 12.2905 42.7957 8.78189 38.1088C4.08199 31.8305 3.30164 23.4404 6.76011 16.3713C9.61823 10.5295 14.995 6.34571 21.3497 5.01895C22.6056 4.75671 23.588 4.64771 25.0402 4.60932C29.1992 4.4992 32.9688 5.49105 36.479 7.61905C40.8118 10.2458 44.0655 14.3604 45.6127 19.1696C46.8125 22.8989 46.9369 26.8959 45.9727 30.7397C45.2657 33.5586 43.8647 36.3655 41.9967 38.7055C41.2891 39.592 39.6957 41.1955 38.8428 41.8796C35.6026 44.4784 31.9611 45.9926 27.8371 46.4563C26.813 46.5715 24.2544 46.5654 23.254 46.4455ZM28.5148 45.7842C30.3893 45.4936 32.383 44.9128 33.9575 44.1986C39.6552 41.614 43.8725 36.6007 45.3934 30.6046C45.6044 29.7732 45.8012 28.6983 45.9196 27.732C46.0236 26.8836 46.0258 24.3696 45.9233 23.4718C45.3776 18.6905 43.3698 14.493 40.041 11.1732C36.7775 7.91886 32.8344 5.97674 28.1597 5.32123C27.0394 5.16417 24.1998 5.16376 23.0791 5.32051C18.4042 5.97437 14.4294 7.93132 11.1838 11.1769C8.20039 14.1603 6.20309 18.0195 5.50539 22.1486C5.29378 23.401 5.23039 24.1916 5.2309 25.5697C5.23234 28.9121 5.94806 31.9123 7.44052 34.8326C10.5851 40.9855 16.5046 45.0689 23.4477 45.8749C24.5644 46.0046 27.424 45.9532 28.5148 45.7842ZM31.6987 43.4817C31.6559 43.4389 30.5783 43.3367 29.3217 43.2564C27.7191 43.154 23.4793 43.1689 23.1163 43.2782C22.832 43.3637 22.1933 43.3264 22.0105 43.2135C21.9768 43.1927 21.6042 43.1798 21.1826 43.185C20.3573 43.1951 20.1268 43.1392 19.7228 42.8311C19.6053 42.7414 19.3491 42.6263 19.1535 42.5754C18.385 42.3752 17.771 41.9667 17.5331 41.4972C17.3976 41.23 17.3174 41.156 17.0205 41.0247C16.599 40.8383 16.4123 40.576 16.412 40.1698C16.4117 39.7886 16.475 39.6874 17.0912 39.0845C17.6955 38.4935 17.7664 38.3381 17.7669 37.6024C17.7676 36.7523 17.4792 36.368 15.8225 35.0123L15.4112 34.6757L15.2979 34.8187C15.0814 35.0916 14.7425 35.8335 14.6661 36.2011C14.5425 36.7971 14.6177 37.9623 14.8166 38.5318C15.0619 39.2342 15.4833 39.9246 16.0083 40.484C16.504 41.0124 16.5782 41.2075 16.3589 41.4061C16.2484 41.5059 16.2034 41.4865 15.6003 41.0771C15.2476 40.8378 14.6977 40.4401 14.3782 40.193C13.6072 39.5968 11.9111 37.9016 11.2573 37.0735C7.4646 32.2698 6.23634 26.1684 7.90202 20.4059C8.76295 17.4273 10.5398 14.4838 12.7745 12.3338C15.6991 9.51991 19.2161 7.82778 23.3185 7.26037C24.5721 7.08695 26.8619 7.10445 28.1598 7.29742C29.3927 7.48062 30.8277 7.83714 31.936 8.23565C32.7491 8.52805 34.8744 9.52649 34.8715 9.6146C34.8707 9.63847 34.2644 10.3476 33.5242 11.1903C32.784 12.0329 32.1483 12.8027 32.1117 12.9009C32.075 12.999 31.9956 13.2947 31.9352 13.5579L31.8254 14.0365L31.9775 14.1538C32.0612 14.2184 32.1709 14.2561 32.2212 14.2378C32.5128 14.1318 33.2875 14.0784 33.6256 14.141C33.8277 14.1783 34.0014 14.2089 34.0118 14.2089C34.0556 14.2089 33.8908 14.5635 33.7648 14.7404C33.6521 14.8987 33.644 14.9422 33.7181 14.9891C33.876 15.0891 34.0356 15.053 34.3294 14.8508C34.9933 14.3942 35.4203 14.345 35.7438 14.6879C36.1184 15.0852 36.1523 15.5795 35.8354 16.0245C35.74 16.1583 35.7112 16.2545 35.7501 16.3083C36.2063 16.9394 36.5074 17.3241 36.7575 17.5959C37.1532 18.0262 37.2243 18.2137 37.1026 18.505C37.0211 18.7001 37.0212 18.7623 37.103 18.9942C37.2438 19.3932 37.2265 19.9241 37.0677 20.0829C36.8853 20.2653 36.9018 20.3706 37.228 21.1065C37.6868 22.1413 37.7776 22.4653 37.7776 23.0666C37.7776 23.5728 37.798 23.65 38.1552 24.5048C38.3628 25.0017 38.766 25.9027 39.0511 26.5072C39.3362 27.1115 39.6274 27.8112 39.6984 28.062C39.8124 28.4648 39.8174 28.5474 39.7413 28.7705C39.6123 29.1486 39.3532 29.3374 38.6408 29.5727C37.4454 29.9677 37.3267 30.0837 37.4602 30.7266C37.5013 30.9243 37.6056 31.2408 37.6922 31.4302C37.8275 31.726 37.8396 31.8049 37.7781 31.9911C37.7387 32.1104 37.6655 32.242 37.6155 32.2835C37.5381 32.3478 37.5447 32.3868 37.6594 32.5418C37.8568 32.8088 37.7453 33.1034 37.338 33.3909C37.021 33.6146 36.9371 34.1138 37.0682 34.994C37.1778 35.7291 36.9398 36.4604 36.4316 36.9506C36.1279 37.2436 35.3117 37.6508 34.5791 37.8748C34.0493 38.0368 33.9081 38.0521 32.8719 38.0584L31.7423 38.0652L31.6243 38.5145C31.5594 38.7615 31.4903 39.3004 31.4706 39.7118C31.4171 40.8361 31.583 41.6016 32.1023 42.6259C32.2416 42.9005 32.3555 43.2128 32.3555 43.3199C32.3555 43.5095 32.3475 43.5144 32.0436 43.5144C31.8719 43.5144 31.7167 43.4997 31.6987 43.4817ZM23.2221 42.9335C23.6269 42.9335 24.2868 42.2884 24.2868 41.8925C24.2868 41.742 24.2383 41.6854 24.0125 41.5724C23.4263 41.2789 23.1187 40.8499 22.9836 40.137C22.9059 39.7276 22.8992 39.7178 22.6757 39.6807C22.55 39.6599 22.2656 39.6426 22.0437 39.6422C21.7319 39.6416 21.6122 39.6696 21.517 39.7648C21.3446 39.9372 21.2361 40.5312 21.264 41.1505C21.2832 41.5792 21.327 41.7594 21.5038 42.1388C21.7977 42.769 21.9409 42.892 22.4361 42.9395C22.6552 42.9605 22.8731 42.9678 22.9204 42.9557C22.9677 42.9435 23.1035 42.9335 23.2221 42.9335ZM31.5164 42.9274C31.5164 42.8886 31.4088 42.5473 31.2773 42.169C31.0666 41.5627 31.0352 41.3918 31.0125 40.7264C30.9885 40.0275 31.0038 39.9024 31.2192 39.042C31.3472 38.5307 31.4518 38.0826 31.4518 38.0462C31.4518 38.0098 31.2267 37.9006 30.9516 37.8035C29.3429 37.2361 27.88 36.221 25.9368 34.3241C25.514 33.9114 25.1401 33.5738 25.1057 33.5738C24.9984 33.5738 25.1049 34.2132 25.3479 35.0262C25.9238 36.9534 26.0621 38.1677 25.7833 38.8495C25.646 39.1854 25.6459 39.1882 25.7703 39.3992C25.8393 39.5159 25.9428 39.7959 26.0005 40.0215C26.1251 40.5076 26.0588 40.8935 25.7903 41.2462C25.6167 41.4738 25.1958 41.7032 24.947 41.7057C24.7762 41.7073 24.7177 41.8267 24.6051 42.4044C24.5585 42.6437 24.5498 42.8334 24.5838 42.865C24.6157 42.8946 24.9759 42.8943 25.3841 42.8643C28.4501 42.6392 29.69 42.6471 30.8386 42.8997C31.3332 43.0085 31.5164 43.016 31.5164 42.9275V42.9274ZM20.9733 42.767C20.995 42.711 20.9513 42.5426 20.8766 42.3929C20.6545 41.9483 20.5697 41.2866 20.6588 40.695C20.7339 40.1958 20.7576 39.9435 20.7437 39.7867C20.7334 39.6704 19.9589 39.6791 19.7975 39.7972C19.6891 39.8765 19.6695 39.9886 19.6485 40.6524C19.6071 41.9593 19.7922 42.551 20.3138 42.7782C20.5902 42.8986 20.9251 42.8929 20.9733 42.767ZM19.0888 40.9486C19.087 39.6968 19.1086 39.7296 18.4368 39.956L18.0577 40.0838L18.0387 40.5798C18.0048 41.4649 18.3223 42.0299 18.8535 42.0299H19.0905L19.089 40.9486H19.0888ZM25.1119 41.1544C25.4223 40.9372 25.5415 40.3788 25.3779 39.9094C25.2963 39.6758 25.2856 39.6729 24.9745 39.8029C24.83 39.8633 24.5355 39.8996 24.192 39.8996H23.6414L23.6427 40.1096C23.6444 40.3583 23.8318 40.7917 24.0034 40.9443C24.3498 41.2515 24.8405 41.3446 25.1119 41.1545V41.1544ZM17.4445 40.6179C17.4445 40.5513 17.4837 40.3843 17.5316 40.2467C17.5796 40.1092 17.6063 39.9602 17.5908 39.9159C17.5274 39.7332 16.9255 39.9034 16.8392 40.1284C16.7729 40.301 16.8598 40.5096 17.0444 40.6215C17.285 40.7673 17.4445 40.7659 17.4445 40.6179ZM14.4333 39.1295C14.0971 38.3518 14.0052 37.8172 14.0443 36.8659C14.067 36.3096 14.1183 35.9304 14.2091 35.6446C14.334 35.2521 14.3351 35.2229 14.2305 35.0903C13.2624 33.8634 12.7623 33.083 12.2243 31.9601C11.5928 30.6415 11.1819 29.3109 10.9488 27.8289C10.7841 26.7815 10.7831 24.4041 10.947 23.4072C11.2188 21.7544 11.6363 20.4408 12.3424 19.0178C14.0413 15.5936 16.9938 12.9481 20.5751 11.6411C24.0409 10.3764 28.0171 10.4803 31.401 11.9239L31.8988 12.1364L32.9327 10.9617L33.9664 9.78719L33.4354 9.52094C30.8353 8.21733 27.4225 7.53764 24.5341 7.74843C21.9528 7.93677 19.7725 8.52651 17.6059 9.62262C12.3276 12.2931 8.79682 17.2203 7.91272 23.1491C7.75114 24.2318 7.75052 26.9119 7.91138 27.9256C8.53406 31.8491 10.1958 35.2296 12.8582 37.989C13.3436 38.492 14.5852 39.6415 14.6432 39.6415C14.6494 39.6415 14.5551 39.411 14.4332 39.1295H14.4333ZM12.5653 37.0276C12.465 36.8745 12.4751 36.8049 12.7719 35.6076C12.9436 34.915 13.102 34.3485 13.1239 34.3485C13.146 34.3485 13.2142 34.4428 13.2756 34.5582C13.3857 34.7647 13.3827 34.7871 13.0921 35.954C12.9298 36.6063 12.797 37.151 12.797 37.1644C12.797 37.2475 12.6541 37.1633 12.5653 37.0276ZM10.652 34.3741C10.5823 34.221 10.6236 34.1131 11.1146 33.1637C11.411 32.5905 11.676 32.0964 11.7034 32.0656C11.7308 32.0349 11.8 32.1004 11.8573 32.2111C11.9577 32.4054 11.9549 32.4243 11.7761 32.7511C11.6742 32.9374 11.4204 33.4165 11.2122 33.8159C11.004 34.2153 10.81 34.542 10.781 34.542C10.7522 34.542 10.6941 34.4665 10.652 34.3741ZM9.18205 31.2175C9.14654 31.1242 9.11762 31.0353 9.11762 31.02C9.11762 30.9968 10.2655 29.7165 10.6706 29.2878C10.7834 29.1684 10.7875 29.1713 10.8304 29.4C10.8735 29.629 10.8556 29.656 10.1184 30.4751C9.70252 30.9372 9.33623 31.3314 9.30432 31.3511C9.27242 31.3708 9.21746 31.3106 9.18205 31.2175ZM8.37093 27.9315C8.34859 27.8426 8.34046 27.7426 8.35281 27.7093C8.37422 27.6515 10.3133 26.3443 10.3776 26.3443C10.3947 26.3443 10.4086 26.4422 10.4086 26.5619C10.4086 26.7697 10.3711 26.804 9.5856 27.316C9.13296 27.6111 8.6836 27.9066 8.58706 27.9728L8.41148 28.0931L8.37093 27.9315ZM8.21387 24.4723C8.21387 24.3658 8.222 24.2786 8.23178 24.2786C8.24166 24.2786 8.75184 24.1043 9.36556 23.8912L10.4812 23.5037L10.4611 23.7137C10.4409 23.9232 10.439 23.9243 9.40807 24.2911C8.83994 24.493 8.33892 24.66 8.29456 24.6621C8.24711 24.6644 8.21387 24.5863 8.21387 24.4723ZM8.7682 21.1406C8.7929 21.0381 8.8174 20.9483 8.82275 20.9409C8.8457 20.9092 11.0672 20.72 11.0946 20.7474C11.1113 20.7641 11.1067 20.8503 11.0844 20.9388C11.0413 21.1107 10.9332 21.1306 9.19481 21.2848L8.72343 21.3267L8.7682 21.1406ZM11.0218 18.2845C10.4182 18.1995 9.91609 18.1229 9.9059 18.1143C9.86257 18.0776 10.0482 17.7592 10.1124 17.7603C10.2611 17.763 12.2912 18.071 12.3147 18.0945C12.3284 18.1082 12.29 18.1912 12.2293 18.2791L12.1192 18.4389L11.0218 18.2845ZM12.7163 15.6145C12.1571 15.399 11.6996 15.1929 11.6996 15.1565C11.6996 15.1202 11.7443 15.0411 11.7988 14.9808C11.8915 14.8784 11.9667 14.8974 12.9272 15.2662C13.4932 15.4834 13.9568 15.6799 13.9575 15.7026C13.9582 15.7252 13.908 15.8028 13.8458 15.8751C13.7332 16.0059 13.7296 16.0051 12.7163 15.6145ZM14.8625 13.3297C14.3832 12.9959 13.9911 12.6902 13.9911 12.6506C13.9911 12.611 14.0492 12.5411 14.1202 12.4953C14.2363 12.4203 14.337 12.4735 15.1207 13.0242C15.6 13.3609 15.9922 13.6672 15.9922 13.705C15.9922 13.7427 15.934 13.8103 15.863 13.8553C15.7476 13.9282 15.6416 13.8727 14.8625 13.3297ZM17.3356 11.5083C16.619 10.6923 16.618 10.6907 16.7569 10.5795C16.8332 10.5181 16.912 10.4746 16.9316 10.4827C16.9512 10.4907 17.2103 10.7732 17.5074 11.1106C17.8044 11.4477 18.1329 11.8156 18.2375 11.9281L18.4275 12.1324L18.2404 12.2291L18.0534 12.3259L17.3356 11.5083ZM30.6573 11.1845C30.5578 11.1452 30.6433 11.0085 31.2383 10.2551C31.622 9.76929 31.9667 9.37098 32.0043 9.36975C32.0419 9.36861 32.1255 9.40628 32.19 9.45342C32.2987 9.53298 32.2579 9.60214 31.6375 10.3892C30.9871 11.2144 30.9041 11.2818 30.6573 11.1845ZM20.5001 11.097C20.3227 10.8211 19.598 9.26374 19.6312 9.22967C19.6534 9.20703 19.7304 9.1708 19.8024 9.14918C19.9174 9.1146 19.9918 9.22741 20.4127 10.0755C20.6763 10.6066 20.8789 11.053 20.8627 11.0677C20.7695 11.1525 20.5475 11.1705 20.5001 11.097ZM28.5033 10.6035C28.3657 10.5627 28.3712 10.5403 28.7529 9.5936C28.9674 9.06098 29.1662 8.60031 29.1944 8.56963C29.2232 8.53845 29.3167 8.53845 29.407 8.56963L29.5682 8.62532L29.1691 9.62098C28.9495 10.1685 28.7416 10.623 28.7069 10.6308C28.6723 10.6387 28.5806 10.6263 28.5032 10.6035H28.5033ZM22.9011 9.54512C22.801 9.00376 22.707 8.52805 22.6922 8.48812C22.6584 8.39652 23.0018 8.30461 23.0551 8.39096C23.0767 8.42596 23.1772 8.896 23.2784 9.43541C23.4307 10.2479 23.4472 10.4256 23.3742 10.4718C23.1254 10.6295 23.0879 10.556 22.9011 9.54512ZM25.7069 10.218C25.7069 10.0702 25.8255 8.7833 25.873 8.41556C25.9059 8.16042 25.9223 8.14117 26.1055 8.14117C26.3 8.14117 26.3021 8.14477 26.2661 8.41556C26.2459 8.56644 26.1952 9.06026 26.1532 9.51291L26.0769 10.3359H25.8918C25.7558 10.3359 25.7069 10.3047 25.7069 10.218ZM19.5825 39.1835C20.3373 39.1139 20.7231 39.1185 22.311 39.2164C24.2935 39.3387 24.6833 39.322 25.0123 39.1006C25.3241 38.8907 25.4075 38.6604 25.4366 37.9285C25.4673 37.1538 25.3125 36.2921 24.9209 35.0585C24.78 34.6147 24.6297 34.08 24.587 33.8703C24.5442 33.66 24.4666 33.4694 24.4141 33.4454C24.3101 33.3963 24.2067 33.3459 24.104 33.2942C23.9857 33.235 23.8581 33.1866 23.8205 33.1866C23.7198 33.1866 23.8081 34.0962 24.0022 35.0585C24.3859 36.9601 24.3967 37.6772 24.0473 38.0419C23.7859 38.3147 23.477 38.3696 22.4807 38.3202C21.4735 38.2702 20.3686 38.36 19.8007 38.5381C19.5376 38.6206 19.377 38.6403 19.3004 38.5996C19.0654 38.4749 19.2076 38.3037 19.6449 38.1846C20.5211 37.9461 20.9625 37.8872 22.2061 37.8431L23.5144 37.7967L23.6908 37.6197C23.8545 37.4555 23.8666 37.4072 23.8581 36.9445C23.853 36.6597 23.7474 35.9488 23.6116 35.2844C23.4032 34.2641 23.3763 34.0282 23.3915 33.348C23.4077 32.6144 23.3994 32.5554 23.2334 32.2343C23.1371 32.0481 23.0417 31.8955 23.0216 31.8955C23.0014 31.8955 22.7768 32.0653 22.5224 32.273C21.7213 32.9269 20.7347 33.5075 20.1925 33.644C19.6644 33.7769 19.7117 33.6284 20.315 33.2597C21.3478 32.6286 22.6084 31.5901 22.6084 31.3704C22.6084 31.1082 22.4106 31.1603 22.1126 31.501C21.9521 31.6843 21.7381 31.8772 21.637 31.9295C21.453 32.0247 21.1884 32.0583 21.1884 31.9865C21.1884 31.9655 21.3928 31.7265 21.6427 31.4553C21.8926 31.1841 22.1122 30.902 22.1306 30.8285C22.1491 30.7549 22.1044 30.4789 22.0314 30.2151C21.7313 29.1324 21.9597 27.9662 22.5902 27.3624C22.8457 27.1177 23.3249 26.9229 23.7471 26.8922C23.9464 26.8776 24.1158 26.8573 24.1235 26.847C24.1311 26.8367 24.5557 26.2041 25.0672 25.4409C26.5195 23.2748 27.4375 22.0893 29.3919 19.857C30.4506 18.6477 31.9647 17.1193 33.0985 16.1158C33.4177 15.8333 33.6909 15.5937 33.7057 15.5833C33.7497 15.5524 33.6852 15.5094 33.4435 15.4084C33.225 15.3172 33.2036 15.3206 32.9626 15.4851C32.824 15.5798 32.4681 15.7489 32.1718 15.8608C31.6825 16.0455 31.6183 16.0903 31.4734 16.3469C31.136 16.9444 30.4646 17.4602 29.7056 17.7046C29.3044 17.8339 29.2641 17.8631 29.2287 18.052C29.1704 18.3626 28.7172 18.949 28.3106 19.2403C27.9422 19.504 27.047 19.8892 26.8025 19.8892C26.7283 19.8892 26.6855 19.9183 26.7074 19.9538C26.7293 19.9893 26.8037 20.0184 26.8726 20.0184C27.2788 20.0184 26.5512 21.1086 25.8406 21.5646C25.4997 21.7833 24.9663 21.9852 24.3836 22.1159C24.0086 22.2 24.0047 22.2029 24.2626 22.2079C24.4091 22.2107 24.6173 22.2307 24.7252 22.2523L24.9216 22.2916L24.8328 22.5435C24.5348 23.3878 23.6897 24.0585 22.559 24.3477C22.0856 24.4686 21.2472 24.5123 20.9459 24.4315C20.8005 24.3926 20.8004 24.3917 20.9198 24.1903C21.0356 23.995 21.0358 23.9762 20.9243 23.6331C20.8232 23.3219 20.8085 23.3035 20.805 23.4847C20.7993 23.7858 20.6732 24.3297 20.5337 24.6551C20.4198 24.9207 20.4194 24.9356 20.5259 24.891C21.1264 24.6401 21.4479 24.5778 22.1673 24.5736C22.5815 24.5711 22.9411 24.5899 22.9665 24.6152C23.0651 24.7137 22.7063 25.4025 22.3635 25.7726C21.6798 26.5112 20.6447 26.9037 19.5343 26.8457L18.9405 26.8147L18.8177 27.1484L18.6947 27.4822L19.1185 27.2666C19.7779 26.9313 20.6911 26.7852 21.3974 26.902C21.6187 26.9385 21.6351 26.9557 21.5979 27.1109C21.3803 28.0166 20.4021 28.874 19.2752 29.1467L18.8969 29.2383L19.4887 29.2437C20.3055 29.2511 20.3074 29.2522 20.1594 29.642C19.781 30.6379 19.0719 31.2568 17.9847 31.54C17.5992 31.6404 16.8424 31.6687 16.4796 31.596C16.3067 31.5614 16.2789 31.5318 16.3087 31.413C16.3313 31.3233 16.2914 31.1996 16.2005 31.0763L16.0567 30.8812V32.467L16.2504 32.3197C16.8158 31.8895 17.4918 31.7042 18.5019 31.7029L19.2042 31.7018L19.1658 31.9384C19.1051 32.3127 18.7958 32.861 18.4451 33.2167C17.8898 33.7795 16.9867 34.1516 16.1697 34.1538C15.9833 34.1543 15.8308 34.1779 15.8308 34.2062C15.8308 34.2344 16.2952 34.7166 16.8628 35.2776C17.7747 36.1791 17.9255 36.3587 18.1602 36.8238C18.4165 37.3317 18.4245 37.3668 18.3935 37.8342C18.3758 38.1004 18.3004 38.4781 18.2257 38.6733C18.0086 39.2415 18.0473 39.3361 18.4773 39.2893C18.6015 39.2757 19.0989 39.2281 19.5825 39.1835ZM34.2501 37.5759C35.2425 37.3565 36.2432 36.7715 36.5135 36.2526C36.6302 36.0286 36.6497 35.867 36.6604 35.0321C36.6717 34.1384 36.6845 34.0471 36.8378 33.7513C36.9287 33.5761 37.0031 33.4096 37.0031 33.3814C37.0031 33.3531 36.8952 33.3098 36.7633 33.285C36.4755 33.231 36.1639 33.0783 36.1639 32.9912C36.1639 32.8938 36.3066 32.9162 36.5835 33.0574C36.7228 33.1284 36.9323 33.1866 37.049 33.1866C37.2458 33.1866 37.5195 33.0062 37.5195 32.8765C37.5195 32.8479 37.4214 32.7295 37.3015 32.6132L37.0834 32.4019L37.3474 32.1556C37.5759 31.9425 37.5999 31.8955 37.5253 31.8057C37.3383 31.5804 36.9328 31.7322 36.363 32.2407C35.964 32.5966 35.7079 32.7065 35.3868 32.6596C35.305 32.6477 35.2266 32.603 35.2126 32.5605C35.1947 32.506 35.2538 32.494 35.4133 32.5198C35.7228 32.5702 36.1361 32.3606 36.4366 32.0011C36.5956 31.811 36.7932 31.6674 37.0325 31.5683C37.2294 31.4867 37.3904 31.3852 37.3904 31.3429C37.3904 31.3004 37.3468 31.1615 37.2937 31.0341C37.2404 30.9067 37.1967 30.6602 37.1967 30.4863C37.1967 30.0437 37.3608 29.9022 38.2546 29.5744C39.0857 29.2695 39.4367 29.0578 39.4948 28.8262C39.5565 28.5802 39.4175 28.1315 39.0261 27.3141C38.4397 26.0897 37.6737 24.2685 37.6 23.9236C37.5621 23.7461 37.5306 23.4265 37.53 23.2135C37.529 22.8819 37.4569 22.6469 37.0267 21.5765C36.7505 20.8892 36.4908 20.3139 36.4496 20.298C36.4085 20.2823 36.2475 20.3538 36.0919 20.4572C35.7039 20.7147 35.4404 20.793 34.9618 20.793C34.5818 20.793 34.5471 20.8052 34.4615 20.9704C34.1887 21.4966 33.5767 21.8822 32.7365 22.0573C32.4789 22.111 32.2438 22.17 32.2141 22.1884C32.1844 22.2068 32.1004 22.3388 32.0274 22.4817C31.7577 23.0103 31.1242 23.5046 30.5684 23.62C30.3513 23.6651 30.3142 23.705 30.1812 24.0358L30.034 24.4019L30.1935 24.7192C30.4638 25.2574 30.5695 25.7845 30.4937 26.2155C30.4098 26.6915 30.1108 27.2836 29.7484 27.6918C29.4978 27.9738 29.4552 28.0675 29.3877 28.4851C29.2724 29.1974 29.214 29.3834 28.9992 29.7221C28.5344 30.4552 27.597 30.4463 26.9095 29.702C26.7088 29.4848 26.6327 29.4413 26.5222 29.4807C26.4466 29.5075 26.1701 29.5318 25.9078 29.5345C25.3695 29.5401 25.3788 29.5477 25.2532 28.9908C25.0577 28.1218 24.6232 27.3973 24.212 27.2541C23.9289 27.1553 23.4099 27.166 23.2023 27.2747C22.9335 27.4157 22.6303 27.7635 22.4665 28.1193C22.3389 28.3968 22.318 28.5463 22.318 29.1845C22.318 29.9039 22.3252 29.9418 22.551 30.4147C22.6792 30.683 22.9193 31.0549 23.0845 31.2408C23.2496 31.4268 23.4993 31.8069 23.6394 32.0854C23.8945 32.5926 24.1162 32.8347 24.3887 32.9031C24.612 32.9591 24.9938 32.7456 25.1115 32.4986C25.1681 32.38 25.236 32.2828 25.2627 32.2828C25.3605 32.2828 25.3888 32.5422 25.3191 32.8009C25.2498 33.0582 25.2556 33.0772 25.4933 33.3682C26.2481 34.2926 28.1518 35.8541 29.4898 36.6464C31.0554 37.5736 32.7574 37.9059 34.2501 37.576V37.5759ZM24.2755 31.6348C24.216 31.6001 24.1324 31.463 24.0898 31.3302C24.0031 31.0603 23.8544 30.8627 23.7378 30.8627C23.5371 30.8627 23.1298 30.4652 22.9388 30.0829C22.7657 29.7365 22.7376 29.6106 22.7376 29.1823C22.7376 28.1071 23.2714 27.4172 23.9341 27.636C24.3575 27.7758 24.4353 28.0629 24.3251 29.081C24.2723 29.5683 24.2763 29.5956 24.4175 29.7021C24.5075 29.7699 24.5502 29.8525 24.5267 29.9135C24.4729 30.0537 24.239 29.9801 24.1092 29.782C24.0133 29.6357 24.0129 29.5729 24.1047 29.0358C24.22 28.361 24.1776 28.0983 23.9208 27.8964C23.6842 27.7102 23.5261 27.7315 23.2907 27.9811C23.0346 28.2527 22.9299 28.5959 22.9195 29.198C22.9098 29.7585 23.0587 30.1113 23.4238 30.3918C23.9317 30.7824 24.1029 30.9547 24.1897 31.1625C24.2867 31.3946 24.5003 31.4595 24.5699 31.2782C24.6245 31.136 24.7387 31.227 24.7387 31.413C24.7387 31.5005 24.6842 31.5975 24.6138 31.635C24.4622 31.7162 24.4148 31.7162 24.2755 31.6348ZM36.2967 29.6399C36.1213 29.4645 36.0664 29.0899 36.154 28.6657C36.195 28.4675 36.2285 28.2452 36.2285 28.1717C36.2285 28.0984 36.2718 28.0024 36.3246 27.9587C36.4841 27.8262 36.5096 28.0321 36.3957 28.5327C36.2537 29.157 36.2627 29.2907 36.4554 29.417C36.6133 29.5204 36.6379 29.5132 37.3325 29.1603C38.0485 28.7965 38.2941 28.7249 38.2941 28.8803C38.2941 28.9612 36.6641 29.7671 36.5028 29.766C36.4585 29.7657 36.3656 29.709 36.2967 29.6399ZM33.2593 25.7106C32.7089 25.6509 32.2638 25.5739 32.2702 25.5397C32.2764 25.5054 32.4251 25.4286 32.6006 25.3689C33.0312 25.2226 33.1422 25.1601 33.754 24.7209C34.3738 24.2756 34.889 24.022 35.1749 24.021C35.4065 24.0204 35.583 23.8786 35.583 23.6931C35.583 23.5142 35.7044 23.5397 35.7783 23.7343C35.8847 24.0142 35.8553 24.1436 35.6749 24.1889C35.5181 24.2282 35.511 24.2475 35.5497 24.5291C35.5723 24.6933 35.5596 24.9668 35.5215 25.1367C35.4717 25.3589 35.4721 25.4829 35.5228 25.5778C35.5617 25.6504 35.5805 25.7228 35.5646 25.7388C35.481 25.8221 34.1363 25.8058 33.2592 25.7106H33.2593ZM35.2603 24.9887C35.2603 24.4872 35.1831 24.4301 34.7351 24.5995C34.2979 24.7647 33.4205 25.2628 33.4205 25.3457C33.4205 25.4258 35.0711 25.4923 35.1796 25.4165C35.2283 25.3826 35.2603 25.2127 35.2603 24.9887ZM32.6506 24.1571C32.6312 24.1257 32.7047 24.063 32.8139 24.0177C32.923 23.9724 33.3076 23.7192 33.6684 23.455C34.6456 22.7392 35.1697 22.5151 35.6079 22.625C35.8027 22.6739 36.0616 23.0185 36.0083 23.1576C35.9764 23.2405 35.9287 23.2228 35.7417 23.0585C35.6046 22.9381 35.4443 22.8591 35.3387 22.8601C35.0374 22.8627 34.483 23.1347 33.6583 23.6843C32.8849 24.1997 32.7238 24.2753 32.6507 24.1571H32.6506ZM14.8768 33.7432C14.7376 33.5923 14.5431 33.3254 14.4445 33.1501C14.3143 32.9208 14.1818 32.6928 14.0469 32.4661C11.7547 28.6244 11.5599 23.7555 13.5371 19.7142C15.4789 15.745 19.0847 13.071 23.5444 12.2928C24.0379 12.2068 24.5397 12.181 25.6746 12.1837C27.0139 12.1868 27.2472 12.2041 28.0581 12.3613C28.5525 12.4571 29.3791 12.6764 29.8952 12.8487L30.8334 13.1619L31.1749 12.9692C31.3627 12.8632 31.5308 12.7531 31.5485 12.7245C31.5933 12.652 30.592 12.2418 29.736 11.982C27.3138 11.2467 24.6246 11.1786 22.1965 11.791C20.3042 12.2682 18.4626 13.1588 16.9507 14.3276C13.9721 16.6303 12.005 20.0559 11.536 23.7571C11.3984 24.8428 11.4322 27.0859 11.5999 27.9903C12.0384 30.3562 12.85 32.2454 14.1943 34.0301L14.6837 34.6797L14.9066 34.3487L15.1297 34.0176L14.8768 33.7432ZM16.8487 33.7993C17.6682 33.6061 18.3122 33.1397 18.6596 32.4881C18.7724 32.2765 18.8646 32.0711 18.8646 32.0317C18.8646 31.9262 17.9442 31.9432 17.4587 32.0576C16.6576 32.2464 16.1367 32.6594 15.7675 33.3979L15.5667 33.7998L15.7149 33.8418C15.9732 33.9148 16.4307 33.8978 16.8487 33.7993ZM15.5332 33.0252C15.7538 32.5635 15.8496 32.0563 15.8214 31.4991C15.8013 31.1003 15.7548 30.9293 15.5582 30.5314C15.4269 30.2657 15.2618 29.9962 15.1916 29.9327C15.0665 29.8194 15.0587 29.8276 14.8007 30.3407C14.2052 31.525 14.2364 32.4349 14.9037 33.3421L15.1368 33.659L15.2578 33.5035C15.3244 33.4179 15.4482 33.2026 15.5331 33.0252H15.5332ZM14.4409 30.4432C14.5712 30.1375 15.0052 29.444 15.0667 29.4432C15.0904 29.4429 15.223 29.5715 15.3616 29.7288L15.6135 30.0149L15.5495 29.6622C15.4494 29.1101 15.5732 28.4919 15.9227 27.7979C16.084 27.4777 16.3005 27.1151 16.4038 26.9923C16.5737 26.7904 16.6027 26.7781 16.7064 26.8633C16.7694 26.9151 16.8982 27.0788 16.9925 27.2272L17.1643 27.4969L17.135 26.9907C17.0876 26.1711 17.4367 25.2759 18.0946 24.5301L18.3448 24.2464L18.4776 24.4078C18.5507 24.4965 18.6664 24.6708 18.7346 24.7951L18.8588 25.021L18.8616 24.592C18.8671 23.785 19.247 22.946 19.9283 22.2372L20.2307 21.9225L20.3864 22.1162C20.472 22.2228 20.5836 22.426 20.6342 22.5681L20.7262 22.8263L20.7314 22.5961C20.7412 22.1506 20.878 21.5955 21.0795 21.1838C21.2822 20.7693 21.8123 20.1344 22.1657 19.8827L22.3516 19.7504L22.5116 20.0942C22.5997 20.2832 22.672 20.5081 22.6723 20.5939C22.6733 20.8561 22.7268 20.715 22.8 20.257C22.9 19.6312 23.0788 19.2077 23.4527 18.711C23.7378 18.3324 24.4003 17.7591 24.5529 17.7591C24.6472 17.7591 24.803 18.4226 24.803 18.8242C24.803 19.2487 24.6741 19.7667 24.4672 20.1728C24.3459 20.411 24.3454 20.4214 24.4582 20.3735C24.5236 20.3457 24.7479 20.2589 24.9565 20.1807C25.2338 20.0768 25.3056 20.0268 25.2236 19.9954C25.1271 19.9584 25.1237 19.9371 25.1993 19.8442C25.2772 19.7483 25.2726 19.7415 25.1581 19.7852C25.0871 19.8121 24.9999 19.8394 24.9644 19.8456C24.8565 19.8646 24.8545 18.8468 24.9615 18.3316C25.0159 18.07 25.1487 17.6762 25.2565 17.4565C25.4952 16.9707 26.1297 16.3064 26.5879 16.0629L26.9203 15.8862L26.9914 16.09C27.0304 16.2021 27.0644 16.5 27.067 16.7521L27.0716 17.2104L27.1941 16.7122C27.3745 15.9784 27.6569 15.4701 28.1579 14.9772C28.641 14.5017 29.277 14.1385 29.404 14.2655C29.4496 14.3112 29.477 14.5377 29.4733 14.8397L29.4672 15.3385L29.5789 15.015C29.7211 14.6029 29.9391 14.169 30.1358 13.9065C30.2205 13.7935 30.2898 13.6755 30.2898 13.6441C30.2898 13.5625 28.9314 13.1395 28.1826 12.9882C22.0756 11.7533 15.9728 15.0706 13.6694 20.877C13.0712 22.3848 12.7969 23.8705 12.7969 25.6009C12.7969 27.6042 13.1451 29.2759 13.9123 30.9534L14.1161 31.399L14.2234 31.0501C14.2825 30.8583 14.3804 30.5851 14.4409 30.4432ZM17.9161 31.2828C18.7026 31.078 19.358 30.6066 19.7102 29.9926C19.978 29.5257 19.9683 29.5072 19.4542 29.5072C18.4977 29.5072 17.7661 29.7751 17.2591 30.3113C16.9971 30.5883 16.6053 31.2077 16.6053 31.3447C16.6053 31.4191 17.5672 31.3737 17.9161 31.2829V31.2828ZM16.7857 30.2943C17.3078 29.3079 17.3243 28.3094 16.832 27.4696C16.6677 27.1891 16.6524 27.1792 16.5403 27.2805C16.3517 27.4513 15.9706 28.2278 15.8561 28.6751C15.687 29.3351 15.7859 29.8955 16.1947 30.5934C16.3486 30.856 16.3651 30.8663 16.4746 30.7673C16.5388 30.7093 16.6786 30.4965 16.7857 30.2943ZM17.5771 29.6983C17.7917 29.5455 18.4211 29.3177 18.6648 29.3046C18.7569 29.2995 18.5755 29.2727 18.2616 29.2449C17.9478 29.2171 17.6732 29.1764 17.6512 29.1546C17.6294 29.1328 17.6457 29.0246 17.6874 28.9143C17.7535 28.7389 17.744 28.6814 17.6112 28.459L17.4595 28.2044L17.4266 28.8719C17.4085 29.239 17.3726 29.6048 17.347 29.6847C17.2892 29.8643 17.3398 29.8673 17.5771 29.6983ZM28.5108 29.6406C28.7015 29.4298 28.7994 29.0472 28.8024 28.5002L28.8051 27.9775L29.2992 27.3707C29.9274 26.5988 30.0536 26.3243 30.0203 25.8016C29.9901 25.3261 29.7421 24.7721 29.547 24.7442C29.283 24.7064 29.1995 24.8564 29.2576 25.264C29.3425 25.8591 29.2656 26.0185 28.6431 26.5385C28.344 26.7883 28.0102 27.1223 27.9011 27.2807C27.7273 27.5334 27.5368 27.6998 27.4216 27.6998C27.4015 27.6998 27.3857 27.6345 27.3866 27.5545C27.3895 27.2555 27.6515 26.8448 28.151 26.3566C28.6996 25.8204 28.8558 25.5047 28.7778 25.0891C28.7312 24.8405 28.5702 24.6014 28.4494 24.6014C28.2182 24.6014 26.9789 26.0436 26.7893 26.5333C26.6982 26.7688 26.6852 26.9413 26.7178 27.4748C26.7604 28.1719 26.6446 28.7454 26.4458 28.8218C26.2719 28.8885 26.3508 28.9908 26.576 28.9908C26.8976 28.9908 27.2394 29.1729 27.3128 29.3836C27.4214 29.6951 28.2925 29.8819 28.5108 29.6405V29.6406ZM19.1227 28.8994C19.9866 28.7159 20.7182 28.2341 21.0859 27.6067C21.3319 27.1868 21.3124 27.1188 20.9463 27.1194C20.0762 27.1207 19.2786 27.3787 18.7914 27.8161C18.4487 28.1241 17.9419 28.8434 18.0008 28.9386C18.0507 29.0194 18.6577 28.9983 19.1226 28.8995L19.1227 28.8994ZM25.9707 28.791C26.2598 28.4815 26.4802 27.5283 26.2899 27.4106C26.2217 27.3685 25.8962 27.7856 25.7009 28.1652C25.6331 28.297 25.5777 28.5172 25.5777 28.6547C25.5777 29.0554 25.688 29.0936 25.9707 28.791ZM18.4161 27.4113C18.7005 26.8322 18.8213 26.1724 18.7325 25.6827C18.6644 25.307 18.4522 24.7626 18.3489 24.6987C18.3222 24.6823 18.1791 24.8414 18.0311 25.0524C17.3163 26.0715 17.2053 26.9376 17.6553 27.9836L17.7919 28.3014L18.0084 28.051C18.1275 27.9133 18.311 27.6254 18.4161 27.4113ZM25.4674 27.49C25.5891 27.3391 25.9145 26.8526 26.1907 26.4088C26.6608 25.6537 26.8525 25.3728 27.7992 24.0527C28.2492 23.4253 29.2172 22.2944 29.6685 21.8689C30.7091 20.8881 32.2043 20.0451 34.0315 19.409C34.7272 19.1668 35.7328 18.9004 36.2191 18.8293C36.3737 18.8067 36.5834 18.7452 36.6851 18.6926C37.0124 18.5234 37.0788 18.1996 36.8041 18.1125C36.7368 18.0911 36.5782 17.923 36.4516 17.7389C36.325 17.5547 35.9928 17.1438 35.7132 16.8258L35.2051 16.2474L35.4298 15.9987C35.6212 15.7867 35.6516 15.7109 35.6348 15.4862C35.6202 15.2899 35.5717 15.1899 35.4454 15.0961L35.2758 14.9699L34.5379 15.516C32.8855 16.7387 31.1915 18.3587 29.2558 20.5676C27.2468 22.8602 25.8378 24.7302 24.7363 26.5658L24.3905 27.1424L24.5786 27.2758C24.682 27.3493 24.8395 27.4892 24.9284 27.5868C25.0173 27.6845 25.1252 27.7644 25.1682 27.7644C25.2111 27.7644 25.3457 27.6409 25.4674 27.49ZM20.5371 26.503C21.3811 26.304 22.0633 25.8549 22.4488 25.244C22.6968 24.8513 22.6701 24.7949 22.2372 24.7962C21.7591 24.7977 21.0582 24.9469 20.6794 25.1279C20.3295 25.2952 19.6705 25.9441 19.4574 26.3311L19.3082 26.6025L19.7157 26.6015C19.9398 26.601 20.3095 26.5567 20.5371 26.503ZM19.1388 25.8685L19.0223 25.5718V26.5331L19.1388 26.3491C19.2512 26.1717 19.2512 26.1544 19.1388 25.8685ZM20.1832 24.7713C20.5734 23.9506 20.6244 23.2566 20.3422 22.607C20.2203 22.3262 20.2175 22.3245 20.0862 22.4433C19.835 22.6706 19.364 23.4503 19.2376 23.8481C19.0893 24.3145 19.1117 25.0091 19.292 25.534L19.4016 25.8531L19.683 25.5424C19.8377 25.3715 20.0628 25.0245 20.1832 24.7713ZM22.495 24.0892C23.0932 23.9362 23.5605 23.7054 23.9126 23.3889C24.1616 23.1649 24.5449 22.6402 24.5449 22.5232C24.5449 22.4367 23.7002 22.4668 23.268 22.5688C22.7198 22.698 22.3936 22.8749 21.9761 23.2691C21.6624 23.5655 21.2529 24.0797 21.2529 24.1773C21.2529 24.2611 22.0414 24.2052 22.4951 24.0892H22.495ZM29.7207 23.8484C29.7928 23.7833 29.9073 23.621 29.9753 23.4879C30.0685 23.3052 30.1386 23.2458 30.261 23.2458C30.7011 23.2458 31.2768 22.8055 31.5597 22.2526C31.7258 21.9278 31.8345 21.2895 31.7342 21.2275C31.6577 21.1804 30.5929 21.7985 30.108 22.1717C29.7534 22.4445 29.0006 23.2241 28.7602 23.5672C28.6814 23.6796 28.6795 23.7209 28.7488 23.8046C28.9489 24.0455 29.4765 24.0694 29.7207 23.8484ZM21.567 23.1461C21.747 22.9492 21.997 22.5789 22.1226 22.3231C22.4809 21.5935 22.5444 21.0133 22.3385 20.3504L22.2712 20.1339L21.9198 20.4796C21.2489 21.1395 20.9299 22.0553 21.0559 22.9605C21.0931 23.2291 21.1238 23.4612 21.1238 23.4765C21.1238 23.5753 21.2839 23.4559 21.567 23.1461ZM20.7792 22.907C20.7613 22.8626 20.7466 22.8989 20.7466 22.9877C20.7466 23.0764 20.7613 23.1127 20.7792 23.0684C20.7971 23.024 20.7971 22.9513 20.7792 22.907ZM23.1739 22.3169L23.5444 22.2305L23.2377 22.1821C22.9013 22.1291 22.902 22.1298 22.9979 21.9505C23.0494 21.8546 23.0437 21.8258 22.9737 21.8258C22.8761 21.8258 22.8049 21.5679 22.7975 21.1883C22.7943 21.0247 22.758 21.1203 22.6766 21.5056C22.6127 21.8088 22.4985 22.178 22.423 22.326C22.3474 22.4741 22.2857 22.6115 22.2857 22.6314C22.2857 22.6512 22.4021 22.6081 22.5445 22.5354C22.6869 22.4629 22.9701 22.3645 23.1739 22.3169ZM24.4804 21.8162C25.2815 21.6614 26.2018 21.0713 26.5425 20.4937C26.7105 20.2091 26.6472 20.1799 25.9754 20.2325C25.4243 20.2756 24.8863 20.4399 24.5024 20.6822C24.1928 20.8777 23.383 21.7393 23.383 21.8734C23.383 21.9777 23.7402 21.9592 24.4804 21.8162ZM33.3769 21.314C33.6867 21.1541 34.002 20.8209 34.1272 20.5207C34.2363 20.2592 34.2584 19.9806 34.1742 19.9285C34.1215 19.896 33.7626 20.0081 32.9202 20.3202C32.5322 20.4639 32.4845 20.5005 32.484 20.6534C32.4837 20.7479 32.4645 20.9823 32.4415 21.1742L32.3996 21.5231L32.7696 21.4797C32.973 21.4558 33.2463 21.3812 33.3768 21.314H33.3769ZM23.693 20.8438C24.3822 20.0246 24.6655 19.1531 24.5046 18.3481C24.4823 18.2371 24.4387 18.1464 24.4077 18.1464C24.3041 18.1464 23.6086 18.8874 23.4363 19.1813C23.1359 19.6939 23.0294 20.2264 23.0515 21.1042L23.0603 21.4479L23.2377 21.311C23.3354 21.2358 23.5403 21.0255 23.6931 20.8438H23.693ZM35.5995 20.3112C36.0293 20.1316 36.4627 19.6715 36.298 19.5696C36.2044 19.5118 35.0575 19.7507 34.9618 19.8479C34.8752 19.9359 34.7978 20.3092 34.8544 20.3658C34.9278 20.4391 35.3709 20.4067 35.5995 20.3112ZM36.9711 19.8241C37.0416 19.71 36.9344 19.5019 36.805 19.5019C36.7173 19.5019 36.6803 19.5467 36.6803 19.6526C36.6803 19.7354 36.6996 19.8225 36.7233 19.8462C36.7875 19.9104 36.9253 19.8982 36.9711 19.8241ZM26.5899 19.6589C27.5378 19.463 28.1999 19.1114 28.6193 18.5808C28.9666 18.1413 28.9521 18.0816 28.4985 18.0829C28.0184 18.0841 27.4053 18.2305 26.9823 18.4447C26.6495 18.6134 25.9395 19.2413 25.6958 19.5826L25.5689 19.7602H25.8342C25.9802 19.7602 26.3202 19.7146 26.5899 19.6589ZM25.4731 19.1991C25.8923 18.8236 26.3555 18.2158 26.5686 17.7621C26.7229 17.4331 26.7701 17.2326 26.7922 16.8099C26.8103 16.4657 26.7964 16.2744 26.7535 16.2744C26.613 16.2744 26.0114 16.8152 25.7367 17.1882C25.5684 17.4169 25.395 17.7553 25.3171 18.0074C25.1792 18.453 25.069 19.4374 25.1569 19.4374C25.1845 19.4374 25.3267 19.3302 25.4731 19.1991ZM27.013 18.0511C27.039 18.0147 27.0589 17.8107 27.057 17.5977L27.0537 17.2104L26.9718 17.4687C26.9268 17.6107 26.8271 17.8491 26.7502 17.9986C26.6733 18.1481 26.6104 18.2867 26.6104 18.3067C26.6104 18.3537 26.9508 18.1375 27.0129 18.0511H27.013ZM28.8156 17.6682C29.4206 17.552 30.084 17.3017 30.4449 17.0534C30.7306 16.8569 31.2581 16.3036 31.2581 16.2004C31.2581 16.1497 30.7723 16.1669 30.0486 16.243C29.6115 16.2889 29.0379 16.623 28.4789 17.1572C28.1969 17.4266 27.966 17.6723 27.966 17.7031C27.966 17.7846 28.2756 17.7719 28.8156 17.6682ZM28.1338 16.956C28.7904 16.2939 29.1409 15.6423 29.1813 15.0082C29.2119 14.5279 29.1795 14.51 28.7768 14.7871C28.3619 15.0726 27.9033 15.6125 27.7055 16.0485C27.5339 16.427 27.3206 17.2311 27.3206 17.4997C27.3206 17.619 27.3373 17.6258 27.4657 17.5587C27.5457 17.517 27.8462 17.2457 28.1337 16.9559L28.1338 16.956ZM29.2078 16.2261C29.2626 16.1639 29.3251 15.9823 29.3466 15.8226L29.3857 15.5322L29.2945 15.7681C29.2445 15.8978 29.154 16.0794 29.0937 16.1715C28.9703 16.3599 29.0541 16.4 29.2078 16.2261ZM30.0729 15.673C30.9327 15.0395 31.6058 14.0774 31.6907 13.3609C31.7356 12.9818 31.6738 12.9631 31.2546 13.229C30.4314 13.7512 29.8911 14.6055 29.6241 15.8064C29.579 16.0095 29.6414 15.991 30.0729 15.673ZM31.6466 15.7538C32.396 15.5467 32.8835 15.2765 33.3049 14.8347L33.6785 14.4429L33.4613 14.3866C33.1307 14.301 32.3876 14.4405 31.8677 14.6857C31.4389 14.8881 30.4189 15.6916 30.4189 15.8271C30.4189 15.9344 31.1513 15.8906 31.6467 15.7538H31.6466ZM31.7394 14.407C31.7493 14.3913 31.7526 14.3724 31.7486 14.3543C31.7445 14.3362 31.7335 14.3204 31.7178 14.3105C31.6854 14.2905 31.6423 14.3176 31.6219 14.3706C31.5818 14.4752 31.6787 14.5052 31.7394 14.407ZM87.1905 36.5348C86.5907 36.4599 85.9118 36.2526 85.5005 36.0189C84.8436 35.6453 84.3104 34.8814 84.2438 34.2178L84.2212 33.9935L85.4477 33.9764L86.6741 33.9593L86.8032 34.2002C87.054 34.6684 87.6131 34.8656 88.4432 34.7788C89.4903 34.6694 89.8649 34.1317 89.9121 32.6701C89.9375 31.8821 89.9354 31.867 89.823 32.0241C89.3521 32.6821 88.8798 32.9583 88.0317 33.0718C87.575 33.1329 87.4036 33.127 86.9275 33.0334C86.2011 32.8907 85.7424 32.6635 85.2466 32.2008C84.7556 31.7426 84.3793 31.0535 84.1762 30.2407C83.9782 29.4482 83.9807 27.9787 84.1814 27.2157C84.5776 25.7095 85.4348 24.7244 86.6446 24.3848C87.9638 24.0145 89.1816 24.3941 89.8132 25.3725L89.9985 25.6595V24.4723H92.2577V28.8533C92.2577 32.5023 92.2411 33.3299 92.1585 33.8074C91.9716 34.8873 91.4804 35.6188 90.6574 36.0431C90.0928 36.3341 89.6096 36.4595 88.7397 36.541C87.9454 36.6155 87.8317 36.6151 87.1905 36.5348ZM89.0103 30.938C89.5044 30.6849 89.8242 30.1071 89.9457 29.2477C90.0357 28.611 89.9491 27.8123 89.7363 27.3177C89.4792 26.7201 88.8092 26.2797 88.1573 26.2797C87.8505 26.2797 87.3732 26.4417 87.127 26.6297C86.4292 27.1618 86.176 28.9909 86.6481 30.0882C86.8071 30.458 87.2889 30.9305 87.6212 31.0429C87.9557 31.1559 88.694 31.1003 89.0103 30.938ZM126.727 35.6163V34.6712L127.131 34.6708C127.938 34.6701 128.284 34.4567 128.482 33.8396L128.589 33.5051L127.08 29.1339C126.25 26.7297 125.569 24.799 125.568 24.8435C125.566 24.9049 125.284 24.9241 124.382 24.9241H123.198L123.118 24.5676C122.911 23.6455 121.951 23.0975 120.722 23.2006C120.057 23.2564 119.761 23.3692 119.423 23.6964C118.977 24.1294 118.879 24.6443 119.155 25.1188C119.38 25.5061 119.844 25.6824 121.946 26.1804C122.757 26.3725 123.64 26.6147 123.908 26.7189C125.239 27.2358 125.912 28.2203 125.907 29.6439C125.9 31.3966 124.827 32.6801 122.932 33.2009C122.511 33.3166 122.261 33.3372 121.305 33.3352C120.307 33.3331 120.103 33.3138 119.558 33.1695C118.671 32.935 118.069 32.6118 117.561 32.0968C116.931 31.4582 116.675 30.8906 116.561 29.8783L116.519 29.5071H118.896L119.006 29.9027C119.226 30.6966 119.68 31.0914 120.563 31.2569C121.329 31.4006 122.509 31.2324 122.986 30.9115C123.38 30.6455 123.606 30.0764 123.502 29.6126C123.38 29.0735 122.859 28.7828 121.38 28.4298C119.394 27.9555 118.933 27.8215 118.42 27.5696C117.388 27.0625 116.858 26.3535 116.735 25.3114C116.482 23.1876 117.617 21.6588 119.786 21.2026C120.305 21.0935 121.697 21.075 122.177 21.1708C123.512 21.4377 124.581 22.1978 125.112 23.2591C125.249 23.5326 125.395 23.917 125.435 24.113L125.51 24.4695L126.772 24.487L128.035 24.5045L128.911 27.5522C129.393 29.2284 129.803 30.584 129.823 30.5646C129.842 30.5452 130.224 29.1738 130.67 27.5169L131.483 24.5044L132.688 24.4869C133.389 24.4766 133.892 24.4941 133.892 24.5286C133.892 24.6295 130.69 33.9698 130.413 34.6794C130.123 35.42 129.802 35.943 129.51 36.151C129.133 36.4189 128.802 36.4892 127.744 36.5261L126.727 36.5614V35.6162V35.6163ZM68.9875 33.3013C67.4301 33.1117 66.2667 32.1329 65.7439 30.5723C65.5816 30.0877 65.5708 29.9821 65.5686 28.8617C65.5666 27.7862 65.5814 27.6195 65.7177 27.1834C66.0896 25.9928 66.815 25.0691 67.7288 24.6222C68.8508 24.0736 70.4526 24.1004 71.5696 24.6864C72.7468 25.3041 73.4239 26.6656 73.5177 28.6036L73.5568 29.4104L70.7781 29.3939C69.2498 29.3848 67.9581 29.3933 67.9076 29.4127C67.6886 29.4966 68.0075 30.5762 68.3616 30.9493C68.6973 31.3031 68.9929 31.4104 69.633 31.411C70.3401 31.4116 70.7374 31.2516 70.9667 30.8743C71.0459 30.7436 71.1414 30.6155 71.1789 30.5893C71.2576 30.5344 73.4343 30.522 73.4884 30.5763C73.5085 30.5962 73.4895 30.7641 73.4466 30.9493C73.2199 31.9239 72.4099 32.7218 71.2374 33.1252C70.6759 33.3184 69.7335 33.3921 68.9875 33.3013ZM71.15 27.7438C71.15 27.406 70.9419 26.9066 70.6848 26.6278C70.0845 25.9765 68.8622 26.0115 68.341 26.6949C68.1431 26.9543 67.9225 27.5015 67.9225 27.7328V27.8934H71.1501L71.15 27.7438ZM96.0121 33.3145C94.6689 33.1279 93.588 32.3738 93.0406 31.2418C92.643 30.4194 92.5545 29.9707 92.5583 28.7972C92.561 27.9907 92.5878 27.7002 92.6967 27.2999C93.1081 25.7859 94.0306 24.7816 95.3911 24.3663C95.6828 24.2773 95.9785 24.25 96.6149 24.2531C97.3348 24.2566 97.525 24.2806 97.9539 24.4223C98.9156 24.74 99.5842 25.3313 100.001 26.2324C100.365 27.0217 100.483 27.5844 100.485 28.5588L100.488 29.3857L97.68 29.398L94.872 29.4104L94.8867 29.7565C94.905 30.1871 95.1331 30.6999 95.4451 31.0118C96.0768 31.6436 97.5202 31.559 97.9883 30.8627C98.0718 30.7385 98.2075 30.6185 98.2898 30.5959C98.3723 30.5735 98.9115 30.5522 99.488 30.5486L100.536 30.5421L100.493 30.8154C100.322 31.9117 99.2563 32.9105 97.9364 33.2129C97.3841 33.3394 96.5198 33.385 96.0121 33.3145ZM98.1289 27.6514C98.1253 27.3354 97.9955 26.9802 97.7807 26.6985C97.2776 26.039 96.0616 25.9785 95.472 26.5835C95.2153 26.847 95.006 27.2628 94.9345 27.6514L94.8899 27.8934H98.1318L98.1289 27.6514ZM136.7 33.3071C136.103 33.2328 135.422 33.0255 135.015 32.7941C134.624 32.5718 134.153 32.0858 133.958 31.7042C133.82 31.4335 133.638 30.7105 133.635 30.4256L133.634 30.2788L134.809 30.2964L135.985 30.314L136.037 30.5681C136.111 30.9212 136.374 31.2406 136.726 31.402C137.148 31.5959 138.259 31.6014 138.633 31.4114C139.014 31.2175 139.15 30.9978 139.078 30.6927C138.997 30.3505 138.759 30.209 137.848 29.9636C135.354 29.2913 135.011 29.1642 134.516 28.728C133.575 27.8995 133.731 26.0122 134.818 25.0819C135.198 24.7565 135.876 24.4348 136.453 24.3065C137.05 24.1737 138.346 24.2085 138.96 24.3739C139.819 24.6055 140.433 25.0264 140.782 25.6226C140.965 25.9337 141.187 26.6553 141.187 26.9376V27.1141L140.138 27.1128C139.561 27.112 139.038 27.0966 138.976 27.0785C138.914 27.0604 138.863 26.9883 138.863 26.9182C138.863 26.6396 138.615 26.2963 138.306 26.1467C137.717 25.8617 136.492 26.0145 136.286 26.3985C136.198 26.5636 136.196 26.8319 136.283 26.9934C136.393 27.1989 136.684 27.3073 138.111 27.6723C140.106 28.1828 140.779 28.5608 141.18 29.3976C141.429 29.9159 141.483 30.4289 141.355 31.0419C141.12 32.1689 140.394 32.8526 139.074 33.1902C138.514 33.3336 137.367 33.39 136.7 33.3071ZM149.017 33.3035C147.403 33.0853 146.182 31.9954 145.74 30.3786C145.595 29.8451 145.54 28.5567 145.635 27.9054C145.981 25.5366 147.621 24.1054 149.836 24.2377C150.984 24.3061 151.697 24.5909 152.36 25.2458C153.131 26.0076 153.525 27.1244 153.54 28.5904L153.548 29.3841L150.715 29.3815L147.882 29.3788L147.916 29.7554C147.959 30.2282 148.239 30.8133 148.543 31.0652C149.022 31.4624 149.917 31.5495 150.567 31.2619C150.788 31.1641 150.917 31.0493 151.047 30.8359L151.224 30.5441L152.366 30.542C153.09 30.5408 153.523 30.5646 153.55 30.6073C153.572 30.6442 153.531 30.8736 153.457 31.117C153.252 31.7911 152.781 32.3651 152.084 32.7885C151.811 32.9548 151.071 33.2169 150.702 33.278C150.28 33.348 149.44 33.3606 149.017 33.3035ZM151.171 27.5684C151.121 27.145 150.833 26.6223 150.547 26.4367C149.823 25.9661 148.767 26.1285 148.341 26.7762C148.169 27.0379 147.964 27.5811 147.964 27.7759C147.964 27.8865 148.06 27.8934 149.587 27.8934H151.21L151.171 27.5684ZM169.685 33.3191C167.703 33.1267 166.608 32.1788 166.476 30.5399L166.458 30.314L167.63 30.2965L168.802 30.2789L168.846 30.5371C168.91 30.9145 169.126 31.1965 169.492 31.3775C169.769 31.5148 169.905 31.5375 170.46 31.5389C171.174 31.5407 171.643 31.4116 171.816 31.1657C171.925 31.0095 171.943 30.6536 171.85 30.4803C171.754 30.3006 171.244 30.1123 169.895 29.7584C168.583 29.4143 167.927 29.1738 167.508 28.8837C166.434 28.1391 166.444 26.2801 167.529 25.2012C168.203 24.5299 169.18 24.1987 170.421 24.2202C172.086 24.249 173.18 24.7765 173.676 25.7899C173.858 26.1619 174.064 26.9664 174.003 27.0657C173.985 27.095 173.465 27.1188 172.847 27.1188H171.725L171.684 26.9005C171.57 26.294 171.128 26.0085 170.3 26.0062C169.692 26.0044 169.385 26.0988 169.171 26.3535C168.991 26.5674 168.97 26.7076 169.081 26.9515C169.187 27.1838 169.55 27.3302 170.753 27.6266C172.449 28.0443 172.953 28.25 173.496 28.746C173.701 28.9333 173.917 29.2133 174.023 29.4305C174.187 29.7639 174.203 29.8597 174.2 30.4754C174.197 31.0279 174.168 31.2249 174.044 31.5406C173.852 32.031 173.238 32.6668 172.734 32.8976C171.934 33.2637 170.771 33.4245 169.685 33.3191ZM63.7268 33.1121C63.2211 33.0416 62.7042 32.8037 62.5249 32.5591C62.2457 32.1782 62.2362 32.0604 62.2407 29.0731L62.2449 26.2183L62.0926 26.1801C62.0087 26.159 61.7394 26.1511 61.494 26.1623L61.0479 26.1829L61.0269 25.5125C60.9956 24.5085 60.9725 24.5455 61.6456 24.5233L62.2098 24.5045L62.2197 23.4072C62.2251 22.8037 62.2323 22.2736 62.2358 22.2291C62.2406 22.1679 62.5144 22.1485 63.3717 22.1485H64.5014V24.5369H65.8569V26.1939L65.1791 26.1638L64.5014 26.1337V31.0492L64.6472 31.2187C64.7808 31.3741 64.8379 31.3894 65.3244 31.3999L65.8558 31.4114L65.8563 32.299L65.8568 33.1866L65.0016 33.1785C64.5312 33.1742 63.9576 33.1443 63.7268 33.1121ZM75.4125 33.0832C74.9519 32.9594 74.5012 32.6657 74.2783 32.3438C73.9257 31.8351 73.9257 31.8344 73.9257 26.427V21.4384H76.2509L76.2486 26.2165C76.2471 29.1824 76.2701 31.0389 76.3089 31.1115C76.4427 31.3616 76.5515 31.4004 77.2337 31.4408C77.2605 31.4424 77.2821 31.8358 77.2821 32.3151V33.1866L76.5238 33.1822C76.0734 33.1798 75.6219 33.1395 75.4124 33.0832H75.4125ZM79.029 33.0837C78.3137 32.8913 77.8454 32.4471 77.6443 31.7702C77.5527 31.4616 77.5404 30.8292 77.5404 26.4293V21.4384H79.8664L79.863 26.1726C79.8607 29.2711 79.8825 30.9671 79.926 31.0814C79.997 31.268 80.3547 31.4592 80.5972 31.4402C80.902 31.4163 80.8969 31.4016 80.8969 32.315V33.1865L80.1385 33.1822C79.6898 33.1798 79.2366 33.1394 79.029 33.0837ZM111.35 33.1166C110.905 33.0513 110.393 32.8405 110.212 32.6479C110.139 32.5704 110.027 32.3912 109.964 32.2496C109.859 32.018 109.844 31.702 109.815 29.0876L109.783 26.1829L109.234 26.1777L108.686 26.1726L108.668 25.3547L108.65 24.5368H109.815V22.1485H110.938C111.851 22.1485 112.067 22.1657 112.096 22.2406C112.116 22.2913 112.126 22.8287 112.119 23.4348L112.107 24.5369H113.495V26.1829L112.847 26.1768C112.49 26.1735 112.186 26.1909 112.171 26.2156C112.104 26.3247 112.131 31.0503 112.2 31.1791C112.29 31.3465 112.503 31.4035 113.059 31.4079L113.495 31.4114V33.1866L112.607 33.1786C112.119 33.1743 111.553 33.1464 111.35 33.1167V33.1166ZM143.833 33.1161C143.602 33.0864 143.292 33.0157 143.143 32.9591C142.81 32.8323 142.445 32.4391 142.353 32.1098C142.31 31.9534 142.284 30.833 142.284 29.046C142.284 26.7078 142.269 26.223 142.195 26.1946C142.146 26.1758 141.884 26.1658 141.614 26.1722L141.122 26.1841V24.5368H142.284V22.1485H144.543V24.5368H145.899V26.1939L145.221 26.1637L144.543 26.1336V28.5262C144.543 29.8849 144.57 30.9887 144.605 31.0805C144.694 31.3162 144.894 31.3947 145.425 31.4036L145.898 31.4114L145.899 32.2989L145.9 33.1865L145.077 33.1782C144.624 33.1738 144.065 33.1458 143.834 33.1161H143.833ZM49.9131 27.2479V21.4384H52.366V33.0574H49.9131V27.2479ZM53.2696 28.7649V24.4723H55.5267L55.5098 25.0209C55.5006 25.3228 55.5021 25.5697 55.5131 25.5697C55.5242 25.5697 55.7052 25.3859 55.9153 25.1613C56.6973 24.3253 57.6722 24.0691 58.9824 24.355C59.6771 24.5066 60.3626 24.9944 60.6436 25.5374C60.9678 26.1637 60.9732 26.2295 60.9989 29.7492L61.0231 33.0574H58.6272L58.6269 30.2011C58.6266 28.3372 58.602 27.2551 58.556 27.0865C58.3882 26.4724 57.976 26.1974 57.2255 26.199C56.3893 26.2008 55.9023 26.5844 55.6918 27.4067C55.6115 27.7206 55.5934 28.2762 55.5934 30.4244V33.0574H53.2696V28.7649ZM81.1552 28.7649V24.4723H83.479V33.0574H81.1552V28.7649ZM100.907 28.7649V24.4723H103.102V25.6366L103.529 25.1839C104.216 24.4556 105.006 24.1531 105.97 24.2485C107.525 24.4024 108.447 25.2252 108.566 26.5659C108.586 26.7813 108.606 28.33 108.611 30.0074L108.621 33.0574H106.27L106.251 30.1043L106.233 27.1512L106.071 26.8284C105.844 26.3737 105.513 26.1993 104.883 26.2022C103.986 26.2063 103.534 26.5569 103.299 27.4301C103.247 27.6215 103.226 28.541 103.229 30.3829L103.234 33.0574H100.908V28.7649H100.907ZM153.903 28.7649V24.4723H156.13L156.122 25.0694L156.114 25.6665L156.251 25.4762C156.583 25.0156 156.914 24.7181 157.315 24.5207C157.728 24.3175 157.767 24.3109 158.549 24.3123C159.239 24.3134 159.401 24.3339 159.659 24.453C160.057 24.6372 160.458 25.0064 160.679 25.3937L160.858 25.7078L160.998 25.4812C161.226 25.1127 161.811 24.6233 162.214 24.4637C162.528 24.3394 162.709 24.3165 163.393 24.3139C164.179 24.311 164.213 24.3168 164.632 24.5231C165.308 24.8557 165.718 25.4001 165.943 26.2634C166.021 26.5627 166.038 27.2164 166.038 29.8435V33.0574H163.714L163.713 30.2011C163.712 27.2503 163.694 27.0032 163.443 26.6499C163.251 26.3797 162.993 26.2769 162.495 26.2722C161.874 26.2664 161.576 26.443 161.285 26.9898C161.173 27.1991 161.163 27.4303 161.145 30.1366L161.126 33.0575H158.808V30.2289C158.808 27.1308 158.787 26.92 158.438 26.5878C158.208 26.3678 157.969 26.2797 157.601 26.2797C156.9 26.2797 156.43 26.6275 156.298 27.2436C156.252 27.4579 156.226 28.5563 156.226 30.3172V33.0574H153.903L153.903 28.7649ZM81.1552 22.4067V21.3739H83.479V23.4395H81.1552V22.4067ZM55.982 20.0022C55.6011 19.8075 55.4494 19.5827 55.4144 19.1609C55.3922 18.8933 55.4173 18.7526 55.5246 18.5424C55.743 18.1143 56.0752 17.9543 57.0135 17.8259C57.2799 17.7893 57.6391 17.7267 57.8118 17.6865L58.1259 17.6135L58.0924 17.3173C58.0509 16.9483 57.844 16.7523 57.4308 16.6903C56.84 16.6017 56.4428 16.7588 56.2535 17.1557C56.147 17.3791 56.1364 17.3842 55.8577 17.3459C55.5137 17.2988 55.503 17.2901 55.5516 17.0967C55.6206 16.8219 55.8841 16.5031 56.1769 16.34C56.4252 16.2018 56.5628 16.1768 57.1749 16.1584C57.8152 16.1392 57.9131 16.1519 58.1717 16.2865C58.7065 16.5651 58.7188 16.6057 58.7634 18.2317C58.7866 19.0832 58.8333 19.739 58.8782 19.85L58.9539 20.0368L59.3573 19.4627C59.5792 19.1471 59.8864 18.709 60.0397 18.4895C60.2116 18.2432 60.2993 18.0593 60.2683 18.0093C60.2408 17.9646 59.9482 17.5416 59.618 17.0691L59.018 16.2099H59.8401L60.2504 16.8519C60.476 17.2049 60.6773 17.4954 60.6977 17.4973C60.7181 17.4994 60.9338 17.2104 61.177 16.8554L61.6192 16.2099H62.4447L62.0731 16.7424C61.8688 17.0353 61.5736 17.4567 61.4172 17.6789L61.1328 18.0827L61.7716 19.0022C62.1229 19.5078 62.4323 19.9579 62.4591 20.0022C62.4961 20.0635 62.4097 20.0827 62.1007 20.082L61.6935 20.0811L61.2419 19.372C60.9937 18.9819 60.7758 18.663 60.7579 18.6632C60.7399 18.6635 60.5073 18.983 60.241 19.3732L59.7569 20.0827L59.0146 20.0667L58.2722 20.0506L58.2048 19.842L58.1374 19.6334L57.8966 19.797C57.3331 20.1799 56.5038 20.2688 55.982 20.0022ZM57.4934 19.503C57.8617 19.3231 58.0498 19.0174 58.0944 18.5267C58.1285 18.1506 58.1229 18.1281 58.0079 18.174C57.9403 18.201 57.5853 18.278 57.2191 18.3449C56.5033 18.4759 56.4747 18.4859 56.2551 18.6837C55.9954 18.9174 56.1113 19.4281 56.4557 19.5671C56.707 19.6685 57.2192 19.637 57.4934 19.503ZM70.6484 20.0704C70.3462 19.9681 70.0112 19.5717 69.9573 19.2526C69.8746 18.763 70.1398 18.2729 70.6077 18.051C70.8157 17.9522 70.9553 17.9227 72.0107 17.7549C72.2889 17.7106 72.5539 17.6369 72.5997 17.5911C72.7263 17.4645 72.6191 16.99 72.4315 16.847C72.1589 16.6391 71.4219 16.6108 71.0775 16.7951C71.0111 16.8306 70.8962 16.9785 70.8221 17.1238C70.6878 17.387 70.6863 17.3877 70.3912 17.3473C70.2283 17.3249 70.0809 17.2924 70.0634 17.275C70.046 17.2576 70.1164 17.0779 70.2199 16.8757C70.3735 16.5752 70.4667 16.4776 70.7284 16.3428C71.0043 16.2005 71.1476 16.1748 71.761 16.1572C72.41 16.1387 72.499 16.1505 72.7628 16.291C73.2764 16.5647 73.3075 16.6743 73.3454 18.3401C73.368 19.3438 73.4036 19.8373 73.4606 19.9377C73.5416 20.0808 73.5374 20.0828 73.1869 20.0828C72.8517 20.0828 72.8282 20.0725 72.7883 19.9054C72.7248 19.6395 72.6965 19.6138 72.5798 19.7161C72.5212 19.7676 72.3425 19.8762 72.1828 19.9575C71.8475 20.128 71.0026 20.1902 70.6484 20.0704ZM72.0523 19.4858C72.4545 19.2803 72.5931 19.0608 72.6348 18.5632C72.6645 18.2109 72.6547 18.1514 72.5715 18.1752C72.2837 18.2575 71.9071 18.3376 71.4905 18.4049C70.9648 18.4899 70.7281 18.6378 70.6661 18.92C70.6173 19.1419 70.7734 19.4552 70.9834 19.5571C71.2284 19.6761 71.7478 19.6414 72.0523 19.4858ZM78.624 20.0562C78.2643 19.9278 77.9552 19.6398 77.756 19.2474C77.6094 18.9587 77.573 18.7903 77.5517 18.3047C77.4905 16.9055 78.101 16.1433 79.2797 16.1468C79.8592 16.1485 80.1916 16.2771 80.4873 16.6139C80.6668 16.8184 80.8829 17.2832 80.8228 17.3355C80.8104 17.3465 80.6695 17.3741 80.5097 17.3971L80.2192 17.439L80.0672 17.1513C79.6957 16.4485 78.758 16.5172 78.3798 17.275C78.1614 17.7125 78.1525 18.5403 78.3613 19C78.75 19.8553 79.932 19.7973 80.1979 18.9098L80.2733 18.6582L80.569 18.701C80.7316 18.7247 80.8739 18.7517 80.8851 18.7614C80.9441 18.8121 80.7451 19.3138 80.5737 19.547C80.2894 19.9335 79.827 20.1483 79.2867 20.1446C79.0541 20.143 78.756 20.1033 78.624 20.0562ZM91.6123 20.0716C91.1726 19.9467 90.8481 19.6012 90.7064 19.1069C90.6482 18.9042 90.7172 18.8564 91.068 18.8564C91.2547 18.8564 91.3011 18.888 91.3766 19.0663C91.5913 19.5735 92.234 19.7709 92.8138 19.5076C93.2013 19.3316 93.3062 18.9168 93.0226 18.6815C92.9738 18.641 92.6202 18.5205 92.2368 18.4137C91.3476 18.1659 91.0987 18.0352 90.9194 17.7211C90.604 17.1687 90.8284 16.5547 91.4509 16.2673C91.7445 16.1319 92.5219 16.1029 92.9175 16.2128C93.2401 16.3023 93.583 16.6386 93.6688 16.9494C93.7073 17.0889 93.7325 17.2082 93.7245 17.2144C93.7166 17.2206 93.5712 17.2404 93.4012 17.2587C93.0992 17.2912 93.0902 17.287 93.0001 17.0713C92.7528 16.4796 91.4187 16.5443 91.4187 17.148C91.4187 17.4037 91.6415 17.5348 92.4629 17.7623C93.3412 18.0056 93.5944 18.144 93.7585 18.4704C94.0762 19.1028 93.6725 19.8703 92.9108 20.0819C92.6202 20.1626 91.9129 20.157 91.6123 20.0716ZM94.7996 20.0547C94.4014 19.8814 94.388 19.8202 94.388 18.1966V16.7264H94.1296C93.8722 16.7264 93.8715 16.7257 93.8715 16.472C93.8715 16.2247 93.8782 16.2172 94.1136 16.1976L94.3556 16.1777L94.3742 15.6916L94.3928 15.2055L94.6834 15.0299C94.8434 14.9334 94.9875 14.8543 95.0037 14.8543C95.0201 14.8543 95.0334 15.1594 95.0334 15.5322V16.2099H95.6789V16.7264H95.0334V18.0127C95.0334 19.4438 95.0497 19.5019 95.4501 19.5019C95.6173 19.5019 95.6724 19.5336 95.7028 19.6472C95.7876 19.9636 95.7522 20.065 95.5417 20.1071C95.2398 20.1675 95.0237 20.1522 94.7996 20.0546V20.0547ZM97.7648 20.0763C97.6516 20.0435 97.4991 19.9406 97.4258 19.8474C97.3002 19.6877 97.2927 19.5955 97.2927 18.2022V16.7264H97.0344C96.777 16.7264 96.7763 16.7257 96.7763 16.472C96.7763 16.2247 96.7829 16.2172 97.0183 16.1976L97.2604 16.1777L97.2789 15.6916L97.2975 15.2055L97.5882 15.0299C97.748 14.9334 97.8922 14.8543 97.9085 14.8543C97.9249 14.8543 97.9381 15.1594 97.9381 15.5322V16.2099H98.5837V16.7264H97.9381V18.0127C97.9381 19.4438 97.9544 19.5019 98.3549 19.5019C98.5764 19.5019 98.6452 19.6025 98.6474 19.9296C98.6486 20.1339 98.2138 20.2062 97.7648 20.0763ZM99.4241 20.0022C99.0893 19.8312 98.9199 19.6194 98.8391 19.2711C98.8068 19.1317 98.7797 18.386 98.7789 17.6138L98.7774 16.21H99.4119L99.4335 17.6138C99.4561 19.0872 99.48 19.2179 99.7692 19.452C99.9767 19.6202 100.51 19.6038 100.781 19.4211C101.218 19.1271 101.257 18.9767 101.285 17.5176L101.31 16.2099H101.94V20.0829H101.359V19.5531L101.122 19.7615C100.797 20.0469 100.527 20.1475 100.084 20.1475C99.8217 20.1475 99.6226 20.1036 99.4241 20.0022ZM103.187 20.0763C103.074 20.0435 102.921 19.9406 102.848 19.8474C102.722 19.6877 102.715 19.5955 102.715 18.2022V16.7264H102.198V16.2099H102.715V15.2085L103.008 15.0314C103.169 14.9341 103.314 14.8544 103.331 14.8544C103.347 14.8544 103.36 15.1594 103.36 15.5322V16.2099H104.006V16.7264H103.36V18.0127C103.36 19.4438 103.377 19.5019 103.777 19.5019C103.999 19.5019 104.067 19.6025 104.07 19.9301C104.071 20.1405 103.65 20.2102 103.187 20.0762V20.0763ZM105.232 20.0908C104.916 19.9875 104.668 19.8283 104.467 19.5997C104.118 19.2019 104.047 18.9656 104.042 18.1787C104.039 17.5682 104.059 17.4234 104.187 17.1459C104.502 16.4625 105.016 16.147 105.817 16.146C106.864 16.1446 107.457 16.7328 107.588 17.9044L107.63 18.2755H106.177C105.377 18.2755 104.708 18.301 104.689 18.3321C104.614 18.4523 104.863 19.0811 105.065 19.283C105.301 19.5187 105.734 19.6603 106.042 19.6025C106.334 19.5476 106.656 19.3135 106.776 19.0677C106.866 18.8849 106.91 18.8593 107.137 18.8589C107.522 18.8582 107.586 18.9194 107.474 19.186C107.339 19.5066 107.06 19.8112 106.757 19.9682C106.468 20.1177 105.542 20.1921 105.232 20.0908ZM106.911 17.6437C106.911 17.5802 106.845 17.3987 106.765 17.2402C106.598 16.9084 106.192 16.6618 105.813 16.6618C105.301 16.6618 104.72 17.1663 104.717 17.6138C104.716 17.7589 104.718 17.7591 105.813 17.7591C106.824 17.7591 106.911 17.75 106.911 17.6437ZM112.268 20.0909C111.492 19.8369 111.107 19.2692 111.056 18.3039C111.002 17.2726 111.314 16.6369 112.042 16.2973C112.409 16.1261 113.074 16.0916 113.507 16.2213C113.83 16.3181 114.299 16.7294 114.478 17.0731C114.67 17.4418 114.715 18.4277 114.564 18.9471C114.441 19.3724 114.116 19.7677 113.725 19.9696C113.44 20.1169 112.569 20.1894 112.268 20.0909ZM113.336 19.493C113.838 19.247 114.116 18.456 113.961 17.7159C113.863 17.2493 113.66 16.9513 113.329 16.7899C112.355 16.3142 111.486 17.2847 111.749 18.5543C111.847 19.0253 112.042 19.3068 112.398 19.4899C112.711 19.6512 113.011 19.6522 113.336 19.493ZM49.8485 17.4015V14.7199L50.3748 14.7387L50.9009 14.7575L51.6595 17.0166C52.3032 18.9335 52.4273 19.2514 52.4786 19.1145C52.5117 19.0258 52.8704 18.0024 53.2755 16.8403L54.012 14.7273L54.48 14.7263L54.948 14.7253V20.0828H54.3025V17.8752C54.3025 16.661 54.2784 15.6952 54.2489 15.7289C54.2195 15.7626 53.9821 16.4002 53.7213 17.1458C53.4605 17.8913 53.1248 18.8499 52.9755 19.2759L52.704 20.0505L52.3823 20.0698L52.0605 20.0889L51.4028 18.1655C51.0409 17.1077 50.6957 16.0968 50.6356 15.9194C50.5282 15.6024 50.526 15.6371 50.5093 17.8397L50.4923 20.0828H49.8485V17.4015ZM64.4368 17.3988V14.7147L65.9053 14.7363C67.239 14.756 67.4011 14.7705 67.6704 14.895C67.8335 14.9702 68.0331 15.1008 68.1139 15.1852C68.68 15.776 68.6169 16.9932 67.9932 17.5181C67.6506 17.8063 67.2397 17.8882 66.1356 17.8882H65.1469V20.0829H64.4367L64.4368 17.3988ZM67.2637 17.1441C67.7474 16.9498 67.9322 16.3479 67.6675 15.8289C67.4653 15.4324 67.2571 15.3708 66.1214 15.3708H65.1468V16.296C65.1468 16.8049 65.1686 17.2441 65.1952 17.2719C65.2865 17.3677 66.9653 17.2639 67.2637 17.1441ZM68.8907 17.4041V14.7253H69.5363V20.0829H68.8907V17.4041ZM73.9257 18.1464V16.2099H74.5711V16.6861L74.7027 16.5449C74.9501 16.2794 75.3095 16.1454 75.7746 16.1454C76.3924 16.1454 76.7071 16.3091 76.9233 16.7429C77.0864 17.07 77.0885 17.0942 77.0885 18.5786V20.0829H76.4573L76.4285 18.679C76.4117 17.858 76.3698 17.2027 76.3275 17.1009C76.1616 16.7015 75.6178 16.5636 75.1522 16.8029C74.6701 17.0507 74.6359 17.1793 74.6358 18.7435V20.0829H73.9257V18.1464ZM81.0262 17.4041V14.7253H81.6716V16.2099C81.6716 17.0265 81.6938 17.6945 81.721 17.6945C81.7483 17.6945 82.1037 17.3606 82.5107 16.9523L83.2509 16.2099H84.0902L83.3653 16.9368L82.6404 17.6637L83.4475 18.8733L84.2546 20.0829L83.8507 20.0819L83.4467 20.0811L82.8063 19.0791L82.1659 18.0772L81.9188 18.3186L81.6716 18.56V20.083H81.0261L81.0262 17.4041ZM85.6737 17.4041V14.7253H86.3838V20.0829H85.6736L85.6737 17.4041ZM87.1584 18.1464V16.2099H87.7392V16.6859L87.9168 16.5159C88.1852 16.2588 88.522 16.1453 89.0121 16.1464C89.3455 16.1472 89.51 16.1819 89.702 16.2916C90.2407 16.5998 90.3179 16.9184 90.32 18.8404L90.3212 20.0829H89.6199L89.5994 18.6024L89.5789 17.1218L89.3951 16.93C88.9243 16.439 88.0643 16.7071 87.8748 17.4041C87.8359 17.5468 87.8044 18.2033 87.8042 18.8726L87.8039 20.0829H87.1584V18.1464ZM95.9371 18.1464V16.2099H96.5827V20.0829H95.9371V18.1464ZM109.815 18.4047V16.7264H109.234V16.2099H109.815V15.7419C109.815 15.1848 109.957 14.8965 110.299 14.7537C110.529 14.6574 111.401 14.6237 111.448 14.7091C111.463 14.7358 111.462 14.8666 111.445 14.9996C111.416 15.2353 111.408 15.2417 111.147 15.2425C110.599 15.2444 110.461 15.3814 110.461 15.9224V16.2099H111.171V16.7264H110.461V20.0829H109.815V18.4045L109.815 18.4047ZM115.044 18.1464V16.2099H115.625L115.628 16.4843L115.632 16.7586L115.741 16.5973C115.978 16.2494 116.146 16.1454 116.47 16.1454C116.812 16.1454 117.11 16.2517 117.11 16.3739C117.11 16.4171 117.067 16.5539 117.015 16.6779C116.922 16.9012 116.918 16.9028 116.668 16.836C116.291 16.7351 116.03 16.8648 115.86 17.238C115.742 17.4974 115.723 17.6875 115.701 18.808L115.676 20.0829H115.044L115.044 18.1464ZM95.9371 15.0803V14.7253H96.5827V15.4354H95.9371V15.0803Z" fill="black"/>
</svg>
