<svg width="54" height="54" viewBox="0 0 54 54" fill="none" xmlns="http://www.w3.org/2000/svg">
<path d="M11.3089 48.5923C8.90542 46.8423 6.8086 44.7022 5.11133 42.2708C6.4772 42.1005 8.10324 42.1067 8.47181 42.7881C8.88684 43.5562 10.8195 46.5853 11.3089 48.5923Z" fill="white"/>
<path d="M12.0516 39.9789C13.1511 39.3595 16.6385 38.7679 18.215 43.6367C19.4539 43.6367 21.4268 44.4513 21.3153 46.1671C21.3215 48.137 15.2851 50.2524 13.5475 49.0909C11.8069 47.9295 9.94854 43.4664 10.2861 42.0014C10.6237 40.5364 12.0547 39.9758 12.0547 39.9758L12.0516 39.9789Z" fill="white"/>
<path d="M4.53472 41.4129C6.08332 41.3293 8.55181 41.2983 9.19293 41.8589C10.7384 38.4365 14.229 38.3436 15.9139 39.3749C16.0471 39.4586 16.1648 39.5453 16.2732 39.6382C16.7594 39.1272 17.5399 38.6564 18.5496 38.4829H18.5558C18.881 38.421 19.231 38.3962 19.6027 38.4086C19.5283 38.1577 19.5407 37.9131 19.6244 37.6746C20.3212 35.6645 26.0418 34.1716 26.1471 33.5305C26.1626 33.4345 26.1068 33.2517 25.9953 33.0164C25.8188 32.6447 25.506 32.1367 25.1405 31.5978C24.9206 31.2726 24.679 30.9381 24.4374 30.616C24.0565 30.1143 23.6693 29.6435 23.3472 29.3028C23.307 29.2594 23.2667 29.2192 23.2295 29.182C22.8362 28.7856 22.5605 28.6183 22.5419 28.8692C22.5419 28.8971 22.5419 28.928 22.5419 28.9621C22.5977 29.532 22.6411 30.5324 22.5915 31.5978C22.5357 32.8088 22.3623 34.1035 21.9659 34.9521C21.9101 35.0822 21.8451 35.1999 21.7738 35.3052C21.5973 35.5716 20.8354 35.9587 19.7173 36.4047C19.7173 36.4078 19.7142 36.4078 19.7142 36.4078C15.7838 37.9812 7.4461 40.3413 4.39844 41.1868L4.54091 41.4129H4.53472Z" fill="white"/>
<path d="M25.3754 46.3809C26.9209 46.9167 30.1637 42.8407 32.4835 42.3049C34.8033 41.7691 37.7488 42.6921 39.5328 42.2739C41.3168 41.8589 42.4906 39.6444 41.8929 38.8298C41.2982 38.0122 36.0205 35.9092 35.1285 33.8867C34.2365 31.8642 29.9531 36.7423 28.4664 35.6118L26.9798 34.4813C26.9798 34.4813 22.3246 39.567 20.3455 39.567C19.7416 39.567 17.5363 39.3966 17.8461 40.6386C18.3819 42.7819 21.3149 42.5124 22.2193 44.4946C22.2782 45.4176 23.6471 46.4273 25.3723 46.3809H25.3754Z" fill="white"/>
<path d="M40.0681 29.1293C39.5013 29.3276 38.8571 29.5908 38.1695 29.8975C37.6709 30.1174 37.1475 30.362 36.6178 30.616C34.3569 31.7062 31.9658 33.0102 30.6185 33.7566H30.6154C30.188 33.992 29.8659 34.1747 29.6863 34.2738C29.3549 34.4597 28.8872 34.1345 28.2956 33.4902C28.0695 33.2394 27.8217 32.942 27.5585 32.6044C27.3169 32.2978 27.0629 31.9602 26.7935 31.5978C26.5581 31.285 26.3165 30.9567 26.0625 30.616C25.2603 29.5351 24.3529 28.3334 23.3556 27.1688C23.1326 26.9086 22.9034 26.6485 22.668 26.3914C22.7547 25.837 22.8352 25.264 22.9096 24.6755C23.8387 17.4559 24.0091 7.92889 23.9626 0.480079C25.505 0.303538 27.0815 0.260177 28.6828 0.362385C30.9995 0.507954 33.2264 0.944662 35.3325 1.63844C35.1343 11.2739 36.5745 18.2519 37.9156 22.777C38.0426 23.2044 38.1664 23.607 38.2903 23.9911H38.2934C38.3863 24.2884 38.4824 24.5733 38.5722 24.8428H38.5753C38.6589 25.0906 38.7394 25.326 38.82 25.549C38.9222 25.8432 39.0244 26.1189 39.1173 26.3759C39.235 26.6887 39.3434 26.9768 39.4425 27.2369C39.6934 27.8905 39.8854 28.3829 39.9845 28.7112C40.0465 28.9032 40.0774 29.0426 40.0681 29.1263V29.1293Z" fill="white"/>
<path d="M39.8179 31.2076C37.8232 39.6537 45.7088 39.1272 40.0718 39.9108C37.4237 40.2793 36.2344 33.6575 36.2344 32.6973C36.2344 31.7372 37.4113 32.0996 39.821 31.2076H39.8179Z" fill="white"/>
<path d="M45.8878 45.8512C41.3225 50.4258 35.125 53.3279 28.3266 53.6593C25.4586 52.0085 23.018 50.0232 22.668 47.4896C26.8554 49.1095 30.6712 45.8357 32.003 44.1013C32.2601 43.7668 32.4242 43.4911 32.4831 43.3177C32.5016 43.265 32.5357 43.2217 32.5884 43.1876C32.7184 43.1009 32.9538 43.073 33.2697 43.0761H33.279C33.691 43.0823 34.2392 43.1442 34.8679 43.2093C37.4076 43.4787 41.273 43.807 42.9424 40.7873C43.8313 42.7974 44.906 44.4017 45.8878 45.8512Z" fill="white"/>
<path d="M26.2984 53.681C23.2539 51.7483 20.9495 49.6082 21.7734 47.4897C21.0301 48.9577 17.2824 50.1626 14.7148 50.7015L26.3015 53.681H26.2984Z" fill="white"/>
<path d="M39.4771 37.2998H39.474C38.6626 36.5751 37.6962 35.8503 36.6804 35.2371C36.6339 35.2061 36.5843 35.1782 36.5379 35.1503C36.256 34.9831 35.9742 34.8282 35.6892 34.6857H35.6861C35.5127 34.5928 35.3362 34.5092 35.1627 34.4287C34.9335 34.3234 34.7043 34.2274 34.4782 34.1406C34.0353 33.9765 33.6017 33.8464 33.1836 33.7628C32.8429 33.6977 32.5146 33.6606 32.1987 33.6606C31.762 33.6606 31.35 33.7318 30.9815 33.8836C30.8607 33.8371 30.7399 33.7938 30.6191 33.7566H30.616C30.4271 33.6946 30.2443 33.6451 30.0585 33.6048C31.2757 32.9234 33.038 31.8766 34.7663 30.616H38.1484L38.1701 29.8974L38.1918 29.2192L39.9851 28.7143L40.013 28.7081V27.24H38.5666C38.8081 26.9396 38.9909 26.6547 39.1179 26.379C39.4121 25.7565 39.4059 25.2021 39.1086 24.7189C39.0714 24.657 39.028 24.6012 38.9847 24.5424C38.9382 24.4866 38.8887 24.434 38.836 24.3813C38.7028 24.2543 38.548 24.1397 38.3745 24.0375C38.3467 24.022 38.3219 24.0065 38.294 23.9942H38.2909C38.0586 23.8641 37.8015 23.7619 37.5228 23.6782C37.464 23.6597 37.402 23.6442 37.337 23.6256C37.052 23.5512 36.7516 23.4955 36.4481 23.4583C36.3675 23.4459 36.2901 23.4398 36.2096 23.4305C35.9215 23.4026 35.6304 23.3902 35.3455 23.3902C34.9026 23.3902 34.4751 23.4212 34.0942 23.4769L33.738 22.0088V12.5933L33.0163 8.13949C33.0163 8.13949 32.9327 6.14798 30.6408 6.14798C28.7763 6.14798 28.6493 8.3532 28.6493 8.3532L27.8006 12.7203V22.0925L27.206 23.576V25.6543H23.5605L23.3561 27.1688L23.3468 27.24H22.5416V28.9621L23.2291 29.182L23.3468 29.2192V30.616H31.3067L28.6957 33.4685C28.5656 33.4716 28.4325 33.4778 28.2962 33.4902C25.4375 33.7442 21.696 36.1724 19.624 37.6746C19.1873 37.9967 18.8187 38.2692 18.5554 38.4798H18.5523L18.5492 38.4829C18.2426 38.7183 18.0723 38.8608 18.0723 38.8608L22.0243 38.898L28.1816 38.9568C28.1816 38.9568 30.2908 42.0385 30.7399 42.3359C30.7802 42.3638 30.8266 42.3978 30.8793 42.435C30.904 42.4536 30.9319 42.4753 30.9598 42.4938C31.0155 42.5372 31.0775 42.5806 31.1425 42.6301C31.2107 42.6766 31.2819 42.7261 31.3562 42.7726C31.5483 42.8934 31.7651 43.008 32.0066 43.0885C32.1027 43.1195 32.2049 43.1443 32.3071 43.1628C32.4 43.1783 32.4929 43.1876 32.5889 43.1876C32.6044 43.1907 32.6168 43.1907 32.6323 43.1907C32.8367 43.1907 33.0442 43.1566 33.2703 43.0761H33.2796C33.4128 43.0266 33.5522 42.9615 33.6946 42.8748C34.0973 42.6301 34.3451 42.3792 34.4937 42.1377C34.8561 41.5368 34.6021 40.9824 34.5433 40.7098C34.4627 40.3413 33.4252 39.1612 33.3601 39.0869C33.4809 39.0993 36.0981 39.4462 38.771 39.4988C38.9909 39.5019 39.2108 39.505 39.4307 39.505C40.1152 39.505 40.7873 39.4833 41.4129 39.4276C41.0319 38.8236 40.3444 38.0648 39.4771 37.2998ZM34.1623 23.9787C34.2521 23.9663 34.3451 23.9539 34.4411 23.9415C34.726 23.9105 35.0264 23.895 35.3331 23.895C35.8038 23.895 36.2839 23.9322 36.733 24.0158C36.8476 24.0344 36.9622 24.0592 37.0706 24.084C37.6436 24.2172 38.1391 24.4278 38.4551 24.722C38.4984 24.7623 38.5387 24.8025 38.5728 24.8459H38.5759C38.613 24.8923 38.6471 24.9388 38.675 24.9853C38.7803 25.1556 38.8298 25.3445 38.8205 25.5521C38.8112 25.8649 38.6719 26.218 38.4055 26.6113L38.1918 25.5273L34.1623 25.487V23.9787ZM31.9974 30.616H33.8929C32.2358 31.7744 30.6067 32.7252 29.5258 33.3168L31.9974 30.616Z" fill="#67B6F4"/>
<path d="M31.9966 30.616L29.525 33.3168C30.606 32.7252 32.2351 31.7744 33.8921 30.616H31.9966ZM38.6742 24.9853C38.6464 24.9388 38.6123 24.8924 38.5751 24.849H38.572C38.538 24.8025 38.4977 24.7623 38.4543 24.722C38.1384 24.4278 37.6429 24.2172 37.0699 24.084C36.9615 24.0592 36.8469 24.0344 36.7323 24.0158C36.2832 23.9322 35.8031 23.895 35.3323 23.895C35.0257 23.895 34.7253 23.9105 34.4403 23.9415C34.3443 23.9539 34.2514 23.9663 34.1616 23.9787V25.487L38.1911 25.5273L38.4048 26.6113C38.6711 26.218 38.8105 25.8649 38.8198 25.5521C38.8291 25.3445 38.7795 25.1556 38.6742 24.9853ZM38.6742 24.9853C38.6464 24.9388 38.6123 24.8924 38.5751 24.849H38.572C38.538 24.8025 38.4977 24.7623 38.4543 24.722C38.1384 24.4278 37.6429 24.2172 37.0699 24.084C36.9615 24.0592 36.8469 24.0344 36.7323 24.0158C36.2832 23.9322 35.8031 23.895 35.3323 23.895C35.0257 23.895 34.7253 23.9105 34.4403 23.9415C34.3443 23.9539 34.2514 23.9663 34.1616 23.9787V25.487L38.1911 25.5273L38.4048 26.6113C38.6711 26.218 38.8105 25.8649 38.8198 25.5521C38.8291 25.3445 38.7795 25.1556 38.6742 24.9853ZM31.9966 30.616L29.525 33.3168C30.606 32.7252 32.2351 31.7744 33.8921 30.616H31.9966ZM31.9966 30.616L29.525 33.3168C30.606 32.7252 32.2351 31.7744 33.8921 30.616H31.9966ZM38.6742 24.9853C38.6464 24.9388 38.6123 24.8924 38.5751 24.849H38.572C38.538 24.8025 38.4977 24.7623 38.4543 24.722C38.1384 24.4278 37.6429 24.2172 37.0699 24.084C36.9615 24.0592 36.8469 24.0344 36.7323 24.0158C36.2832 23.9322 35.8031 23.895 35.3323 23.895C35.0257 23.895 34.7253 23.9105 34.4403 23.9415C34.3443 23.9539 34.2514 23.9663 34.1616 23.9787V25.487L38.1911 25.5273L38.4048 26.6113C38.6711 26.218 38.8105 25.8649 38.8198 25.5521C38.8291 25.3445 38.7795 25.1556 38.6742 24.9853ZM38.6742 24.9853C38.6464 24.9388 38.6123 24.8924 38.5751 24.849H38.572C38.538 24.8025 38.4977 24.7623 38.4543 24.722C38.1384 24.4278 37.6429 24.2172 37.0699 24.084C36.9615 24.0592 36.8469 24.0344 36.7323 24.0158C36.2832 23.9322 35.8031 23.895 35.3323 23.895C35.0257 23.895 34.7253 23.9105 34.4403 23.9415C34.3443 23.9539 34.2514 23.9663 34.1616 23.9787V25.487L38.1911 25.5273L38.4048 26.6113C38.6711 26.218 38.8105 25.8649 38.8198 25.5521C38.8291 25.3445 38.7795 25.1556 38.6742 24.9853ZM29.525 33.3168C30.606 32.7252 32.2351 31.7744 33.8921 30.616H31.9966L29.525 33.3168ZM42.2422 38.9042C41.8055 38.2104 40.9879 37.3091 39.9503 36.4109C38.9251 35.5189 37.6831 34.6269 36.3916 33.9393C35.3726 33.3942 34.3226 32.9792 33.3222 32.7903C33.8921 32.4248 34.4899 32.0252 35.0846 31.5978H39.0985V31.4492L39.1264 30.647L39.1481 29.9687L40.2755 29.6528L40.994 29.4546V26.2613H40.2104C40.4613 25.3786 40.2414 24.6848 39.941 24.2017C39.4888 23.4707 38.7207 23.034 37.9154 22.7769C36.9429 22.461 35.9177 22.4084 35.3447 22.4084C35.1775 22.4084 35.0133 22.4146 34.8461 22.4208L34.716 21.8911V12.5159L34.7036 12.4353L33.9912 8.03419C33.9107 6.85725 32.9661 5.16617 30.64 5.16617C28.4813 5.16617 27.7627 7.12671 27.6729 8.22312L26.8367 12.5345L26.8181 12.6274V21.9035L26.2946 23.2137L26.2234 23.3871V24.6755H22.6988L22.5873 25.5242L22.4882 26.2613H21.559V29.6806L22.2466 29.8975L22.3643 29.9377V31.5978H29.079L28.2428 32.5115C28.0198 32.5301 27.7906 32.5611 27.5583 32.6044C27.0504 32.6942 26.5238 32.8367 25.9942 33.0164C24.6283 33.4809 23.2284 34.1995 21.9647 34.9521H21.9616C21.1378 35.4415 20.3697 35.9463 19.7131 36.4047C19.7131 36.4078 19.71 36.4078 19.71 36.4078H19.7069C18.4184 37.306 17.5419 38.0246 17.4459 38.1051L15.9128 39.3749L15.377 39.8178L18.0622 39.8426H18.1644L27.6605 39.9324C29.6304 42.7757 30.0516 43.0575 30.1971 43.1535C30.2405 43.1814 30.2901 43.2186 30.3458 43.2619C30.383 43.2867 30.4201 43.3177 30.4604 43.3456C30.8073 43.5995 31.3338 43.9557 32.0028 44.1013C32.1979 44.1478 32.4086 44.1725 32.6316 44.1725C33.1705 44.1725 33.7001 44.0177 34.2018 43.711C34.4682 43.55 34.685 43.3827 34.8677 43.2093C35.227 42.8748 35.4345 42.5248 35.546 42.1903C35.7845 41.4934 35.6049 40.8678 35.5244 40.5829C35.5151 40.5519 35.5058 40.524 35.4996 40.4992C35.4903 40.4528 35.4748 40.3908 35.4376 40.2948C36.5743 40.3939 38.0145 40.4868 39.4299 40.4868C40.1919 40.4868 40.8887 40.459 41.4989 40.4032L41.7869 40.3784L43.094 40.2607L42.2422 38.9042ZM33.3594 39.0869C33.4244 39.1612 34.462 40.3413 34.5425 40.7098C34.6014 40.9824 34.8554 41.5368 34.493 42.1377C34.3443 42.3792 34.0965 42.6301 33.6939 42.8748C33.5514 42.9615 33.4121 43.0266 33.2789 43.0761H33.2696C33.0435 43.1566 32.836 43.1907 32.6316 43.1907C32.6161 43.1907 32.6037 43.1907 32.5882 43.1876C32.4922 43.1876 32.3993 43.1783 32.3063 43.1628C32.2041 43.1443 32.1019 43.1195 32.0059 43.0885C31.7643 43.008 31.5475 42.8934 31.3555 42.7726C31.2812 42.7261 31.2099 42.6766 31.1418 42.6301C31.0768 42.5837 31.0148 42.5372 30.9591 42.4938C30.9312 42.4753 30.9033 42.4536 30.8785 42.435C30.8259 42.3978 30.7794 42.3638 30.7392 42.3359C30.2901 42.0385 28.1809 38.9568 28.1809 38.9568L22.0236 38.898L18.0715 38.8608C18.0715 38.8608 18.2419 38.7183 18.5485 38.4829H18.5547C18.818 38.2692 19.1865 37.9967 19.6232 37.6746C21.6953 36.1724 25.4367 33.7442 28.2955 33.4902C28.4317 33.4778 28.5649 33.4716 28.695 33.4685L31.3059 30.616H23.3461V29.2192L23.2284 29.182L22.5408 28.9621V27.24H23.3461L23.3554 27.1688L23.5598 25.6543H27.2052V23.576L27.7999 22.0925V12.7203L28.6485 8.35321C28.6485 8.35321 28.7755 6.14799 30.64 6.14799C32.932 6.14799 33.0156 8.1395 33.0156 8.1395L33.7373 12.5933V22.0088L34.0934 23.4769C34.4744 23.4212 34.9018 23.3902 35.3447 23.3902C35.6297 23.3902 35.9208 23.4026 36.2088 23.4305C36.2894 23.4398 36.3668 23.4459 36.4473 23.4583C36.7509 23.4955 37.0513 23.5513 37.3362 23.6256C37.4013 23.6442 37.4632 23.6597 37.5221 23.6782C37.8008 23.7619 38.0579 23.8641 38.2902 23.9911H38.2933C38.3211 24.0034 38.3459 24.0189 38.3738 24.0344C38.5472 24.1366 38.7021 24.2512 38.8353 24.3782C38.8879 24.4309 38.9375 24.4835 38.984 24.5393C39.0273 24.5981 39.0707 24.6539 39.1078 24.7158C39.4052 25.199 39.4114 25.7534 39.1171 26.3759C38.9901 26.6516 38.8074 26.9365 38.5658 27.2369H40.0122V28.705L39.9844 28.7112L38.1911 29.2161L38.1694 29.8944L38.1477 30.6129H34.7655C33.0373 31.8735 31.275 32.9203 30.0578 33.6017C30.2436 33.642 30.4263 33.6915 30.6153 33.7535H30.6184C30.7392 33.7907 30.8599 33.834 30.9807 33.8805C31.3493 33.7287 31.7612 33.6575 32.1979 33.6575C32.5139 33.6575 32.8422 33.6946 33.1829 33.7597C33.601 33.8433 34.0346 33.9734 34.4775 34.1375C34.7036 34.2243 34.9328 34.3203 35.162 34.4256C35.3354 34.5061 35.512 34.5897 35.6854 34.6796H35.6885C35.9735 34.8251 36.2553 34.98 36.5371 35.1472C36.5836 35.1751 36.6332 35.203 36.6796 35.234C37.6955 35.8472 38.6618 36.572 39.4733 37.2936H39.4764C40.3436 38.0617 41.0312 38.8205 41.4122 39.4245C40.7865 39.4802 40.1144 39.5019 39.4299 39.5019C39.21 39.5019 38.9901 39.4988 38.7702 39.4957C36.0973 39.4431 33.4802 39.0962 33.3594 39.0838V39.0869ZM38.4048 26.6113C38.6711 26.218 38.8105 25.8649 38.8198 25.5521C38.8291 25.3445 38.7795 25.1556 38.6742 24.9853C38.6464 24.9388 38.6123 24.8924 38.5751 24.849H38.572C38.538 24.8025 38.4977 24.7623 38.4543 24.722C38.1384 24.4278 37.6429 24.2172 37.0699 24.084C36.9615 24.0592 36.8469 24.0344 36.7323 24.0158C36.2832 23.9322 35.8031 23.895 35.3323 23.895C35.0257 23.895 34.7253 23.9105 34.4403 23.9415C34.3443 23.9539 34.2514 23.9663 34.1616 23.9787V25.487L38.1911 25.5273L38.4048 26.6113ZM31.9966 30.616L29.525 33.3168C30.606 32.7252 32.2351 31.7744 33.8921 30.616H31.9966ZM31.9966 30.616L29.525 33.3168C30.606 32.7252 32.2351 31.7744 33.8921 30.616H31.9966ZM38.6742 24.9853C38.6464 24.9388 38.6123 24.8924 38.5751 24.849H38.572C38.538 24.8025 38.4977 24.7623 38.4543 24.722C38.1384 24.4278 37.6429 24.2172 37.0699 24.084C36.9615 24.0592 36.8469 24.0344 36.7323 24.0158C36.2832 23.9322 35.8031 23.895 35.3323 23.895C35.0257 23.895 34.7253 23.9105 34.4403 23.9415C34.3443 23.9539 34.2514 23.9663 34.1616 23.9787V25.487L38.1911 25.5273L38.4048 26.6113C38.6711 26.218 38.8105 25.8649 38.8198 25.5521C38.8291 25.3445 38.7795 25.1556 38.6742 24.9853ZM38.6742 24.9853C38.6464 24.9388 38.6123 24.8924 38.5751 24.849H38.572C38.538 24.8025 38.4977 24.7623 38.4543 24.722C38.1384 24.4278 37.6429 24.2172 37.0699 24.084C36.9615 24.0592 36.8469 24.0344 36.7323 24.0158C36.2832 23.9322 35.8031 23.895 35.3323 23.895C35.0257 23.895 34.7253 23.9105 34.4403 23.9415C34.3443 23.9539 34.2514 23.9663 34.1616 23.9787V25.487L38.1911 25.5273L38.4048 26.6113C38.6711 26.218 38.8105 25.8649 38.8198 25.5521C38.8291 25.3445 38.7795 25.1556 38.6742 24.9853ZM31.9966 30.616L29.525 33.3168C30.606 32.7252 32.2351 31.7744 33.8921 30.616H31.9966ZM31.9966 30.616L29.525 33.3168C30.606 32.7252 32.2351 31.7744 33.8921 30.616H31.9966ZM38.6742 24.9853C38.6464 24.9388 38.6123 24.8924 38.5751 24.849H38.572C38.538 24.8025 38.4977 24.7623 38.4543 24.722C38.1384 24.4278 37.6429 24.2172 37.0699 24.084C36.9615 24.0592 36.8469 24.0344 36.7323 24.0158C36.2832 23.9322 35.8031 23.895 35.3323 23.895C35.0257 23.895 34.7253 23.9105 34.4403 23.9415C34.3443 23.9539 34.2514 23.9663 34.1616 23.9787V25.487L38.1911 25.5273L38.4048 26.6113C38.6711 26.218 38.8105 25.8649 38.8198 25.5521C38.8291 25.3445 38.7795 25.1556 38.6742 24.9853ZM38.6742 24.9853C38.6464 24.9388 38.6123 24.8924 38.5751 24.849H38.572C38.538 24.8025 38.4977 24.7623 38.4543 24.722C38.1384 24.4278 37.6429 24.2172 37.0699 24.084C36.9615 24.0592 36.8469 24.0344 36.7323 24.0158C36.2832 23.9322 35.8031 23.895 35.3323 23.895C35.0257 23.895 34.7253 23.9105 34.4403 23.9415C34.3443 23.9539 34.2514 23.9663 34.1616 23.9787V25.487L38.1911 25.5273L38.4048 26.6113C38.6711 26.218 38.8105 25.8649 38.8198 25.5521C38.8291 25.3445 38.7795 25.1556 38.6742 24.9853ZM31.9966 30.616L29.525 33.3168C30.606 32.7252 32.2351 31.7744 33.8921 30.616H31.9966ZM31.9966 30.616L29.525 33.3168C30.606 32.7252 32.2351 31.7744 33.8921 30.616H31.9966ZM38.6742 24.9853C38.6464 24.9388 38.6123 24.8924 38.5751 24.849H38.572C38.538 24.8025 38.4977 24.7623 38.4543 24.722C38.1384 24.4278 37.6429 24.2172 37.0699 24.084C36.9615 24.0592 36.8469 24.0344 36.7323 24.0158C36.2832 23.9322 35.8031 23.895 35.3323 23.895C35.0257 23.895 34.7253 23.9105 34.4403 23.9415C34.3443 23.9539 34.2514 23.9663 34.1616 23.9787V25.487L38.1911 25.5273L38.4048 26.6113C38.6711 26.218 38.8105 25.8649 38.8198 25.5521C38.8291 25.3445 38.7795 25.1556 38.6742 24.9853ZM38.6742 24.9853C38.6464 24.9388 38.6123 24.8924 38.5751 24.849H38.572C38.538 24.8025 38.4977 24.7623 38.4543 24.722C38.1384 24.4278 37.6429 24.2172 37.0699 24.084C36.9615 24.0592 36.8469 24.0344 36.7323 24.0158C36.2832 23.9322 35.8031 23.895 35.3323 23.895C35.0257 23.895 34.7253 23.9105 34.4403 23.9415C34.3443 23.9539 34.2514 23.9663 34.1616 23.9787V25.487L38.1911 25.5273L38.4048 26.6113C38.6711 26.218 38.8105 25.8649 38.8198 25.5521C38.8291 25.3445 38.7795 25.1556 38.6742 24.9853ZM31.9966 30.616L29.525 33.3168C30.606 32.7252 32.2351 31.7744 33.8921 30.616H31.9966Z" fill="#2E3F52"/>
<path d="M41.1274 4.3516C39.3248 13.4977 38.5598 21.8075 38.5598 21.8075C38.5598 21.8075 36.9585 15.833 36.4908 11.7601C36.2802 9.9142 36.4846 5.98073 36.7758 2.15567C38.3027 2.75653 39.7584 3.49367 41.1274 4.3516Z" fill="white"/>
</svg>
