<svg width="54" height="54" viewBox="0 0 54 54" fill="none" xmlns="http://www.w3.org/2000/svg">
<path d="M32.2448 38.4303C33.2731 37.5693 34.224 36.3644 35.1438 35.6923C35.9615 35.0946 34.9766 32.177 31.6719 32.0655C28.3671 31.954 21.036 30.1266 20.0883 31.2354C19.1405 32.3473 19.8591 33.3075 19.4285 33.9703C18.998 34.63 18.6852 35.7233 19.2365 36.2467C19.7878 36.7671 19.9427 37.5042 21.0918 37.7272C25.1801 38.5201 32.2448 38.4334 32.2448 38.4334V38.4303Z" fill="white"/>
<path d="M38.1301 25.0162C36.8758 25.2888 37.2877 27.2617 36.5413 29.0519C35.9249 30.5324 34.9617 30.9133 34.4383 31.5607C33.8901 32.2421 34.8037 33.0256 35.5811 33.6792C36.3059 34.2862 36.9377 35.0946 37.455 33.8061C37.9753 32.5177 38.2943 31.5483 38.9788 30.4859C40.2734 28.4727 41.3265 28.3148 41.2367 27.4321C41.1468 26.5494 39.8584 24.6415 38.127 25.0162H38.1301Z" fill="white"/>
<path d="M42.9422 18.6577C42.2701 18.6329 41.2108 18.3294 40.7958 19.1068C40.3808 19.8842 40.7308 20.7266 40.2724 21.631C39.495 23.1641 38.0269 24.4711 38.4853 24.4649C39.303 24.4526 41.2852 25.645 41.3007 26.4472C41.3161 27.2493 42.7935 25.5892 42.6541 24.338C42.5148 23.0867 43.7258 21.2655 44.2709 20.7142C44.816 20.1629 43.67 18.6824 42.9391 18.6577H42.9422Z" fill="white"/>
<path d="M41.8185 18.0041C42.4162 18.0227 43.9308 18.382 44.4697 18.9519C45.0086 19.5218 44.5812 17.0099 45.0674 16.2387C45.5537 15.4675 45.7736 13.1446 45.0458 13.0981C44.3179 13.0517 43.4724 13.73 43.1812 14.879C42.8901 16.0281 41.2733 17.9886 41.8185 18.0072V18.0041Z" fill="white"/>
<path d="M30.0952 30.6625C30.6093 31.2107 32.6504 32.0035 33.3597 31.6009C34.0689 31.1983 32.9911 27.429 33.1057 24.8552C33.2203 22.2814 33.9574 19.3607 34.7224 17.5922C35.3016 16.2542 30.2501 15.5573 30.5846 17.1834C30.9191 18.8125 31.0244 22.269 30.7921 24.4711C30.5412 26.8529 29.5842 30.1142 30.0952 30.6625Z" fill="white"/>
<path d="M25.881 29.9966C26.2371 30.3713 28.3061 30.8359 28.8945 30.1886C29.483 29.5413 28.4516 26.5834 28.3711 22.9504C28.2782 18.8435 28.8574 17.9917 28.8295 16.6011C28.8109 15.7246 25.3018 15.4644 25.1841 16.6135C24.9797 18.6174 25.2522 18.893 25.3204 23.2168C25.3761 26.7817 24.8496 28.9187 25.8779 29.9966H25.881Z" fill="white"/>
<path d="M30.7811 10.004C30.9731 11.4783 31.1187 13.3211 30.8802 15.5233C30.8151 16.1272 32.3606 15.0711 34.2716 15.994C34.9809 16.3347 33.6398 12.7141 33.6057 10.9611C33.5933 10.2332 33.392 7.56342 32.946 6.90371C32.6518 6.10772 30.428 5.88782 30.2019 6.75194C29.9758 7.61607 30.5859 8.53284 30.778 10.0071L30.7811 10.004Z" fill="white"/>
<path d="M25.2735 11.0787C25.2518 12.3734 25.5429 13.7826 25.2797 15.0215C25.1341 15.7091 26.4876 14.7459 28.2747 15.4768C29.1326 15.8299 28.0579 14.0769 28.1291 11.5155C28.2004 8.95405 28.1291 7.32492 27.7296 6.63733C27.33 5.94975 25.2425 5.93736 25.0474 6.74574C24.8213 7.70897 25.3199 8.26337 25.2735 11.0818V11.0787Z" fill="white"/>
<path d="M24.5983 29.8417C24.3041 30.1359 23.0312 30.3558 22.5697 30.1855C22.1082 30.0151 22.7958 27.7573 22.4551 26.2365C22.1144 24.7189 19.6366 18.8218 20.3428 17.4993C21.0458 16.1799 23.186 16.4245 23.344 16.8334C23.5019 17.2422 23.6227 21.5257 23.79 23.288C23.9572 25.0503 25.4996 28.9466 24.6045 29.8386L24.5983 29.8417Z" fill="white"/>
<path d="M20.1565 15.9538C20.1968 16.1737 20.6056 15.7617 21.4078 15.7896C22.337 15.8206 22.6963 15.994 23.0277 15.8918C23.3591 15.7896 22.3679 14.1202 22.3525 12.1875C22.3525 12.1875 22.8047 9.08723 22.6684 8.59167C22.5321 8.09612 20.618 8.22001 20.4786 8.52663C20.3393 8.83326 20.5654 10.8774 20.6087 11.8685C20.6769 13.38 20.0141 15.1423 20.1596 15.9538H20.1565Z" fill="white"/>
<path d="M20.4944 7.86694C20.2652 7.78951 20.6926 5.93118 20.5657 4.87813C20.4387 3.82507 19.9152 2.46539 20.0144 2.06276C20.1135 1.66012 21.4205 1.18934 21.8758 1.50216C22.2258 1.74374 22.0183 3.50606 22.0833 4.38877C22.1483 5.27147 22.8917 7.33732 22.6996 7.6904C22.5076 8.04348 22.0864 7.78332 21.5041 7.77093C20.9218 7.75854 20.7577 7.95676 20.4944 7.86694Z" fill="white"/>
<path d="M30.7546 48.171C31.3431 46.5543 32.2134 42.0324 33.4709 40.651C34.7252 39.2696 29.7511 39.4431 28.1746 39.7311C26.5981 40.0192 24.5447 38.6006 24.2226 39.0807C23.9004 39.5608 25.1084 43.5314 24.6314 44.9623C24.4115 45.622 23.7611 49.4595 23.123 53.4084C23.8447 53.5137 24.5756 53.5912 25.319 53.6376C26.6384 53.7213 27.9392 53.7058 29.2153 53.6005C29.9121 51.0267 30.5347 48.7781 30.7577 48.1741L30.7546 48.171Z" fill="white"/>
<path d="M21.6302 29.2408C21.5496 29.8572 20.0351 30.6005 19.5891 30.328C19.1431 30.0554 19.0161 27.8316 18.2852 26.7166C17.5542 25.6016 16.4702 23.48 16.5755 22.9659C16.6808 22.4517 17.3963 21.9376 17.7122 21.9097C18.0281 21.8819 18.7064 21.5845 19.0688 21.9964C19.4311 22.4084 19.6758 24.7375 19.9979 25.7812C20.32 26.825 21.6766 28.8816 21.6302 29.2439V29.2408Z" fill="white"/>
<path d="M16.4931 21.9283C16.1927 22.0274 16.1865 20.5934 15.9418 17.5365C15.6972 14.4795 15.2976 14.2565 15.4432 13.8786C15.5888 13.4977 17.3356 12.9743 17.5462 13.476C17.7568 13.9778 17.6608 16.1365 17.8993 17.394C18.1378 18.6515 19.0576 20.8505 18.8037 21.1014C18.5497 21.3522 18.0727 21.2252 17.5524 21.3615C17.0321 21.4978 16.744 21.8447 16.4931 21.9283Z" fill="white"/>
<path d="M16.0121 9.10582C15.6249 8.83946 16.3001 8.0156 16.328 6.80149C16.3558 5.58738 16.6594 4.63034 17.0713 4.65822C17.6784 4.69538 17.7434 5.84445 17.6598 6.88512C17.5762 7.92578 18.0283 8.5762 17.7744 8.77752C17.5204 8.97884 17.189 8.93548 16.8204 9.00981C16.4519 9.08414 16.3651 9.34741 16.0121 9.10582Z" fill="white"/>
<path d="M15.6232 13.095C15.3785 13.2406 15.905 11.9491 15.9484 11.2584C15.9917 10.5677 15.5736 9.66333 16.0568 9.54873C16.5399 9.43414 17.4474 9.03769 17.6456 9.29476C17.8439 9.55183 17.5713 10.4624 17.5465 10.8836C17.4939 11.7199 17.624 12.4601 17.4815 12.7048C17.339 12.9495 16.128 12.7946 15.6232 13.095Z" fill="white"/>
<path d="M29.5761 37.1171C29.3035 37.9843 29.3748 40.301 29.0248 40.3753C28.6748 40.4497 27.9996 49.5679 27.9314 50.1873C27.8633 50.8068 27.7363 51.9651 26.739 51.8381C26.0762 51.801 26.0112 50.8749 25.9864 50.4692C25.9616 50.0634 26.0576 40.4218 25.5992 40.1585C25.5156 39.9758 25.7448 37.8666 25.6457 37.1387C25.0944 36.6989 21.1578 37.241 20.972 36.5255C20.5756 35.9308 20.2751 33.2393 20.4764 33.2703C20.6778 33.3013 23.0502 33.6977 23.0502 33.6977C23.0502 33.6977 22.2016 33.1464 22.8737 31.635C23.3321 30.6718 25.305 31.2107 25.7975 30.2536C25.9709 29.3616 26.1691 18.3541 26.1846 18.0692C26.2001 17.7842 26.3797 17.4466 26.7762 17.4714C27.1757 17.4962 27.4483 17.7533 27.4173 18.2055C27.3863 18.6576 27.6713 28.8661 27.6744 29.4329C27.6837 30.7802 29.8517 31.8983 30.3349 31.5792C30.8181 31.2602 31.2579 29.1696 31.6667 29.1015C32.5184 29.7921 31.0751 32.9854 31.3508 33.6389C31.803 33.7845 32.8034 33.8898 32.791 34.0632C32.7786 34.2367 33.1441 36.7268 32.6113 36.925C32.0786 37.1233 30.369 37.1914 29.573 37.1233L29.5761 37.1171Z" fill="#67B6F4"/>
<path d="M26.7392 17.4652C26.7392 17.4652 26.7671 17.4652 26.7795 17.4652C27.179 17.49 27.4516 17.7471 27.4206 18.1993C27.3927 18.6515 27.6746 28.8599 27.6777 29.4267C27.6869 30.616 29.378 31.6257 30.1059 31.6257C30.2019 31.6257 30.2824 31.6071 30.3382 31.57C30.8213 31.2509 31.2611 29.1603 31.67 29.0922C32.5217 29.7829 31.0784 32.9761 31.3541 33.6296C31.8062 33.7752 32.8066 33.8805 32.7943 34.0539C32.7819 34.2274 33.1473 36.7175 32.6146 36.9158C32.2151 37.0644 31.1465 37.1388 30.3041 37.1388C30.0253 37.1388 29.7714 37.1295 29.5763 37.114C29.3037 37.9812 29.3749 40.2979 29.0249 40.3722C28.675 40.4466 27.9998 49.5648 27.9316 50.1842C27.8666 50.7727 27.7489 51.8443 26.8848 51.8443C26.8383 51.8443 26.7888 51.8443 26.7392 51.835C26.0764 51.7979 26.0114 50.8718 25.9866 50.4661C25.9649 50.0603 26.0578 40.4187 25.5994 40.1554C25.5158 39.9727 25.745 37.8635 25.6459 37.1357C25.0946 36.6959 21.158 37.2379 20.9722 36.5224C20.5788 35.9308 20.2784 33.2672 20.4735 33.2672C20.4735 33.2672 20.4735 33.2672 20.4766 33.2672C20.6779 33.3013 23.0504 33.6946 23.0504 33.6946C23.0504 33.6946 22.2018 33.1433 22.8739 31.6319C23.3323 30.6687 25.3052 31.2076 25.7976 30.2505C25.9711 29.3585 26.1693 18.351 26.1848 18.0661C26.2034 17.7873 26.3675 17.4652 26.7361 17.4652M26.7392 16.8458C26.1043 16.8458 25.6149 17.3413 25.5715 18.0258C25.5685 18.0971 25.5592 18.4749 25.5344 19.5558C25.4817 21.9159 25.33 28.9002 25.2061 30.0244C25.0481 30.1855 24.6114 30.2598 24.2243 30.328C23.5367 30.4457 22.6818 30.5912 22.3133 31.3655V31.3717L22.3071 31.3779C22.0345 31.9881 21.9664 32.4898 22.0005 32.8925L20.5757 32.6571L20.5262 32.6478H20.4704C20.2319 32.6478 20.012 32.781 19.8974 32.9947C19.6094 33.5305 20.0058 36.0176 20.3992 36.7702C20.6903 37.5383 21.9075 37.5445 23.5646 37.5507C24.0291 37.5507 24.6734 37.5569 25.0481 37.5971C25.0481 38.0029 25.0202 38.5604 24.9955 39.0033C24.9397 40.0068 24.9397 40.2019 25.0295 40.4063L25.107 40.5798C25.2711 41.3293 25.3547 44.3119 25.3609 49.4626C25.3609 50.1347 25.3609 50.4103 25.3671 50.497C25.4508 52.0333 26.1229 52.408 26.6804 52.4483C26.7485 52.4576 26.8166 52.4607 26.8848 52.4607C28.3033 52.4607 28.4798 50.8532 28.548 50.2493C28.5604 50.1285 28.5944 49.7413 28.6409 49.1591C29.0404 44.3088 29.3316 41.4996 29.5081 40.7966C29.8333 40.4868 29.8891 39.8209 29.9727 38.802C30.0006 38.4489 30.0346 38.0679 30.078 37.7551C30.1523 37.7551 30.2298 37.7551 30.3072 37.7551C30.493 37.7551 32.1438 37.7489 32.8314 37.4918C33.5717 37.2162 33.615 36.1538 33.4385 34.2893C33.4292 34.184 33.4199 34.1066 33.4168 34.0601C33.4385 33.4345 32.785 33.3013 32.0943 33.1619C32.0509 33.1526 32.0076 33.1433 31.9642 33.134C32.0107 32.8429 32.1129 32.4279 32.1872 32.1182C32.5279 30.7182 32.881 29.2718 32.0602 28.6059L31.8434 28.4294L31.5678 28.4758C31.0134 28.5687 30.7749 29.1851 30.4435 30.0337C30.3289 30.3249 30.1492 30.7864 30.0253 30.9908C29.4988 30.9071 28.3033 30.1483 28.2971 29.4143C28.2971 29.2192 28.263 28.0082 28.2228 26.3295C28.1484 23.4305 28.0245 18.574 28.04 18.2302C28.0896 17.4621 27.5847 16.8891 26.8197 16.8427C26.7919 16.8427 26.764 16.8427 26.7392 16.8427V16.8458Z" fill="#2E3F52"/>
<path d="M27.4113 5.58117C27.817 5.33959 26.6029 2.57997 26.4202 1.9853C26.3242 1.66939 26.2994 0.972513 26.287 0.319C25.5653 0.337584 24.8499 0.384042 24.1406 0.461472C24.2893 1.06543 24.5061 1.78089 24.6393 2.40962C24.9025 3.64232 24.4658 6.32141 24.8747 6.0024C25.2835 5.68338 25.6737 5.6648 25.968 5.60905C26.2622 5.5533 27.0025 5.82276 27.4051 5.58117H27.4113Z" fill="white"/>
<path d="M29.8011 2.38176C29.9156 3.4472 29.8227 6.0024 30.2409 5.73604C30.8727 5.33341 32.7124 5.99931 32.8611 5.68029C33.1584 5.04227 32.2417 3.30473 31.9505 2.15566C31.8266 1.67249 31.7647 1.17074 31.7182 0.73094C30.9284 0.588468 30.1232 0.483162 29.3086 0.411926C29.4696 1.0004 29.736 1.75302 29.8042 2.38485L29.8011 2.38176Z" fill="white"/>
<path d="M21.8511 38.8143C19.9711 38.5325 19.7388 39.1024 19.5158 39.5762C19.2928 40.0501 20.2188 40.7903 20.1321 42.1469C20.0888 42.8376 19.0574 47.6197 18.0508 52.154C18.9087 52.4576 19.7852 52.7208 20.6834 52.9376C21.4887 48.9856 22.3931 44.9127 22.8205 44.2654C23.6815 42.9553 23.7311 39.0993 21.8511 38.8174V38.8143Z" fill="white"/>
</svg>
