<svg width="54" height="54" viewBox="0 0 54 54" fill="none" xmlns="http://www.w3.org/2000/svg">
<path d="M33.8874 22.238C33.5777 23.1889 32.8003 23.9818 32.8963 25.1339C32.9675 25.9733 33.6737 26.1003 33.3485 27.1719C32.8653 28.7515 31.1835 30.0523 30.7871 31.5669C30.3039 33.4469 30.3039 36.1198 30.2172 38.0958C30.0592 41.5058 29.9632 44.9499 29.9323 48.3662C29.9168 50.1904 29.9477 52.024 29.9323 53.839C28.9721 53.9412 28.0058 53.9969 27.0209 53.9969C25.2369 53.9969 23.4993 53.8235 21.8083 53.4983C21.8083 52.9098 21.799 52.3399 21.7773 51.7545C21.5233 44.6402 21.0866 37.3648 20.5384 30.2505C20.4362 28.9342 20.3557 27.5374 20.1822 26.2303C19.9375 24.3813 19.4296 24.2388 18.4385 22.8915C16.6855 20.4788 18.3208 17.2453 19.6774 15.0556C20.0893 14.3897 20.6127 13.5472 21.0897 12.9371C21.4304 12.5097 22.0189 12.1349 22.5733 12.0884C23.9608 11.9708 23.8834 13.2004 24.2086 14.1574C24.5338 15.1485 25.0572 16.1892 25.7324 16.9728L32.0539 20.5748C32.9025 20.7173 34.2498 21.1137 33.8936 22.2411L33.8874 22.238Z" fill="white"/>
<path d="M52.7314 18.6669L52.6757 18.6576C51.3934 18.447 50.1266 18.0227 49.086 17.4776C41.6341 13.5534 40.643 4.26178 40.5841 3.66092C36.7807 1.44021 32.6181 0.250878 28.4492 0.0371704C31.2274 3.4596 31.2739 4.54672 31.023 5.18475C30.769 5.83516 30.7164 7.40545 33.0052 10.5646C35.2879 13.7207 36.3874 16.4586 36.3874 16.4586C36.9263 19.6859 33.9747 25.4591 37.8617 28.451C42.0088 31.6381 47.1967 29.6218 50.0028 26.8157C52.6416 24.18 53.7504 24.4247 53.8774 24.4649C53.8867 24.4649 53.8898 24.468 53.8898 24.468C53.6358 21.4854 52.7314 18.6607 52.7314 18.6607V18.6669ZM49.4236 23.8052C47.9803 24.8923 43.83 26.0352 42.4177 24.7592C40.4293 22.9411 42.5137 17.3599 42.5137 17.3599C42.5137 17.3599 48.0329 17.4776 49.755 22.7707C49.8789 23.1424 49.7395 23.5636 49.4236 23.8083V23.8052Z" fill="white"/>
<path d="M49.7568 22.7646C48.0347 17.4745 42.5155 17.3537 42.5155 17.3537C42.5155 17.3537 40.428 22.938 42.4195 24.753C43.8318 26.029 47.979 24.8893 49.4223 23.8021C49.7382 23.5575 49.8838 23.1362 49.7568 22.7646Z" stroke="black" stroke-width="0.25" stroke-miterlimit="10"/>
<path d="M42.2984 12.4322V13.315C42.0723 16.6445 40.1675 18.732 36.6769 18.2519C35.3823 18.0754 34.2084 17.4435 33.1802 16.6754C32.378 17.4497 31.5479 18.828 31.5046 19.9678C31.4829 20.5686 31.8483 20.9248 31.7864 21.5226C31.7214 22.1606 30.7426 23.4026 30.3927 24.0468C28.8843 26.8312 27.664 31.6412 27.4472 34.8004C27.2738 37.3339 27.3078 39.982 27.2676 42.531C27.2304 45.1296 27.3233 47.7901 27.0229 50.3701C26.9145 51.2961 26.6605 52.3523 25.5548 52.4669C24.192 52.6094 23.9102 50.9554 23.7491 49.9396C23.4425 48.0193 23.427 46.0526 23.3217 44.1168C23.0925 39.917 22.7611 35.7357 22.3678 31.5483C22.1107 28.832 21.6275 26.122 21.8753 23.3902C22.0333 21.6434 22.5071 17.9732 23.4828 16.5608C24.1487 15.5976 24.827 15.8454 25.8366 15.706C27.2892 15.5047 28.8255 14.9193 29.9126 13.922C29.9343 13.8477 29.4232 13.0579 29.3458 12.9092C28.1472 10.639 28.2896 7.48599 30.6249 6.02101C33.1523 4.43523 37.2437 4.6923 39.5635 6.56612C41.2391 7.9196 42.1838 10.3107 42.2984 12.4261V12.4322ZM34.0381 5.87544C31.0771 6.07056 29.0825 7.6935 29.5347 10.8558C29.702 12.0203 30.3834 12.9123 30.9254 13.9158C30.7581 14.4733 30.148 14.9255 29.6679 15.2383C28.4321 16.0436 26.9516 16.4648 25.4898 16.6352C24.9849 16.694 24.6318 16.5423 24.2726 16.9728C23.5168 17.8834 23.0584 20.9434 22.9005 22.1668C22.758 23.2756 22.5877 24.657 22.6496 25.7627C22.7611 27.7666 23.0956 29.8913 23.2845 31.9076C23.5881 35.1596 23.9102 38.4272 24.096 41.6886C24.2292 44.0394 24.2292 46.4087 24.4863 48.7502C24.5544 49.3821 24.7217 50.8935 25.0561 51.3922C25.369 51.8598 25.8428 51.5377 25.9946 51.1072C26.1897 50.5404 26.2455 49.252 26.2857 48.6109C26.5707 44.0548 26.261 39.3997 26.5676 34.8406C26.7937 31.5204 28.0295 26.5896 29.6184 23.6628C29.9343 23.0805 30.3245 22.5725 30.6528 22.015C31.1329 21.1974 30.8015 21.2841 30.6683 20.5315C30.4422 19.2337 31.297 17.5303 32.1054 16.5515C32.3315 16.279 32.9819 15.5357 33.3753 15.7029C35.2553 17.5365 39.2569 18.5121 40.7683 15.7556C42.0413 13.4357 41.3506 9.78722 39.6379 7.84527C38.2875 6.31215 36.0234 5.74845 34.0381 5.87853V5.87544Z" fill="#2E3F52"/>
<path d="M34.0383 5.87543C36.0236 5.74535 38.2877 6.30904 39.638 7.84217C41.3508 9.78722 42.0384 13.4326 40.7685 15.7525C39.2571 18.509 35.2555 17.5303 33.3755 15.6998C32.9821 15.5326 32.3317 16.2728 32.1056 16.5484C31.2972 17.5272 30.4424 19.2306 30.6685 20.5284C30.7986 21.2841 31.13 21.1974 30.653 22.0119C30.3247 22.5694 29.9345 23.0805 29.6185 23.6597C28.0297 26.5834 26.7939 31.5142 26.5678 34.8375C26.2581 39.3966 26.5678 44.0517 26.2859 48.6077C26.2457 49.2489 26.1899 50.5404 25.9948 51.1041C25.8461 51.5377 25.3692 51.8598 25.0563 51.389C24.7218 50.8873 24.5546 49.379 24.4865 48.7471C24.2325 46.4056 24.2325 44.0363 24.0962 41.6855C23.9104 38.4241 23.5883 35.1565 23.2847 31.9045C23.0958 29.8882 22.7644 27.7666 22.6498 25.7596C22.5879 24.6508 22.7582 23.2725 22.9007 22.1637C23.0586 20.9372 23.517 17.8802 24.2727 16.9697C24.632 16.5392 24.9851 16.6909 25.49 16.6321C26.9487 16.4617 28.4323 16.0405 29.6681 15.2352C30.1482 14.9224 30.7583 14.4702 30.9256 13.9127C30.3836 12.9092 29.7022 12.0203 29.5349 10.8527C29.0827 7.6904 31.0773 6.06746 34.0383 5.87234V5.87543Z" fill="#67B6F4"/>
</svg>
