<svg width="54" height="54" viewBox="0 0 54 54" fill="none" xmlns="http://www.w3.org/2000/svg">
<path d="M37.7746 24.4154C37.6786 24.4525 37.5826 24.4556 37.4866 24.4216C37.3565 24.3751 37.1614 24.3348 36.9105 24.2946C33.6491 23.765 20.8545 23.638 16.8003 24.2729C16.5091 24.3194 16.2644 24.3689 16.0693 24.4216C16.029 24.434 15.9919 24.4402 15.9516 24.4463C13.5668 24.8118 11.8912 16.1334 14.1924 14.6808C16.1343 13.4605 18.7174 11.1531 20.2846 6.94087C20.8576 5.40465 21.3129 3.21491 21.6722 0.842444C23.3942 0.492459 25.1782 0.309723 27.0025 0.309723C29.2696 0.309723 31.4718 0.59157 33.5717 1.12429C33.6925 4.60866 33.9093 7.62226 34.284 8.53903C35.4641 11.4349 36.1795 14.5786 38.6697 15.1454C40.4134 15.5418 39.2489 23.8734 37.7746 24.4154Z" fill="white"/>
<path d="M37.8241 34.5123C37.1489 36.5348 35.9688 35.6087 33.9463 40.6665C33.1504 42.6518 33.011 47.7591 33.1101 52.9841C31.1495 53.4456 29.1023 53.6872 27.0024 53.6872C25.9927 53.6872 24.9985 53.6314 24.0198 53.523C23.8401 49.5803 23.4808 45.9256 22.8149 44.2933C21.8579 41.9518 19.8633 37.5476 17.1656 35.776C15.6325 34.7694 15.5148 33.3632 15.7192 32.2235C15.7812 31.8673 15.8741 31.539 15.967 31.254C16.0971 30.8452 16.221 30.5324 16.2457 30.3713C16.3356 29.3461 21.3871 29.6218 27.2254 29.3647C32.6331 29.1262 36.9506 29.0829 37.7404 30.5479C37.8179 30.6934 37.9325 30.9722 38.0223 31.3593C38.1895 32.0841 38.2639 33.1898 37.8241 34.5123Z" fill="white"/>
<path d="M41.0844 36.8445C41.0875 37.7768 38.8916 38.9258 38.8916 41.1187C38.8916 41.9704 38.8451 46.2198 38.7894 50.9461C38.0337 51.3209 37.2594 51.6616 36.4634 51.9589C36.4076 48.5922 36.3054 45.7428 36.1382 44.9406C35.8068 43.3549 35.1718 41.5399 34.7754 40.4744C35.8377 37.9409 36.6089 37.1945 37.2346 36.5936C37.7085 36.1352 38.1576 35.7016 38.4828 34.7322C38.6036 34.3698 38.6841 34.026 38.7429 33.6977C39.9354 34.6702 41.0813 35.8967 41.0844 36.8445Z" fill="white"/>
<path d="M30.1484 42.8593C29.6002 43.5996 26.6486 44.0394 25.1309 43.0699C24.877 40.7935 25.0876 37.1264 22.0523 31.9478C20.4077 31.9478 17.1618 32.1522 15.9817 31.3903C15.7928 30.2258 16.3627 29.0302 16.3627 29.0302C16.3627 29.0302 20.2404 28.0174 24.5425 28.2714C25.93 29.2378 28.9467 28.6245 29.6436 28.1042C30.2661 28.0298 36.1787 27.2617 37.7397 28.1042C38.4025 29.4546 37.7397 30.551 37.7397 30.551C37.7397 30.551 35.7172 31.477 32.3196 31.6722C31.1209 32.5766 30.0803 41.8465 30.1515 42.8624L30.1484 42.8593Z" fill="#67B6F4"/>
<path d="M38.5086 27.7263L38.3878 27.4785L38.1493 27.3484C37.6258 27.0666 36.8237 26.9117 35.6529 26.8684C35.4268 26.8591 35.1883 26.856 34.9375 26.856C33.9928 26.856 32.8871 26.9117 31.6296 27.0263C31.0102 27.0821 30.3536 27.1533 29.6629 27.2369L29.5452 27.2524L29.316 27.2803L29.1302 27.4166C28.9289 27.5683 27.8386 27.9245 26.64 27.9245C25.9338 27.9245 25.364 27.7975 25.0326 27.5683L24.8343 27.4321L24.5927 27.4166C24.1189 27.3887 23.6264 27.3732 23.1309 27.3732C22.7592 27.3732 22.3906 27.3825 22.0344 27.3949C20.7894 27.4445 19.6527 27.5683 18.7204 27.7046C17.2059 27.9307 16.2179 28.1847 16.1466 28.2033L15.7626 28.3024L15.5891 28.6648C15.521 28.8103 14.9139 30.139 15.14 31.5266L15.1989 31.9045L15.521 32.112C15.5829 32.1522 15.648 32.1894 15.7192 32.2235C16.5183 32.6478 17.7975 32.8274 19.9098 32.8274C20.3527 32.8274 20.7832 32.8212 21.1765 32.815C21.3097 32.8119 21.4398 32.8119 21.5637 32.8088C23.803 36.8074 24.0229 39.7931 24.1839 41.9921C24.2149 42.4071 24.2428 42.8005 24.283 43.1659L24.3264 43.5717L24.6733 43.7916C25.5684 44.3646 26.6834 44.4854 27.4608 44.4854C28.6377 44.4854 30.2297 44.1942 30.8398 43.3704L31.0288 43.1164L31.0071 42.8005C30.9235 41.6545 31.9177 34.0044 32.7477 32.4991C35.7211 32.2792 37.6227 31.5297 38.0223 31.3593C38.0626 31.3439 38.0904 31.3315 38.0966 31.3284L38.3382 31.2169L38.4745 30.9939C38.809 30.4364 39.1961 29.1232 38.5086 27.7263ZM37.7404 30.5479C37.7404 30.5479 35.718 31.477 32.3203 31.6691C31.1217 32.5735 30.0779 41.8434 30.1523 42.8593C30.0717 42.9677 29.9385 43.0699 29.7651 43.1628C29.7217 43.1876 29.6784 43.2093 29.6288 43.231C29.5793 43.2527 29.5297 43.2743 29.4771 43.2929C29.4244 43.3146 29.3687 43.3332 29.3129 43.3518C29.2695 43.3673 29.2262 43.3827 29.1797 43.3951C29.155 43.4044 29.1271 43.4106 29.1023 43.4168C29.0558 43.4323 29.0063 43.4447 28.9536 43.4571C28.8917 43.4726 28.8266 43.488 28.7585 43.5004C28.6904 43.5159 28.6253 43.5283 28.5541 43.5376C28.486 43.55 28.4178 43.5624 28.3466 43.5686C28.2041 43.5903 28.0585 43.6057 27.9099 43.6119C27.8355 43.6212 27.7612 43.6243 27.6869 43.6243C27.6497 43.6274 27.6125 43.6274 27.5754 43.6274C27.5382 43.6305 27.501 43.6305 27.4639 43.6305C26.6245 43.6305 25.7604 43.4695 25.1379 43.0699C24.8839 40.7935 25.0945 37.1264 22.0592 31.9478C21.4862 31.9478 20.7181 31.9726 19.9129 31.9726C18.4045 31.9726 16.7568 31.8859 15.9887 31.3903C15.9825 31.3439 15.9763 31.2974 15.9701 31.254C15.8431 30.1297 16.3665 29.0302 16.3665 29.0302C16.3665 29.0302 16.3696 29.0302 16.3758 29.0271C16.3882 29.0271 16.4099 29.0209 16.444 29.0117C16.4626 29.0055 16.4811 29.0024 16.5059 28.9962C16.5741 28.9807 16.667 28.959 16.7816 28.9311C16.8497 28.9156 16.9271 28.9002 17.0108 28.8816C17.0665 28.8692 17.1285 28.8568 17.1904 28.8444C17.2957 28.8227 17.4103 28.801 17.5311 28.7763C18.0205 28.6833 18.6461 28.578 19.3646 28.4851C19.5443 28.4603 19.7301 28.4387 19.9221 28.417C20.0182 28.4046 20.1173 28.3953 20.2164 28.386C20.4115 28.3643 20.6128 28.3458 20.8203 28.3303C21 28.3148 21.1858 28.3024 21.3716 28.29C21.5606 28.2776 21.7495 28.2652 21.9446 28.259C22.1088 28.2497 22.276 28.2435 22.4464 28.2404C22.6725 28.2343 22.8986 28.2312 23.1309 28.2312H23.134C23.5954 28.2312 24.0693 28.2435 24.5463 28.2714C24.602 28.3086 24.6609 28.3457 24.7197 28.3798C24.7228 28.3829 24.729 28.3829 24.7321 28.386C24.76 28.4015 24.7879 28.417 24.8188 28.4294C24.8219 28.4325 24.825 28.4325 24.8281 28.4356C24.8684 28.4542 24.9087 28.4758 24.952 28.4913H24.9551C24.9737 28.5006 24.9892 28.5068 25.0078 28.513C25.0821 28.544 25.1564 28.5718 25.237 28.5966C25.4073 28.6493 25.587 28.6895 25.7728 28.7174C26.0515 28.7639 26.3458 28.7825 26.6431 28.7825C26.959 28.7825 27.278 28.7608 27.5847 28.7205C27.6621 28.7112 27.7364 28.7019 27.8108 28.6864C27.8882 28.6772 27.9625 28.6648 28.0338 28.6493C28.1081 28.64 28.1793 28.6245 28.2506 28.609C28.4612 28.5657 28.6625 28.5161 28.8421 28.4603C28.8979 28.4418 28.9536 28.4232 29.0094 28.4077C29.0094 28.4077 29.0114 28.4077 29.0156 28.4077C29.0713 28.3891 29.124 28.3674 29.1735 28.3488C29.1766 28.3488 29.1797 28.3457 29.1828 28.3457C29.2324 28.3272 29.2757 28.3086 29.3191 28.29C29.3996 28.2559 29.4709 28.2219 29.5297 28.1847C29.5328 28.1816 29.5359 28.1816 29.539 28.1785C29.5483 28.1723 29.5607 28.1661 29.57 28.1599C29.5979 28.1413 29.6257 28.1258 29.6474 28.1073C29.7496 28.0949 29.9912 28.0639 30.3319 28.0236C30.4155 28.0143 30.5084 28.0051 30.6044 27.9927C30.654 27.9865 30.7036 27.9834 30.7531 27.9772C30.8553 27.9648 30.9637 27.9555 31.0752 27.9431C31.1867 27.9307 31.3044 27.9183 31.4252 27.909C31.5925 27.8936 31.7628 27.8781 31.9424 27.8626C32.023 27.8564 32.1035 27.8502 32.1871 27.8409C32.2522 27.8378 32.3203 27.8316 32.3884 27.8254C32.4907 27.8161 32.5929 27.8099 32.6982 27.8037C32.8035 27.7944 32.9088 27.7882 33.0141 27.7821C33.2247 27.7666 33.4384 27.7542 33.6552 27.7449C33.8008 27.7387 33.9433 27.7325 34.0857 27.7294C34.3738 27.7201 34.6587 27.7139 34.9375 27.7139C35.1605 27.7139 35.3804 27.717 35.591 27.7263C35.7334 27.7294 35.8697 27.7356 36.006 27.7449C36.1392 27.7542 36.2724 27.7635 36.3962 27.779C36.4613 27.7852 36.5232 27.7913 36.5821 27.8006C36.7029 27.813 36.8175 27.8316 36.9259 27.8533C36.9599 27.8595 36.994 27.8657 37.0281 27.8719C37.0962 27.8874 37.1644 27.8998 37.2263 27.9183C37.2325 27.9183 37.2387 27.9214 37.2418 27.9214C37.3037 27.9369 37.3626 27.9555 37.4183 27.9741C37.471 27.9896 37.5174 28.0051 37.5639 28.0267C37.567 28.0267 37.5732 28.0267 37.5763 28.0298C37.5763 28.0329 37.5856 28.0329 37.5887 28.036C37.6444 28.0577 37.694 28.0825 37.7435 28.1073C38.4063 29.4577 37.7435 30.551 37.7435 30.551L37.7404 30.5479Z" fill="#2E3F52"/>
<path d="M36.9365 24.8707L36.5555 17.0409C36.5555 17.0409 36.5122 15.4396 34.3627 15.229C34.2791 12.3207 31.7053 10.4221 30.1474 10.3788C28.5864 10.3354 25.2971 9.95757 21.8004 15.8175C18.0899 14.9317 16.5723 17.3351 16.5723 17.3351L16.8262 25.1215C16.8262 25.1215 17.0368 26.983 19.8615 26.9396C23.9498 26.5556 23.7423 24.6446 26.6909 24.0623C28.8837 23.6473 30.9496 26.8498 33.8176 26.4286C36.6856 26.0073 36.9365 24.8676 36.9365 24.8676V24.8707Z" fill="#67B6F4"/>
<path d="M37.7952 24.8304L37.7736 24.4154L37.4143 17.0006C37.3957 16.2945 36.8847 14.9503 35.1595 14.5012C34.7104 11.5124 32.0251 9.57351 30.173 9.52395L29.9717 9.51776C29.7858 9.51157 29.5814 9.50537 29.3584 9.50537C27.3731 9.50537 24.4184 10.0722 21.3862 14.8636C20.9897 14.7985 20.6026 14.7675 20.2278 14.7675C17.2173 14.7675 15.9041 16.7931 15.8484 16.8798L15.709 17.1028L15.7183 17.3661L15.9506 24.4464L15.9722 25.1525V25.2207C16.0621 25.9888 16.7589 27.3453 18.7195 27.7046C19.0354 27.7666 19.3823 27.7975 19.7632 27.7975H19.9429C20.7853 27.717 21.4636 27.5745 22.0335 27.3949C23.1826 27.0325 23.8794 26.5153 24.5206 26.0414C25.1834 25.5459 25.7564 25.1215 26.859 24.9047C26.9333 24.8893 27.0107 24.8831 27.0944 24.8831C27.7541 24.8831 28.5408 25.3631 29.3739 25.8711C30.0615 26.2892 30.8048 26.7414 31.6287 27.0263C32.149 27.2091 32.7034 27.3268 33.295 27.3268C33.5118 27.3268 33.7286 27.3082 33.9423 27.2772C34.6268 27.1781 35.1905 27.0325 35.652 26.8684C37.4112 26.2396 37.724 25.2826 37.7736 25.0565L37.7983 24.945V24.8304H37.7952ZM33.8184 26.4317C33.6419 26.4564 33.4653 26.4688 33.295 26.4688C33.1432 26.4688 32.9915 26.4595 32.8459 26.441C32.6972 26.4224 32.5517 26.3976 32.4092 26.3635C32.3163 26.3419 32.2234 26.3171 32.1335 26.2892C32.0654 26.2706 31.9973 26.2489 31.9322 26.2242C31.8269 26.1901 31.7247 26.1529 31.6225 26.1096C31.4676 26.0476 31.3159 25.9764 31.1641 25.902C31.0991 25.868 31.0309 25.837 30.9659 25.7998C30.8482 25.741 30.7305 25.6759 30.6159 25.6109C30.5385 25.5675 30.4579 25.5211 30.3805 25.4746C30.2535 25.4003 30.1265 25.326 29.9995 25.2485C29.8726 25.1711 29.7487 25.0937 29.6217 25.0193C29.4978 24.9419 29.377 24.8707 29.2531 24.7994C29.1943 24.7623 29.1323 24.7282 29.0704 24.6941C28.9496 24.6229 28.8288 24.5578 28.708 24.4959C28.6306 24.4587 28.5562 24.4216 28.4819 24.3875C28.3921 24.3441 28.3023 24.3039 28.2125 24.2698C28.1536 24.245 28.0948 24.2234 28.039 24.2048C27.9616 24.1769 27.8841 24.1521 27.8067 24.1304C27.689 24.0964 27.5713 24.0716 27.4536 24.053C27.3328 24.0344 27.2151 24.0251 27.0944 24.0251C26.9612 24.0251 26.828 24.0375 26.6917 24.0623C23.7432 24.6446 23.9538 26.5556 19.8624 26.9396C19.8283 26.9427 19.7942 26.9427 19.7632 26.9427C19.5155 26.9427 19.2894 26.9272 19.0819 26.8993C19.0633 26.8993 19.0447 26.8993 19.0261 26.8901C18.896 26.8746 18.7721 26.8498 18.6575 26.8219C18.5956 26.8064 18.5336 26.7909 18.4748 26.7724C18.416 26.7569 18.3602 26.7383 18.3075 26.7166C18.2549 26.698 18.2022 26.6794 18.1527 26.6578C18.1 26.6361 18.0505 26.6144 18.004 26.5896C17.8646 26.5215 17.7408 26.4472 17.6324 26.3666C17.5952 26.3418 17.5642 26.314 17.5301 26.283C17.5023 26.2675 17.4775 26.2458 17.4527 26.218L17.4434 26.2087C17.4094 26.1808 17.3784 26.1498 17.3474 26.1188C17.3195 26.091 17.2948 26.06 17.27 26.0321C17.2421 26.0012 17.2173 25.9702 17.1956 25.9392C17.174 25.9144 17.1554 25.8897 17.1399 25.8618C17.1182 25.837 17.0996 25.8091 17.0841 25.7813C16.9448 25.5583 16.8797 25.36 16.8519 25.2423C16.8426 25.2114 16.8364 25.1897 16.8333 25.1711C16.8302 25.1401 16.8271 25.1246 16.8271 25.1246L16.7992 24.2729L16.5731 17.3382C16.5731 17.3382 16.6103 17.2794 16.6908 17.1803C16.7156 17.1462 16.7466 17.1121 16.7837 17.0719L16.8395 17.0068C16.8611 16.9852 16.8828 16.9635 16.9045 16.9418C16.9262 16.917 16.951 16.8953 16.9757 16.8706C17.0501 16.7962 17.1337 16.7188 17.2266 16.6414C17.2669 16.6104 17.3102 16.5763 17.3536 16.5423C17.3784 16.5206 17.4063 16.502 17.4341 16.4834C17.4713 16.4555 17.5085 16.4277 17.5487 16.4029C17.589 16.375 17.6293 16.3471 17.6726 16.3223C17.7562 16.2697 17.843 16.217 17.939 16.1675C17.9854 16.1427 18.035 16.1179 18.0845 16.0932C18.2332 16.0188 18.3974 15.9507 18.5708 15.8918C18.7443 15.833 18.9301 15.7772 19.1283 15.737C19.2584 15.7091 19.3978 15.6843 19.5402 15.6688C19.6022 15.6595 19.6672 15.6503 19.7323 15.6472C19.754 15.6441 19.7787 15.641 19.8004 15.641C19.9367 15.6286 20.0792 15.6224 20.2278 15.6224C20.4044 15.6224 20.5902 15.6286 20.7791 15.6503C20.9092 15.6595 21.0393 15.675 21.1756 15.6967C21.3769 15.7277 21.5844 15.7679 21.8012 15.8206C21.8817 15.6843 21.9623 15.5511 22.0459 15.4211C22.1016 15.3281 22.1605 15.2383 22.2193 15.1485C22.2658 15.0773 22.3123 15.006 22.3587 14.9348C22.4052 14.8667 22.4516 14.7985 22.4981 14.7304C22.5414 14.6622 22.5879 14.5972 22.6375 14.5322C22.6808 14.4671 22.7273 14.4021 22.7737 14.337C22.8667 14.21 22.9565 14.0862 23.0494 13.9685C23.0928 13.9096 23.1392 13.8508 23.1857 13.795C23.229 13.7362 23.2755 13.6804 23.3219 13.6247C23.3684 13.5689 23.4118 13.5132 23.4582 13.4605C23.5016 13.4048 23.548 13.3521 23.5945 13.3026C23.6533 13.2313 23.7122 13.1632 23.7741 13.0981C23.8485 13.0176 23.9197 12.9371 23.9971 12.8597C24.0405 12.8132 24.0839 12.7667 24.1303 12.7203C24.1737 12.6738 24.2201 12.6305 24.2635 12.5902C24.3502 12.5004 24.4338 12.4199 24.5206 12.3455C24.567 12.3022 24.6104 12.2619 24.6568 12.2216C24.6568 12.2216 24.6579 12.2206 24.6599 12.2185C24.7033 12.1814 24.7467 12.1442 24.7869 12.1101C24.8737 12.0327 24.9604 11.9615 25.044 11.8964C25.1307 11.8283 25.2143 11.7632 25.3011 11.7013C25.3011 11.6982 25.3011 11.6982 25.3011 11.6982C25.3413 11.6672 25.3847 11.6394 25.425 11.6115C25.4652 11.5805 25.5055 11.5495 25.5488 11.5248C25.5829 11.5 25.617 11.4752 25.6511 11.4535C25.6975 11.4256 25.7471 11.3947 25.7966 11.3637C25.9205 11.2863 26.0444 11.215 26.1652 11.15C26.2147 11.1221 26.2612 11.0973 26.3077 11.0726C26.3665 11.0416 26.4254 11.0137 26.4811 10.9858C26.5338 10.9611 26.5864 10.9363 26.6391 10.9146C26.7165 10.8774 26.797 10.8434 26.8714 10.8155C27.0262 10.7535 27.1749 10.7009 27.3205 10.6544C27.432 10.6173 27.5404 10.5863 27.6488 10.5615C27.7541 10.5336 27.8594 10.512 27.9616 10.4903C28.0297 10.4748 28.0979 10.4624 28.166 10.4531C28.2001 10.4469 28.231 10.4407 28.2651 10.4376C28.3301 10.4252 28.3952 10.419 28.4602 10.4129C28.4912 10.4067 28.5253 10.4036 28.5562 10.4005C28.6523 10.3881 28.7452 10.3819 28.835 10.3788C28.866 10.3757 28.8969 10.3726 28.9248 10.3726C28.9868 10.3664 29.0456 10.3664 29.1014 10.3664C29.1447 10.3633 29.1881 10.3633 29.2314 10.3633C29.2748 10.3602 29.3151 10.3602 29.3553 10.3602C29.504 10.3602 29.6465 10.3633 29.7765 10.3695C29.9097 10.3695 30.0336 10.3788 30.1482 10.3819C31.7061 10.4221 34.2799 12.3207 34.3635 15.229C36.513 15.4396 36.5564 17.0409 36.5564 17.0409L36.9063 24.2946L36.9342 24.8707C36.9342 24.8707 36.6833 26.0073 33.8153 26.4317H33.8184Z" fill="#2E3F52"/>
</svg>
