<svg width="54" height="54" viewBox="0 0 54 54" fill="none" xmlns="http://www.w3.org/2000/svg">
<path d="M53.9995 26.9984C53.9995 27.4104 53.9902 27.8192 53.9716 28.228C53.8601 28.3395 53.7517 28.451 53.6433 28.5625C50.1837 32.1863 48.0373 36.7237 48.0528 40.9297C49.4961 38.2228 51.0695 36.0206 52.6955 34.2304H52.6986C52.8473 34.0632 52.9929 33.9052 53.1446 33.7504C51.7354 39.2077 48.6568 44.0022 44.4879 47.5516C44.4848 47.4246 44.4848 47.2945 44.4879 47.1644C44.4724 43.296 44.6242 38.3714 45.1259 32.4155C44.8193 29.4422 40.2138 26.1126 36.7263 21.2655C36.048 20.3239 35.4131 19.3297 34.8618 18.2643C34.7379 18.0351 34.6233 17.7997 34.5149 17.5643C34.4591 17.459 34.4127 17.3537 34.3631 17.2453C32.3189 12.7141 29.3828 9.51465 27.509 7.7833C26.9453 7.26297 26.4807 6.87582 26.1617 6.62494C25.8674 6.38956 25.7002 6.27186 25.7002 6.27186C25.7002 6.27186 25.694 6.23779 25.6847 6.17585C25.5887 5.56879 25.183 2.27645 27.6886 2.27645H33.0561C33.0561 2.27645 33.7375 1.93266 34.806 1.47427C34.9423 1.41542 35.0879 1.35348 35.2365 1.29153C36.5838 1.72205 37.8846 2.25477 39.1297 2.8866C39.6284 3.13748 40.1208 3.40384 40.6009 3.68878C45.4264 6.51035 49.301 10.7907 51.6208 15.9197C51.5651 16.0591 51.5155 16.1953 51.4659 16.3254C51.0633 17.4404 50.927 18.1962 50.927 18.1962C51.2337 17.8988 51.5527 17.6077 51.881 17.3289C51.9615 17.2546 52.0451 17.1834 52.1257 17.1152C52.4942 18.0475 52.8101 19.0076 53.0734 19.9894C52.9898 20.0762 52.9062 20.1629 52.8287 20.2496C50.6328 22.6066 49.5457 25.2888 49.8151 27.5683C51.0199 26.1591 52.2619 24.9512 53.5101 23.9198C53.603 23.8424 53.699 23.765 53.7951 23.6875C53.9313 24.7746 53.9995 25.8804 53.9995 27.0015V26.9984Z" fill="white"/>
<path d="M30.2971 27.144C28.9839 30.1545 26.0013 36.0671 23.8332 53.5013C23.8208 53.6036 23.8084 53.7058 23.796 53.8111C21.1634 53.4982 18.6485 52.8045 16.3008 51.7886C16.3132 51.6864 16.3287 51.5811 16.3441 51.4758C17.9268 40.2453 20.9652 16.3502 19.3701 8.93238C19.8409 4.93387 21.309 4.82547 22.6687 4.51574C23.8921 4.23699 24.7469 8.53593 24.9018 9.37838C24.9172 9.47129 24.9265 9.52085 24.9265 9.52085C24.9265 9.52085 25.0504 9.66642 25.2672 9.92658C25.4066 10.0938 25.5831 10.3044 25.7907 10.5584C27.3114 12.4013 30.4798 16.3161 32.2886 19.1222C32.3661 19.243 32.4435 19.3638 32.5147 19.4815C32.5921 19.6054 32.6665 19.7231 32.7346 19.8408C33.2054 20.6306 33.5244 21.2903 33.6111 21.7301C34.0974 24.2543 31.7094 23.9074 30.2971 27.144Z" fill="white"/>
<path d="M19.8075 52.0116C18.3395 51.3766 20.0615 43.1133 21.0402 34.9118C21.7774 28.7236 23.676 19.9616 22.5826 13.4574C22.2512 11.4845 23.5149 9.42793 24.2954 9.62615C26.6772 10.2363 27.2099 11.277 28.678 9.60137C28.678 9.60137 25.4383 6.4546 26.1878 6.12939C27.1882 5.37057 33.6335 6.21301 36.421 11.1221C39.193 16.0033 38.1957 18.9209 37.4679 20.6027C36.74 22.2845 35.1481 17.3413 34.1105 18.0196C33.0729 18.6979 27.4391 24.5269 26.2064 28.4882C25.59 30.4642 24.2211 36.479 23.2764 42.2182C22.1955 48.7688 21.607 52.7921 19.8106 52.0147L19.8075 52.0116Z" fill="#67B6F4"/>
<path d="M36.7742 10.9208C34.5783 7.05236 30.4187 5.93117 29.1984 5.6803C28.0432 5.44181 26.6061 5.3489 25.9773 5.77941C25.8256 5.86303 25.7202 6.00241 25.6862 6.17276C25.6831 6.17895 25.68 6.18824 25.68 6.19444C25.553 6.88821 26.8724 8.38417 28.1113 9.61686C27.4082 10.3137 27.0335 10.1682 26.0269 9.77792C25.7141 9.65713 25.3424 9.51465 24.9026 9.37838C24.7415 9.32882 24.5743 9.28236 24.3946 9.2359C24.1623 9.17706 23.7876 9.18945 23.3478 9.59518C22.5704 10.3075 21.9231 11.9738 22.1832 13.5255C23.0164 18.4904 22.0903 24.7654 21.2695 30.3001C21.0311 31.923 20.805 33.4562 20.6346 34.8654C20.3837 36.9839 20.0864 39.0807 19.7953 41.1063C19.2192 45.1543 18.832 48.0286 18.832 49.8745C18.832 51.3209 19.0705 52.1355 19.6466 52.3863C19.8603 52.4793 20.0554 52.5133 20.2258 52.5133C20.4736 52.5133 20.6718 52.4421 20.8173 52.3616C22.1306 51.6461 22.6664 48.3909 23.5553 43.0018L23.673 42.2801C24.6455 36.383 26.0176 30.4518 26.5906 28.6059C27.4609 25.8122 30.6944 21.95 32.7354 19.8408C33.4788 19.0665 34.0672 18.5276 34.315 18.3603C34.5659 18.3851 35.1513 19.2802 35.4672 19.7603C35.9225 20.4571 36.3065 21.0456 36.7278 21.2655C36.864 21.3398 37.0034 21.3708 37.1521 21.3584C37.3565 21.3398 37.6414 21.2252 37.8397 20.7637C38.425 19.4103 39.7971 16.2418 36.7742 10.9208ZM36.1455 19.3173C35.6282 18.5245 35.0955 17.7099 34.5163 17.5612C34.3119 17.5086 34.1044 17.5364 33.8876 17.6789C33.5965 17.8709 33.0142 18.3882 32.2894 19.1222C30.1524 21.2841 26.7671 25.3136 25.8163 28.3643C25.234 30.2319 23.8526 36.2158 22.8708 42.15L22.7531 42.8686C21.9943 47.4804 21.3934 51.1227 20.4302 51.6492C20.3806 51.6771 20.3156 51.7019 20.2289 51.7019C20.1576 51.7019 20.074 51.6864 19.9687 51.6399C19.1665 51.293 19.9625 45.7087 20.6005 41.2209C20.8886 39.1891 21.189 37.0892 21.443 34.9614C21.6102 33.5615 21.8363 32.0345 22.0748 30.4178C22.9018 24.8242 23.8371 18.4842 22.9854 13.3924C22.75 11.9955 23.3911 10.6575 23.896 10.1929C24.0416 10.0598 24.1469 10.0226 24.184 10.0226H24.1933C24.819 10.1806 25.3052 10.3695 25.7357 10.5367C25.7543 10.5429 25.7729 10.5522 25.7915 10.5584C26.9189 10.992 27.7489 11.2832 28.9847 9.87083L29.2387 9.5797L28.963 9.31333C28.4613 8.82707 27.944 8.27886 27.5104 7.78021C26.9994 7.19484 26.6091 6.6776 26.5069 6.41124C26.8229 6.27496 27.7458 6.20992 29.0343 6.47628C30.1709 6.70857 34.0394 7.75234 36.0681 11.3234C38.5551 15.6998 37.9821 18.3882 37.0932 20.4416C37.0808 20.4757 37.0685 20.5005 37.0561 20.5191C36.8269 20.358 36.4087 19.7138 36.1455 19.3173Z" fill="#2E3F52"/>
<path d="M40.6024 3.68569C40.2555 3.61755 39.9396 3.55251 39.6578 3.49676C38.7843 3.32022 38.2578 3.21182 38.2578 3.21182C38.2578 3.21182 38.4375 3.13749 38.7379 3.02599C38.8525 2.98263 38.9857 2.93307 39.1312 2.88351C39.6299 3.13439 40.1223 3.40075 40.6024 3.68569Z" fill="#2E3F52"/>
</svg>
