<svg width="54" height="55" viewBox="0 0 54 55" fill="none" xmlns="http://www.w3.org/2000/svg">
<path fill-rule="evenodd" clip-rule="evenodd" d="M37.5216 16.0047L38.6428 15.5091L38.618 14.5025L37.8778 13.9822L37.8251 10.6031L38.2339 9.94341L38.8472 9.44786L38.745 8.50011L37.7229 7.63599L35.9389 8.04792L35.2265 8.70762L34.1549 9.36733L32.7271 9.94341L31.4046 10.439L30.4352 10.6434L29.0569 10.2315L29.0073 9.67086L28.6821 9.07619L27.4587 8.71382L26.5203 8.68285H25.3774L24.4389 8.88107L23.135 9.07619L21.8311 9.24344L20.5241 9.30848H19.4245L18.5263 9.34255H17.2224H16.1601L14.2863 9.20937L12.9792 9.07619L11.6753 8.94611L10.4736 9.06071L8.92188 9.30229L9.57229 14.0255L9.17275 18.563L12.3381 18.3957L13.7133 18.2285L15.5499 18.3121L17.6405 18.3524L19.3719 18.3121L21.0568 18.0643H22.2275L23.8071 18.3524L25.5415 18.6001L26.7123 18.5599L27.4773 18.1479L27.8861 17.6121L27.7839 16.5405V15.5494L27.9883 14.8494L28.0906 14.3972L31.098 14.4468L31.7731 14.9423L32.9005 16.9617L33.7987 17.9404L34.0527 18.5196L34.1054 19.136V20.1271L34.3593 20.8673L37.215 21.4465L38.1317 21.0748L38.0822 20.4554L37.8251 19.7554L37.4689 19.0554L36.7039 18.1046L36.2455 17.2002L36.0411 16.5808L36.4499 16.2091L37.5216 16.0047Z" fill="white"/>
<path fill-rule="evenodd" clip-rule="evenodd" d="M36.8789 25.7609L37.0307 22.9982L36.8263 22.3787L37.2351 21.719L37.8453 21.2235L38.5081 20.9757L37.7431 20.2757L36.7241 19.4085L34.9401 19.8204L34.2277 20.4801L33.1561 21.1399L31.7283 21.7159L30.4027 22.2115L29.4332 22.419L28.0581 22.0071L28.0085 21.4465L27.6833 20.8518L26.4599 20.4894L25.5214 20.4554H24.3786L23.4401 20.6536L22.1362 20.8518L20.8323 21.016L19.5283 21.081H18.4257L17.5275 21.1151H15.1612L13.2843 20.9819L11.9804 21.0438L10.915 21.2328C10.915 21.2328 9.54599 21.2668 9.27344 21.2761L9.68537 27.2073C9.4283 32.3022 9.23627 31.2863 9.45927 31.7292L26.7387 33.569L26.4785 29.9174L26.8873 29.3816L26.7851 28.3099V27.3219L26.9895 26.6219L27.0917 26.1697L31.1986 26.4795L31.8057 27.5666L33.1871 28.7156L33.0539 30.289L33.1034 30.9085V31.8965L33.3574 32.6398L36.213 33.2159L37.1298 32.8442L37.0803 32.2248L36.8263 31.5248L36.4701 30.8249L35.7051 29.8771L35.2467 28.9696L35.0423 28.3502L35.4511 27.9785L36.5228 27.771L37.644 27.2754L38.1023 26.7396L37.4395 26.2874L36.8789 25.7516V25.7609Z" fill="white"/>
<path fill-rule="evenodd" clip-rule="evenodd" d="M35.9778 38.2024L36.1295 35.4428L35.9251 34.8234L36.334 34.1637L36.9441 33.6681L37.6069 33.4203L36.845 32.7204L35.8229 31.8562L34.0389 32.2682L33.3266 32.9279L32.2549 33.5876L30.8271 34.1637L29.5046 34.6592L28.5352 34.8636L27.1569 34.4517L27.1073 33.8911L26.7821 33.2964L25.5587 32.9341L24.6203 32.9031H23.4774L22.539 33.1013L21.235 32.7637L18.8285 32.358L17.4131 32.0916L15.8025 32.2248L14.257 32.1814L11.962 32.0669L9.4625 31.6332L9.85585 37.9392L8.76562 44.0531L10.4381 43.9137L11.8133 43.7496L13.6499 43.8301L15.7406 43.8734L17.4719 43.8301L19.1537 43.5823H20.3275L22.0341 43.6659L24.0225 43.7062L25.7694 43.5018L25.5773 42.3682L25.9862 41.8324L25.8839 40.7607V39.7696L26.0884 39.0697L26.1906 38.6144L30.9293 38.698L31.6448 39.7294L31.5426 40.2652L31.8987 42.1607L32.1527 42.7399L32.2054 43.3562V44.3473L32.4593 45.0876L35.315 45.6667L36.2318 45.2951L36.1822 44.6756L35.9251 43.9757L35.5689 43.2757L34.8039 42.3248L34.3455 41.4204L34.1411 40.801L34.55 40.4293L35.6216 40.2249L36.7428 39.7294L37.2012 39.1936L36.5384 38.7383L35.9778 38.2024Z" fill="white"/>
<path fill-rule="evenodd" clip-rule="evenodd" d="M47.9884 34.5322L47.5889 33.696L47.1119 32.9867L45.9969 32.7296L44.7239 32.5376L44.6434 27.1268L47.6446 26.2007L48.0008 25.0269L47.7592 20.8952L46.5637 20.1178L44.3244 19.9134L44.216 17.6586C44.216 17.6586 43.9806 13.8676 43.9403 13.8893C43.9001 13.9079 43.1165 13.9202 43.1165 13.9202L42.5063 13.7127L41.667 13.6012L40.8524 13.6849L40.2701 14.041L40.4219 16.8843L40.5489 20.4678C40.5117 20.6846 39.7653 20.4832 39.6042 20.7806C39.4215 21.1213 39.1335 21.5363 38.8145 21.9668L38.9848 25.668L39.6693 26.3463L40.4591 26.3865L40.7007 32.8628L39.9171 32.8845L39.0282 33.5597L39.5144 38.3697L39.9635 38.7321L40.3724 38.7661L40.902 38.8312V45.3818L41.4719 45.7101L42.2462 45.8433L42.8161 45.9424H43.5098L43.9589 45.8773L44.2841 45.58L44.4483 45.1836L44.4886 42.7553L44.6124 41.7673V38.7661L45.8327 38.5245H47.1862L47.8243 37.6883L48.1433 36.5919V35.4955L47.9853 34.5291L47.9884 34.5322Z" fill="#67B6F4"/>
<path fill-rule="evenodd" clip-rule="evenodd" d="M43.0862 34.7274V35.3747L14.0374 36.1428L11.0176 36.9357L13.9352 37.391L42.445 36.6136L43.0304 36.6012L43.2813 37.3383L43.0862 34.7274Z" fill="#67B6F4"/>
<path fill-rule="evenodd" clip-rule="evenodd" d="M13.4199 35.8114L13.5128 36.5268L13.6708 37.7812L13.4199 35.8114Z" fill="#67B6F4"/>
<path fill-rule="evenodd" clip-rule="evenodd" d="M13.4199 35.8114L13.5128 36.5268L13.6708 37.7812L13.4199 35.8114Z" fill="#67B6F4"/>
<path fill-rule="evenodd" clip-rule="evenodd" d="M12.9228 36.6228L12.8516 36.0375C12.8516 36.0375 13.0405 37.6728 13.0467 37.648C13.0529 37.6202 12.9228 36.6228 12.9228 36.6228Z" fill="#67B6F4"/>
<path fill-rule="evenodd" clip-rule="evenodd" d="M14.3281 36.4959L14.2383 35.7804L14.4861 37.7502L14.3281 36.4959Z" fill="#67B6F4"/>
<path fill-rule="evenodd" clip-rule="evenodd" d="M15.2578 36.4649L15.168 35.7495L15.4157 37.7162L15.2578 36.4649Z" fill="#67B6F4"/>
<path fill-rule="evenodd" clip-rule="evenodd" d="M16.0098 35.7371L16.0996 36.4525L16.2575 37.7069L16.0098 35.7371Z" fill="#67B6F4"/>
<path fill-rule="evenodd" clip-rule="evenodd" d="M17.0293 36.4184L16.9395 35.7061L17.1872 37.6728L17.0293 36.4184Z" fill="#67B6F4"/>
<path fill-rule="evenodd" clip-rule="evenodd" d="M17.6797 35.6968L17.7695 36.4122L17.9275 37.6635L17.6797 35.6968Z" fill="#67B6F4"/>
<path fill-rule="evenodd" clip-rule="evenodd" d="M18.6094 35.6627L18.6992 36.3782L18.8572 37.6326L18.6094 35.6627Z" fill="#67B6F4"/>
<path fill-rule="evenodd" clip-rule="evenodd" d="M19.541 36.3689L19.4512 35.6534L19.702 37.6201L19.541 36.3689Z" fill="#67B6F4"/>
<path fill-rule="evenodd" clip-rule="evenodd" d="M20.3789 35.6194L20.4687 36.3348L20.6267 37.5892L20.3789 35.6194Z" fill="#67B6F4"/>
<path fill-rule="evenodd" clip-rule="evenodd" d="M21.289 36.3131L21.1992 35.6008L21.447 37.5675L21.289 36.3131Z" fill="#67B6F4"/>
<path fill-rule="evenodd" clip-rule="evenodd" d="M22.127 35.5667L22.2168 36.2822L22.3747 37.5365L22.127 35.5667Z" fill="#67B6F4"/>
<path fill-rule="evenodd" clip-rule="evenodd" d="M23.0586 36.2698L22.9688 35.5543L23.2165 37.5242L23.0586 36.2698Z" fill="#67B6F4"/>
<path fill-rule="evenodd" clip-rule="evenodd" d="M23.9883 36.2388L23.8984 35.5233L24.1462 37.4932L23.9883 36.2388Z" fill="#67B6F4"/>
<path fill-rule="evenodd" clip-rule="evenodd" d="M24.6387 35.514L24.7316 36.2295L24.8895 37.4839L24.6387 35.514Z" fill="#67B6F4"/>
<path fill-rule="evenodd" clip-rule="evenodd" d="M25.6582 36.1954L25.5684 35.48L25.8192 37.4498L25.6582 36.1954Z" fill="#67B6F4"/>
<path fill-rule="evenodd" clip-rule="evenodd" d="M26.5031 36.1861L26.4102 35.4707L26.661 37.4405L26.5031 36.1861Z" fill="#67B6F4"/>
<path fill-rule="evenodd" clip-rule="evenodd" d="M27.3398 35.4366L27.4328 36.1521L27.5907 37.4064L27.3398 35.4366Z" fill="#67B6F4"/>
<path fill-rule="evenodd" clip-rule="evenodd" d="M28.248 36.1242L28.1582 35.4088L28.406 37.3755L28.248 36.1242Z" fill="#67B6F4"/>
<path fill-rule="evenodd" clip-rule="evenodd" d="M29.0859 35.3747L29.1758 36.0901L29.3337 37.3445L29.0859 35.3747Z" fill="#67B6F4"/>
<path fill-rule="evenodd" clip-rule="evenodd" d="M29.9297 35.3623L30.0195 36.0777L30.1775 37.3321L29.9297 35.3623Z" fill="#67B6F4"/>
<path fill-rule="evenodd" clip-rule="evenodd" d="M30.9492 36.0468L30.8594 35.3313L31.1072 37.3011L30.9492 36.0468Z" fill="#67B6F4"/>
<path fill-rule="evenodd" clip-rule="evenodd" d="M31.5977 35.322L31.6875 36.0375L31.8454 37.2919L31.5977 35.322Z" fill="#67B6F4"/>
<path fill-rule="evenodd" clip-rule="evenodd" d="M32.5273 35.291L32.6172 36.0065L32.7751 37.2578L32.5273 35.291Z" fill="#67B6F4"/>
<path fill-rule="evenodd" clip-rule="evenodd" d="M33.459 35.9941L33.3691 35.2787L33.62 37.2485L33.459 35.9941Z" fill="#67B6F4"/>
<path fill-rule="evenodd" clip-rule="evenodd" d="M34.2988 35.2446L34.3886 35.9601L34.5466 37.2144L34.2988 35.2446Z" fill="#67B6F4"/>
<path fill-rule="evenodd" clip-rule="evenodd" d="M35.2109 35.2074L35.3008 35.9229L35.4587 37.1773L35.2109 35.2074Z" fill="#67B6F4"/>
<path fill-rule="evenodd" clip-rule="evenodd" d="M36.2285 35.8919L36.1387 35.1765L36.3865 37.1463L36.2285 35.8919Z" fill="#67B6F4"/>
<path fill-rule="evenodd" clip-rule="evenodd" d="M37.0703 35.8795L36.9805 35.1641L37.2313 37.1339L37.0703 35.8795Z" fill="#67B6F4"/>
<path fill-rule="evenodd" clip-rule="evenodd" d="M37.9102 35.1331L38 35.8485L38.1579 37.0998L37.9102 35.1331Z" fill="#67B6F4"/>
<path fill-rule="evenodd" clip-rule="evenodd" d="M38.7422 35.8393L38.6523 35.1238L38.9001 37.0936L38.7422 35.8393Z" fill="#67B6F4"/>
<path fill-rule="evenodd" clip-rule="evenodd" d="M39.6718 35.8052L39.582 35.0897L39.8298 37.0596L39.6718 35.8052Z" fill="#67B6F4"/>
<path fill-rule="evenodd" clip-rule="evenodd" d="M40.4258 35.0804L40.5156 35.7959L40.6736 37.0472L40.4258 35.0804Z" fill="#67B6F4"/>
<path fill-rule="evenodd" clip-rule="evenodd" d="M41.4453 35.7618L41.3555 35.0464L41.6032 37.0162L41.4453 35.7618Z" fill="#67B6F4"/>
<path fill-rule="evenodd" clip-rule="evenodd" d="M42.082 35.0278L42.1719 35.7432L42.3298 36.9976L42.082 35.0278Z" fill="#67B6F4"/>
<path fill-rule="evenodd" clip-rule="evenodd" d="M43.2102 22.4872V23.1159L15.1246 23.8561L12.207 24.6242L15.0255 25.064L42.5907 24.3145L43.1544 24.299L43.396 25.0114L43.2102 22.4872Z" fill="#67B6F4"/>
<path fill-rule="evenodd" clip-rule="evenodd" d="M14.5312 23.5371L14.618 24.2278L14.7697 25.4388L14.5312 23.5371Z" fill="#67B6F4"/>
<path fill-rule="evenodd" clip-rule="evenodd" d="M14.5312 23.5371L14.618 24.2278L14.7697 25.4388L14.5312 23.5371Z" fill="#67B6F4"/>
<path fill-rule="evenodd" clip-rule="evenodd" d="M14.0486 24.3207L13.9805 23.7539C13.9805 23.7539 14.1632 25.3366 14.1694 25.3087C14.1756 25.2808 14.0486 24.3176 14.0486 24.3176V24.3207Z" fill="#67B6F4"/>
<path fill-rule="evenodd" clip-rule="evenodd" d="M15.407 24.1999L15.3203 23.5061L15.5619 25.4109L15.407 24.1999Z" fill="#67B6F4"/>
<path fill-rule="evenodd" clip-rule="evenodd" d="M16.2168 23.4752L16.3035 24.1658L16.4584 25.3799L16.2168 23.4752Z" fill="#67B6F4"/>
<path fill-rule="evenodd" clip-rule="evenodd" d="M17.0312 23.4659L17.118 24.1566L17.2728 25.3676L17.0312 23.4659Z" fill="#67B6F4"/>
<path fill-rule="evenodd" clip-rule="evenodd" d="M17.9297 23.4318L18.0164 24.1256L18.1713 25.3366L17.9297 23.4318Z" fill="#67B6F4"/>
<path fill-rule="evenodd" clip-rule="evenodd" d="M18.6484 23.4256L18.7166 24.1163L18.8374 25.3304L18.6484 23.4256Z" fill="#67B6F4"/>
<path fill-rule="evenodd" clip-rule="evenodd" d="M19.5469 23.3915L19.6336 24.0853L19.7854 25.2963L19.5469 23.3915Z" fill="#67B6F4"/>
<path fill-rule="evenodd" clip-rule="evenodd" d="M20.3613 23.3822L20.448 24.0729L20.5998 25.287L20.3613 23.3822Z" fill="#67B6F4"/>
<path fill-rule="evenodd" clip-rule="evenodd" d="M21.3465 24.0419L21.2598 23.3513L21.4983 25.256L21.3465 24.0419Z" fill="#67B6F4"/>
<path fill-rule="evenodd" clip-rule="evenodd" d="M22.1355 24.0234L22.0488 23.3296L22.2873 25.2344L22.1355 24.0234Z" fill="#67B6F4"/>
<path fill-rule="evenodd" clip-rule="evenodd" d="M23.0359 23.9924L22.9492 23.2986L23.1877 25.2034L23.0359 23.9924Z" fill="#67B6F4"/>
<path fill-rule="evenodd" clip-rule="evenodd" d="M23.7617 23.2893L23.8484 23.98L24.0002 25.1941L23.7617 23.2893Z" fill="#67B6F4"/>
<path fill-rule="evenodd" clip-rule="evenodd" d="M24.8026 24.4043L24.6602 23.2552L24.7469 23.949L24.8986 25.16L24.8026 24.4043Z" fill="#67B6F4"/>
<path fill-rule="evenodd" clip-rule="evenodd" d="M25.4637 23.9397L25.377 23.2491L25.6185 25.1538L25.4637 23.9397Z" fill="#67B6F4"/>
<path fill-rule="evenodd" clip-rule="evenodd" d="M26.2734 23.2181L26.3602 23.9088L26.5119 25.1198L26.2734 23.2181Z" fill="#67B6F4"/>
<path fill-rule="evenodd" clip-rule="evenodd" d="M27.0879 23.2057L27.1746 23.8995L27.3295 25.1105L27.0879 23.2057Z" fill="#67B6F4"/>
<path fill-rule="evenodd" clip-rule="evenodd" d="M27.9883 23.1747L28.075 23.8654L28.2299 25.0795L27.9883 23.1747Z" fill="#67B6F4"/>
<path fill-rule="evenodd" clip-rule="evenodd" d="M28.7773 23.1469L28.8641 23.8375L29.0158 25.0485L28.7773 23.1469Z" fill="#67B6F4"/>
<path fill-rule="evenodd" clip-rule="evenodd" d="M29.6758 23.1128L29.7625 23.8066L29.9143 25.0176L29.6758 23.1128Z" fill="#67B6F4"/>
<path fill-rule="evenodd" clip-rule="evenodd" d="M30.4883 23.1035L30.575 23.7942L30.7268 25.0083L30.4883 23.1035Z" fill="#67B6F4"/>
<path fill-rule="evenodd" clip-rule="evenodd" d="M31.4754 23.7632L31.3887 23.0725L31.6272 24.9742L31.4754 23.7632Z" fill="#67B6F4"/>
<path fill-rule="evenodd" clip-rule="evenodd" d="M32.1035 23.0632L32.1902 23.7539L32.3451 24.968L32.1035 23.0632Z" fill="#67B6F4"/>
<path fill-rule="evenodd" clip-rule="evenodd" d="M33 23.0323L33.0867 23.7229L33.2416 24.937L33 23.0323Z" fill="#67B6F4"/>
<path fill-rule="evenodd" clip-rule="evenodd" d="M33.9031 23.7136L33.8164 23.0199L34.058 24.9247L33.9031 23.7136Z" fill="#67B6F4"/>
<path fill-rule="evenodd" clip-rule="evenodd" d="M34.8016 23.6796L34.7148 22.9889L34.9564 24.8937L34.8016 23.6796Z" fill="#67B6F4"/>
<path fill-rule="evenodd" clip-rule="evenodd" d="M35.5938 22.9517L35.6805 23.6455L35.8353 24.8565L35.5938 22.9517Z" fill="#67B6F4"/>
<path fill-rule="evenodd" clip-rule="evenodd" d="M36.5789 23.6145L36.4922 22.9207L36.7338 24.8255L36.5789 23.6145Z" fill="#67B6F4"/>
<path fill-rule="evenodd" clip-rule="evenodd" d="M37.3965 23.6021L37.3066 22.9115L37.5482 24.8163L37.3965 23.6021Z" fill="#67B6F4"/>
<path fill-rule="evenodd" clip-rule="evenodd" d="M38.2918 23.5712L38.2051 22.8774L38.4467 24.7822L38.2918 23.5712Z" fill="#67B6F4"/>
<path fill-rule="evenodd" clip-rule="evenodd" d="M39.0086 23.5619L38.9219 22.8712L39.1604 24.776L39.0086 23.5619Z" fill="#67B6F4"/>
<path fill-rule="evenodd" clip-rule="evenodd" d="M39.909 23.5309L39.8223 22.8402L40.0607 24.7419L39.909 23.5309Z" fill="#67B6F4"/>
<path fill-rule="evenodd" clip-rule="evenodd" d="M40.6367 22.8279L40.7234 23.5216L40.8752 24.7326L40.6367 22.8279Z" fill="#67B6F4"/>
<path fill-rule="evenodd" clip-rule="evenodd" d="M41.5352 22.7969L41.6219 23.4876L41.7736 24.7017L41.5352 22.7969Z" fill="#67B6F4"/>
<path fill-rule="evenodd" clip-rule="evenodd" d="M42.323 23.4721L42.2363 22.7783L42.4748 24.6831L42.323 23.4721Z" fill="#67B6F4"/>
</svg>
