<svg width="54" height="54" viewBox="0 0 54 54" fill="none" xmlns="http://www.w3.org/2000/svg">
<path d="M37.3743 11.7973C36.3677 13.6525 32.9856 14.1357 32.6635 14.2967C32.3414 14.4578 28.5968 16.471 27.1876 20.7389C27.1876 20.7389 29.1543 20.4075 28.9871 24.0654C28.9189 25.5365 27.4168 26.1002 27.4168 26.1002L30.0432 53.8296C29.9317 53.842 29.8233 53.8513 29.7118 53.8637C29.0738 53.9287 28.4327 53.969 27.7853 53.9876C27.5252 53.9969 27.2619 54 26.9987 54C26.0137 54 25.0412 53.9473 24.0842 53.842C24.0036 53.8358 23.9231 53.8265 23.8426 53.8141C23.7621 53.8079 23.6846 53.7986 23.6041 53.7863C23.5638 53.7801 23.5267 53.777 23.4864 53.7708C22.6409 48.0657 20.6803 34.7539 20.6648 33.6915C20.6494 32.6973 19.9711 26.9055 17.9362 22.7335C17.3291 21.4885 16.5982 20.389 15.731 19.6023C15.5451 19.4319 15.35 19.2801 15.1518 19.1408C15.1518 19.1408 14.1731 13.9096 16.2203 10.3695C16.9265 9.14605 17.9207 8.98809 18.6424 8.84252C19.0481 8.762 19.3609 8.65669 19.5529 8.58236C19.6521 8.54519 19.7202 8.51422 19.7512 8.49873L24.174 9.51462L24.2886 9.54249C24.2886 9.54249 26.7044 8.89827 28.2747 6.32139C29.845 3.7445 32.1803 1.4092 36.0456 3.86529C39.4402 6.02096 38.3809 9.94513 37.3743 11.7973Z" fill="white"/>
<path d="M17.1769 23.415L14.7734 20.3456C14.7734 20.3456 16.7773 18.8342 19.0972 16.725C22.0178 14.0675 27.6114 9.65401 27.6114 9.65401L30.3401 8.20451L34.0381 5.38605L35.3823 4.47856C35.6363 4.28344 36.2465 5.15995 36.3672 5.47277C36.4416 5.6648 36.8752 6.25946 36.7203 6.39264C36.454 6.62493 35.9089 7.05235 35.4752 7.47047C35.0107 7.91957 34.5894 8.43061 34.1094 8.86112L25.0128 16.3905L17.1831 23.4088L17.1769 23.415Z" fill="#67B6F4"/>
<path d="M31.2109 7.43021L33.1095 9.76551" stroke="#67B6F4" stroke-width="0.75" stroke-linecap="round" stroke-linejoin="round"/>
<path d="M31.5332 7.19174L33.4318 9.52704" stroke="#67B6F4" stroke-width="0.75" stroke-linecap="round" stroke-linejoin="round"/>
<path d="M31.8047 6.96564L33.7033 9.30094" stroke="#67B6F4" stroke-width="0.75" stroke-linecap="round" stroke-linejoin="round"/>
<path d="M32.0977 6.75504L34.0024 9.09344" stroke="#67B6F4" stroke-width="0.75" stroke-linecap="round" stroke-linejoin="round"/>
<path d="M32.3633 6.5444L34.2557 8.86732" stroke="#67B6F4" stroke-width="0.75" stroke-linecap="round" stroke-linejoin="round"/>
<path d="M32.6113 6.33069L34.4759 8.62263" stroke="#67B6F4" stroke-width="0.75" stroke-linecap="round" stroke-linejoin="round"/>
<path d="M32.8516 6.18823L34.6789 8.43372" stroke="#67B6F4" stroke-width="0.75" stroke-linecap="round" stroke-linejoin="round"/>
<path d="M33.0684 6.02408L34.8771 8.24788" stroke="#67B6F4" stroke-width="0.75" stroke-linecap="round" stroke-linejoin="round"/>
<path d="M33.2832 5.86612L35.0796 8.07134" stroke="#67B6F4" stroke-width="0.75" stroke-linecap="round" stroke-linejoin="round"/>
<path d="M29.9725 44.0052C30.0437 44.0207 30.1088 44.0455 30.1212 44.0951C30.1428 44.1942 29.9167 44.2871 29.8052 44.3459C29.3747 44.5658 28.7026 44.7331 28.1916 44.857C27.6186 44.9933 27.0177 45.0521 26.4231 45.111C25.0448 45.2472 23.6635 45.3835 22.2821 45.5167L22.2201 44.9034C22.217 44.8725 22.217 44.8415 22.2109 44.8105C22.1985 44.6928 22.1861 44.5751 22.1737 44.4574L22.1582 44.2933C22.1861 44.2685 22.3781 44.2654 22.4215 44.2623C23.6851 44.1322 24.9519 44.0022 26.2156 43.8752C26.7421 43.8225 27.2717 43.7668 27.7982 43.7668C28.4858 43.7637 29.3035 43.8659 29.926 43.996C29.9415 43.996 29.9539 44.0022 29.9694 44.0052H29.9725Z" fill="#67B6F4"/>
<path d="M21.4084 45.8574C21.077 45.8914 20.7797 45.6499 20.7487 45.3185L20.6961 44.7857C20.6651 44.4543 20.9036 44.1601 21.235 44.126L21.9071 44.061C22.031 44.0486 22.1394 44.1384 22.1549 44.2623V44.2933H22.158C22.1301 44.3181 22.1703 44.4265 22.1734 44.4574C22.1858 44.5751 22.1982 44.6928 22.2106 44.8105C22.2137 44.8415 22.2137 44.8725 22.2199 44.9034L22.2818 45.5446C22.2973 45.6684 22.2044 45.7799 22.0805 45.7923L21.4084 45.8574Z" fill="#67B6F4"/>
<path d="M22.1582 44.2933L22.1737 44.4575" stroke="#67B6F4" stroke-width="0.25" stroke-linecap="round" stroke-linejoin="round"/>
<path d="M22.2199 44.9035L22.2818 45.5446C22.2973 45.6685 22.2044 45.78 22.0805 45.7924L21.4084 45.8574C21.077 45.8915 20.7797 45.6499 20.7487 45.3185L20.6961 44.7858C20.6651 44.4544 20.9036 44.1601 21.235 44.1261L21.9071 44.061C22.031 44.0486 22.1394 44.1385 22.1549 44.2623V44.2933" stroke="#67B6F4" stroke-width="0.25" stroke-linecap="round" stroke-linejoin="round"/>
<path d="M22.219 44.9035L22.281 45.5167C23.6623 45.3804 25.0437 45.2441 26.4219 45.111C27.0166 45.0521 27.6175 44.9933 28.1905 44.857C28.7046 44.7362 29.3736 44.569 29.8041 44.346C29.9156 44.2871 30.1417 44.1942 30.12 44.0951C30.1076 44.0455 30.0395 44.0208 29.9714 44.0053C29.9559 44.0022 29.9404 43.9991 29.928 43.996C29.3054 43.8628 28.4847 43.7606 27.8002 43.7668C27.2737 43.7668 26.7441 43.8225 26.2175 43.8752C24.9539 44.0053 23.6871 44.1353 22.4234 44.2623C22.3801 44.2654 22.188 44.2685 22.1602 44.2902C22.1323 44.3181 22.1726 44.4265 22.1757 44.4544C22.188 44.5721 22.2004 44.6897 22.2128 44.8074C22.2159 44.8384 22.2159 44.8694 22.2221 44.9004L22.219 44.9035Z" stroke="#67B6F4" stroke-width="0.25" stroke-linecap="round" stroke-linejoin="round"/>
<path d="M22.7673 4.72944L25.4433 19.116V28.2931L27.4658 50.113C27.4967 50.4568 27.4967 50.8006 27.4658 51.1443L27.2613 53.3465H25.2698L24.7898 51.8722C24.6566 51.4603 24.5699 51.0298 24.5358 50.5992L22.7177 28.0329L20.1997 19.2244L18.2051 5.46658C18.2051 5.46658 19.7692 4.2122 22.7673 4.73254V4.72944Z" fill="#67B6F4"/>
</svg>
