<svg width="55" height="54" viewBox="0 0 55 54" fill="none" xmlns="http://www.w3.org/2000/svg">
<g clip-path="url(#clip0_44_776)">
<path d="M50.9583 42.7498H3.70825C1.84442 42.7498 0.333252 41.2391 0.333252 39.3748V7.87512C0.333252 6.01088 1.84442 4.50012 3.70825 4.50012H5.95811V6.74998H3.70825C3.08698 6.74998 2.58311 7.25385 2.58311 7.87512V39.3748C2.58311 39.9961 3.08698 40.5 3.70825 40.5H50.9583C51.5795 40.5 52.0834 39.9961 52.0834 39.3748V22.4998H54.3333V39.3748C54.3333 41.2391 52.8221 42.7498 50.9583 42.7498Z" fill="#B3B3B2"/>
<path d="M23.9583 4.50012H28.4584V6.74998H23.9583V4.50012Z" fill="#B3B3B2"/>
<path d="M1.4585 32.6249H53.2082V34.8752H1.4585V32.6249Z" fill="#B3B3B2"/>
<path d="M34.0831 49.4999H20.5831C19.9619 49.4999 19.458 48.9964 19.458 48.3751V41.6251C19.458 41.0039 19.9619 40.5 20.5831 40.5H34.0831C34.7044 40.5 35.2083 41.0039 35.2083 41.6251V48.3751C35.2083 48.9964 34.7044 49.4999 34.0831 49.4999ZM21.7083 47.25H32.958V42.7499H21.7083V47.25Z" fill="#B3B3B2"/>
<path d="M37.4583 52.8749H35.2084V50.625C35.2084 50.0037 34.7045 49.4999 34.0833 49.4999H20.5833C19.962 49.4999 19.4581 50.0037 19.4581 50.625V52.8749H17.2083V50.625C17.2083 48.7612 18.7194 47.25 20.5833 47.25H34.0833C35.9471 47.25 37.4583 48.7612 37.4583 50.625V52.8749Z" fill="#B3B3B2"/>
<path d="M14.9585 51.7501H39.7082V54H14.9585V51.7501Z" fill="#B3B3B2"/>
<path d="M34.0833 31.5001C33.462 31.5001 32.9581 30.9963 32.9581 30.375V27C29.8534 26.9963 27.337 24.4799 27.3333 21.3751V5.62486C27.337 2.52013 29.8534 0.00370788 32.9581 0H48.7084C51.8131 0.00370788 54.3295 2.52013 54.3333 5.62486V21.3751C54.3295 24.4799 51.8131 26.9963 48.7084 27H40.1032L34.7865 31.2538C34.5867 31.4132 34.3387 31.5001 34.0833 31.5001ZM32.9581 2.24986C31.0943 2.24986 29.5831 3.76103 29.5831 5.62486V21.3751C29.5831 23.239 31.0943 24.7501 32.9581 24.7501H34.0833C34.7045 24.7501 35.2084 25.2536 35.2084 25.8749V28.0337L39.0053 24.9965C39.2047 24.8367 39.4527 24.7497 39.7081 24.7501H48.7084C50.5722 24.7501 52.0834 23.239 52.0834 21.3751V5.62486C52.0834 3.76103 50.5722 2.24986 48.7084 2.24986H32.9581Z" fill="#B3B3B2"/>
<path d="M18.3335 24.3414C18.0954 24.3414 17.8638 24.2656 17.6718 24.1256L12.3428 20.25H8.2085C6.34425 20.25 4.8335 18.7388 4.8335 16.875V3.375C4.8335 1.51117 6.34425 0 8.2085 0H21.7085C23.5723 0 25.0835 1.51117 25.0835 3.375V16.875C25.0835 18.7388 23.5723 20.25 21.7085 20.25H19.4582V23.2167C19.4582 23.838 18.9548 24.3414 18.3335 24.3414ZM8.2085 2.24986C7.58722 2.24986 7.08336 2.75372 7.08336 3.375V16.875C7.08336 17.4963 7.58722 18.0001 8.2085 18.0001H12.7082C12.9459 18.0001 13.1775 18.0751 13.3699 18.2148L17.2084 21.0072V19.1249C17.2084 18.5036 17.7122 18.0001 18.3335 18.0001H21.7085C22.3298 18.0001 22.8332 17.4963 22.8332 16.875V3.375C22.8332 2.75372 22.3298 2.24986 21.7085 2.24986H8.2085Z" fill="#B3B3B2"/>
<path d="M32.958 6.75H48.7083V8.99986H32.958V6.75Z" fill="#B3B3B2"/>
<path d="M32.958 12.3749H48.7083V14.6252H32.958V12.3749Z" fill="#B3B3B2"/>
<path d="M32.958 18.0001H44.2081V20.25H32.958V18.0001Z" fill="#B3B3B2"/>
<path d="M9.33301 10.125H11.5833V12.3749H9.33301V10.125Z" fill="#B3B3B2"/>
<path d="M13.8333 10.125H20.5833V12.3749H13.8333V10.125Z" fill="#B3B3B2"/>
<path d="M5.95801 23.625H13.8331V25.8749H5.95801V23.625Z" fill="#B3B3B2"/>
<path d="M5.95801 28.1251H16.083V30.375H5.95801V28.1251Z" fill="#B3B3B2"/>
</g>
<defs>
<clipPath id="clip0_44_776">
<rect width="54" height="54" fill="white" transform="translate(0.333252)"/>
</clipPath>
</defs>
</svg>
