<svg width="55" height="54" viewBox="0 0 55 54" fill="none" xmlns="http://www.w3.org/2000/svg">
<g clip-path="url(#clip0_44_478)">
<path d="M45.3335 37.125H49.8332V39.3749H45.3335V37.125Z" fill="#B3B3B2"/>
<path d="M19.4581 51.7501H1.45839C0.837112 51.7501 0.333252 51.2463 0.333252 50.625V41.6251C0.333252 41.0039 0.837112 40.5 1.45839 40.5H19.4581C20.0794 40.5 20.5833 41.0039 20.5833 41.6251V50.625C20.5833 51.2463 20.0794 51.7501 19.4581 51.7501ZM2.58311 49.4999H18.3334V42.7499H2.58311V49.4999Z" fill="#B3B3B2"/>
<path d="M26.2082 54C21.8593 54 18.3335 50.4742 18.3335 46.1248C18.3335 41.7759 21.8593 38.2501 26.2082 38.2501C30.146 38.2501 40.2821 44.4612 41.425 45.1686C41.7562 45.3738 41.9577 45.7355 41.9577 46.1248C41.9577 46.5146 41.7562 46.8759 41.425 47.0811C40.2821 47.7889 30.146 54 26.2082 54ZM26.2082 40.5C23.1018 40.5 20.5834 43.0185 20.5834 46.1248C20.5834 49.2316 23.1018 51.7501 26.2082 51.7501C28.3975 51.7501 34.4434 48.6112 38.6577 46.1248C34.3602 43.5812 28.4189 40.5 26.2082 40.5Z" fill="#B3B3B2"/>
<path d="M13.8333 41.6251H16.0831V50.625H13.8333V41.6251Z" fill="#B3B3B2"/>
<path d="M50.9584 47.25H40.8334V45.0001H50.9584C51.5796 45.0001 52.0835 44.4963 52.0835 43.875V3.375C52.0835 2.75372 51.5796 2.24986 50.9584 2.24986H8.2085C7.58722 2.24986 7.08336 2.75372 7.08336 3.375V41.6251H4.8335V3.375C4.8335 1.51117 6.34425 0 8.2085 0H50.9584C52.8222 0 54.3334 1.51117 54.3334 3.375V43.875C54.3334 45.7388 52.8222 47.25 50.9584 47.25Z" fill="#B3B3B2"/>
<path d="M5.95801 32.6249H53.208V34.8752H5.95801V32.6249Z" fill="#B3B3B2"/>
<path d="M40.8333 37.125H43.0831V39.3749H40.8333V37.125Z" fill="#B3B3B2"/>
<path d="M44.2084 15.7498C41.1016 15.7498 38.5835 13.2318 38.5835 10.125C38.5835 7.01819 41.1016 4.50012 44.2084 4.50012C47.3152 4.50012 49.8332 7.01819 49.8332 10.125C49.8295 13.2301 47.3135 15.7461 44.2084 15.7498ZM44.2084 6.74998C42.3445 6.74998 40.8334 8.26115 40.8334 10.125C40.8334 11.9888 42.3445 13.5 44.2084 13.5C46.0722 13.5 47.5834 11.9888 47.5834 10.125C47.5834 8.26115 46.0722 6.74998 44.2084 6.74998Z" fill="#B3B3B2"/>
<path d="M50.9583 34.8752H8.20848C7.75324 34.8747 7.34331 34.6008 7.16904 34.1805C6.99518 33.7603 7.09118 33.2762 7.41294 32.9545L28.7881 11.5798C29.2273 11.1406 29.9396 11.1406 30.3788 11.5798L51.7539 32.9545C52.0752 33.2762 52.1716 33.7603 51.9974 34.1805C51.8235 34.6008 51.4132 34.8747 50.9583 34.8752ZM10.9239 32.6249H48.2425L29.5832 13.9656L10.9239 32.6249Z" fill="#B3B3B2"/>
<path d="M6.75377 24.4206L5.16309 22.8295L16.4128 11.5798C16.8524 11.1406 17.5643 11.1406 18.0039 11.5798L23.6288 17.2046L22.0381 18.7953L17.2084 13.9656L6.75377 24.4206Z" fill="#B3B3B2"/>
<path d="M25.0835 22.4999H40.8334V24.7502H25.0835V22.4999Z" fill="#B3B3B2"/>
<path d="M18.3335 22.4999H22.8332V24.7502H18.3335V22.4999Z" fill="#B3B3B2"/>
<path d="M47.5831 51.7502H32.958V49.4999H47.5831C48.2044 49.4999 48.7083 48.9964 48.7083 48.3752V46.1249H50.9581V48.3752C50.9581 50.239 49.447 51.7502 47.5831 51.7502Z" fill="#B3B3B2"/>
<path d="M2.58311 41.6251H0.333252V7.87512C0.333252 6.01088 1.84442 4.50012 3.70825 4.50012H5.95811V6.74998H3.70825C3.08698 6.74998 2.58311 7.25385 2.58311 7.87512V41.6251Z" fill="#B3B3B2"/>
<path d="M28.4585 40.5H30.7084V51.7501H28.4585V40.5Z" fill="#B3B3B2"/>
</g>
<defs>
<clipPath id="clip0_44_478">
<rect width="54" height="54" fill="white" transform="translate(0.333252)"/>
</clipPath>
</defs>
</svg>
