<svg width="55" height="54" viewBox="0 0 55 54" fill="none" xmlns="http://www.w3.org/2000/svg">
<g clip-path="url(#clip0_44_887)">
<path d="M20.5833 43.875H1.177C0.711044 43.875 0.333252 43.4972 0.333252 43.0312V5.90625C0.333252 5.44029 0.711044 5.0625 1.177 5.0625H4.552V6.75H2.02075V42.1875H20.5833V43.875Z" fill="#B3B3B2"/>
<path d="M53.4895 43.875H34.0833V42.1875H52.6458V6.75H50.1145V5.0625H53.4895C53.9555 5.0625 54.3333 5.44029 54.3333 5.90625V43.0312C54.3333 43.4972 53.9555 43.875 53.4895 43.875Z" fill="#B3B3B2"/>
<path d="M1.177 37.125H53.4895V38.8125H1.177V37.125Z" fill="#B3B3B2"/>
<path d="M34.9521 49.9856L33.4245 43.875H21.242L19.7144 49.9856L18.0771 49.5769L19.7646 42.8269C19.8586 42.4512 20.196 42.1875 20.5833 42.1875H34.0833C34.4705 42.1875 34.808 42.4512 34.9019 42.8269L36.5894 49.5769L34.9521 49.9856Z" fill="#B3B3B2"/>
<path d="M38.302 54H16.3645C15.4326 54 14.677 53.2444 14.677 52.3125V50.625C14.677 49.6931 15.4326 48.9375 16.3645 48.9375H38.302C39.2339 48.9375 39.9895 49.6931 39.9895 50.625V52.3125C39.9895 53.2444 39.2339 54 38.302 54ZM16.3645 50.625V52.3125H38.302V50.625H16.3645Z" fill="#B3B3B2"/>
<path d="M40.2368 29.7784L42.7685 27.2472L43.9616 28.4403L41.4303 30.972L40.2368 29.7784Z" fill="#B3B3B2"/>
<path d="M33.4871 27.597L34.6802 26.4039L38.0552 29.7789L36.8621 30.972L33.4871 27.597Z" fill="#B3B3B2"/>
<path d="M26.7371 29.778L30.1121 26.403L31.3056 27.5961L27.9302 30.9715L26.7371 29.778Z" fill="#B3B3B2"/>
<path d="M23.4124 31.0181L23.3029 30.9242L18.3557 26.8051L19.4359 25.5074L24.5042 29.7319L23.4124 31.0181Z" fill="#B3B3B2"/>
<path d="M10.7056 30.6226L14.9243 26.4039L16.1174 27.597L11.8987 31.8157L10.7056 30.6226Z" fill="#B3B3B2"/>
<path d="M17.2083 28.6875C15.3444 28.6875 13.8333 27.1763 13.8333 25.3125C13.8333 23.4487 15.3444 21.9375 17.2083 21.9375C19.0721 21.9375 20.5833 23.4487 20.5833 25.3125C20.5833 27.1763 19.0721 28.6875 17.2083 28.6875ZM17.2083 23.625C16.2763 23.625 15.5208 24.3806 15.5208 25.3125C15.5208 26.2444 16.2763 27 17.2083 27C18.1402 27 18.8958 26.2444 18.8958 25.3125C18.8958 24.3806 18.1402 23.625 17.2083 23.625Z" fill="#B3B3B2"/>
<path d="M25.6458 35.4375C23.7819 35.4375 22.2708 33.9263 22.2708 32.0625C22.2708 30.1987 23.7819 28.6875 25.6458 28.6875C27.5096 28.6875 29.0208 30.1987 29.0208 32.0625C29.0208 33.9263 27.5096 35.4375 25.6458 35.4375ZM25.6458 30.375C24.8407 30.3742 24.1469 30.9419 23.9892 31.7313C23.8309 32.521 24.2528 33.3121 24.9965 33.621C25.7397 33.9296 26.5979 33.6705 27.0461 33.0014C27.4939 32.3324 27.4066 31.44 26.838 30.8702C26.5225 30.553 26.0932 30.375 25.6458 30.375Z" fill="#B3B3B2"/>
<path d="M32.3957 28.6875C30.7856 28.6887 29.3989 27.5521 29.0837 25.9729C28.7685 24.3942 29.6127 22.8122 31.1 22.195C32.5872 21.5783 34.3032 22.0978 35.1984 23.4359C36.0936 24.774 35.919 26.5588 34.7811 27.6979C34.1499 28.3332 33.2909 28.6896 32.3957 28.6875ZM32.3957 23.625C31.7138 23.6258 31.0995 24.037 30.8383 24.6669C30.5776 25.2969 30.7217 26.022 31.2034 26.5048C31.8695 27.1438 32.9218 27.1438 33.5879 26.5048C34.0696 26.022 34.2138 25.2969 33.953 24.6669C33.6918 24.037 33.0775 23.6258 32.3957 23.625Z" fill="#B3B3B2"/>
<path d="M39.1457 35.4375C37.7812 35.4367 36.5518 34.6144 36.0298 33.3537C35.5078 32.0934 35.7962 30.6424 36.7603 29.6771C38.0943 28.4004 40.1971 28.4004 41.5311 29.6771C42.4951 30.6424 42.7835 32.0934 42.2615 33.3537C41.7395 34.6144 40.5102 35.4367 39.1457 35.4375ZM39.1457 30.375C38.3406 30.3742 37.6469 30.9419 37.4891 31.7313C37.3309 32.5211 37.7527 33.3121 38.4964 33.6211C39.2396 33.9296 40.0978 33.6705 40.546 33.0014C40.9938 32.3324 40.9065 31.44 40.338 30.8702C40.0228 30.5526 39.5935 30.3742 39.1457 30.375Z" fill="#B3B3B2"/>
<path d="M23.1145 13.5H36.6145V15.1875H23.1145V13.5Z" fill="#B3B3B2"/>
<path d="M23.1145 16.875H36.6145V18.5625H23.1145V16.875Z" fill="#B3B3B2"/>
<path d="M50.1145 20.25H36.6145C36.1485 20.25 35.7708 19.8722 35.7708 19.4062V5.0625C35.7708 4.83879 35.8597 4.62415 36.0179 4.46594L40.2367 0.247192C40.3949 0.0889893 40.6095 0 40.8333 0H50.1145C50.5805 0 50.9583 0.377792 50.9583 0.84375V19.4062C50.9583 19.8722 50.5805 20.25 50.1145 20.25ZM37.4583 18.5625H49.2708V1.6875H41.1826L37.4583 5.41187V18.5625Z" fill="#B3B3B2"/>
<path d="M46.7395 19.4062H48.427V37.9688H46.7395V19.4062Z" fill="#B3B3B2"/>
<path d="M40.8333 5.90625H36.6145V4.21875H39.9895V0.84375H41.677V5.0625C41.677 5.52846 41.2992 5.90625 40.8333 5.90625Z" fill="#B3B3B2"/>
<path d="M43.3644 16.875C40.9568 16.8688 38.8886 15.1644 38.4226 12.8021C37.9567 10.4402 39.2231 8.07785 41.4483 7.15829C43.673 6.23874 46.2376 7.01739 47.5753 9.01924C48.9131 11.0211 48.6519 13.6887 46.9512 15.3927L46.9446 15.3993C45.9937 16.346 44.7063 16.8771 43.3644 16.875ZM43.3644 8.43751C41.4965 8.43463 39.9804 9.94786 39.9791 11.8158C39.9783 13.6838 41.4932 15.1986 43.3611 15.1978C45.2291 15.1966 46.7423 13.6805 46.7394 11.8125C46.7394 9.94868 45.2282 8.43751 43.3644 8.43751Z" fill="#B3B3B2"/>
<path d="M46.1429 15.7841L42.7679 12.4091C42.6097 12.2509 42.5208 12.0362 42.5208 11.8125V7.59375H44.2083V11.4631L47.3361 14.5909L46.1429 15.7841Z" fill="#B3B3B2"/>
<path d="M23.1145 20.25H4.552C4.08604 20.25 3.70825 19.8722 3.70825 19.4062V0.84375C3.70825 0.377792 4.08604 0 4.552 0H23.1145C23.5805 0 23.9583 0.377792 23.9583 0.84375V19.4062C23.9583 19.8722 23.5805 20.25 23.1145 20.25ZM5.39575 18.5625H22.2708V1.6875H5.39575V18.5625Z" fill="#B3B3B2"/>
<path d="M6.2395 19.4062H7.927V37.9688H6.2395V19.4062Z" fill="#B3B3B2"/>
<path d="M23.1145 5.0625H34.0833V6.75H23.1145V5.0625Z" fill="#B3B3B2"/>
<path d="M4.552 15.1875H23.1145V16.875H4.552V15.1875Z" fill="#B3B3B2"/>
<path d="M7.927 10.125H9.6145V16.0313H7.927V10.125Z" fill="#B3B3B2"/>
<path d="M11.302 5.90625H12.9895V16.0312H11.302V5.90625Z" fill="#B3B3B2"/>
<path d="M14.677 3.375H16.3645V16.0312H14.677V3.375Z" fill="#B3B3B2"/>
<path d="M18.052 8.4375H19.7395V16.0312H18.052V8.4375Z" fill="#B3B3B2"/>
</g>
<defs>
<clipPath id="clip0_44_887">
<rect width="54" height="54" fill="white" transform="translate(0.333252)"/>
</clipPath>
</defs>
</svg>
