<svg width="54" height="54" viewBox="0 0 54 54" fill="none" xmlns="http://www.w3.org/2000/svg">
<g clip-path="url(#clip0_44_917)">
<path d="M27.0003 29.2499C18.9232 29.2499 12.3751 22.7021 12.3751 14.6251C12.3751 6.54771 18.9232 0 27.0003 0C35.0773 0 41.6254 6.54771 41.6254 14.6251C41.6159 22.6984 35.0736 29.2408 27.0003 29.2499ZM27.0003 2.24986C20.1658 2.24986 14.6254 7.79068 14.6254 14.6251C14.6254 21.4596 20.1658 27 27.0003 27C33.8347 27 39.3751 21.4596 39.3751 14.6251C39.3673 7.79398 33.8314 2.2581 27.0003 2.24986Z" fill="#B3B3B2"/>
<path d="M27.0002 29.2499C23.1527 29.2499 20.2502 22.9625 20.2502 14.6251C20.2502 6.28775 23.1527 0 27.0002 0C30.8478 0 33.7502 6.28775 33.7502 14.6251C33.7502 22.9625 30.8478 29.2499 27.0002 29.2499ZM27.0002 2.24986C24.8764 2.24986 22.5001 7.53731 22.5001 14.6251C22.5001 21.7126 24.8764 27 27.0002 27C29.124 27 31.5004 21.7126 31.5004 14.6251C31.5004 7.53731 29.124 2.24986 27.0002 2.24986Z" fill="#B3B3B2"/>
<path d="M13.5002 13.5H40.5002V15.7499H13.5002V13.5Z" fill="#B3B3B2"/>
<path d="M14.6254 20.25H39.3751V22.4999H14.6254V20.25Z" fill="#B3B3B2"/>
<path d="M14.6254 6.75H39.3751V8.99986H14.6254V6.75Z" fill="#B3B3B2"/>
<path d="M18.0004 41.6251H20.2502V48.3751H18.0004V41.6251Z" fill="#B3B3B2"/>
<path d="M50.6252 42.7499H3.37524C1.51141 42.7499 0.000244141 41.2391 0.000244141 39.3749V10.125C0.000244141 8.26117 1.51141 6.75 3.37524 6.75H11.2504V8.99986H3.37524C2.75397 8.99986 2.25011 9.50372 2.25011 10.125V39.3749C2.25011 39.9961 2.75397 40.5 3.37524 40.5H50.6252C51.2465 40.5 51.7504 39.9961 51.7504 39.3749V10.125C51.7504 9.50372 51.2465 8.99986 50.6252 8.99986H42.7501V6.75H50.6252C52.4891 6.75 54.0002 8.26117 54.0002 10.125V39.3749C54.0002 41.2391 52.4891 42.7499 50.6252 42.7499Z" fill="#B3B3B2"/>
<path d="M39.3751 54H14.6254C14.0041 54 13.5002 53.4961 13.5002 52.8749C13.504 49.7701 16.0204 47.2537 19.1251 47.25H34.8754C37.9801 47.2537 40.4965 49.7701 40.5002 52.8749C40.5002 53.4961 39.9964 54 39.3751 54ZM15.9425 51.7501H38.058C37.5793 50.4025 36.305 49.5019 34.8754 49.4999H19.1251C17.6955 49.5019 16.4212 50.4025 15.9425 51.7501Z" fill="#B3B3B2"/>
<path d="M33.7502 41.6251H36.0001V48.3751H33.7502V41.6251Z" fill="#B3B3B2"/>
<path d="M27.0002 38.2501C25.1364 38.2501 23.6252 36.739 23.6252 34.8751C23.6252 33.0109 25.1364 31.5001 27.0002 31.5001C28.8641 31.5001 30.3752 33.0109 30.3752 34.8751C30.3752 36.739 28.8641 38.2501 27.0002 38.2501ZM27.0002 33.75C26.379 33.75 25.8751 34.2538 25.8751 34.8751C25.8751 35.4964 26.379 35.9998 27.0002 35.9998C27.6215 35.9998 28.1254 35.4964 28.1254 34.8751C28.1254 34.2538 27.6215 33.75 27.0002 33.75Z" fill="#B3B3B2"/>
<path d="M25.8751 28.1251H28.1254V32.6248H25.8751V28.1251Z" fill="#B3B3B2"/>
<path d="M43.8752 38.2501C42.0114 38.2501 40.5002 36.739 40.5002 34.8751C40.5002 33.0109 42.0114 31.5001 43.8752 31.5001C45.7391 31.5001 47.2502 33.0109 47.2502 34.8751C47.2502 36.739 45.7391 38.2501 43.8752 38.2501ZM43.8752 33.75C43.254 33.75 42.7501 34.2538 42.7501 34.8751C42.7501 35.4964 43.254 35.9998 43.8752 35.9998C44.4965 35.9998 45.0004 35.4964 45.0004 34.8751C45.0004 34.2538 44.4965 33.75 43.8752 33.75Z" fill="#B3B3B2"/>
<path d="M34.079 26.6704L35.6701 25.0793L43.5444 32.954L41.9537 34.5451L34.079 26.6704Z" fill="#B3B3B2"/>
<path d="M11.2504 38.2501C9.38612 38.2501 7.87537 36.739 7.87537 34.8751C7.87537 33.0109 9.38612 31.5001 11.2504 31.5001C13.1142 31.5001 14.6254 33.0109 14.6254 34.8751C14.6254 36.739 13.1142 38.2501 11.2504 38.2501ZM11.2504 33.75C10.6291 33.75 10.1252 34.2538 10.1252 34.8751C10.1252 35.4964 10.6291 35.9998 11.2504 35.9998C11.8716 35.9998 12.3751 35.4964 12.3751 34.8751C12.3751 34.2538 11.8716 33.75 11.2504 33.75Z" fill="#B3B3B2"/>
<path d="M11.58 32.9549L19.4547 25.0806L21.0454 26.6712L13.1711 34.546L11.58 32.9549Z" fill="#B3B3B2"/>
</g>
<defs>
<clipPath id="clip0_44_917">
<rect width="54" height="54" fill="white" transform="translate(0.000244141)"/>
</clipPath>
</defs>
</svg>
