<svg width="27" height="26" viewBox="0 0 27 26" fill="none" xmlns="http://www.w3.org/2000/svg">
<g clip-path="url(#clip0_223_3868)">
<path d="M13.2728 2.16666C19.256 2.16666 24.1061 7.01675 24.1061 13C24.1061 18.9832 19.256 23.8333 13.2728 23.8333C7.28954 23.8333 2.43945 18.9832 2.43945 13C2.43945 7.01675 7.28954 2.16666 13.2728 2.16666ZM13.2728 4.33333C10.9742 4.33333 8.76984 5.24642 7.14453 6.87174C5.51921 8.49705 4.60612 10.7015 4.60612 13C4.60612 15.2985 5.51921 17.5029 7.14453 19.1283C8.76984 20.7536 10.9742 21.6667 13.2728 21.6667C15.5713 21.6667 17.7757 20.7536 19.401 19.1283C21.0264 17.5029 21.9395 15.2985 21.9395 13C21.9395 10.7015 21.0264 8.49705 19.401 6.87174C17.7757 5.24642 15.5713 4.33333 13.2728 4.33333ZM13.2728 6.5C13.5381 6.50003 13.7942 6.59745 13.9925 6.77377C14.1908 6.95009 14.3175 7.19306 14.3485 7.45658L14.3561 7.58333V12.5515L17.2887 15.4841C17.483 15.679 17.5958 15.9406 17.6042 16.2157C17.6126 16.4909 17.516 16.7589 17.3339 16.9653C17.1519 17.1717 16.8981 17.3012 16.6241 17.3273C16.3501 17.3534 16.0764 17.2742 15.8587 17.1058L15.7569 17.0159L12.5069 13.7659C12.3385 13.5974 12.2304 13.3781 12.1992 13.1419L12.1895 13V7.58333C12.1895 7.29601 12.3036 7.02046 12.5068 6.8173C12.7099 6.61413 12.9855 6.5 13.2728 6.5Z" fill="#848382"/>
</g>
<defs>
<clipPath id="clip0_223_3868">
<rect width="26" height="26" fill="white" transform="translate(0.272705)"/>
</clipPath>
</defs>
</svg>
