<svg width="30" height="32" viewBox="0 0 30 32" fill="none" xmlns="http://www.w3.org/2000/svg">
<path d="M3.64636 24.5154H6.13101V27H3.64636C1.81911 27 0.333496 25.5144 0.333496 23.6871V3.80994C0.333496 1.98268 1.81911 0.49707 3.64636 0.49707H12.2132C13.0932 0.49707 13.937 0.843886 14.5581 1.46505L19.2427 6.14965C19.8639 6.77081 20.2107 7.61456 20.2107 8.49454V16.2332H17.7261V8.77924H13.585C12.6688 8.77924 11.9285 8.03902 11.9285 7.12281V2.98172H3.64636C3.19084 2.98172 2.81815 3.35442 2.81815 3.80994V23.6871C2.81815 24.1427 3.19084 24.5154 3.64636 24.5154ZM9.44388 18.7178H11.1003C12.6998 18.7178 13.9991 20.0171 13.9991 21.6166C13.9991 23.2161 12.6998 24.5154 11.1003 24.5154H10.2721V26.1718C10.2721 26.6273 9.8994 27 9.44388 27C8.98836 27 8.61567 26.6273 8.61567 26.1718V19.5461C8.61567 19.0905 8.98836 18.7178 9.44388 18.7178ZM11.1003 22.8589C11.7888 22.8589 12.3426 22.3051 12.3426 21.6166C12.3426 20.9281 11.7888 20.3743 11.1003 20.3743H10.2721V22.8589H11.1003ZM16.0696 18.7178H17.7261C19.0978 18.7178 20.2107 19.8308 20.2107 21.2025V24.5154C20.2107 25.8871 19.0978 27 17.7261 27H16.0696C15.6141 27 15.2414 26.6273 15.2414 26.1718V19.5461C15.2414 19.0905 15.6141 18.7178 16.0696 18.7178ZM17.7261 25.3436C18.1816 25.3436 18.5543 24.9709 18.5543 24.5154V21.2025C18.5543 20.747 18.1816 20.3743 17.7261 20.3743H16.8978V25.3436H17.7261ZM21.8671 19.5461C21.8671 19.0905 22.2398 18.7178 22.6954 18.7178H25.18C25.6355 18.7178 26.0082 19.0905 26.0082 19.5461C26.0082 20.0016 25.6355 20.3743 25.18 20.3743H23.5236V22.0307H25.18C25.6355 22.0307 26.0082 22.4034 26.0082 22.8589C26.0082 23.3144 25.6355 23.6871 25.18 23.6871H23.5236V26.1718C23.5236 26.6273 23.1509 27 22.6954 27C22.2398 27 21.8671 26.6273 21.8671 26.1718V19.5461Z" fill="#848382"/>
<rect x="7.401" y="18.6074" width="22.0858" height="13.2515" fill="white"/>
<mask id="path-3-outside-1_2012_5064" maskUnits="userSpaceOnUse" x="7.401" y="19.0737" width="20" height="9" fill="black">
<rect fill="white" x="7.401" y="19.0737" width="20" height="9"/>
<path d="M13.3377 21.1901C13.4437 21.3173 13.5179 21.4198 13.5603 21.4975C13.6027 21.5753 13.6239 21.6495 13.6239 21.7201C13.6239 21.8049 13.5674 21.9039 13.4543 22.017C13.3483 22.13 13.2423 22.1866 13.1362 22.1866C12.9949 22.1866 12.8818 22.1654 12.797 22.123C12.7122 22.0806 12.6415 22.0134 12.585 21.9216C12.4719 21.7519 12.3341 21.6071 12.1715 21.4869C12.009 21.3597 11.7546 21.2961 11.4082 21.2961C11.1114 21.2961 10.7722 21.3632 10.3905 21.4975C10.016 21.6318 9.7474 21.7979 9.58484 21.9958C9.44349 22.1725 9.31981 22.441 9.2138 22.8015C9.11486 23.1619 9.06539 23.5117 9.06539 23.851C9.06539 24.2609 9.15373 24.639 9.33042 24.9853C9.51417 25.3245 9.77566 25.5966 10.1149 25.8016C10.4612 26.0065 10.8747 26.109 11.3552 26.109C11.6167 26.109 11.8853 26.0596 12.1609 25.9606C12.4436 25.8546 12.6875 25.685 12.8924 25.4518H12.8818C13.009 25.3175 13.168 25.2503 13.3589 25.2503C13.4719 25.2503 13.578 25.2998 13.6769 25.3987C13.7829 25.4977 13.8359 25.5966 13.8359 25.6956C13.8359 25.8016 13.8182 25.897 13.7829 25.9818C13.7546 26.0596 13.6981 26.1479 13.6133 26.2468C13.3235 26.5719 12.9808 26.7946 12.585 26.9147C12.1892 27.0349 11.7157 27.0949 11.1644 27.0949C10.6768 27.0949 10.182 26.9783 9.68025 26.7451C9.18553 26.5119 8.80389 26.2292 8.53533 25.897C8.39398 25.692 8.25616 25.3987 8.12188 25.0171C7.99467 24.6284 7.93106 24.3139 7.93106 24.0736C7.93106 23.4587 8.02294 22.8757 8.20669 22.3244C8.39751 21.7661 8.68021 21.3208 9.05478 20.9887C9.30215 20.7625 9.65905 20.5929 10.1255 20.4798C10.592 20.3667 11.0195 20.3102 11.4082 20.3102C11.8818 20.3102 12.2528 20.3773 12.5214 20.5116C12.797 20.6388 13.0691 20.865 13.3377 21.1901ZM19.9483 25.2503C19.9483 25.5825 19.8776 25.8511 19.7363 26.056C19.595 26.261 19.3511 26.4624 19.0048 26.6603C18.7716 26.8016 18.503 26.9112 18.1991 26.9889C17.8952 27.0596 17.5878 27.0949 17.2768 27.0949C17.086 27.0949 16.8634 27.0596 16.609 26.9889C16.3616 26.9112 16.1602 26.837 16.0047 26.7663L15.8245 26.6073C15.5064 26.3458 15.2838 26.1373 15.1566 25.9818C15.0364 25.8193 14.9764 25.6214 14.9764 25.3881C14.9764 25.2044 15.0188 25.0666 15.1036 24.9747C15.1884 24.8828 15.3262 24.8369 15.517 24.8369C15.616 24.8369 15.7079 24.8687 15.7927 24.9323C15.8775 24.9959 15.9517 25.0842 16.0153 25.1973C16.192 25.5083 16.4005 25.738 16.6408 25.8864C16.8881 26.0277 17.1779 26.0984 17.5101 26.0984C17.821 26.0984 18.1355 26.003 18.4536 25.8122C18.7151 25.6496 18.8458 25.4906 18.8458 25.3351C18.8458 25.0595 18.7221 24.8298 18.4748 24.6461C18.2345 24.4623 17.8882 24.2962 17.4358 24.1478C17.1602 24.0489 16.7468 23.8651 16.1955 23.5965C15.8209 23.4128 15.5418 23.1866 15.358 22.9181C15.1743 22.6495 15.0824 22.3668 15.0824 22.07C15.0824 21.8014 15.1743 21.5399 15.358 21.2855C15.5488 21.024 15.7785 20.8296 16.0471 20.7024C16.1884 20.6317 16.4146 20.5575 16.7256 20.4798C17.0365 20.395 17.2698 20.3526 17.4252 20.3526C17.715 20.3526 17.9659 20.3879 18.1779 20.4586C18.3899 20.5222 18.5984 20.6141 18.8034 20.7342C19.1144 20.9109 19.3441 21.0699 19.4925 21.2113C19.6409 21.3526 19.7151 21.5293 19.7151 21.7413C19.7151 21.8686 19.6656 21.9816 19.5667 22.0806C19.4748 22.1795 19.3123 22.229 19.079 22.229C19.0225 22.229 18.9659 22.2043 18.9094 22.1548C18.8529 22.1053 18.7822 22.0311 18.6974 21.9322C18.5843 21.7837 18.4748 21.6848 18.3687 21.6353C18.3405 21.6283 18.2239 21.5823 18.0189 21.4975C17.821 21.4127 17.5737 21.3703 17.2768 21.3703C16.9941 21.3703 16.7432 21.4374 16.5241 21.5717C16.3051 21.6989 16.1955 21.8862 16.1955 22.1336C16.1955 22.3809 16.4181 22.5824 16.8634 22.7378C17.3369 22.9216 17.7291 23.0806 18.0401 23.2149C18.3581 23.3492 18.6656 23.5082 18.9624 23.692C19.3017 23.8969 19.549 24.1125 19.7045 24.3386C19.867 24.5648 19.9483 24.8687 19.9483 25.2503ZM21.9469 20.66C22.2084 21.4374 22.5052 22.2926 22.8374 23.2255C23.1696 24.1513 23.4735 24.9535 23.7491 25.632C23.954 24.9747 24.2367 24.1867 24.5972 23.2679C24.9576 22.3421 25.2933 21.5081 25.6043 20.766C25.6962 20.5469 25.8517 20.4374 26.0708 20.4374C26.2757 20.4374 26.4312 20.4798 26.5372 20.5646C26.6432 20.6423 26.6962 20.7802 26.6962 20.9781C26.6962 21.0558 26.6856 21.1229 26.6644 21.1795C26.6432 21.236 26.6114 21.3102 26.569 21.4021C26.3499 21.8332 26.1308 22.3315 25.9117 22.8969C25.6926 23.4552 25.4241 24.1655 25.106 25.0277C25.1202 24.9924 25.0212 25.2574 24.8092 25.8228L24.4594 26.7345C24.417 26.8476 24.3463 26.9359 24.2473 26.9995C24.1555 27.0561 24.0495 27.0843 23.9293 27.0843C23.8092 27.0843 23.6749 27.0561 23.5265 26.9995C23.3851 26.9359 23.2826 26.8723 23.219 26.8087C22.9787 26.3493 22.6713 25.685 22.2967 24.8157C21.9292 23.9464 21.6112 23.1442 21.3426 22.4092L21.1836 21.9746C21.0776 21.6777 20.9999 21.4516 20.9504 21.2961C20.9009 21.1335 20.8762 21.0028 20.8762 20.9038C20.8762 20.7625 20.9539 20.6494 21.1094 20.5646C21.272 20.4798 21.4274 20.4374 21.5759 20.4374C21.6536 20.4374 21.7278 20.4551 21.7985 20.4904C21.8692 20.5257 21.9186 20.5823 21.9469 20.66Z"/>
</mask>
<path d="M13.3377 21.1901C13.4437 21.3173 13.5179 21.4198 13.5603 21.4975C13.6027 21.5753 13.6239 21.6495 13.6239 21.7201C13.6239 21.8049 13.5674 21.9039 13.4543 22.017C13.3483 22.13 13.2423 22.1866 13.1362 22.1866C12.9949 22.1866 12.8818 22.1654 12.797 22.123C12.7122 22.0806 12.6415 22.0134 12.585 21.9216C12.4719 21.7519 12.3341 21.6071 12.1715 21.4869C12.009 21.3597 11.7546 21.2961 11.4082 21.2961C11.1114 21.2961 10.7722 21.3632 10.3905 21.4975C10.016 21.6318 9.7474 21.7979 9.58484 21.9958C9.44349 22.1725 9.31981 22.441 9.2138 22.8015C9.11486 23.1619 9.06539 23.5117 9.06539 23.851C9.06539 24.2609 9.15373 24.639 9.33042 24.9853C9.51417 25.3245 9.77566 25.5966 10.1149 25.8016C10.4612 26.0065 10.8747 26.109 11.3552 26.109C11.6167 26.109 11.8853 26.0596 12.1609 25.9606C12.4436 25.8546 12.6875 25.685 12.8924 25.4518H12.8818C13.009 25.3175 13.168 25.2503 13.3589 25.2503C13.4719 25.2503 13.578 25.2998 13.6769 25.3987C13.7829 25.4977 13.8359 25.5966 13.8359 25.6956C13.8359 25.8016 13.8182 25.897 13.7829 25.9818C13.7546 26.0596 13.6981 26.1479 13.6133 26.2468C13.3235 26.5719 12.9808 26.7946 12.585 26.9147C12.1892 27.0349 11.7157 27.0949 11.1644 27.0949C10.6768 27.0949 10.182 26.9783 9.68025 26.7451C9.18553 26.5119 8.80389 26.2292 8.53533 25.897C8.39398 25.692 8.25616 25.3987 8.12188 25.0171C7.99467 24.6284 7.93106 24.3139 7.93106 24.0736C7.93106 23.4587 8.02294 22.8757 8.20669 22.3244C8.39751 21.7661 8.68021 21.3208 9.05478 20.9887C9.30215 20.7625 9.65905 20.5929 10.1255 20.4798C10.592 20.3667 11.0195 20.3102 11.4082 20.3102C11.8818 20.3102 12.2528 20.3773 12.5214 20.5116C12.797 20.6388 13.0691 20.865 13.3377 21.1901ZM19.9483 25.2503C19.9483 25.5825 19.8776 25.8511 19.7363 26.056C19.595 26.261 19.3511 26.4624 19.0048 26.6603C18.7716 26.8016 18.503 26.9112 18.1991 26.9889C17.8952 27.0596 17.5878 27.0949 17.2768 27.0949C17.086 27.0949 16.8634 27.0596 16.609 26.9889C16.3616 26.9112 16.1602 26.837 16.0047 26.7663L15.8245 26.6073C15.5064 26.3458 15.2838 26.1373 15.1566 25.9818C15.0364 25.8193 14.9764 25.6214 14.9764 25.3881C14.9764 25.2044 15.0188 25.0666 15.1036 24.9747C15.1884 24.8828 15.3262 24.8369 15.517 24.8369C15.616 24.8369 15.7079 24.8687 15.7927 24.9323C15.8775 24.9959 15.9517 25.0842 16.0153 25.1973C16.192 25.5083 16.4005 25.738 16.6408 25.8864C16.8881 26.0277 17.1779 26.0984 17.5101 26.0984C17.821 26.0984 18.1355 26.003 18.4536 25.8122C18.7151 25.6496 18.8458 25.4906 18.8458 25.3351C18.8458 25.0595 18.7221 24.8298 18.4748 24.6461C18.2345 24.4623 17.8882 24.2962 17.4358 24.1478C17.1602 24.0489 16.7468 23.8651 16.1955 23.5965C15.8209 23.4128 15.5418 23.1866 15.358 22.9181C15.1743 22.6495 15.0824 22.3668 15.0824 22.07C15.0824 21.8014 15.1743 21.5399 15.358 21.2855C15.5488 21.024 15.7785 20.8296 16.0471 20.7024C16.1884 20.6317 16.4146 20.5575 16.7256 20.4798C17.0365 20.395 17.2698 20.3526 17.4252 20.3526C17.715 20.3526 17.9659 20.3879 18.1779 20.4586C18.3899 20.5222 18.5984 20.6141 18.8034 20.7342C19.1144 20.9109 19.3441 21.0699 19.4925 21.2113C19.6409 21.3526 19.7151 21.5293 19.7151 21.7413C19.7151 21.8686 19.6656 21.9816 19.5667 22.0806C19.4748 22.1795 19.3123 22.229 19.079 22.229C19.0225 22.229 18.9659 22.2043 18.9094 22.1548C18.8529 22.1053 18.7822 22.0311 18.6974 21.9322C18.5843 21.7837 18.4748 21.6848 18.3687 21.6353C18.3405 21.6283 18.2239 21.5823 18.0189 21.4975C17.821 21.4127 17.5737 21.3703 17.2768 21.3703C16.9941 21.3703 16.7432 21.4374 16.5241 21.5717C16.3051 21.6989 16.1955 21.8862 16.1955 22.1336C16.1955 22.3809 16.4181 22.5824 16.8634 22.7378C17.3369 22.9216 17.7291 23.0806 18.0401 23.2149C18.3581 23.3492 18.6656 23.5082 18.9624 23.692C19.3017 23.8969 19.549 24.1125 19.7045 24.3386C19.867 24.5648 19.9483 24.8687 19.9483 25.2503ZM21.9469 20.66C22.2084 21.4374 22.5052 22.2926 22.8374 23.2255C23.1696 24.1513 23.4735 24.9535 23.7491 25.632C23.954 24.9747 24.2367 24.1867 24.5972 23.2679C24.9576 22.3421 25.2933 21.5081 25.6043 20.766C25.6962 20.5469 25.8517 20.4374 26.0708 20.4374C26.2757 20.4374 26.4312 20.4798 26.5372 20.5646C26.6432 20.6423 26.6962 20.7802 26.6962 20.9781C26.6962 21.0558 26.6856 21.1229 26.6644 21.1795C26.6432 21.236 26.6114 21.3102 26.569 21.4021C26.3499 21.8332 26.1308 22.3315 25.9117 22.8969C25.6926 23.4552 25.4241 24.1655 25.106 25.0277C25.1202 24.9924 25.0212 25.2574 24.8092 25.8228L24.4594 26.7345C24.417 26.8476 24.3463 26.9359 24.2473 26.9995C24.1555 27.0561 24.0495 27.0843 23.9293 27.0843C23.8092 27.0843 23.6749 27.0561 23.5265 26.9995C23.3851 26.9359 23.2826 26.8723 23.219 26.8087C22.9787 26.3493 22.6713 25.685 22.2967 24.8157C21.9292 23.9464 21.6112 23.1442 21.3426 22.4092L21.1836 21.9746C21.0776 21.6777 20.9999 21.4516 20.9504 21.2961C20.9009 21.1335 20.8762 21.0028 20.8762 20.9038C20.8762 20.7625 20.9539 20.6494 21.1094 20.5646C21.272 20.4798 21.4274 20.4374 21.5759 20.4374C21.6536 20.4374 21.7278 20.4551 21.7985 20.4904C21.8692 20.5257 21.9186 20.5823 21.9469 20.66Z" fill="#848382"/>
<path d="M13.3377 21.1901L13.1333 21.3589L13.1341 21.3597L13.3377 21.1901ZM13.4543 22.017L13.2668 21.8295L13.2609 21.8357L13.4543 22.017ZM12.797 22.123L12.6785 22.36H12.6785L12.797 22.123ZM12.585 21.9216L12.8108 21.7826L12.8055 21.7745L12.585 21.9216ZM12.1715 21.4869L12.0081 21.6957L12.014 21.7L12.1715 21.4869ZM10.3905 21.4975L10.3026 21.2475L10.3011 21.248L10.3905 21.4975ZM9.58484 21.9958L9.38003 21.8275L9.37789 21.8302L9.58484 21.9958ZM9.2138 22.8015L8.9595 22.7267L8.95823 22.7313L9.2138 22.8015ZM9.33042 24.9853L9.09427 25.1058L9.09738 25.1115L9.33042 24.9853ZM10.1149 25.8016L9.97785 26.0284L9.97992 26.0297L10.1149 25.8016ZM12.1609 25.9606L12.2505 26.2101L12.254 26.2088L12.1609 25.9606ZM12.8924 25.4517L13.0915 25.6267L13.4781 25.1867H12.8924V25.4517ZM12.8818 25.4517L12.6894 25.2695L12.2657 25.7168H12.8818V25.4517ZM13.6769 25.3987L13.4894 25.5863L13.4961 25.5925L13.6769 25.3987ZM13.7829 25.9818L13.538 25.8798L13.5338 25.8912L13.7829 25.9818ZM13.6133 26.2468L13.8112 26.4232L13.8145 26.4193L13.6133 26.2468ZM12.585 26.9147L12.662 27.1683L12.585 26.9147ZM9.68025 26.7451L9.56724 26.9848L9.56855 26.9854L9.68025 26.7451ZM8.53533 25.897L8.31715 26.0475L8.32288 26.0558L8.32923 26.0636L8.53533 25.897ZM8.12188 25.0171L7.86994 25.0996L7.87188 25.1051L8.12188 25.0171ZM8.20669 22.3244L7.9559 22.2387L7.95526 22.2406L8.20669 22.3244ZM9.05478 20.9887L9.23065 21.187L9.23362 21.1843L9.05478 20.9887ZM10.1255 20.4798L10.0631 20.2222H10.0631L10.1255 20.4798ZM12.5214 20.5116L12.4028 20.7488L12.4103 20.7522L12.5214 20.5116ZM13.1341 21.3597C13.2368 21.483 13.2978 21.5697 13.3276 21.6244L13.793 21.3706C13.738 21.2698 13.6506 21.1516 13.5413 21.0204L13.1341 21.3597ZM13.3276 21.6244C13.3541 21.6729 13.3589 21.7037 13.3589 21.7201H13.8889C13.8889 21.5953 13.8513 21.4776 13.793 21.3706L13.3276 21.6244ZM13.3589 21.7201C13.3589 21.7032 13.3643 21.7038 13.3514 21.7265C13.3384 21.7491 13.3129 21.7835 13.2669 21.8296L13.6417 22.2044C13.7651 22.0809 13.8889 21.9161 13.8889 21.7201H13.3589ZM13.2609 21.8357C13.1817 21.9202 13.1407 21.9216 13.1362 21.9216V22.4516C13.3438 22.4516 13.5149 22.3399 13.6476 22.1982L13.2609 21.8357ZM13.1362 21.9216C13.0175 21.9216 12.9499 21.9031 12.9155 21.8859L12.6785 22.36C12.8137 22.4276 12.9723 22.4516 13.1362 22.4516V21.9216ZM12.9155 21.8859C12.8807 21.8685 12.845 21.8384 12.8107 21.7827L12.3593 22.0605C12.438 22.1885 12.5436 22.2926 12.6785 22.36L12.9155 21.8859ZM12.8055 21.7745C12.6756 21.5796 12.5165 21.4123 12.3291 21.2738L12.014 21.7C12.1517 21.8018 12.2682 21.9242 12.3645 22.0686L12.8055 21.7745ZM12.3349 21.2782C12.1033 21.097 11.7772 21.0311 11.4082 21.0311V21.5611C11.7319 21.5611 11.9146 21.6224 12.0082 21.6956L12.3349 21.2782ZM11.4082 21.0311C11.0728 21.0311 10.7029 21.1066 10.3026 21.2475L10.4785 21.7475C10.8414 21.6198 11.1501 21.5611 11.4082 21.5611V21.0311ZM10.3011 21.248C9.9043 21.3903 9.58541 21.5775 9.38005 21.8275L9.78964 22.164C9.90938 22.0182 10.1276 21.8733 10.48 21.747L10.3011 21.248ZM9.37789 21.8302C9.2054 22.0458 9.0697 22.3521 8.95954 22.7267L9.46806 22.8762C9.56993 22.5299 9.68158 22.2991 9.7918 22.1613L9.37789 21.8302ZM8.95823 22.7313C8.85364 23.1123 8.80036 23.4858 8.80036 23.851H9.33042C9.33042 23.5377 9.37608 23.2115 9.46938 22.8716L8.95823 22.7313ZM8.80036 23.851C8.80036 24.3004 8.89758 24.7201 9.09434 25.1057L9.56649 24.8649C9.40987 24.5579 9.33042 24.2214 9.33042 23.851H8.80036ZM9.09738 25.1115C9.30424 25.4934 9.59939 25.7998 9.97785 26.0284L10.252 25.5747C9.95194 25.3935 9.7241 25.1557 9.56345 24.8591L9.09738 25.1115ZM9.97992 26.0297C10.3744 26.2631 10.8364 26.3741 11.3552 26.3741V25.844C10.9129 25.844 10.548 25.75 10.2499 25.5735L9.97992 26.0297ZM11.3552 26.3741C11.6507 26.3741 11.9495 26.3181 12.2505 26.2101L12.0714 25.7112C11.8211 25.801 11.5828 25.844 11.3552 25.844V26.3741ZM12.254 26.2088C12.5787 26.087 12.8586 25.8917 13.0915 25.6267L12.6933 25.2768C12.5163 25.4782 12.3086 25.6222 12.0679 25.7125L12.254 26.2088ZM12.8924 25.1867H12.8818V25.7168H12.8924V25.1867ZM13.0742 25.634C13.1496 25.5544 13.2382 25.5154 13.3589 25.5154V24.9853C13.0979 24.9853 12.8684 25.0805 12.6894 25.2695L13.0742 25.634ZM13.3589 25.5154C13.3857 25.5154 13.4277 25.5244 13.4895 25.5861L13.8643 25.2113C13.7282 25.0752 13.5581 24.9853 13.3589 24.9853V25.5154ZM13.4961 25.5925C13.5337 25.6276 13.5531 25.6547 13.5625 25.6723C13.5712 25.6885 13.5709 25.6954 13.5709 25.6956H14.1009C14.1009 25.4946 13.9922 25.3305 13.8577 25.205L13.4961 25.5925ZM13.5709 25.6956C13.5709 25.7719 13.5582 25.8319 13.5383 25.8799L14.0276 26.0837C14.0783 25.9621 14.1009 25.8312 14.1009 25.6956H13.5709ZM13.5338 25.8912C13.5209 25.9268 13.4867 25.9873 13.4121 26.0744L13.8145 26.4193C13.9095 26.3085 13.9884 26.1923 14.032 26.0724L13.5338 25.8912ZM13.4154 26.0705C13.1563 26.3612 12.8546 26.5559 12.508 26.6611L12.662 27.1683C13.1069 27.0333 13.4907 26.7826 13.8111 26.4232L13.4154 26.0705ZM12.508 26.6611C12.1439 26.7716 11.6977 26.8299 11.1644 26.8299V27.36C11.7337 27.36 12.2345 27.2981 12.662 27.1683L12.508 26.6611ZM11.1644 26.8299C10.7202 26.8299 10.2635 26.7239 9.79196 26.5048L9.56855 26.9854C10.1006 27.2327 10.6333 27.36 11.1644 27.36V26.8299ZM9.79327 26.5054C9.32489 26.2846 8.97884 26.024 8.74142 25.7304L8.32923 26.0636C8.62894 26.4343 9.04618 26.7392 9.56724 26.9848L9.79327 26.5054ZM8.7535 25.7465C8.63115 25.5691 8.50258 25.3006 8.37189 24.9291L7.87188 25.1051C8.00974 25.4969 8.15681 25.815 8.31715 26.0475L8.7535 25.7465ZM8.37376 24.9347C8.25005 24.5567 8.19609 24.273 8.19609 24.0736H7.66603C7.66603 24.3548 7.73928 24.7001 7.87 25.0995L8.37376 24.9347ZM8.19609 24.0736C8.19609 23.4855 8.28389 22.9309 8.45812 22.4082L7.95526 22.2406C7.76199 22.8204 7.66603 23.4319 7.66603 24.0736H8.19609ZM8.45748 22.4101C8.63613 21.8874 8.89602 21.4837 9.23063 21.1869L8.87894 20.7904C8.4644 21.158 8.15889 21.6448 7.9559 22.2387L8.45748 22.4101ZM9.23362 21.1843C9.43684 20.9985 9.7473 20.8442 10.1879 20.7374L10.0631 20.2222C9.57081 20.3416 9.16745 20.5265 8.87595 20.7931L9.23362 21.1843ZM10.1879 20.7374C10.6385 20.6281 11.0448 20.5752 11.4082 20.5752V20.0451C10.9943 20.0451 10.5454 20.1053 10.0631 20.2222L10.1879 20.7374ZM11.4082 20.5752C11.8619 20.5752 12.1863 20.6404 12.4028 20.7487L12.6399 20.2746C12.3193 20.1143 11.9016 20.0451 11.4082 20.0451V20.5752ZM12.4103 20.7522C12.6386 20.8576 12.8808 21.0532 13.1333 21.3589L13.542 21.0213C13.2574 20.6767 12.9554 20.42 12.6324 20.271L12.4103 20.7522ZM19.7363 26.056L19.9545 26.2065V26.2065L19.7363 26.056ZM19.0048 26.6603L18.8733 26.4301L18.8675 26.4336L19.0048 26.6603ZM18.1991 26.9889L18.2592 27.2471L18.2648 27.2457L18.1991 26.9889ZM16.609 26.9889L16.5294 27.2419L16.538 27.2443L16.609 26.9889ZM16.0047 26.7663L15.8293 26.965L15.859 26.9912L15.895 27.0076L16.0047 26.7663ZM15.8245 26.6073L15.9999 26.4084L15.9928 26.4026L15.8245 26.6073ZM15.1566 25.9818L14.9432 26.1395L14.9515 26.1496L15.1566 25.9818ZM15.1036 24.9747L14.9088 24.7949L15.1036 24.9747ZM15.7927 24.9323L15.9517 24.7203L15.7927 24.9323ZM16.0153 25.1973L15.7843 25.3273L15.7849 25.3282L16.0153 25.1973ZM16.6408 25.8864L16.5014 26.112L16.5093 26.1165L16.6408 25.8864ZM18.4536 25.8122L18.5899 26.0395L18.5935 26.0373L18.4536 25.8122ZM18.4748 24.6461L18.3138 24.8566L18.3167 24.8588L18.4748 24.6461ZM17.4358 24.1478L17.3463 24.3973L17.3532 24.3996L17.4358 24.1478ZM16.1955 23.5965L16.0788 23.8345L16.0794 23.8348L16.1955 23.5965ZM15.358 22.9181L15.5767 22.7684V22.7684L15.358 22.9181ZM15.358 21.2855L15.1439 21.1293L15.1432 21.1303L15.358 21.2855ZM16.0471 20.7024L16.1606 20.942L16.1656 20.9395L16.0471 20.7024ZM16.7256 20.4798L16.7899 20.737L16.7953 20.7355L16.7256 20.4798ZM18.1779 20.4586L18.0941 20.7101L18.1018 20.7124L18.1779 20.4586ZM18.8034 20.7342L18.6694 20.9629L18.6725 20.9647L18.8034 20.7342ZM19.5667 22.0806L19.3791 21.893L19.3725 21.9002L19.5667 22.0806ZM18.9094 22.1548L18.7349 22.3542L18.9094 22.1548ZM18.6974 21.9322L18.4866 22.0928L18.4912 22.0988L18.4962 22.1046L18.6974 21.9322ZM18.3687 21.6353L18.4808 21.3952L18.4577 21.3844L18.433 21.3782L18.3687 21.6353ZM18.0189 21.4975L17.9145 21.7411L17.9176 21.7424L18.0189 21.4975ZM16.5241 21.5717L16.6573 21.801L16.6626 21.7977L16.5241 21.5717ZM16.8634 22.7378L16.9593 22.4906L16.9508 22.4876L16.8634 22.7378ZM18.0401 23.2149L17.935 23.4582L17.937 23.4591L18.0401 23.2149ZM18.9624 23.692L18.8229 23.9173L18.8254 23.9188L18.9624 23.692ZM19.7045 24.3386L19.4861 24.4888L19.4893 24.4933L19.7045 24.3386ZM19.6833 25.2503C19.6833 25.5464 19.6203 25.7574 19.5181 25.9056L19.9545 26.2065C20.135 25.9447 20.2134 25.6186 20.2134 25.2503H19.6833ZM19.5181 25.9056C19.4089 26.0639 19.2036 26.2414 18.8733 26.4302L19.1363 26.8904C19.4986 26.6833 19.781 26.458 19.9545 26.2065L19.5181 25.9056ZM18.8675 26.4336C18.6596 26.5596 18.4158 26.6599 18.1334 26.7322L18.2648 27.2457C18.5902 27.1624 18.8836 27.0436 19.1422 26.8869L18.8675 26.4336ZM18.1391 26.7308C17.8548 26.7969 17.5675 26.8299 17.2768 26.8299V27.36C17.6081 27.36 17.9356 27.3223 18.2592 27.2471L18.1391 26.7308ZM17.2768 26.8299C17.1172 26.8299 16.9194 26.8001 16.6799 26.7336L16.538 27.2443C16.8074 27.3191 17.0548 27.36 17.2768 27.36V26.8299ZM16.6884 26.7361C16.4467 26.6601 16.2564 26.5896 16.1144 26.525L15.895 27.0076C16.064 27.0844 16.2765 27.1623 16.5295 27.2418L16.6884 26.7361ZM16.18 26.5676L15.9998 26.4085L15.6491 26.806L15.8293 26.965L16.18 26.5676ZM15.9928 26.4026C15.6773 26.1431 15.4716 25.9483 15.3617 25.814L14.9515 26.1496C15.096 26.3263 15.3356 26.5484 15.6561 26.812L15.9928 26.4026ZM15.3697 25.8243C15.2883 25.7141 15.2414 25.5737 15.2414 25.3881H14.7113C14.7113 25.669 14.7846 25.9244 14.9435 26.1393L15.3697 25.8243ZM15.2414 25.3881C15.2414 25.2402 15.276 25.1787 15.2983 25.1545L14.9088 24.7949C14.7616 24.9545 14.7113 25.1686 14.7113 25.3881H15.2414ZM15.2983 25.1545C15.3117 25.14 15.3615 25.1019 15.517 25.1019V24.5719C15.2909 24.5719 15.0651 24.6256 14.9088 24.7949L15.2983 25.1545ZM15.517 25.1019C15.5544 25.1019 15.5912 25.1125 15.6336 25.1443L15.9517 24.7203C15.8245 24.6249 15.6775 24.5719 15.517 24.5719V25.1019ZM15.6336 25.1443C15.6832 25.1815 15.7348 25.2392 15.7843 25.3273L16.2463 25.0674C16.1686 24.9292 16.0717 24.8103 15.9517 24.7203L15.6336 25.1443ZM15.7849 25.3282C15.9778 25.6678 16.2146 25.9347 16.5015 26.1119L16.78 25.6609C16.5863 25.5413 16.4062 25.3488 16.2457 25.0664L15.7849 25.3282ZM16.5093 26.1165C16.8029 26.2843 17.1395 26.3635 17.5101 26.3635V25.8334C17.2163 25.8334 16.9734 25.7712 16.7722 25.6563L16.5093 26.1165ZM17.5101 26.3635C17.8776 26.3635 18.2387 26.2502 18.5899 26.0395L18.3172 25.5849C18.0324 25.7558 17.7645 25.8334 17.5101 25.8334V26.3635ZM18.5935 26.0373C18.7378 25.9475 18.862 25.8493 18.9525 25.7393C19.0441 25.6279 19.1108 25.4917 19.1108 25.3351H18.5808C18.5808 25.3359 18.5808 25.3405 18.5766 25.3507C18.572 25.3615 18.5625 25.379 18.543 25.4027C18.5027 25.4517 18.4308 25.5143 18.3136 25.5871L18.5935 26.0373ZM19.1108 25.3351C19.1108 24.9649 18.9383 24.6603 18.6328 24.4333L18.3167 24.8588C18.5059 24.9994 18.5808 25.1541 18.5808 25.3351H19.1108ZM18.6358 24.4355C18.3623 24.2264 17.9848 24.049 17.5185 23.896L17.3532 24.3996C17.7916 24.5435 18.1066 24.6982 18.3138 24.8566L18.6358 24.4355ZM17.5254 23.8984C17.2641 23.8046 16.8614 23.6261 16.3116 23.3583L16.0794 23.8348C16.6321 24.1041 17.0564 24.2932 17.3463 24.3972L17.5254 23.8984ZM16.3122 23.3586C15.9674 23.1894 15.7284 22.99 15.5767 22.7684L15.1393 23.0677C15.3551 23.3832 15.6745 23.6362 16.0788 23.8345L16.3122 23.3586ZM15.5767 22.7684C15.4201 22.5395 15.3474 22.3083 15.3474 22.07H14.8174C14.8174 22.4254 14.9284 22.7595 15.1393 23.0677L15.5767 22.7684ZM15.3474 22.07C15.3474 21.8661 15.4161 21.6578 15.5729 21.4407L15.1432 21.1303C14.9325 21.422 14.8174 21.7367 14.8174 22.07H15.3474ZM15.5721 21.4417C15.7392 21.2127 15.9355 21.0486 16.1605 20.9419L15.9336 20.4629C15.6216 20.6107 15.3584 20.8353 15.1439 21.1293L15.5721 21.4417ZM16.1656 20.9395C16.2798 20.8824 16.4826 20.8137 16.7898 20.7369L16.6613 20.2227C16.3466 20.3014 16.097 20.3811 15.9286 20.4654L16.1656 20.9395ZM16.7953 20.7355C17.1024 20.6517 17.3071 20.6176 17.4252 20.6176V20.0876C17.2325 20.0876 16.9707 20.1382 16.6558 20.2241L16.7953 20.7355ZM17.4252 20.6176C17.6945 20.6176 17.9158 20.6506 18.0941 20.71L18.2617 20.2072C18.016 20.1253 17.7355 20.0876 17.4252 20.0876V20.6176ZM18.1018 20.7124C18.2921 20.7696 18.4813 20.8526 18.6694 20.9629L18.9374 20.5056C18.7156 20.3755 18.4878 20.2748 18.2541 20.2047L18.1018 20.7124ZM18.6725 20.9647C18.9764 21.1373 19.1843 21.2838 19.3097 21.4032L19.6753 21.0194C19.5038 20.856 19.2524 20.6845 18.9343 20.5038L18.6725 20.9647ZM19.3097 21.4032C19.4036 21.4926 19.4501 21.599 19.4501 21.7413H19.9801C19.9801 21.4596 19.8782 21.2126 19.6753 21.0194L19.3097 21.4032ZM19.4501 21.7413C19.4501 21.7909 19.434 21.8385 19.3793 21.8932L19.7541 22.268C19.8973 22.1248 19.9801 21.9462 19.9801 21.7413H19.4501ZM19.3725 21.9002C19.357 21.9169 19.289 21.964 19.079 21.964V22.494C19.3355 22.494 19.5926 22.4422 19.7609 22.2609L19.3725 21.9002ZM19.079 21.964C19.0844 21.964 19.0892 21.9646 19.0933 21.9654C19.0972 21.9663 19.0997 21.9673 19.1004 21.9676C19.1017 21.9682 19.0961 21.9659 19.0839 21.9553L18.7349 22.3542C18.8236 22.4319 18.9397 22.494 19.079 22.494V21.964ZM19.0839 21.9553C19.0414 21.9181 18.9802 21.8549 18.8986 21.7597L18.4962 22.1046C18.5842 22.2073 18.6644 22.2925 18.7349 22.3542L19.0839 21.9553ZM18.9082 21.7715C18.783 21.6072 18.6422 21.4705 18.4808 21.3952L18.2567 21.8755C18.3074 21.8991 18.3856 21.9603 18.4866 22.0928L18.9082 21.7715ZM18.433 21.3782C18.4414 21.3803 18.4411 21.3808 18.422 21.3738C18.4068 21.3683 18.3854 21.3601 18.3572 21.349C18.301 21.3268 18.2222 21.2948 18.1202 21.2526L17.9176 21.7424C18.0206 21.785 18.1026 21.8184 18.1629 21.8422C18.2144 21.8624 18.2696 21.8837 18.3045 21.8924L18.433 21.3782ZM18.1233 21.2539C17.8825 21.1507 17.5968 21.1053 17.2768 21.1053V21.6353C17.5505 21.6353 17.7596 21.6747 17.9145 21.7411L18.1233 21.2539ZM17.2768 21.1053C16.9503 21.1053 16.6505 21.1834 16.3856 21.3458L16.6626 21.7977C16.8359 21.6915 17.038 21.6353 17.2768 21.6353V21.1053ZM16.3911 21.3425C16.0927 21.5157 15.9305 21.789 15.9305 22.1336H16.4605C16.4605 21.9835 16.5174 21.8821 16.6572 21.8009L16.3911 21.3425ZM15.9305 22.1336C15.9305 22.3479 16.0307 22.5274 16.1847 22.6667C16.3329 22.8008 16.5369 22.9046 16.776 22.9881L16.9508 22.4876C16.7446 22.4156 16.6147 22.3409 16.5403 22.2736C16.4716 22.2115 16.4605 22.1666 16.4605 22.1336H15.9305ZM16.7675 22.9849C17.2393 23.168 17.6282 23.3257 17.935 23.4582L18.1452 22.9716C17.8301 22.8355 17.4345 22.6752 16.9593 22.4908L16.7675 22.9849ZM17.937 23.4591C18.2423 23.588 18.5376 23.7407 18.8229 23.9173L19.1019 23.4666C18.7936 23.2757 18.474 23.1104 18.1432 22.9707L17.937 23.4591ZM18.8254 23.9188C19.1456 24.1123 19.3593 24.3043 19.4861 24.4888L19.9229 24.1885C19.7388 23.9207 19.4577 23.6816 19.0995 23.4651L18.8254 23.9188ZM19.4893 24.4933C19.6094 24.6604 19.6833 24.9041 19.6833 25.2503H20.2134C20.2134 24.8333 20.1247 24.4691 19.9197 24.1839L19.4893 24.4933ZM21.9469 20.66L22.1982 20.5755L22.196 20.5694L21.9469 20.66ZM22.8374 23.2255L22.5877 23.3144L22.5879 23.315L22.8374 23.2255ZM23.7491 25.632L23.5036 25.7317L23.7819 26.417L24.0021 25.7109L23.7491 25.632ZM24.5972 23.2679L24.8439 23.3647L24.8442 23.3641L24.5972 23.2679ZM25.6043 20.766L25.3599 20.6635L25.3599 20.6636L25.6043 20.766ZM26.5372 20.5646L26.3715 20.7717L26.3805 20.7783L26.5372 20.5646ZM26.6644 21.1795L26.4163 21.0864V21.0864L26.6644 21.1795ZM26.569 21.4021L26.8054 21.5223L26.8096 21.5132L26.569 21.4021ZM25.9117 22.8969L26.1584 22.9937L26.1589 22.9926L25.9117 22.8969ZM25.106 25.0277L24.8574 24.936L25.3521 25.1261L25.106 25.0277ZM24.8092 25.8228L25.0567 25.9177L25.0574 25.9158L24.8092 25.8228ZM24.4594 26.7345L24.2119 26.6395L24.2112 26.6414L24.4594 26.7345ZM24.2473 26.9995L24.3863 27.2253L24.3907 27.2225L24.2473 26.9995ZM23.5265 26.9995L23.4177 27.2412L23.4248 27.2444L23.4321 27.2472L23.5265 26.9995ZM23.219 26.8087L22.9842 26.9315L23.003 26.9675L23.0316 26.9961L23.219 26.8087ZM22.2967 24.8157L22.0526 24.9189L22.0533 24.9206L22.2967 24.8157ZM21.3426 22.4092L21.5916 22.3183L21.5915 22.3182L21.3426 22.4092ZM21.1836 21.9746L20.934 22.0637L20.9347 22.0656L21.1836 21.9746ZM20.9504 21.2961L20.6968 21.3733L20.6978 21.3764L20.9504 21.2961ZM21.1094 20.5646L20.9868 20.3296L20.9825 20.3319L21.1094 20.5646ZM21.7985 20.4904L21.917 20.2533L21.7985 20.4904ZM21.6957 20.7445C21.9578 21.5237 22.2551 22.3803 22.5877 23.3144L23.0871 23.1366C22.7553 22.2049 22.459 21.3512 22.1981 20.5755L21.6957 20.7445ZM22.5879 23.315C22.9209 24.2432 23.2262 25.0489 23.5036 25.7317L23.9946 25.5322C23.7208 24.8581 23.4182 24.0595 23.0869 23.136L22.5879 23.315ZM24.0021 25.7109C24.2046 25.0616 24.4849 24.2799 24.8439 23.3647L24.3505 23.1711C23.9886 24.0935 23.7035 24.8878 23.4961 25.5531L24.0021 25.7109ZM24.8442 23.3641C25.204 22.4399 25.5388 21.608 25.8487 20.8685L25.3599 20.6636C25.0478 21.4082 24.7113 22.2443 24.3502 23.1718L24.8442 23.3641ZM25.8487 20.8685C25.8802 20.7935 25.9145 20.7559 25.9425 20.7362C25.969 20.7175 26.0073 20.7024 26.0708 20.7024V20.1724C25.9151 20.1724 25.7661 20.212 25.6372 20.3029C25.5097 20.3927 25.4203 20.5195 25.3599 20.6635L25.8487 20.8685ZM26.0708 20.7024C26.2448 20.7024 26.3313 20.7393 26.3716 20.7716L26.7028 20.3577C26.5311 20.2203 26.3066 20.1724 26.0708 20.1724V20.7024ZM26.3805 20.7783C26.3892 20.7847 26.4312 20.8203 26.4312 20.9781H26.9613C26.9613 20.7401 26.8972 20.5 26.6939 20.3509L26.3805 20.7783ZM26.4312 20.9781C26.4312 21.0327 26.4236 21.0668 26.4163 21.0864L26.9126 21.2725C26.9476 21.1791 26.9613 21.0789 26.9613 20.9781H26.4312ZM26.4163 21.0864C26.3984 21.1342 26.3696 21.2017 26.3284 21.291L26.8096 21.5132C26.8532 21.4187 26.8881 21.3379 26.9126 21.2725L26.4163 21.0864ZM26.3327 21.282C26.1088 21.7227 25.8861 22.2294 25.6646 22.8011L26.1589 22.9926C26.3755 22.4335 26.5911 21.9437 26.8053 21.5222L26.3327 21.282ZM25.665 22.8001C25.445 23.3607 25.1758 24.0728 24.8574 24.936L25.3547 25.1194C25.6724 24.2581 25.9403 23.5497 26.1584 22.9937L25.665 22.8001ZM25.3521 25.1261C25.3524 25.1253 25.3518 25.1269 25.3508 25.1293C25.3508 25.1294 25.3484 25.1349 25.3451 25.1418C25.344 25.1438 25.3422 25.1476 25.3397 25.1521C25.338 25.1552 25.3322 25.1657 25.3233 25.1782C25.3182 25.1852 25.3036 25.2027 25.2938 25.213C25.2741 25.2306 25.2027 25.2719 25.1483 25.2864C25.0495 25.2832 24.9029 25.1932 24.8636 25.1286C24.8519 25.0951 24.8429 25.0425 24.8423 25.0246C24.8423 24.9977 24.8467 24.9768 24.8472 24.9742C24.8485 24.9671 24.8499 24.9616 24.8506 24.959C24.852 24.9534 24.8533 24.9491 24.8538 24.9477C24.8548 24.9442 24.8557 24.9416 24.8559 24.9411C24.8564 24.9396 24.8566 24.9389 24.8563 24.9397C24.8552 24.943 24.8522 24.9512 24.8468 24.9657C24.8364 24.9939 24.8189 25.041 24.7941 25.1073C24.7447 25.2396 24.6671 25.4471 24.5611 25.7297L25.0574 25.9158C25.1634 25.6331 25.2412 25.4254 25.2907 25.2927C25.3155 25.2264 25.3333 25.1785 25.3441 25.1493C25.3493 25.1352 25.3534 25.124 25.3558 25.1173C25.3563 25.1157 25.3573 25.1131 25.3582 25.1103C25.3586 25.1092 25.3596 25.106 25.3608 25.1022C25.3613 25.1005 25.3626 25.0961 25.3641 25.0904C25.3648 25.0877 25.3662 25.0822 25.3675 25.0751C25.3681 25.0724 25.3724 25.0515 25.3724 25.0246C25.3718 25.0067 25.3628 24.9541 25.3511 24.9206C25.3119 24.856 25.1652 24.7659 25.0664 24.7627C25.012 24.7773 24.9406 24.8186 24.9209 24.8362C24.9111 24.8465 24.8965 24.864 24.8914 24.871C24.8825 24.8835 24.8767 24.8941 24.875 24.8972C24.8724 24.9018 24.8706 24.9055 24.8695 24.9077C24.866 24.9147 24.8635 24.9206 24.8633 24.9213C24.8618 24.9247 24.8605 24.9279 24.86 24.9293L25.3521 25.1261ZM24.5618 25.7278L24.2119 26.6395L24.7068 26.8294L25.0566 25.9177L24.5618 25.7278ZM24.2112 26.6414C24.1883 26.7026 24.1536 26.7447 24.104 26.7766L24.3907 27.2225C24.539 27.1271 24.6457 26.9925 24.7075 26.8276L24.2112 26.6414ZM24.1084 26.7738C24.063 26.8018 24.0062 26.8193 23.9293 26.8193V27.3494C24.0928 27.3494 24.248 27.3103 24.3862 27.2252L24.1084 26.7738ZM23.9293 26.8193C23.8499 26.8193 23.7483 26.8004 23.6208 26.7519L23.4321 27.2472C23.6015 27.3117 23.7684 27.3494 23.9293 27.3494V26.8193ZM23.6352 26.7578C23.5051 26.6993 23.4366 26.6515 23.4064 26.6213L23.0316 26.9961C23.1287 27.0931 23.2651 27.1725 23.4177 27.2412L23.6352 26.7578ZM23.4539 26.6859C23.2182 26.2353 22.9138 25.5781 22.5401 24.7108L22.0533 24.9206C22.4288 25.7919 22.7393 26.4633 22.9842 26.9315L23.4539 26.6859ZM22.5408 24.7125C22.1747 23.8464 21.8583 23.0484 21.5916 22.3183L21.0937 22.5002C21.364 23.24 21.6837 24.0463 22.0526 24.9189L22.5408 24.7125ZM21.5915 22.3182L21.4325 21.8835L20.9347 22.0656L21.0937 22.5003L21.5915 22.3182ZM21.4332 21.8854C21.3275 21.5894 21.251 21.3667 21.2029 21.2157L20.6978 21.3764C20.7487 21.5364 20.8277 21.7661 20.934 22.0637L21.4332 21.8854ZM21.2039 21.2189C21.1574 21.0662 21.1412 20.9645 21.1412 20.9038H20.6111C20.6111 21.0411 20.6444 21.2009 20.6968 21.3733L21.2039 21.2189ZM21.1412 20.9038C21.1412 20.8853 21.1406 20.8495 21.2363 20.7973L20.9825 20.3319C20.7672 20.4494 20.6111 20.6397 20.6111 20.9038H21.1412ZM21.232 20.7996C21.3655 20.7299 21.479 20.7024 21.5759 20.7024V20.1724C21.3759 20.1724 21.1784 20.2297 20.9868 20.3296L21.232 20.7996ZM21.5759 20.7024C21.6118 20.7024 21.6455 20.7102 21.68 20.7274L21.917 20.2533C21.8102 20.1999 21.6954 20.1724 21.5759 20.1724V20.7024ZM21.68 20.7274C21.6861 20.7305 21.6882 20.7328 21.6891 20.7338C21.6902 20.735 21.6938 20.7394 21.6978 20.7506L22.196 20.5694C22.1457 20.4313 22.0514 20.3205 21.917 20.2533L21.68 20.7274Z" fill="#848382" mask="url(#path-3-outside-1_2012_5064)"/>
</svg>
