<svg width="28" height="28" viewBox="0 0 28 28" fill="none" xmlns="http://www.w3.org/2000/svg">
<path d="M10.2184 9.66905L10.2184 9.66905C10.2845 9.70059 10.3461 9.72812 10.4564 9.74747C10.5596 9.76557 10.7045 9.7765 10.9406 9.78369C11.4138 9.79812 12.2848 9.79812 13.9929 9.79812H14H14.007C15.707 9.79812 16.578 9.79812 17.0533 9.78369C17.2904 9.7765 17.4367 9.76557 17.5409 9.74753C17.652 9.72831 17.7145 9.70103 17.7813 9.66919M10.2184 9.66905L18.4461 8.83197L18.5746 8.90084C18.3967 9.23294 18.1009 9.51832 17.7813 9.66919M10.2184 9.66905L10.218 9.66884C9.89463 9.51314 9.59876 9.22884 9.42577 8.90708C9.39371 8.84875 9.36411 8.79127 9.34273 8.70424C9.32239 8.62146 9.31062 8.51689 9.30298 8.36201C9.28776 8.05353 9.28776 7.50966 9.28776 6.46368V6.45306C9.28776 5.47277 9.29046 4.92491 9.3043 4.60248C9.31799 4.28358 9.34254 4.15948 9.40434 4.04746L9.53203 4.11791L9.40392 4.04823C9.58606 3.71333 9.87538 3.42686 10.1918 3.28051L10.2184 9.66905ZM17.7813 9.66919C17.7814 9.66915 17.7815 9.6691 17.7816 9.66905L17.7188 9.53744L17.781 9.66934C17.7811 9.66929 17.7812 9.66924 17.7813 9.66919ZM17.3959 8.44586L17.3959 8.44585L17.3976 8.44403L17.5232 8.3058L17.5073 6.42148L17.4914 4.54093L17.3887 4.45285L17.2765 4.35671H14H10.7235L10.6113 4.45285L10.5086 4.54093L10.4927 6.42148L10.4768 8.3058L10.6024 8.44403L10.6025 8.44401L10.6041 8.44586L10.7191 8.57676H14H17.2809L17.3959 8.44586Z" fill="#0080EF" stroke="#0080EF" stroke-width="0.291667"/>
<path d="M13.3729 12.3298V12.3298L13.3585 13.352L10.5919 13.3728L10.5917 13.3728C10.5073 13.3735 10.4252 13.3742 10.3452 13.3748C8.89919 13.387 8.16616 13.3931 7.71043 13.442C7.46568 13.4682 7.29422 13.5073 7.13184 13.5682C6.99185 13.6206 6.86071 13.6888 6.70192 13.7714C6.681 13.7822 6.6596 13.7934 6.63764 13.8047L6.63708 13.805C5.65058 14.3212 4.9401 15.4634 4.9401 16.5428C4.9401 16.6812 4.9449 16.7889 4.96948 16.8763C4.99725 16.975 5.04747 17.0398 5.11363 17.0992C5.19756 17.1765 5.28907 17.233 5.39804 17.2579C5.50603 17.2825 5.61703 17.2728 5.73471 17.2419C5.79802 17.226 5.85914 17.2004 5.91393 17.1571C5.96921 17.1133 6.01037 17.0576 6.04218 16.9921C6.10244 16.8682 6.13582 16.6941 6.16572 16.4631L6.16577 16.4627C6.25812 15.7342 6.68759 15.1322 7.33636 14.8205C7.33643 14.8204 7.33651 14.8204 7.33658 14.8204L7.66229 14.665L10.5664 14.6488L13.3585 14.6332L13.3729 15.6644V15.6644L13.3733 15.6913C13.3812 16.2459 13.3854 16.5431 13.4046 16.7161C13.4145 16.8058 13.4296 16.8762 13.4586 16.9371C13.4883 16.9994 13.5277 17.041 13.5608 17.0754C13.8042 17.3327 14.1959 17.3326 14.4392 17.0754C14.4723 17.0409 14.5118 16.9993 14.5414 16.9371C14.5704 16.8762 14.5855 16.8058 14.5954 16.7161C14.6146 16.5431 14.6188 16.2459 14.6267 15.6912L14.6271 15.6644V15.6644L14.6415 14.6332L17.4336 14.6488L20.3377 14.665L20.6638 14.8205L20.6639 14.8206C21.3071 15.1269 21.7418 15.7288 21.8342 16.4626L21.8343 16.4631C21.8642 16.6941 21.8976 16.8682 21.9578 16.9921C21.9896 17.0576 22.0308 17.1133 22.0861 17.1571C22.1409 17.2004 22.202 17.226 22.2653 17.2419M13.3729 12.3298L22.2662 17.2421C22.2659 17.242 22.2656 17.242 22.2653 17.2419M13.3729 12.3298L13.3733 12.303C13.3812 11.751 13.3854 11.4552 13.4046 11.2829C13.4145 11.1934 13.4297 11.1232 13.4587 11.0625C13.4883 11.0003 13.5278 10.9587 13.5609 10.9242M13.3729 12.3298L17.4079 13.3728L14.6415 13.352L14.6271 12.3298V12.3298L14.6267 12.3029C14.6188 11.751 14.6146 11.4552 14.5954 11.2829C14.5855 11.1934 14.5703 11.1232 14.5413 11.0625C14.5116 11.0001 14.4719 10.9584 14.4388 10.9239C14.3799 10.8618 14.3162 10.8127 14.24 10.7805C14.1637 10.7482 14.0843 10.7368 14 10.7368C13.9157 10.7368 13.8363 10.7482 13.76 10.7805C13.6836 10.8128 13.6199 10.862 13.5609 10.9242M22.2653 17.2419C22.3831 17.2728 22.494 17.2824 22.6024 17.2579C22.7118 17.2332 22.8044 17.1769 22.8906 17.1003L22.893 17.0982L22.893 17.0981C22.9863 17.0115 23.0308 16.8793 23.0509 16.748C23.0717 16.612 23.0702 16.4522 23.0507 16.2835C23.0119 15.9459 22.8989 15.5519 22.7215 15.2028M22.2653 17.2419L22.7215 15.2028M22.7215 15.2028C22.3317 14.429 21.6615 13.8521 20.8022 13.5505L20.8021 13.5505L20.3646 13.3974L20.3416 13.3893L20.3172 13.3892L17.4081 13.3728L22.7215 15.2028ZM13.5609 10.9242C13.5608 10.9243 13.5607 10.9244 13.5605 10.9246L13.6664 11.0249L13.5612 10.9239C13.5611 10.924 13.561 10.9241 13.5609 10.9242Z" fill="#0080EF" stroke="#0080EF" stroke-width="0.291667"/>
<path d="M3.4754 18.2321L3.47543 18.2322C3.3007 18.269 3.11609 18.3472 2.95337 18.4447C2.79164 18.5416 2.64137 18.6636 2.54181 18.7952C2.46658 18.8932 2.39934 18.9814 2.34857 19.0904C2.29673 19.2017 2.26521 19.327 2.24498 19.5011C2.20573 19.839 2.20573 20.3989 2.20573 21.4747L2.20573 21.4976C2.20573 22.198 2.2112 22.7247 2.2222 23.0954C2.2277 23.2806 2.23461 23.4282 2.24306 23.5397C2.25112 23.646 2.26132 23.7323 2.27725 23.7863M3.4754 18.2321L2.41719 23.7453M3.4754 18.2321L3.48149 18.2311M3.4754 18.2321L3.48149 18.2311M2.27725 23.7863C2.27729 23.7864 2.27733 23.7866 2.27736 23.7867L2.41719 23.7453M2.27725 23.7863C2.27722 23.7862 2.27719 23.7861 2.27716 23.786L2.41719 23.7453M2.27725 23.7863C2.33 23.9673 2.46005 24.1591 2.61136 24.3212C2.76388 24.4846 2.95187 24.6328 3.1368 24.7192M2.41719 23.7453C2.50469 24.046 2.87109 24.4343 3.19922 24.5874M3.1368 24.7192C3.13657 24.7191 3.13634 24.719 3.13611 24.7189L3.19922 24.5874M3.1368 24.7192C3.20497 24.752 3.26851 24.7822 3.35483 24.8045C3.43984 24.8265 3.54139 24.8395 3.69 24.8479C3.98397 24.8645 4.49408 24.8645 5.48943 24.8645H5.50156C6.641 24.8645 7.24678 24.8622 7.61463 24.8097C7.80298 24.7829 7.93991 24.7417 8.05892 24.6753C8.17593 24.6101 8.26677 24.5249 8.36494 24.4295L8.36641 24.4281L8.3664 24.4281C8.49466 24.2998 8.66512 24.073 8.73514 23.9149M3.1368 24.7192C3.13705 24.7194 3.1373 24.7195 3.13755 24.7196L3.19922 24.5874M3.19922 24.5874L8.73514 23.9149M8.73514 23.9149C8.73493 23.9154 8.73471 23.9158 8.7345 23.9163L8.60234 23.8546L8.73583 23.9134C8.7356 23.9139 8.73537 23.9144 8.73514 23.9149ZM3.48149 18.2311C3.52537 18.2238 3.62134 18.2181 3.74403 18.2132C3.87152 18.2081 4.03941 18.2035 4.23548 18.1997C4.62773 18.1922 5.13478 18.1881 5.66092 18.1908L5.661 18.1908M3.48149 18.2311L5.661 18.1908M5.661 18.1908L5.68094 18.1909C6.60831 18.1963 7.08925 18.1991 7.37224 18.2171C7.51602 18.2262 7.61604 18.2396 7.70132 18.2615C7.78764 18.2837 7.85333 18.3133 7.92496 18.3463L5.661 18.1908ZM3.42708 23.4114L3.38437 23.3687L3.28125 23.4718V21.5359C3.28125 19.867 3.28125 19.5107 3.45155 19.3848C3.49889 19.3499 3.5594 19.3327 3.63672 19.3101L3.42708 23.4114ZM3.42708 23.4114V21.5359C3.42708 20.4607 3.42763 19.9472 3.46967 19.6853C3.49032 19.5566 3.51686 19.5214 3.53101 19.5081C3.55032 19.49 3.57811 19.4792 3.67763 19.4501L3.67892 19.4497C3.67877 19.4497 3.69254 19.4466 3.73022 19.4426C3.76408 19.4391 3.809 19.4356 3.86421 19.4323C3.97444 19.4258 4.12082 19.4203 4.29216 19.4158C4.63454 19.4069 5.07244 19.4023 5.51125 19.4019C5.95003 19.4016 6.38868 19.4055 6.73253 19.4136C6.90459 19.4176 7.05198 19.4227 7.16343 19.4287C7.21924 19.4317 7.26495 19.4349 7.29972 19.4383C7.31711 19.4399 7.33089 19.4415 7.34131 19.443C7.34998 19.4443 7.3544 19.4452 7.35575 19.4454C7.46161 19.4761 7.49294 19.4864 7.51523 19.5058C7.52927 19.5181 7.55627 19.5502 7.57732 19.6771C7.59827 19.8034 7.60938 19.9963 7.61477 20.3008C7.61982 20.5863 7.61981 20.9621 7.61979 21.4612C7.61979 21.4911 7.61979 21.5215 7.61979 21.5523V23.4366L7.50238 23.5351L7.3735 23.6432H5.5125H3.65884L3.54296 23.5273L3.42708 23.4114Z" fill="#0080EF" stroke="#0080EF" stroke-width="0.291667"/>
<path d="M10.7096 19.2791V19.321V21.5467V23.7725V23.8171L10.7345 23.854L10.915 24.122L10.9156 24.1229L10.9156 24.1229C11.1333 24.4406 11.4365 24.6812 11.7601 24.7911L11.807 24.653L11.7583 24.7905C11.7921 24.8024 11.8379 24.8092 11.8795 24.8141C11.9259 24.8197 11.9838 24.8246 12.0507 24.829C12.1846 24.8379 12.3603 24.8452 12.5627 24.8511C12.968 24.8627 13.4854 24.8686 14.0021 24.8686C14.5187 24.8686 15.0358 24.8627 15.4404 24.8511C15.6425 24.8452 15.8177 24.8379 15.9512 24.829C16.0178 24.8246 16.0755 24.8196 16.1216 24.8141C16.1619 24.8093 16.2067 24.8027 16.2404 24.7909C16.5857 24.6755 16.856 24.4567 17.0734 24.1393L17.0741 24.1383L17.0741 24.1383L17.2655 23.854L17.29 23.8175L17.2904 23.7736L17.3068 21.6135L17.3232 19.4533L17.3234 19.4189L17.3083 19.388L17.1665 19.0989C17.1664 19.0988 17.1663 19.0987 17.1663 19.0985C16.9911 18.7362 16.7454 18.5119 16.3589 18.3304L16.3584 18.3301C16.2946 18.3005 16.2331 18.275 16.1467 18.2558C16.0633 18.2372 15.9609 18.2253 15.8144 18.217C15.5225 18.2003 15.0296 18.1962 14.1103 18.1908M10.7096 19.2791L14.1102 18.1908C14.1103 18.1908 14.1103 18.1908 14.1103 18.1908M10.7096 19.2791L10.7318 19.2437L10.8955 18.9818M10.7096 19.2791L11.0195 19.0585M14.1103 18.1908C13.372 18.1853 12.8681 18.1866 12.5235 18.1963C12.1849 18.2058 11.9854 18.2233 11.867 18.2561M14.1103 18.1908L11.9055 18.3967M11.867 18.2561C11.8672 18.256 11.8674 18.256 11.8676 18.2559L11.9055 18.3967M11.867 18.2561C11.8668 18.2561 11.8666 18.2562 11.8664 18.2562L11.9055 18.3967M11.867 18.2561C11.4653 18.3642 11.1119 18.6275 10.8955 18.9818M11.9055 18.3967C11.5391 18.4952 11.2164 18.7358 11.0195 19.0585M10.8955 18.9818L10.8959 18.9812L11.0195 19.0585M10.8955 18.9818C10.8953 18.982 10.8952 18.9823 10.895 18.9825L11.0195 19.0585M12.1428 19.4501L12.1424 19.4502C12.0454 19.4779 12.0211 19.4878 12.0041 19.5041C11.9913 19.5164 11.9652 19.5515 11.945 19.6823C11.9042 19.9468 11.9036 20.4664 11.9036 21.5522V23.4365L12.0211 23.535L12.1499 23.6431H14H15.8501L15.9789 23.535L16.0964 23.4365V21.5522C16.0964 21.5214 16.0964 21.4911 16.0964 21.4612C16.0964 20.962 16.0964 20.5862 16.0913 20.3007C16.0859 19.9962 16.0748 19.8033 16.0539 19.677C16.0328 19.5501 16.0058 19.518 15.9918 19.5058C15.9695 19.4864 15.9383 19.4761 15.8327 19.4455C15.831 19.4451 15.8263 19.4442 15.8176 19.443C15.807 19.4415 15.793 19.4399 15.7755 19.4382C15.7404 19.4349 15.6944 19.4317 15.6384 19.4287C15.5266 19.4226 15.3789 19.4176 15.2066 19.4135C14.8623 19.4054 14.4235 19.4015 13.9844 19.4019C13.5452 19.4022 13.1068 19.4068 12.7633 19.4157C12.5914 19.4202 12.4443 19.4257 12.3332 19.4323C12.2775 19.4355 12.232 19.439 12.1975 19.4426C12.1802 19.4444 12.1667 19.4461 12.1565 19.4477C12.1479 19.449 12.1438 19.4499 12.1429 19.4501C12.1426 19.4502 12.1426 19.4502 12.1428 19.4501Z" fill="#0080EF" stroke="#0080EF" stroke-width="0.291667"/>
<path d="M19.1548 19.6324L19.1548 19.633C19.1366 19.7538 19.1244 20.0349 19.1176 20.4094C19.1108 20.7884 19.1094 21.2738 19.1149 21.8107L19.1548 19.6324ZM19.1548 19.6324C19.2614 18.9398 19.6877 18.4366 20.3431 18.2562L20.3818 18.3968L20.3428 18.2563C20.4611 18.2234 20.6622 18.2058 21.0025 18.1963C21.3485 18.1867 21.8538 18.1853 22.592 18.1908C22.5921 18.1908 22.5922 18.1908 22.5922 18.1908L24.5334 18.2017L24.5679 18.2019L24.5987 18.2176L24.9213 18.3816L24.922 18.382C25.3115 18.5827 25.6278 18.9344 25.7338 19.3086L25.7342 19.31C25.7429 19.3419 25.7485 19.3855 25.7529 19.4299C25.7576 19.4774 25.7618 19.5363 25.7656 19.6042C25.7731 19.7402 25.7791 19.9169 25.7837 20.1199C25.793 20.5262 25.7968 21.0419 25.7954 21.5568C25.794 22.0716 25.7875 22.5866 25.7762 22.9915C25.7705 23.1939 25.7637 23.3697 25.7555 23.5047C25.7515 23.572 25.747 23.6304 25.7422 23.6773C25.7376 23.7209 25.7318 23.7643 25.7229 23.7959L25.7227 23.7965C25.6656 23.9947 25.4945 24.2187 25.3112 24.3978C25.1275 24.5773 24.9001 24.7422 24.7042 24.7986L24.7042 24.7987L24.7022 24.7992C24.6425 24.8155 24.5584 24.8261 24.4509 24.834C24.3409 24.842 24.1976 24.8477 24.0147 24.8515C23.6488 24.8591 23.1179 24.859 22.3659 24.8536L22.3657 24.8536C21.4187 24.8454 20.8978 24.8399 20.5896 24.824C20.2791 24.8079 20.1633 24.7807 20.0377 24.7179L20.0377 24.7179L20.0367 24.7174C19.7173 24.5547 19.4157 24.2406 19.2601 23.9115L19.2601 23.9115M19.1548 19.6324L19.2601 23.9115M19.2601 23.9115L19.2597 23.9106M19.2601 23.9115L19.2597 23.9106M19.2597 23.9106C19.1955 23.7725 19.1638 23.6648 19.1459 23.3819M19.2597 23.9106L19.1459 23.3819M19.1459 23.3819C19.1285 23.1069 19.1231 22.6507 19.1149 21.8108L19.1459 23.3819ZM25.5826 23.7562C25.6646 23.4663 25.6755 19.6491 25.5935 19.3484C25.5005 19.0202 25.2162 18.6976 24.8552 18.5116L25.5826 23.7562ZM20.6326 19.4477C20.6233 19.4491 20.6196 19.4501 20.6196 19.45L20.6187 19.4503C20.5218 19.478 20.4974 19.4879 20.4804 19.5042C20.4676 19.5165 20.4415 19.5515 20.4213 19.6823C20.3805 19.9469 20.38 20.4665 20.38 21.5523V23.4366L20.4974 23.5351L20.6263 23.6431H22.4873H24.3409L24.4568 23.5273L24.5727 23.4114V21.5468C24.5727 20.4658 24.5721 19.949 24.5275 19.685C24.5058 19.5562 24.478 19.5203 24.4619 19.5059C24.4398 19.486 24.4073 19.4741 24.3036 19.4455C24.303 19.4454 24.2987 19.4444 24.2887 19.443C24.2783 19.4415 24.2645 19.4399 24.2471 19.4382C24.2124 19.4349 24.1667 19.4317 24.1108 19.4287C23.9994 19.4227 23.852 19.4176 23.6799 19.4136C23.3359 19.4055 22.8971 19.4016 22.458 19.4019C22.0188 19.4022 21.5804 19.4069 21.2373 19.4158C21.0655 19.4203 20.9187 19.4258 20.8079 19.4323C20.7524 19.4356 20.7072 19.4391 20.673 19.4426C20.6559 19.4444 20.6425 19.4461 20.6326 19.4477Z" fill="#0080EF" stroke="#0080EF" stroke-width="0.291667"/>
</svg>
