<svg width="27" height="20" viewBox="0 0 27 20" fill="none" xmlns="http://www.w3.org/2000/svg">
<path fill-rule="evenodd" clip-rule="evenodd" d="M0 0V20H26.6667V0H0Z" fill="#2E42A5"/>
<mask id="mask0_61_1576" style="mask-type:luminance" maskUnits="userSpaceOnUse" x="0" y="0" width="27" height="20">
<path fill-rule="evenodd" clip-rule="evenodd" d="M0 0V20H26.6667V0H0Z" fill="white"/>
</mask>
<g mask="url(#mask0_61_1576)">
<path d="M-2.96875 18.5708L2.89958 21.0533L26.7996 2.69835L29.8954 -0.989986L23.6204 -1.81915L13.8721 6.09001L6.02542 11.42L-2.96875 18.5708Z" fill="white"/>
<path d="M-2.16602 20.31L0.824818 21.75L28.784 -1.33249H24.5865L-2.16602 20.31Z" fill="#F50100"/>
<path d="M29.6357 18.5708L23.7673 21.0533L-0.132682 2.69835L-3.22852 -0.989986L3.04648 -1.81915L12.7948 6.09001L20.6415 11.42L29.6357 18.5708Z" fill="white"/>
<path d="M29.4361 19.8192L26.4461 21.2592L14.5411 11.3759L11.0111 10.2725L-3.52637 -0.977478H0.671966L15.2003 10.0059L19.0595 11.3292L29.4361 19.8192Z" fill="#F50100"/>
<path fill-rule="evenodd" clip-rule="evenodd" d="M16.4824 -1.66666H10.1858V6.66668H-1.64258V13.3333H10.1858V21.6667H16.4824V13.3333H28.3574V6.66668H16.4824V-1.66666Z" fill="#F50100"/>
<mask id="mask1_61_1576" style="mask-type:luminance" maskUnits="userSpaceOnUse" x="-2" y="-2" width="31" height="24">
<path fill-rule="evenodd" clip-rule="evenodd" d="M16.4824 -1.66666H10.1858V6.66668H-1.64258V13.3333H10.1858V21.6667H16.4824V13.3333H28.3574V6.66668H16.4824V-1.66666Z" fill="white"/>
</mask>
<g mask="url(#mask1_61_1576)">
<path d="M10.1854 -1.66665V-3.33331H8.51876V-1.66665H10.1854ZM16.4821 -1.66665H18.1488V-3.33331H16.4821V-1.66665ZM10.1854 6.66669V8.33335H11.8521V6.66669H10.1854ZM-1.6429 6.66669V5.00002H-3.30957V6.66669H-1.6429ZM-1.6429 13.3334H-3.30957V15H-1.6429V13.3334ZM10.1854 13.3334H11.8521V11.6667H10.1854V13.3334ZM10.1854 21.6667H8.51876V23.3334H10.1854V21.6667ZM16.4821 21.6667V23.3334H18.1488V21.6667H16.4821ZM16.4821 13.3334V11.6667H14.8154V13.3334H16.4821ZM28.3571 13.3334V15H30.0238V13.3334H28.3571ZM28.3571 6.66669H30.0238V5.00002H28.3571V6.66669ZM16.4821 6.66669H14.8154V8.33335H16.4821V6.66669ZM10.1854 2.02656e-05H16.4821V-3.33331H10.1854V2.02656e-05ZM11.8521 6.66669V-1.66665H8.51876V6.66669H11.8521ZM-1.6429 8.33335H10.1854V5.00002H-1.6429V8.33335ZM0.0237629 13.3334V6.66669H-3.30957V13.3334H0.0237629ZM10.1854 11.6667H-1.6429V15H10.1854V11.6667ZM11.8521 21.6667V13.3334H8.51876V21.6667H11.8521ZM16.4821 20H10.1854V23.3334H16.4821V20ZM14.8154 13.3334V21.6667H18.1488V13.3334H14.8154ZM28.3571 11.6667H16.4821V15H28.3571V11.6667ZM26.6904 6.66669V13.3334H30.0238V6.66669H26.6904ZM16.4821 8.33335H28.3571V5.00002H16.4821V8.33335ZM14.8154 -1.66665V6.66669H18.1488V-1.66665H14.8154Z" fill="white"/>
</g>
</g>
</svg>
