<svg width="55" height="54" viewBox="0 0 55 54" fill="none" xmlns="http://www.w3.org/2000/svg">
<g clip-path="url(#clip0_44_453)">
<path d="M41.1667 32.6249C33.711 32.6249 27.6667 26.581 27.6667 19.1249C27.6667 11.6691 33.711 5.62488 41.1667 5.62488C48.6225 5.62488 54.6667 11.6691 54.6667 19.1249C54.6585 26.5773 48.6192 32.6171 41.1667 32.6249ZM41.1667 7.87515C34.9536 7.87515 29.9166 12.9117 29.9166 19.1249C29.9166 25.3381 34.9536 30.375 41.1667 30.375C47.3799 30.375 52.4169 25.3381 52.4169 19.1249C52.4099 12.9146 47.377 7.88174 41.1667 7.87515Z" fill="#B3B3B2"/>
<path d="M43.4167 39.3749H38.917C37.0527 39.3749 35.542 37.8641 35.542 35.9999V30.375H37.7919V35.9999C37.7919 36.6211 38.2957 37.125 38.917 37.125H43.4167C44.038 37.125 44.5419 36.6211 44.5419 35.9999V30.375H46.7917V35.9999C46.7917 37.8641 45.281 39.3749 43.4167 39.3749Z" fill="#B3B3B2"/>
<path d="M34.4167 33.75H47.9167V35.9999H34.4167V33.75Z" fill="#B3B3B2"/>
<path d="M40.0415 22.4999H42.2918V31.5002H40.0415V22.4999Z" fill="#B3B3B2"/>
<path d="M41.1666 23.625C38.6815 23.625 36.6665 21.6104 36.6665 19.1248C36.6665 16.6397 38.6815 14.6251 41.1666 14.6251C43.6517 14.6251 45.6668 16.6397 45.6668 19.1248C45.6668 21.6104 43.6517 23.625 41.1666 23.625ZM41.1666 16.875C39.9241 16.875 38.9168 17.8823 38.9168 19.1248C38.9168 20.3678 39.9241 21.3751 41.1666 21.3751C42.4092 21.3751 43.4165 20.3678 43.4165 19.1248C43.4165 17.8823 42.4092 16.875 41.1666 16.875Z" fill="#B3B3B2"/>
<path d="M2.58702 10.9205L0.996338 9.32945L9.9962 0.32959C10.2071 0.118652 10.4935 0 10.7917 0H38.9169C40.7807 0 42.2919 1.51117 42.2919 3.375H40.0416C40.0416 2.75372 39.5382 2.24986 38.9169 2.24986H11.2573L2.58702 10.9205Z" fill="#B3B3B2"/>
<path d="M38.9169 54H4.04175C2.17792 54 0.666748 52.4888 0.666748 50.625V32.6249H2.91661V50.625C2.91661 51.2463 3.42047 51.7502 4.04175 51.7502H38.9169C39.5382 51.7502 40.0416 51.2463 40.0416 50.625V48.3752H42.2919V50.625C42.2919 52.4888 40.7807 54 38.9169 54Z" fill="#B3B3B2"/>
<path d="M2.91661 22.4998H0.666748V10.125C0.666748 9.50371 1.17061 8.99985 1.79189 8.99985H8.54189C9.16316 8.99985 9.66661 8.4964 9.66661 7.87512V1.12512H11.9169V7.87512C11.9169 9.73895 10.4057 11.2501 8.54189 11.2501H2.91661V22.4998Z" fill="#B3B3B2"/>
<path d="M18.9257 46.1248C18.6274 46.1248 18.341 46.0062 18.1301 45.7953L0.996376 28.6615C0.557198 28.2224 0.557198 27.51 0.996376 27.0708L4.11141 23.9546C4.32235 23.7432 4.60909 23.6246 4.90737 23.6246C5.20606 23.6246 5.49239 23.7432 5.70333 23.9546L22.8371 41.0883C23.0484 41.2992 23.1671 41.5856 23.1671 41.8843C23.1671 42.183 23.0484 42.4693 22.8371 42.6802L19.7208 45.7953C19.5098 46.0062 19.2239 46.1248 18.9257 46.1248ZM3.38261 27.8664L18.9257 43.4094L20.4512 41.8839L4.9082 26.3408L3.38261 27.8664Z" fill="#B3B3B2"/>
<path d="M22.042 46.1248H18.667V43.875H20.9169V41.6251H23.1667V45.0001C23.1667 45.6214 22.6633 46.1248 22.042 46.1248Z" fill="#B3B3B2"/>
<path d="M38.917 46.1248H22.042V43.875H38.917C39.5383 43.875 40.0417 43.3711 40.0417 42.7498V38.2501H42.292V42.7498C42.292 44.6141 40.7808 46.1248 38.917 46.1248Z" fill="#B3B3B2"/>
<path d="M25.4168 22.4999H7.41664C6.79536 22.4999 6.2915 21.9964 6.2915 21.3751V14.6251C6.2915 14.0039 6.79536 13.5 7.41664 13.5H25.4168V15.7499H8.54178V20.25H25.4168V22.4999Z" fill="#B3B3B2"/>
<path d="M11.917 24.7501H27.6669V27H11.917V24.7501Z" fill="#B3B3B2"/>
<path d="M15.292 29.2499H28.792V31.5002H15.292V29.2499Z" fill="#B3B3B2"/>
<path d="M19.7915 33.75H32.1668V35.9999H19.7915V33.75Z" fill="#B3B3B2"/>
<path d="M10.7919 49.4999H8.54199C6.67775 49.4999 5.16699 47.9891 5.16699 46.1249V43.875H7.41685V46.1249C7.41685 46.7461 7.92072 47.25 8.54199 47.25H10.7919V49.4999Z" fill="#B3B3B2"/>
<path d="M13.0415 47.25H15.2918V49.4999H13.0415V47.25Z" fill="#B3B3B2"/>
</g>
<defs>
<clipPath id="clip0_44_453">
<rect width="54" height="54" fill="white" transform="translate(0.666748)"/>
</clipPath>
</defs>
</svg>
