<svg width="21" height="20" viewBox="0 0 21 20" fill="none" xmlns="http://www.w3.org/2000/svg">
<g clip-path="url(#clip0_44_2954)">
<mask id="path-1-inside-1_44_2954" fill="white">
<path fill-rule="evenodd" clip-rule="evenodd" d="M11.4233 1.31764C11.2872 1.02242 10.9917 0.833344 10.6666 0.833344C10.3415 0.833344 10.0461 1.02242 9.9099 1.31764L7.51902 6.50105L1.85048 7.17315C1.52763 7.21143 1.25651 7.43397 1.15605 7.74317C1.05558 8.05237 1.14411 8.39177 1.3828 8.61251L5.5737 12.4881L4.46123 18.0869C4.39787 18.4058 4.52574 18.7324 4.78876 18.9235C5.05178 19.1146 5.40193 19.1353 5.68562 18.9765L10.6666 16.1883L15.6476 18.9765C15.9313 19.1353 16.2814 19.1146 16.5445 18.9235C16.8075 18.7324 16.9354 18.4058 16.872 18.0869L15.7595 12.4881L19.9504 8.61251C20.1891 8.39177 20.2776 8.05237 20.1772 7.74317C20.0767 7.43397 19.8056 7.21143 19.4827 7.17315L13.8142 6.50105L11.4233 1.31764Z"/>
</mask>
<path fill-rule="evenodd" clip-rule="evenodd" d="M11.4233 1.31764C11.2872 1.02242 10.9917 0.833344 10.6666 0.833344C10.3415 0.833344 10.0461 1.02242 9.9099 1.31764L7.51902 6.50105L1.85048 7.17315C1.52763 7.21143 1.25651 7.43397 1.15605 7.74317C1.05558 8.05237 1.14411 8.39177 1.3828 8.61251L5.5737 12.4881L4.46123 18.0869C4.39787 18.4058 4.52574 18.7324 4.78876 18.9235C5.05178 19.1146 5.40193 19.1353 5.68562 18.9765L10.6666 16.1883L15.6476 18.9765C15.9313 19.1353 16.2814 19.1146 16.5445 18.9235C16.8075 18.7324 16.9354 18.4058 16.872 18.0869L15.7595 12.4881L19.9504 8.61251C20.1891 8.39177 20.2776 8.05237 20.1772 7.74317C20.0767 7.43397 19.8056 7.21143 19.4827 7.17315L13.8142 6.50105L11.4233 1.31764Z" fill="#FFA800"/>
<path d="M11.4233 1.31764L10.0612 1.94591V1.94591L11.4233 1.31764ZM9.9099 1.31764L8.54781 0.689369V0.689369L9.9099 1.31764ZM7.51902 6.50105L7.69563 7.99062C8.21368 7.9292 8.66261 7.60303 8.88111 7.12932L7.51902 6.50105ZM1.85048 7.17315L1.67387 5.68358H1.67387L1.85048 7.17315ZM1.15605 7.74317L2.58263 8.2067L2.58263 8.2067L1.15605 7.74317ZM1.3828 8.61251L0.364375 9.71378L0.364376 9.71378L1.3828 8.61251ZM5.5737 12.4881L7.04494 12.7805C7.14661 12.2688 6.97513 11.741 6.59213 11.3869L5.5737 12.4881ZM4.46123 18.0869L2.98999 17.7946V17.7946L4.46123 18.0869ZM4.78876 18.9235L3.90708 20.137L3.90709 20.137L4.78876 18.9235ZM5.68562 18.9765L6.41828 20.2854L6.41828 20.2854L5.68562 18.9765ZM10.6666 16.1883L11.3993 14.8795C10.9441 14.6246 10.3892 14.6246 9.93395 14.8795L10.6666 16.1883ZM15.6476 18.9765L14.9149 20.2854L14.9149 20.2854L15.6476 18.9765ZM16.5445 18.9235L17.4261 20.137L17.4261 20.137L16.5445 18.9235ZM16.872 18.0869L15.4008 18.3793L15.4008 18.3793L16.872 18.0869ZM15.7595 12.4881L14.7411 11.3869C14.3581 11.741 14.1866 12.2688 14.2883 12.7805L15.7595 12.4881ZM19.9504 8.61251L18.932 7.51123V7.51123L19.9504 8.61251ZM20.1772 7.74317L21.6038 7.27965V7.27965L20.1772 7.74317ZM19.4827 7.17315L19.6594 5.68358L19.4827 7.17315ZM13.8142 6.50105L12.4521 7.12932C12.6706 7.60303 13.1196 7.9292 13.6376 7.99062L13.8142 6.50105ZM10.6666 2.33334C10.4065 2.33334 10.1702 2.18208 10.0612 1.94591L12.7854 0.689369C12.4041 -0.13725 11.5769 -0.666656 10.6666 -0.666656V2.33334ZM11.272 1.94591C11.163 2.18209 10.9267 2.33334 10.6666 2.33334V-0.666656C9.7563 -0.666656 8.9291 -0.137251 8.54781 0.689369L11.272 1.94591ZM8.88111 7.12932L11.272 1.94591L8.54781 0.689369L6.15694 5.87279L8.88111 7.12932ZM2.02709 8.66272L7.69563 7.99062L7.34241 5.01149L1.67387 5.68358L2.02709 8.66272ZM2.58263 8.2067C2.50226 8.45406 2.28537 8.63209 2.02709 8.66272L1.67387 5.68358C0.769882 5.79077 0.0107673 6.41389 -0.270536 7.27965L2.58263 8.2067ZM2.40123 7.51123C2.59218 7.68782 2.66301 7.95934 2.58263 8.2067L-0.270535 7.27965C-0.551839 8.14541 -0.303961 9.09572 0.364375 9.71378L2.40123 7.51123ZM6.59213 11.3869L2.40123 7.51123L0.364376 9.71378L4.55527 13.5894L6.59213 11.3869ZM5.93247 18.3793L7.04494 12.7805L4.10246 12.1958L2.98999 17.7946L5.93247 18.3793ZM5.67044 17.71C5.88086 17.8629 5.98316 18.1242 5.93247 18.3793L2.98999 17.7946C2.81258 18.6875 3.17062 19.602 3.90708 20.137L5.67044 17.71ZM4.95296 17.6676C5.17991 17.5406 5.46002 17.5571 5.67044 17.71L3.90709 20.137C4.64355 20.6721 5.62394 20.73 6.41828 20.2854L4.95296 17.6676ZM9.93395 14.8795L4.95296 17.6676L6.41828 20.2854L11.3993 17.4972L9.93395 14.8795ZM16.3803 17.6676L11.3993 14.8795L9.93395 17.4972L14.9149 20.2854L16.3803 17.6676ZM15.6628 17.71C15.8732 17.5571 16.1533 17.5406 16.3803 17.6676L14.9149 20.2854C15.7093 20.73 16.6897 20.6721 17.4261 20.137L15.6628 17.71ZM15.4008 18.3793C15.3501 18.1242 15.4524 17.8629 15.6628 17.71L17.4261 20.137C18.1626 19.602 18.5206 18.6875 18.3432 17.7946L15.4008 18.3793ZM14.2883 12.7805L15.4008 18.3793L18.3432 17.7946L17.2308 12.1958L14.2883 12.7805ZM18.932 7.51123L14.7411 11.3869L16.778 13.5894L20.9689 9.71378L18.932 7.51123ZM18.7506 8.2067C18.6702 7.95934 18.741 7.68782 18.932 7.51123L20.9689 9.71378C21.6372 9.09572 21.8851 8.14541 21.6038 7.27965L18.7506 8.2067ZM19.3061 8.66272C19.0479 8.63209 18.831 8.45406 18.7506 8.2067L21.6038 7.27965C21.3225 6.41389 20.5633 5.79077 19.6594 5.68358L19.3061 8.66272ZM13.6376 7.99062L19.3061 8.66272L19.6594 5.68358L13.9908 5.01149L13.6376 7.99062ZM10.0612 1.94591L12.4521 7.12932L15.1763 5.87279L12.7854 0.689369L10.0612 1.94591Z" fill="#FFA800" mask="url(#path-1-inside-1_44_2954)"/>
</g>
<defs>
<clipPath id="clip0_44_2954">
<rect width="20" height="20" fill="white" transform="translate(0.666504)"/>
</clipPath>
</defs>
</svg>
