<svg width="20" height="20" viewBox="0 0 20 20" fill="none" xmlns="http://www.w3.org/2000/svg">
<g clip-path="url(#clip0_31_356)">
<mask id="path-1-inside-1_31_356" fill="white">
<path fill-rule="evenodd" clip-rule="evenodd" d="M10.7567 1.31763C10.6205 1.02241 10.3251 0.833332 9.99996 0.833332C9.67485 0.833332 9.37942 1.02241 9.24325 1.31763L6.85237 6.50104L1.18382 7.17314C0.860973 7.21142 0.58986 7.43396 0.489395 7.74316C0.388929 8.05236 0.477456 8.39176 0.716149 8.6125L4.90705 12.4881L3.79457 18.0869C3.73121 18.4058 3.85909 18.7324 4.12211 18.9235C4.38513 19.1146 4.73527 19.1353 5.01896 18.9765L9.99996 16.1883L14.981 18.9765C15.2646 19.1353 15.6148 19.1146 15.8778 18.9235C16.1408 18.7324 16.2687 18.4058 16.2053 18.0869L15.0929 12.4881L19.2838 8.6125C19.5225 8.39176 19.611 8.05236 19.5105 7.74316C19.4101 7.43396 19.1389 7.21142 18.8161 7.17314L13.1476 6.50104L10.7567 1.31763Z"/>
</mask>
<path d="M10.7567 1.31763L9.39459 1.9459V1.9459L10.7567 1.31763ZM9.24325 1.31763L7.88116 0.689359V0.689359L9.24325 1.31763ZM6.85237 6.50104L7.02898 7.99061C7.54702 7.92919 7.99595 7.60302 8.21445 7.12931L6.85237 6.50104ZM1.18382 7.17314L1.00721 5.68357H1.00721L1.18382 7.17314ZM0.489395 7.74316L1.91598 8.20669L1.91598 8.20669L0.489395 7.74316ZM0.716149 8.6125L-0.30228 9.71377L-0.302279 9.71377L0.716149 8.6125ZM4.90705 12.4881L6.37829 12.7805C6.47995 12.2688 6.30848 11.741 5.92548 11.3868L4.90705 12.4881ZM3.79457 18.0869L2.32334 17.7946L3.79457 18.0869ZM4.12211 18.9235L3.24043 20.137L3.24043 20.137L4.12211 18.9235ZM5.01896 18.9765L5.75162 20.2854H5.75163L5.01896 18.9765ZM9.99996 16.1883L10.7326 14.8794C10.2774 14.6246 9.72251 14.6246 9.2673 14.8794L9.99996 16.1883ZM14.981 18.9765L14.2483 20.2854H14.2483L14.981 18.9765ZM15.8778 18.9235L16.7595 20.137L16.7595 20.137L15.8778 18.9235ZM16.2053 18.0869L14.7341 18.3792L14.7341 18.3793L16.2053 18.0869ZM15.0929 12.4881L14.0744 11.3868C13.6914 11.741 13.52 12.2688 13.6216 12.7805L15.0929 12.4881ZM19.2838 8.6125L18.2653 7.51122V7.51122L19.2838 8.6125ZM19.5105 7.74316L20.9371 7.27964V7.27964L19.5105 7.74316ZM18.8161 7.17314L18.9927 5.68357H18.9927L18.8161 7.17314ZM13.1476 6.50104L11.7855 7.12931C12.004 7.60302 12.4529 7.92919 12.9709 7.99061L13.1476 6.50104ZM9.99996 2.33333C9.73986 2.33333 9.50352 2.18207 9.39459 1.9459L12.1188 0.689359C11.7375 -0.137256 10.9103 -0.666668 9.99996 -0.666668V2.33333ZM10.6053 1.9459C10.4964 2.18207 10.2601 2.33333 9.99996 2.33333V-0.666668C9.08964 -0.666668 8.26244 -0.137257 7.88116 0.689359L10.6053 1.9459ZM8.21445 7.12931L10.6053 1.9459L7.88116 0.689359L5.49028 5.87278L8.21445 7.12931ZM1.36044 8.66271L7.02898 7.99061L6.67576 5.01148L1.00721 5.68357L1.36044 8.66271ZM1.91598 8.20669C1.83561 8.45405 1.61872 8.63208 1.36044 8.66271L1.00721 5.68357C0.103227 5.79076 -0.655887 6.41388 -0.93719 7.27964L1.91598 8.20669ZM1.73458 7.51122C1.92553 7.68781 1.99635 7.95933 1.91598 8.20669L-0.93719 7.27964C-1.21849 8.1454 -0.970616 9.09571 -0.30228 9.71377L1.73458 7.51122ZM5.92548 11.3868L1.73458 7.51122L-0.302279 9.71377L3.88862 13.5894L5.92548 11.3868ZM5.26581 18.3792L6.37829 12.7805L3.43581 12.1958L2.32334 17.7946L5.26581 18.3792ZM5.00379 17.71C5.2142 17.8629 5.3165 18.1241 5.26581 18.3792L2.32334 17.7946C2.14593 18.6874 2.50397 19.602 3.24043 20.137L5.00379 17.71ZM4.2863 17.6676C4.51326 17.5406 4.79337 17.5571 5.00378 17.71L3.24043 20.137C3.97689 20.6721 4.95729 20.73 5.75162 20.2854L4.2863 17.6676ZM9.2673 14.8794L4.2863 17.6676L5.75163 20.2854L10.7326 17.4972L9.2673 14.8794ZM15.7136 17.6676L10.7326 14.8794L9.2673 17.4972L14.2483 20.2854L15.7136 17.6676ZM14.9961 17.71C15.2066 17.5571 15.4867 17.5406 15.7136 17.6676L14.2483 20.2854C15.0426 20.73 16.023 20.6721 16.7595 20.137L14.9961 17.71ZM14.7341 18.3793C14.6834 18.1241 14.7857 17.8629 14.9961 17.71L16.7595 20.137C17.4959 19.602 17.854 18.6874 17.6766 17.7946L14.7341 18.3793ZM13.6216 12.7805L14.7341 18.3792L17.6766 17.7946L16.5641 12.1958L13.6216 12.7805ZM18.2653 7.51122L14.0744 11.3868L16.1113 13.5894L20.3022 9.71377L18.2653 7.51122ZM18.0839 8.20669C18.0036 7.95933 18.0744 7.68781 18.2653 7.51122L20.3022 9.71377C20.9705 9.09571 21.2184 8.1454 20.9371 7.27964L18.0839 8.20669ZM18.6395 8.66271C18.3812 8.63208 18.1643 8.45405 18.0839 8.20669L20.9371 7.27964C20.6558 6.41388 19.8967 5.79076 18.9927 5.68357L18.6395 8.66271ZM12.9709 7.99061L18.6395 8.66271L18.9927 5.68357L13.3242 5.01148L12.9709 7.99061ZM9.39459 1.9459L11.7855 7.12931L14.5096 5.87278L12.1188 0.689359L9.39459 1.9459Z" fill="#848382" mask="url(#path-1-inside-1_31_356)"/>
</g>
<defs>
<clipPath id="clip0_31_356">
<rect width="20" height="20" fill="white"/>
</clipPath>
</defs>
</svg>
