<svg width="37" height="36" viewBox="0 0 37 36" fill="none" xmlns="http://www.w3.org/2000/svg">
<path d="M32.4251 11.8166L32.0966 11.7243C31.9626 11.3802 31.822 11.05 31.6764 10.738C32.3012 9.8583 32.3006 8.63638 31.5066 7.85989C31.5067 7.85989 27.2654 3.61834 27.2654 3.61834C26.5853 2.93883 25.5268 2.79656 24.6929 3.27474L24.1486 3.58565C23.9266 3.49282 23.7031 3.40548 23.4795 3.32445L23.3098 2.69823C23.0571 1.77181 22.2095 1.12498 21.2482 1.12498H15.2518C14.2952 1.12498 13.446 1.77016 13.1842 2.70015L12.9774 3.47001C12.8159 3.53373 12.6558 3.59993 12.4978 3.66832L11.804 3.2761C10.9757 2.79738 9.91796 2.93717 9.22885 3.61888L4.99582 7.85768C4.31412 8.53169 4.16882 9.58912 4.64508 10.4334L5.01779 11.0819C4.94363 11.247 4.86453 11.4293 4.78818 11.6205L4.07462 11.8152C3.14737 12.0657 2.5 12.9133 2.5 13.8768V19.8731C2.5 20.8367 3.14737 21.6842 4.07269 21.9342L4.8714 22.1528C4.931 22.2981 4.99445 22.4448 5.06201 22.595L4.64261 23.3207C4.16882 24.1608 4.31412 25.2183 4.99335 25.8898L9.23215 30.1347C9.71609 30.6106 10.403 30.835 11.0666 30.7342C11.7989 30.6146 11.6227 29.5167 10.8985 29.6219C10.5807 29.6686 10.2536 29.5612 10.0248 29.3362L5.78683 25.0925C5.46493 24.7741 5.39737 24.2726 5.61957 23.8785L6.18207 22.9054C6.42366 22.4193 5.92512 21.9509 5.81492 21.4815C5.7503 21.3151 5.61078 21.1888 5.43857 21.1418L4.36795 20.8487C3.93042 20.7306 3.625 20.3294 3.625 19.8731V13.8768C3.625 13.4206 3.93042 13.0193 4.36932 12.901L5.35946 12.631C5.53552 12.5829 5.67724 12.4524 5.73987 12.281C5.87094 11.7141 6.37735 11.2984 6.13764 10.7726C6.13757 10.7726 5.62258 9.87669 5.62258 9.87669C5.39736 9.47734 5.46493 8.97581 5.7893 8.65501L10.0223 4.41621C10.3495 4.09294 10.8507 4.024 11.2457 4.25279L12.1908 4.78728C12.6835 5.01868 13.1599 4.5268 13.6429 4.41958C13.8132 4.35579 13.9423 4.21406 13.9895 4.03855L14.2691 2.9987C14.393 2.55787 14.797 2.24998 15.2518 2.24998H21.2482C21.7035 2.24998 22.1045 2.55596 22.2243 2.99349L22.4715 3.9048C22.6564 4.43977 23.5029 4.44193 23.9568 4.72775C24.3361 4.92581 24.8547 4.4374 25.2516 4.25115C25.6465 4.0251 26.1481 4.09185 26.47 4.41402L30.7112 8.65529C31.0331 8.97746 31.1002 9.47844 30.8733 9.87422C30.7272 10.1819 30.3276 10.6109 30.5371 10.9646C30.7508 11.3975 30.9551 11.8754 31.1441 12.3849C31.2067 12.5535 31.3462 12.6823 31.5193 12.7309L32.1263 12.9012C32.5674 13.0204 32.875 13.4214 32.875 13.8768V19.8732C32.875 20.3285 32.5674 20.7295 32.1235 20.8493C31.8033 20.9693 31.1814 20.988 31.0705 21.3824C30.9205 21.7892 30.7299 22.219 30.4888 22.6961C30.4036 22.865 30.4086 23.0655 30.503 23.2297L30.8738 23.8766C31.1001 24.2715 31.0331 24.7725 30.7112 25.0947L26.47 29.3357C26.2563 29.5491 25.953 29.6532 25.6564 29.629C24.9158 29.5715 24.8272 30.6776 25.5587 30.7496C26.1876 30.8053 26.818 30.5807 27.2654 30.1314L31.5066 25.8901C32.3352 25.0729 32.2839 23.8373 31.628 22.9304C31.778 22.6208 31.9082 22.3275 32.0213 22.0443C33.1063 21.8669 34.0152 21.0142 34 19.8731C34 19.8731 34 13.8768 34 13.8768C34 12.9141 33.3502 12.0666 32.4251 11.8166Z" fill="#81807F"/>
<path d="M29.8214 16.92C29.8214 10.5617 24.6485 5.38879 18.2902 5.38879C7.32231 5.40105 2.57302 19.4648 11.3061 26.0975C11.8956 26.5382 12.5697 25.6538 11.9881 25.2026C4.1063 19.2179 8.39262 6.52306 18.2903 6.51383C28.1838 6.52334 32.4744 19.2129 24.5973 25.1969C24.3503 25.3853 24.303 25.7382 24.4914 25.9851C24.6793 26.2318 25.0314 26.2799 25.2797 26.0917C28.1658 23.8917 29.8214 20.5488 29.8214 16.92Z" fill="#81807F"/>
<path d="M13.5196 10.0121C14.0761 9.62678 14.6778 9.30982 15.3082 9.07005C15.9943 8.79597 15.6038 7.76738 14.9082 8.01866C14.1931 8.29057 13.5105 8.6501 12.8791 9.08707C12.6237 9.26395 12.5599 9.61442 12.7368 9.86985C12.9148 10.1269 13.267 10.1875 13.5196 10.0121Z" fill="#81807F"/>
<path d="M9.33566 17.5004C9.6463 17.5004 9.89789 17.2293 9.89789 16.9187C9.89789 16.2392 9.97919 15.5635 10.1396 14.9104C10.2137 14.6088 10.0292 14.3042 9.72733 14.23C9.4263 14.1562 9.12088 14.3402 9.047 14.6423C8.86518 15.3828 8.77289 16.1488 8.77344 16.9417L9.33594 16.9574H8.77344C8.77344 17.268 9.02503 17.5004 9.33566 17.5004Z" fill="#81807F"/>
<path d="M12.9132 24.7728C13.5187 25.1858 14.156 24.2652 13.5498 23.845C12.9926 23.4627 12.4814 23.0131 12.0307 22.5085C11.8239 22.2767 11.4682 22.2564 11.2367 22.4637C11.0049 22.6706 10.9848 23.0262 11.1919 23.2578C11.7025 23.8296 12.2818 24.3394 12.9132 24.7728Z" fill="#81807F"/>
<path d="M11.9597 10.5614C11.7273 10.3552 11.3716 10.3766 11.1656 10.6089C10.6567 11.1827 10.218 11.8177 9.86154 12.4961C9.71707 12.7713 9.82281 13.1114 10.0977 13.2558C10.3671 13.3988 10.7125 13.2971 10.8575 13.0196C11.1717 12.4214 11.5587 11.8614 12.0072 11.3555C12.2134 11.1228 12.192 10.7674 11.9597 10.5614Z" fill="#81807F"/>
<path d="M9.87936 21.3766C10.0257 21.6536 10.3709 21.7539 10.6399 21.6098C10.9143 21.464 11.0186 21.1237 10.8731 20.8493C10.5558 20.2516 10.3119 19.6166 10.1483 18.9618C9.95764 18.2479 8.88953 18.5137 9.05676 19.2349C9.24271 19.9778 9.51929 20.6985 9.87936 21.3766Z" fill="#81807F"/>
<path d="M23.3878 10.0781C23.9216 10.0983 24.1654 9.3341 23.7004 9.04753C23.0726 8.62867 22.3821 8.28343 21.6476 8.02113C20.9467 7.78341 20.5778 8.82148 21.2697 9.08076C22.0698 9.29183 22.8088 9.93419 23.3878 10.0781Z" fill="#81807F"/>
<path d="M17.271 8.58609C17.9766 8.48639 18.6712 8.53009 19.3598 8.61438C20.0497 8.60922 20.1215 7.59086 19.4322 7.49405C18.7028 7.3916 17.8822 7.36767 17.1353 7.46932C16.8269 7.50668 16.6074 7.7871 16.6448 8.09554C16.6821 8.40398 16.9628 8.6218 17.271 8.58609Z" fill="#81807F"/>
<path d="M25.4331 10.5639C24.9442 10.0146 24.1051 10.7521 24.5883 11.3071C25.0288 11.8076 25.4079 12.3698 25.7155 12.9779C25.8144 13.1737 26.0127 13.2866 26.2181 13.2866C26.6246 13.2956 26.9142 12.8316 26.7196 12.4703C26.3692 11.7771 25.9363 11.1357 25.4331 10.5639Z" fill="#81807F"/>
<path d="M24.6135 22.5016C24.1724 23.0081 23.6654 23.4561 23.1067 23.8332C22.6456 24.1212 22.8893 24.8825 23.4221 24.8617C24.2262 24.6313 24.8817 23.8249 25.4617 23.2411C25.666 23.0067 25.6413 22.6513 25.4073 22.4473C25.1738 22.2443 24.8189 22.2679 24.6135 22.5016Z" fill="#81807F"/>
<path d="M27.7627 16.8978C27.7616 16.1315 27.6732 15.3671 27.4996 14.6258C27.3195 13.9092 26.2477 14.1588 26.4042 14.8818C26.5581 15.5399 26.6366 16.2188 26.6377 16.8994C26.6383 17.2098 26.8898 17.4611 27.2002 17.4611C27.5109 17.4612 27.7633 17.2088 27.7627 16.8978Z" fill="#81807F"/>
<path d="M26.4135 18.919C26.2602 19.587 26.0312 20.2283 25.7323 20.8251C25.4072 21.4817 26.4026 21.9869 26.7387 21.3288C27.0776 20.6515 27.3369 19.9253 27.5099 19.17C27.5791 18.8674 27.3902 18.5655 27.0875 18.4963C26.7848 18.4249 26.4827 18.6158 26.4135 18.919Z" fill="#81807F"/>
<path d="M23.4217 25.9L21.1074 24.9744V22.2756L23.4217 21.35C24.0655 21.0925 24.4825 20.4771 24.4824 19.7831V14.5563C24.4824 13.8626 24.066 13.2473 23.4217 12.9894L22.0879 12.4563C21.3805 12.1489 20.5225 12.7288 20.5449 13.5006V16.6072C20.4516 19.5797 16.1388 19.5806 16.0449 16.6072V13.5006C16.0677 12.7298 15.2095 12.1477 14.5022 12.456L13.1682 12.9894C12.5238 13.2473 12.1074 13.8623 12.1074 14.5563V19.7831C12.1074 20.4772 12.5238 21.0921 13.1682 21.35L15.4824 22.2756V24.9744L13.1682 25.9C12.5238 26.1579 12.1074 26.7729 12.1074 27.4669V32.6937C12.1074 33.3877 12.5238 34.0027 13.1682 34.2603L14.5022 34.7943C15.2103 35.1008 16.067 34.5214 16.0449 33.7494V30.6428C16.1402 27.6692 20.4505 27.6698 20.5449 30.6428C20.5449 30.6428 20.5449 33.7495 20.5449 33.7495C20.5223 34.5205 21.3813 35.1015 22.0874 34.7942C22.0874 34.7943 23.4222 34.2603 23.4222 34.2603C24.066 34.0027 24.4824 33.3875 24.4824 32.6937V27.4669C24.4824 26.7731 24.066 26.1579 23.4217 25.9ZM23.3574 32.6937C23.3574 32.9249 23.2184 33.1301 23.0042 33.2158L21.6699 33.7495V30.6428C21.6699 28.7817 20.156 27.2678 18.2949 27.2678C16.4338 27.2678 14.9199 28.7817 14.9199 30.6428V33.7497L13.5862 33.2158C13.3711 33.1301 13.2324 32.9249 13.2324 32.6937V27.4669C13.2324 27.2357 13.3711 27.0305 13.5862 26.9448L16.2539 25.8778C16.4673 25.7923 16.6074 25.5852 16.6074 25.3554V21.8947C16.6074 21.6648 16.4673 21.4577 16.2539 21.3723L13.5862 20.3052C13.3711 20.2195 13.2324 20.0144 13.2324 19.7831V14.5564C13.2324 14.3251 13.3711 14.1199 13.5859 14.0342L14.9199 13.5006V16.6072C14.9199 18.4683 16.4338 19.9822 18.2949 19.9822C20.156 19.9822 21.6699 18.4683 21.6699 16.6072V13.5008L23.0037 14.034C23.2184 14.1199 23.3574 14.3251 23.3574 14.5564V19.7831C23.3574 20.0144 23.2184 20.2195 23.0037 20.3055L20.3362 21.3723C20.1225 21.4577 19.9824 21.6648 19.9824 21.8947V25.3554C19.9824 25.5852 20.1225 25.7923 20.3362 25.8778L23.0037 26.9445C23.2184 27.0305 23.3574 27.2357 23.3574 27.4669V32.6937Z" fill="#81807F"/>
</svg>
