<svg width="16" height="17" viewBox="0 0 16 17" fill="none" xmlns="http://www.w3.org/2000/svg">
<path fill-rule="evenodd" clip-rule="evenodd" d="M3.97487 1.78772C3.22894 1.78772 2.51354 2.08397 1.98598 2.61132C1.45843 3.13867 1.16191 3.85396 1.16162 4.59989V12.1019C1.16162 12.848 1.45802 13.5636 1.9856 14.0912C2.51319 14.6187 3.22875 14.9151 3.97487 14.9151H11.4769C12.2228 14.9149 12.9381 14.6183 13.4654 14.0908C13.9928 13.5632 14.289 12.8478 14.289 12.1019V4.59989C14.2888 3.85414 13.9924 3.13902 13.4651 2.6117C12.9377 2.08438 12.2226 1.78801 11.4769 1.78772H3.97487ZM12.2861 4.60421C12.2861 4.81911 12.2007 5.0252 12.0487 5.17716C11.8968 5.32911 11.6907 5.41448 11.4758 5.41448C11.2609 5.41448 11.0548 5.32911 10.9028 5.17716C10.7509 5.0252 10.6655 4.81911 10.6655 4.60421C10.6655 4.38931 10.7509 4.18322 10.9028 4.03126C11.0548 3.87931 11.2609 3.79394 11.4758 3.79394C11.6907 3.79394 11.8968 3.87931 12.0487 4.03126C12.2007 4.18322 12.2861 4.38931 12.2861 4.60421ZM7.72695 6.10375C7.13097 6.10375 6.5594 6.3405 6.13798 6.76192C5.71656 7.18334 5.47981 7.75491 5.47981 8.35089C5.47981 8.94687 5.71656 9.51844 6.13798 9.93986C6.5594 10.3613 7.13097 10.598 7.72695 10.598C8.32293 10.598 8.8945 10.3613 9.31592 9.93986C9.73734 9.51844 9.97409 8.94687 9.97409 8.35089C9.97409 7.75491 9.73734 7.18334 9.31592 6.76192C8.8945 6.3405 8.32293 6.10375 7.72695 6.10375ZM4.39837 8.35089C4.39837 7.46838 4.74895 6.62202 5.37297 5.99799C5.997 5.37396 6.84336 5.02339 7.72587 5.02339C8.60838 5.02339 9.45474 5.37396 10.0788 5.99799C10.7028 6.62202 11.0534 7.46838 11.0534 8.35089C11.0534 9.2334 10.7028 10.0798 10.0788 10.7038C9.45474 11.3278 8.60838 11.6784 7.72587 11.6784C6.84336 11.6784 5.997 11.3278 5.37297 10.7038C4.74895 10.0798 4.39837 9.2334 4.39837 8.35089Z" fill="#848382"/>
</svg>
