<svg width="55" height="54" viewBox="0 0 55 54" fill="none" xmlns="http://www.w3.org/2000/svg">
<g clip-path="url(#clip0_31_363)">
<path d="M51.2917 54H4.04175C2.17792 54 0.666748 52.4888 0.666748 50.625V3.375C0.666748 1.51117 2.17792 0 4.04175 0H51.2917C53.1556 0 54.6667 1.51117 54.6667 3.375V50.625C54.6667 52.4888 53.1556 54 51.2917 54ZM4.04175 2.24986C3.42047 2.24986 2.91661 2.75372 2.91661 3.375V50.625C2.91661 51.2463 3.42047 51.7501 4.04175 51.7501H51.2917C51.913 51.7501 52.4169 51.2463 52.4169 50.625V3.375C52.4169 2.75372 51.913 2.24986 51.2917 2.24986H4.04175Z" fill="#B3B3B2"/>
<path d="M53.5417 11.2501H14.1669C13.8686 11.2501 13.5822 11.1315 13.3713 10.9205L11.451 8.99986H7.8824L5.96213 10.9205C5.75119 11.1315 5.46527 11.2501 5.16699 11.2501H1.79199V8.99986H4.70103L6.62131 7.07959C6.83224 6.86865 7.11858 6.75 7.41685 6.75H11.917C12.2153 6.75 12.5012 6.86865 12.7121 7.07959L14.6324 8.99986H53.5417V11.2501Z" fill="#B3B3B2"/>
<path d="M47.9167 4.50014H50.1666V6.75H47.9167V4.50014Z" fill="#B3B3B2"/>
<path d="M27.6667 4.50014H45.6669V6.75H27.6667V4.50014Z" fill="#B3B3B2"/>
<path d="M29.9165 31.5001H13.0415C11.1777 31.5001 9.6665 29.989 9.6665 28.1251V21.3751C9.6665 19.5109 11.1777 18.0001 13.0415 18.0001H36.6665V20.25H13.0415C12.4202 20.25 11.9168 20.7539 11.9168 21.3751V28.1251C11.9168 28.7464 12.4202 29.2499 13.0415 29.2499H29.9165V31.5001Z" fill="#B3B3B2"/>
<path d="M36.6666 35.9999C31.696 35.9999 27.6667 31.9706 27.6667 27C27.6667 22.0294 31.696 18.0001 36.6666 18.0001C41.6372 18.0001 45.6669 22.0294 45.6669 27C45.6611 31.9682 41.6352 35.9945 36.6666 35.9999ZM36.6666 20.25C32.9389 20.25 29.9166 23.2719 29.9166 27C29.9166 30.7281 32.9389 33.75 36.6666 33.75C40.3947 33.75 43.4166 30.7281 43.4166 27C43.4129 23.2736 40.393 20.2537 36.6666 20.25Z" fill="#B3B3B2"/>
<path d="M41.4956 33.4204L43.0867 31.8293L49.8363 38.5793L48.2456 40.17L41.4956 33.4204Z" fill="#B3B3B2"/>
<path d="M7.41685 18.0001H5.16699V14.6251C5.16699 14.0039 5.67044 13.5 6.29172 13.5H9.66672V15.7499H7.41685V18.0001Z" fill="#B3B3B2"/>
<path d="M50.1667 18.0001H47.9169V15.7499H45.667V13.5H49.042C49.6633 13.5 50.1667 14.0039 50.1667 14.6251V18.0001Z" fill="#B3B3B2"/>
<path d="M9.66672 49.4999H6.29172C5.67044 49.4999 5.16699 48.9964 5.16699 48.3751V45.0001H7.41685V47.25H9.66672V49.4999Z" fill="#B3B3B2"/>
<path d="M49.042 49.4999H45.667V47.25H47.9169V45.0001H50.1667V48.3751C50.1667 48.9964 49.6633 49.4999 49.042 49.4999Z" fill="#B3B3B2"/>
<path d="M22.3714 45.7953L18.9964 42.4203C18.5572 41.9811 18.5572 41.2688 18.9964 40.8296L22.3714 37.4546L23.9621 39.0453L21.3822 41.6251L23.9621 44.2046L22.3714 45.7953Z" fill="#B3B3B2"/>
<path d="M32.962 45.7953L31.3713 44.2046L33.9512 41.6251L31.3713 39.0453L32.962 37.4546L36.337 40.8296C36.7762 41.2688 36.7762 41.9811 36.337 42.4203L32.962 45.7953Z" fill="#B3B3B2"/>
</g>
<defs>
<clipPath id="clip0_31_363">
<rect width="54" height="54" fill="white" transform="translate(0.666748)"/>
</clipPath>
</defs>
</svg>
