<svg width="24" height="24" viewBox="0 0 24 24" fill="none" xmlns="http://www.w3.org/2000/svg">
<path d="M21 22L18.853 19.853M18.853 19.853C19.4957 19.21 19.8568 18.3381 19.857 17.429C19.8571 16.6357 19.5821 15.8668 19.0788 15.2535C18.5756 14.6402 17.8752 14.2204 17.0971 14.0656C16.319 13.9108 15.5113 14.0306 14.8116 14.4045C14.112 14.7785 13.5636 15.3835 13.26 16.1165C12.9564 16.8495 12.9164 17.665 13.1467 18.4242C13.3771 19.1834 13.8635 19.8392 14.5232 20.2799C15.1829 20.7206 15.975 20.919 16.7645 20.8411C17.554 20.7633 18.2921 20.4141 18.853 19.853Z" stroke="#0080EF" stroke-width="1.5" stroke-linecap="round" stroke-linejoin="round"/>
<path d="M11 22H10.727C7.467 22 5.835 22 4.703 21.202C4.38085 20.9761 4.0929 20.705 3.848 20.397C3 19.331 3 17.797 3 14.727V12.182C3 9.219 3 7.737 3.469 6.554C4.223 4.651 5.817 3.151 7.839 2.441C9.095 2 10.668 2 13.818 2C15.616 2 16.516 2 17.234 2.252C18.389 2.658 19.3 3.515 19.731 4.602C20 5.278 20 6.125 20 7.818V12" stroke="#0080EF" stroke-width="1.5" stroke-linecap="round" stroke-linejoin="round"/>
<path d="M3 12C3 11.116 3.35115 10.2683 3.97621 9.64321C4.60127 9.01815 5.44903 8.667 6.333 8.667C6.999 8.667 7.784 8.783 8.431 8.61C8.71371 8.53392 8.97145 8.38485 9.17838 8.17774C9.38531 7.97064 9.53416 7.71277 9.61 7.43C9.783 6.783 9.667 5.998 9.667 5.332C9.66726 4.44821 10.0185 3.6007 10.6436 2.97586C11.2686 2.35102 12.1162 2 13 2" stroke="#0080EF" stroke-width="1.5" stroke-linecap="round" stroke-linejoin="round"/>
</svg>
