<svg width="37" height="36" viewBox="0 0 37 36" fill="none" xmlns="http://www.w3.org/2000/svg">
<g id="Layer_1">
<path id="Vector" d="M18.5 22.5C20.9853 22.5 23 20.4853 23 18C23 15.5147 20.9853 13.5 18.5 13.5C16.0147 13.5 14 15.5147 14 18C14 20.4853 16.0147 22.5 18.5 22.5Z" fill="white"/>
<g id="Group">
<path id="Vector_2" d="M25.357 22.4438L24.4851 21.1388C24.6832 20.765 24.8451 20.3732 24.9688 19.9688L26.5101 19.6875C26.6391 19.6612 26.7547 19.5905 26.8369 19.4877C26.9192 19.385 26.9627 19.2566 26.9601 19.125V16.875C26.9627 16.7434 26.9192 16.615 26.8369 16.5123C26.7547 16.4095 26.6391 16.3388 26.5101 16.3125L24.9688 16.0031C24.8441 15.599 24.6822 15.2073 24.4851 14.8331L25.357 13.5C25.4285 13.3916 25.4603 13.2618 25.4469 13.1326C25.4336 13.0034 25.376 12.8828 25.2838 12.7912L23.692 11.25C23.6043 11.1584 23.4883 11.0992 23.3627 11.0818C23.2371 11.0644 23.1093 11.09 23.0001 11.1544L21.6951 12.0206C21.3214 11.8226 20.9296 11.6606 20.5251 11.5369L20.1876 10.0013C20.159 9.87436 20.0874 9.7613 19.9848 9.6813C19.8822 9.6013 19.7551 9.55932 19.6251 9.5625H17.3751C17.2427 9.56009 17.1137 9.60447 17.0108 9.68781C16.9079 9.77115 16.8377 9.88812 16.8126 10.0181L16.5032 11.5538C16.0991 11.6785 15.7074 11.8404 15.3332 12.0375L14.0282 11.1713C13.9204 11.099 13.791 11.0663 13.6618 11.0786C13.5326 11.0909 13.4117 11.1475 13.3195 11.2387L11.7501 12.8138C11.666 12.9057 11.6149 13.0231 11.6047 13.1473C11.5945 13.2715 11.6259 13.3955 11.6938 13.5L12.5657 14.805C12.3645 15.1779 12.2005 15.5698 12.0763 15.975L10.5407 16.3125C10.4066 16.3328 10.2843 16.401 10.1965 16.5043C10.1086 16.6077 10.0611 16.7393 10.0626 16.875V19.125C10.0602 19.2574 10.1046 19.3864 10.1879 19.4893C10.2712 19.5922 10.3882 19.6624 10.5182 19.6875L12.0538 19.9969C12.177 20.4024 12.341 20.7944 12.5432 21.1669L11.6938 22.4438C11.6202 22.5503 11.5855 22.679 11.5958 22.8081C11.606 22.9373 11.6605 23.0589 11.7501 23.1525L13.3532 24.75C13.4448 24.8421 13.5653 24.8998 13.6945 24.9131C13.8237 24.9264 13.9536 24.8946 14.062 24.8231L15.367 23.9513C15.7412 24.1484 16.1328 24.3103 16.537 24.435L16.8463 25.9763C16.8726 26.1052 16.9433 26.2209 17.0461 26.3031C17.1489 26.3853 17.2772 26.4289 17.4088 26.4263H19.6588C19.7904 26.4289 19.9188 26.3853 20.0216 26.3031C20.1244 26.2209 20.195 26.1052 20.2213 25.9763L20.5307 24.435C20.9352 24.3113 21.327 24.1493 21.7007 23.9513L23.0001 24.8175C23.1063 24.8854 23.2322 24.9157 23.3577 24.9034C23.4832 24.8912 23.6009 24.8372 23.692 24.75L25.2838 23.1581C25.3774 23.0662 25.4359 22.9446 25.4492 22.8141C25.4626 22.6837 25.43 22.5527 25.357 22.4438ZM23.3545 21.4763L24.1645 22.6856L23.2251 23.625L22.0157 22.815C21.9257 22.758 21.8213 22.7277 21.7148 22.7277C21.6082 22.7277 21.5039 22.758 21.4138 22.815C20.9398 23.0996 20.4261 23.3119 19.8895 23.445C19.7855 23.4709 19.6911 23.5259 19.6174 23.6037C19.5436 23.6814 19.4936 23.7786 19.4732 23.8837L19.1863 25.3125H17.8588L17.572 23.8894C17.552 23.7849 17.5028 23.6882 17.4302 23.6106C17.3575 23.5329 17.2643 23.4775 17.1613 23.4506C16.6244 23.3186 16.1105 23.1062 15.637 22.8206C15.5469 22.7636 15.4426 22.7334 15.336 22.7334C15.2295 22.7334 15.1251 22.7636 15.0351 22.8206L13.8201 23.625L12.8751 22.6856L13.6795 21.4763C13.7365 21.3862 13.7667 21.2819 13.7667 21.1753C13.7667 21.0688 13.7365 20.9644 13.6795 20.8744C13.3972 20.3992 13.185 19.8858 13.0495 19.35C13.024 19.2468 12.9698 19.1529 12.8931 19.0792C12.8165 19.0055 12.7205 18.9551 12.6163 18.9338L11.1876 18.6469V17.3194L12.6163 17.0325C12.7198 17.0116 12.8153 16.962 12.8919 16.8894C12.9684 16.8168 13.0231 16.7241 13.0495 16.6219C13.184 16.0857 13.3962 15.5722 13.6795 15.0975C13.7365 15.0075 13.7667 14.9031 13.7667 14.7966C13.7667 14.69 13.7365 14.5856 13.6795 14.4956L12.8751 13.2806L13.8088 12.3413L15.0238 13.1512C15.1139 13.2083 15.2182 13.2385 15.3248 13.2385C15.4313 13.2385 15.5357 13.2083 15.6257 13.1512C16.1004 12.868 16.614 12.6557 17.1501 12.5213C17.2523 12.4948 17.345 12.4402 17.4176 12.3636C17.4902 12.287 17.5398 12.1916 17.5607 12.0881L17.8588 10.6875H19.1863L19.4732 12.1163C19.4946 12.2204 19.545 12.3164 19.6187 12.393C19.6924 12.4697 19.7862 12.5239 19.8895 12.5494C20.4253 12.6849 20.9387 12.8971 21.4138 13.1794C21.5039 13.2364 21.6082 13.2666 21.7148 13.2666C21.8213 13.2666 21.9257 13.2364 22.0157 13.1794L23.2251 12.3694L24.1645 13.3087L23.3545 14.5237C23.2975 14.6138 23.2672 14.7181 23.2672 14.8247C23.2672 14.9312 23.2975 15.0356 23.3545 15.1256C23.64 15.5991 23.8524 16.113 23.9845 16.65C24.0113 16.7529 24.0668 16.8461 24.1444 16.9188C24.2221 16.9915 24.3187 17.0407 24.4232 17.0606L25.8463 17.3475V18.675L24.4232 18.9619C24.318 18.9823 24.2209 19.0323 24.1431 19.106C24.0654 19.1798 24.0104 19.2742 23.9845 19.3781C23.8514 19.9147 23.639 20.4285 23.3545 20.9025C23.303 20.9893 23.2758 21.0884 23.2758 21.1894C23.2758 21.2903 23.303 21.3894 23.3545 21.4763Z" fill="#848382"/>
<path id="Vector_3" d="M18.5 13.5C17.61 13.5 16.74 13.7639 15.9999 14.2584C15.2599 14.7529 14.6831 15.4557 14.3425 16.2779C14.0019 17.1002 13.9128 18.005 14.0865 18.8779C14.2601 19.7508 14.6887 20.5526 15.318 21.182C15.9474 21.8113 16.7492 22.2399 17.6221 22.4135C18.495 22.5872 19.3998 22.4981 20.2221 22.1575C21.0443 21.8169 21.7471 21.2401 22.2416 20.5001C22.7361 19.76 23 18.89 23 18C23 16.8065 22.5259 15.6619 21.682 14.818C20.8381 13.9741 19.6935 13.5 18.5 13.5ZM18.5 21.375C17.8325 21.375 17.18 21.1771 16.625 20.8062C16.0699 20.4354 15.6374 19.9083 15.3819 19.2916C15.1265 18.6749 15.0596 17.9963 15.1899 17.3416C15.3201 16.6869 15.6415 16.0855 16.1135 15.6135C16.5855 15.1415 17.1869 14.8201 17.8416 14.6898C18.4963 14.5596 19.1749 14.6265 19.7916 14.8819C20.4083 15.1374 20.9354 15.5699 21.3062 16.125C21.6771 16.68 21.875 17.3325 21.875 18C21.875 18.8951 21.5194 19.7536 20.8865 20.3865C20.2536 21.0194 19.3951 21.375 18.5 21.375Z" fill="#848382"/>
<path id="Vector_4" d="M17.9375 7.23938V7.87501C17.9375 8.02419 17.9968 8.16726 18.1023 8.27275C18.2077 8.37824 18.3508 8.43751 18.5 8.43751C18.6492 8.43751 18.7923 8.37824 18.8978 8.27275C19.0032 8.16726 19.0625 8.02419 19.0625 7.87501V7.25626C19.7454 7.11686 20.3522 6.72886 20.7653 6.16749C21.1784 5.60611 21.3683 4.91135 21.2983 4.2179C21.2282 3.52445 20.9032 2.88171 20.3862 2.41429C19.8691 1.94687 19.197 1.68808 18.5 1.68808C17.803 1.68808 17.1309 1.94687 16.6139 2.41429C16.0968 2.88171 15.7718 3.52445 15.7017 4.2179C15.6317 4.91135 15.8216 5.60611 16.2347 6.16749C16.6478 6.72886 17.2546 7.11686 17.9375 7.25626V7.23938ZM18.5 2.81251C18.8338 2.81251 19.16 2.91148 19.4375 3.0969C19.715 3.28233 19.9313 3.54588 20.0591 3.85423C20.1868 4.16258 20.2202 4.50188 20.1551 4.82922C20.09 5.15656 19.9292 5.45725 19.6932 5.69325C19.4572 5.92925 19.1566 6.08997 18.8292 6.15508C18.5019 6.22019 18.1626 6.18678 17.8542 6.05905C17.5459 5.93133 17.2823 5.71504 17.0969 5.43753C16.9115 5.16002 16.8125 4.83376 16.8125 4.50001C16.8125 4.05245 16.9903 3.62323 17.3068 3.30676C17.6232 2.9903 18.0525 2.81251 18.5 2.81251Z" fill="#848382"/>
<path id="Vector_5" d="M10.5112 10.7719L10.9443 11.2106C10.9966 11.2633 11.0589 11.3052 11.1274 11.3338C11.1959 11.3623 11.2695 11.377 11.3437 11.377C11.418 11.377 11.4915 11.3623 11.56 11.3338C11.6286 11.3052 11.6908 11.2633 11.7431 11.2106C11.8479 11.1052 11.9067 10.9627 11.9067 10.8141C11.9067 10.6655 11.8479 10.5229 11.7431 10.4175L11.3043 9.97875C11.6891 9.39741 11.8442 8.6939 11.7397 8.00466C11.6351 7.31542 11.2783 6.68957 10.7384 6.2485C10.1986 5.80744 9.51415 5.58259 8.81789 5.61756C8.12164 5.65253 7.46319 5.94483 6.97025 6.43778C6.47731 6.93072 6.185 7.58917 6.15003 8.28542C6.11506 8.98167 6.33991 9.6661 6.78097 10.206C7.22204 10.7458 7.84789 11.1026 8.53713 11.2072C9.22637 11.3118 9.92988 11.1566 10.5112 10.7719ZM7.76622 7.23375C8.00214 6.99754 8.30282 6.83661 8.63022 6.77133C8.95762 6.70605 9.29703 6.73934 9.6055 6.867C9.91397 6.99467 10.1776 7.21096 10.3632 7.48851C10.5487 7.76606 10.6477 8.09241 10.6477 8.42625C10.6477 8.7601 10.5487 9.08644 10.3632 9.364C10.1776 9.64155 9.91397 9.85784 9.6055 9.9855C9.29703 10.1132 8.95762 10.1465 8.63022 10.0812C8.30282 10.0159 8.00214 9.85496 7.76622 9.61875C7.45021 9.30235 7.27271 8.87344 7.27271 8.42625C7.27271 7.97906 7.45021 7.55016 7.76622 7.23375Z" fill="#848382"/>
<path id="Vector_6" d="M7.7388 18.5625H8.37443C8.52361 18.5625 8.66668 18.5032 8.77217 18.3978C8.87766 18.2923 8.93693 18.1492 8.93693 18C8.93693 17.8508 8.87766 17.7077 8.77217 17.6023C8.66668 17.4968 8.52361 17.4375 8.37443 17.4375H7.75568C7.61628 16.7546 7.22828 16.1478 6.66691 15.7347C6.10553 15.3216 5.41077 15.1317 4.71732 15.2017C4.02387 15.2718 3.38113 15.5968 2.91371 16.1139C2.4463 16.6309 2.1875 17.303 2.1875 18C2.1875 18.697 2.4463 19.3691 2.91371 19.8862C3.38113 20.4032 4.02387 20.7282 4.71732 20.7983C5.41077 20.8683 6.10553 20.6784 6.66691 20.2653C7.22828 19.8522 7.61628 19.2454 7.75568 18.5625H7.7388ZM4.99943 19.6875C4.66567 19.6875 4.33941 19.5885 4.0619 19.4031C3.78439 19.2177 3.5681 18.9541 3.44038 18.6458C3.31266 18.3374 3.27924 17.9981 3.34435 17.6708C3.40946 17.3434 3.57018 17.0428 3.80618 16.8068C4.04218 16.5708 4.34287 16.41 4.67021 16.3449C4.99755 16.2798 5.33685 16.3132 5.6452 16.441C5.95355 16.5687 6.21711 16.785 6.40253 17.0625C6.58796 17.34 6.68693 17.6662 6.68693 18C6.68693 18.4476 6.50914 18.8768 6.19267 19.1932C5.8762 19.5097 5.44698 19.6875 4.99943 19.6875Z" fill="#848382"/>
<path id="Vector_7" d="M11.7099 24.75C11.6045 24.6452 11.4619 24.5864 11.3133 24.5864C11.1647 24.5864 11.0222 24.6452 10.9168 24.75L10.478 25.1887C9.89668 24.804 9.19317 24.6489 8.50393 24.7534C7.81468 24.858 7.18884 25.2148 6.74777 25.7547C6.3067 26.2945 6.08185 26.979 6.11683 27.6752C6.1518 28.3715 6.4441 29.0299 6.93705 29.5228C7.42999 30.0158 8.08844 30.3081 8.78469 30.3431C9.48094 30.378 10.1654 30.1532 10.7052 29.7121C11.2451 29.2711 11.6019 28.6452 11.7065 27.956C11.811 27.2667 11.6559 26.5632 11.2711 25.9819L11.7099 25.5487C11.7626 25.4965 11.8045 25.4342 11.833 25.3657C11.8616 25.2972 11.8763 25.2236 11.8763 25.1494C11.8763 25.0751 11.8616 25.0016 11.833 24.933C11.8045 24.8645 11.7626 24.8023 11.7099 24.75ZM10.118 28.7325C9.8821 28.9687 9.58142 29.1296 9.25402 29.1949C8.92662 29.2602 8.58721 29.2269 8.27874 29.0992C7.97027 28.9716 7.70659 28.7553 7.52108 28.4777C7.33556 28.2002 7.23653 27.8738 7.23653 27.54C7.23653 27.2062 7.33556 26.8798 7.52108 26.6023C7.70659 26.3247 7.97027 26.1084 8.27874 25.9807C8.58721 25.8531 8.92662 25.8198 9.25402 25.8851C9.58142 25.9504 9.8821 26.1113 10.118 26.3475C10.434 26.6639 10.6115 27.0928 10.6115 27.54C10.6115 27.9872 10.434 28.4161 10.118 28.7325Z" fill="#848382"/>
<path id="Vector_8" d="M19.0625 28.7606V28.125C19.0625 27.9758 19.0032 27.8327 18.8978 27.7273C18.7923 27.6218 18.6492 27.5625 18.5 27.5625C18.3508 27.5625 18.2077 27.6218 18.1023 27.7273C17.9968 27.8327 17.9375 27.9758 17.9375 28.125V28.7437C17.2546 28.8831 16.6478 29.2711 16.2347 29.8325C15.8216 30.3939 15.6317 31.0887 15.7017 31.7821C15.7718 32.4756 16.0968 33.1183 16.6139 33.5857C17.1309 34.0531 17.803 34.3119 18.5 34.3119C19.197 34.3119 19.8691 34.0531 20.3862 33.5857C20.9032 33.1183 21.2282 32.4756 21.2983 31.7821C21.3683 31.0887 21.1784 30.3939 20.7653 29.8325C20.3522 29.2711 19.7454 28.8831 19.0625 28.7437V28.7606ZM18.5 33.1875C18.1662 33.1875 17.84 33.0885 17.5625 32.9031C17.285 32.7177 17.0687 32.4541 16.941 32.1458C16.8132 31.8374 16.7798 31.4981 16.8449 31.1708C16.91 30.8434 17.0708 30.5428 17.3068 30.3068C17.5428 30.0708 17.8434 29.91 18.1708 29.8449C18.4981 29.7798 18.8374 29.8132 19.1458 29.941C19.4541 30.0687 19.7177 30.285 19.9031 30.5625C20.0885 30.84 20.1875 31.1662 20.1875 31.5C20.1875 31.9476 20.0097 32.3768 19.6932 32.6932C19.3768 33.0097 18.9476 33.1875 18.5 33.1875Z" fill="#848382"/>
<path id="Vector_9" d="M26.4872 25.2281L26.0541 24.7894C26.0018 24.7367 25.9396 24.6948 25.8711 24.6662C25.8025 24.6377 25.729 24.623 25.6547 24.623C25.5805 24.623 25.507 24.6377 25.4384 24.6662C25.3699 24.6948 25.3077 24.7367 25.2554 24.7894C25.1506 24.8948 25.0918 25.0373 25.0918 25.1859C25.0918 25.3345 25.1506 25.4771 25.2554 25.5825L25.6941 26.0212C25.3094 26.6026 25.1542 27.3061 25.2588 27.9953C25.3634 28.6846 25.7202 29.3104 26.26 29.7515C26.7999 30.1926 27.4843 30.4174 28.1806 30.3824C28.8768 30.3475 29.5353 30.0552 30.0282 29.5622C30.5212 29.0693 30.8135 28.4108 30.8484 27.7146C30.8834 27.0183 30.6586 26.3339 30.2175 25.794C29.7764 25.2542 29.1506 24.8974 28.4613 24.7928C27.7721 24.6882 27.0686 24.8434 26.4872 25.2281ZM29.2322 28.7662C28.9963 29.0025 28.6956 29.1634 28.3682 29.2287C28.0408 29.294 27.7014 29.2607 27.393 29.133C27.0845 29.0053 26.8208 28.789 26.6353 28.5115C26.4498 28.2339 26.3508 27.9076 26.3508 27.5737C26.3508 27.2399 26.4498 26.9136 26.6353 26.636C26.8208 26.3585 27.0845 26.1422 27.393 26.0145C27.7014 25.8868 28.0408 25.8535 28.3682 25.9188C28.6956 25.9841 28.9963 26.145 29.2322 26.3812C29.5483 26.6977 29.7258 27.1266 29.7258 27.5737C29.7258 28.0209 29.5483 28.4498 29.2322 28.7662Z" fill="#848382"/>
<path id="Vector_10" d="M32 15.1875C31.3516 15.1874 30.7231 15.4113 30.2209 15.8213C29.7186 16.2313 29.3734 16.8022 29.2437 17.4375H28.625C28.4758 17.4375 28.3327 17.4968 28.2273 17.6023C28.1218 17.7077 28.0625 17.8508 28.0625 18C28.0625 18.1492 28.1218 18.2923 28.2273 18.3977C28.3327 18.5032 28.4758 18.5625 28.625 18.5625H29.2437C29.3502 19.0839 29.6023 19.5644 29.9709 19.9482C30.3396 20.332 30.8095 20.6033 31.3262 20.7307C31.8428 20.8581 32.385 20.8363 32.8898 20.6678C33.3946 20.4994 33.8412 20.1912 34.1778 19.779C34.5144 19.3668 34.7272 18.8676 34.7914 18.3394C34.8556 17.8111 34.7686 17.2755 34.5406 16.7947C34.3125 16.3139 33.9528 15.9077 33.503 15.6232C33.0533 15.3387 32.5321 15.1876 32 15.1875ZM32 19.6875C31.6662 19.6875 31.34 19.5885 31.0625 19.4031C30.785 19.2177 30.5687 18.9541 30.441 18.6458C30.3132 18.3374 30.2798 17.9981 30.3449 17.6708C30.41 17.3434 30.5708 17.0428 30.8068 16.8068C31.0428 16.5708 31.3434 16.41 31.6708 16.3449C31.9981 16.2798 32.3374 16.3132 32.6458 16.441C32.9541 16.5687 33.2177 16.785 33.4031 17.0625C33.5885 17.34 33.6875 17.6662 33.6875 18C33.6875 18.4476 33.5097 18.8768 33.1932 19.1932C32.8768 19.5097 32.4476 19.6875 32 19.6875Z" fill="#848382"/>
<path id="Vector_11" d="M25.2894 11.25C25.3948 11.3548 25.5374 11.4136 25.686 11.4136C25.8346 11.4136 25.9772 11.3548 26.0826 11.25L26.5213 10.8113C27.1026 11.196 27.8062 11.3511 28.4954 11.2466C29.1846 11.142 29.8105 10.7852 30.2516 10.2453C30.6926 9.70548 30.9175 9.02106 30.8825 8.32481C30.8475 7.62856 30.5552 6.97011 30.0623 6.47716C29.5693 5.98422 28.9109 5.69191 28.2146 5.65694C27.5184 5.62197 26.834 5.84682 26.2941 6.28789C25.7542 6.72895 25.3974 7.3548 25.2929 8.04404C25.1883 8.73328 25.3434 9.4368 25.7282 10.0181L25.2894 10.4513C25.2367 10.5036 25.1949 10.5658 25.1663 10.6343C25.1378 10.7029 25.123 10.7764 25.123 10.8506C25.123 10.9249 25.1378 10.9984 25.1663 11.067C25.1949 11.1355 25.2367 11.1977 25.2894 11.25ZM26.8813 7.27314C27.1172 7.03692 27.4179 6.876 27.7453 6.81071C28.0727 6.74543 28.4121 6.77873 28.7206 6.90639C29.0291 7.03405 29.2927 7.25034 29.4783 7.52789C29.6638 7.80545 29.7628 8.13179 29.7628 8.46564C29.7628 8.79948 29.6638 9.12582 29.4783 9.40338C29.2927 9.68093 29.0291 9.89722 28.7206 10.0249C28.4121 10.1525 28.0727 10.1858 27.7453 10.1206C27.4179 10.0553 27.1172 9.89435 26.8813 9.65814C26.724 9.50136 26.5992 9.31507 26.514 9.10995C26.4288 8.90484 26.385 8.68492 26.385 8.46282C26.385 8.24072 26.4288 8.02081 26.514 7.81569C26.5992 7.61057 26.724 7.42429 26.8813 7.26751V7.27314Z" fill="#848382"/>
</g>
</g>
</svg>
