<svg width="155" height="56" viewBox="0 0 155 56" fill="none" xmlns="http://www.w3.org/2000/svg">
<g clip-path="url(#clip0_1_346)">
<path d="M74.9457 6.13702C75.0717 6.51804 75.0352 6.59849 74.9054 6.96536C74.8703 7.0673 74.8352 7.16923 74.7991 7.27425C74.7406 7.44026 74.7406 7.44026 74.6808 7.60963C74.4145 8.37564 74.1677 9.1379 73.9714 9.92555C73.9365 10.0624 73.9016 10.1992 73.8657 10.3402C73.7992 10.6057 73.7358 10.872 73.6762 11.1391C73.4662 11.9614 73.2197 12.3494 72.4918 12.7876C72.3616 12.8588 72.3616 12.8588 72.2287 12.9315C72.1213 13.0002 72.0138 13.0689 71.9031 13.1396C71.8155 13.193 71.728 13.2464 71.6378 13.3014C67.5819 15.8862 64.6777 20.2723 63.5745 24.9477C62.8806 28.1005 62.8201 31.4742 63.5343 34.6302C63.5576 34.7335 63.5809 34.8369 63.6049 34.9434C64.4408 38.5274 66.1121 42.0081 68.751 44.6028C68.8227 44.6028 68.8944 44.6028 68.9683 44.6028C69.1008 44.443 69.2264 44.2774 69.3487 44.1096C70.2621 42.9337 71.4044 42.177 72.8808 41.9726C74.1286 41.8543 75.2783 42.1532 76.2499 42.9589C76.4794 43.1702 76.6902 43.3865 76.902 43.6165C76.7004 42.9426 76.7004 42.9426 76.379 42.322C76.3151 42.2033 76.3151 42.2033 76.2499 42.0822C76.3792 41.7182 76.5706 41.5359 76.868 41.3014C79.22 39.2685 79.3121 35.443 79.619 32.6576C81.9502 32.6576 84.2814 32.6576 86.6832 32.6576C86.7549 33.5255 86.8267 34.3935 86.9006 35.2877C87.263 37.5184 87.6988 39.7987 89.4002 41.4247C89.6959 41.6391 89.6959 41.6391 89.9436 41.7535C89.886 42.2179 89.7109 42.5688 89.4915 42.9735C89.3779 43.1907 89.3779 43.1907 89.4002 43.5069C89.4607 43.4487 89.5213 43.3905 89.5836 43.3305C90.606 42.3762 91.6117 41.9099 93.0223 41.9452C94.4307 42.0781 95.4531 42.6522 96.4644 43.6165C96.5039 43.557 96.5434 43.4975 96.5841 43.4362C96.9246 42.9477 97.1828 42.5928 97.7686 42.411C98.2926 42.3674 98.7827 42.3744 99.2901 42.5206C99.3199 42.4422 99.3496 42.3639 99.3803 42.2831C99.5067 41.9746 99.6498 41.684 99.8034 41.3883C102.688 35.7602 104.249 29.2526 102.395 23.0257C101.792 21.1178 100.897 19.291 99.6162 17.7535C99.512 17.625 99.4079 17.4966 99.3037 17.3682C97.7381 15.4604 95.458 13.4227 93.0925 12.5977C92.6153 12.2816 92.5589 11.9062 92.4157 11.3669C92.3719 11.2154 92.3719 11.2154 92.3273 11.0608C92.2345 10.7375 92.1451 10.4134 92.0561 10.0891C91.9371 9.66538 91.8166 9.2421 91.6957 8.81896C91.6526 8.66702 91.6526 8.66702 91.6087 8.51201C91.4165 7.84488 91.1932 7.21316 90.9073 6.58028C90.8131 6.3562 90.8131 6.3562 90.8131 6.13702C96.5075 7.69762 101.508 11.9571 104.458 17.0344C107.812 23.0112 108.439 30.1319 106.708 36.7192C105.676 40.4705 103.889 44.0282 101.246 46.8879C101.048 47.1025 100.862 47.3231 100.676 47.548C96.5637 52.2732 90.2709 54.4516 84.2213 54.8678C77.7928 55.247 71.3823 53.0963 66.5621 48.7924C61.5612 44.2666 58.7499 37.8229 58.3329 31.0959C58.0341 25.2028 59.5876 19.1649 63.2083 14.4658C63.2545 14.4053 63.3007 14.3447 63.3484 14.2824C64.7539 12.4662 66.4415 10.8467 68.3162 9.53428C68.4283 9.45559 68.4283 9.45559 68.5427 9.3753C70.5478 7.98469 72.6763 7.00868 74.9457 6.13702Z" fill="#371A45"/>
<path d="M23.1057 14.4658C23.1725 14.5238 23.2393 14.5819 23.3082 14.6417C24.7342 15.9767 26.2965 18.2632 26.4124 20.2526C26.3206 20.7295 26.0534 21.0632 25.6669 21.3404C21.595 23.3319 21.595 23.3319 20.1713 23.2329C19.7435 23.0242 19.5374 22.8207 19.3087 22.4041C19.2271 22.2596 19.2271 22.2596 19.1439 22.1122C19.0885 22.0119 19.033 21.9116 18.9758 21.8083C18.8612 21.6091 18.7458 21.4105 18.6294 21.2124C18.5786 21.1244 18.5277 21.0363 18.4753 20.9457C18.3331 20.709 18.3331 20.709 18.1416 20.5304C17.9977 20.3836 17.9977 20.3836 17.9977 20.1644C17.9034 20.1199 17.9034 20.1199 17.8071 20.0745C17.5625 19.945 17.3568 19.7958 17.1351 19.6302C16.0264 18.9004 15.0019 18.8098 13.7048 18.8014C13.5823 18.8003 13.4598 18.7992 13.3336 18.798C12.0372 18.8115 10.7787 19.0046 9.738 19.8356C9.02153 20.7026 8.99369 21.7142 9.0605 22.7925C9.13898 23.4756 9.47424 24.0133 9.97574 24.4658C11.6136 25.5565 13.8864 25.7406 15.7773 26.0157C19.2065 26.5201 23.2764 27.5111 25.5098 30.4392C27.2662 33.113 27.6057 36.5081 27.022 39.6122C26.6268 41.4731 25.721 43.0202 24.4098 44.3836C24.3239 44.4823 24.3239 44.4823 24.2362 44.5831C22.2117 46.8282 18.727 47.8203 15.8241 48C13.7376 48.0893 11.5633 48.1656 9.52064 47.6713C9.44207 47.6525 9.36349 47.6337 9.28253 47.6143C6.32774 46.8781 3.72816 45.296 2.13038 42.6302C1.39541 41.3372 0.621101 39.8883 0.82622 38.3562C1.01532 37.8583 1.35495 37.624 1.80434 37.3699C2.11747 37.2349 2.43736 37.1264 2.76081 37.0193C2.85165 36.9886 2.94249 36.9578 3.03608 36.9261C3.22746 36.8617 3.419 36.7977 3.6107 36.7342C3.90167 36.6375 4.19188 36.5388 4.48208 36.4399C4.66905 36.3772 4.85605 36.3146 5.0431 36.2522C5.17153 36.2083 5.17153 36.2083 5.30255 36.1636C5.95168 35.9509 6.63891 35.7568 7.31987 35.8973C7.93913 36.2962 8.22766 36.9176 8.52214 37.5685C9.15614 38.8945 10.0098 39.7959 11.3856 40.36C13.1924 40.9899 15.3608 40.9859 17.1419 40.2261C18.1657 39.7069 18.6879 39.1009 19.0845 38.0274C19.3327 37.0265 19.2449 36.0657 18.7372 35.1674C17.7043 33.7522 15.5122 33.5041 13.9149 33.2545C13.6282 33.2107 13.3416 33.167 13.0549 33.1234C12.9047 33.1006 12.7546 33.0777 12.6044 33.0548C12.5297 33.0435 12.4549 33.0321 12.3779 33.0204C8.70785 32.4578 5.05863 31.5932 2.67336 28.4863C1.00425 26.0095 0.745079 22.8346 1.26094 19.9452C1.83491 17.2517 3.28518 15.0352 5.57419 13.5137C7.35471 12.3812 9.39173 11.7445 11.4769 11.5069C11.6217 11.4887 11.6217 11.4887 11.7694 11.4701C15.8713 11.0347 19.9336 11.6738 23.1057 14.4658Z" fill="#371A45"/>
<path d="M35.1937 12.1491C35.273 12.1488 35.3523 12.1485 35.434 12.1481C35.6997 12.1472 35.9654 12.147 36.2311 12.1468C36.4216 12.1463 36.6121 12.1458 36.8026 12.1452C37.3202 12.1438 37.8377 12.1431 38.3553 12.1426C38.6787 12.1422 39.0021 12.1418 39.3255 12.1413C40.3375 12.1398 41.3495 12.1387 42.3614 12.1383C43.5294 12.1378 44.6973 12.1359 45.8653 12.1327C46.7683 12.1304 47.6712 12.1293 48.5742 12.1291C49.1134 12.129 49.6527 12.1284 50.1919 12.1264C50.6992 12.1246 51.2065 12.1244 51.7138 12.1253C51.8998 12.1254 52.0857 12.1249 52.2717 12.1238C52.5261 12.1224 52.7803 12.1231 53.0347 12.1242C53.1769 12.1241 53.3191 12.1239 53.4656 12.1237C53.928 12.1713 54.2117 12.2779 54.6226 12.4933C55.0394 13.0474 54.996 13.6522 54.9919 14.3186C54.9924 14.4864 54.9924 14.4864 54.9928 14.6575C54.9931 14.8933 54.9925 15.1291 54.9911 15.3649C54.9894 15.7249 54.9911 16.0849 54.9932 16.4449C54.993 16.6745 54.9925 16.9041 54.9919 17.1337C54.9926 17.2409 54.9932 17.3481 54.9939 17.4586C54.988 18.0414 54.9474 18.4556 54.6226 18.959C54.1833 19.3872 53.6851 19.4112 53.0964 19.4106C52.9886 19.4107 52.8809 19.4109 52.7699 19.411C52.6529 19.4106 52.536 19.4102 52.4155 19.4098C52.2914 19.4098 52.1673 19.4099 52.0394 19.4099C51.6296 19.4098 51.2197 19.4089 50.8098 19.4081C50.5255 19.4079 50.2412 19.4077 49.9569 19.4076C49.2853 19.4073 48.6136 19.4064 47.942 19.4053C47.1021 19.4039 46.2622 19.4033 45.4223 19.4027C43.9245 19.4017 42.4267 19.3995 40.9288 19.3974C40.9288 21.5672 40.9288 23.7371 40.9288 25.9727C41.7058 25.9676 42.4828 25.9626 43.2833 25.9573C43.7756 25.9551 44.2679 25.953 44.7602 25.9513C45.5416 25.9487 46.323 25.9456 47.1044 25.9397C47.7343 25.9349 48.3643 25.9323 48.9943 25.9311C49.2346 25.9303 49.4749 25.9287 49.7152 25.9264C50.0519 25.9232 50.3885 25.9228 50.7252 25.923C50.8245 25.9214 50.9238 25.9198 51.026 25.9182C51.6419 25.9222 51.9762 26.0049 52.449 26.4111C52.7657 26.9071 52.6995 27.5176 52.699 28.0883C52.6995 28.1976 52.6999 28.3069 52.7004 28.4195C52.701 28.6503 52.7011 28.8812 52.7006 29.112C52.7003 29.4639 52.7028 29.8156 52.7056 30.1675C52.7058 30.3922 52.7059 30.617 52.7058 30.8417C52.7068 30.9463 52.7078 31.0509 52.7088 31.1587C52.7046 31.7757 52.6634 32.2349 52.3403 32.7672C51.7766 33.1457 51.2789 33.1412 50.6265 33.1333C50.5215 33.1334 50.4164 33.1334 50.3082 33.1335C49.9624 33.1332 49.6167 33.1307 49.2709 33.1281C49.0306 33.1275 48.7903 33.127 48.55 33.1267C47.9186 33.1255 47.2872 33.1222 46.6558 33.1186C45.8976 33.1146 45.1395 33.1131 44.3813 33.1112C43.2305 33.108 42.0797 33.1017 40.9288 33.096C40.9288 35.4105 40.9288 37.725 40.9288 40.1097C42.3767 40.1021 42.3767 40.1021 43.8539 40.0943C44.5428 40.0918 45.2317 40.0895 45.9206 40.0877C46.8132 40.0852 47.7057 40.0822 48.5983 40.0766C49.3049 40.0723 50.0116 40.0694 50.7183 40.0685C51.0924 40.0679 51.4664 40.0666 51.8405 40.0634C52.2584 40.0598 52.6762 40.0597 53.0941 40.0599C53.2796 40.0576 53.2796 40.0576 53.4688 40.0552C54.1386 40.0587 54.5546 40.083 55.0573 40.5481C55.4165 41.1603 55.4327 41.714 55.4304 42.4141C55.431 42.5179 55.4316 42.6218 55.4322 42.7288C55.4329 42.9476 55.4327 43.1663 55.4318 43.385C55.4309 43.7179 55.434 44.0506 55.4375 44.3835C55.4376 44.5969 55.4376 44.8103 55.4372 45.0237C55.4385 45.1222 55.4397 45.2207 55.4409 45.3223C55.4342 45.943 55.3598 46.5246 54.9486 47.0138C54.4959 47.2484 54.0745 47.2643 53.5761 47.2616C53.4521 47.2622 53.4521 47.2622 53.3257 47.2628C53.0493 47.264 52.7729 47.2635 52.4965 47.2631C52.2981 47.2636 52.0998 47.2641 51.9014 47.2648C51.363 47.2663 50.8245 47.2663 50.2861 47.266C49.8367 47.2659 49.3872 47.2665 48.9378 47.267C47.8777 47.2682 46.8176 47.2683 45.7575 47.2676C44.6635 47.2669 43.5695 47.2683 42.4755 47.2706C41.5363 47.2725 40.5972 47.2732 39.6581 47.2728C39.0971 47.2726 38.5361 47.2729 37.9752 47.2745C37.4478 47.2758 36.9204 47.2756 36.393 47.2742C36.1994 47.2739 36.0058 47.2742 35.8122 47.2751C35.5481 47.2763 35.284 47.2754 35.0198 47.274C34.9431 47.2748 34.8664 47.2756 34.7874 47.2765C34.3137 47.2712 34.0164 47.2075 33.6473 46.9042C33.0934 46.3091 33.1517 45.6904 33.1581 44.9198C33.1575 44.785 33.1569 44.6502 33.1562 44.5113C33.155 44.1379 33.1557 43.7646 33.1573 43.3913C33.1585 42.9883 33.1572 42.5854 33.1562 42.1824C33.1547 41.3933 33.1555 40.6043 33.1572 39.8152C33.159 38.8963 33.1587 37.9774 33.1583 37.0585C33.1576 35.419 33.1592 33.7795 33.1618 32.1399C33.1644 30.549 33.1652 28.9581 33.1641 27.3671C33.1628 25.6347 33.1626 23.9023 33.1642 22.1699C33.1644 21.9852 33.1645 21.8005 33.1647 21.6157C33.1648 21.5248 33.1648 21.4339 33.1649 21.3403C33.1654 20.6998 33.1652 20.0593 33.1648 19.4187C33.1642 18.6382 33.1649 17.8576 33.1671 17.077C33.1681 16.6788 33.1687 16.2805 33.1678 15.8823C33.1669 15.4506 33.1685 15.019 33.1704 14.5873C33.1698 14.4613 33.1691 14.3354 33.1684 14.2056C33.1733 13.5913 33.1852 13.1288 33.5386 12.6029C34.0373 12.1324 34.5328 12.1506 35.1937 12.1491Z" fill="#371A45"/>
<path d="M121.255 12.1469C121.365 12.1458 121.475 12.1447 121.589 12.1437C121.707 12.1432 121.826 12.1427 121.948 12.1422C122.071 12.1416 122.194 12.141 122.32 12.1404C122.58 12.1393 122.84 12.1386 123.1 12.1382C123.496 12.1371 123.892 12.1337 124.287 12.1303C124.54 12.1295 124.793 12.129 125.046 12.1286C125.222 12.1265 125.222 12.1265 125.403 12.1245C126.852 12.1287 126.852 12.1287 127.406 12.676C127.815 13.1859 128.041 13.7241 128.237 14.3434C128.268 14.4379 128.3 14.5324 128.332 14.6297C128.436 14.9445 128.539 15.26 128.641 15.5755C128.716 15.8027 128.791 16.0299 128.866 16.257C129.029 16.7493 129.191 17.2418 129.353 17.7344C129.619 18.5429 129.889 19.3498 130.16 20.1564C130.195 20.26 130.195 20.26 130.231 20.3658C130.326 20.648 130.421 20.9301 130.516 21.2123C130.76 21.9361 131.003 22.6601 131.246 23.3842C131.805 25.051 132.366 26.7174 132.927 28.3837C133.7 30.6806 134.472 32.9779 135.243 35.2753C135.772 36.8484 136.3 38.4214 136.829 39.9941C136.865 40.1003 136.865 40.1003 136.902 40.2086C137.151 40.9496 137.401 41.6907 137.65 42.4316C137.731 42.6716 137.812 42.9117 137.892 43.1517C137.928 43.2575 137.964 43.3634 138.001 43.4725C138.068 43.6738 138.136 43.8752 138.203 44.0767C138.277 44.2958 138.352 44.5146 138.427 44.7332C138.466 44.849 138.506 44.9647 138.546 45.084C138.582 45.1886 138.618 45.2931 138.655 45.4009C138.779 45.8316 138.836 46.2434 138.741 46.6851C138.537 46.9592 138.389 47.0817 138.089 47.233C137.897 47.2446 137.704 47.2493 137.511 47.2507C137.39 47.2517 137.27 47.2528 137.145 47.2539C136.948 47.2546 136.948 47.2546 136.747 47.2553C136.612 47.2559 136.477 47.2565 136.338 47.2572C136.052 47.2582 135.766 47.2589 135.48 47.2593C135.187 47.2598 134.895 47.2613 134.603 47.2638C134.181 47.2672 133.759 47.2683 133.337 47.269C133.207 47.2703 133.078 47.2717 132.944 47.2731C132.063 47.2707 131.27 47.2378 130.604 46.6097C129.63 45.0794 129.168 42.0683 128.851 40.8768C125.265 40.8768 121.678 40.8768 117.983 40.8768C117.517 42.5404 117.051 44.204 116.57 45.9179C116.09 46.6448 115.776 47.0204 114.94 47.233C114.489 47.2675 114.04 47.2689 113.588 47.2698C113.458 47.2705 113.327 47.2713 113.193 47.272C112.917 47.2731 112.642 47.2737 112.367 47.2736C111.946 47.2741 111.525 47.2781 111.103 47.2822C110.836 47.2829 110.568 47.2833 110.3 47.2835C110.112 47.2859 110.112 47.2859 109.919 47.2883C109.057 47.2833 109.057 47.2833 108.612 47.0459C108.308 46.6495 108.34 46.3638 108.362 45.8762C108.466 45.1581 108.707 44.4918 108.951 43.8115C109.054 43.5247 109.155 43.2373 109.255 42.9495C109.365 42.6346 109.475 42.3198 109.585 42.0053C110.011 40.7912 110.42 39.571 110.828 38.3508C111.049 37.6936 111.27 37.0367 111.491 36.3798C111.534 36.2505 111.578 36.1212 111.623 35.9879C112.046 34.7291 112.471 33.4707 112.896 32.2125C112.931 32.1079 112.966 32.0034 113.003 31.8957C113.179 31.3722 113.356 30.8487 113.533 30.3253C113.891 29.2649 114.249 28.2044 114.607 27.144C114.643 27.0381 114.679 26.9322 114.716 26.823C115.162 25.5011 115.608 24.1792 116.054 22.8571C116.246 22.2881 116.438 21.7191 116.63 21.1503C116.993 20.075 117.355 18.9993 117.711 17.9217C117.879 17.4163 118.047 16.9112 118.215 16.4062C118.295 16.1654 118.375 15.9245 118.454 15.6834C118.564 15.3489 118.675 15.0148 118.786 14.6808C118.818 14.5829 118.85 14.4849 118.883 14.384C119.163 13.5528 119.509 12.7629 120.265 12.2741C120.599 12.1664 120.906 12.1495 121.255 12.1469ZM123.309 19.7262C123.192 20.3528 123.082 20.9797 122.985 21.6097C122.681 23.5552 122.233 25.4401 121.729 27.3413C121.432 28.4651 121.143 29.5911 120.853 30.7168C120.749 31.1196 120.644 31.5222 120.54 31.9248C120.475 32.1736 120.411 32.4225 120.347 32.6714C120.316 32.7869 120.286 32.9025 120.255 33.0216C120.228 33.1278 120.2 33.234 120.172 33.3434C120.136 33.4827 120.136 33.4827 120.099 33.6248C120.037 33.876 120.037 33.876 120.048 34.1919C122.308 34.1919 124.567 34.1919 126.895 34.1919C126.725 33.5183 126.554 32.8448 126.379 32.1508C126.321 31.9223 126.263 31.6938 126.204 31.4584C125.926 30.3599 125.644 29.2627 125.353 28.1675C124.747 25.8825 124.189 23.6123 123.801 21.2786C123.715 20.7602 123.62 20.2432 123.526 19.7262C123.454 19.7262 123.382 19.7262 123.309 19.7262Z" fill="#0080EF"/>
<path d="M83.3147 0.986455C86.6858 2.62425 88.967 6.42025 90.185 9.83406C90.7146 11.3771 91.0572 12.9545 91.2484 14.5755C91.26 14.6725 91.2716 14.7694 91.2835 14.8693C91.3472 15.4947 91.355 16.0965 91.3219 16.7245C91.1635 18.6893 91.1635 18.6893 91.9616 20.4111C92.136 20.6046 92.3141 20.7918 92.4982 20.9759C92.7548 21.2512 92.9239 21.5486 93.1096 21.8769C93.1659 21.9755 93.2222 22.0741 93.2802 22.1757C93.5448 22.7173 93.6719 23.1522 93.6166 23.7565C93.5986 23.9593 93.5986 23.9593 93.5803 24.1662C93.5639 24.33 93.5474 24.4939 93.5307 24.6577C93.5165 24.8016 93.5165 24.8016 93.5021 24.9484C93.4193 25.7863 93.3313 26.6235 93.2424 27.4608C93.2284 27.5933 93.2144 27.7258 93.2 27.8624C93.126 28.5611 93.0518 29.2599 92.9772 29.9586C92.9003 30.6808 92.8244 31.4031 92.7489 32.1254C92.6905 32.6815 92.6313 33.2374 92.5718 33.7934C92.5435 34.0599 92.5154 34.3264 92.4877 34.593C92.4491 34.9637 92.4093 35.3343 92.3692 35.7049C92.358 35.8154 92.3467 35.926 92.3351 36.0399C92.324 36.1403 92.3129 36.2407 92.3015 36.3442C92.2922 36.4317 92.2829 36.5192 92.2733 36.6094C92.2265 36.8221 92.2265 36.8221 92.0092 37.0412C91.7952 37.0246 91.7952 37.0246 91.5745 36.9317C91.4286 36.7594 91.4286 36.7594 91.303 36.5402C91.2571 36.4608 91.2112 36.3813 91.164 36.2995C90.9657 35.9348 90.775 35.5677 90.5921 35.1949C90.5526 35.1153 90.5131 35.0357 90.4725 34.9537C90.3458 34.6977 90.2197 34.4414 90.0937 34.1851C90.0064 34.0083 89.9191 33.8315 89.8318 33.6547C89.1984 32.3703 88.5766 31.0806 87.9704 29.7828C87.9053 29.6445 87.8385 29.507 87.7706 29.37C87.6853 29.469 87.6 29.5681 87.5121 29.6701C87.3968 29.8007 87.2815 29.9313 87.1661 30.0618C87.1103 30.127 87.0544 30.1922 86.9969 30.2594C86.9405 30.3226 86.8842 30.3858 86.8261 30.4509C86.7754 30.5089 86.7247 30.5669 86.6726 30.6266C85.9915 31.1821 85.2899 31.1746 84.4495 31.1748C84.3296 31.1756 84.2097 31.1765 84.0862 31.1773C83.8335 31.1785 83.5807 31.1788 83.328 31.1783C82.9427 31.1782 82.5577 31.1828 82.1725 31.1877C81.9262 31.1882 81.6799 31.1885 81.4336 31.1885C81.2621 31.1912 81.2621 31.1912 81.0871 31.194C80.2065 31.1857 79.7136 30.9361 79.0537 30.3696C78.9961 30.3087 78.9386 30.2478 78.8792 30.1851C78.8203 30.1239 78.7613 30.0627 78.7005 29.9997C78.5236 29.7978 78.366 29.5863 78.2068 29.37C77.8871 30.0114 77.5679 30.653 77.249 31.2947C77.1783 31.4369 77.1783 31.4369 77.1062 31.582C76.4949 32.8124 75.8884 34.0441 75.3145 35.2928C74.5894 36.8537 74.5894 36.8537 74.1825 37.0239C74.1118 37.0296 74.0411 37.0353 73.9682 37.0412C73.6732 36.7437 73.697 36.5425 73.6527 36.1258C73.6448 36.0538 73.6368 35.9818 73.6287 35.9076C73.6023 35.666 73.5773 35.4243 73.5522 35.1825C73.5337 35.0105 73.515 34.8386 73.4963 34.6666C73.4563 34.2983 73.4169 33.93 73.3777 33.5616C73.3167 32.989 73.2534 32.4166 73.1894 31.8442C73.0914 30.9656 72.9942 30.0868 72.8979 29.2079C72.8429 28.7063 72.7877 28.2047 72.7321 27.7032C72.6768 27.2057 72.6221 26.7082 72.5678 26.2106C72.5473 26.0242 72.5267 25.8378 72.5059 25.6514C72.2187 23.0775 72.2187 23.0775 72.6845 22.1919C72.7402 22.0781 72.7402 22.0781 72.7972 21.962C73.0152 21.5414 73.2454 21.2028 73.5798 20.8679C74.44 19.9831 74.7072 19.2571 74.7011 18.026C74.6889 17.4371 74.6653 16.8486 74.6396 16.2601C74.5966 15.1687 74.7432 14.1114 74.9464 13.0412C74.9644 12.9457 74.9825 12.8501 75.0011 12.7517C75.8823 8.28519 78.0918 4.21967 81.7932 1.5344C81.8809 1.46984 81.9686 1.40528 82.059 1.33877C82.4996 1.0355 82.7862 0.933088 83.3147 0.986455ZM79.7826 13.3589C79.1461 14.2581 78.8313 15.3327 78.9675 16.4385C79.227 17.6336 79.6608 18.6607 80.6856 19.3666C81.7314 19.9831 82.8339 20.2071 84.0229 19.9227C84.7699 19.6823 85.4145 19.3525 85.9231 18.7399C86.005 18.6435 86.005 18.6435 86.0886 18.5451C86.8247 17.6309 87.0837 16.5614 86.9865 15.3897C86.8166 14.3486 86.3265 13.2845 85.4718 12.6478C83.619 11.4407 81.2299 11.555 79.7826 13.3589Z" fill="#371A45"/>
<path d="M145.254 12.1469C145.363 12.1458 145.472 12.1447 145.584 12.1437C145.702 12.1432 145.819 12.1427 145.94 12.1422C146.122 12.1413 146.122 12.1413 146.307 12.1404C146.563 12.1393 146.819 12.1386 147.076 12.1382C147.467 12.1371 147.858 12.1337 148.25 12.1303C148.499 12.1295 148.748 12.129 148.997 12.1286C149.172 12.1265 149.172 12.1265 149.351 12.1245C149.953 12.1263 150.397 12.1437 150.914 12.4933C151.319 12.9304 151.362 13.3501 151.363 13.9318C151.363 14.046 151.363 14.1601 151.364 14.2777C151.364 14.403 151.364 14.5283 151.364 14.6573C151.364 14.7905 151.364 14.9237 151.365 15.061C151.365 15.4308 151.366 15.8007 151.366 16.1706C151.366 16.5694 151.367 16.9683 151.367 17.3671C151.369 18.2393 151.37 19.1115 151.37 19.9837C151.37 20.5282 151.371 21.0728 151.371 21.6173C151.373 23.125 151.374 24.6326 151.374 26.1403C151.374 26.285 151.374 26.285 151.374 26.4327C151.374 26.5777 151.374 26.5777 151.374 26.7258C151.374 26.9217 151.374 27.1177 151.374 27.3137C151.374 27.4109 151.374 27.5082 151.374 27.6083C151.375 29.1838 151.377 30.7593 151.379 32.3349C151.382 33.9523 151.383 35.5698 151.383 37.1872C151.383 38.0954 151.384 39.0036 151.386 39.9118C151.388 40.685 151.388 41.4583 151.387 42.2316C151.387 42.6261 151.387 43.0206 151.389 43.4151C151.39 43.8429 151.389 44.2706 151.388 44.6984C151.39 44.8852 151.39 44.8852 151.391 45.0758C151.386 45.8219 151.336 46.3988 150.859 47.0001C150.527 47.2512 150.203 47.2482 149.805 47.2524C149.689 47.2538 149.574 47.2552 149.455 47.2567C149.268 47.2579 149.268 47.2579 149.077 47.2591C148.949 47.26 148.821 47.2609 148.689 47.2618C148.417 47.2633 148.146 47.2645 147.874 47.2653C147.459 47.2672 147.044 47.272 146.629 47.2769C146.365 47.278 146.101 47.2789 145.837 47.2797C145.651 47.2825 145.651 47.2825 145.462 47.2855C144.789 47.2836 144.344 47.2786 143.849 46.7946C143.661 46.4061 143.605 46.0943 143.604 45.6639C143.604 45.5479 143.603 45.4319 143.602 45.3123C143.603 45.1855 143.603 45.0587 143.604 44.928C143.603 44.7928 143.603 44.6576 143.602 44.5183C143.601 44.1432 143.601 43.7682 143.602 43.3931C143.602 42.9885 143.601 42.5839 143.6 42.1793C143.599 41.3868 143.599 40.5944 143.599 39.8019C143.599 39.1579 143.599 38.5139 143.599 37.8699C143.599 37.7782 143.599 37.6866 143.598 37.5922C143.598 37.4061 143.598 37.22 143.598 37.0339C143.597 35.2882 143.597 33.5425 143.598 31.7968C143.598 30.1992 143.597 28.6016 143.595 27.0039C143.593 25.3639 143.592 23.724 143.592 22.084C143.593 21.163 143.592 20.2421 143.591 19.3212C143.59 18.5374 143.589 17.7535 143.591 16.9696C143.591 16.5696 143.591 16.1696 143.59 15.7696C143.589 15.3362 143.59 14.9028 143.591 14.4695C143.59 14.2793 143.59 14.2793 143.589 14.0852C143.59 13.9692 143.59 13.8531 143.591 13.7336C143.591 13.6335 143.591 13.5335 143.591 13.4304C143.655 12.9923 143.848 12.6999 144.175 12.4111C144.539 12.1822 144.836 12.1501 145.254 12.1469Z" fill="#0080EF"/>
<path d="M79.6192 32.6575C81.9504 32.6575 84.2816 32.6575 86.6834 32.6575C86.791 33.9594 86.791 33.9594 86.9008 35.2877C87.2632 37.5183 87.699 39.7986 89.4004 41.4247C89.6961 41.6391 89.6961 41.6391 89.9438 41.7534C89.8862 42.2178 89.7111 42.5687 89.4917 42.9735C89.3781 43.1907 89.3781 43.1907 89.4004 43.5068C89.4609 43.4486 89.5214 43.3904 89.5838 43.3305C90.6062 42.3761 91.6119 41.9099 93.0225 41.9452C94.4309 42.0781 95.4533 42.6522 96.4646 43.6164C96.5041 43.557 96.5436 43.4975 96.5843 43.4362C96.9248 42.9477 97.183 42.5927 97.7688 42.411C98.7053 42.3352 98.7053 42.3352 99.073 42.5205C98.6648 43.4503 97.8486 44.2457 97.1167 44.9315C97.0576 44.9879 96.9985 45.0442 96.9376 45.1023C95.0554 46.8303 92.908 48.0563 90.5959 49.0959C90.4857 49.1461 90.4857 49.1461 90.3733 49.1974C85.9937 51.1559 80.3589 51.0102 75.924 49.3151C75.8291 49.2799 75.7341 49.2447 75.6362 49.2085C73.3871 48.3223 71.4573 47.0397 69.6206 45.4794C69.487 45.3675 69.3535 45.2557 69.2198 45.1438C69.0954 45.0387 69.0954 45.0387 68.9685 44.9315C69.0487 44.1586 69.6282 43.6884 70.164 43.1781C70.8322 42.656 71.5191 42.2932 72.3376 42.0822C72.425 42.0573 72.5124 42.0325 72.6025 42.0068C73.837 41.855 75.0136 42.032 76.0348 42.7804C76.348 43.0401 76.6263 43.3168 76.9022 43.6164C76.7006 42.9425 76.7006 42.9425 76.3791 42.3219C76.3366 42.2428 76.294 42.1637 76.2501 42.0822C76.3794 41.7182 76.5708 41.5359 76.8682 41.3014C79.2202 39.2685 79.3123 35.4429 79.6192 32.6575Z" fill="#0080EF"/>
<path d="M70.5989 42.8492C70.6706 42.8854 70.7423 42.9216 70.8162 42.9588C70.2783 43.5013 69.7403 44.0438 69.186 44.6027C69.186 44.1573 69.3523 44.0491 69.6479 43.726C69.7337 43.631 69.8194 43.5361 69.9077 43.4383C70.1277 43.215 70.3435 43.0288 70.5989 42.8492Z" fill="#0080EF"/>
<path d="M90.3784 42.6303C90.4501 42.6665 90.5218 42.7026 90.5957 42.7399C90.4039 42.9392 90.2114 43.1377 90.0184 43.3358C89.9369 43.4207 89.9369 43.4207 89.8539 43.5072C89.596 43.7707 89.4275 43.9362 89.0742 44.055C89.2819 43.4268 89.8815 43.0382 90.3784 42.6303Z" fill="#0080EF"/>
<path d="M97.3342 42.6303C97.4059 42.6665 97.4776 42.7026 97.5515 42.7399C97.3005 42.993 97.0494 43.2462 96.7908 43.507C96.7908 43.1783 96.7908 43.1783 97.0625 42.8837C97.1521 42.8001 97.2418 42.7165 97.3342 42.6303Z" fill="#0080EF"/>
</g>
<defs>
<clipPath id="clip0_1_346">
<rect width="154" height="56" fill="white" transform="translate(0.5)"/>
</clipPath>
</defs>
</svg>
