<svg width="27" height="26" viewBox="0 0 27 26" fill="none" xmlns="http://www.w3.org/2000/svg">
<path d="M11.8436 16.7917C12.277 17.225 12.8367 17.4373 13.5228 17.4287C14.2089 17.42 14.7145 17.1716 15.0395 16.6833L21.1061 7.58334L12.0061 13.65C11.5186 13.975 11.2615 14.4715 11.2348 15.1396C11.2081 15.8076 11.411 16.3583 11.8436 16.7917ZM13.5228 4.33334C14.5881 4.33334 15.6129 4.48211 16.5973 4.77967C17.5817 5.07722 18.5068 5.52428 19.3728 6.12084L17.3145 7.42084C16.7186 7.11389 16.1004 6.88386 15.4598 6.73075C14.8192 6.57764 14.1735 6.50072 13.5228 6.5C11.1214 6.5 9.07643 7.34428 7.38787 9.03284C5.69931 10.7214 4.8554 12.766 4.85612 15.1667C4.85612 15.925 4.96012 16.6743 5.16812 17.4146C5.37612 18.1549 5.66934 18.85 6.04779 19.5H20.9978C21.4131 18.8139 21.7157 18.1007 21.9056 17.3604C22.0956 16.6201 22.1902 15.8528 22.1895 15.0583C22.1895 14.4083 22.1125 13.7764 21.9587 13.1625C21.8049 12.5486 21.5748 11.9528 21.2686 11.375L22.5686 9.31667C23.1103 10.1653 23.5393 11.0681 23.8556 12.025C24.172 12.9819 24.3388 13.975 24.3561 15.0042C24.3735 16.0333 24.2561 17.0174 24.004 17.9563C23.752 18.8951 23.3818 19.7889 22.8936 20.6375C22.695 20.9625 22.4242 21.2153 22.0811 21.3958C21.7381 21.5764 21.377 21.6667 20.9978 21.6667H6.04779C5.66862 21.6667 5.30751 21.5764 4.96445 21.3958C4.6214 21.2153 4.35056 20.9625 4.15195 20.6375C3.68251 19.825 3.3214 18.963 3.06862 18.0516C2.81584 17.1401 2.68945 16.1785 2.68945 15.1667C2.68945 13.6681 2.97401 12.2644 3.54312 10.9558C4.11223 9.64709 4.88862 8.50056 5.87229 7.51617C6.85595 6.53178 8.00681 5.75539 9.32487 5.187C10.6429 4.61861 12.0422 4.33406 13.5228 4.33334Z" fill="#848382"/>
</svg>
