<svg width="30" height="31" viewBox="0 0 30 31" fill="none" xmlns="http://www.w3.org/2000/svg">
<path d="M12.5 24.25C12.5 25.625 13.625 26.75 15 26.75C16.375 26.75 17.5 25.625 17.5 24.25C17.5 22.875 16.375 21.75 15 21.75C13.625 21.75 12.5 22.875 12.5 24.25ZM12.5 6.75C12.5 8.125 13.625 9.25 15 9.25C16.375 9.25 17.5 8.125 17.5 6.75C17.5 5.375 16.375 4.25 15 4.25C13.625 4.25 12.5 5.375 12.5 6.75ZM12.5 15.5C12.5 16.875 13.625 18 15 18C16.375 18 17.5 16.875 17.5 15.5C17.5 14.125 16.375 13 15 13C13.625 13 12.5 14.125 12.5 15.5Z" fill="#848382"/>
</svg>
