<svg width="25" height="25" viewBox="0 0 25 25" fill="none" xmlns="http://www.w3.org/2000/svg">
<path d="M7.17 7.70405L5.7 6.22105M15.009 7.70405L16.479 6.22105M5.699 17.101L7.169 15.617M11.089 5.72705V3.74805M5.209 11.661H3.25M17.125 17.584L20.939 16.078C21.031 16.0412 21.1099 15.9777 21.1655 15.8956C21.221 15.8135 21.2507 15.7167 21.2507 15.6175C21.2507 15.5184 21.221 15.4216 21.1655 15.3395C21.1099 15.2574 21.031 15.1939 20.939 15.157L11.774 11.542C11.6848 11.5075 11.5874 11.4998 11.4939 11.5197C11.4003 11.5396 11.3146 11.5864 11.2472 11.6544C11.1798 11.7223 11.1337 11.8084 11.1145 11.9021C11.0952 11.9958 11.1038 12.0931 11.139 12.182L14.721 21.433C14.883 21.853 15.471 21.853 15.633 21.433L17.125 17.584Z" stroke="#848382" stroke-width="1.5" stroke-linecap="round" stroke-linejoin="round"/>
</svg>
