<svg width="21" height="21" viewBox="0 0 21 21" fill="none" xmlns="http://www.w3.org/2000/svg">
<path d="M18.3715 13.9873H17.6321V6.37418C17.6321 5.90738 17.4466 5.45969 17.1165 5.12962C16.7865 4.79954 16.3388 4.6141 15.872 4.6141H4.62418C4.15738 4.6141 3.70969 4.79954 3.37962 5.12962C3.04954 5.45969 2.8641 5.90738 2.8641 6.37418V13.9873H2.12466C1.98932 13.9873 1.85952 14.041 1.76382 14.1367C1.66811 14.2324 1.61435 14.3622 1.61435 14.4976V15.7473C1.61435 16.2141 1.79978 16.6618 2.12986 16.9919C2.45994 17.322 2.90762 17.5074 3.37442 17.5074H17.1217C17.5885 17.5074 18.0362 17.322 18.3663 16.9919C18.6964 16.6618 18.8818 16.2141 18.8818 15.7473V14.4976C18.8818 14.3622 18.828 14.2324 18.7323 14.1367C18.6366 14.041 18.5068 13.9873 18.3715 13.9873ZM3.88474 6.37418C3.88474 6.17806 3.96264 5.98999 4.10131 5.85131C4.23999 5.71264 4.42806 5.63474 4.62418 5.63474H15.872C16.0681 5.63474 16.2562 5.71264 16.3948 5.85131C16.5335 5.98999 16.6114 6.17806 16.6114 6.37418V13.9873H3.88474V6.37418ZM17.8612 15.7473C17.8612 15.9435 17.7833 16.1315 17.6446 16.2702C17.5059 16.4089 17.3178 16.4868 17.1217 16.4868H3.37442C3.17831 16.4868 2.99023 16.4089 2.85156 16.2702C2.71289 16.1315 2.63498 15.9435 2.63498 15.7473V15.0079H17.8612V15.7473ZM11.8587 7.98478C11.9544 7.88908 12.0082 7.75928 12.0082 7.62393C12.0082 7.48859 11.9544 7.35879 11.8587 7.26308C11.763 7.16738 11.6332 7.11361 11.4978 7.11361H8.99832C8.86298 7.11361 8.73318 7.16738 8.63747 7.26308C8.54177 7.35879 8.488 7.48859 8.488 7.62393C8.488 7.75928 8.54177 7.88908 8.63747 7.98478C8.73318 8.08048 8.86298 8.13425 8.99832 8.13425H11.4978C11.6332 8.13425 11.763 8.08048 11.8587 7.98478Z" fill="#848382" stroke="#848382" stroke-width="0.0833171"/>
</svg>
