<svg width="30" height="31" viewBox="0 0 30 31" fill="none" xmlns="http://www.w3.org/2000/svg">
<path d="M22.5 22.0625H23.9062C24.5273 22.0606 25.1223 21.8131 25.5615 21.374C26.0006 20.9348 26.2481 20.3398 26.25 19.7188V10.3438C26.2481 9.72272 26.0006 9.12765 25.5615 8.68852C25.1223 8.24938 24.5273 8.00185 23.9062 8H6.09375C5.47272 8.00185 4.87765 8.24938 4.43852 8.68852C3.99938 9.12765 3.75185 9.72272 3.75 10.3438V19.7188C3.75185 20.3398 3.99938 20.9348 4.43852 21.374C4.87765 21.8131 5.47272 22.0606 6.09375 22.0625H7.5" stroke="#848382" stroke-width="1.875" stroke-linejoin="round"/>
<path d="M21.075 14.5625H8.925C8.13799 14.5625 7.5 15.2005 7.5 15.9875V25.325C7.5 26.112 8.13799 26.75 8.925 26.75H21.075C21.862 26.75 22.5 26.112 22.5 25.325V15.9875C22.5 15.2005 21.862 14.5625 21.075 14.5625Z" stroke="#848382" stroke-width="1.875" stroke-linejoin="round"/>
<path d="M22.5 8V6.59375C22.4981 5.97272 22.2506 5.37765 21.8115 4.93852C21.3723 4.49938 20.7773 4.25185 20.1562 4.25H9.84375C9.22272 4.25185 8.62765 4.49938 8.18852 4.93852C7.74938 5.37765 7.50185 5.97272 7.5 6.59375V8" stroke="#848382" stroke-width="1.875" stroke-linejoin="round"/>
<path d="M22.9688 12.6875C23.7454 12.6875 24.375 12.0579 24.375 11.2812C24.375 10.5046 23.7454 9.875 22.9688 9.875C22.1921 9.875 21.5625 10.5046 21.5625 11.2812C21.5625 12.0579 22.1921 12.6875 22.9688 12.6875Z" fill="#848382"/>
</svg>
