<svg width="30" height="31" viewBox="0 0 30 31" fill="none" xmlns="http://www.w3.org/2000/svg">
<path d="M15.0987 3.31251C9.1062 3.31251 4.1812 7.89126 3.7012 13.7288H2.49995C2.31409 13.7287 2.1324 13.7838 1.97796 13.8872C1.82351 13.9906 1.70329 14.1376 1.63256 14.3095C1.56182 14.4814 1.54377 14.6704 1.5807 14.8525C1.61763 15.0347 1.70787 15.2018 1.83995 15.3325L3.93995 17.415C4.11553 17.5891 4.35274 17.6867 4.59995 17.6867C4.84717 17.6867 5.08438 17.5891 5.25995 17.415L7.35995 15.3325C7.49204 15.2018 7.58228 15.0347 7.6192 14.8525C7.65613 14.6704 7.63808 14.4814 7.56735 14.3095C7.49662 14.1376 7.37639 13.9906 7.22195 13.8872C7.06751 13.7838 6.88581 13.7287 6.69995 13.7288H5.5837C6.0587 8.94001 10.1312 5.18751 15.0987 5.18751C16.7365 5.18412 18.3478 5.601 19.7785 6.39828C21.2091 7.19557 22.4113 8.3466 23.27 9.74126C23.3328 9.84947 23.4167 9.94401 23.5166 10.0193C23.6166 10.0946 23.7306 10.1491 23.8519 10.1796C23.9733 10.2102 24.0995 10.2161 24.2232 10.1971C24.3469 10.178 24.4655 10.1344 24.5721 10.0688C24.6786 10.0033 24.771 9.91699 24.8437 9.81514C24.9164 9.71329 24.968 9.59792 24.9954 9.47583C25.0228 9.35373 25.0255 9.22738 25.0033 9.10423C24.9811 8.98108 24.9345 8.86362 24.8662 8.75876C23.8399 7.09162 22.4032 5.71554 20.6933 4.76203C18.9835 3.80852 17.0564 3.30945 15.0987 3.31251ZM26.0512 13.5838C25.8757 13.4105 25.6391 13.3133 25.3925 13.3133C25.1458 13.3133 24.9092 13.4105 24.7337 13.5838L22.625 15.6663C22.4925 15.7969 22.4019 15.9639 22.3647 16.1462C22.3275 16.3284 22.3453 16.5176 22.416 16.6897C22.4866 16.8618 22.6068 17.009 22.7613 17.1126C22.9159 17.2161 23.0977 17.2714 23.2837 17.2713H24.4075C23.93 22.0588 19.8437 25.8125 14.8525 25.8125C13.2095 25.8171 11.5927 25.4009 10.1562 24.6035C8.71972 23.8062 7.51133 22.6543 6.6462 21.2575C6.58153 21.1527 6.49684 21.0617 6.39698 20.9896C6.29712 20.9175 6.18403 20.8658 6.06419 20.8374C5.94434 20.809 5.82008 20.8045 5.6985 20.8242C5.57691 20.8438 5.46039 20.8872 5.35558 20.9519C5.1439 21.0825 4.99278 21.2919 4.93547 21.5339C4.87815 21.7759 4.91933 22.0308 5.04995 22.2425C6.08313 23.9114 7.52642 25.2881 9.24233 26.2412C10.9582 27.1943 12.8896 27.6922 14.8525 27.6875C20.8625 27.6875 25.8087 23.1125 26.29 17.2713H27.5C27.686 17.2714 27.8678 17.2161 28.0223 17.1126C28.1768 17.009 28.2971 16.8618 28.3677 16.6897C28.4383 16.5176 28.4562 16.3284 28.419 16.1462C28.3817 15.9639 28.2911 15.7969 28.1587 15.6663L26.0512 13.5838Z" fill="#848382"/>
</svg>
