<svg width="27" height="26" viewBox="0 0 27 26" fill="none" xmlns="http://www.w3.org/2000/svg">
<path d="M19.5226 2.16666V10.8333M23.856 6.5H15.1893M2.73098 6.5C2.73098 4.83166 2.73098 3.9975 3.10689 3.38433C3.31706 3.04091 3.60523 2.75275 3.94864 2.54258C4.56073 2.16666 5.39598 2.16666 7.06431 2.16666C8.73264 2.16666 9.56681 2.16666 10.18 2.54258C10.5234 2.75275 10.8116 3.04091 11.0217 3.38433C11.3976 3.99641 11.3976 4.83166 11.3976 6.5C11.3976 8.16833 11.3976 9.0025 11.0217 9.61566C10.8116 9.95908 10.5234 10.2472 10.18 10.4574C9.56789 10.8333 8.73264 10.8333 7.06431 10.8333C5.39598 10.8333 4.56181 10.8333 3.94864 10.4574C3.60548 10.2473 3.31701 9.95883 3.10689 9.61566C2.73098 9.00358 2.73098 8.16833 2.73098 6.5ZM4.11981 16.0138C5.25406 14.8796 5.82064 14.313 6.49231 14.1505C6.86829 14.0602 7.26033 14.0602 7.63631 14.1505C8.30798 14.313 8.87456 14.8796 10.0088 16.0138C11.1431 17.1481 11.7096 17.7147 11.8721 18.3863C11.9609 18.7625 11.9609 19.1542 11.8721 19.5303C11.7096 20.202 11.1431 20.7697 10.0088 21.9028C8.87456 23.036 8.30798 23.6037 7.63631 23.7662C7.26033 23.8565 6.86829 23.8565 6.49231 23.7662C5.82064 23.6037 5.25406 23.0371 4.11981 21.9028C2.98556 20.7686 2.41898 20.202 2.25648 19.5303C2.16614 19.1543 2.16614 18.7623 2.25648 18.3863C2.41898 17.7147 2.98556 17.147 4.11981 16.0138ZM15.1893 19.5C15.1893 17.8317 15.1893 16.9975 15.5652 16.3843C15.7754 16.0409 16.0636 15.7527 16.407 15.5426C17.0191 15.1667 17.8543 15.1667 19.5226 15.1667C21.191 15.1667 22.0251 15.1667 22.6394 15.5426C22.9817 15.7527 23.2699 16.0409 23.4801 16.3843C23.856 16.9964 23.856 17.8317 23.856 19.5C23.856 21.1683 23.856 22.0025 23.4801 22.6167C23.2698 22.9591 22.9818 23.2471 22.6394 23.4574C22.0251 23.8333 21.191 23.8333 19.5226 23.8333C17.8543 23.8333 17.0201 23.8333 16.407 23.4574C16.0639 23.2476 15.7755 22.9595 15.5652 22.6167C15.1893 22.0025 15.1893 21.1683 15.1893 19.5Z" stroke="#848382" stroke-width="1.625" stroke-linecap="round" stroke-linejoin="round"/>
</svg>
