<svg width="18" height="18" viewBox="0 0 18 18" fill="none" xmlns="http://www.w3.org/2000/svg">
<path d="M6.27522 1.81201C6.31702 1.93846 6.3049 1.96515 6.26184 2.08691C6.25019 2.12074 6.23855 2.15456 6.22656 2.18942C6.20713 2.24451 6.20713 2.24451 6.18731 2.30072C6.09893 2.55493 6.01701 2.8079 5.95188 3.06929C5.9403 3.1147 5.92872 3.1601 5.91679 3.20689C5.89471 3.29499 5.8737 3.38338 5.85391 3.47203C5.78421 3.74492 5.70241 3.87369 5.46086 4.01909C5.41764 4.04274 5.41764 4.04274 5.37354 4.06687C5.33788 4.08965 5.30222 4.11244 5.26548 4.13591C5.23642 4.15363 5.20737 4.17136 5.17743 4.18961C3.83144 5.04742 2.86762 6.503 2.50152 8.0546C2.27123 9.10091 2.25114 10.2205 2.48817 11.2679C2.4959 11.3022 2.50363 11.3365 2.5116 11.3718C2.78901 12.5612 3.34366 13.7163 4.21939 14.5774C4.2432 14.5774 4.267 14.5774 4.29153 14.5774C4.33549 14.5244 4.37718 14.4694 4.41776 14.4138C4.7209 14.0235 5.09998 13.7724 5.58994 13.7046C6.00403 13.6653 6.3856 13.7645 6.70802 14.0319C6.78419 14.102 6.85415 14.1738 6.92443 14.2501C6.85753 14.0265 6.85753 14.0265 6.75085 13.8205C6.72965 13.7811 6.72965 13.7811 6.70802 13.7409C6.75093 13.6201 6.81446 13.5596 6.91316 13.4818C7.69371 12.8072 7.72425 11.5376 7.82611 10.6132C8.59974 10.6132 9.37338 10.6132 10.1705 10.6132C10.1943 10.9013 10.2181 11.1893 10.2426 11.4861C10.3629 12.2264 10.5075 12.9831 11.0721 13.5227C11.1703 13.5939 11.1703 13.5939 11.2525 13.6318C11.2334 13.786 11.1753 13.9024 11.1024 14.0367C11.0647 14.1088 11.0647 14.1088 11.0721 14.2137C11.0922 14.1944 11.1123 14.1751 11.133 14.1552C11.4723 13.8385 11.8061 13.6837 12.2742 13.6955C12.7416 13.7396 13.0809 13.9301 13.4165 14.2501C13.4296 14.2304 13.4427 14.2106 13.4562 14.1903C13.5692 14.0282 13.6549 13.9104 13.8493 13.85C14.0232 13.8356 14.1858 13.8379 14.3543 13.8864C14.3641 13.8604 14.374 13.8344 14.3842 13.8076C14.4261 13.7052 14.4736 13.6088 14.5246 13.5106C15.482 11.6429 15.9998 9.48326 15.3847 7.41677C15.1847 6.78358 14.8874 6.17733 14.4625 5.66709C14.4279 5.62447 14.3933 5.58185 14.3588 5.53923C13.8392 4.9061 13.0825 4.22985 12.2975 3.95607C12.1391 3.85118 12.1204 3.72659 12.0729 3.54762C12.0584 3.49734 12.0584 3.49734 12.0436 3.44604C12.0127 3.33876 11.9831 3.2312 11.9535 3.12356C11.914 2.98295 11.8741 2.84248 11.8339 2.70205C11.8196 2.65163 11.8196 2.65163 11.8051 2.60019C11.7413 2.37879 11.6672 2.16914 11.5723 1.95911C11.541 1.88475 11.541 1.88475 11.541 1.81201C13.4308 2.32992 15.0904 3.74347 16.0693 5.42846C17.1825 7.41194 17.3905 9.77504 16.8158 11.9611C16.4734 13.2061 15.8804 14.3867 15.0033 15.3358C14.9377 15.407 14.8759 15.4802 14.8141 15.5548C13.4495 17.123 11.3611 17.8459 9.35346 17.984C7.22006 18.1098 5.09264 17.3961 3.49298 15.9678C1.83338 14.4659 0.900397 12.3274 0.762025 10.095C0.662846 8.13925 1.17839 6.1355 2.37997 4.57603C2.39532 4.55594 2.41066 4.53585 2.42647 4.51516C2.8929 3.91245 3.45297 3.37498 4.07513 2.93944C4.11233 2.91332 4.11233 2.91332 4.15029 2.88668C4.81571 2.42519 5.52206 2.10128 6.27522 1.81201Z" fill="#323233"/>
<path d="M9.05261 0.102622C10.1714 0.646148 10.9284 1.90591 11.3326 3.03883C11.5084 3.55092 11.6221 4.0744 11.6855 4.61234C11.6894 4.64452 11.6932 4.6767 11.6972 4.70985C11.7183 4.91738 11.7209 5.11711 11.7099 5.32551C11.6573 5.97757 11.6573 5.97757 11.9222 6.54897C11.9801 6.61318 12.0392 6.67531 12.1003 6.73639C12.1854 6.82777 12.2416 6.92646 12.3032 7.0354C12.3219 7.06813 12.3405 7.10085 12.3598 7.13456C12.4476 7.31431 12.4898 7.45865 12.4714 7.65917C12.4655 7.72648 12.4655 7.72648 12.4594 7.79514C12.4539 7.84952 12.4485 7.90389 12.4429 7.95826C12.4382 8.00601 12.4382 8.00601 12.4334 8.05474C12.406 8.3328 12.3767 8.61065 12.3473 8.8885C12.3426 8.93248 12.338 8.97646 12.3332 9.02177C12.3086 9.25367 12.284 9.48556 12.2592 9.71743C12.2337 9.95711 12.2085 10.1968 12.1835 10.4365C12.1641 10.6211 12.1444 10.8056 12.1247 10.9901C12.1153 11.0785 12.106 11.167 12.0968 11.2554C12.084 11.3785 12.0708 11.5014 12.0575 11.6244C12.0537 11.6611 12.05 11.6978 12.0462 11.7356C12.0425 11.7689 12.0388 11.8023 12.035 11.8366C12.0319 11.8656 12.0288 11.8947 12.0257 11.9246C12.0101 11.9952 12.0101 11.9952 11.938 12.0679C11.867 12.0624 11.867 12.0624 11.7937 12.0315C11.7453 11.9744 11.7453 11.9744 11.7036 11.9016C11.6884 11.8753 11.6732 11.8489 11.6575 11.8217C11.5917 11.7007 11.5284 11.5789 11.4677 11.4552C11.4546 11.4288 11.4415 11.4024 11.428 11.3751C11.386 11.2902 11.3441 11.2051 11.3023 11.1201C11.2733 11.0614 11.2444 11.0027 11.2154 10.9441C11.0052 10.5178 10.7988 10.0898 10.5976 9.65911C10.5761 9.6132 10.5539 9.56756 10.5314 9.52211C10.5031 9.55497 10.4747 9.58784 10.4456 9.6217C10.4073 9.66505 10.369 9.70838 10.3307 9.75169C10.3122 9.77332 10.2937 9.79496 10.2746 9.81725C10.2559 9.83823 10.2372 9.85921 10.2179 9.88083C10.2011 9.90006 10.1843 9.9193 10.167 9.93912C9.94094 10.1235 9.70809 10.121 9.4292 10.1211C9.38942 10.1213 9.34963 10.1216 9.30864 10.1219C9.22476 10.1223 9.14089 10.1224 9.05701 10.1222C8.92916 10.1222 8.80139 10.1237 8.67356 10.1253C8.59182 10.1255 8.51008 10.1256 8.42834 10.1256C8.37141 10.1265 8.37141 10.1265 8.31333 10.1274C8.02109 10.1247 7.85753 10.0418 7.63853 9.85383C7.61942 9.83363 7.60031 9.81342 7.58062 9.7926C7.56105 9.7723 7.54148 9.752 7.52131 9.73109C7.46259 9.66409 7.41029 9.59388 7.35746 9.52211C7.25138 9.73495 7.14546 9.94787 7.03962 10.1608C7.01615 10.208 7.01615 10.208 6.99221 10.2562C6.78934 10.6645 6.58809 11.0733 6.39762 11.4877C6.15698 12.0057 6.15698 12.0057 6.02194 12.0621C5.99848 12.0641 5.97502 12.066 5.95084 12.0679C5.85291 11.9692 5.86082 11.9024 5.84613 11.7641C5.8435 11.7402 5.84087 11.7163 5.83815 11.6917C5.8294 11.6115 5.82109 11.5313 5.81277 11.4511C5.80662 11.394 5.80044 11.3369 5.79423 11.2799C5.78096 11.1576 5.76786 11.0354 5.75488 10.9132C5.73462 10.7231 5.7136 10.5332 5.69239 10.3432C5.65983 10.0516 5.6276 9.75998 5.59564 9.46832C5.57739 9.30186 5.55908 9.1354 5.5406 8.96896C5.52227 8.80386 5.50411 8.63874 5.48608 8.4736C5.47929 8.41174 5.47245 8.34989 5.46554 8.28804C5.37025 7.43385 5.37025 7.43385 5.5248 7.13996C5.54332 7.10219 5.54332 7.10219 5.56221 7.06365C5.63457 6.92406 5.71097 6.8117 5.82193 6.70055C6.10739 6.40693 6.19608 6.166 6.19404 5.75745C6.19001 5.56201 6.18218 5.36669 6.17364 5.17141C6.15936 4.80921 6.20802 4.45833 6.27545 4.10318C6.28144 4.07147 6.28744 4.03976 6.29362 4.00709C6.58605 2.52481 7.3193 1.17561 8.54767 0.284466C8.57678 0.263041 8.60588 0.241616 8.63587 0.219542C8.78211 0.118899 8.8772 0.0849121 9.05261 0.102622ZM7.88043 4.20859C7.6692 4.50701 7.56472 4.86362 7.60993 5.23061C7.69603 5.6272 7.83999 5.96806 8.1801 6.20233C8.52715 6.40694 8.89305 6.48127 9.28761 6.38687C9.53551 6.30709 9.74943 6.19765 9.91822 5.99435C9.94542 5.96235 9.94542 5.96235 9.97317 5.92971C10.2175 5.6263 10.3034 5.27138 10.2711 4.88255C10.2148 4.53703 10.0521 4.1839 9.76846 3.97262C9.15357 3.572 8.36071 3.60994 7.88043 4.20859Z" fill="#323233"/>
<path d="M7.82632 10.6133C8.59996 10.6133 9.3736 10.6133 10.1707 10.6133C10.2064 11.0453 10.2064 11.0453 10.2428 11.4861C10.3631 12.2264 10.5077 12.9832 11.0724 13.5228C11.1705 13.5939 11.1705 13.5939 11.2527 13.6319C11.2336 13.786 11.1755 13.9024 11.1027 14.0368C11.065 14.1088 11.065 14.1088 11.0724 14.2138C11.0924 14.1945 11.1125 14.1751 11.1332 14.1552C11.4725 13.8385 11.8063 13.6838 12.2744 13.6955C12.7418 13.7396 13.0811 13.9302 13.4167 14.2501C13.4298 14.2304 13.4429 14.2107 13.4565 14.1903C13.5694 14.0282 13.6551 13.9104 13.8495 13.8501C14.1603 13.8249 14.1603 13.8249 14.2823 13.8865C14.1469 14.195 13.876 14.459 13.6331 14.6866C13.6135 14.7053 13.5939 14.724 13.5737 14.7433C12.949 15.3167 12.2364 15.7236 11.4691 16.0686C11.4325 16.0853 11.4325 16.0853 11.3952 16.1023C9.94179 16.7522 8.07181 16.7039 6.60004 16.1413C6.56852 16.1296 6.537 16.118 6.50452 16.1059C5.75811 15.8118 5.11769 15.3862 4.50815 14.8684C4.46383 14.8313 4.4195 14.7941 4.37515 14.757C4.33387 14.7222 4.33387 14.7222 4.29175 14.6866C4.31838 14.4301 4.51066 14.274 4.68849 14.1047C4.91024 13.9314 5.13819 13.811 5.40983 13.741C5.43884 13.7327 5.46785 13.7245 5.49774 13.716C5.90743 13.6656 6.29791 13.7243 6.63681 13.9727C6.74074 14.0589 6.83308 14.1507 6.92465 14.2501C6.85775 14.0265 6.85775 14.0265 6.75107 13.8205C6.73694 13.7943 6.72281 13.768 6.70824 13.741C6.75115 13.6202 6.81467 13.5597 6.91338 13.4819C7.69393 12.8072 7.72447 11.5377 7.82632 10.6133Z" fill="#0080EF"/>
</svg>
