<svg width="55" height="54" viewBox="0 0 55 54" fill="none" xmlns="http://www.w3.org/2000/svg">
<g clip-path="url(#clip0_31_1174)">
<path d="M50.958 54H3.70801C1.84418 54 0.333008 52.4888 0.333008 50.625V3.375C0.333008 1.51117 1.84418 0 3.70801 0H50.958C52.8218 0 54.333 1.51117 54.333 3.375V50.625C54.333 52.4888 52.8218 54 50.958 54ZM3.70801 2.24986C3.08673 2.24986 2.58287 2.75372 2.58287 3.375V50.625C2.58287 51.2463 3.08673 51.7501 3.70801 51.7501H50.958C51.5793 51.7501 52.0831 51.2463 52.0831 50.625V3.375C52.0831 2.75372 51.5793 2.24986 50.958 2.24986H3.70801Z" fill="#B3B3B2"/>
<path d="M53.2079 13.5H14.9581C14.6599 13.5 14.3735 13.3813 14.1626 13.1704L11.1172 10.125H5.29869L2.25328 13.1704L0.662598 11.5797L4.0376 8.20473C4.24854 7.99379 4.53487 7.87514 4.83315 7.87514H11.5831C11.8814 7.87514 12.1673 7.99379 12.3783 8.20473L15.4237 11.2501H53.2079V13.5Z" fill="#B3B3B2"/>
<path d="M20.5831 40.5H16.083C15.4617 40.5 14.9583 39.9961 14.9583 39.3749V32.6249C14.9583 32.0036 15.4617 31.5001 16.083 31.5001H20.5831C21.2044 31.5001 21.7083 32.0036 21.7083 32.6249V39.3749C21.7083 39.9961 21.2044 40.5 20.5831 40.5ZM17.2081 38.2501H19.458V33.75H17.2081V38.2501Z" fill="#B3B3B2"/>
<path d="M22.8328 33.75H13.8329C13.2116 33.75 12.7078 33.2461 12.7078 32.6249V23.625C12.7078 23.0037 13.2116 22.4999 13.8329 22.4999H22.8328C23.454 22.4999 23.9579 23.0037 23.9579 23.625V32.6249C23.9579 33.2461 23.454 33.75 22.8328 33.75ZM14.958 31.5001H21.708V24.7501H14.958V31.5001Z" fill="#B3B3B2"/>
<path d="M35.2083 40.5C35.02 40.5 34.8346 40.453 34.6694 40.3628L22.2941 33.6128C21.9328 33.4155 21.7078 33.0368 21.7083 32.6249V23.625C21.7078 23.2134 21.9328 22.8344 22.2941 22.6371L34.6694 15.8871C35.0179 15.6971 35.441 15.7045 35.7826 15.9072C36.1237 16.1099 36.3334 16.4778 36.333 16.875V39.3749C36.333 39.9961 35.8295 40.5 35.2083 40.5ZM23.9581 31.9566L34.0831 37.4793V18.7706L23.9581 24.2932V31.9566Z" fill="#B3B3B2"/>
<path d="M13.8331 31.5001H9.33298C8.7117 31.5001 8.20825 30.9963 8.20825 30.375V25.8749C8.20825 25.2536 8.7117 24.7501 9.33298 24.7501H13.8331C14.4544 24.7501 14.9583 25.2536 14.9583 25.8749V30.375C14.9583 30.9963 14.4544 31.5001 13.8331 31.5001ZM10.4581 29.2499H12.708V27H10.4581V29.2499Z" fill="#B3B3B2"/>
<path d="M17.208 27H19.4579V29.2499H17.208V27Z" fill="#B3B3B2"/>
<path d="M38.5833 37.125V34.8751C42.3109 34.8751 45.3333 31.8528 45.3333 28.1251C45.3333 24.3971 42.3109 21.3751 38.5833 21.3751V19.1249C43.5539 19.1249 47.5831 23.1545 47.5831 28.1251C47.5831 33.0958 43.5539 37.125 38.5833 37.125Z" fill="#B3B3B2"/>
<path d="M38.5833 32.6249V30.375C39.8258 30.375 40.8331 29.3677 40.8331 28.1251C40.8331 26.8822 39.8258 25.8749 38.5833 25.8749V23.625C41.0684 23.625 43.083 25.6396 43.083 28.1251C43.083 30.6102 41.0684 32.6249 38.5833 32.6249Z" fill="#B3B3B2"/>
<path d="M38.5833 42.7499H49.833V45.0001H38.5833V42.7499Z" fill="#B3B3B2"/>
<path d="M40.833 47.25H49.8329V49.4999H40.833V47.25Z" fill="#B3B3B2"/>
<path d="M47.583 5.62486H49.8329V7.87514H47.583V5.62486Z" fill="#B3B3B2"/>
<path d="M43.0828 5.62486H45.333V7.87514H43.0828V5.62486Z" fill="#B3B3B2"/>
</g>
<defs>
<clipPath id="clip0_31_1174">
<rect width="54" height="54" fill="white" transform="translate(0.333008)"/>
</clipPath>
</defs>
</svg>
