<svg width="24" height="24" viewBox="0 0 24 24" fill="none" xmlns="http://www.w3.org/2000/svg">
<g clip-path="url(#clip0_1_376)">
<path fill-rule="evenodd" clip-rule="evenodd" d="M11.0425 15.3351C11.1305 15.2473 11.2496 15.198 11.3739 15.1979C11.4982 15.1978 11.6174 15.247 11.7055 15.3347L11.7184 15.3482C11.7638 15.3912 11.8002 15.443 11.8254 15.5003C11.8505 15.5576 11.864 15.6194 11.8648 15.682C11.8657 15.7446 11.854 15.8068 11.8305 15.8648C11.807 15.9228 11.7721 15.9755 11.7278 16.0198C11.6836 16.0641 11.6309 16.0991 11.5729 16.1228C11.5149 16.1464 11.4528 16.1581 11.3902 16.1573C11.3276 16.1565 11.2658 16.1432 11.2084 16.1181C11.151 16.0931 11.0993 16.0567 11.0562 16.0113L11.0429 15.9984C10.955 15.9105 10.9056 15.7912 10.9055 15.6669C10.9054 15.5425 10.9547 15.4232 11.0425 15.3351ZM11.8511 15.2028C11.8946 15.2464 11.9463 15.281 12.0032 15.3046C12.06 15.3281 12.121 15.3403 12.1826 15.3403C12.2442 15.3403 12.3051 15.3281 12.362 15.3046C12.4189 15.281 12.4706 15.2464 12.5141 15.2028L13.3746 14.3423C13.4187 14.2989 13.4538 14.2472 13.4778 14.1902C13.5019 14.1332 13.5144 14.072 13.5146 14.0101C13.5149 13.9482 13.5029 13.8869 13.4793 13.8297C13.4558 13.7725 13.4211 13.7205 13.3774 13.6767C13.3336 13.6329 13.2816 13.5983 13.2244 13.5747C13.1672 13.5511 13.1059 13.5391 13.044 13.5394C12.9822 13.5396 12.9209 13.5521 12.8639 13.5761C12.8069 13.6002 12.7552 13.6352 12.7118 13.6793L11.8511 14.5398C11.8075 14.5834 11.773 14.6351 11.7494 14.6919C11.7259 14.7488 11.7138 14.8098 11.7138 14.8713C11.7138 14.9329 11.7259 14.9939 11.7494 15.0507C11.773 15.1076 11.8076 15.1593 11.8511 15.2028ZM14.2559 12.0348C14.3442 11.9467 14.4603 11.8919 14.5845 11.8797C14.7087 11.8676 14.8333 11.8989 14.937 11.9683C15.0407 12.0376 15.1171 12.1408 15.1532 12.2602C15.1894 12.3797 15.183 12.5079 15.1352 12.6232C15.0874 12.7384 15.0012 12.8335 14.8911 12.8923C14.781 12.9511 14.654 12.9699 14.5316 12.9455C14.4093 12.9211 14.2991 12.8551 14.22 12.7586C14.1409 12.6622 14.0976 12.5413 14.0976 12.4165C14.0975 12.3456 14.1114 12.2753 14.1385 12.2098C14.1657 12.1443 14.2056 12.0848 14.2559 12.0348ZM14.6375 13.8939C14.2958 13.8939 13.9646 13.7754 13.7004 13.5586C13.4363 13.3419 13.2554 13.0402 13.1887 12.705C13.122 12.3699 13.1736 12.022 13.3347 11.7206C13.4957 11.4192 13.7563 11.183 14.072 11.0522C14.3877 10.9213 14.739 10.904 15.066 11.0032C15.3931 11.1024 15.6756 11.3118 15.8655 11.5959C16.0554 11.8801 16.1409 12.2212 16.1075 12.5613C16.074 12.9014 15.9237 13.2194 15.6821 13.4611C15.5452 13.5987 15.3824 13.7078 15.2031 13.7821C15.0239 13.8564 14.8316 13.8944 14.6375 13.8939ZM13.3292 4.72234C13.3292 4.59802 13.3786 4.4788 13.4665 4.39089C13.5544 4.30298 13.6736 4.25359 13.7979 4.25359H19.3336C19.4579 4.25359 19.5771 4.30298 19.665 4.39089C19.7529 4.4788 19.8023 4.59802 19.8023 4.72234C19.8023 4.84666 19.7529 4.96589 19.665 5.0538C19.5771 5.14171 19.4579 5.19109 19.3336 5.19109H13.798C13.6737 5.19109 13.5544 5.14171 13.4665 5.0538C13.3786 4.96589 13.3292 4.84666 13.3292 4.72234ZM7.33701 4.72234C7.33701 4.66077 7.34914 4.5998 7.37271 4.54292C7.39628 4.48603 7.43083 4.43435 7.47437 4.39082C7.51792 4.34729 7.56962 4.31276 7.62651 4.28922C7.68341 4.26567 7.74438 4.25357 7.80596 4.25359H7.83436C7.95868 4.25359 8.0779 4.30298 8.16581 4.39089C8.25372 4.4788 8.30311 4.59802 8.30311 4.72234C8.30311 4.84666 8.25372 4.96589 8.16581 5.0538C8.0779 5.14171 7.95868 5.19109 7.83436 5.19109H7.80596C7.74438 5.19112 7.68341 5.17901 7.62651 5.15547C7.56962 5.13192 7.51792 5.0974 7.47437 5.05387C7.43083 5.01034 7.39628 4.95866 7.37271 4.90177C7.34914 4.84489 7.33701 4.78392 7.33701 4.72234ZM5.76361 4.72234C5.76361 4.59802 5.813 4.4788 5.90091 4.39089C5.98881 4.30298 6.10804 4.25359 6.23236 4.25359H6.26092C6.38524 4.25359 6.50447 4.30298 6.59237 4.39089C6.68028 4.4788 6.72967 4.59802 6.72967 4.72234C6.72967 4.84666 6.68028 4.96589 6.59237 5.0538C6.50447 5.14171 6.38524 5.19109 6.26092 5.19109H6.23236C6.10804 5.19109 5.98881 5.14171 5.90091 5.0538C5.813 4.96589 5.76361 4.84666 5.76361 4.72234ZM4.19018 4.72234C4.19018 4.59802 4.23956 4.4788 4.32747 4.39089C4.41538 4.30298 4.53461 4.25359 4.65893 4.25359H4.68748C4.8118 4.25359 4.93103 4.30298 5.01894 4.39089C5.10684 4.4788 5.15623 4.59802 5.15623 4.72234C5.15623 4.84666 5.10684 4.96589 5.01894 5.0538C4.93103 5.14171 4.8118 5.19109 4.68748 5.19109H4.65896C4.53464 5.19109 4.41542 5.14171 4.32751 5.0538C4.2396 4.96589 4.19018 4.84666 4.19018 4.72234ZM20.5512 16.9277C20.6858 16.9275 20.8149 16.874 20.9101 16.7788C21.0053 16.6836 21.0588 16.5545 21.059 16.4199V7.44887H2.934V16.42C2.93412 16.5547 2.98766 16.6838 3.08286 16.779C3.17807 16.8742 3.30717 16.9277 3.44182 16.9279H7.10236C7.17148 16.7419 7.24255 16.559 7.31557 16.3791H5.51869C5.44581 16.3791 5.37394 16.3621 5.30878 16.3295C5.24362 16.2968 5.18696 16.2494 5.14332 16.1911C5.09967 16.1327 5.07024 16.065 5.05735 15.9932C5.04447 15.9215 5.04848 15.8478 5.06908 15.7779C5.48753 14.3516 6.31341 13.0787 7.44529 12.1153C7.53013 12.0431 7.63789 12.0034 7.74932 12.0033H9.93873C12.0332 9.63922 14.8036 8.41441 18.2255 8.35094C18.2886 8.34984 18.3512 8.36145 18.4096 8.38507C18.4681 8.40869 18.5211 8.44384 18.5657 8.48842C18.6103 8.533 18.6454 8.5861 18.669 8.64455C18.6926 8.703 18.7042 8.76561 18.7031 8.82863C18.641 12.1492 17.4864 14.8564 15.2578 16.9277H20.5512ZM11.6124 20.8773V19.329C12.4905 18.9221 13.3279 18.4326 14.1133 17.8672V19.1286C13.4255 19.8964 12.5697 20.4949 11.6124 20.8773V20.8773ZM9.24689 19.27L7.78404 17.8071C7.94969 17.3207 8.12665 16.8556 8.3149 16.4118C8.8985 16.5052 9.4377 16.7805 9.8556 17.1984C10.2735 17.6163 10.5488 18.1555 10.6421 18.7391C10.1981 18.9275 9.73299 19.1044 9.24689 19.27ZM6.0742 20.9798C7.046 20.909 7.72885 20.4419 8.18787 19.5368L7.51717 18.8661C6.61205 19.3251 6.14475 20.0082 6.0742 20.9798ZM7.7249 15.4414H6.17654C6.55903 14.4843 7.15755 13.6284 7.92537 12.9408H9.18666C8.62129 13.7261 8.13183 14.5634 7.7249 15.4414ZM14.0183 10.136C11.768 11.1008 10.0105 12.8923 8.7144 15.5356C9.39692 15.6946 10.0213 16.0415 10.5168 16.5371C11.0124 17.0326 11.3593 17.657 11.5183 18.3395C14.1617 17.0437 15.9531 15.2864 16.9179 13.0355C16.6965 11.4074 15.6469 10.3578 14.0183 10.136ZM17.432 11.4903C17.605 10.7737 17.7106 10.0425 17.7476 9.30625C17.0114 9.34337 16.2802 9.44904 15.5636 9.62187C16.3839 10.0095 17.0443 10.6699 17.432 11.4903ZM3.44189 2.93359C3.30725 2.93372 3.17816 2.98726 3.08295 3.08247C2.98775 3.17767 2.93421 3.30676 2.93408 3.44141V6.51121H21.0591V3.44141C21.0589 3.30678 21.0053 3.17772 20.9102 3.08252C20.815 2.98733 20.6859 2.93377 20.5513 2.93359H3.44189ZM20.5513 1.99609H3.44189C3.0587 1.99652 2.69133 2.14893 2.42037 2.41988C2.14942 2.69084 1.99701 3.05822 1.99658 3.44141V16.42C1.99696 16.8032 2.14936 17.1706 2.42033 17.4416C2.69129 17.7126 3.05869 17.865 3.44189 17.8654H6.78385C6.76869 17.9703 6.78933 18.0773 6.84244 18.169C6.33998 18.467 5.94361 18.8392 5.66041 19.2814C5.27236 19.8869 5.0951 20.6245 5.13232 21.4741C5.13743 21.5912 5.18623 21.7021 5.26908 21.785C5.35194 21.8678 5.46284 21.9166 5.5799 21.9217C5.65377 21.9248 5.72639 21.9263 5.79865 21.9263C6.55646 21.9263 7.21932 21.7476 7.77244 21.3936C8.21467 21.1104 8.58689 20.7139 8.88502 20.2116C8.94208 20.2448 9.0055 20.2655 9.07114 20.2725C9.13678 20.2795 9.20315 20.2726 9.26592 20.2521C9.75454 20.0923 10.2242 19.9212 10.6748 19.7386V21.5354C10.6747 21.597 10.6868 21.658 10.7104 21.7149C10.7339 21.7718 10.7684 21.8235 10.812 21.867C10.8555 21.9105 10.9072 21.9451 10.9641 21.9686C11.021 21.9921 11.082 22.0042 11.1435 22.0042C11.1884 22.0042 11.233 21.9978 11.276 21.985C12.7023 21.5667 13.9753 20.7409 14.9386 19.609C15.011 19.5241 15.0507 19.4162 15.0508 19.3047V17.8652H20.5512C20.9344 17.8648 21.3018 17.7124 21.5727 17.4415C21.8437 17.1705 21.9961 16.8031 21.9965 16.4199V3.44141C21.996 3.05823 21.8436 2.69087 21.5727 2.41992C21.3017 2.14897 20.9344 1.99655 20.5512 1.99609H20.5513Z" fill="#0080EF"/>
</g>
<defs>
<clipPath id="clip0_1_376">
<rect width="20" height="20" fill="white" transform="translate(2 2)"/>
</clipPath>
</defs>
</svg>
