<svg width="30" height="30" viewBox="0 0 30 30" fill="none" xmlns="http://www.w3.org/2000/svg">
<path d="M15 18.625C17.002 18.625 18.625 17.002 18.625 15C18.625 12.998 17.002 11.375 15 11.375C12.998 11.375 11.375 12.998 11.375 15C11.375 17.002 12.998 18.625 15 18.625Z" stroke="#0080EF" stroke-width="1.8125" stroke-miterlimit="10" stroke-linecap="round" stroke-linejoin="round"/>
<path d="M2.91675 16.0632V13.9366C2.91675 12.6799 3.94383 11.6407 5.21258 11.6407C7.39966 11.6407 8.29383 10.0941 7.19425 8.197C6.56591 7.1095 6.9405 5.69575 8.04008 5.06741L10.1305 3.87116C11.0851 3.30325 12.3176 3.64158 12.8855 4.59616L13.0184 4.82575C14.1059 6.72283 15.8942 6.72283 16.9938 4.82575L17.1267 4.59616C17.6947 3.64158 18.9272 3.30325 19.8817 3.87116L21.9722 5.06741C23.0717 5.69575 23.4463 7.1095 22.818 8.197C21.7184 10.0941 22.6126 11.6407 24.7997 11.6407C26.0563 11.6407 27.0955 12.6678 27.0955 13.9366V16.0632C27.0955 17.3199 26.0684 18.3591 24.7997 18.3591C22.6126 18.3591 21.7184 19.9057 22.818 21.8028C23.4463 22.9024 23.0717 24.3041 21.9722 24.9324L19.8817 26.1287C18.9272 26.6966 17.6947 26.3582 17.1267 25.4037L16.9938 25.1741C15.9063 23.277 14.118 23.277 13.0184 25.1741L12.8855 25.4037C12.3176 26.3582 11.0851 26.6966 10.1305 26.1287L8.04008 24.9324C6.9405 24.3041 6.56591 22.8903 7.19425 21.8028C8.29383 19.9057 7.39966 18.3591 5.21258 18.3591C3.94383 18.3591 2.91675 17.3199 2.91675 16.0632Z" stroke="#0080EF" stroke-width="1.8125" stroke-miterlimit="10" stroke-linecap="round" stroke-linejoin="round"/>
</svg>
