<svg width="24" height="24" viewBox="0 0 24 24" fill="none" xmlns="http://www.w3.org/2000/svg">
<g clip-path="url(#clip0_2004_795)">
<circle cx="12" cy="12" r="2" stroke="#848382" stroke-width="1.67"/>
<path d="M5.39856 5.87922C4.46882 6.88131 3.79371 8.07052 3.40061 9.3446L4.99992 10.268C6.33325 11.0378 6.33325 12.9623 4.99992 13.7321L3.3989 14.6564C3.59411 15.2865 3.86207 15.9047 4.20577 16.5C4.54946 17.0953 4.95089 17.6365 5.39889 18.1205L6.99994 17.1962C8.33328 16.4264 9.99994 17.3886 9.99994 18.9282L9.99994 20.775C11.2999 21.0716 12.6673 21.0816 14 20.7774L14 18.9283C14 17.3887 15.6667 16.4264 17 17.1962L18.6014 18.1208C19.5312 17.1187 20.2063 15.9295 20.5994 14.6554L19 13.732C17.6667 12.9622 17.6667 11.0377 19 10.2679L20.6011 9.34354C20.4059 8.71353 20.1379 8.0953 19.7942 7.50001C19.4505 6.9047 19.0491 6.36352 18.6011 5.87944L17 6.8038C15.6667 7.5736 14 6.61135 14 5.07175L14 3.22501C12.7001 2.92841 11.3327 2.91847 9.99994 3.2226L9.99995 5.07172C9.99995 6.61132 8.33328 7.57357 6.99994 6.80377L5.39856 5.87922Z" stroke="#848382" stroke-width="1.67" stroke-linejoin="round"/>
</g>
<defs>
<clipPath id="clip0_2004_795">
<rect width="24" height="24" fill="white"/>
</clipPath>
</defs>
</svg>
