<svg width="17" height="17" viewBox="0 0 17 17" fill="none" xmlns="http://www.w3.org/2000/svg">
<g clip-path="url(#clip0_2012_4772)">
<circle cx="8.59477" cy="8.74809" r="1.335" stroke="#848382" stroke-width="1.2"/>
<path d="M4.18793 4.66317C3.56733 5.33207 3.11669 6.12587 2.8543 6.97632L3.92184 7.59266C4.81184 8.10651 4.81184 9.39111 3.92184 9.90495L2.85316 10.522C2.98346 10.9425 3.16233 11.3552 3.39175 11.7526C3.62116 12.1499 3.88911 12.5111 4.18815 12.8343L5.25686 12.2172C6.14686 11.7034 7.25936 12.3457 7.25936 13.3734L7.25936 14.6061C8.12707 14.8041 9.03984 14.8107 9.92942 14.6077L9.92942 13.3734C9.92942 12.3457 11.0419 11.7034 11.9319 12.2173L13.0009 12.8344C13.6215 12.1655 14.0721 11.3717 14.3345 10.5213L13.2669 9.90492C12.3769 9.39108 12.3769 8.10647 13.2669 7.59263L14.3356 6.97561C14.2053 6.55507 14.0265 6.1424 13.7971 5.74505C13.5676 5.34768 13.2997 4.98644 13.0006 4.66332L11.9319 5.28033C11.0419 5.79417 9.92942 5.15187 9.92942 4.12418L9.92942 2.89149C9.06172 2.6935 8.14894 2.68687 7.25936 2.88988L7.25936 4.12417C7.25936 5.15185 6.14686 5.79416 5.25686 5.28031L4.18793 4.66317Z" stroke="#848382" stroke-width="1.2" stroke-linejoin="round"/>
</g>
<defs>
<clipPath id="clip0_2012_4772">
<rect width="16.02" height="16.02" fill="white" transform="translate(0.584961 0.738281)"/>
</clipPath>
</defs>
</svg>
