<svg width="27" height="26" viewBox="0 0 27 26" fill="none" xmlns="http://www.w3.org/2000/svg">
<path d="M13.7704 2.16666C10.5118 2.16666 8.39926 4.35391 5.90109 5.15125C4.88493 5.47625 4.37684 5.63766 4.17101 5.86625C3.96518 6.09375 3.90559 6.4285 3.78534 7.09583C2.49617 14.2415 5.31284 20.8477 12.0295 23.4195C12.7499 23.6957 13.1107 23.8333 13.7737 23.8333C14.4367 23.8333 14.7985 23.6947 15.52 23.4184C22.2356 20.8477 25.049 14.2415 23.7598 7.09583C23.6396 6.4285 23.5789 6.09375 23.3731 5.86516C23.1673 5.63658 22.6603 5.47516 21.6441 5.15125C19.1448 4.35391 17.0291 2.16666 13.7704 2.16666Z" stroke="#848382" stroke-width="1.625" stroke-linecap="round" stroke-linejoin="round"/>
<path d="M10.5227 14.0833C10.5227 14.0833 11.606 14.0833 12.6894 16.25C12.6894 16.25 16.1311 10.8333 19.1894 9.75" stroke="#848382" stroke-width="1.625" stroke-linecap="round" stroke-linejoin="round"/>
</svg>
