<svg width="22" height="14" viewBox="0 0 22 14" fill="none" xmlns="http://www.w3.org/2000/svg">
<g clip-path="url(#clip0_163_7963)">
<path d="M20.3594 12C20.3594 12.5894 20.1252 13.1546 19.7085 13.5713C19.2918 13.9881 18.7265 14.2222 18.1372 14.2222H2.5816C1.99223 14.2222 1.427 13.9881 1.01025 13.5713C0.593501 13.1546 0.359375 12.5894 0.359375 12V1.99999C0.359375 1.41062 0.593501 0.845392 1.01025 0.428645C1.427 0.0118972 1.99223 -0.222229 2.5816 -0.222229H18.1372C18.7265 -0.222229 19.2918 0.0118972 19.7085 0.428645C20.1252 0.845392 20.3594 1.41062 20.3594 1.99999V12Z" fill="#C60A1D"/>
<path d="M0.359375 3.66669H20.3594V10.3334H0.359375V3.66669Z" fill="#FFC400"/>
<path d="M5.35938 6.44446V8.11112C5.35938 8.55315 5.53497 8.97708 5.84753 9.28964C6.16009 9.6022 6.58401 9.77779 7.02604 9.77779C7.46807 9.77779 7.89199 9.6022 8.20455 9.28964C8.51711 8.97708 8.69271 8.55315 8.69271 8.11112V6.44446H5.35938Z" fill="#EA596E"/>
<path d="M7.02637 5.88892H8.69303V7.55558H7.02637V5.88892Z" fill="#F4A2B2"/>
<path d="M5.35938 5.88892H7.02604V7.55558H5.35938V5.88892Z" fill="#DD2E44"/>
<path d="M7.02604 5.8889C7.94652 5.8889 8.69271 5.5158 8.69271 5.05556C8.69271 4.59533 7.94652 4.22223 7.02604 4.22223C6.10557 4.22223 5.35938 4.59533 5.35938 5.05556C5.35938 5.5158 6.10557 5.8889 7.02604 5.8889Z" fill="#EA596E"/>
<path d="M7.02604 5.05556C7.94652 5.05556 8.69271 4.86901 8.69271 4.6389C8.69271 4.40878 7.94652 4.22223 7.02604 4.22223C6.10557 4.22223 5.35938 4.40878 5.35938 4.6389C5.35938 4.86901 6.10557 5.05556 7.02604 5.05556Z" fill="#FFAC33"/>
<path d="M4.24805 5.88892H4.8036V9.77781H4.24805V5.88892ZM9.24805 5.88892H9.8036V9.77781H9.24805V5.88892Z" fill="#99AAB5"/>
<path d="M3.69238 9.2222H5.35905V9.77776H3.69238V9.2222ZM8.69238 9.2222H10.359V9.77776H8.69238V9.2222ZM4.24794 5.33331H4.80349V5.88887H4.24794V5.33331ZM9.24794 5.33331H9.80349V5.88887H9.24794V5.33331Z" fill="#66757F"/>
</g>
<defs>
<clipPath id="clip0_163_7963">
<rect width="21" height="14" fill="white" transform="translate(0.0449219)"/>
</clipPath>
</defs>
</svg>
