<svg width="54" height="54" viewBox="0 0 54 54" fill="none" xmlns="http://www.w3.org/2000/svg">
<g clip-path="url(#clip0_44_806)">
<path d="M40.5001 32.6249C33.0444 32.6249 27.0001 26.581 27.0001 19.1249C27.0001 11.6691 33.0444 5.62488 40.5001 5.62488C47.9559 5.62488 54.0001 11.6691 54.0001 19.1249C53.9919 26.5773 47.9526 32.6171 40.5001 32.6249ZM40.5001 7.87515C34.2869 7.87515 29.25 12.9117 29.25 19.1249C29.25 25.3381 34.2869 30.375 40.5001 30.375C46.7133 30.375 51.7503 25.3381 51.7503 19.1249C51.7433 12.9146 46.7104 7.88174 40.5001 7.87515Z" fill="#B3B3B2"/>
<path d="M42.75 39.3749H38.2502C36.386 39.3749 34.8752 37.8641 34.8752 35.9999V30.375H37.1251V35.9999C37.1251 36.6211 37.629 37.125 38.2502 37.125H42.75C43.3712 37.125 43.8751 36.6211 43.8751 35.9999V30.375H46.125V35.9999C46.125 37.8641 44.6142 39.3749 42.75 39.3749Z" fill="#B3B3B2"/>
<path d="M33.7501 33.75H47.2501V35.9999H33.7501V33.75Z" fill="#B3B3B2"/>
<path d="M39.375 22.4999H41.6253V31.5002H39.375V22.4999Z" fill="#B3B3B2"/>
<path d="M40.5001 23.625C38.015 23.625 36 21.6104 36 19.1248C36 16.6397 38.015 14.6251 40.5001 14.6251C42.9852 14.6251 45.0003 16.6397 45.0003 19.1248C45.0003 21.6104 42.9852 23.625 40.5001 23.625ZM40.5001 16.875C39.2576 16.875 38.2503 17.8823 38.2503 19.1248C38.2503 20.3678 39.2576 21.3751 40.5001 21.3751C41.7427 21.3751 42.75 20.3678 42.75 19.1248C42.75 17.8823 41.7427 16.875 40.5001 16.875Z" fill="#B3B3B2"/>
<path d="M1.92039 10.9205L0.329712 9.32945L9.32957 0.32959C9.54051 0.118652 9.82684 0 10.1251 0H38.2503C40.1141 0 41.6253 1.51117 41.6253 3.375H39.375C39.375 2.75372 38.8715 2.24986 38.2503 2.24986H10.5907L1.92039 10.9205Z" fill="#B3B3B2"/>
<path d="M38.2503 54H3.37512C1.51129 54 0.00012207 52.4888 0.00012207 50.625V32.6249H2.24998V50.625C2.24998 51.2463 2.75385 51.7502 3.37512 51.7502H38.2503C38.8715 51.7502 39.375 51.2463 39.375 50.625V48.3752H41.6253V50.625C41.6253 52.4888 40.1141 54 38.2503 54Z" fill="#B3B3B2"/>
<path d="M2.24998 22.4998H0.00012207V10.125C0.00012207 9.50371 0.503983 8.99985 1.12526 8.99985H7.87526C8.49654 8.99985 8.99999 8.4964 8.99999 7.87512V1.12512H11.2503V7.87512C11.2503 9.73895 9.73909 11.2501 7.87526 11.2501H2.24998V22.4998Z" fill="#B3B3B2"/>
<path d="M18.259 46.1248C17.9607 46.1248 17.6744 46.0062 17.4635 45.7953L0.32975 28.6615C-0.109428 28.2224 -0.109428 27.51 0.32975 27.0708L3.44479 23.9546C3.65572 23.7432 3.94247 23.6246 4.24075 23.6246C4.53944 23.6246 4.82577 23.7432 5.03671 23.9546L22.1704 41.0883C22.3818 41.2992 22.5004 41.5856 22.5004 41.8843C22.5004 42.183 22.3818 42.4693 22.1704 42.6802L19.0542 45.7953C18.8432 46.0062 18.5573 46.1248 18.259 46.1248ZM2.71598 27.8664L18.259 43.4094L19.7846 41.8839L4.24157 26.3408L2.71598 27.8664Z" fill="#B3B3B2"/>
<path d="M21.3752 46.1248H18.0002V43.875H20.2501V41.6251H22.5V45.0001C22.5 45.6214 21.9965 46.1248 21.3752 46.1248Z" fill="#B3B3B2"/>
<path d="M38.2502 46.1248H21.3752V43.875H38.2502C38.8715 43.875 39.375 43.3711 39.375 42.7498V38.2501H41.6252V42.7498C41.6252 44.6141 40.1141 46.1248 38.2502 46.1248Z" fill="#B3B3B2"/>
<path d="M24.7503 22.4999H6.75014C6.12886 22.4999 5.625 21.9964 5.625 21.3751V14.6251C5.625 14.0039 6.12886 13.5 6.75014 13.5H24.7503V15.7499H7.87527V20.25H24.7503V22.4999Z" fill="#B3B3B2"/>
<path d="M11.2502 24.7501H27.0001V27H11.2502V24.7501Z" fill="#B3B3B2"/>
<path d="M14.6252 29.2499H28.1252V31.5002H14.6252V29.2499Z" fill="#B3B3B2"/>
<path d="M19.125 33.75H31.5003V35.9999H19.125V33.75Z" fill="#B3B3B2"/>
<path d="M10.1251 49.4999H7.87524C6.011 49.4999 4.50024 47.9891 4.50024 46.1249V43.875H6.75011V46.1249C6.75011 46.7461 7.25397 47.25 7.87524 47.25H10.1251V49.4999Z" fill="#B3B3B2"/>
<path d="M12.375 47.25H14.6253V49.4999H12.375V47.25Z" fill="#B3B3B2"/>
</g>
<defs>
<clipPath id="clip0_44_806">
<rect width="54" height="54" fill="white"/>
</clipPath>
</defs>
</svg>
