<svg width="21" height="21" viewBox="0 0 21 21" fill="none" xmlns="http://www.w3.org/2000/svg">
<g clip-path="url(#clip0_2012_7188)">
<path d="M15.5628 12.7423V8.75474M19.5504 16.0653V5.43174C19.5504 5.07921 19.4104 4.74113 19.1611 4.49185C18.9119 4.24258 18.5738 4.10254 18.2212 4.10254L2.27085 4.10254C1.91832 4.10254 1.58024 4.24258 1.33096 4.49185C1.08169 4.74113 0.94165 5.07921 0.94165 5.43174L0.94165 16.0653C0.94165 16.4179 1.08169 16.7559 1.33096 17.0052C1.58024 17.2545 1.91832 17.3945 2.27085 17.3945H18.2212C18.5738 17.3945 18.9119 17.2545 19.1611 17.0052C19.4104 16.7559 19.5504 16.4179 19.5504 16.0653Z" stroke="#848382" stroke-width="1.4"/>
</g>
<defs>
<clipPath id="clip0_2012_7188">
<rect width="20" height="20" fill="white" transform="matrix(0 -1 1 0 0.246094 20.7485)"/>
</clipPath>
</defs>
</svg>
