<svg width="21" height="21" viewBox="0 0 21 21" fill="none" xmlns="http://www.w3.org/2000/svg">
<g clip-path="url(#clip0_2012_7190)">
<path d="M8.25229 16.065H12.2399M4.9293 20.0526H15.5629C15.9154 20.0526 16.2535 19.9126 16.5028 19.6633C16.752 19.414 16.8921 19.076 16.8921 18.7234V2.77305C16.8921 2.42052 16.752 2.08243 16.5028 1.83316C16.2535 1.58389 15.9154 1.44385 15.5629 1.44385H4.9293C4.57677 1.44385 4.23868 1.58389 3.98941 1.83316C3.74014 2.08243 3.6001 2.42052 3.6001 2.77305V18.7234C3.6001 19.076 3.74014 19.414 3.98941 19.6633C4.23868 19.9126 4.57677 20.0526 4.9293 20.0526Z" stroke="#848382" stroke-width="1.4"/>
</g>
<defs>
<clipPath id="clip0_2012_7190">
<rect width="20" height="20" fill="white" transform="translate(0.246094 0.748535)"/>
</clipPath>
</defs>
</svg>
