<svg width="24" height="24" viewBox="0 0 24 24" fill="none" xmlns="http://www.w3.org/2000/svg">
<path fill-rule="evenodd" clip-rule="evenodd" d="M22.1595 5.22751L20.9895 4.95151L17.8275 8.09551L16.0365 6.27151L19.1205 3.03601L18.8505 1.84801C18.199 1.62951 17.5172 1.51412 16.83 1.50601C16.0803 1.49274 15.336 1.63578 14.6445 1.92601C13.976 2.22764 13.372 2.65547 12.8655 3.18601C12.3 3.71958 11.8528 4.36605 11.553 5.08351C10.9735 6.5099 10.9735 8.10612 11.553 9.53251C8.42586 12.609 5.33909 15.7262 2.29354 18.8835C1.97854 19.296 1.82854 19.8105 1.86754 20.328C1.88252 20.6037 1.9517 20.8737 2.07113 21.1226C2.19055 21.3714 2.35788 21.5943 2.56354 21.7785C2.75154 21.9835 2.97004 22.1475 3.21904 22.2705C3.47404 22.383 3.74854 22.4475 4.02604 22.461C4.50004 22.452 4.95454 22.272 5.30704 21.9555C7.62904 19.77 12.078 15.2805 14.6055 12.6495C15.291 12.9405 16.0275 13.0905 16.7715 13.089C17.5204 13.0881 18.2615 12.9372 18.9512 12.6453C19.6408 12.3535 20.265 11.9265 20.787 11.3895C21.8568 10.295 22.4551 8.82495 22.4535 7.29451C22.4712 6.59395 22.3718 5.89536 22.1595 5.22751ZM4.39954 20.892C4.34218 20.9438 4.27244 20.98 4.19704 20.997C4.1232 21.011 4.04738 21.011 3.97354 20.997C3.89606 20.985 3.82225 20.9558 3.75754 20.9115C3.68834 20.8707 3.62975 20.8142 3.58654 20.7465C3.37654 20.532 3.18004 20.124 3.37654 19.8945C5.43154 17.709 9.66304 13.437 12.309 10.8255C12.459 11.0245 12.623 11.2125 12.801 11.3895C12.978 11.5745 13.168 11.745 13.371 11.901C10.812 14.526 6.63754 18.747 4.39954 20.892ZM21.0765 7.29451C21.0795 8.44201 20.6325 9.54451 19.8285 10.3665C19.0264 11.1539 17.9473 11.595 16.8233 11.595C15.6993 11.595 14.6202 11.1539 13.818 10.3665C13.2297 9.75305 12.8278 8.98503 12.6592 8.15194C12.4905 7.31885 12.5621 6.45499 12.8655 5.66101C13.0674 5.1207 13.3804 4.62874 13.7843 4.2169C14.1881 3.80506 14.6738 3.48248 15.21 3.27001C15.7197 3.0584 16.2662 2.94932 16.818 2.94901H17.199L14.4735 5.75851V6.80251L17.316 9.63151H18.306L21.0765 6.90751V7.29451ZM4.86004 10.032H7.15654L8.21404 11.1075L9.23104 10.0965L8.23354 9.07951V9.01501L8.31904 6.54151L7.98904 5.88601L3.69904 3.06301L2.81254 3.16201L1.56604 4.43551L1.46704 5.33401L4.22404 9.71101L4.86004 10.032ZM3.44254 4.58401L6.91354 6.87001L6.85504 8.55451H5.24104L3.00304 5.01151L3.44254 4.58401ZM14.1 15.024L15.111 14.0145L19.77 18.792C20.1621 19.2046 20.3808 19.7521 20.3808 20.3213C20.3808 20.8904 20.1621 21.4379 19.77 21.8505C19.4754 22.1542 19.096 22.3617 18.6814 22.446C18.2668 22.5304 17.8364 22.4875 17.4465 22.323C17.1974 22.213 16.9742 22.052 16.791 21.8505L12.078 17.046L13.0965 16.029L17.7945 20.82C17.8576 20.8898 17.9363 20.9437 18.024 20.9775C18.1968 21.0472 18.3898 21.0472 18.5625 20.9775C18.6503 20.9437 18.7289 20.8898 18.792 20.82C18.8591 20.7561 18.9104 20.6776 18.942 20.5905C18.9773 20.5027 18.9956 20.4091 18.996 20.3145C18.9931 20.2203 18.9754 20.1272 18.9435 20.0385C18.9119 19.9515 18.8606 19.8729 18.7935 19.809L14.1 15.024Z" fill="#0080EF"/>
</svg>
