<svg width="24" height="24" viewBox="0 0 24 24" fill="none" xmlns="http://www.w3.org/2000/svg">
<path d="M20.9461 12.99C21.1442 11.2006 20.801 9.39285 19.961 7.80047C19.121 6.20809 17.8227 4.90424 16.2339 4.05743C14.6451 3.21062 12.8389 2.85977 11.0486 3.05023C9.25838 3.24068 7.56639 3.96369 6.19133 5.1258C4.81626 6.28792 3.82134 7.83573 3.33514 9.5692C2.84893 11.3027 2.8938 13.1421 3.46393 14.8498C4.03407 16.5575 5.10327 18.055 6.53335 19.1487C7.96344 20.2424 9.68867 20.882 11.4861 20.985M3.60009 9H20.4001M3.60009 15H17.5001" stroke="#0080EF" stroke-width="1.5" stroke-linecap="round" stroke-linejoin="round"/>
<path d="M11.5002 3C9.8155 5.69961 8.92236 8.81787 8.92236 12C8.92236 15.1821 9.8155 18.3004 11.5002 21M12.5002 3C14.7315 6.57555 15.5551 10.8525 14.8112 15.001M15.0002 19L17.0002 21L21.0002 17" stroke="#0080EF" stroke-width="1.5" stroke-linecap="round" stroke-linejoin="round"/>
</svg>
