<svg width="55" height="54" viewBox="0 0 55 54" fill="none" xmlns="http://www.w3.org/2000/svg">
<g clip-path="url(#clip0_44_748)">
<path d="M40.0416 47.25H4.04175C2.17792 47.25 0.666748 45.7388 0.666748 43.875V16.875C0.666748 15.0112 2.17792 13.5 4.04175 13.5H18.6669V15.7499H4.04175C3.42047 15.7499 2.91661 16.2537 2.91661 16.875V43.875C2.91661 44.4963 3.42047 45.0001 4.04175 45.0001H40.0416C40.6629 45.0001 41.1668 44.4963 41.1668 43.875V40.5H35.5419V38.2501H42.2919C42.9132 38.2501 43.4166 38.7536 43.4166 39.3749V43.875C43.4166 45.7388 41.9059 47.25 40.0416 47.25Z" fill="#B3B3B2"/>
<path d="M11.917 51.7501H32.167V54H11.917V51.7501Z" fill="#B3B3B2"/>
<path d="M14.1667 47.25H16.4166V52.8749H14.1667V47.25Z" fill="#B3B3B2"/>
<path d="M27.6667 46.1249H29.9166V52.8749H27.6667V46.1249Z" fill="#B3B3B2"/>
<path d="M51.2917 33.75H24.2917C22.4279 33.75 20.9167 32.2388 20.9167 30.375V3.375C20.9167 1.51117 22.4279 0 24.2917 0H32.1669C34.0307 0 35.5419 1.51117 35.5419 3.375V5.62486H51.2917C53.1556 5.62486 54.6667 7.13603 54.6667 8.99986V30.375C54.6667 32.2388 53.1556 33.75 51.2917 33.75ZM24.2917 2.24986C23.6705 2.24986 23.1666 2.75372 23.1666 3.375V30.375C23.1666 30.9963 23.6705 31.5001 24.2917 31.5001H51.2917C51.913 31.5001 52.4169 30.9963 52.4169 30.375V8.99986C52.4169 8.37859 51.913 7.87514 51.2917 7.87514H28.7919V5.62486H33.2916V3.375C33.2916 2.75372 32.7882 2.24986 32.1669 2.24986H24.2917Z" fill="#B3B3B2"/>
<path d="M33.2915 42.7499C31.4277 42.7499 29.9165 41.2391 29.9165 39.3749C29.9165 37.511 31.4277 35.9999 33.2915 35.9999C35.1557 35.9999 36.6665 37.511 36.6665 39.3749C36.6665 41.2391 35.1557 42.7499 33.2915 42.7499ZM33.2915 38.2502C32.6702 38.2502 32.1668 38.7536 32.1668 39.3749C32.1668 39.9962 32.6702 40.5 33.2915 40.5C33.9128 40.5 34.4166 39.9962 34.4166 39.3749C34.4166 38.7536 33.9128 38.2502 33.2915 38.2502Z" fill="#B3B3B2"/>
<path d="M32.167 32.6249H34.4169V37.125H32.167V32.6249Z" fill="#B3B3B2"/>
<path d="M5.16699 38.2501H31.0419V40.5H5.16699V38.2501Z" fill="#B3B3B2"/>
<path d="M31.0419 28.1251H26.5417C25.9204 28.1251 25.417 27.6213 25.417 27V18.0001C25.417 17.3789 25.9204 16.875 26.5417 16.875H31.0419C31.6631 16.875 32.167 17.3789 32.167 18.0001V27C32.167 27.6213 31.6631 28.1251 31.0419 28.1251ZM27.6669 25.8749H29.9167V19.1249H27.6669V25.8749Z" fill="#B3B3B2"/>
<path d="M40.0416 28.1251H35.5419C34.9206 28.1251 34.4167 27.6213 34.4167 27V12.3748C34.4167 11.7536 34.9206 11.2501 35.5419 11.2501H40.0416C40.6629 11.2501 41.1667 11.7536 41.1667 12.3748V27C41.1667 27.6213 40.6629 28.1251 40.0416 28.1251ZM36.6666 25.8748H38.9169V13.5H36.6666V25.8748Z" fill="#B3B3B2"/>
<path d="M49.0418 28.1252H44.5416C43.9204 28.1252 43.4165 27.6213 43.4165 27V16.875C43.4165 16.2537 43.9204 15.7499 44.5416 15.7499H49.0418C49.6631 15.7499 50.1665 16.2537 50.1665 16.875V27C50.1665 27.6213 49.6631 28.1252 49.0418 28.1252ZM45.6668 25.8749H47.9166V18.0002H45.6668V25.8749Z" fill="#B3B3B2"/>
<path d="M7.41685 23.625H5.16699V21.3751C5.16699 19.5109 6.67775 18.0001 8.54199 18.0001H10.7919V20.25H8.54199C7.92072 20.25 7.41685 20.7538 7.41685 21.3751V23.625Z" fill="#B3B3B2"/>
<path d="M5.16699 25.8749H7.41685V28.1252H5.16699V25.8749Z" fill="#B3B3B2"/>
</g>
<defs>
<clipPath id="clip0_44_748">
<rect width="54" height="54" fill="white" transform="translate(0.666748)"/>
</clipPath>
</defs>
</svg>
