<svg width="55" height="54" viewBox="0 0 55 54" fill="none" xmlns="http://www.w3.org/2000/svg">
<path d="M49.6042 12.6563H38.6355C38.4117 12.6563 38.1971 12.5674 38.0389 12.4091C37.8806 12.2509 37.7917 12.0363 37.7917 11.8125V0.843753C37.7918 0.676902 37.8413 0.513806 37.934 0.375085C38.0267 0.236364 38.1585 0.128247 38.3126 0.0644C38.4668 0.000553433 38.6364 -0.0161553 38.8001 0.0163861C38.9637 0.0489274 39.114 0.129258 39.232 0.247222L50.2008 11.216C50.3187 11.334 50.3991 11.4843 50.4316 11.6479C50.4642 11.8116 50.4474 11.9812 50.3836 12.1354C50.3198 12.2895 50.2116 12.4213 50.0729 12.514C49.9342 12.6067 49.7711 12.6562 49.6042 12.6563ZM39.4792 10.9688H47.5674L39.4792 2.88057V10.9688Z" fill="#B3B3B2"/>
<path d="M49.6042 54H5.72925C5.50547 54 5.29086 53.9111 5.13263 53.7529C4.97439 53.5946 4.8855 53.38 4.8855 53.1562V0.84375C4.8855 0.619974 4.97439 0.405362 5.13263 0.247129C5.29086 0.0888949 5.50547 0 5.72925 0L38.6355 0C38.8593 4.77878e-05 39.0738 0.088974 39.232 0.247219L50.2008 11.216C50.359 11.3742 50.4479 11.5887 50.448 11.8125V53.1562C50.448 53.38 50.3591 53.5946 50.2009 53.7529C50.0426 53.9111 49.828 54 49.6042 54ZM6.573 52.3125H48.7605V12.1618L38.2862 1.6875H6.573V52.3125Z" fill="#B3B3B2"/>
<path d="M14.1667 21.0938C13.4992 21.0938 12.8467 20.8958 12.2917 20.525C11.7367 20.1541 11.3041 19.627 11.0487 19.0103C10.7932 18.3936 10.7264 17.715 10.8566 17.0603C10.9868 16.4056 11.3083 15.8043 11.7803 15.3323C12.2523 14.8603 12.8536 14.5388 13.5083 14.4086C14.163 14.2784 14.8416 14.3452 15.4583 14.6007C16.075 14.8561 16.6021 15.2887 16.973 15.8437C17.3438 16.3987 17.5417 17.0512 17.5417 17.7188C17.5417 18.6139 17.1862 19.4723 16.5532 20.1052C15.9203 20.7382 15.0619 21.0938 14.1667 21.0938ZM14.1667 16.0313C13.833 16.0313 13.5067 16.1302 13.2292 16.3156C12.9517 16.5011 12.7354 16.7646 12.6077 17.073C12.48 17.3813 12.4466 17.7206 12.5117 18.048C12.5768 18.3753 12.7375 18.676 12.9735 18.912C13.2095 19.148 13.5102 19.3087 13.8375 19.3738C14.1649 19.4389 14.5042 19.4055 14.8125 19.2778C15.1209 19.1501 15.3844 18.9338 15.5699 18.6563C15.7553 18.3788 15.8542 18.0525 15.8542 17.7188C15.8542 17.2712 15.6765 16.842 15.36 16.5255C15.0435 16.209 14.6143 16.0313 14.1667 16.0313Z" fill="#B3B3B2"/>
<path d="M29.3542 21.0938C28.6867 21.0938 28.0342 20.8958 27.4792 20.525C26.9242 20.1541 26.4916 19.627 26.2362 19.0103C25.9807 18.3936 25.9139 17.715 26.0441 17.0603C26.1743 16.4056 26.4958 15.8043 26.9678 15.3323C27.4398 14.8603 28.0411 14.5388 28.6958 14.4086C29.3505 14.2784 30.0291 14.3452 30.6458 14.6007C31.2625 14.8561 31.7896 15.2887 32.1605 15.8437C32.5313 16.3987 32.7292 17.0512 32.7292 17.7188C32.7292 18.6139 32.3737 19.4723 31.7407 20.1052C31.1078 20.7382 30.2494 21.0938 29.3542 21.0938ZM29.3542 16.0313C29.0205 16.0313 28.6942 16.1302 28.4167 16.3156C28.1392 16.5011 27.9229 16.7646 27.7952 17.073C27.6675 17.3813 27.6341 17.7206 27.6992 18.048C27.7643 18.3753 27.925 18.676 28.161 18.912C28.397 19.148 28.6977 19.3087 29.025 19.3738C29.3524 19.4389 29.6917 19.4055 30 19.2778C30.3084 19.1501 30.5719 18.9338 30.7574 18.6563C30.9428 18.3788 31.0417 18.0525 31.0417 17.7188C31.0417 17.2712 30.864 16.842 30.5475 16.5255C30.231 16.209 29.8018 16.0313 29.3542 16.0313Z" fill="#B3B3B2"/>
<path d="M21.7605 27.8438C21.093 27.8438 20.4405 27.6458 19.8855 27.275C19.3304 26.9041 18.8979 26.377 18.6424 25.7603C18.387 25.1436 18.3201 24.465 18.4503 23.8103C18.5806 23.1556 18.902 22.5543 19.374 22.0823C19.846 21.6103 20.4474 21.2888 21.1021 21.1586C21.7568 21.0284 22.4354 21.0952 23.0521 21.3507C23.6688 21.6061 24.1959 22.0387 24.5667 22.5937C24.9376 23.1487 25.1355 23.8012 25.1355 24.4688C25.1355 25.3639 24.7799 26.2223 24.147 26.8552C23.514 27.4882 22.6556 27.8438 21.7605 27.8438ZM21.7605 22.7813C21.4267 22.7813 21.1005 22.8802 20.823 23.0656C20.5455 23.2511 20.3292 23.5146 20.2015 23.823C20.0737 24.1313 20.0403 24.4706 20.1054 24.798C20.1705 25.1253 20.3313 25.426 20.5673 25.662C20.8033 25.898 21.1039 26.0587 21.4313 26.1238C21.7586 26.1889 22.0979 26.1555 22.4063 26.0278C22.7146 25.9001 22.9782 25.6838 23.1636 25.4063C23.349 25.1288 23.448 24.8025 23.448 24.4688C23.448 24.0212 23.2702 23.592 22.9537 23.2755C22.6373 22.959 22.2081 22.7813 21.7605 22.7813Z" fill="#B3B3B2"/>
<path d="M36.948 27.8438C36.2805 27.8438 35.628 27.6458 35.0729 27.275C34.5179 26.9041 34.0854 26.377 33.8299 25.7603C33.5745 25.1436 33.5076 24.465 33.6378 23.8103C33.7681 23.1556 34.0895 22.5543 34.5615 22.0823C35.0335 21.6103 35.6349 21.2888 36.2896 21.1586C36.9443 21.0284 37.6229 21.0952 38.2396 21.3507C38.8563 21.6061 39.3834 22.0387 39.7542 22.5937C40.1251 23.1487 40.323 23.8012 40.323 24.4688C40.323 25.3639 39.9674 26.2223 39.3345 26.8552C38.7015 27.4882 37.8431 27.8438 36.948 27.8438ZM36.948 22.7813C36.6142 22.7813 36.288 22.8802 36.0105 23.0656C35.733 23.2511 35.5167 23.5146 35.389 23.823C35.2612 24.1313 35.2278 24.4706 35.2929 24.798C35.358 25.1253 35.5188 25.426 35.7548 25.662C35.9908 25.898 36.2914 26.0587 36.6188 26.1238C36.9461 26.1889 37.2854 26.1555 37.5938 26.0278C37.9021 25.9001 38.1657 25.6838 38.3511 25.4063C38.5365 25.1288 38.6355 24.8025 38.6355 24.4688C38.6355 24.0212 38.4577 23.592 38.1412 23.2755C37.8248 22.959 37.3956 22.7813 36.948 22.7813Z" fill="#B3B3B2"/>
<path d="M16.3811 18.7469L15.3269 20.0646L19.5456 23.4396L20.5997 22.1218L16.3811 18.7469Z" fill="#B3B3B2"/>
<path d="M31.5691 18.7472L30.5149 20.0649L34.7335 23.4399L35.7877 22.1222L31.5691 18.7472Z" fill="#B3B3B2"/>
<path d="M27.1394 18.7482L22.9204 22.1228L23.9745 23.4406L28.1934 20.066L27.1394 18.7482Z" fill="#B3B3B2"/>
<path d="M39.2321 23.3778L38.0391 22.1847L43.1016 17.1222C43.2196 17.0043 43.3699 16.9239 43.5335 16.8914C43.6972 16.8588 43.8668 16.8756 44.021 16.9394C44.1751 17.0032 44.3069 17.1114 44.3996 17.2501C44.4923 17.3888 44.5418 17.5519 44.5418 17.7188V21.9375H42.8543V19.7556L39.2321 23.3778Z" fill="#B3B3B2"/>
<path d="M43.698 16.875H39.4792V18.5625H43.698V16.875Z" fill="#B3B3B2"/>
<path d="M35.2605 4.21875H14.1667V5.90625H35.2605V4.21875Z" fill="#B3B3B2"/>
<path d="M28.5105 7.59375H10.7917V9.28125H28.5105V7.59375Z" fill="#B3B3B2"/>
<path d="M12.4792 4.21875H10.7917V5.90625H12.4792V4.21875Z" fill="#B3B3B2"/>
<path d="M35.2605 7.59375H33.573V9.28125H35.2605V7.59375Z" fill="#B3B3B2"/>
<path d="M31.8855 7.59375H30.198V9.28125H31.8855V7.59375Z" fill="#B3B3B2"/>
<path d="M19.2293 46.4063C17.8942 46.4063 16.5892 46.0104 15.4792 45.2687C14.3691 44.527 13.504 43.4728 12.9931 42.2394C12.4822 41.006 12.3485 39.6488 12.609 38.3394C12.8694 37.03 13.5123 35.8273 14.4563 34.8833C15.4003 33.9393 16.603 33.2964 17.9124 33.036C19.2218 32.7755 20.579 32.9092 21.8124 33.4201C23.0458 33.931 24.1 34.7961 24.8417 35.9062C25.5834 37.0162 25.9793 38.3212 25.9793 39.6563C25.9772 41.4458 25.2654 43.1616 24 44.427C22.7346 45.6924 21.0188 46.4042 19.2293 46.4063ZM19.2293 34.5938C18.228 34.5938 17.2492 34.8907 16.4167 35.4469C15.5842 36.0032 14.9353 36.7939 14.5521 37.7189C14.1689 38.644 14.0687 39.6619 14.264 40.6439C14.4594 41.6259 14.9415 42.528 15.6495 43.236C16.3575 43.944 17.2596 44.4261 18.2416 44.6215C19.2236 44.8168 20.2415 44.7166 21.1666 44.3334C22.0916 43.9502 22.8823 43.3014 23.4386 42.4688C23.9948 41.6363 24.2918 40.6575 24.2918 39.6563C24.2904 38.314 23.7566 37.0271 22.8075 36.078C21.8584 35.1289 20.5715 34.5951 19.2293 34.5938Z" fill="#B3B3B2"/>
<path d="M25.1355 40.5H19.2292C19.0055 40.5 18.7909 40.4111 18.6326 40.2529C18.4744 40.0946 18.3855 39.88 18.3855 39.6562V33.75H20.073V38.8125H25.1355V40.5Z" fill="#B3B3B2"/>
<path d="M45.3855 49.7812H9.948C9.72422 49.7812 9.50961 49.6924 9.35138 49.5341C9.19314 49.3759 9.10425 49.1613 9.10425 48.9375V30.375C9.10425 30.1512 9.19314 29.9366 9.35138 29.7784C9.50961 29.6201 9.72422 29.5312 9.948 29.5312H45.3855C45.6093 29.5312 45.8239 29.6201 45.9821 29.7784C46.1404 29.9366 46.2292 30.1512 46.2292 30.375V48.9375C46.2292 49.1613 46.1404 49.3759 45.9821 49.5341C45.8239 49.6924 45.6093 49.7812 45.3855 49.7812ZM10.7917 48.0938H44.5417V31.2188H10.7917V48.0938Z" fill="#B3B3B2"/>
<path d="M42.8542 44.7188H27.6667V46.4062H42.8542V44.7188Z" fill="#B3B3B2"/>
<path d="M31.0417 36.2812H29.3542V45.5625H31.0417V36.2812Z" fill="#B3B3B2"/>
<path d="M34.4167 32.9062H32.7292V45.5625H34.4167V32.9062Z" fill="#B3B3B2"/>
<path d="M37.7917 37.9688H36.1042V45.5625H37.7917V37.9688Z" fill="#B3B3B2"/>
<path d="M41.1667 34.5938H39.4792V45.5625H41.1667V34.5938Z" fill="#B3B3B2"/>
</svg>
