<svg width="20" height="19" viewBox="0 0 20 19" fill="none" xmlns="http://www.w3.org/2000/svg">
<path d="M10.1306 3.16663C10.5533 3.169 11.611 3.17929 12.7352 3.22442L13.1342 3.24183C14.2655 3.29488 15.396 3.38671 15.9573 3.54267C16.7054 3.75325 17.2928 4.366 17.4915 5.14342C17.8082 6.37842 17.8478 8.78667 17.8525 9.37013L17.8533 9.49046V9.62821C17.8478 10.2117 17.8082 12.6207 17.4915 13.8549C17.2904 14.6347 16.7022 15.2483 15.9573 15.4557C15.396 15.6116 14.2655 15.7035 13.1342 15.7565L12.7352 15.7747C11.611 15.819 10.5533 15.8301 10.1306 15.8317L9.94454 15.8325H9.74267C8.84809 15.827 5.10667 15.7866 3.916 15.4557C3.16867 15.2451 2.58046 14.6323 2.38175 13.8549C2.06509 12.6199 2.0255 10.2117 2.02075 9.62821V9.37013C2.0255 8.78667 2.06509 6.37763 2.38175 5.14342C2.58284 4.36363 3.17104 3.75008 3.91679 3.54346C5.10667 3.21175 8.84888 3.17138 9.74346 3.16663H10.1306ZM8.35329 6.72913V12.2708L13.1033 9.49996L8.35329 6.72913Z" fill="#848382"/>
</svg>
