<svg width="54" height="40" viewBox="0 0 54 40" fill="none" xmlns="http://www.w3.org/2000/svg"><g clip-path="url(#clip0_311_7235)"><path d="M11.3087 24.2569V23.2569H10.3087H1.60408C1.28718 23.2569 1 22.9905 1 22.6238V1.63309C1 1.26637 1.28718 1 1.60408 1H22.2219C22.5388 1 22.826 1.26637 22.826 1.63309V22.6238C22.826 22.6933 22.8149 22.7621 22.7934 22.8275L22.7929 22.8289L17.6385 38.5721C17.5519 38.8371 17.3159 39 17.0675 39H11.9128C11.596 39 11.3087 38.7334 11.3087 38.3669V24.2569Z" stroke="#54595F" stroke-width="2"/><path d="M41.3087 24.2569V23.2569H40.3087H31.6041C31.2872 23.2569 31 22.9905 31 22.6238V1.63309C31 1.26637 31.2872 1 31.6041 1H52.2219C52.5388 1 52.826 1.26637 52.826 1.63309V22.6238C52.826 22.6933 52.8149 22.7621 52.7934 22.8275L52.7929 22.8289L47.6385 38.5721C47.5519 38.8371 47.3159 39 47.0675 39H41.9128C41.596 39 41.3087 38.7334 41.3087 38.3669V24.2569Z" stroke="#54595F" stroke-width="2"/></g><defs><clipPath id="clip0_311_7235"><rect width="54" height="40" fill="white"/></clipPath></defs></svg>