<svg width="24" height="24" viewBox="0 0 24 34" fill="none" xmlns="http://www.w3.org/2000/svg">
<path fill-rule="evenodd" clip-rule="evenodd" d="M10.0002 7C4.48621 7 0 11.4851 0 17.0003C0 22.5144 4.48621 27 10.0002 27C15.5143 27 20.0006 22.5144 20.0006 17.0003C20.0006 11.4851 15.5143 7 10.0002 7ZM15.5754 13.6652L9.42138 20.5885C9.26986 20.7584 9.05871 20.8461 8.84595 20.8461C8.67715 20.8461 8.50755 20.7907 8.36563 20.6783L4.51928 17.6008C4.18773 17.3358 4.13395 16.8513 4.39933 16.5191C4.66439 16.1879 5.14895 16.1336 5.4805 16.3992L8.75634 19.0197L14.4253 12.6426C14.707 12.3243 15.1938 12.2958 15.5112 12.5786C15.8289 12.8609 15.8577 13.3469 15.5754 13.6652Z" fill="#2F87E9"/>
</svg>
