<svg width="49" height="49" viewBox="0 0 49 49" fill="none" xmlns="http://www.w3.org/2000/svg">
<path d="M36.3526 29.1692C35.8314 29.6743 35.5919 30.4048 35.7106 31.1213L37.4997 41.0226C37.6506 41.8618 37.2964 42.711 36.5941 43.196C35.9058 43.6992 34.9901 43.7595 34.2395 43.357L25.3263 38.7082C25.0164 38.5432 24.6722 38.4547 24.3201 38.4446H23.7747C23.5855 38.4728 23.4004 38.5332 23.2313 38.6257L14.3161 43.2967C13.8754 43.518 13.3763 43.5965 12.8872 43.518C11.6959 43.2926 10.9009 42.1576 11.0961 40.9602L12.8872 31.0589C13.006 30.3364 12.7665 29.6018 12.2453 29.0887L4.97826 22.045C4.37049 21.4554 4.15918 20.5699 4.4369 19.771C4.70657 18.974 5.39484 18.3924 6.22599 18.2616L16.2279 16.8106C16.9886 16.7321 17.6568 16.2693 17.9989 15.585L22.4062 6.54907C22.5108 6.34782 22.6457 6.16267 22.8087 6.0057L22.9898 5.86483C23.0844 5.76018 23.1931 5.67364 23.3138 5.60321L23.5332 5.52271L23.8753 5.38184H24.7225C25.4792 5.46032 26.1454 5.91313 26.4935 6.58931L30.9592 15.585C31.2812 16.2431 31.907 16.6999 32.6295 16.8106L42.6315 18.2616C43.4767 18.3824 44.1831 18.966 44.4628 19.771C44.7264 20.578 44.499 21.4634 43.8792 22.045L36.3526 29.1692Z" fill="url(#paint0_linear_647_890)"/>
<defs>
<linearGradient id="paint0_linear_647_890" x1="24.5521" y1="24.5015" x2="23.8822" y2="24.5015" gradientUnits="userSpaceOnUse">
<stop stop-color="#6B6B6B" stop-opacity="0.39"/>
<stop offset="1" stop-color="#FFCC00"/>
</linearGradient>
</defs>
</svg>
