<svg width="1440" height="693" viewBox="0 0 1440 693" fill="none" xmlns="http://www.w3.org/2000/svg">
<path opacity="0.2" fill-rule="evenodd" clip-rule="evenodd" d="M1483.39 637.811C1451.26 655.349 1393.53 677.667 1324.66 687.667C1255.8 697.668 1175.77 695.356 1099.1 663.593C1075.11 653.657 1058.48 641.46 1047.23 627.685C1035.98 613.907 1030.14 598.579 1027.69 582.418C1023.48 554.62 1029.3 524.307 1034.91 495.151L1034.91 495.136C1035.81 490.439 1036.71 485.772 1037.56 481.151C1040.62 464.471 1043.05 448.377 1042.87 433.54C1042.68 418.708 1039.89 405.166 1032.53 393.571C1017.82 370.395 984.716 354.777 916.941 352.505C814.941 349.086 745.038 378.969 685.815 404.287C666.368 412.6 648.073 420.421 630.171 426.41C593.965 438.521 559.386 443.109 520.249 428.97C481.138 414.841 437.539 382.032 383.222 319.503C328.976 257.058 283.705 238.514 243.321 244.185C202.878 249.865 167.155 279.843 132.047 314.92C123.566 323.393 115.121 332.164 106.657 340.954C80.1299 368.506 53.4093 396.258 24.7718 415.687C5.8704 428.511 -13.8978 437.734 -35.0378 440.893C-56.185 444.052 -78.6732 441.137 -103 429.734L-102.576 428.829C-78.4152 440.154 -56.1253 443.032 -35.1856 439.904C-14.2387 436.774 5.38892 427.629 24.2103 414.86C52.7529 395.495 79.3685 367.853 105.879 340.32C114.357 331.515 122.824 322.721 131.34 314.213C166.436 279.148 202.371 248.927 243.182 243.195C284.051 237.455 329.631 256.286 383.977 318.847C438.25 381.325 481.713 413.986 520.589 428.03C559.439 442.065 593.772 437.531 629.854 425.461C647.656 419.507 665.888 411.712 685.293 403.415L685.294 403.415C744.545 378.084 814.729 348.078 916.975 351.505C984.812 353.779 1018.38 369.412 1033.37 393.035C1040.87 404.839 1043.68 418.583 1043.87 433.528C1044.05 448.469 1041.6 464.645 1038.54 481.331C1037.69 485.963 1036.79 490.634 1035.89 495.329L1035.88 495.366C1030.28 524.537 1024.49 554.655 1028.68 582.268C1031.11 598.282 1036.89 613.435 1048.01 627.052C1059.13 640.672 1075.61 652.781 1099.48 662.669C1175.94 694.344 1255.78 696.661 1324.52 686.678C1393.26 676.694 1450.89 654.414 1482.91 636.933L1483.39 637.811ZM1344.87 647.261C1413.73 637.261 1471.46 614.943 1503.59 597.405L1503.11 596.527C1471.09 614.008 1413.47 636.288 1344.72 646.272C1275.98 656.255 1196.15 653.938 1119.68 622.263C1095.81 612.375 1079.33 600.265 1068.21 586.646C1057.09 573.029 1051.31 557.875 1048.88 541.862C1044.7 514.249 1050.48 484.13 1056.09 454.96C1056.99 450.252 1057.89 445.569 1058.74 440.925C1061.81 424.238 1064.25 408.063 1064.07 393.122C1063.89 378.176 1061.07 364.432 1053.58 352.629C1038.58 329.006 1005.02 313.373 937.178 311.099C834.932 307.672 764.748 337.678 705.497 363.009L705.496 363.009C686.091 371.305 667.859 379.1 650.057 385.055C613.975 397.124 579.642 401.659 540.792 387.624C501.916 373.579 458.453 340.918 404.18 278.441C349.834 215.88 304.254 197.049 263.385 202.789C222.574 208.52 186.639 238.741 151.543 273.806C143.027 282.315 134.56 291.109 126.082 299.914C99.5715 327.446 72.9559 355.089 44.4133 374.454C25.5919 387.223 5.96426 396.368 -14.9826 399.497C-35.9223 402.626 -58.2122 399.748 -82.3726 388.422L-82.797 389.328C-58.4702 400.731 -35.982 403.646 -14.8348 400.486C6.30523 397.328 26.0734 388.105 44.9748 375.281C73.6124 355.852 100.333 328.1 126.86 300.548C135.324 291.757 143.769 282.987 152.25 274.514C187.358 239.437 223.081 209.459 263.524 203.779C303.908 198.107 349.179 216.652 403.425 279.097C457.742 341.625 501.341 374.435 540.452 388.564C579.589 402.703 614.168 398.114 650.374 386.003C668.276 380.015 686.571 372.194 706.018 363.881C765.241 338.563 835.144 308.68 937.144 312.099C1004.92 314.37 1038.02 329.989 1052.73 353.164C1060.09 364.76 1062.89 378.302 1063.07 393.134C1063.25 407.971 1060.82 424.065 1057.76 440.745C1056.91 445.371 1056.01 450.043 1055.11 454.745C1049.51 483.901 1043.68 514.214 1047.89 542.012C1050.34 558.173 1056.19 573.501 1067.44 587.278C1078.68 601.053 1095.32 613.251 1119.3 623.187C1195.98 654.949 1276 657.262 1344.87 647.261ZM1523.79 557C1491.67 574.537 1433.93 596.855 1365.07 606.856C1296.2 616.857 1216.18 614.544 1139.5 582.782C1115.52 572.845 1098.89 560.648 1087.64 546.873C1076.39 533.096 1070.55 517.767 1068.1 501.606C1063.88 473.808 1069.71 443.496 1075.31 414.339L1075.32 414.283L1075.35 414.154C1076.24 409.515 1077.13 404.905 1077.96 400.339C1081.03 383.659 1083.46 367.566 1083.27 352.729C1083.09 337.896 1080.3 324.355 1072.94 312.759C1058.22 289.583 1025.12 273.965 957.347 271.693C855.347 268.274 785.444 298.158 726.221 323.475C706.774 331.789 688.479 339.61 670.577 345.598C634.371 357.709 599.792 362.297 560.655 348.159C521.544 334.03 477.945 301.22 423.628 238.692C369.382 176.246 324.111 157.702 283.727 163.374C243.284 169.054 207.561 199.031 172.453 234.109C163.972 242.582 155.527 251.352 147.063 260.143C120.536 287.694 93.8154 315.447 65.1778 334.876C46.2764 347.699 26.5082 356.923 5.36816 360.081C-15.779 363.24 -38.2672 360.326 -62.594 348.923L-62.1696 348.017C-38.0092 359.342 -15.7193 362.22 5.22041 359.092C26.1673 355.963 45.7949 346.818 64.6163 334.048C93.1589 314.683 119.774 287.041 146.285 259.508C154.763 250.703 163.23 241.909 171.746 233.401C206.842 198.336 242.777 168.115 283.588 162.384C324.457 156.644 370.037 175.475 424.383 238.036C478.656 300.513 522.119 333.174 560.995 347.218C599.845 361.254 634.178 356.719 670.26 344.65C688.062 338.695 706.294 330.9 725.699 322.604L725.7 322.604C784.951 297.272 855.135 267.267 957.381 270.694C1025.22 272.968 1058.79 288.601 1073.78 312.223C1081.27 324.027 1084.09 337.771 1084.27 352.716C1084.46 367.657 1082.01 383.833 1078.95 400.52C1078.11 405.09 1077.22 409.699 1076.33 414.331L1076.31 414.433L1076.29 414.554C1070.69 443.725 1064.9 473.844 1069.09 501.456C1071.51 517.47 1077.29 532.624 1088.41 546.241C1099.53 559.86 1116.02 571.97 1139.89 581.858C1216.35 613.532 1296.18 615.849 1364.93 605.866C1433.67 595.883 1491.29 573.603 1523.31 556.122L1523.79 557ZM1544 516.593C1511.87 534.131 1454.13 556.449 1385.27 566.45C1316.41 576.451 1236.38 574.138 1159.71 542.375C1135.72 532.439 1119.09 520.242 1107.84 506.467C1096.59 492.689 1090.75 477.361 1088.3 461.2C1084.09 433.402 1089.91 403.089 1095.52 373.933L1095.52 373.919L1095.52 373.907L1095.52 373.891C1096.43 369.203 1097.32 364.545 1098.17 359.933C1101.23 343.253 1103.66 327.159 1103.48 312.322C1103.29 297.49 1100.5 283.948 1093.14 272.353C1078.43 249.177 1045.32 233.559 977.55 231.287C875.55 227.868 805.647 257.751 746.424 283.069C726.977 291.382 708.682 299.203 690.78 305.192C654.573 317.303 619.995 321.891 580.858 307.753C541.747 293.623 498.148 260.814 443.831 198.285C389.585 135.84 344.314 117.296 303.93 122.967C263.487 128.647 227.764 158.625 192.655 193.702C184.175 202.175 175.73 210.946 167.266 219.737C140.739 247.288 114.018 275.04 85.3807 294.469C66.4794 307.293 46.7112 316.516 25.5711 319.675C4.42393 322.834 -18.0643 319.919 -42.391 308.516L-41.9666 307.611C-17.8062 318.936 4.48363 321.814 25.4234 318.686C46.3702 315.556 65.9979 306.411 84.8193 293.642C113.362 274.277 139.977 246.635 166.488 219.102C174.966 210.297 183.433 201.503 191.949 192.995C227.045 157.93 262.98 127.709 303.791 121.977C344.66 116.237 390.24 135.069 444.586 197.629C498.859 260.107 542.322 292.768 581.198 306.812C620.048 320.847 654.38 316.313 690.463 304.243C708.265 298.289 726.497 290.494 745.902 282.198L745.903 282.197C805.154 256.866 875.338 226.86 977.584 230.287C1045.42 232.561 1078.99 248.194 1093.98 271.817C1101.47 283.621 1104.29 297.365 1104.48 312.31C1104.66 327.251 1102.21 343.427 1099.15 360.113C1098.3 364.745 1097.4 369.416 1096.5 374.111L1096.49 374.148C1090.89 403.319 1085.1 433.437 1089.29 461.05C1091.72 477.064 1097.5 492.217 1108.62 505.834C1119.74 519.454 1136.22 531.563 1160.09 541.451C1236.55 573.126 1316.39 575.443 1385.13 565.46C1453.87 555.476 1511.5 533.196 1543.52 515.716L1544 516.593Z" fill="url(#paint0_linear_193_2268)"/>
<path d="M143.494 28.5233C125.226 43.8948 124.862 43.9002 111.552 29.002C124.335 44.3542 124.276 44.7135 106.39 60.5274C124.658 45.1558 125.022 45.1505 138.331 60.0486C125.548 44.6964 125.607 44.3372 143.494 28.5233Z" fill="#FFE7D1"/>
<path d="M1239.08 166.387C1078.49 101.984 1358.31 5.68512 1478.45 14.9384C1469.71 245.018 1568.72 476.842 1428.66 485.253C1207.85 498.514 1441.24 247.467 1239.08 166.387Z" fill="#FFE7D1" fill-opacity="0.38"/>
<defs>
<linearGradient id="paint0_linear_193_2268" x1="86.4024" y1="266.149" x2="1529.9" y2="266.149" gradientUnits="userSpaceOnUse">
<stop offset="0.310417" stop-color="#4535AF" stop-opacity="0.7"/>
<stop offset="0.461458" stop-color="#F8EFF4" stop-opacity="0.1"/>
<stop offset="0.851637" stop-color="#4535AF" stop-opacity="0.8"/>
</linearGradient>
</defs>
</svg>
