<svg width="49" height="49" viewBox="0 0 49 49" fill="none" xmlns="http://www.w3.org/2000/svg">
<path d="M36.0616 29.1692C35.5403 29.6743 35.3009 30.4048 35.4196 31.1213L37.2087 41.0226C37.3596 41.8618 37.0054 42.711 36.3031 43.196C35.6148 43.6992 34.6991 43.7595 33.9485 43.357L25.0353 38.7082C24.7253 38.5432 24.3812 38.4547 24.029 38.4446H23.4837C23.2945 38.4728 23.1093 38.5332 22.9403 38.6257L14.0251 43.2967C13.5843 43.518 13.0853 43.5965 12.5962 43.518C11.4048 43.2926 10.6099 42.1576 10.8051 40.9602L12.5962 31.0589C12.715 30.3364 12.4755 29.6018 11.9543 29.0887L4.68724 22.045C4.07948 21.4554 3.86817 20.5699 4.14589 19.771C4.41556 18.974 5.10382 18.3924 5.93497 18.2616L15.9369 16.8106C16.6976 16.7321 17.3658 16.2693 17.7079 15.585L22.1152 6.54907C22.2198 6.34782 22.3547 6.16267 22.5177 6.0057L22.6988 5.86483C22.7934 5.76018 22.9021 5.67364 23.0228 5.60321L23.2422 5.52271L23.5843 5.38184H24.4315C25.1882 5.46032 25.8543 5.91313 26.2025 6.58931L30.6682 15.585C30.9902 16.2431 31.616 16.6999 32.3385 16.8106L42.3405 18.2616C43.1857 18.3824 43.8921 18.966 44.1718 19.771C44.4354 20.578 44.208 21.4634 43.5882 22.045L36.0616 29.1692Z" fill="#FFCC00"/>
</svg>
