<svg width="27" height="28" viewBox="0 0 27 28" fill="none" xmlns="http://www.w3.org/2000/svg">
<rect y="0.262329" width="27" height="27" rx="13.5" fill="#50C099" fill-opacity="0.12"/>
<path d="M9.61932 19.2623V17.9896L13.5568 13.9101C13.9773 13.4669 14.3239 13.0786 14.5966 12.7453C14.8731 12.4082 15.0795 12.0881 15.2159 11.7851C15.3523 11.482 15.4205 11.1601 15.4205 10.8191C15.4205 10.4328 15.3295 10.0994 15.1477 9.81915C14.9659 9.53506 14.7178 9.31725 14.4034 9.16574C14.089 9.01043 13.7348 8.93278 13.3409 8.93278C12.9242 8.93278 12.5606 9.01801 12.25 9.18847C11.9394 9.35892 11.7008 9.59945 11.5341 9.91006C11.3674 10.2207 11.2841 10.5843 11.2841 11.001H9.60795C9.60795 10.2926 9.77083 9.67331 10.0966 9.14301C10.4223 8.61271 10.8693 8.20172 11.4375 7.91006C12.0057 7.6146 12.6515 7.46687 13.375 7.46687C14.1061 7.46687 14.75 7.61271 15.3068 7.90437C15.8674 8.19225 16.3049 8.58619 16.6193 9.08619C16.9337 9.5824 17.0909 10.143 17.0909 10.768C17.0909 11.1998 17.0095 11.6222 16.8466 12.0351C16.6875 12.4479 16.4091 12.9082 16.0114 13.4157C15.6136 13.9195 15.0606 14.5313 14.3523 15.251L12.0398 17.6714V17.7566H17.2784V19.2623H9.61932Z" fill="#50C099"/>
</svg>
