<svg width="27" height="28" viewBox="0 0 27 28" fill="none" xmlns="http://www.w3.org/2000/svg">
<rect y="0.762329" width="27" height="27" rx="13.5" fill="#FA3232" fill-opacity="0.12"/>
<path d="M13.1705 19.9214C12.3902 19.9214 11.6932 19.787 11.0795 19.518C10.4697 19.2491 9.98674 18.876 9.63068 18.3987C9.27841 17.9176 9.08902 17.3608 9.0625 16.7282H10.8466C10.8693 17.0729 10.9848 17.3722 11.1932 17.626C11.4053 17.876 11.6818 18.0691 12.0227 18.2055C12.3636 18.3419 12.7424 18.4101 13.1591 18.4101C13.6174 18.4101 14.0227 18.3305 14.375 18.1714C14.7311 18.0123 15.0095 17.7907 15.2102 17.5066C15.411 17.2188 15.5114 16.8873 15.5114 16.5123C15.5114 16.1222 15.411 15.7794 15.2102 15.4839C15.0133 15.1847 14.7235 14.9498 14.3409 14.7794C13.9621 14.6089 13.5038 14.5237 12.9659 14.5237H11.983V13.0919H12.9659C13.3977 13.0919 13.7765 13.0142 14.1023 12.8589C14.4318 12.7036 14.6894 12.4877 14.875 12.2112C15.0606 11.9309 15.1534 11.6032 15.1534 11.2282C15.1534 10.8684 15.072 10.5559 14.9091 10.2907C14.75 10.0218 14.5227 9.81157 14.2273 9.66006C13.9356 9.50854 13.5909 9.43278 13.1932 9.43278C12.8144 9.43278 12.4602 9.50286 12.1307 9.64301C11.8049 9.77937 11.5398 9.97634 11.3352 10.2339C11.1307 10.4877 11.0208 10.7926 11.0057 11.1487H9.30682C9.32576 10.5199 9.51136 9.96687 9.86364 9.4896C10.2197 9.01233 10.6894 8.63922 11.2727 8.37028C11.8561 8.10134 12.5038 7.96687 13.2159 7.96687C13.9621 7.96687 14.6061 8.11271 15.1477 8.40437C15.6932 8.69225 16.1136 9.07672 16.4091 9.55778C16.7083 10.0388 16.8561 10.5654 16.8523 11.1373C16.8561 11.7888 16.6742 12.3419 16.3068 12.7964C15.9432 13.251 15.4583 13.5559 14.8523 13.7112V13.8021C15.625 13.9195 16.2235 14.2263 16.6477 14.7226C17.0758 15.2188 17.2879 15.8343 17.2841 16.5691C17.2879 17.2093 17.1098 17.7832 16.75 18.2907C16.3939 18.7983 15.9072 19.1979 15.2898 19.4896C14.6723 19.7775 13.9659 19.9214 13.1705 19.9214Z" fill="#FA3232"/>
</svg>
