<svg width="1440" height="386" viewBox="0 0 1440 386" fill="none" xmlns="http://www.w3.org/2000/svg">
<path d="M781.955 190.361C776.844 178.55 776.414 164.28 786.977 159.092C789.219 157.997 791.497 157.531 793.685 157.531C798.724 157.531 803.351 159.99 806.346 162.772C807.351 163.705 808.23 164.711 808.983 165.734C806.077 168.211 803.997 171.101 803.244 174.099C802.15 178.442 804.625 181.799 807.512 182.733C810.328 183.648 813.987 182.535 815.798 177.994C817.089 174.691 816.946 170.903 815.529 167.26C818.918 165.231 823.151 163.741 827.599 163.436C832.154 163.131 840.368 164.011 844.134 173.398C849.461 186.646 833.392 201.167 816.587 210.322C812.534 212.548 808.104 214.684 803.387 216.856C796.267 211.507 787.246 202.621 781.955 190.361ZM811.278 170.491C811.781 172.483 811.745 174.404 811.063 176.109C810.651 177.15 809.915 178.155 809.072 177.886C808.499 177.706 807.781 176.863 808.176 175.337C808.57 173.757 809.664 172.088 811.278 170.491ZM644.577 249.13C640.667 243.978 638.264 236.565 638.766 231.072C639.555 222.277 645.061 220.195 648.271 219.728C648.863 219.638 649.455 219.602 650.011 219.602C654.046 219.602 656.88 221.684 658.297 223.031C658.369 223.084 658.422 223.156 658.476 223.21C657.006 224.987 655.894 227.087 655.176 229.439C654.19 232.742 654.818 235.847 656.862 237.732C658.512 239.293 660.844 239.76 662.942 238.97C665.435 238.019 667.031 235.56 667.336 232.221C667.587 229.564 666.834 226.603 665.309 223.892C668.179 222.043 671.461 221.451 673.756 221.648C680.554 222.241 683.782 228.811 683.925 233.28C684.105 238.881 681.468 243.961 675.675 249.256C670.152 254.318 662.44 256.633 653.795 257.513C650.173 255.143 647.034 252.343 644.577 249.13ZM660.054 230.893C660.413 229.69 660.915 228.613 661.507 227.662C662.117 229.098 662.404 230.516 662.278 231.736C662.135 233.28 661.579 234.016 661.113 234.196C660.844 234.303 660.557 234.232 660.306 234.016C659.857 233.585 659.552 232.562 660.054 230.893ZM457.359 280.166C458.686 283.487 459.78 286.233 460.569 288.244C458.435 287.956 454.112 286.502 448.732 283.092C447.62 282.374 446.239 281.44 444.733 280.292C436.285 269.055 415.32 240.137 405.277 224.413C401.995 219.297 398.336 215.653 394.821 213.194C397.923 213.14 400.99 213.248 404.039 213.499C415.535 216.12 435.801 223.551 443.37 243.996C448.302 257.351 453.754 271.083 457.359 280.166ZM433.667 282.553C428.484 280.238 421.059 275.319 414.961 264.998C402.873 244.535 395.323 239.94 389.243 236.26C388.167 235.614 387.145 235.003 386.158 234.321C379.863 230.013 371.829 227.446 367.525 226.082C367.04 225.921 366.61 225.795 366.215 225.651C364.494 225.095 363.651 224.646 363.453 224.52C362.27 223.82 360.799 224.144 360.028 225.274C359.275 226.387 359.508 227.877 360.584 228.721C360.853 228.918 363.202 230.893 365.229 236.493C365.605 237.552 366.036 238.719 366.502 239.958C368.027 244.014 369.928 249.13 371.506 254.928C371.273 254.713 371.058 254.479 370.824 254.264C361.301 245.54 355.473 242.489 350.343 239.796C346.774 237.929 343.69 236.296 339.708 233.011C338.524 232.042 337.466 231.18 336.516 230.426C333.664 228.128 331.602 226.477 331.315 225.49C331.064 224.646 332.193 222.528 333.485 220.23C335.906 215.94 347.707 215.797 358.145 215.653C363.74 215.581 369.515 215.51 374.465 214.863C376.384 214.612 378.321 214.379 380.258 214.163C381.442 215.133 383.379 215.563 385.262 215.851C393.261 217.017 394.086 218.31 398.623 225.544C399.968 227.68 401.672 230.372 403.914 233.603C406.962 237.983 409.133 240.873 411.034 243.422C415.212 249.004 417.974 252.702 426.135 266.955C430.493 274.583 436.303 280.184 441.092 283.918C441.361 284.277 441.63 284.618 441.863 284.923C439.801 284.689 436.949 284.007 433.667 282.553ZM373.246 286.628C372.51 290.056 371.183 292.193 369.874 292.067C367.794 291.869 363.973 287.4 362.628 279.627C363.31 280.094 363.794 280.435 364.081 280.633C366.915 282.661 371.004 282.087 374.232 279.502C374.071 281.853 373.748 284.241 373.246 286.628ZM239.346 212.422C231.401 206.193 221.071 204.237 207.387 203.429C207.333 203.411 207.297 203.411 207.262 203.411C208.087 202.621 209.647 201.652 211.279 201.598C226.631 200.898 236.262 200.916 240.817 209.604C240.817 209.622 241.158 210.376 239.346 212.422ZM1090.57 186.771C1092.72 183.576 1094.32 181.763 1095.38 180.74C1095.15 181.691 1094.72 182.966 1093.98 184.599C1091.95 189.087 1088.26 192.803 1084.06 195.549C1086.23 192.892 1088.4 190.02 1090.57 186.771ZM1122.93 214.899C1132.65 213.302 1141 211.381 1147.93 209.137C1144.7 211.345 1141.99 212.727 1140.04 213.122C1134.08 214.307 1128.63 214.756 1123.36 215.204C1122.26 215.294 1121.17 215.384 1120.09 215.492C1121.04 215.24 1121.99 215.043 1122.93 214.899ZM1176.55 181.063C1179.8 171.155 1182.88 161.785 1190.92 161.031C1190.7 162.144 1189.73 164.872 1185.77 170.544C1183.19 174.242 1179.78 178.514 1175.96 182.894C1176.16 182.284 1176.35 181.673 1176.55 181.063ZM1553.84 124.305C1552.35 124.413 1550.84 124.52 1549.27 124.61C1531.13 125.795 1508.54 127.267 1474.89 150.009C1442.5 171.891 1390.01 174.511 1334.45 177.294C1329.39 177.563 1324.17 177.814 1318.99 178.101C1302.25 178.981 1287.53 179.537 1274.54 180.022C1256.81 180.686 1242.8 181.207 1233.06 182.266C1221.21 183.558 1216.17 185.587 1215.11 189.518C1214.09 193.215 1207.99 199.534 1201.52 206.211C1196.3 211.614 1190.36 217.735 1185.23 224.287C1177.5 234.178 1167.71 238.899 1158.26 243.476C1153.61 245.72 1149.22 247.838 1145.11 250.512C1140.97 253.205 1137.09 253.348 1134.39 252.882C1133.45 248.43 1129.6 247.676 1126.6 247.533C1124.24 247.407 1123.45 249.005 1123.27 249.489C1122.84 250.602 1122.87 252.343 1125.42 254.407C1126.33 255.143 1127.64 255.951 1129.22 256.633C1128.97 257.262 1128.59 257.998 1128.15 258.859C1126.89 261.246 1125.15 264.513 1124.18 269.934C1123.18 275.409 1125.02 277.797 1126.66 279.915C1128.13 281.817 1129.63 283.774 1129.74 289.249C1129.92 297.955 1127.73 303.735 1123.57 305.547C1122.46 304.614 1120.76 300.27 1119.81 297.883C1118.75 295.208 1117.65 292.462 1116.42 290.487C1113.42 285.677 1111.25 273.112 1111.27 260.618C1111.27 257.908 1111.18 255.395 1111 253.061C1112.85 249.705 1112.2 247.73 1110.55 245.756C1110.3 245.45 1110.07 245.181 1109.92 244.876L1109.78 244.625C1108.69 242.453 1106.96 242.883 1106.48 243.063C1105.83 243.296 1104.4 244.086 1104.94 246.42C1105.3 248.017 1105.58 249.83 1105.8 251.823C1104.72 253.366 1103.61 254.551 1102.21 256.041C1100.15 258.213 1097.59 260.941 1094.14 265.985C1090.23 271.676 1089.89 278.55 1089.55 285.802C1089.3 290.703 1089.07 295.747 1087.81 301.168C1086.56 306.589 1084.39 310.071 1081.53 311.166C1080.08 311.74 1078.36 311.651 1076.73 310.968C1078.77 304.094 1078.36 294.382 1078.04 286.646L1078.02 285.784C1077.62 276.235 1080.03 266.524 1084.01 261.588C1085.26 260.026 1087.25 258.051 1089.37 255.969C1095.07 250.279 1100.99 244.427 1100.62 239.401C1100.51 238.001 1099.29 236.942 1097.89 237.05C1096.49 237.157 1095.45 238.378 1095.56 239.778C1095.76 242.453 1089.51 248.645 1085.78 252.343C1083.58 254.533 1081.48 256.615 1080.05 258.392C1075.27 264.298 1072.49 275.14 1072.94 286L1072.96 286.861C1073.3 295.1 1073.95 310.43 1069.46 313.84C1066.33 316.21 1062.67 316.784 1060.96 315.959C1060.35 315.671 1060.21 315.312 1060.21 314.81C1060.14 312.728 1059.74 308.186 1059.26 302.442C1058.6 294.67 1057.77 284.995 1057.57 278.963C1057.25 269.001 1061.05 258.823 1067.74 251.625C1077.82 245.845 1081.87 240.55 1084.55 236.673C1087.09 234.034 1089.55 231.862 1091.97 230.049C1092.9 229.457 1093.94 228.793 1095.07 228.057C1095.94 227.482 1096.83 226.908 1097.8 226.298C1106.21 221.756 1114.35 221.074 1123.79 220.284C1129.2 219.818 1134.8 219.351 1141.02 218.112C1149.27 216.479 1163.8 203.501 1174.67 191.905C1180.64 185.515 1186.02 179.017 1189.82 173.614C1195.88 164.962 1196.26 161.551 1196.03 159.738C1195.76 157.728 1194.23 155.682 1190.77 155.933C1179.17 156.795 1175.22 168.839 1171.73 179.484C1170.26 184.007 1168.86 188.279 1166.99 191.636C1163.96 197.111 1153.72 204.721 1122.12 209.873C1112.38 211.453 1102.62 217.179 1095.34 221.81C1093.28 222.941 1091.18 224.269 1089.05 225.867C1087.94 226.567 1087 227.105 1086.3 227.428C1083.88 228.577 1082.54 230.588 1080.96 232.903C1080.82 233.119 1080.65 233.352 1080.51 233.585C1080.48 233.621 1080.46 233.657 1080.42 233.693C1077.59 237.839 1073.01 243.763 1059.37 250.279C1046.96 256.185 1039.19 252.361 1036.3 247.299C1035.01 245.02 1035.01 242.812 1035.82 242.273C1041.92 238.163 1054.76 226.531 1063.89 216.856C1066.27 214.325 1068.66 211.937 1070.93 209.64C1072.55 208.024 1074.13 206.445 1075.69 204.829C1084.56 202.46 1094.37 196.052 1098.61 186.7C1102.16 178.837 1100.63 175.929 1098.71 174.852C1095.67 173.147 1091.61 176.109 1086.36 183.935C1081.96 190.469 1077.57 195.513 1073.05 200.234C1072.3 200.395 1071.54 200.521 1070.83 200.611C1063.13 201.544 1053.77 194.454 1050.26 191.797L1049.84 191.492C1047.3 189.572 1041.95 190.056 1031.91 191.151C1024.84 191.941 1016.83 192.821 1011.98 191.977C1004.92 190.756 998.658 193 989.171 196.428C983.145 198.6 975.612 201.293 965.39 204.075C952.136 207.665 946.379 203.573 944.514 201.652C942.81 199.875 942.057 197.577 942.613 195.8C942.954 194.669 943.815 193.933 945.07 193.664C956.566 191.295 967.954 186.771 981.997 179.017C995.663 171.46 1017.61 166.524 1037.93 166.434C1055.47 166.344 1064.98 160.923 1082.23 151.051C1084.22 149.92 1086.3 148.735 1088.51 147.478C1100.63 140.621 1124.45 134.752 1143.59 130.031C1158.15 126.441 1169.65 123.605 1174.34 120.966C1183.98 115.509 1218.89 102.406 1256.79 92.9459C1284.19 86.1069 1328.65 66.9361 1364.38 51.5529C1377.35 45.9524 1388.54 41.1238 1397.41 37.5338C1419.81 28.4869 1469.82 19.44 1506.33 12.8523C1524.32 9.60335 1538.51 7.03648 1545.57 5.20557C1546.92 4.84657 1547.74 3.46441 1547.38 2.10019C1547.02 0.735982 1545.64 -0.0717708 1544.28 0.269279C1537.41 2.06429 1522.6 4.73886 1505.43 7.84424C1468.7 14.4678 1418.4 23.5686 1395.51 32.8129C1386.6 36.4209 1375.37 41.2674 1362.37 46.8679C1326.81 62.1973 1282.56 81.2604 1255.57 87.9917C1219.95 96.8949 1183.53 109.927 1171.83 116.514C1167.74 118.83 1155.42 121.882 1142.39 125.095C1122.94 129.887 1098.75 135.847 1086.02 143.045C1083.79 144.301 1081.71 145.504 1079.72 146.635C1062.67 156.364 1054.11 161.264 1037.9 161.336C1021.11 161.408 996.972 164.926 979.558 174.547C965.964 182.068 955.024 186.412 944.048 188.692C944.03 188.692 943.994 188.692 943.976 188.692C934.273 190.361 924.015 196.608 913.182 203.25C904.251 208.706 895.015 214.361 885.814 217.502C862.589 225.472 829.607 230.336 812.05 222.259C811.081 221.81 809.79 221.128 808.265 220.195C812.05 218.417 815.654 216.64 819.026 214.809C829.769 208.94 838.306 202.191 843.686 195.28C850.053 187.13 851.828 178.909 848.851 171.496C845.228 162.467 837.355 157.674 827.258 158.356C822.254 158.697 817.268 160.367 813.108 162.79C812.175 161.48 811.063 160.205 809.79 159.02C802.58 152.343 792.752 150.584 784.735 154.533C772.988 160.313 770.011 175.517 777.292 192.39C782.207 203.752 790.492 212.979 798.15 219.243C796.303 220.069 794.402 220.913 792.483 221.774C779.66 227.482 766.37 233.388 756.255 240.245C740.545 250.853 722.754 262.862 703.008 266.614C690.525 269.001 674.241 267.35 661.202 261.534C668.053 260.098 674.205 257.495 679.083 253.025C683.477 249.005 689.288 242.578 689.001 233.137C688.821 226.764 684.087 217.43 674.187 216.587C670.887 216.299 667.031 217.143 663.821 218.848C663.283 219.153 662.763 219.459 662.26 219.8C662.117 219.656 661.956 219.494 661.812 219.351C657.866 215.581 652.809 213.93 647.554 214.684C639.681 215.815 634.498 221.774 633.709 230.624C633.099 237.373 635.843 246.043 640.542 252.218C642.084 254.228 643.896 256.149 645.958 257.926C637.726 258.033 629.046 257.262 620.796 256.526C615.72 256.077 610.932 255.646 606.466 255.431C591.975 254.784 577.251 255.143 563.029 255.484C555.945 255.646 548.627 255.826 541.436 255.879C537.974 255.897 533.921 256.077 529.222 256.274C516.632 256.813 499.917 257.513 486 255.305C487.471 254.425 488.618 253.295 489.372 252.038C491.147 249.112 490.771 245.756 488.403 243.476C487.488 242.596 486.215 241.537 484.762 240.335C479.346 235.793 470.289 228.236 463.42 216.389C458.955 208.688 452.803 201.616 445.629 195.962C438.671 190.469 431.066 186.52 423.642 184.563C407.859 180.399 387.79 169.521 379.881 165.052C367.524 158.051 357.714 155.969 329.916 154.425C318.438 153.797 302.117 152.056 286.317 150.368C264.329 148.035 243.543 145.809 234.128 146.258C195.55 148.125 176.091 160.887 151.467 177.042C149.315 178.46 147.091 179.914 144.814 181.386C108.173 205.17 -1.92665 251.338 -54.8335 273.524C-63.998 277.384 -71.9251 280.686 -77.6462 283.128C-78.9375 283.684 -79.5473 285.174 -78.9913 286.466C-78.4353 287.759 -76.9468 288.369 -75.6734 287.831C-69.9344 285.389 -62.0432 282.069 -52.8786 278.227C4.22489 254.282 110.559 209.694 147.576 185.658C149.871 184.187 152.095 182.715 154.265 181.297C178.226 165.572 197.164 153.133 234.361 151.338C243.4 150.907 264.939 153.205 285.779 155.43C301.633 157.118 318.025 158.877 329.629 159.505C356.782 161.013 365.713 162.88 377.388 169.485C385.459 174.063 405.994 185.174 422.35 189.482C436.411 193.197 450.812 204.757 459.026 218.938C466.344 231.575 475.831 239.509 481.516 244.23C482.897 245.397 484.099 246.384 484.888 247.156C485.677 247.91 485.39 248.807 485.031 249.399C483.543 251.859 478.701 253.42 471.581 251.033C465.303 248.915 456.031 240.353 447.082 232.095C436.967 222.743 427.408 213.894 419.678 211.399C407.985 207.611 395.449 207.594 383.199 208.742C382.733 208.796 382.267 208.832 381.8 208.886C379.11 209.155 376.438 209.478 373.802 209.819C369.157 210.43 363.525 210.501 358.073 210.573C345.142 210.735 332.929 210.896 329.073 217.717C326.867 221.613 325.594 224.179 326.437 226.962C327.19 229.439 329.378 231.198 333.341 234.393C334.274 235.147 335.314 235.991 336.48 236.942C340.856 240.568 344.335 242.381 347.994 244.302C353.087 246.976 358.36 249.74 367.399 258.033C375.057 265.034 374.896 271.101 372.187 274.44C370.502 276.522 368.08 277.24 367.04 276.504C363.884 274.242 335.368 254.372 301.561 250.799C267.468 247.192 252.026 228.685 246.969 220.913C245.749 219.046 244.458 217.358 243.059 215.869C245.516 213.122 246.843 210.142 245.301 207.252C242.449 201.778 238.055 198.583 231.473 197.164C225.878 195.944 219.206 196.141 211.046 196.5C206.329 196.716 201.666 200.431 201.648 204.021C201.63 204.704 201.863 208.186 207.082 208.491C219.529 209.227 228.604 210.842 235.491 215.904C234.809 216.425 234.038 217.017 233.159 217.628C226.81 222.133 217.197 227.59 207.011 233.388C200.859 236.87 194.51 240.478 188.125 244.284C148.239 268.05 120.71 293.216 96.4263 315.42C66.6908 342.615 41.0086 366.093 0.871132 381.064C-0.438087 381.548 -1.10166 383.02 -0.617432 384.331C-0.240799 385.354 0.727654 386 1.74992 386C2.05481 386 2.34177 385.946 2.64665 385.839C43.6988 370.527 69.7218 346.725 99.8517 319.19C123.956 297.147 151.27 272.16 190.726 248.663C197.057 244.876 203.388 241.286 209.503 237.822C220.264 231.718 229.536 226.441 236.1 221.774C237.194 221.002 238.288 220.195 239.346 219.333C240.53 220.625 241.66 222.061 242.718 223.695C246.126 228.936 252.385 236.583 262.841 243.225C273.637 250.064 286.478 254.318 301.023 255.861C325.127 258.41 346.451 269.575 357.122 276.091C357.768 287.238 363.113 296.554 369.39 297.129C369.569 297.165 369.766 297.165 369.982 297.165C372.241 297.165 376.456 295.98 378.213 287.687C382.392 267.888 375.416 249.274 371.255 238.163C370.807 236.942 370.376 235.793 369.999 234.752C369.623 233.693 369.21 232.724 368.816 231.844C373.012 233.244 378.752 235.434 383.307 238.54C384.401 239.276 385.477 239.94 386.607 240.622C392.489 244.176 399.161 248.233 410.585 267.583C422.368 287.543 439.46 290.595 445.037 290.074C445.683 290.021 447.333 289.877 448.337 288.782C453.951 291.995 460.497 294.49 463.905 292.875C465.537 292.103 466.738 290.164 465.752 287.579C464.945 285.479 463.672 282.302 462.075 278.281C458.488 269.216 453.036 255.538 448.122 242.237C447.656 240.963 447.136 239.742 446.562 238.522C452.624 244.104 458.435 249.238 463.618 252.595C463.618 252.595 463.618 252.612 463.636 252.63C463.851 252.774 464.12 252.918 464.353 253.079C479.508 263.472 508.31 262.252 529.437 261.354C534.082 261.157 538.1 260.977 541.471 260.959C548.699 260.905 556.052 260.744 563.136 260.564C577.287 260.223 591.921 259.864 606.233 260.528C610.591 260.726 615.326 261.157 620.347 261.588C630.929 262.539 642.228 263.562 652.612 262.718C657.49 265.698 663.211 268.103 669.488 269.827C676.572 271.765 684.087 272.753 691.261 272.753C695.672 272.753 699.959 272.376 703.958 271.622C724.708 267.673 742.966 255.341 759.089 244.463C768.845 237.875 781.92 232.042 794.563 226.423C797.361 225.167 800.105 223.946 802.795 222.725C805.432 224.538 807.871 225.956 809.933 226.89C831.544 236.834 868.848 228.703 887.464 222.331C897.185 219.01 906.654 213.194 915.819 207.593C923.405 202.962 930.669 198.547 937.43 195.89C937.053 199.067 938.273 202.496 940.873 205.188C943.348 207.755 950.845 213.302 966.717 208.994C977.137 206.157 984.759 203.429 990.893 201.203C999.932 197.972 1005.37 195.998 1011.12 197.003C1016.66 197.972 1025.06 197.039 1032.46 196.213C1037.58 195.657 1045.29 194.813 1046.83 195.585L1047.19 195.854C1050.97 198.726 1059.19 204.937 1067.67 205.709C1067.58 205.816 1067.46 205.924 1067.35 206.032C1065.03 208.365 1062.63 210.771 1060.21 213.355C1051.28 222.815 1038.81 234.106 1032.98 238.037C1029.72 240.245 1029.27 245.199 1031.89 249.83C1034.08 253.654 1037.95 256.526 1042.54 257.71C1044.25 258.141 1046.01 258.357 1047.83 258.357C1051.1 258.357 1054.54 257.674 1058.17 256.31C1054.33 263.203 1052.25 271.209 1052.5 279.107C1052.69 285.3 1053.52 295.047 1054.2 302.873C1054.67 308.312 1055.06 313.033 1055.12 314.971C1055.19 317.43 1056.52 319.477 1058.76 320.554C1059.96 321.11 1061.34 321.397 1062.83 321.397C1065.97 321.397 1069.54 320.159 1072.51 317.897C1073.34 317.269 1074.04 316.497 1074.66 315.6C1076.23 316.246 1077.88 316.623 1079.47 316.623C1080.82 316.623 1082.14 316.389 1083.38 315.905C1086.52 314.702 1090.68 311.345 1092.76 302.298C1094.11 296.447 1094.37 290.936 1094.61 286.054C1094.95 279.25 1095.24 273.363 1098.32 268.857C1101.55 264.154 1103.86 261.695 1105.91 259.541C1106 259.434 1106.09 259.326 1106.18 259.236C1106.19 259.685 1106.19 260.152 1106.19 260.6C1106.18 274.386 1108.56 287.49 1112.11 293.18C1113.1 294.759 1114.1 297.308 1115.09 299.75C1116.11 302.37 1117.21 305.099 1118.41 307.073C1120.97 311.256 1123.73 310.95 1125.15 310.412C1129.72 308.617 1135.12 303.483 1134.82 289.141C1134.67 281.997 1132.36 278.999 1130.69 276.809C1129.28 274.996 1128.59 274.099 1129.17 270.85C1130.01 266.201 1131.46 263.436 1132.63 261.229C1133.22 260.116 1133.78 259.075 1134.14 257.998C1138.15 258.554 1142.96 257.98 1147.87 254.784C1151.71 252.289 1155.96 250.243 1160.45 248.053C1169.99 243.458 1180.78 238.234 1189.23 227.428C1194.2 221.092 1200.01 215.061 1205.16 209.748C1212.71 201.975 1218.66 195.818 1220.01 190.846C1220.02 190.756 1220.72 188.728 1233.62 187.328C1243.18 186.287 1257.11 185.766 1274.74 185.102C1287.74 184.617 1302.49 184.061 1319.26 183.163C1324.44 182.894 1329.66 182.643 1334.7 182.391C1363.41 180.955 1390.53 179.591 1414.85 175.786C1442.38 171.46 1462.36 164.621 1477.73 154.228C1510.24 132.257 1532.07 130.839 1549.61 129.69C1551.19 129.6 1552.69 129.492 1554.22 129.385C1555.61 129.277 1556.66 128.056 1556.57 126.656C1556.46 125.256 1555.24 124.197 1553.84 124.305Z" fill="#FF2D59"/>
</svg>
